<?xml version="1.0" encoding="utf-8"?>
<!-- Generator: Adobe Illustrator 12.0.0, SVG Export Plug-In . SVG Version: 6.00 Build 51448)  -->
<!DOCTYPE svg PUBLIC "-//W3C//DTD SVG 1.1//EN" "http://www.w3.org/Graphics/SVG/1.1/DTD/svg11.dtd" [
	<!ENTITY ns_svg "http://www.w3.org/2000/svg">
	<!ENTITY ns_xlink "http://www.w3.org/1999/xlink">
]>
<svg  version="1.1" id="レイヤー_1" xmlns="&ns_svg;" xmlns:xlink="&ns_xlink;" width="137" height="70.263"
	 viewBox="0 0 137 70.263" overflow="visible" enable-background="new 0 0 137 70.263" xml:space="preserve">
<g>
	<path d="M22.875,2.246c0.325,0.389,0.504,0.494,0.892,0.494c0.63,0,1.417-0.273,1.995-0.683c0.042-0.031,0.095-0.052,0.147-0.052
		c0.21,0,0.588,0.315,0.588,0.504c0,0.094-0.042,0.126-0.346,0.283c-0.431,0.21-0.945,0.651-1.333,1.145
		c-0.756,0.935-1.155,1.974-1.155,2.993c0,1.417,0.788,2.299,2.037,2.299c0.956,0,1.795-0.525,2.278-1.417
		c0.347-0.661,0.525-1.543,0.525-2.656c0-1.103-0.105-1.974-0.347-2.846c-0.032-0.105-0.053-0.22-0.053-0.252
		c0-0.105,0.084-0.189,0.2-0.189h0.011c0.157,0.011,0.378,0.126,0.504,0.263c0.126,0.115,0.147,0.168,0.157,0.388
		c0.042,0.483,0.41,1.564,0.84,2.415c0.294,0.599,0.546,0.977,0.84,1.271c0.199,0.2,0.305,0.515,0.305,0.872
		c0,0.242-0.095,0.41-0.242,0.41c-0.242,0-0.525-0.368-0.945-1.218c-0.431-0.882-0.714-1.648-1.124-3.013l-0.032,0.01
		c0.21,1.491,0.242,1.869,0.242,2.636c0,1.396-0.305,2.404-0.935,3.118c-0.504,0.578-1.26,0.903-2.058,0.903
		c-1.564,0-2.593-1.176-2.593-2.972c0-0.662,0.147-1.407,0.42-2.068c0.252-0.63,0.536-1.103,1.071-1.785
		c-0.357,0.063-0.599,0.095-0.809,0.095c-0.588,0-0.955-0.252-1.229-0.84L22.875,2.246z"/>
	<path d="M36.273,8.987c0.966-0.242,1.659-0.504,2.32-0.882c1.229-0.693,1.932-1.722,1.932-2.824c0-1.05-0.777-1.764-1.922-1.764
		c-1.229,0-2.835,0.672-4.221,1.753c-0.168,0.137-0.273,0.179-0.399,0.179c-0.494,0-1.26-0.735-1.26-1.208
		c0-0.074,0.021-0.137,0.084-0.263c0.105,0.221,0.168,0.294,0.294,0.389c0.158,0.116,0.284,0.168,0.431,0.168
		c0.273,0,0.672-0.115,1.271-0.378c1.659-0.725,2.751-1.008,3.843-1.008c1.596,0,2.688,0.934,2.688,2.31
		c0,1.302-0.882,2.426-2.415,3.077c-0.798,0.336-1.564,0.515-2.594,0.609L36.273,8.987z"/>
	<path d="M50.858,7.916c-1.008,1.365-2.384,2.174-3.686,2.174c-0.798,0-1.417-0.326-1.743-0.893
		c-0.21-0.368-0.294-0.882-0.294-1.774c0-0.578,0.031-1.575,0.084-2.531c0.063-1.134,0.074-1.428,0.074-1.806
		c0-0.903-0.105-1.082-0.851-1.397c0.115-0.084,0.178-0.105,0.294-0.105c0.241,0,0.62,0.095,0.945,0.242
		c0.399,0.189,0.609,0.399,0.609,0.62c0,0.073-0.01,0.136-0.094,0.378c-0.2,0.63-0.546,3.812-0.546,5.04
		c0,0.641,0.126,1.019,0.42,1.26c0.231,0.179,0.567,0.284,0.935,0.284c0.714,0,1.596-0.252,2.394-0.672
		c0.483-0.252,0.787-0.473,1.333-0.935L50.858,7.916z M48.296,2.488c0.567,0.199,1.008,0.462,1.354,0.788
		c0.178,0.178,0.262,0.357,0.262,0.598c0,0.273-0.115,0.462-0.273,0.462c-0.084,0-0.115-0.032-0.294-0.357
		c-0.347-0.588-0.672-0.997-1.134-1.386L48.296,2.488z M49.23,1.753c0.662,0.22,1.05,0.409,1.407,0.703
		c0.189,0.158,0.252,0.284,0.252,0.525c0,0.304-0.094,0.504-0.241,0.504c-0.095,0-0.137-0.053-0.273-0.294
		c-0.283-0.483-0.661-0.893-1.218-1.323L49.23,1.753z"/>
	<path d="M75.113,3.779c0.42,0.378,0.788,0.535,1.25,0.535c0.294,0,0.567-0.031,1.05-0.136c0.011-0.305,0.011-0.777,0.011-0.966
		c0-1.103-0.126-1.323-0.851-1.449c0.147-0.116,0.231-0.147,0.452-0.147c0.357,0,0.798,0.105,1.082,0.263
		c0.136,0.073,0.231,0.22,0.231,0.336c0,0.063,0,0.063-0.116,0.273c-0.168,0.304-0.273,0.798-0.326,1.564
		c0.557-0.189,0.809-0.326,1.145-0.609c0.084-0.063,0.189-0.105,0.252-0.105c0.095,0,0.273,0.042,0.399,0.094
		c0.105,0.042,0.178,0.137,0.178,0.231c0,0.147-0.094,0.231-0.472,0.41c-0.473,0.22-0.966,0.389-1.533,0.515
		c-0.011,0.147-0.011,0.147-0.032,0.525c-0.01,0.283-0.031,0.746-0.042,1.375c1.176-0.42,1.932-0.578,2.783-0.578
		c1.438,0,2.341,0.683,2.341,1.795c0,1.029-0.787,1.827-1.795,1.827c-0.966,0-1.659-0.641-2.026-1.858l0.157-0.053
		c0.252,0.483,0.41,0.704,0.63,0.914c0.294,0.273,0.619,0.399,0.998,0.399c0.766,0,1.313-0.599,1.313-1.438
		c0-0.809-0.546-1.25-1.554-1.25c-0.83,0-1.827,0.263-2.846,0.756c0,1.113,0,1.113,0.011,1.428c0.01,0.2,0.01,0.315,0.01,0.399
		c0,0.252-0.042,0.452-0.136,0.62c-0.126,0.241-0.326,0.389-0.504,0.389c-0.147,0-0.147,0-0.788-0.567
		c-0.221-0.178-0.525-0.388-0.704-0.472c-0.231-0.105-0.346-0.263-0.346-0.441c0-0.168,0.105-0.378,0.315-0.588
		c0.388-0.399,0.745-0.63,1.669-1.082c0.01-0.147,0.01-0.304,0.021-0.504c0.021-0.473,0.021-0.473,0.052-1.512
		c-0.325,0.052-0.567,0.073-0.819,0.073c-0.672,0-1.124-0.241-1.564-0.861L75.113,3.779z M76.268,8.032
		c-0.21,0.22-0.315,0.389-0.315,0.504c0,0.105,0.137,0.221,0.42,0.326c0.231,0.094,0.515,0.168,0.651,0.168
		c0.126,0,0.178-0.074,0.189-0.263c0.052-0.945,0.073-1.459,0.073-1.522C76.793,7.549,76.53,7.748,76.268,8.032z M80.951,2.719
		c0.641,0.031,1.113,0.147,1.543,0.378c0.462,0.252,0.735,0.599,0.735,0.924c0,0.189-0.126,0.305-0.315,0.305
		c-0.021,0-0.073,0-0.157-0.021c-0.147-0.021-0.189-0.021-0.221-0.021c-0.157,0-0.409,0.053-1.292,0.284l-0.063-0.105
		c0.63-0.326,0.998-0.546,1.145-0.672c-0.168-0.294-0.336-0.462-0.662-0.651c-0.21-0.115-0.378-0.179-0.724-0.273L80.951,2.719z"/>
	<path d="M85.613,3.779c0.42,0.378,0.788,0.535,1.25,0.535c0.294,0,0.567-0.031,1.05-0.136c0.011-0.305,0.011-0.777,0.011-0.966
		c0-1.103-0.126-1.323-0.851-1.449c0.147-0.116,0.231-0.147,0.452-0.147c0.357,0,0.798,0.105,1.082,0.263
		c0.136,0.073,0.231,0.22,0.231,0.336c0,0.063,0,0.063-0.116,0.273c-0.168,0.304-0.273,0.798-0.326,1.564
		c0.557-0.189,0.809-0.326,1.145-0.609c0.084-0.063,0.189-0.105,0.252-0.105c0.095,0,0.273,0.042,0.399,0.094
		c0.105,0.042,0.178,0.137,0.178,0.231c0,0.147-0.094,0.231-0.472,0.41c-0.473,0.22-0.966,0.389-1.533,0.515
		c-0.011,0.147-0.011,0.147-0.032,0.525c-0.01,0.283-0.031,0.746-0.042,1.375c1.176-0.42,1.932-0.578,2.783-0.578
		c1.438,0,2.341,0.683,2.341,1.795c0,1.029-0.787,1.827-1.795,1.827c-0.966,0-1.659-0.641-2.026-1.858l0.157-0.053
		c0.252,0.483,0.41,0.704,0.63,0.914c0.294,0.273,0.619,0.399,0.998,0.399c0.766,0,1.313-0.599,1.313-1.438
		c0-0.809-0.546-1.25-1.554-1.25c-0.83,0-1.827,0.263-2.846,0.756c0,1.113,0,1.113,0.011,1.428c0.01,0.2,0.01,0.315,0.01,0.399
		c0,0.252-0.042,0.452-0.136,0.62c-0.126,0.241-0.326,0.389-0.504,0.389c-0.147,0-0.147,0-0.788-0.567
		c-0.221-0.178-0.525-0.388-0.704-0.472c-0.231-0.105-0.346-0.263-0.346-0.441c0-0.168,0.105-0.378,0.315-0.588
		c0.388-0.399,0.745-0.63,1.669-1.082c0.01-0.147,0.01-0.304,0.021-0.504c0.021-0.473,0.021-0.473,0.052-1.512
		c-0.325,0.052-0.567,0.073-0.819,0.073c-0.672,0-1.124-0.241-1.564-0.861L85.613,3.779z M86.768,8.032
		c-0.21,0.22-0.315,0.389-0.315,0.504c0,0.105,0.137,0.221,0.42,0.326c0.231,0.094,0.515,0.168,0.651,0.168
		c0.126,0,0.178-0.074,0.189-0.263c0.052-0.945,0.073-1.459,0.073-1.522C87.293,7.549,87.03,7.748,86.768,8.032z M91.451,2.719
		c0.641,0.031,1.113,0.147,1.543,0.378c0.462,0.252,0.735,0.599,0.735,0.924c0,0.189-0.126,0.305-0.315,0.305
		c-0.021,0-0.073,0-0.157-0.021c-0.147-0.021-0.189-0.021-0.221-0.021c-0.157,0-0.409,0.053-1.292,0.284l-0.063-0.105
		c0.63-0.326,0.998-0.546,1.145-0.672c-0.168-0.294-0.336-0.462-0.662-0.651c-0.21-0.115-0.378-0.179-0.724-0.273L91.451,2.719z"/>
	<path d="M98.255,4.525c-0.735,0.252-1.092,0.388-1.365,0.546c-0.157,0.094-0.22,0.115-0.304,0.115
		c-0.116,0-0.326-0.136-0.462-0.315c-0.189-0.241-0.346-0.609-0.346-0.798c0-0.053,0.021-0.126,0.063-0.231
		c0.22,0.441,0.409,0.578,0.798,0.578c0.231,0,0.956-0.147,1.785-0.368c0.241-0.609,0.43-1.354,0.43-1.722
		c0-0.325-0.199-0.504-0.808-0.703c0.126-0.084,0.189-0.105,0.315-0.105c0.157,0,0.42,0.053,0.704,0.137
		c0.472,0.137,0.735,0.326,0.735,0.546c0,0.084-0.021,0.126-0.147,0.305c-0.147,0.22-0.368,0.693-0.672,1.428
		c0.462-0.105,0.662-0.126,0.914-0.126c0.903,0,1.333,0.536,1.333,1.638c0,1.344-0.535,3.087-1.145,3.77
		C99.819,9.501,99.41,9.69,99.074,9.69c-0.179,0-0.263-0.073-0.284-0.241c-0.031-0.294-0.052-0.315-1.166-1.229l0.095-0.137
		c0.809,0.462,1.407,0.725,1.627,0.725c0.242,0,0.41-0.22,0.683-0.882c0.368-0.861,0.62-2.026,0.62-2.825
		c0-0.703-0.189-0.956-0.746-0.956c-0.315,0-0.504,0.042-1.103,0.221c-0.147,0.357-0.147,0.357-0.609,1.428
		c-0.042,0.105-0.252,0.598-0.62,1.47c-0.42,0.987-0.767,1.743-0.935,2.037c-0.073,0.136-0.157,0.199-0.252,0.199
		c-0.189,0-0.305-0.273-0.305-0.724c0-0.273,0.032-0.347,0.242-0.588c0.21-0.231,0.473-0.672,0.777-1.239
		c0.399-0.777,0.399-0.777,0.84-1.743L98.255,4.525z M102.35,3.853c0.819,0.242,1.459,0.662,1.921,1.26
		c0.399,0.514,0.599,1.019,0.599,1.491c0,0.357-0.157,0.567-0.42,0.567c-0.084,0-0.137-0.011-0.242-0.074
		c-0.168-0.094-0.231-0.105-0.43-0.105c-0.368,0-0.42,0-1.313,0.095l-0.042-0.147c1.061-0.325,1.281-0.399,1.606-0.535
		c-0.042-0.357-0.137-0.651-0.326-1.008c-0.336-0.64-0.746-1.04-1.438-1.396L102.35,3.853z"/>
	<path d="M110.214,10.048c0.767-0.62,1.113-0.966,1.491-1.491s0.63-1.019,0.935-1.816c-0.914-0.483-1.816-0.714-3.013-0.767
		c-0.641,1.166-0.914,1.606-1.271,2.079c-0.389,0.483-0.714,0.725-1.008,0.725c-0.441,0-0.809-0.504-0.809-1.113
		c0-0.535,0.263-1.071,0.714-1.449c0.462-0.389,1.155-0.63,1.995-0.693c0.147-0.252,0.168-0.325,0.746-1.648
		c0.336-0.798,0.378-0.914,0.546-1.48c-0.252,0.063-0.976,0.294-1.512,0.483c-0.168,0.053-0.252,0.074-0.347,0.074
		c-0.325,0-0.662-0.515-0.662-1.019c0-0.105,0.021-0.157,0.116-0.242c0.21,0.483,0.399,0.641,0.788,0.641
		c0.273,0,0.598-0.052,1.113-0.178c0.273-0.074,0.315-0.095,0.462-0.221c0.063-0.073,0.126-0.094,0.221-0.094
		c0.231,0,0.756,0.556,0.756,0.819c0,0.084-0.042,0.157-0.157,0.241c-0.242,0.2-0.336,0.347-1.061,1.785
		c-0.284,0.567-0.326,0.651-0.431,0.851c1.061,0.052,1.974,0.231,3.014,0.599c0.178-0.546,0.346-1.354,0.346-1.69
		c0-0.284-0.147-0.473-0.546-0.725c0.074-0.053,0.116-0.063,0.189-0.063c0.179,0,0.42,0.084,0.735,0.241
		c0.336,0.168,0.493,0.336,0.493,0.525c0,0.105-0.01,0.157-0.094,0.367c-0.032,0.074-0.095,0.294-0.252,0.788
		c-0.053,0.189-0.095,0.315-0.242,0.798c1.26,0.63,1.596,0.935,1.596,1.491c0,0.21-0.105,0.378-0.242,0.378
		c-0.095,0-0.168-0.053-0.357-0.221c-0.336-0.336-0.683-0.609-1.25-0.987c-0.462,1.008-0.788,1.512-1.344,2.047
		c-0.472,0.452-0.903,0.756-1.575,1.082L110.214,10.048z M106.991,7.412c0,0.389,0.221,0.756,0.452,0.756
		c0.346,0,0.788-0.609,1.596-2.205C107.694,6.11,106.991,6.604,106.991,7.412z"/>
	<path d="M10.779,29c2.268-0.672,3.717-1.533,4.914-2.919c1.239-1.407,1.869-3.129,1.869-5.061c0-2.037-0.819-3.654-2.373-4.641
		c-0.924-0.609-2.31-0.966-3.633-0.966c-0.252,0-0.399,0-0.735,0.042c0.504,0.735,0.651,1.134,0.651,1.743
		c0,1.638-1.176,4.704-2.772,7.266c-1.323,2.1-2.352,3.129-3.129,3.129c-0.357,0-0.693-0.168-0.924-0.441
		c-0.189-0.252-0.231-0.336-0.588-1.344c-0.189-0.546-0.315-0.798-0.924-1.974c-0.336-0.672-0.483-1.239-0.483-1.911
		c0-1.323,0.714-2.877,1.89-4.158c1.701-1.806,4.473-2.94,7.224-2.94c2.121,0,4.074,0.693,5.418,1.932
		c1.344,1.239,2.016,2.898,2.016,4.935c0,2.625-1.533,4.956-4.179,6.363c-1.218,0.651-2.31,0.987-4.095,1.302L10.779,29z
		 M3.87,22.469c0,1.008,0.315,2.037,0.84,2.772c0.294,0.378,0.567,0.609,0.798,0.609c0.462,0,1.47-1.134,2.499-2.772
		c1.554-2.478,2.667-5.187,2.667-6.489c0-0.315-0.063-0.525-0.294-1.05C6.726,16.19,3.87,19.235,3.87,22.469z"/>
	<path d="M37.827,19.949h4.032c0.462-0.609,0.609-0.777,1.113-1.323c0.798,0.63,1.05,0.84,1.827,1.554
		c0.042,0.042,0.084,0.105,0.084,0.147c0,0.063-0.105,0.105-0.252,0.105h-6.804v3.843h5.859c0.546-0.651,0.714-0.84,1.281-1.428
		c0.819,0.693,1.05,0.924,1.827,1.659c0.042,0.042,0.063,0.105,0.063,0.126c0,0.063-0.105,0.126-0.21,0.126h-8.82v1.113
		c0,2.499,0.021,4.032,0.042,4.599c-0.042,0.168-0.084,0.21-0.252,0.252c-0.126,0.042-0.798,0.105-1.029,0.105
		s-0.315-0.063-0.315-0.252c0.042-1.491,0.063-3.024,0.063-4.704v-1.113h-6.3c-0.714,0-1.575,0.042-2.121,0.105l-0.147-0.798
		c0.882,0.147,1.596,0.21,2.415,0.21h6.153v-3.843h-4.557c-0.441,0-1.197,0.042-1.89,0.126l-0.126-0.777
		c0.798,0.126,1.365,0.168,2.1,0.168h4.473v-3.465h-5.502c-0.483,0-1.155,0.042-1.89,0.147l-0.105-0.861
		c0.63,0.126,1.512,0.231,1.995,0.231h3.255c-0.231-0.21-0.231-0.231-0.441-0.84c-0.168-0.567-0.567-1.323-0.966-1.974
		c-0.231-0.336-0.441-0.567-0.903-1.029l0.189-0.252c1.008,0.504,1.596,0.903,2.352,1.575c0.588,0.546,0.84,0.924,0.84,1.302
		c0,0.399-0.231,0.861-0.588,1.218h3.906c1.26-1.974,1.575-2.604,2.079-4.095c1.911,0.588,2.331,0.756,2.331,0.987
		s-0.21,0.294-1.029,0.294c-1.302,1.449-1.659,1.806-2.835,2.814h4.032c0.483-0.651,0.63-0.84,1.155-1.449
		c0.84,0.672,1.092,0.882,1.848,1.617c0.042,0.063,0.084,0.126,0.084,0.168c0,0.084-0.126,0.147-0.294,0.147h-8.022V19.949z"/>
	<path d="M60.36,12.81c0.63,0,1.617,0.189,2.121,0.399c0.42,0.168,0.588,0.378,0.588,0.672c0,0.021,0,0.042,0,0.042
		c0,0.168-0.021,0.168-0.168,0.546c-0.252,0.714-0.462,2.52-0.462,4.263c0,1.239,0.168,1.554,0.819,1.554
		c0.441,0,0.903-0.168,2.814-1.071c0.378-0.189,0.609-0.252,0.861-0.252c0.504,0,1.008,0.441,1.008,0.882
		c0,0.273-0.147,0.504-0.441,0.63c-0.147,0.063-0.441,0.168-1.407,0.441c-2.541,0.714-3.927,1.344-5.25,2.352
		c-1.134,0.882-1.638,1.701-1.638,2.688c0,1.512,1.197,2.289,3.528,2.289c1.302,0,3.36-0.252,4.872-0.609
		c0.21-0.042,0.294-0.063,0.42-0.063c0.546,0,1.134,0.525,1.134,1.029c0,0.378-0.231,0.567-0.903,0.693
		c-0.672,0.126-2.772,0.273-4.032,0.273c-1.533,0-2.688-0.168-3.57-0.483c-1.407-0.525-2.289-1.722-2.289-3.108
		c0-1.218,0.672-2.373,2.058-3.528c0.63-0.546,1.323-1.008,2.562-1.68c-0.462,0-0.651-0.063-1.008-0.315
		c-0.315-0.231-0.504-0.693-0.609-1.596c-0.063-0.504-0.084-0.966-0.147-2.541c-0.063-1.785-0.084-2.1-0.252-2.415
		c-0.231-0.399-0.63-0.609-1.512-0.756C59.772,12.873,59.94,12.81,60.36,12.81z"/>
	<path d="M85.539,28.749c0.231,0,0.42,0.021,0.546,0.021c1.113,0.063,1.113,0.063,2.1,0.063c0.651,0,0.819-0.063,0.966-0.357
		c0.378-0.798,0.63-2.961,0.63-5.397c0-0.882-0.042-1.722-0.126-2.457c-0.462,0.714-0.651,0.966-1.155,1.575
		c-1.155,1.365-1.974,2.121-3.339,3.129l-0.231-0.21c1.155-1.197,1.974-2.247,3.318-4.326c0.42-0.651,0.609-0.987,1.113-1.995
		c-0.21-0.861-0.378-1.365-0.714-2.184c-0.84,0.777-0.945,0.84-3.486,2.52l-0.189-0.252c1.617-1.323,2.331-1.995,3.297-3.15
		c-0.525-1.071-0.966-1.743-1.827-2.898l0.231-0.231c0.945,0.903,1.491,1.575,2.1,2.499c1.176-1.512,1.827-2.52,2.121-3.276
		c0.357,0.168,0.651,0.294,0.819,0.357c1.008,0.441,1.197,0.546,1.197,0.693s-0.168,0.21-0.504,0.21
		c-0.021,0-0.294-0.021-0.483-0.021c-1.008,1.26-1.743,2.079-2.625,2.94c1.218,2.31,1.806,4.872,1.806,8.022
		c0,1.827-0.168,3.465-0.462,4.536c-0.189,0.63-0.546,1.218-0.966,1.512c-0.357,0.252-0.735,0.399-1.617,0.567
		c-0.063-0.546-0.168-0.798-0.483-1.029c-0.315-0.252-0.735-0.357-2.058-0.525L85.539,28.749z M97.467,21.629
		c0.672,1.869,0.966,2.499,1.659,3.486c1.554-1.134,2.31-1.827,2.961-2.73c0.567,0.378,0.567,0.378,1.554,0.987
		c0.189,0.126,0.294,0.231,0.294,0.294c0,0.105-0.126,0.189-0.252,0.189c-0.021,0-0.021,0-0.042,0
		c-0.147-0.021-0.378-0.042-0.798-0.063c-1.323,0.714-1.323,0.714-3.486,1.638c0.63,0.777,1.134,1.239,2.037,1.848
		c0.735,0.525,1.659,1.008,2.289,1.239c0.378,0.147,0.651,0.21,1.344,0.315v0.315c-0.819,0.252-1.029,0.441-1.428,1.302
		c-1.512-0.819-2.352-1.449-3.402-2.583c-1.26-1.344-2.184-2.94-2.772-4.809c-0.126-0.378-0.189-0.63-0.399-1.428h-2.52v6.615
		c2.079-0.462,3.15-0.735,4.263-1.092l0.126,0.315c-1.323,0.672-3.927,1.806-6.216,2.709c-0.021,0.147-0.042,0.294-0.063,0.378
		c-0.042,0.315-0.147,0.483-0.252,0.483c-0.021,0-0.021,0-0.021,0c-0.105-0.021-0.21-0.126-0.294-0.315
		c-0.042-0.105-0.126-0.357-0.231-0.756c-0.126-0.462-0.231-0.861-0.336-1.218c0.756-0.105,1.071-0.147,1.659-0.252V16.085
		c-0.021-0.42-0.021-0.798-0.021-1.176c-0.021-0.546-0.021-0.567-0.042-1.008c0.735,0.357,0.945,0.483,1.596,0.945h2.247v-2.121
		c0-0.084,0-0.273-0.021-0.546c-0.021-0.126-0.021-0.315-0.042-0.567c2.247,0.252,2.499,0.294,2.499,0.525
		c0,0.189-0.126,0.252-0.987,0.483v2.226h2.646c0.357-0.399,0.462-0.525,0.819-0.903c0.504,0.399,0.672,0.504,1.176,0.882
		c0.168,0.105,0.231,0.21,0.231,0.315c0,0.168-0.126,0.273-0.693,0.567c-0.021,0.63-0.021,1.071-0.021,1.428
		c0,1.806,0.042,3.843,0.084,4.746c-0.042,0.168-0.084,0.252-0.21,0.273c-0.231,0.063-0.63,0.126-0.903,0.126
		c-0.21,0-0.294-0.063-0.336-0.273v-0.378H97.467z M101.163,17.913V15.33h-6.657v2.583H101.163z M94.506,18.396v2.751h6.657v-2.751
		H94.506z"/>
	<path d="M120.441,15.498c0.504,0.756,0.84,1.113,1.449,1.512c0.735,0.462,1.365,0.693,2.457,0.903
		c0.588-2.919,0.651-3.234,0.651-3.738c0-0.714-0.294-1.155-1.135-1.743c0.168-0.063,0.231-0.084,0.357-0.084
		c0.378,0,0.924,0.231,1.554,0.651c0.672,0.462,1.093,1.05,1.093,1.512c0,0.189-0.063,0.357-0.273,0.609
		c-0.357,0.504-0.588,1.071-1.155,2.919c0.441,0.126,0.63,0.231,0.84,0.462c0.168,0.189,0.294,0.483,0.294,0.693
		c0,0.273-0.252,0.441-0.672,0.441c-0.21,0-0.482-0.042-0.818-0.105c-0.42,1.407-0.672,2.646-0.84,3.885
		c0.504,0.105,0.86,0.147,1.07,0.147c0.063,0,0.105,0,0.168-0.021c0.126-0.021,0.21-0.021,0.231-0.021
		c0.546,0,1.26,0.651,1.26,1.134c0,0.294-0.272,0.483-0.714,0.483c-0.588,0-1.47-0.147-2.227-0.378
		c-0.042,0.504-0.063,0.756-0.063,1.029c0,2.142,1.197,3.339,3.318,3.339c1.428,0,2.667-0.546,3.317-1.428
		c0.462-0.63,0.693-1.344,0.693-2.142c0-1.743-1.176-3.717-3.171-5.25l0.23-0.273c3.108,1.911,4.432,3.654,4.432,5.796
		c0,2.541-2.185,4.473-5.104,4.473c-1.092,0-2.142-0.315-2.855-0.861c-1.093-0.819-1.617-2.079-1.617-3.906
		c0-0.252,0.021-0.525,0.042-1.05c-0.819-0.378-1.239-0.63-1.68-1.071c-0.567-0.588-0.924-1.365-0.924-2.079
		c0-0.483,0.231-1.008,0.651-1.449c0.504-0.504,1.029-0.798,2.037-1.113c-0.84-0.315-1.428-0.693-2.037-1.302
		c-0.441-0.462-0.693-0.882-1.092-1.848L120.441,15.498z M121.68,20.181c-0.315,0.336-0.462,0.651-0.462,1.05
		c0,0.882,0.714,1.533,2.163,1.974c0.104-1.05,0.294-2.247,0.63-3.822C122.793,19.445,122.184,19.676,121.68,20.181z"/>
</g>
<g>
	<path d="M22.875,41.472c0.325,0.389,0.504,0.494,0.892,0.494c0.63,0,1.417-0.273,1.995-0.683c0.042-0.031,0.095-0.052,0.147-0.052
		c0.21,0,0.588,0.315,0.588,0.504c0,0.094-0.042,0.126-0.346,0.283c-0.431,0.21-0.945,0.651-1.333,1.145
		c-0.756,0.935-1.155,1.974-1.155,2.993c0,1.417,0.788,2.299,2.037,2.299c0.956,0,1.795-0.525,2.278-1.417
		c0.347-0.661,0.525-1.543,0.525-2.656c0-1.103-0.105-1.974-0.347-2.846c-0.032-0.105-0.053-0.22-0.053-0.252
		c0-0.105,0.084-0.189,0.2-0.189h0.011c0.157,0.011,0.378,0.126,0.504,0.263c0.126,0.115,0.147,0.168,0.157,0.388
		c0.042,0.483,0.41,1.564,0.84,2.415c0.294,0.599,0.546,0.977,0.84,1.271c0.199,0.2,0.305,0.515,0.305,0.872
		c0,0.242-0.095,0.41-0.242,0.41c-0.242,0-0.525-0.368-0.945-1.218c-0.431-0.882-0.714-1.648-1.124-3.013l-0.032,0.01
		c0.21,1.491,0.242,1.869,0.242,2.636c0,1.396-0.305,2.404-0.935,3.118c-0.504,0.578-1.26,0.903-2.058,0.903
		c-1.564,0-2.593-1.176-2.593-2.972c0-0.662,0.147-1.407,0.42-2.068c0.252-0.63,0.536-1.103,1.071-1.785
		c-0.357,0.063-0.599,0.095-0.809,0.095c-0.588,0-0.955-0.252-1.229-0.84L22.875,41.472z"/>
	<path d="M36.273,48.213c0.966-0.242,1.659-0.504,2.32-0.882c1.229-0.693,1.932-1.722,1.932-2.824c0-1.05-0.777-1.764-1.922-1.764
		c-1.229,0-2.835,0.672-4.221,1.753c-0.168,0.137-0.273,0.179-0.399,0.179c-0.494,0-1.26-0.735-1.26-1.208
		c0-0.074,0.021-0.137,0.084-0.263c0.105,0.221,0.168,0.294,0.294,0.389c0.158,0.116,0.284,0.168,0.431,0.168
		c0.273,0,0.672-0.115,1.271-0.378c1.659-0.725,2.751-1.008,3.843-1.008c1.596,0,2.688,0.934,2.688,2.31
		c0,1.302-0.882,2.426-2.415,3.077c-0.798,0.336-1.564,0.515-2.594,0.609L36.273,48.213z"/>
	<path d="M50.858,47.142c-1.008,1.365-2.384,2.174-3.686,2.174c-0.798,0-1.417-0.326-1.743-0.893
		c-0.21-0.368-0.294-0.882-0.294-1.774c0-0.578,0.031-1.575,0.084-2.531c0.063-1.134,0.074-1.428,0.074-1.806
		c0-0.903-0.105-1.082-0.851-1.397c0.115-0.084,0.178-0.105,0.294-0.105c0.241,0,0.62,0.095,0.945,0.242
		c0.399,0.189,0.609,0.399,0.609,0.62c0,0.073-0.01,0.136-0.094,0.378c-0.2,0.63-0.546,3.812-0.546,5.04
		c0,0.641,0.126,1.019,0.42,1.26c0.231,0.179,0.567,0.284,0.935,0.284c0.714,0,1.596-0.252,2.394-0.672
		c0.483-0.252,0.787-0.473,1.333-0.935L50.858,47.142z M48.296,41.713c0.567,0.199,1.008,0.462,1.354,0.788
		c0.178,0.178,0.262,0.357,0.262,0.598c0,0.273-0.115,0.462-0.273,0.462c-0.084,0-0.115-0.032-0.294-0.357
		c-0.347-0.588-0.672-0.997-1.134-1.386L48.296,41.713z M49.23,40.979c0.662,0.22,1.05,0.409,1.407,0.703
		c0.189,0.158,0.252,0.284,0.252,0.525c0,0.304-0.094,0.504-0.241,0.504c-0.095,0-0.137-0.053-0.273-0.294
		c-0.283-0.483-0.661-0.893-1.218-1.323L49.23,40.979z"/>
	<path d="M75.113,43.005c0.42,0.378,0.788,0.535,1.25,0.535c0.294,0,0.567-0.031,1.05-0.136c0.011-0.305,0.011-0.777,0.011-0.966
		c0-1.103-0.126-1.323-0.851-1.449c0.147-0.116,0.231-0.147,0.452-0.147c0.357,0,0.798,0.105,1.082,0.263
		c0.136,0.073,0.231,0.22,0.231,0.336c0,0.063,0,0.063-0.116,0.273c-0.168,0.304-0.273,0.798-0.326,1.564
		c0.557-0.189,0.809-0.326,1.145-0.609c0.084-0.063,0.189-0.105,0.252-0.105c0.095,0,0.273,0.042,0.399,0.094
		c0.105,0.042,0.178,0.137,0.178,0.231c0,0.147-0.094,0.231-0.472,0.41c-0.473,0.22-0.966,0.389-1.533,0.515
		c-0.011,0.147-0.011,0.147-0.032,0.525c-0.01,0.283-0.031,0.746-0.042,1.375c1.176-0.42,1.932-0.578,2.783-0.578
		c1.438,0,2.341,0.683,2.341,1.795c0,1.029-0.787,1.827-1.795,1.827c-0.966,0-1.659-0.641-2.026-1.858l0.157-0.053
		c0.252,0.483,0.41,0.704,0.63,0.914c0.294,0.273,0.619,0.399,0.998,0.399c0.766,0,1.313-0.599,1.313-1.438
		c0-0.809-0.546-1.25-1.554-1.25c-0.83,0-1.827,0.263-2.846,0.756c0,1.113,0,1.113,0.011,1.428c0.01,0.2,0.01,0.315,0.01,0.399
		c0,0.252-0.042,0.452-0.136,0.62c-0.126,0.241-0.326,0.389-0.504,0.389c-0.147,0-0.147,0-0.788-0.567
		c-0.221-0.178-0.525-0.388-0.704-0.472c-0.231-0.105-0.346-0.263-0.346-0.441c0-0.168,0.105-0.378,0.315-0.588
		c0.388-0.399,0.745-0.63,1.669-1.082c0.01-0.147,0.01-0.304,0.021-0.504c0.021-0.473,0.021-0.473,0.052-1.512
		c-0.325,0.052-0.567,0.073-0.819,0.073c-0.672,0-1.124-0.241-1.564-0.861L75.113,43.005z M76.268,47.257
		c-0.21,0.22-0.315,0.389-0.315,0.504c0,0.105,0.137,0.221,0.42,0.326c0.231,0.094,0.515,0.168,0.651,0.168
		c0.126,0,0.178-0.074,0.189-0.263c0.052-0.945,0.073-1.459,0.073-1.522C76.793,46.774,76.53,46.974,76.268,47.257z M80.951,41.944
		c0.641,0.031,1.113,0.147,1.543,0.378c0.462,0.252,0.735,0.599,0.735,0.924c0,0.189-0.126,0.305-0.315,0.305
		c-0.021,0-0.073,0-0.157-0.021c-0.147-0.021-0.189-0.021-0.221-0.021c-0.157,0-0.409,0.053-1.292,0.284l-0.063-0.105
		c0.63-0.326,0.998-0.546,1.145-0.672c-0.168-0.294-0.336-0.462-0.662-0.651c-0.21-0.115-0.378-0.179-0.724-0.273L80.951,41.944z"/>
	<path d="M85.613,43.005c0.42,0.378,0.788,0.535,1.25,0.535c0.294,0,0.567-0.031,1.05-0.136c0.011-0.305,0.011-0.777,0.011-0.966
		c0-1.103-0.126-1.323-0.851-1.449c0.147-0.116,0.231-0.147,0.452-0.147c0.357,0,0.798,0.105,1.082,0.263
		c0.136,0.073,0.231,0.22,0.231,0.336c0,0.063,0,0.063-0.116,0.273c-0.168,0.304-0.273,0.798-0.326,1.564
		c0.557-0.189,0.809-0.326,1.145-0.609c0.084-0.063,0.189-0.105,0.252-0.105c0.095,0,0.273,0.042,0.399,0.094
		c0.105,0.042,0.178,0.137,0.178,0.231c0,0.147-0.094,0.231-0.472,0.41c-0.473,0.22-0.966,0.389-1.533,0.515
		c-0.011,0.147-0.011,0.147-0.032,0.525c-0.01,0.283-0.031,0.746-0.042,1.375c1.176-0.42,1.932-0.578,2.783-0.578
		c1.438,0,2.341,0.683,2.341,1.795c0,1.029-0.787,1.827-1.795,1.827c-0.966,0-1.659-0.641-2.026-1.858l0.157-0.053
		c0.252,0.483,0.41,0.704,0.63,0.914c0.294,0.273,0.619,0.399,0.998,0.399c0.766,0,1.313-0.599,1.313-1.438
		c0-0.809-0.546-1.25-1.554-1.25c-0.83,0-1.827,0.263-2.846,0.756c0,1.113,0,1.113,0.011,1.428c0.01,0.2,0.01,0.315,0.01,0.399
		c0,0.252-0.042,0.452-0.136,0.62c-0.126,0.241-0.326,0.389-0.504,0.389c-0.147,0-0.147,0-0.788-0.567
		c-0.221-0.178-0.525-0.388-0.704-0.472c-0.231-0.105-0.346-0.263-0.346-0.441c0-0.168,0.105-0.378,0.315-0.588
		c0.388-0.399,0.745-0.63,1.669-1.082c0.01-0.147,0.01-0.304,0.021-0.504c0.021-0.473,0.021-0.473,0.052-1.512
		c-0.325,0.052-0.567,0.073-0.819,0.073c-0.672,0-1.124-0.241-1.564-0.861L85.613,43.005z M86.768,47.257
		c-0.21,0.22-0.315,0.389-0.315,0.504c0,0.105,0.137,0.221,0.42,0.326c0.231,0.094,0.515,0.168,0.651,0.168
		c0.126,0,0.178-0.074,0.189-0.263c0.052-0.945,0.073-1.459,0.073-1.522C87.293,46.774,87.03,46.974,86.768,47.257z M91.451,41.944
		c0.641,0.031,1.113,0.147,1.543,0.378c0.462,0.252,0.735,0.599,0.735,0.924c0,0.189-0.126,0.305-0.315,0.305
		c-0.021,0-0.073,0-0.157-0.021c-0.147-0.021-0.189-0.021-0.221-0.021c-0.157,0-0.409,0.053-1.292,0.284l-0.063-0.105
		c0.63-0.326,0.998-0.546,1.145-0.672c-0.168-0.294-0.336-0.462-0.662-0.651c-0.21-0.115-0.378-0.179-0.724-0.273L91.451,41.944z"/>
	<path d="M98.255,43.75c-0.735,0.252-1.092,0.388-1.365,0.546c-0.157,0.094-0.22,0.115-0.304,0.115
		c-0.116,0-0.326-0.136-0.462-0.315c-0.189-0.241-0.346-0.609-0.346-0.798c0-0.053,0.021-0.126,0.063-0.231
		c0.22,0.441,0.409,0.578,0.798,0.578c0.231,0,0.956-0.147,1.785-0.368c0.241-0.609,0.43-1.354,0.43-1.722
		c0-0.325-0.199-0.504-0.808-0.703c0.126-0.084,0.189-0.105,0.315-0.105c0.157,0,0.42,0.053,0.704,0.137
		c0.472,0.137,0.735,0.326,0.735,0.546c0,0.084-0.021,0.126-0.147,0.305c-0.147,0.22-0.368,0.693-0.672,1.428
		c0.462-0.105,0.662-0.126,0.914-0.126c0.903,0,1.333,0.536,1.333,1.638c0,1.344-0.535,3.087-1.145,3.77
		c-0.262,0.283-0.672,0.472-1.008,0.472c-0.179,0-0.263-0.073-0.284-0.241c-0.031-0.294-0.052-0.315-1.166-1.229l0.095-0.137
		c0.809,0.462,1.407,0.725,1.627,0.725c0.242,0,0.41-0.22,0.683-0.882c0.368-0.861,0.62-2.026,0.62-2.825
		c0-0.703-0.189-0.956-0.746-0.956c-0.315,0-0.504,0.042-1.103,0.221c-0.147,0.357-0.147,0.357-0.609,1.428
		c-0.042,0.105-0.252,0.598-0.62,1.47c-0.42,0.987-0.767,1.743-0.935,2.037c-0.073,0.136-0.157,0.199-0.252,0.199
		c-0.189,0-0.305-0.273-0.305-0.724c0-0.273,0.032-0.347,0.242-0.588c0.21-0.231,0.473-0.672,0.777-1.239
		c0.399-0.777,0.399-0.777,0.84-1.743L98.255,43.75z M102.35,43.078c0.819,0.242,1.459,0.662,1.921,1.26
		c0.399,0.514,0.599,1.019,0.599,1.491c0,0.357-0.157,0.567-0.42,0.567c-0.084,0-0.137-0.011-0.242-0.074
		c-0.168-0.094-0.231-0.105-0.43-0.105c-0.368,0-0.42,0-1.313,0.095l-0.042-0.147c1.061-0.325,1.281-0.399,1.606-0.535
		c-0.042-0.357-0.137-0.651-0.326-1.008c-0.336-0.64-0.746-1.04-1.438-1.396L102.35,43.078z"/>
	<path d="M110.214,49.273c0.767-0.62,1.113-0.966,1.491-1.491s0.63-1.019,0.935-1.816c-0.914-0.483-1.816-0.714-3.013-0.767
		c-0.641,1.166-0.914,1.606-1.271,2.079c-0.389,0.483-0.714,0.725-1.008,0.725c-0.441,0-0.809-0.504-0.809-1.113
		c0-0.535,0.263-1.071,0.714-1.449c0.462-0.389,1.155-0.63,1.995-0.693c0.147-0.252,0.168-0.325,0.746-1.648
		c0.336-0.798,0.378-0.914,0.546-1.48c-0.252,0.063-0.976,0.294-1.512,0.483c-0.168,0.053-0.252,0.074-0.347,0.074
		c-0.325,0-0.662-0.515-0.662-1.019c0-0.105,0.021-0.157,0.116-0.242c0.21,0.483,0.399,0.641,0.788,0.641
		c0.273,0,0.598-0.052,1.113-0.178c0.273-0.074,0.315-0.095,0.462-0.221c0.063-0.073,0.126-0.094,0.221-0.094
		c0.231,0,0.756,0.556,0.756,0.819c0,0.084-0.042,0.157-0.157,0.241c-0.242,0.2-0.336,0.347-1.061,1.785
		c-0.284,0.567-0.326,0.651-0.431,0.851c1.061,0.052,1.974,0.231,3.014,0.599c0.178-0.546,0.346-1.354,0.346-1.69
		c0-0.284-0.147-0.473-0.546-0.725c0.074-0.053,0.116-0.063,0.189-0.063c0.179,0,0.42,0.084,0.735,0.241
		c0.336,0.168,0.493,0.336,0.493,0.525c0,0.105-0.01,0.157-0.094,0.367c-0.032,0.074-0.095,0.294-0.252,0.788
		c-0.053,0.189-0.095,0.315-0.242,0.798c1.26,0.63,1.596,0.935,1.596,1.491c0,0.21-0.105,0.378-0.242,0.378
		c-0.095,0-0.168-0.053-0.357-0.221c-0.336-0.336-0.683-0.609-1.25-0.987c-0.462,1.008-0.788,1.512-1.344,2.047
		c-0.472,0.452-0.903,0.756-1.575,1.082L110.214,49.273z M106.991,46.638c0,0.389,0.221,0.756,0.452,0.756
		c0.346,0,0.788-0.609,1.596-2.205C107.694,45.336,106.991,45.829,106.991,46.638z"/>
	<path d="M10.779,68.226c2.268-0.672,3.717-1.533,4.914-2.919c1.239-1.407,1.869-3.129,1.869-5.061c0-2.037-0.819-3.654-2.373-4.641
		c-0.924-0.609-2.31-0.966-3.633-0.966c-0.252,0-0.399,0-0.735,0.042c0.504,0.735,0.651,1.134,0.651,1.743
		c0,1.638-1.176,4.704-2.772,7.266c-1.323,2.1-2.352,3.129-3.129,3.129c-0.357,0-0.693-0.168-0.924-0.441
		c-0.189-0.252-0.231-0.336-0.588-1.344c-0.189-0.546-0.315-0.798-0.924-1.974c-0.336-0.672-0.483-1.239-0.483-1.911
		c0-1.323,0.714-2.877,1.89-4.158c1.701-1.806,4.473-2.94,7.224-2.94c2.121,0,4.074,0.693,5.418,1.932
		c1.344,1.239,2.016,2.898,2.016,4.935c0,2.625-1.533,4.956-4.179,6.363c-1.218,0.651-2.31,0.987-4.095,1.302L10.779,68.226z
		 M3.87,61.695c0,1.008,0.315,2.037,0.84,2.772c0.294,0.378,0.567,0.609,0.798,0.609c0.462,0,1.47-1.134,2.499-2.772
		c1.554-2.478,2.667-5.187,2.667-6.489c0-0.315-0.063-0.525-0.294-1.05C6.726,55.416,3.87,58.461,3.87,61.695z"/>
	<path d="M37.827,59.175h4.032c0.462-0.609,0.609-0.777,1.113-1.323c0.798,0.63,1.05,0.84,1.827,1.554
		c0.042,0.042,0.084,0.105,0.084,0.147c0,0.063-0.105,0.105-0.252,0.105h-6.804v3.843h5.859c0.546-0.651,0.714-0.84,1.281-1.428
		c0.819,0.693,1.05,0.924,1.827,1.659c0.042,0.042,0.063,0.105,0.063,0.126c0,0.063-0.105,0.126-0.21,0.126h-8.82v1.113
		c0,2.499,0.021,4.032,0.042,4.599c-0.042,0.168-0.084,0.21-0.252,0.252c-0.126,0.042-0.798,0.105-1.029,0.105
		s-0.315-0.063-0.315-0.252c0.042-1.491,0.063-3.024,0.063-4.704v-1.113h-6.3c-0.714,0-1.575,0.042-2.121,0.105l-0.147-0.798
		c0.882,0.147,1.596,0.21,2.415,0.21h6.153v-3.843h-4.557c-0.441,0-1.197,0.042-1.89,0.126l-0.126-0.777
		c0.798,0.126,1.365,0.168,2.1,0.168h4.473V55.71h-5.502c-0.483,0-1.155,0.042-1.89,0.147l-0.105-0.861
		c0.63,0.126,1.512,0.231,1.995,0.231h3.255c-0.231-0.21-0.231-0.231-0.441-0.84c-0.168-0.567-0.567-1.323-0.966-1.974
		c-0.231-0.336-0.441-0.567-0.903-1.029l0.189-0.252c1.008,0.504,1.596,0.903,2.352,1.575c0.588,0.546,0.84,0.924,0.84,1.302
		c0,0.399-0.231,0.861-0.588,1.218h3.906c1.26-1.974,1.575-2.604,2.079-4.095c1.911,0.588,2.331,0.756,2.331,0.987
		s-0.21,0.294-1.029,0.294c-1.302,1.449-1.659,1.806-2.835,2.814h4.032c0.483-0.651,0.63-0.84,1.155-1.449
		c0.84,0.672,1.092,0.882,1.848,1.617c0.042,0.063,0.084,0.126,0.084,0.168c0,0.084-0.126,0.147-0.294,0.147h-8.022V59.175z"/>
	<path d="M60.36,52.035c0.63,0,1.617,0.189,2.121,0.399c0.42,0.168,0.588,0.378,0.588,0.672c0,0.021,0,0.042,0,0.042
		c0,0.168-0.021,0.168-0.168,0.546c-0.252,0.714-0.462,2.52-0.462,4.263c0,1.239,0.168,1.554,0.819,1.554
		c0.441,0,0.903-0.168,2.814-1.071c0.378-0.189,0.609-0.252,0.861-0.252c0.504,0,1.008,0.441,1.008,0.882
		c0,0.273-0.147,0.504-0.441,0.63c-0.147,0.063-0.441,0.168-1.407,0.441c-2.541,0.714-3.927,1.344-5.25,2.352
		c-1.134,0.882-1.638,1.701-1.638,2.688c0,1.512,1.197,2.289,3.528,2.289c1.302,0,3.36-0.252,4.872-0.609
		c0.21-0.042,0.294-0.063,0.42-0.063c0.546,0,1.134,0.525,1.134,1.029c0,0.378-0.231,0.567-0.903,0.693
		c-0.672,0.126-2.772,0.273-4.032,0.273c-1.533,0-2.688-0.168-3.57-0.483c-1.407-0.525-2.289-1.722-2.289-3.108
		c0-1.218,0.672-2.373,2.058-3.528c0.63-0.546,1.323-1.008,2.562-1.68c-0.462,0-0.651-0.063-1.008-0.315
		c-0.315-0.231-0.504-0.693-0.609-1.596c-0.063-0.504-0.084-0.966-0.147-2.541c-0.063-1.785-0.084-2.1-0.252-2.415
		c-0.231-0.399-0.63-0.609-1.512-0.756C59.772,52.098,59.94,52.035,60.36,52.035z"/>
	<path d="M85.539,67.974c0.231,0,0.42,0.021,0.546,0.021c1.113,0.063,1.113,0.063,2.1,0.063c0.651,0,0.819-0.063,0.966-0.357
		c0.378-0.798,0.63-2.961,0.63-5.397c0-0.882-0.042-1.722-0.126-2.457c-0.462,0.714-0.651,0.966-1.155,1.575
		c-1.155,1.365-1.974,2.121-3.339,3.129l-0.231-0.21c1.155-1.197,1.974-2.247,3.318-4.326c0.42-0.651,0.609-0.987,1.113-1.995
		c-0.21-0.861-0.378-1.365-0.714-2.184c-0.84,0.777-0.945,0.84-3.486,2.52l-0.189-0.252c1.617-1.323,2.331-1.995,3.297-3.15
		c-0.525-1.071-0.966-1.743-1.827-2.898l0.231-0.231c0.945,0.903,1.491,1.575,2.1,2.499c1.176-1.512,1.827-2.52,2.121-3.276
		c0.357,0.168,0.651,0.294,0.819,0.357c1.008,0.441,1.197,0.546,1.197,0.693s-0.168,0.21-0.504,0.21
		c-0.021,0-0.294-0.021-0.483-0.021c-1.008,1.26-1.743,2.079-2.625,2.94c1.218,2.31,1.806,4.872,1.806,8.022
		c0,1.827-0.168,3.465-0.462,4.536c-0.189,0.63-0.546,1.218-0.966,1.512c-0.357,0.252-0.735,0.399-1.617,0.567
		c-0.063-0.546-0.168-0.798-0.483-1.029c-0.315-0.252-0.735-0.357-2.058-0.525L85.539,67.974z M97.467,60.855
		c0.672,1.869,0.966,2.499,1.659,3.486c1.554-1.134,2.31-1.827,2.961-2.73c0.567,0.378,0.567,0.378,1.554,0.987
		c0.189,0.126,0.294,0.231,0.294,0.294c0,0.105-0.126,0.189-0.252,0.189c-0.021,0-0.021,0-0.042,0
		c-0.147-0.021-0.378-0.042-0.798-0.063c-1.323,0.714-1.323,0.714-3.486,1.638c0.63,0.777,1.134,1.239,2.037,1.848
		c0.735,0.525,1.659,1.008,2.289,1.239c0.378,0.147,0.651,0.21,1.344,0.315v0.315c-0.819,0.252-1.029,0.441-1.428,1.302
		c-1.512-0.819-2.352-1.449-3.402-2.583c-1.26-1.344-2.184-2.94-2.772-4.809c-0.126-0.378-0.189-0.63-0.399-1.428h-2.52v6.615
		c2.079-0.462,3.15-0.735,4.263-1.092l0.126,0.315c-1.323,0.672-3.927,1.806-6.216,2.709c-0.021,0.147-0.042,0.294-0.063,0.378
		c-0.042,0.315-0.147,0.483-0.252,0.483c-0.021,0-0.021,0-0.021,0c-0.105-0.021-0.21-0.126-0.294-0.315
		c-0.042-0.105-0.126-0.357-0.231-0.756c-0.126-0.462-0.231-0.861-0.336-1.218c0.756-0.105,1.071-0.147,1.659-0.252V55.311
		c-0.021-0.42-0.021-0.798-0.021-1.176c-0.021-0.546-0.021-0.567-0.042-1.008c0.735,0.357,0.945,0.483,1.596,0.945h2.247v-2.121
		c0-0.084,0-0.273-0.021-0.546c-0.021-0.126-0.021-0.315-0.042-0.567c2.247,0.252,2.499,0.294,2.499,0.525
		c0,0.189-0.126,0.252-0.987,0.483v2.226h2.646c0.357-0.399,0.462-0.525,0.819-0.903c0.504,0.399,0.672,0.504,1.176,0.882
		c0.168,0.105,0.231,0.21,0.231,0.315c0,0.168-0.126,0.273-0.693,0.567c-0.021,0.63-0.021,1.071-0.021,1.428
		c0,1.806,0.042,3.843,0.084,4.746c-0.042,0.168-0.084,0.252-0.21,0.273c-0.231,0.063-0.63,0.126-0.903,0.126
		c-0.21,0-0.294-0.063-0.336-0.273v-0.378H97.467z M101.163,57.138v-2.583h-6.657v2.583H101.163z M94.506,57.621v2.751h6.657v-2.751
		H94.506z"/>
	<path d="M120.441,54.723c0.504,0.756,0.84,1.113,1.449,1.512c0.735,0.462,1.365,0.693,2.457,0.903
		c0.588-2.919,0.651-3.234,0.651-3.738c0-0.714-0.294-1.155-1.135-1.743c0.168-0.063,0.231-0.084,0.357-0.084
		c0.378,0,0.924,0.231,1.554,0.651c0.672,0.462,1.093,1.05,1.093,1.512c0,0.189-0.063,0.357-0.273,0.609
		c-0.357,0.504-0.588,1.071-1.155,2.919c0.441,0.126,0.63,0.231,0.84,0.462c0.168,0.189,0.294,0.483,0.294,0.693
		c0,0.273-0.252,0.441-0.672,0.441c-0.21,0-0.482-0.042-0.818-0.105c-0.42,1.407-0.672,2.646-0.84,3.885
		c0.504,0.105,0.86,0.147,1.07,0.147c0.063,0,0.105,0,0.168-0.021c0.126-0.021,0.21-0.021,0.231-0.021
		c0.546,0,1.26,0.651,1.26,1.134c0,0.294-0.272,0.483-0.714,0.483c-0.588,0-1.47-0.147-2.227-0.378
		c-0.042,0.504-0.063,0.756-0.063,1.029c0,2.142,1.197,3.339,3.318,3.339c1.428,0,2.667-0.546,3.317-1.428
		c0.462-0.63,0.693-1.344,0.693-2.142c0-1.743-1.176-3.717-3.171-5.25l0.23-0.273c3.108,1.911,4.432,3.654,4.432,5.796
		c0,2.541-2.185,4.473-5.104,4.473c-1.092,0-2.142-0.315-2.855-0.861c-1.093-0.819-1.617-2.079-1.617-3.906
		c0-0.252,0.021-0.525,0.042-1.05c-0.819-0.378-1.239-0.63-1.68-1.071c-0.567-0.588-0.924-1.365-0.924-2.079
		c0-0.483,0.231-1.008,0.651-1.449c0.504-0.504,1.029-0.798,2.037-1.113c-0.84-0.315-1.428-0.693-2.037-1.302
		c-0.441-0.462-0.693-0.882-1.092-1.848L120.441,54.723z M121.68,59.406c-0.315,0.336-0.462,0.651-0.462,1.05
		c0,0.882,0.714,1.533,2.163,1.974c0.104-1.05,0.294-2.247,0.63-3.822C122.793,58.671,122.184,58.902,121.68,59.406z"/>
</g>
<rect x="0.25" y="10.75" fill="none" stroke="#008CD6" stroke-width="0.5" width="21" height="21"/>
<rect x="26.5" y="10.75" fill="none" stroke="#008CD6" stroke-width="0.5" width="21" height="21"/>
<rect x="52.75" y="10.75" fill="none" stroke="#008CD6" stroke-width="0.5" width="21" height="21"/>
<rect x="84.25" y="10.75" fill="none" stroke="#008CD6" stroke-width="0.5" width="21" height="21"/>
<rect x="115.75" y="10.75" fill="none" stroke="#008CD6" stroke-width="0.5" width="21" height="21"/>
<g>
	<line fill="none" stroke="#008CD6" stroke-width="0.5" x1="21.25" y1="10.75" x2="21.25" y2="0.25"/>
	<line fill="none" stroke="#008CD6" stroke-width="0.5" x1="31.75" y1="0.25" x2="31.75" y2="10.75"/>
	<line fill="none" stroke="#000000" stroke-width="0.1768" x1="26.5" y1="10.75" x2="21.25" y2="10.75"/>
	<line fill="none" stroke="#008CD6" stroke-width="0.5" x1="42.25" y1="10.75" x2="42.25" y2="0.25"/>
	<polyline fill="none" stroke="#008CD6" stroke-width="0.5" points="21.25,10.75 21.25,0.25 52.749,0.25 52.749,10.75 	"/>
	<line fill="none" stroke="#000000" stroke-width="0.1768" x1="52.749" y1="10.75" x2="47.499" y2="10.75"/>
</g>
<g>
	<line fill="none" stroke="#008CD6" stroke-width="0.5" x1="73.75" y1="10.75" x2="73.75" y2="0.25"/>
	<line fill="none" stroke="#008CD6" stroke-width="0.5" x1="94.75" y1="10.75" x2="94.75" y2="0.25"/>
	<polyline fill="none" stroke="#008CD6" stroke-width="0.5" points="84.25,0.25 84.25,10.75 73.75,10.75 73.75,0.25 115.75,0.25 
		115.75,10.75 105.25,10.75 105.25,0.25 	"/>
</g>
</svg>
