<?xml version="1.0" encoding="utf-8"?>
<!-- Generator: Adobe Illustrator 12.0.0, SVG Export Plug-In . SVG Version: 6.00 Build 51448)  -->
<!DOCTYPE svg PUBLIC "-//W3C//DTD SVG 1.1//EN" "http://www.w3.org/Graphics/SVG/1.1/DTD/svg11.dtd" [
	<!ENTITY ns_svg "http://www.w3.org/2000/svg">
	<!ENTITY ns_xlink "http://www.w3.org/1999/xlink">
]>
<svg  version="1.1" id="レイヤー_1" xmlns="&ns_svg;" xmlns:xlink="&ns_xlink;" width="44" height="47"
	 viewBox="0 0 44 47" overflow="visible" enable-background="new 0 0 44 47" xml:space="preserve">
<g>
	<path d="M0.703,13.973c1.582-1.12,2.521-1.932,3.528-3.066c1.008-1.134,1.861-2.352,2.296-3.276
		c1.399,0.322,1.582,0.392,1.582,0.532c0,0.126-0.168,0.182-0.574,0.224L7.493,8.415c0.952,1.232,1.652,1.89,2.786,2.646
		c1.134,0.742,1.974,1.12,3.57,1.61l-0.015,0.126c-0.588,0.238-0.77,0.448-0.91,1.036c-0.994-0.518-1.372-0.742-2.029-1.26
		c-1.009-0.77-1.862-1.596-2.492-2.38C8.039,9.73,7.815,9.395,7.325,8.625c-1.218,1.596-2.058,2.492-3.388,3.556
		c-1.064,0.854-1.849,1.33-3.15,1.932L0.703,13.973z M10.854,14.715c0.321-0.406,0.42-0.532,0.77-0.896
		c0.574,0.42,0.756,0.56,1.302,1.036c0.057,0.056,0.07,0.084,0.07,0.112c0,0.042-0.056,0.07-0.14,0.07H7.619v4.34h3.584l0.924-1.05
		c0.603,0.504,0.784,0.658,1.316,1.148c0.056,0.07,0.069,0.098,0.069,0.126c0,0.056-0.069,0.098-0.14,0.098H2.146
		c-0.364,0-0.616,0.014-0.952,0.07l-0.07-0.532c0.378,0.098,0.672,0.14,1.106,0.14h4.41v-4.34H2.537c-0.28,0-0.504,0.014-0.882,0.07
		l-0.07-0.49c0.351,0.07,0.561,0.098,0.952,0.098H6.64v-2.002H4.861c-0.238,0-0.504,0.028-0.729,0.07l-0.069-0.504
		c0.434,0.098,0.573,0.112,0.91,0.112h3.121l0.799-0.896c0.504,0.434,0.657,0.56,1.147,1.008c0.056,0.056,0.07,0.098,0.07,0.126
		c0,0.056-0.057,0.084-0.141,0.084H7.619v2.002H10.854z M3.266,15.639c1.26,0.966,1.876,1.694,1.876,2.212
		c0,0.182-0.07,0.42-0.196,0.658c-0.126,0.224-0.238,0.322-0.364,0.322c-0.168,0-0.168,0-0.462-1.008
		c-0.21-0.742-0.434-1.204-0.994-2.086L3.266,15.639z M8.529,18.929c0.434-0.7,0.602-1.022,1.05-2.016
		c0.392-0.854,0.434-0.98,0.546-1.358c0.267,0.084,0.477,0.154,0.616,0.21c0.686,0.224,0.854,0.294,0.854,0.392
		c0,0.112-0.168,0.168-0.602,0.238c-1.204,1.526-1.54,1.918-2.31,2.646L8.529,18.929z"/>
	<path d="M19.184,8.191c0.42,0,1.077,0.126,1.414,0.266c0.279,0.112,0.392,0.252,0.392,0.448c0,0.014,0,0.028,0,0.028
		c0,0.112-0.014,0.112-0.112,0.364c-0.168,0.476-0.308,1.68-0.308,2.842c0,0.826,0.112,1.036,0.546,1.036
		c0.294,0,0.602-0.112,1.876-0.714c0.252-0.126,0.406-0.168,0.574-0.168c0.336,0,0.672,0.294,0.672,0.588
		c0,0.182-0.098,0.336-0.294,0.42c-0.099,0.042-0.294,0.112-0.938,0.294c-1.693,0.476-2.618,0.896-3.5,1.568
		c-0.756,0.588-1.092,1.134-1.092,1.792c0,1.008,0.798,1.526,2.353,1.526c0.867,0,2.239-0.168,3.247-0.406
		c0.141-0.028,0.196-0.042,0.28-0.042c0.364,0,0.756,0.35,0.756,0.686c0,0.252-0.153,0.378-0.602,0.462s-1.848,0.182-2.688,0.182
		c-1.021,0-1.792-0.112-2.38-0.322c-0.938-0.35-1.525-1.148-1.525-2.072c0-0.812,0.447-1.582,1.372-2.352
		c0.42-0.364,0.882-0.672,1.708-1.12c-0.309,0-0.435-0.042-0.673-0.21c-0.21-0.154-0.336-0.462-0.405-1.064
		c-0.042-0.336-0.057-0.644-0.099-1.694c-0.042-1.19-0.056-1.4-0.168-1.61c-0.153-0.266-0.42-0.406-1.008-0.504
		C18.791,8.233,18.903,8.191,19.184,8.191z"/>
	<path d="M32.203,13.721h0.882c0.238-0.294,0.448-0.546,0.63-0.756c0.462,0.364,0.603,0.49,1.051,0.896
		c0.042,0.042,0.056,0.084,0.056,0.098c0,0.056-0.056,0.084-0.126,0.084h-2.492v4.102c0.798-0.168,1.26-0.28,2.38-0.574l0.07,0.182
		c-1.386,0.658-1.456,0.686-4.9,1.778c-0.056,0.42-0.111,0.56-0.252,0.56c-0.056,0-0.111-0.042-0.153-0.126
		c-0.015-0.028-0.141-0.462-0.379-1.288c0.561-0.042,0.561-0.042,2.381-0.364v-4.27h-1.429c-0.42,0-0.615,0.014-0.938,0.07
		l-0.084-0.504c0.392,0.084,0.672,0.112,1.008,0.112h1.442v-1.848h-0.393c-0.266,0-0.518,0.014-0.77,0.042l-0.057-0.378
		c-0.546,0.588-0.741,0.798-1.344,1.288l-0.182-0.154c0.77-0.896,1.26-1.61,1.848-2.716c0.504-0.952,0.813-1.68,0.994-2.324
		c1.372,0.252,1.498,0.28,1.498,0.406c0,0.112-0.14,0.168-0.603,0.28l-0.069,0.168c0.742,0.308,1.204,0.56,1.764,0.924
		c0.561,0.364,0.645,0.49,0.645,0.924c0,0.364-0.126,0.658-0.28,0.658c-0.084,0-0.168-0.07-0.294-0.266
		c-0.462-0.672-0.91-1.162-1.933-2.044c-0.602,1.092-1.063,1.722-1.974,2.772c0.364,0.084,0.49,0.098,0.756,0.098h1.75
		c0.238-0.336,0.309-0.434,0.561-0.728c0.476,0.378,0.615,0.49,1.05,0.896c0.014,0.028,0.027,0.07,0.027,0.084
		c0,0.056-0.042,0.07-0.153,0.07h-1.988V13.721z M29.487,14.729c0.364,0.392,0.518,0.588,0.812,0.98
		c0.351,0.49,0.477,0.742,0.477,1.022c0,0.196-0.112,0.56-0.238,0.77c-0.098,0.168-0.21,0.252-0.308,0.252
		c-0.154,0-0.196-0.098-0.267-0.686c-0.084-0.602-0.294-1.358-0.63-2.254L29.487,14.729z M32.707,17.626
		c0.364-1.26,0.588-2.198,0.687-2.926c1.246,0.42,1.288,0.434,1.288,0.56s-0.154,0.182-0.561,0.224
		c-0.49,0.994-0.686,1.358-1.231,2.254L32.707,17.626z M37.705,13.777c0.168,0.966,0.35,1.512,0.784,2.338
		c1.147-0.938,1.61-1.4,2.058-2.002c0.896,0.546,1.092,0.7,1.092,0.812c0,0.084-0.111,0.14-0.252,0.14
		c-0.084,0-0.21-0.014-0.336-0.028c-1.218,0.714-1.554,0.896-2.436,1.288c0.28,0.476,0.546,0.826,0.924,1.204
		c0.729,0.728,1.372,1.12,2.395,1.47v0.168c-0.631,0.154-0.757,0.252-1.177,0.91c-1.036-0.812-1.567-1.372-2.113-2.282
		c-0.673-1.12-1.078-2.394-1.261-4.018h-1.288v4.732c0.603-0.126,1.036-0.238,2.198-0.574l0.07,0.224
		c-1.19,0.588-1.568,0.742-3.78,1.624c-0.042,0.42-0.084,0.56-0.21,0.56c-0.056,0-0.112-0.056-0.168-0.154
		c-0.014-0.028-0.154-0.434-0.42-1.232c0.434-0.056,0.518-0.07,1.092-0.196c0.099-0.014,0.099-0.014,0.351-0.07V9.829
		c0-0.686-0.015-1.106-0.028-1.946c0.448,0.238,0.574,0.322,0.979,0.616h3.374c0.225-0.266,0.294-0.336,0.519-0.588
		c0.392,0.252,0.504,0.336,0.826,0.588c0.111,0.098,0.153,0.154,0.153,0.21c0,0.098-0.098,0.168-0.56,0.392
		c0,3.108,0,3.108,0.056,4.676c0,0.014,0,0.028,0,0.042c0,0.07-0.027,0.126-0.084,0.168c-0.111,0.07-0.476,0.154-0.7,0.154
		c-0.126,0-0.182-0.042-0.182-0.168v-0.196H37.705z M39.581,8.821h-3.486v2.128h3.486V8.821z M39.581,11.271h-3.486v2.184h3.486
		V11.271z"/>
</g>
<g>
	<path d="M2.819,2.049c0.273,0.28,0.399,0.574,0.399,0.938c0,0.742-0.546,1.218-1.386,1.218c-0.21,0-0.357-0.021-0.616-0.084
		c-0.259,0.14-0.364,0.259-0.364,0.42c0,0.266,0.182,0.35,0.77,0.35c0.098,0,0.154,0,0.329,0c0.056,0,0.133,0,0.161,0
		c0.476,0,0.7,0.021,0.896,0.07c0.385,0.112,0.581,0.364,0.581,0.756c0,0.343-0.21,0.693-0.525,0.868
		C2.749,6.767,2.35,6.851,1.825,6.851c-0.469,0-0.819-0.07-1.085-0.217c-0.259-0.14-0.378-0.357-0.378-0.679
		c0-0.294,0.056-0.364,0.49-0.644c-0.301-0.14-0.441-0.336-0.441-0.616c0-0.196,0.063-0.287,0.336-0.476L1.02,4.037
		C0.824,3.904,0.747,3.834,0.67,3.736C0.523,3.554,0.446,3.295,0.446,3.015c0-0.476,0.203-0.889,0.546-1.092
		c0.238-0.14,0.532-0.21,0.861-0.21c0.147,0,0.273,0.014,0.469,0.049c0.224,0.035,0.28,0.042,0.441,0.042
		c0.175,0,0.385-0.007,0.763-0.021v0.266H2.819z M0.824,5.892c0,0.518,0.371,0.791,1.085,0.791c0.749,0,1.211-0.308,1.211-0.798
		c0-0.294-0.161-0.448-0.539-0.511c-0.147-0.021-0.35-0.028-0.798-0.028c-0.245,0-0.665,0.007-0.672,0.014
		C0.915,5.43,0.824,5.598,0.824,5.892z M1.195,3.715c0.119,0.21,0.357,0.336,0.637,0.336c0.511,0,0.784-0.371,0.784-1.064
		c0-0.735-0.266-1.113-0.784-1.113c-0.525,0-0.798,0.357-0.798,1.057C1.034,3.246,1.09,3.526,1.195,3.715z"/>
	<path d="M4.562,2.182C4.856,1.881,5.297,1.713,5.78,1.713c1.022,0,1.694,0.721,1.694,1.82c0,1.169-0.672,1.904-1.736,1.904
		c-1.015,0-1.687-0.721-1.687-1.806C4.051,3.05,4.24,2.511,4.562,2.182z M5.759,5.269c0.686,0,1.064-0.595,1.064-1.673
		c0-1.092-0.392-1.722-1.078-1.722c-0.672,0-1.043,0.595-1.043,1.666C4.702,4.639,5.087,5.269,5.759,5.269z"/>
	<path d="M8.062,5.192c0.462-0.014,0.497-0.07,0.497-0.721V1.062c0-0.343-0.028-0.511-0.105-0.574
		C8.405,0.446,8.3,0.432,8.062,0.425V0.271l1.12-0.056C9.154,0.684,9.14,1.244,9.14,1.615v2.856c0,0.651,0.035,0.707,0.504,0.721
		v0.154H8.062V5.192z"/>
	<path d="M13.473,0.215c-0.028,0.448-0.042,0.854-0.042,1.393v2.709c0.014,0.658,0.014,0.665,0.049,0.749
		c0.042,0.091,0.126,0.126,0.329,0.126h0.077v0.154l-0.98,0.056l-0.028-0.609c-0.287,0.441-0.679,0.651-1.19,0.651
		c-0.392,0-0.777-0.182-1.029-0.483C10.4,4.639,10.26,4.191,10.26,3.659c0-1.155,0.644-1.946,1.582-1.946
		c0.427,0,0.721,0.14,1.015,0.469V1.125c0-0.679-0.007-0.693-0.518-0.7V0.271L13.473,0.215z M11.884,1.888
		c-0.63,0-0.973,0.595-0.973,1.694c0,1.085,0.315,1.659,0.91,1.659c0.665,0,1.057-0.616,1.057-1.666
		C12.878,2.49,12.521,1.888,11.884,1.888z"/>
	<path d="M26.318,4.24h0.217c0.028,0.329,0.077,0.497,0.196,0.651c0.182,0.252,0.441,0.378,0.763,0.378
		c0.476,0,0.763-0.245,0.763-0.658c0-0.161-0.063-0.315-0.168-0.406c-0.126-0.105-0.147-0.112-0.784-0.392
		c-0.756-0.329-0.987-0.581-0.987-1.057c0-0.245,0.07-0.483,0.189-0.644c0.189-0.252,0.518-0.399,0.868-0.399
		c0.182,0,0.273,0.014,0.651,0.084c0.056,0.007,0.105,0.014,0.147,0.014c0.084,0,0.196-0.014,0.336-0.049l-0.035,1.106h-0.231
		c-0.014-0.623-0.322-0.994-0.833-0.994c-0.434,0-0.714,0.245-0.714,0.623c0,0.161,0.063,0.287,0.189,0.378
		c0.133,0.098,0.266,0.168,0.728,0.364c0.469,0.196,0.644,0.301,0.805,0.476c0.147,0.161,0.231,0.392,0.231,0.665
		c0,0.644-0.427,1.057-1.085,1.057c-0.196,0-0.287-0.014-0.7-0.084c-0.098-0.014-0.182-0.021-0.259-0.021S26.43,5.339,26.29,5.36
		L26.318,4.24z"/>
	<path d="M30.406,1.734c-0.021,0.406-0.042,1.015-0.042,1.309v1.428c0,0.651,0.035,0.707,0.504,0.721v0.154h-1.596V5.192
		c0.483-0.014,0.518-0.07,0.518-0.721V2.602c0-0.35-0.028-0.511-0.105-0.574c-0.056-0.049-0.168-0.063-0.413-0.063V1.811
		L30.406,1.734z M30.056,0.25c0.217,0,0.392,0.175,0.392,0.392c0,0.224-0.175,0.399-0.392,0.399c-0.224,0-0.399-0.175-0.399-0.399
		C29.657,0.425,29.832,0.25,30.056,0.25z"/>
	<path d="M31.357,5.192c0.462-0.014,0.497-0.07,0.497-0.721V1.062c0-0.343-0.028-0.511-0.105-0.574
		c-0.049-0.042-0.154-0.056-0.392-0.063V0.271l1.12-0.056c-0.028,0.469-0.042,1.029-0.042,1.4v2.856
		c0,0.651,0.035,0.707,0.504,0.721v0.154h-1.582V5.192z"/>
	<path d="M36.054,2.616c0.049-0.133,0.084-0.294,0.084-0.371c0-0.182-0.161-0.266-0.539-0.28V1.811h1.435v0.154
		c-0.371,0.014-0.539,0.175-0.735,0.7l-1.008,2.709h-0.399l-1.106-2.905c-0.147-0.406-0.252-0.497-0.553-0.504V1.811h1.575v0.154
		c-0.322,0.007-0.462,0.084-0.462,0.238c0,0.063,0.042,0.231,0.098,0.371l0.819,2.24L36.054,2.616z"/>
	<path d="M38.07,3.372c0.007,0.483,0.049,0.763,0.161,1.05c0.203,0.518,0.546,0.77,1.05,0.77c0.497,0,0.875-0.259,1.155-0.791
		l0.161,0.091c-0.315,0.644-0.791,0.945-1.477,0.945c-1.001,0-1.687-0.742-1.687-1.813c0-1.134,0.672-1.911,1.659-1.911
		c0.637,0,1.12,0.322,1.337,0.889c0.07,0.189,0.098,0.357,0.112,0.77H38.07z M39.932,3.183c-0.007-0.371-0.042-0.574-0.133-0.777
		c-0.154-0.343-0.392-0.518-0.721-0.518c-0.336,0-0.616,0.189-0.805,0.546c-0.105,0.203-0.147,0.385-0.189,0.749H39.932z"/>
	<path d="M42.13,1.734c0.014,0.35,0.021,0.441,0.021,0.588c0,0.049,0,0.126,0,0.224c0.231-0.532,0.609-0.833,1.022-0.833
		c0.301,0,0.532,0.189,0.532,0.434c0,0.175-0.147,0.287-0.371,0.287c-0.154,0-0.217-0.042-0.259-0.175
		c-0.042-0.154-0.084-0.196-0.196-0.196c-0.182,0-0.378,0.154-0.525,0.42c-0.126,0.231-0.189,0.518-0.189,0.889v1.099
		c0,0.658,0.035,0.707,0.504,0.721v0.154h-1.603V5.192c0.469-0.014,0.511-0.07,0.511-0.721V2.595c0-0.525-0.084-0.63-0.483-0.63
		V1.811L42.13,1.734z"/>
</g>
<g>
	<path d="M0.703,40.679c1.582-1.12,2.521-1.932,3.528-3.066c1.008-1.134,1.861-2.352,2.296-3.276
		c1.399,0.322,1.582,0.392,1.582,0.532c0,0.126-0.168,0.182-0.574,0.224l-0.042,0.028c0.952,1.232,1.652,1.89,2.786,2.646
		c1.134,0.742,1.974,1.12,3.57,1.61l-0.015,0.126c-0.588,0.238-0.77,0.448-0.91,1.036c-0.994-0.518-1.372-0.742-2.029-1.26
		c-1.009-0.77-1.862-1.596-2.492-2.38c-0.364-0.462-0.588-0.798-1.078-1.568c-1.218,1.596-2.058,2.492-3.388,3.556
		c-1.064,0.854-1.849,1.33-3.15,1.932L0.703,40.679z M10.854,41.421c0.321-0.406,0.42-0.532,0.77-0.896
		c0.574,0.42,0.756,0.56,1.302,1.036c0.057,0.056,0.07,0.084,0.07,0.112c0,0.042-0.056,0.07-0.14,0.07H7.619v4.34h3.584l0.924-1.05
		c0.603,0.504,0.784,0.658,1.316,1.148c0.056,0.07,0.069,0.098,0.069,0.126c0,0.056-0.069,0.098-0.14,0.098H2.146
		c-0.364,0-0.616,0.014-0.952,0.07l-0.07-0.532c0.378,0.098,0.672,0.14,1.106,0.14h4.41v-4.34H2.537c-0.28,0-0.504,0.014-0.882,0.07
		l-0.07-0.49c0.351,0.07,0.561,0.098,0.952,0.098H6.64v-2.002H4.861c-0.238,0-0.504,0.028-0.729,0.07l-0.069-0.504
		c0.434,0.098,0.573,0.112,0.91,0.112h3.121l0.799-0.896c0.504,0.434,0.657,0.56,1.147,1.008c0.056,0.056,0.07,0.098,0.07,0.126
		c0,0.056-0.057,0.084-0.141,0.084H7.619v2.002H10.854z M3.266,42.345c1.26,0.966,1.876,1.694,1.876,2.212
		c0,0.182-0.07,0.42-0.196,0.658c-0.126,0.224-0.238,0.322-0.364,0.322c-0.168,0-0.168,0-0.462-1.008
		c-0.21-0.742-0.434-1.204-0.994-2.086L3.266,42.345z M8.529,45.635c0.434-0.7,0.602-1.022,1.05-2.016
		c0.392-0.854,0.434-0.98,0.546-1.358c0.267,0.084,0.477,0.154,0.616,0.21c0.686,0.224,0.854,0.294,0.854,0.392
		c0,0.112-0.168,0.168-0.602,0.238c-1.204,1.526-1.54,1.918-2.31,2.646L8.529,45.635z"/>
	<path d="M19.184,34.897c0.42,0,1.077,0.126,1.414,0.266c0.279,0.112,0.392,0.252,0.392,0.448c0,0.014,0,0.028,0,0.028
		c0,0.112-0.014,0.112-0.112,0.364c-0.168,0.476-0.308,1.68-0.308,2.842c0,0.826,0.112,1.036,0.546,1.036
		c0.294,0,0.602-0.112,1.876-0.714c0.252-0.126,0.406-0.168,0.574-0.168c0.336,0,0.672,0.294,0.672,0.588
		c0,0.182-0.098,0.336-0.294,0.42c-0.099,0.042-0.294,0.112-0.938,0.294c-1.693,0.476-2.618,0.896-3.5,1.568
		c-0.756,0.588-1.092,1.134-1.092,1.792c0,1.008,0.798,1.526,2.353,1.526c0.867,0,2.239-0.168,3.247-0.406
		c0.141-0.028,0.196-0.042,0.28-0.042c0.364,0,0.756,0.35,0.756,0.686c0,0.252-0.153,0.378-0.602,0.462s-1.848,0.182-2.688,0.182
		c-1.021,0-1.792-0.112-2.38-0.322c-0.938-0.35-1.525-1.148-1.525-2.072c0-0.812,0.447-1.582,1.372-2.352
		c0.42-0.364,0.882-0.672,1.708-1.12c-0.309,0-0.435-0.042-0.673-0.21c-0.21-0.154-0.336-0.462-0.405-1.064
		c-0.042-0.336-0.057-0.644-0.099-1.694c-0.042-1.19-0.056-1.4-0.168-1.61c-0.153-0.266-0.42-0.406-1.008-0.504
		C18.791,34.939,18.903,34.897,19.184,34.897z"/>
	<path d="M32.203,40.427h0.882c0.238-0.294,0.448-0.546,0.63-0.756c0.462,0.364,0.603,0.49,1.051,0.896
		c0.042,0.042,0.056,0.084,0.056,0.098c0,0.056-0.056,0.084-0.126,0.084h-2.492v4.102c0.798-0.168,1.26-0.28,2.38-0.574l0.07,0.182
		c-1.386,0.658-1.456,0.686-4.9,1.778c-0.056,0.42-0.111,0.56-0.252,0.56c-0.056,0-0.111-0.042-0.153-0.126
		c-0.015-0.028-0.141-0.462-0.379-1.288c0.561-0.042,0.561-0.042,2.381-0.364v-4.27h-1.429c-0.42,0-0.615,0.014-0.938,0.07
		l-0.084-0.504c0.392,0.084,0.672,0.112,1.008,0.112h1.442v-1.848h-0.393c-0.266,0-0.518,0.014-0.77,0.042l-0.057-0.378
		c-0.546,0.588-0.741,0.798-1.344,1.288l-0.182-0.154c0.77-0.896,1.26-1.61,1.848-2.716c0.504-0.952,0.813-1.68,0.994-2.324
		c1.372,0.252,1.498,0.28,1.498,0.406c0,0.112-0.14,0.168-0.603,0.28l-0.069,0.168c0.742,0.308,1.204,0.56,1.764,0.924
		c0.561,0.364,0.645,0.49,0.645,0.924c0,0.364-0.126,0.658-0.28,0.658c-0.084,0-0.168-0.07-0.294-0.266
		c-0.462-0.672-0.91-1.162-1.933-2.044c-0.602,1.092-1.063,1.722-1.974,2.772c0.364,0.084,0.49,0.098,0.756,0.098h1.75
		c0.238-0.336,0.309-0.434,0.561-0.728c0.476,0.378,0.615,0.49,1.05,0.896c0.014,0.028,0.027,0.07,0.027,0.084
		c0,0.056-0.042,0.07-0.153,0.07h-1.988V40.427z M29.487,41.435c0.364,0.392,0.518,0.588,0.812,0.98
		c0.351,0.49,0.477,0.742,0.477,1.022c0,0.196-0.112,0.56-0.238,0.77c-0.098,0.168-0.21,0.252-0.308,0.252
		c-0.154,0-0.196-0.098-0.267-0.686c-0.084-0.602-0.294-1.358-0.63-2.254L29.487,41.435z M32.707,44.333
		c0.364-1.26,0.588-2.198,0.687-2.926c1.246,0.42,1.288,0.434,1.288,0.56s-0.154,0.182-0.561,0.224
		c-0.49,0.994-0.686,1.358-1.231,2.254L32.707,44.333z M37.705,40.483c0.168,0.966,0.35,1.512,0.784,2.338
		c1.147-0.938,1.61-1.4,2.058-2.002c0.896,0.546,1.092,0.7,1.092,0.812c0,0.084-0.111,0.14-0.252,0.14
		c-0.084,0-0.21-0.014-0.336-0.028c-1.218,0.714-1.554,0.896-2.436,1.288c0.28,0.476,0.546,0.826,0.924,1.204
		c0.729,0.728,1.372,1.12,2.395,1.47v0.168c-0.631,0.154-0.757,0.252-1.177,0.91c-1.036-0.812-1.567-1.372-2.113-2.282
		c-0.673-1.12-1.078-2.394-1.261-4.018h-1.288v4.732c0.603-0.126,1.036-0.238,2.198-0.574l0.07,0.224
		c-1.19,0.588-1.568,0.742-3.78,1.624c-0.042,0.42-0.084,0.56-0.21,0.56c-0.056,0-0.112-0.056-0.168-0.154
		c-0.014-0.028-0.154-0.434-0.42-1.232c0.434-0.056,0.518-0.07,1.092-0.196c0.099-0.014,0.099-0.014,0.351-0.07v-8.862
		c0-0.686-0.015-1.106-0.028-1.946c0.448,0.238,0.574,0.322,0.979,0.616h3.374c0.225-0.266,0.294-0.336,0.519-0.588
		c0.392,0.252,0.504,0.336,0.826,0.588c0.111,0.098,0.153,0.154,0.153,0.21c0,0.098-0.098,0.168-0.56,0.392
		c0,3.108,0,3.108,0.056,4.676c0,0.014,0,0.028,0,0.042c0,0.07-0.027,0.126-0.084,0.168c-0.111,0.07-0.476,0.154-0.7,0.154
		c-0.126,0-0.182-0.042-0.182-0.168v-0.196H37.705z M39.581,35.527h-3.486v2.128h3.486V35.527z M39.581,37.977h-3.486v2.184h3.486
		V37.977z"/>
</g>
<g>
	<path d="M2.819,28.755c0.273,0.28,0.399,0.574,0.399,0.938c0,0.742-0.546,1.218-1.386,1.218c-0.21,0-0.357-0.021-0.616-0.084
		c-0.259,0.14-0.364,0.259-0.364,0.42c0,0.266,0.182,0.35,0.77,0.35c0.098,0,0.154,0,0.329,0c0.056,0,0.133,0,0.161,0
		c0.476,0,0.7,0.021,0.896,0.07c0.385,0.112,0.581,0.364,0.581,0.756c0,0.343-0.21,0.693-0.525,0.868
		c-0.315,0.182-0.714,0.266-1.239,0.266c-0.469,0-0.819-0.07-1.085-0.217c-0.259-0.14-0.378-0.357-0.378-0.679
		c0-0.294,0.056-0.364,0.49-0.644c-0.301-0.14-0.441-0.336-0.441-0.616c0-0.196,0.063-0.287,0.336-0.476l0.273-0.182
		c-0.196-0.133-0.273-0.203-0.35-0.301c-0.147-0.182-0.224-0.441-0.224-0.721c0-0.476,0.203-0.889,0.546-1.092
		c0.238-0.14,0.532-0.21,0.861-0.21c0.147,0,0.273,0.014,0.469,0.049c0.224,0.035,0.28,0.042,0.441,0.042
		c0.175,0,0.385-0.007,0.763-0.021v0.266H2.819z M0.824,32.598c0,0.518,0.371,0.791,1.085,0.791c0.749,0,1.211-0.308,1.211-0.798
		c0-0.294-0.161-0.448-0.539-0.511c-0.147-0.021-0.35-0.028-0.798-0.028c-0.245,0-0.665,0.007-0.672,0.014
		C0.915,32.136,0.824,32.304,0.824,32.598z M1.195,30.421c0.119,0.21,0.357,0.336,0.637,0.336c0.511,0,0.784-0.371,0.784-1.064
		c0-0.735-0.266-1.113-0.784-1.113c-0.525,0-0.798,0.357-0.798,1.057C1.034,29.952,1.09,30.232,1.195,30.421z"/>
	<path d="M4.562,28.888c0.294-0.301,0.735-0.469,1.218-0.469c1.022,0,1.694,0.721,1.694,1.82c0,1.169-0.672,1.904-1.736,1.904
		c-1.015,0-1.687-0.721-1.687-1.806C4.051,29.756,4.24,29.217,4.562,28.888z M5.759,31.975c0.686,0,1.064-0.595,1.064-1.673
		c0-1.092-0.392-1.722-1.078-1.722c-0.672,0-1.043,0.595-1.043,1.666C4.702,31.345,5.087,31.975,5.759,31.975z"/>
	<path d="M8.062,31.898c0.462-0.014,0.497-0.07,0.497-0.721v-3.409c0-0.343-0.028-0.511-0.105-0.574
		c-0.049-0.042-0.154-0.056-0.392-0.063v-0.154l1.12-0.056c-0.028,0.469-0.042,1.029-0.042,1.4v2.856
		c0,0.651,0.035,0.707,0.504,0.721v0.154H8.062V31.898z"/>
	<path d="M13.473,26.921c-0.028,0.448-0.042,0.854-0.042,1.393v2.709c0.014,0.658,0.014,0.665,0.049,0.749
		c0.042,0.091,0.126,0.126,0.329,0.126h0.077v0.154l-0.98,0.056l-0.028-0.609c-0.287,0.441-0.679,0.651-1.19,0.651
		c-0.392,0-0.777-0.182-1.029-0.483c-0.259-0.322-0.399-0.77-0.399-1.302c0-1.155,0.644-1.946,1.582-1.946
		c0.427,0,0.721,0.14,1.015,0.469v-1.057c0-0.679-0.007-0.693-0.518-0.7v-0.154L13.473,26.921z M11.884,28.594
		c-0.63,0-0.973,0.595-0.973,1.694c0,1.085,0.315,1.659,0.91,1.659c0.665,0,1.057-0.616,1.057-1.666
		C12.878,29.196,12.521,28.594,11.884,28.594z"/>
	<path d="M26.318,30.946h0.217c0.028,0.329,0.077,0.497,0.196,0.651c0.182,0.252,0.441,0.378,0.763,0.378
		c0.476,0,0.763-0.245,0.763-0.658c0-0.161-0.063-0.315-0.168-0.406c-0.126-0.105-0.147-0.112-0.784-0.392
		c-0.756-0.329-0.987-0.581-0.987-1.057c0-0.245,0.07-0.483,0.189-0.644c0.189-0.252,0.518-0.399,0.868-0.399
		c0.182,0,0.273,0.014,0.651,0.084c0.056,0.007,0.105,0.014,0.147,0.014c0.084,0,0.196-0.014,0.336-0.049l-0.035,1.106h-0.231
		c-0.014-0.623-0.322-0.994-0.833-0.994c-0.434,0-0.714,0.245-0.714,0.623c0,0.161,0.063,0.287,0.189,0.378
		c0.133,0.098,0.266,0.168,0.728,0.364c0.469,0.196,0.644,0.301,0.805,0.476c0.147,0.161,0.231,0.392,0.231,0.665
		c0,0.644-0.427,1.057-1.085,1.057c-0.196,0-0.287-0.014-0.7-0.084c-0.098-0.014-0.182-0.021-0.259-0.021s-0.175,0.007-0.315,0.028
		L26.318,30.946z"/>
	<path d="M30.406,28.44c-0.021,0.406-0.042,1.015-0.042,1.309v1.428c0,0.651,0.035,0.707,0.504,0.721v0.154h-1.596v-0.154
		c0.483-0.014,0.518-0.07,0.518-0.721v-1.869c0-0.35-0.028-0.511-0.105-0.574c-0.056-0.049-0.168-0.063-0.413-0.063v-0.154
		L30.406,28.44z M30.056,26.956c0.217,0,0.392,0.175,0.392,0.392c0,0.224-0.175,0.399-0.392,0.399c-0.224,0-0.399-0.175-0.399-0.399
		C29.657,27.131,29.832,26.956,30.056,26.956z"/>
	<path d="M31.357,31.898c0.462-0.014,0.497-0.07,0.497-0.721v-3.409c0-0.343-0.028-0.511-0.105-0.574
		c-0.049-0.042-0.154-0.056-0.392-0.063v-0.154l1.12-0.056c-0.028,0.469-0.042,1.029-0.042,1.4v2.856
		c0,0.651,0.035,0.707,0.504,0.721v0.154h-1.582V31.898z"/>
	<path d="M36.054,29.322c0.049-0.133,0.084-0.294,0.084-0.371c0-0.182-0.161-0.266-0.539-0.28v-0.154h1.435v0.154
		c-0.371,0.014-0.539,0.175-0.735,0.7l-1.008,2.709h-0.399l-1.106-2.905c-0.147-0.406-0.252-0.497-0.553-0.504v-0.154h1.575v0.154
		c-0.322,0.007-0.462,0.084-0.462,0.238c0,0.063,0.042,0.231,0.098,0.371l0.819,2.24L36.054,29.322z"/>
	<path d="M38.07,30.078c0.007,0.483,0.049,0.763,0.161,1.05c0.203,0.518,0.546,0.77,1.05,0.77c0.497,0,0.875-0.259,1.155-0.791
		l0.161,0.091c-0.315,0.644-0.791,0.945-1.477,0.945c-1.001,0-1.687-0.742-1.687-1.813c0-1.134,0.672-1.911,1.659-1.911
		c0.637,0,1.12,0.322,1.337,0.889c0.07,0.189,0.098,0.357,0.112,0.77H38.07z M39.932,29.889c-0.007-0.371-0.042-0.574-0.133-0.777
		c-0.154-0.343-0.392-0.518-0.721-0.518c-0.336,0-0.616,0.189-0.805,0.546c-0.105,0.203-0.147,0.385-0.189,0.749H39.932z"/>
	<path d="M42.13,28.44c0.014,0.35,0.021,0.441,0.021,0.588c0,0.049,0,0.126,0,0.224c0.231-0.532,0.609-0.833,1.022-0.833
		c0.301,0,0.532,0.189,0.532,0.434c0,0.175-0.147,0.287-0.371,0.287c-0.154,0-0.217-0.042-0.259-0.175
		c-0.042-0.154-0.084-0.196-0.196-0.196c-0.182,0-0.378,0.154-0.525,0.42c-0.126,0.231-0.189,0.518-0.189,0.889v1.099
		c0,0.658,0.035,0.707,0.504,0.721v0.154h-1.603v-0.154c0.469-0.014,0.511-0.07,0.511-0.721v-1.876c0-0.525-0.084-0.63-0.483-0.63
		v-0.154L42.13,28.44z"/>
</g>
<g>
	<rect x="0.125" y="7.088" fill="none" stroke="#000000" stroke-width="0.2165" width="42" height="14"/>
	<line fill="none" stroke="#000000" stroke-width="0.25" x1="0.125" y1="21.088" x2="0.125" y2="7.088"/>
	<line fill="none" stroke="#000000" stroke-width="0.25" x1="14.125" y1="21.088" x2="14.125" y2="7.088"/>
	<line fill="none" stroke="#000000" stroke-width="0.25" x1="28.125" y1="21.088" x2="28.125" y2="7.088"/>
</g>
<rect x="0.147" y="0.088" fill="none" stroke="#000000" stroke-width="0.1768" width="13.922" height="7"/>
<line fill="none" stroke="#000000" stroke-width="0.1768" x1="3.814" y1="7.088" x2="3.814" y2="0.088"/>
<line fill="none" stroke="#000000" stroke-width="0.1768" x1="7.689" y1="7.088" x2="7.689" y2="0.088"/>
<line fill="none" stroke="#000000" stroke-width="0.1768" x1="10.002" y1="7.088" x2="10.002" y2="0.088"/>
<rect x="25.964" y="0.088" fill="none" stroke="#000000" stroke-width="0.1768" width="17.9" height="7"/>
<line fill="none" stroke="#000000" stroke-width="0.1768" x1="28.938" y1="7.088" x2="28.938" y2="0.088"/>
<line fill="none" stroke="#000000" stroke-width="0.1768" x1="31.118" y1="7.088" x2="31.118" y2="0.088"/>
<line fill="none" stroke="#000000" stroke-width="0.1768" x1="33.082" y1="7.088" x2="33.082" y2="0.088"/>
<line fill="none" stroke="#000000" stroke-width="0.1768" x1="37.271" y1="7.088" x2="37.271" y2="0.088"/>
<line fill="none" stroke="#000000" stroke-width="0.1768" x1="40.896" y1="7.088" x2="40.896" y2="0.088"/>
</svg>
