<?xml version="1.0" encoding="utf-8"?>
<!-- Generator: Adobe Illustrator 12.0.0, SVG Export Plug-In . SVG Version: 6.00 Build 51448)  -->
<!DOCTYPE svg PUBLIC "-//W3C//DTD SVG 1.1//EN" "http://www.w3.org/Graphics/SVG/1.1/DTD/svg11.dtd" [
	<!ENTITY ns_svg "http://www.w3.org/2000/svg">
	<!ENTITY ns_xlink "http://www.w3.org/1999/xlink">
]>
<svg  version="1.1" id="レイヤー_1" xmlns="&ns_svg;" xmlns:xlink="&ns_xlink;" width="126.501" height="152.7"
	 viewBox="0 0 126.501 152.7" overflow="visible" enable-background="new 0 0 126.501 152.7" xml:space="preserve">
<g>
	<path d="M12.271,4.22c0.851,0.168,1.491,0.389,1.838,0.62c0.283,0.178,0.399,0.388,0.399,0.693c0,0.273-0.137,0.504-0.294,0.504
		c-0.105,0-0.168-0.042-0.326-0.241c-0.525-0.662-0.998-1.061-1.68-1.439L12.271,4.22z M20.397,3.968
		c-0.567,0.809-1.102,1.407-2.226,2.457c-0.872,0.819-2.016,1.627-3.644,2.593c-0.284,0.168-0.357,0.221-0.504,0.357
		C13.94,9.449,13.867,9.48,13.783,9.48c-0.21,0-0.441-0.199-0.746-0.619c-0.199-0.305-0.325-0.62-0.325-0.84
		c0-0.105,0.021-0.168,0.084-0.252c0.231,0.452,0.483,0.662,0.798,0.662c0.284,0,1.061-0.357,2.058-0.956
		c1.627-0.956,3.423-2.373,4.599-3.623L20.397,3.968z M13.426,2.351c1.68,0.399,2.215,0.725,2.215,1.344
		c0,0.294-0.126,0.525-0.283,0.525c-0.116,0-0.116,0-0.567-0.557c-0.399-0.472-0.882-0.872-1.438-1.166L13.426,2.351z"/>
	<path d="M24.902,3.044c0.546,0,1.806-0.084,2.898-0.2c0.557-0.063,0.725-0.095,0.851-0.2c0.115-0.084,0.178-0.115,0.252-0.115
		c0.115,0,0.388,0.189,0.682,0.483c0.158,0.158,0.231,0.273,0.231,0.368c0,0.073-0.021,0.115-0.137,0.262
		c-0.084,0.116-0.115,0.231-0.273,1.271c-0.168,1.029-0.168,1.029-0.347,2.121c-0.063,0.347-0.105,0.599-0.126,0.767
		c0.389,0.252,0.515,0.388,0.515,0.588c0,0.095-0.084,0.158-0.231,0.158c-0.084,0-0.126,0-0.41-0.042
		c-0.136-0.021-0.546-0.032-0.956-0.032c-0.798,0-1.638,0.105-2.551,0.326c-0.273,0.063-0.357,0.094-0.536,0.168
		c-0.063,0.031-0.115,0.042-0.178,0.042c-0.231,0-0.441-0.147-0.672-0.473c-0.199-0.273-0.304-0.515-0.304-0.683
		c0-0.031,0.01-0.063,0.052-0.147c0.252,0.368,0.546,0.536,0.924,0.536c0.178,0,0.441-0.021,0.903-0.084
		c0.935-0.116,1.627-0.179,2.772-0.252c0.095-0.578,0.221-1.606,0.294-2.289c-1.344,0.074-2.971,0.294-3.633,0.504
		c-0.095,0.032-0.168,0.042-0.231,0.042c-0.126,0-0.273-0.073-0.389-0.189c-0.221-0.22-0.41-0.609-0.41-0.83
		c0-0.063,0.011-0.094,0.042-0.178C24.262,5.375,24.44,5.48,24.85,5.48c0.095,0,0.095,0,2.3-0.21
		c0.262-0.031,0.598-0.042,1.459-0.084c0.115-1.071,0.147-1.396,0.157-1.953c-0.725,0-1.428,0.073-2.877,0.273
		c-0.483,0.063-0.609,0.084-1.008,0.178c-0.105,0.032-0.179,0.042-0.231,0.042c-0.116,0-0.242-0.063-0.347-0.168
		c-0.263-0.283-0.462-0.662-0.462-0.903c0-0.063,0.01-0.116,0.063-0.21C24.136,2.876,24.419,3.044,24.902,3.044z"/>
	<path d="M33.46,5.134c0.262,0.199,0.462,0.252,1.018,0.252c0.116,0,0.116,0,1.292-0.032c0.41-0.01,3.749-0.063,4.095-0.063
		c0.945,0,1.176,0.021,1.365,0.095c0.105,0.052,0.147,0.115,0.147,0.21c0,0.126-0.095,0.242-0.242,0.284
		c-0.284,0.094-0.536,0.105-2.52,0.126c-0.977,0.01-3.381,0.073-3.749,0.094c-0.494,0.032-0.588,0.042-0.756,0.137
		c-0.042,0.01-0.116,0.031-0.158,0.031c-0.157,0-0.325-0.115-0.504-0.346c-0.221-0.273-0.399-0.714-0.399-0.966
		c0-0.147,0.01-0.168,0.084-0.241C33.26,4.955,33.313,5.029,33.46,5.134z"/>
	<path d="M46.228,9.943c0.83-0.588,1.386-1.113,1.953-1.848c0.609-0.798,1.04-1.585,1.459-2.688
		c0.273-0.714,0.389-1.197,0.452-1.795c-0.168-0.011-0.21-0.011-0.336-0.011c-0.945,0-2.415,0.189-3.654,0.462
		c-0.084,0.021-0.147,0.032-0.189,0.032c-0.126,0-0.262-0.053-0.535-0.189c0.042,0.115,0.042,0.126,0.052,0.473
		c0.011,0.745,0.021,1.459,0.021,1.512c0,0.389-0.073,0.567-0.242,0.567c-0.231,0-0.598-0.546-0.598-0.882
		c0-0.074,0.01-0.116,0.073-0.242c0.063-0.157,0.095-0.399,0.095-0.766c0-0.809-0.179-1.145-0.767-1.48
		c0.084-0.042,0.126-0.053,0.21-0.053c0.294,0,0.452,0.084,1.103,0.599c0.263,0,0.305-0.011,1.04-0.116
		c0.42-0.063,0.557-0.073,0.893-0.115c0.01-0.168,0.01-0.242,0.01-0.473c0-0.651-0.031-0.935-0.136-1.113
		c-0.095-0.179-0.179-0.231-0.567-0.378c0.084-0.073,0.157-0.105,0.262-0.105c0.609,0,1.386,0.326,1.386,0.588
		c0,0.063-0.021,0.105-0.095,0.241c-0.147,0.252-0.21,0.588-0.231,1.166c1.816-0.157,1.995-0.178,2.152-0.262
		c0.084-0.042,0.137-0.063,0.189-0.063c0.105,0,0.273,0.095,0.515,0.284c0.305,0.252,0.41,0.389,0.41,0.536
		c0,0.105-0.011,0.126-0.126,0.252c-0.095,0.094-0.158,0.241-0.305,0.63c-0.378,1.008-0.63,1.575-1.008,2.194
		c-0.704,1.166-1.344,1.89-2.279,2.541c-0.462,0.326-0.724,0.483-1.113,0.651L46.228,9.943z"/>
	<path d="M53.966,7.213c1.313-0.704,2.719-1.764,3.948-2.982c1.04-1.018,1.711-1.869,1.711-2.173c0-0.199-0.168-0.368-0.588-0.599
		c0.116-0.042,0.137-0.042,0.21-0.042c0.305,0,0.567,0.095,0.903,0.315c0.357,0.241,0.546,0.483,0.546,0.682
		c0,0.095-0.011,0.116-0.42,0.462c-0.105,0.084-0.105,0.084-0.851,0.798c-0.735,0.704-0.798,0.756-1.25,1.134
		c0.41,0.305,0.588,0.462,0.641,0.588c0.042,0.105,0.063,0.599,0.073,1.543c0.011,0.735,0.032,1.407,0.053,2.006
		c0,0.231,0.01,0.535,0.01,0.598c0,0.368-0.073,0.525-0.241,0.525c-0.242,0-0.714-0.578-0.714-0.882c0-0.073,0-0.073,0.063-0.273
		c0.095-0.262,0.189-1.564,0.189-2.583c0-0.514-0.021-0.83-0.063-0.998c-0.031-0.105-0.073-0.157-0.231-0.325
		c-0.735,0.588-1.491,1.124-2.016,1.438c-0.588,0.346-1.344,0.714-1.89,0.914L53.966,7.213z"/>
	<path d="M65.338,2.677c1.008,0.252,1.617,0.494,2.026,0.788c0.242,0.168,0.357,0.399,0.357,0.714c0,0.347-0.115,0.588-0.294,0.588
		c-0.116,0-0.168-0.052-0.452-0.42c-0.514-0.683-0.893-1.029-1.711-1.543L65.338,2.677z M72.803,3.275
		c-0.525,0.987-1.166,1.816-2.205,2.824c-0.966,0.935-1.617,1.459-2.95,2.394c-0.494,0.347-0.546,0.389-0.62,0.483
		c-0.168,0.2-0.231,0.252-0.368,0.252c-0.43,0-1.229-1.008-1.229-1.543c0-0.063,0.011-0.105,0.053-0.21
		c0.21,0.315,0.231,0.336,0.378,0.462c0.157,0.147,0.304,0.221,0.42,0.221c0.179,0,0.504-0.137,1.019-0.441
		c1.176-0.683,1.585-0.977,2.509-1.732c1.292-1.05,1.922-1.691,2.825-2.804L72.803,3.275z"/>
	<path d="M78.557,7.297c0,0.598,0,1.827,0.011,2.1c0,0.095,0,0.158,0,0.189c0,0.315-0.074,0.452-0.231,0.452
		c-0.116,0-0.231-0.094-0.378-0.283c-0.157-0.242-0.273-0.515-0.273-0.683c0-0.095,0.011-0.158,0.084-0.389
		c0.116-0.389,0.179-1.701,0.179-3.612c0-2.163-0.032-2.73-0.168-2.993c-0.126-0.231-0.305-0.378-0.672-0.536
		c0.105-0.063,0.168-0.084,0.273-0.084c0.241,0,0.64,0.137,1.019,0.357c0.294,0.168,0.399,0.283,0.399,0.441
		c0,0.063-0.011,0.084-0.063,0.189c-0.137,0.283-0.179,0.714-0.179,2.289c1.145,0.136,2.163,0.409,2.678,0.714
		c0.315,0.178,0.43,0.368,0.43,0.693c0,0.263-0.094,0.462-0.231,0.462c-0.084,0-0.147-0.031-0.409-0.262
		c-0.777-0.651-1.522-1.061-2.468-1.344v0.242V7.297z M80.542,1.784c1.344,0.567,1.806,0.935,1.806,1.417
		c0,0.294-0.126,0.546-0.283,0.546c-0.116,0-0.126-0.01-0.389-0.451c-0.284-0.504-0.662-0.924-1.229-1.386L80.542,1.784z
		 M81.497,1.039c0.746,0.263,1.103,0.431,1.449,0.693c0.241,0.178,0.336,0.346,0.336,0.588c0,0.273-0.105,0.493-0.242,0.493
		c-0.126,0-0.147-0.031-0.388-0.388c-0.315-0.483-0.704-0.861-1.239-1.26L81.497,1.039z"/>
	<path d="M85.96,5.134c0.262,0.199,0.462,0.252,1.019,0.252c0.115,0,0.115,0,1.291-0.032c0.41-0.01,3.749-0.063,4.095-0.063
		c0.945,0,1.177,0.021,1.365,0.095c0.105,0.052,0.147,0.115,0.147,0.21c0,0.126-0.095,0.242-0.242,0.284
		c-0.283,0.094-0.535,0.105-2.52,0.126c-0.977,0.01-3.381,0.073-3.748,0.094c-0.494,0.032-0.588,0.042-0.756,0.137
		c-0.042,0.01-0.116,0.031-0.158,0.031c-0.157,0-0.325-0.115-0.504-0.346c-0.221-0.273-0.399-0.714-0.399-0.966
		c0-0.147,0.01-0.168,0.084-0.241C85.76,4.955,85.813,5.029,85.96,5.134z"/>
	<path fill="#00A73B" d="M7.146,21.692c-0.378,1.323-0.966,3.612-1.218,4.641c-0.21,0.924-0.273,1.26-0.273,1.785
		c-0.021,0.672-0.042,0.756-0.147,0.924c-0.105,0.147-0.231,0.231-0.399,0.231c-0.357,0-0.651-0.294-0.903-0.945
		c-0.42-1.071-0.672-2.667-0.672-4.221c0-1.932,0.231-3.696,0.945-6.993c0.273-1.302,0.315-1.533,0.315-1.89
		c0-0.63-0.168-1.134-0.609-1.848c0.483,0.021,0.882,0.294,1.47,1.05c0.483,0.609,0.756,1.197,0.756,1.596
		c0,0.231,0,0.231-0.336,0.924c-1.008,2.1-1.596,4.599-1.596,6.846c0,1.071,0.084,1.743,0.336,2.604l0.882-2.1l1.134-2.709
		L7.146,21.692z M9.247,17.892c1.008,0.651,1.659,0.861,2.709,0.861c0.735,0,1.533-0.105,2.394-0.294c0-0.399,0-0.735,0-0.924
		c0-2.352-0.021-2.625-0.294-2.919c-0.252-0.273-0.714-0.42-1.386-0.483c0.294-0.273,0.462-0.336,1.008-0.336
		c0.462,0,1.029,0.084,1.428,0.189c0.609,0.189,0.924,0.441,0.924,0.756c0,0.147,0,0.168-0.189,0.651
		c-0.231,0.609-0.357,1.365-0.441,2.814c0.966-0.273,1.575-0.546,1.932-0.861c0.21-0.21,0.273-0.231,0.462-0.231
		c0.252,0,0.735,0.126,0.987,0.273c0.168,0.084,0.273,0.231,0.273,0.378c0,0.462-1.533,1.092-3.717,1.512
		c0,2.793,0.063,3.948,0.273,5.712c2.436,0.651,3.465,1.47,3.465,2.688c0,0.441-0.189,0.777-0.42,0.777
		c-0.168,0-0.315-0.105-0.735-0.525c-0.924-0.945-1.449-1.323-2.268-1.68c0.021,0.189,0.021,0.357,0.021,0.504
		c0,1.512-1.26,2.415-3.36,2.415c-1.827,0-3.108-0.882-3.108-2.142c0-1.449,1.554-2.373,3.948-2.373
		c0.399,0,0.693,0.021,1.281,0.063c0-0.189,0-0.315,0-0.357l-0.042-2.247l-0.021-2.688c-0.63,0.126-1.239,0.168-1.848,0.168
		c-1.533,0-2.415-0.378-3.465-1.47L9.247,17.892z M12.459,25.557c-1.659,0-2.688,0.546-2.688,1.47c0,0.735,0.819,1.239,2.058,1.239
		c1.155,0,1.974-0.336,2.31-0.987c0.21-0.378,0.273-0.693,0.273-1.47C13.825,25.641,13.237,25.557,12.459,25.557z"/>
	<path d="M26.551,16.736c0-0.399,0-0.693-0.042-1.302c1.575,0.168,2.037,0.273,2.037,0.483c0,0.189-0.063,0.21-0.735,0.441v1.575
		h1.113c0.231-0.336,0.315-0.42,0.567-0.735c0.462,0.294,0.588,0.399,0.987,0.735c0.189,0.168,0.252,0.252,0.252,0.357
		s-0.147,0.252-0.504,0.441c0,0.504,0,0.714,0,1.113c0,0.336,0.021,1.764,0.042,4.683c0,0.021,0,0.063,0,0.084
		c0,0.21-0.273,0.294-1.113,0.294c-0.147,0-0.21-0.042-0.231-0.189v-0.63h-3.465v4.179c1.218-0.273,1.701-0.399,3.444-0.945
		c-0.483-0.777-0.735-1.155-1.323-1.89l0.231-0.189c0.84,0.504,1.344,0.882,2.121,1.575c0.714,0.672,0.945,0.987,0.945,1.407
		c0,0.336-0.147,0.966-0.294,1.218c-0.105,0.168-0.252,0.273-0.357,0.273c-0.147,0-0.21-0.084-0.315-0.378
		c-0.126-0.357-0.441-1.029-0.777-1.617c-1.365,0.777-3.045,1.512-5.544,2.373c-0.021,0.546-0.147,0.84-0.315,0.84
		c-0.084,0-0.168-0.084-0.252-0.252c-0.021-0.042-0.252-0.672-0.651-1.869c0.903-0.105,1.071-0.126,1.617-0.252l-0.021-9.555
		l0.021-1.218c-0.693,0.693-1.05,1.029-1.995,1.764l-0.21-0.231c1.134-1.26,2.079-2.562,2.898-4.074
		c0.441-0.777,0.903-1.722,1.197-2.457c0.147-0.315,0.189-0.462,0.294-0.966c1.596,0.357,2.184,0.567,2.184,0.777
		c0,0.168-0.294,0.294-0.861,0.357l-0.147,0.252c2.163,0.672,2.163,0.672,2.961,1.008c0.735,0.315,0.966,0.672,0.966,1.428
		c0,0.546-0.168,0.903-0.399,0.903c-0.189,0-0.252-0.063-0.63-0.525c-0.63-0.777-1.491-1.491-3.087-2.52
		c-1.218,2.016-1.722,2.688-2.793,3.864c0.42,0.189,0.588,0.273,1.092,0.567h1.092V16.736z M28.924,20.706v-2.289h-3.465v2.289
		H28.924z M25.458,21.167v2.436h3.465v-2.436H25.458z M39.088,14.931c0.42-0.588,0.567-0.777,1.008-1.344
		c0.735,0.63,0.945,0.819,1.617,1.512c0.042,0.063,0.063,0.126,0.063,0.168c0,0.084-0.105,0.147-0.231,0.147h-4.641v3.003h2.1
		c0.273-0.399,0.357-0.504,0.672-0.882c0.567,0.462,0.735,0.609,1.239,1.029c0.147,0.147,0.189,0.21,0.189,0.294
		s-0.189,0.231-0.63,0.441v4.389c0.021,1.26,0.021,2.394,0.021,3.381c0,0.063,0,0.147,0,0.168c0,0.546-0.147,0.882-0.546,1.197
		c-0.273,0.231-0.609,0.357-1.365,0.504c-0.042-0.861-0.315-1.155-1.344-1.386V27.32c0.399,0.021,0.861,0.042,1.176,0.042
		c0.084,0,0.147,0,0.294,0c0.042,0,0.084,0,0.084,0c0.231,0,0.294-0.084,0.294-0.336v-8.127h-2.184v7.539
		c0,0.966,0,1.092,0.063,4.242c-0.042,0.147-0.084,0.168-0.252,0.189c-0.42,0.084-0.693,0.105-0.861,0.105
		c-0.231,0-0.336-0.063-0.336-0.189c0-0.021,0-0.042,0-0.063c0.084-2.247,0.105-4.011,0.105-6.552v-5.271h-1.995l-0.021,5.859v2.037
		c0,0.399,0,0.798,0.021,1.533c-0.021,0.189-0.063,0.252-0.252,0.294c-0.168,0.021-0.63,0.063-0.819,0.063
		c-0.231,0-0.357-0.084-0.357-0.21c0-0.042,0-0.084,0.021-0.147c0.063-1.911,0.063-2.415,0.084-5.397c0-0.966,0-1.995,0.021-3.066
		c0-0.168,0-0.252,0-0.294V17.85c-0.714,1.218-0.903,1.47-1.617,2.331l-0.294-0.189c0.903-1.533,1.491-2.919,2.058-4.809
		c0.483-1.659,0.756-2.772,0.819-3.528c1.554,0.357,2.205,0.588,2.205,0.798s-0.273,0.315-0.84,0.357
		c-0.441,1.113-0.441,1.113-0.84,2.121H39.088z M33.606,15.414c-0.21,0.483-0.462,0.987-1.155,2.205
		c0.651,0.336,0.756,0.399,1.365,0.798h1.806v-3.003H33.606z"/>
	<path d="M72.31,14.489c-0.168,0.84-0.231,1.113-0.42,1.617c-0.651,1.806-1.806,2.961-3.738,3.759
		c-1.05,0.42-1.911,0.609-3.171,0.756l-0.084-0.315c2.604-0.714,3.885-1.491,4.893-2.961c0.672-0.945,0.945-1.722,1.05-2.856h-3.591
		c-0.168,1.764-0.945,3.192-1.764,3.192c-0.315,0-0.63-0.525-0.63-1.092c0-0.294,0.084-0.462,0.399-0.672
		c0.882-0.651,1.302-1.428,1.638-3.129h0.357c0.021,0.525,0.021,0.735,0.021,0.903c0,0.084,0,0.189,0,0.315h5.943v-1.134
		c0-0.42-0.021-0.693-0.084-1.26c1.827,0.273,1.827,0.273,2.016,0.315c0.294,0.042,0.483,0.147,0.483,0.294
		c0,0.021-0.063,0.105-0.105,0.147c-0.147,0.105-0.273,0.147-0.861,0.315v1.323h5.376c0.357-0.483,0.483-0.63,0.945-1.071
		c0.798,0.588,1.029,0.777,1.764,1.386c0.147,0.168,0.189,0.21,0.189,0.294c0,0.021-0.042,0.084-0.084,0.105
		c-0.084,0.042-0.273,0.084-0.483,0.105l-1.092,0.126c-0.378,0.336-0.378,0.336-1.029,1.029c-0.399,0.441-0.399,0.441-0.735,0.735
		L79.24,16.61c0.336-0.735,0.357-0.798,0.798-2.121h-3.633v2.772c0,0.378,0.126,0.441,0.924,0.441c0.147,0,0.651,0,1.428,0.021
		c0.105,0,0.189,0,0.231,0c0.84,0,1.869-0.063,2.121-0.147c0.21-0.063,0.315-0.189,0.588-0.735c0-0.021,0.126-0.294,0.336-0.756
		c0.084-0.168,0.21-0.42,0.357-0.756l0.252,0.042l-0.147,1.596l-0.021,0.252c0,0.105,0,0.168,0,0.168
		c0,0.147,0.063,0.189,0.336,0.252c0.252,0.063,0.441,0.273,0.441,0.504c0,0.525-1.008,0.672-4.767,0.672
		c-1.827,0-2.583-0.042-2.919-0.147c-0.336-0.084-0.504-0.378-0.504-0.84v-3.339H72.31z M68.299,25.052
		c-0.063,1.407-0.315,2.457-0.882,3.465c-0.399,0.714-1.218,1.386-1.68,1.386c-0.315,0-0.693-0.672-0.693-1.218
		c0-0.294,0.105-0.378,0.735-0.651c0.231-0.105,1.029-0.798,1.365-1.218c0.378-0.441,0.567-0.882,0.819-1.764H68.299z M76.72,19.319
		c1.806,0.819,2.688,1.323,3.717,2.121c0.357,0.273,0.462,0.399,0.525,0.693c0.063,0.21,0.084,0.336,0.084,0.462
		c0,0.147-0.105,0.588-0.168,0.777c-0.084,0.21-0.189,0.315-0.336,0.315c-0.126,0-0.252-0.105-0.441-0.336
		c-0.525-0.735-0.924-1.239-1.302-1.701c-1.113,0.21-1.995,0.336-3.927,0.588c-2.499,0.315-2.583,0.336-5.355,0.609
		c-1.281,0.126-1.281,0.126-1.869,0.189c-0.168,0.672-0.252,0.819-0.399,0.819c-0.231,0-0.399-0.546-0.756-2.289
		c0.714,0.042,0.987,0.063,1.554,0.063c0.021,0,0.819-0.021,2.415-0.042c0.735-1.218,1.218-2.415,1.617-3.927
		c1.575,0.294,2.289,0.504,2.289,0.714c0,0.168-0.231,0.252-1.008,0.399c-1.029,1.365-1.575,2.016-2.331,2.814
		c3.003-0.063,5.082-0.147,7.434-0.336c-0.189-0.189-0.819-0.777-1.911-1.764L76.72,19.319z M69.979,25.872
		c0-0.399-0.021-0.735-0.063-1.512c0.882,0.063,1.932,0.231,2.268,0.378c0.042,0.021,0.105,0.105,0.105,0.168
		c0,0.168-0.147,0.252-0.861,0.504v3.171c0,0.252,0.105,0.42,0.273,0.462c0.189,0.042,1.134,0.084,2.037,0.084l1.911-0.021h0.294
		c0.714,0,0.945-0.084,1.113-0.357c0.168-0.336,0.693-1.827,1.155-3.339l0.252,0.042l-0.105,2.688
		c-0.021,0.126-0.021,0.21-0.021,0.294c0,0.399,0.021,0.42,0.357,0.525c0.357,0.105,0.588,0.315,0.588,0.525
		c0,0.252-0.378,0.567-0.819,0.672c-0.504,0.105-2.268,0.168-4.536,0.168c-2.037,0-3.003-0.042-3.339-0.168
		c-0.441-0.168-0.609-0.462-0.609-1.008V25.872z M72.792,23.226c1.449,0.462,2.268,0.84,2.94,1.428
		c0.315,0.252,0.378,0.42,0.378,0.861c0,0.567-0.294,1.092-0.588,1.092c-0.168,0-0.168-0.021-0.525-0.588
		c-0.483-0.819-1.155-1.554-2.331-2.562L72.792,23.226z M79.471,24.653c1.092,0.63,1.953,1.26,2.793,2.058
		c0.672,0.63,0.882,0.966,0.882,1.365c0,0.399-0.231,0.987-0.483,1.281c-0.084,0.105-0.231,0.168-0.357,0.168
		c-0.21,0-0.231-0.042-0.483-0.609c-0.546-1.323-1.386-2.646-2.583-4.095L79.471,24.653z"/>
	<path fill="#00A73B" d="M94.779,29c2.269-0.672,3.718-1.533,4.914-2.919c1.239-1.407,1.869-3.129,1.869-5.061
		c0-2.037-0.818-3.654-2.373-4.641c-0.924-0.609-2.31-0.966-3.633-0.966c-0.252,0-0.399,0-0.735,0.042
		c0.505,0.735,0.651,1.134,0.651,1.743c0,1.638-1.176,4.704-2.771,7.266c-1.323,2.1-2.353,3.129-3.13,3.129
		c-0.356,0-0.692-0.168-0.924-0.441c-0.188-0.252-0.23-0.336-0.588-1.344c-0.188-0.546-0.314-0.798-0.924-1.974
		c-0.336-0.672-0.483-1.239-0.483-1.911c0-1.323,0.714-2.877,1.89-4.158c1.701-1.806,4.473-2.94,7.224-2.94
		c2.121,0,4.074,0.693,5.418,1.932c1.344,1.239,2.016,2.898,2.016,4.935c0,2.625-1.532,4.956-4.179,6.363
		c-1.218,0.651-2.31,0.987-4.095,1.302L94.779,29z M87.871,22.469c0,1.008,0.314,2.037,0.84,2.772
		c0.294,0.378,0.566,0.609,0.798,0.609c0.462,0,1.47-1.134,2.499-2.772c1.554-2.478,2.667-5.187,2.667-6.489
		c0-0.315-0.063-0.525-0.294-1.05C90.727,16.19,87.871,19.235,87.871,22.469z"/>
</g>
<g>
	<path d="M12.271,42.321c0.851,0.168,1.491,0.389,1.838,0.62c0.283,0.178,0.399,0.388,0.399,0.693c0,0.273-0.137,0.504-0.294,0.504
		c-0.105,0-0.168-0.042-0.326-0.241c-0.525-0.662-0.998-1.061-1.68-1.439L12.271,42.321z M20.397,42.069
		c-0.567,0.809-1.102,1.407-2.226,2.457c-0.872,0.819-2.016,1.627-3.644,2.593c-0.284,0.168-0.357,0.221-0.504,0.357
		c-0.084,0.074-0.158,0.105-0.242,0.105c-0.21,0-0.441-0.199-0.746-0.619c-0.199-0.305-0.325-0.62-0.325-0.84
		c0-0.105,0.021-0.168,0.084-0.252c0.231,0.452,0.483,0.662,0.798,0.662c0.284,0,1.061-0.357,2.058-0.956
		c1.627-0.956,3.423-2.373,4.599-3.623L20.397,42.069z M13.426,40.452c1.68,0.399,2.215,0.725,2.215,1.344
		c0,0.294-0.126,0.525-0.283,0.525c-0.116,0-0.116,0-0.567-0.557c-0.399-0.472-0.882-0.872-1.438-1.166L13.426,40.452z"/>
	<path d="M24.902,41.145c0.546,0,1.806-0.084,2.898-0.2c0.557-0.063,0.725-0.095,0.851-0.2c0.115-0.084,0.178-0.115,0.252-0.115
		c0.115,0,0.388,0.189,0.682,0.483c0.158,0.158,0.231,0.273,0.231,0.368c0,0.073-0.021,0.115-0.137,0.262
		c-0.084,0.116-0.115,0.231-0.273,1.271c-0.168,1.029-0.168,1.029-0.347,2.121c-0.063,0.347-0.105,0.599-0.126,0.767
		c0.389,0.252,0.515,0.388,0.515,0.588c0,0.095-0.084,0.158-0.231,0.158c-0.084,0-0.126,0-0.41-0.042
		c-0.136-0.021-0.546-0.032-0.956-0.032c-0.798,0-1.638,0.105-2.551,0.326c-0.273,0.063-0.357,0.094-0.536,0.168
		c-0.063,0.031-0.115,0.042-0.178,0.042c-0.231,0-0.441-0.147-0.672-0.473c-0.199-0.273-0.304-0.515-0.304-0.683
		c0-0.031,0.01-0.063,0.052-0.147c0.252,0.368,0.546,0.536,0.924,0.536c0.178,0,0.441-0.021,0.903-0.084
		c0.935-0.116,1.627-0.179,2.772-0.252c0.095-0.578,0.221-1.606,0.294-2.289c-1.344,0.074-2.971,0.294-3.633,0.504
		c-0.095,0.032-0.168,0.042-0.231,0.042c-0.126,0-0.273-0.073-0.389-0.189c-0.221-0.22-0.41-0.609-0.41-0.83
		c0-0.063,0.011-0.094,0.042-0.178c0.326,0.409,0.504,0.514,0.914,0.514c0.095,0,0.095,0,2.3-0.21
		c0.262-0.031,0.598-0.042,1.459-0.084c0.115-1.071,0.147-1.396,0.157-1.953c-0.725,0-1.428,0.073-2.877,0.273
		c-0.483,0.063-0.609,0.084-1.008,0.178c-0.105,0.032-0.179,0.042-0.231,0.042c-0.116,0-0.242-0.063-0.347-0.168
		c-0.263-0.283-0.462-0.662-0.462-0.903c0-0.063,0.01-0.116,0.063-0.21C24.136,40.977,24.419,41.145,24.902,41.145z"/>
	<path d="M33.46,43.234c0.262,0.199,0.462,0.252,1.018,0.252c0.116,0,0.116,0,1.292-0.032c0.41-0.01,3.749-0.063,4.095-0.063
		c0.945,0,1.176,0.021,1.365,0.095c0.105,0.052,0.147,0.115,0.147,0.21c0,0.126-0.095,0.242-0.242,0.284
		c-0.284,0.094-0.536,0.105-2.52,0.126c-0.977,0.01-3.381,0.073-3.749,0.094c-0.494,0.032-0.588,0.042-0.756,0.137
		c-0.042,0.01-0.116,0.031-0.158,0.031c-0.157,0-0.325-0.115-0.504-0.346c-0.221-0.273-0.399-0.714-0.399-0.966
		c0-0.147,0.01-0.168,0.084-0.241C33.26,43.056,33.313,43.129,33.46,43.234z"/>
	<path d="M46.228,48.043c0.83-0.588,1.386-1.113,1.953-1.848c0.609-0.798,1.04-1.585,1.459-2.688
		c0.273-0.714,0.389-1.197,0.452-1.795c-0.168-0.011-0.21-0.011-0.336-0.011c-0.945,0-2.415,0.189-3.654,0.462
		c-0.084,0.021-0.147,0.032-0.189,0.032c-0.126,0-0.262-0.053-0.535-0.189c0.042,0.115,0.042,0.126,0.052,0.473
		c0.011,0.745,0.021,1.459,0.021,1.512c0,0.389-0.073,0.567-0.242,0.567c-0.231,0-0.598-0.546-0.598-0.882
		c0-0.074,0.01-0.116,0.073-0.242c0.063-0.157,0.095-0.399,0.095-0.766c0-0.809-0.179-1.145-0.767-1.48
		c0.084-0.042,0.126-0.053,0.21-0.053c0.294,0,0.452,0.084,1.103,0.599c0.263,0,0.305-0.011,1.04-0.116
		c0.42-0.063,0.557-0.073,0.893-0.115c0.01-0.168,0.01-0.242,0.01-0.473c0-0.651-0.031-0.935-0.136-1.113
		c-0.095-0.179-0.179-0.231-0.567-0.378c0.084-0.073,0.157-0.105,0.262-0.105c0.609,0,1.386,0.326,1.386,0.588
		c0,0.063-0.021,0.105-0.095,0.241c-0.147,0.252-0.21,0.588-0.231,1.166c1.816-0.157,1.995-0.178,2.152-0.262
		c0.084-0.042,0.137-0.063,0.189-0.063c0.105,0,0.273,0.095,0.515,0.284c0.305,0.252,0.41,0.389,0.41,0.536
		c0,0.105-0.011,0.126-0.126,0.252c-0.095,0.094-0.158,0.241-0.305,0.63c-0.378,1.008-0.63,1.575-1.008,2.194
		c-0.704,1.166-1.344,1.89-2.279,2.541c-0.462,0.326-0.724,0.483-1.113,0.651L46.228,48.043z"/>
	<path d="M53.966,45.313c1.313-0.704,2.719-1.764,3.948-2.982c1.04-1.018,1.711-1.869,1.711-2.173c0-0.199-0.168-0.368-0.588-0.599
		c0.116-0.042,0.137-0.042,0.21-0.042c0.305,0,0.567,0.095,0.903,0.315c0.357,0.241,0.546,0.483,0.546,0.682
		c0,0.095-0.011,0.116-0.42,0.462c-0.105,0.084-0.105,0.084-0.851,0.798c-0.735,0.704-0.798,0.756-1.25,1.134
		c0.41,0.305,0.588,0.462,0.641,0.588c0.042,0.105,0.063,0.599,0.073,1.543c0.011,0.735,0.032,1.407,0.053,2.006
		c0,0.231,0.01,0.535,0.01,0.598c0,0.368-0.073,0.525-0.241,0.525c-0.242,0-0.714-0.578-0.714-0.882c0-0.073,0-0.073,0.063-0.273
		c0.095-0.262,0.189-1.564,0.189-2.583c0-0.514-0.021-0.83-0.063-0.998c-0.031-0.105-0.073-0.157-0.231-0.325
		c-0.735,0.588-1.491,1.124-2.016,1.438c-0.588,0.346-1.344,0.714-1.89,0.914L53.966,45.313z"/>
	<path d="M65.338,40.777c1.008,0.252,1.617,0.494,2.026,0.788c0.242,0.168,0.357,0.399,0.357,0.714c0,0.347-0.115,0.588-0.294,0.588
		c-0.116,0-0.168-0.052-0.452-0.42c-0.514-0.683-0.893-1.029-1.711-1.543L65.338,40.777z M72.803,41.376
		c-0.525,0.987-1.166,1.816-2.205,2.824c-0.966,0.935-1.617,1.459-2.95,2.394c-0.494,0.347-0.546,0.389-0.62,0.483
		c-0.168,0.2-0.231,0.252-0.368,0.252c-0.43,0-1.229-1.008-1.229-1.543c0-0.063,0.011-0.105,0.053-0.21
		c0.21,0.315,0.231,0.336,0.378,0.462c0.157,0.147,0.304,0.221,0.42,0.221c0.179,0,0.504-0.137,1.019-0.441
		c1.176-0.683,1.585-0.977,2.509-1.732c1.292-1.05,1.922-1.691,2.825-2.804L72.803,41.376z"/>
	<path d="M78.557,45.397c0,0.598,0,1.827,0.011,2.1c0,0.095,0,0.158,0,0.189c0,0.315-0.074,0.452-0.231,0.452
		c-0.116,0-0.231-0.094-0.378-0.283c-0.157-0.242-0.273-0.515-0.273-0.683c0-0.095,0.011-0.158,0.084-0.389
		c0.116-0.389,0.179-1.701,0.179-3.612c0-2.163-0.032-2.73-0.168-2.993c-0.126-0.231-0.305-0.378-0.672-0.536
		c0.105-0.063,0.168-0.084,0.273-0.084c0.241,0,0.64,0.137,1.019,0.357c0.294,0.168,0.399,0.283,0.399,0.441
		c0,0.063-0.011,0.084-0.063,0.189c-0.137,0.283-0.179,0.714-0.179,2.289c1.145,0.136,2.163,0.409,2.678,0.714
		c0.315,0.178,0.43,0.368,0.43,0.693c0,0.263-0.094,0.462-0.231,0.462c-0.084,0-0.147-0.031-0.409-0.262
		c-0.777-0.651-1.522-1.061-2.468-1.344v0.242V45.397z M80.542,39.885c1.344,0.567,1.806,0.935,1.806,1.417
		c0,0.294-0.126,0.546-0.283,0.546c-0.116,0-0.126-0.01-0.389-0.451c-0.284-0.504-0.662-0.924-1.229-1.386L80.542,39.885z
		 M81.497,39.139c0.746,0.263,1.103,0.431,1.449,0.693c0.241,0.178,0.336,0.346,0.336,0.588c0,0.273-0.105,0.493-0.242,0.493
		c-0.126,0-0.147-0.031-0.388-0.388c-0.315-0.483-0.704-0.861-1.239-1.26L81.497,39.139z"/>
	<path d="M85.96,43.234c0.262,0.199,0.462,0.252,1.019,0.252c0.115,0,0.115,0,1.291-0.032c0.41-0.01,3.749-0.063,4.095-0.063
		c0.945,0,1.177,0.021,1.365,0.095c0.105,0.052,0.147,0.115,0.147,0.21c0,0.126-0.095,0.242-0.242,0.284
		c-0.283,0.094-0.535,0.105-2.52,0.126c-0.977,0.01-3.381,0.073-3.748,0.094c-0.494,0.032-0.588,0.042-0.756,0.137
		c-0.042,0.01-0.116,0.031-0.158,0.031c-0.157,0-0.325-0.115-0.504-0.346c-0.221-0.273-0.399-0.714-0.399-0.966
		c0-0.147,0.01-0.168,0.084-0.241C85.76,43.056,85.813,43.129,85.96,43.234z"/>
	<path d="M7.146,59.793c-0.378,1.323-0.966,3.612-1.218,4.641c-0.21,0.924-0.273,1.26-0.273,1.785
		c-0.021,0.672-0.042,0.756-0.147,0.924c-0.105,0.147-0.231,0.231-0.399,0.231c-0.357,0-0.651-0.294-0.903-0.945
		c-0.42-1.071-0.672-2.667-0.672-4.221c0-1.932,0.231-3.696,0.945-6.993c0.273-1.302,0.315-1.533,0.315-1.89
		c0-0.63-0.168-1.134-0.609-1.848c0.483,0.021,0.882,0.294,1.47,1.05c0.483,0.609,0.756,1.197,0.756,1.596
		c0,0.231,0,0.231-0.336,0.924c-1.008,2.1-1.596,4.599-1.596,6.846c0,1.071,0.084,1.743,0.336,2.604l0.882-2.1l1.134-2.709
		L7.146,59.793z M9.247,55.992c1.008,0.651,1.659,0.861,2.709,0.861c0.735,0,1.533-0.105,2.394-0.294c0-0.399,0-0.735,0-0.924
		c0-2.352-0.021-2.625-0.294-2.919c-0.252-0.273-0.714-0.42-1.386-0.483c0.294-0.273,0.462-0.336,1.008-0.336
		c0.462,0,1.029,0.084,1.428,0.189c0.609,0.189,0.924,0.441,0.924,0.756c0,0.147,0,0.168-0.189,0.651
		c-0.231,0.609-0.357,1.365-0.441,2.814c0.966-0.273,1.575-0.546,1.932-0.861c0.21-0.21,0.273-0.231,0.462-0.231
		c0.252,0,0.735,0.126,0.987,0.273c0.168,0.084,0.273,0.231,0.273,0.378c0,0.462-1.533,1.092-3.717,1.512
		c0,2.793,0.063,3.948,0.273,5.712c2.436,0.651,3.465,1.47,3.465,2.688c0,0.441-0.189,0.777-0.42,0.777
		c-0.168,0-0.315-0.105-0.735-0.525c-0.924-0.945-1.449-1.323-2.268-1.68c0.021,0.189,0.021,0.357,0.021,0.504
		c0,1.512-1.26,2.415-3.36,2.415c-1.827,0-3.108-0.882-3.108-2.142c0-1.449,1.554-2.373,3.948-2.373
		c0.399,0,0.693,0.021,1.281,0.063c0-0.189,0-0.315,0-0.357l-0.042-2.247l-0.021-2.688c-0.63,0.126-1.239,0.168-1.848,0.168
		c-1.533,0-2.415-0.378-3.465-1.47L9.247,55.992z M12.459,63.657c-1.659,0-2.688,0.546-2.688,1.47c0,0.735,0.819,1.239,2.058,1.239
		c1.155,0,1.974-0.336,2.31-0.987c0.21-0.378,0.273-0.693,0.273-1.47C13.825,63.741,13.237,63.657,12.459,63.657z"/>
	<path d="M26.551,54.837c0-0.399,0-0.693-0.042-1.302c1.575,0.168,2.037,0.273,2.037,0.483c0,0.189-0.063,0.21-0.735,0.441v1.575
		h1.113c0.231-0.336,0.315-0.42,0.567-0.735c0.462,0.294,0.588,0.399,0.987,0.735c0.189,0.168,0.252,0.252,0.252,0.357
		s-0.147,0.252-0.504,0.441c0,0.504,0,0.714,0,1.113c0,0.336,0.021,1.764,0.042,4.683c0,0.021,0,0.063,0,0.084
		c0,0.21-0.273,0.294-1.113,0.294c-0.147,0-0.21-0.042-0.231-0.189v-0.63h-3.465v4.179c1.218-0.273,1.701-0.399,3.444-0.945
		c-0.483-0.777-0.735-1.155-1.323-1.89l0.231-0.189c0.84,0.504,1.344,0.882,2.121,1.575c0.714,0.672,0.945,0.987,0.945,1.407
		c0,0.336-0.147,0.966-0.294,1.218c-0.105,0.168-0.252,0.273-0.357,0.273c-0.147,0-0.21-0.084-0.315-0.378
		c-0.126-0.357-0.441-1.029-0.777-1.617c-1.365,0.777-3.045,1.512-5.544,2.373c-0.021,0.546-0.147,0.84-0.315,0.84
		c-0.084,0-0.168-0.084-0.252-0.252c-0.021-0.042-0.252-0.672-0.651-1.869c0.903-0.105,1.071-0.126,1.617-0.252l-0.021-9.555
		l0.021-1.218c-0.693,0.693-1.05,1.029-1.995,1.764l-0.21-0.231c1.134-1.26,2.079-2.562,2.898-4.074
		c0.441-0.777,0.903-1.722,1.197-2.457c0.147-0.315,0.189-0.462,0.294-0.966c1.596,0.357,2.184,0.567,2.184,0.777
		c0,0.168-0.294,0.294-0.861,0.357l-0.147,0.252c2.163,0.672,2.163,0.672,2.961,1.008c0.735,0.315,0.966,0.672,0.966,1.428
		c0,0.546-0.168,0.903-0.399,0.903c-0.189,0-0.252-0.063-0.63-0.525c-0.63-0.777-1.491-1.491-3.087-2.52
		c-1.218,2.016-1.722,2.688-2.793,3.864c0.42,0.189,0.588,0.273,1.092,0.567h1.092V54.837z M28.924,58.806v-2.289h-3.465v2.289
		H28.924z M25.458,59.268v2.436h3.465v-2.436H25.458z M39.088,53.031c0.42-0.588,0.567-0.777,1.008-1.344
		c0.735,0.63,0.945,0.819,1.617,1.512c0.042,0.063,0.063,0.126,0.063,0.168c0,0.084-0.105,0.147-0.231,0.147h-4.641v3.003h2.1
		c0.273-0.399,0.357-0.504,0.672-0.882c0.567,0.462,0.735,0.609,1.239,1.029c0.147,0.147,0.189,0.21,0.189,0.294
		s-0.189,0.231-0.63,0.441v4.389c0.021,1.26,0.021,2.394,0.021,3.381c0,0.063,0,0.147,0,0.168c0,0.546-0.147,0.882-0.546,1.197
		c-0.273,0.231-0.609,0.357-1.365,0.504c-0.042-0.861-0.315-1.155-1.344-1.386v-0.231c0.399,0.021,0.861,0.042,1.176,0.042
		c0.084,0,0.147,0,0.294,0c0.042,0,0.084,0,0.084,0c0.231,0,0.294-0.084,0.294-0.336V57h-2.184v7.539c0,0.966,0,1.092,0.063,4.242
		c-0.042,0.147-0.084,0.168-0.252,0.189c-0.42,0.084-0.693,0.105-0.861,0.105c-0.231,0-0.336-0.063-0.336-0.189
		c0-0.021,0-0.042,0-0.063c0.084-2.247,0.105-4.011,0.105-6.552V57h-1.995l-0.021,5.859v2.037c0,0.399,0,0.798,0.021,1.533
		c-0.021,0.189-0.063,0.252-0.252,0.294c-0.168,0.021-0.63,0.063-0.819,0.063c-0.231,0-0.357-0.084-0.357-0.21
		c0-0.042,0-0.084,0.021-0.147c0.063-1.911,0.063-2.415,0.084-5.397c0-0.966,0-1.995,0.021-3.066c0-0.168,0-0.252,0-0.294V55.95
		c-0.714,1.218-0.903,1.47-1.617,2.331l-0.294-0.189c0.903-1.533,1.491-2.919,2.058-4.809c0.483-1.659,0.756-2.772,0.819-3.528
		c1.554,0.357,2.205,0.588,2.205,0.798s-0.273,0.315-0.84,0.357c-0.441,1.113-0.441,1.113-0.84,2.121H39.088z M33.606,53.514
		c-0.21,0.483-0.462,0.987-1.155,2.205c0.651,0.336,0.756,0.399,1.365,0.798h1.806v-3.003H33.606z"/>
	<path d="M72.31,52.59c-0.168,0.84-0.231,1.113-0.42,1.617c-0.651,1.806-1.806,2.961-3.738,3.759
		c-1.05,0.42-1.911,0.609-3.171,0.756l-0.084-0.315c2.604-0.714,3.885-1.491,4.893-2.961c0.672-0.945,0.945-1.722,1.05-2.856h-3.591
		c-0.168,1.764-0.945,3.192-1.764,3.192c-0.315,0-0.63-0.525-0.63-1.092c0-0.294,0.084-0.462,0.399-0.672
		c0.882-0.651,1.302-1.428,1.638-3.129h0.357c0.021,0.525,0.021,0.735,0.021,0.903c0,0.084,0,0.189,0,0.315h5.943v-1.134
		c0-0.42-0.021-0.693-0.084-1.26c1.827,0.273,1.827,0.273,2.016,0.315c0.294,0.042,0.483,0.147,0.483,0.294
		c0,0.021-0.063,0.105-0.105,0.147c-0.147,0.105-0.273,0.147-0.861,0.315v1.323h5.376c0.357-0.483,0.483-0.63,0.945-1.071
		c0.798,0.588,1.029,0.777,1.764,1.386c0.147,0.168,0.189,0.21,0.189,0.294c0,0.021-0.042,0.084-0.084,0.105
		c-0.084,0.042-0.273,0.084-0.483,0.105l-1.092,0.126c-0.378,0.336-0.378,0.336-1.029,1.029c-0.399,0.441-0.399,0.441-0.735,0.735
		l-0.273-0.105c0.336-0.735,0.357-0.798,0.798-2.121h-3.633v2.772c0,0.378,0.126,0.441,0.924,0.441c0.147,0,0.651,0,1.428,0.021
		c0.105,0,0.189,0,0.231,0c0.84,0,1.869-0.063,2.121-0.147c0.21-0.063,0.315-0.189,0.588-0.735c0-0.021,0.126-0.294,0.336-0.756
		c0.084-0.168,0.21-0.42,0.357-0.756l0.252,0.042l-0.147,1.596l-0.021,0.252c0,0.105,0,0.168,0,0.168
		c0,0.147,0.063,0.189,0.336,0.252c0.252,0.063,0.441,0.273,0.441,0.504c0,0.525-1.008,0.672-4.767,0.672
		c-1.827,0-2.583-0.042-2.919-0.147c-0.336-0.084-0.504-0.378-0.504-0.84V52.59H72.31z M68.299,63.153
		c-0.063,1.407-0.315,2.457-0.882,3.465c-0.399,0.714-1.218,1.386-1.68,1.386c-0.315,0-0.693-0.672-0.693-1.218
		c0-0.294,0.105-0.378,0.735-0.651c0.231-0.105,1.029-0.798,1.365-1.218c0.378-0.441,0.567-0.882,0.819-1.764H68.299z M76.72,57.42
		c1.806,0.819,2.688,1.323,3.717,2.121c0.357,0.273,0.462,0.399,0.525,0.693c0.063,0.21,0.084,0.336,0.084,0.462
		c0,0.147-0.105,0.588-0.168,0.777c-0.084,0.21-0.189,0.315-0.336,0.315c-0.126,0-0.252-0.105-0.441-0.336
		c-0.525-0.735-0.924-1.239-1.302-1.701c-1.113,0.21-1.995,0.336-3.927,0.588c-2.499,0.315-2.583,0.336-5.355,0.609
		c-1.281,0.126-1.281,0.126-1.869,0.189c-0.168,0.672-0.252,0.819-0.399,0.819c-0.231,0-0.399-0.546-0.756-2.289
		c0.714,0.042,0.987,0.063,1.554,0.063c0.021,0,0.819-0.021,2.415-0.042c0.735-1.218,1.218-2.415,1.617-3.927
		c1.575,0.294,2.289,0.504,2.289,0.714c0,0.168-0.231,0.252-1.008,0.399c-1.029,1.365-1.575,2.016-2.331,2.814
		c3.003-0.063,5.082-0.147,7.434-0.336c-0.189-0.189-0.819-0.777-1.911-1.764L76.72,57.42z M69.979,63.972
		c0-0.399-0.021-0.735-0.063-1.512c0.882,0.063,1.932,0.231,2.268,0.378c0.042,0.021,0.105,0.105,0.105,0.168
		c0,0.168-0.147,0.252-0.861,0.504v3.171c0,0.252,0.105,0.42,0.273,0.462c0.189,0.042,1.134,0.084,2.037,0.084l1.911-0.021h0.294
		c0.714,0,0.945-0.084,1.113-0.357c0.168-0.336,0.693-1.827,1.155-3.339l0.252,0.042l-0.105,2.688
		c-0.021,0.126-0.021,0.21-0.021,0.294c0,0.399,0.021,0.42,0.357,0.525c0.357,0.105,0.588,0.315,0.588,0.525
		c0,0.252-0.378,0.567-0.819,0.672c-0.504,0.105-2.268,0.168-4.536,0.168c-2.037,0-3.003-0.042-3.339-0.168
		c-0.441-0.168-0.609-0.462-0.609-1.008V63.972z M72.792,61.326c1.449,0.462,2.268,0.84,2.94,1.428
		c0.315,0.252,0.378,0.42,0.378,0.861c0,0.567-0.294,1.092-0.588,1.092c-0.168,0-0.168-0.021-0.525-0.588
		c-0.483-0.819-1.155-1.554-2.331-2.562L72.792,61.326z M79.471,62.754c1.092,0.63,1.953,1.26,2.793,2.058
		c0.672,0.63,0.882,0.966,0.882,1.365c0,0.399-0.231,0.987-0.483,1.281c-0.084,0.105-0.231,0.168-0.357,0.168
		c-0.21,0-0.231-0.042-0.483-0.609c-0.546-1.323-1.386-2.646-2.583-4.095L79.471,62.754z"/>
	<path d="M94.779,67.101c2.269-0.672,3.718-1.533,4.914-2.919c1.239-1.407,1.869-3.129,1.869-5.061c0-2.037-0.818-3.654-2.373-4.641
		c-0.924-0.609-2.31-0.966-3.633-0.966c-0.252,0-0.399,0-0.735,0.042c0.505,0.735,0.651,1.134,0.651,1.743
		c0,1.638-1.176,4.704-2.771,7.266c-1.323,2.1-2.353,3.129-3.13,3.129c-0.356,0-0.692-0.168-0.924-0.441
		c-0.188-0.252-0.23-0.336-0.588-1.344c-0.188-0.546-0.314-0.798-0.924-1.974c-0.336-0.672-0.483-1.239-0.483-1.911
		c0-1.323,0.714-2.877,1.89-4.158c1.701-1.806,4.473-2.94,7.224-2.94c2.121,0,4.074,0.693,5.418,1.932
		c1.344,1.239,2.016,2.898,2.016,4.935c0,2.625-1.532,4.956-4.179,6.363c-1.218,0.651-2.31,0.987-4.095,1.302L94.779,67.101z
		 M87.871,60.57c0,1.008,0.314,2.037,0.84,2.772c0.294,0.378,0.566,0.609,0.798,0.609c0.462,0,1.47-1.134,2.499-2.772
		c1.554-2.478,2.667-5.187,2.667-6.489c0-0.315-0.063-0.525-0.294-1.05C90.727,54.291,87.871,57.336,87.871,60.57z"/>
</g>
<rect x="0.25" y="10.75" fill="none" stroke="#008CD6" stroke-width="0.5" width="42" height="21"/>
<line fill="none" stroke="#008CD6" stroke-width="0.5" x1="21.25" y1="31.75" x2="21.25" y2="10.75"/>
<rect x="63.25" y="10.75" fill="none" stroke="#008CD6" stroke-width="0.5" width="42.001" height="21"/>
<line fill="none" stroke="#008CD6" stroke-width="0.5" x1="84.25" y1="31.75" x2="84.25" y2="10.75"/>
<line fill="none" stroke="#008CD6" stroke-width="0.5" x1="21.25" y1="10.75" x2="21.25" y2="0.25"/>
<line fill="none" stroke="#008CD6" stroke-width="0.5" x1="31.75" y1="10.75" x2="31.75" y2="0.25"/>
<polyline fill="none" stroke="#008CD6" stroke-width="0.5" points="10.75,10.75 10.75,0.25 52.75,0.25 52.75,10.75 "/>
<g>
	<polyline fill="none" stroke="#008CD6" stroke-width="0.5" points="63.25,0.25 63.25,10.75 42.25,10.75 42.25,0.25 	"/>
	<line fill="none" stroke="#008CD6" stroke-width="0.5" x1="73.75" y1="10.75" x2="73.75" y2="0.25"/>
	<polyline fill="none" stroke="#008CD6" stroke-width="0.5" points="52.75,0.25 94.75,0.25 94.75,10.75 84.25,10.75 84.25,0.25 	"/>
</g>
<line fill="none" stroke="#008CD6" stroke-width="0.5" x1="42.25" y1="94.375" x2="42.25" y2="83.875"/>
<polyline fill="none" stroke="#008CD6" stroke-width="0.5" points="63.25,94.375 63.25,83.875 21.25,83.875 21.25,94.375 
	31.75,94.375 31.75,83.875 "/>
<g>
	<polyline fill="none" stroke="#008CD6" stroke-width="0.5" points="73.75,83.875 73.75,94.375 52.75,94.375 52.75,83.875 	"/>
	<line fill="none" stroke="#008CD6" stroke-width="0.5" x1="84.25" y1="94.375" x2="84.25" y2="83.875"/>
	<polyline fill="none" stroke="#008CD6" stroke-width="0.5" points="63.25,83.875 105.251,83.875 105.251,94.375 94.75,94.375 
		94.75,83.875 	"/>
</g>
<g>
	<path d="M22.771,87.845c0.851,0.168,1.491,0.389,1.838,0.62c0.283,0.178,0.399,0.388,0.399,0.693c0,0.273-0.137,0.504-0.294,0.504
		c-0.105,0-0.168-0.042-0.326-0.241c-0.525-0.662-0.998-1.061-1.68-1.439L22.771,87.845z M30.897,87.593
		c-0.567,0.809-1.102,1.407-2.226,2.457c-0.872,0.819-2.016,1.627-3.644,2.593c-0.284,0.168-0.357,0.221-0.504,0.357
		c-0.084,0.074-0.158,0.105-0.242,0.105c-0.21,0-0.441-0.199-0.746-0.619c-0.199-0.305-0.325-0.62-0.325-0.84
		c0-0.105,0.021-0.168,0.084-0.252c0.231,0.452,0.483,0.662,0.798,0.662c0.284,0,1.061-0.357,2.058-0.956
		c1.627-0.956,3.423-2.373,4.599-3.623L30.897,87.593z M23.926,85.976c1.68,0.399,2.215,0.725,2.215,1.344
		c0,0.294-0.126,0.525-0.283,0.525c-0.116,0-0.116,0-0.567-0.557c-0.399-0.472-0.882-0.872-1.438-1.166L23.926,85.976z"/>
	<path d="M35.402,86.669c0.546,0,1.806-0.084,2.898-0.2c0.557-0.063,0.725-0.095,0.851-0.2c0.115-0.084,0.178-0.115,0.252-0.115
		c0.115,0,0.388,0.189,0.682,0.483c0.158,0.158,0.231,0.273,0.231,0.368c0,0.073-0.021,0.115-0.137,0.262
		c-0.084,0.116-0.115,0.231-0.273,1.271c-0.168,1.029-0.168,1.029-0.347,2.121c-0.063,0.347-0.105,0.599-0.126,0.767
		c0.389,0.252,0.515,0.388,0.515,0.588c0,0.095-0.084,0.158-0.231,0.158c-0.084,0-0.126,0-0.41-0.042
		c-0.136-0.021-0.546-0.032-0.956-0.032c-0.798,0-1.638,0.105-2.551,0.326c-0.273,0.063-0.357,0.094-0.536,0.168
		c-0.063,0.031-0.115,0.042-0.178,0.042c-0.231,0-0.441-0.147-0.672-0.473c-0.199-0.273-0.304-0.515-0.304-0.683
		c0-0.031,0.01-0.063,0.052-0.147c0.252,0.368,0.546,0.536,0.924,0.536c0.178,0,0.441-0.021,0.903-0.084
		c0.935-0.116,1.627-0.179,2.772-0.252c0.095-0.578,0.221-1.606,0.294-2.289c-1.344,0.074-2.971,0.294-3.633,0.504
		c-0.095,0.032-0.168,0.042-0.231,0.042c-0.126,0-0.273-0.073-0.389-0.189c-0.221-0.22-0.41-0.609-0.41-0.83
		c0-0.063,0.011-0.094,0.042-0.178c0.326,0.409,0.504,0.514,0.914,0.514c0.095,0,0.095,0,2.3-0.21
		c0.262-0.031,0.598-0.042,1.459-0.084c0.115-1.071,0.147-1.396,0.157-1.953c-0.725,0-1.428,0.073-2.877,0.273
		c-0.483,0.063-0.609,0.084-1.008,0.178c-0.105,0.032-0.179,0.042-0.231,0.042c-0.116,0-0.242-0.063-0.347-0.168
		c-0.263-0.283-0.462-0.662-0.462-0.903c0-0.063,0.01-0.116,0.063-0.21C34.636,86.501,34.919,86.669,35.402,86.669z"/>
	<path d="M43.96,88.759c0.262,0.199,0.462,0.252,1.018,0.252c0.116,0,0.116,0,1.292-0.032c0.41-0.01,3.749-0.063,4.095-0.063
		c0.945,0,1.176,0.021,1.365,0.095c0.105,0.052,0.147,0.115,0.147,0.21c0,0.126-0.095,0.242-0.242,0.284
		c-0.284,0.094-0.536,0.105-2.52,0.126c-0.977,0.01-3.381,0.073-3.749,0.094c-0.494,0.032-0.588,0.042-0.756,0.137
		c-0.042,0.01-0.116,0.031-0.158,0.031c-0.157,0-0.325-0.115-0.504-0.346c-0.221-0.273-0.399-0.714-0.399-0.966
		c0-0.147,0.01-0.168,0.084-0.241C43.76,88.58,43.813,88.654,43.96,88.759z"/>
	<path d="M56.728,93.568c0.83-0.588,1.386-1.113,1.953-1.848c0.609-0.798,1.04-1.585,1.459-2.688
		c0.273-0.714,0.389-1.197,0.452-1.795c-0.168-0.011-0.21-0.011-0.336-0.011c-0.945,0-2.415,0.189-3.654,0.462
		c-0.084,0.021-0.147,0.032-0.189,0.032c-0.126,0-0.262-0.053-0.535-0.189c0.042,0.115,0.042,0.126,0.052,0.473
		c0.011,0.745,0.021,1.459,0.021,1.512c0,0.389-0.073,0.567-0.242,0.567c-0.231,0-0.598-0.546-0.598-0.882
		c0-0.074,0.01-0.116,0.073-0.242c0.063-0.157,0.095-0.399,0.095-0.766c0-0.809-0.179-1.145-0.767-1.48
		c0.084-0.042,0.126-0.053,0.21-0.053c0.294,0,0.452,0.084,1.103,0.599c0.263,0,0.305-0.011,1.04-0.116
		c0.42-0.063,0.557-0.073,0.893-0.115c0.01-0.168,0.01-0.242,0.01-0.473c0-0.651-0.031-0.935-0.136-1.113
		c-0.095-0.179-0.179-0.231-0.567-0.378c0.084-0.073,0.157-0.105,0.262-0.105c0.609,0,1.386,0.326,1.386,0.588
		c0,0.063-0.021,0.105-0.095,0.241c-0.147,0.252-0.21,0.588-0.231,1.166c1.816-0.157,1.995-0.178,2.152-0.262
		c0.084-0.042,0.137-0.063,0.189-0.063c0.105,0,0.273,0.095,0.515,0.284c0.305,0.252,0.41,0.389,0.41,0.536
		c0,0.105-0.011,0.126-0.126,0.252c-0.095,0.094-0.158,0.241-0.305,0.63c-0.378,1.008-0.63,1.575-1.008,2.194
		c-0.704,1.166-1.344,1.89-2.279,2.541c-0.462,0.326-0.724,0.483-1.113,0.651L56.728,93.568z"/>
	<path d="M64.466,90.838c1.313-0.704,2.719-1.764,3.948-2.982c1.04-1.018,1.711-1.869,1.711-2.173c0-0.199-0.168-0.368-0.588-0.599
		c0.116-0.042,0.137-0.042,0.21-0.042c0.305,0,0.567,0.095,0.903,0.315c0.357,0.241,0.546,0.483,0.546,0.682
		c0,0.095-0.011,0.116-0.42,0.462c-0.105,0.084-0.105,0.084-0.851,0.798c-0.735,0.704-0.798,0.756-1.25,1.134
		c0.41,0.305,0.588,0.462,0.641,0.588c0.042,0.105,0.063,0.599,0.073,1.543c0.011,0.735,0.032,1.407,0.053,2.006
		c0,0.231,0.01,0.535,0.01,0.598c0,0.368-0.073,0.525-0.241,0.525c-0.242,0-0.714-0.578-0.714-0.882c0-0.073,0-0.073,0.063-0.273
		c0.095-0.262,0.189-1.564,0.189-2.583c0-0.514-0.021-0.83-0.063-0.998c-0.031-0.105-0.073-0.157-0.231-0.325
		c-0.735,0.588-1.491,1.124-2.016,1.438c-0.588,0.346-1.344,0.714-1.89,0.914L64.466,90.838z"/>
	<path d="M75.838,86.302c1.008,0.252,1.617,0.494,2.026,0.788c0.242,0.168,0.357,0.399,0.357,0.714c0,0.347-0.115,0.588-0.294,0.588
		c-0.116,0-0.168-0.052-0.452-0.42c-0.514-0.683-0.893-1.029-1.711-1.543L75.838,86.302z M83.303,86.9
		c-0.525,0.987-1.166,1.816-2.205,2.824c-0.966,0.935-1.617,1.459-2.95,2.394c-0.494,0.347-0.546,0.389-0.62,0.483
		c-0.168,0.2-0.231,0.252-0.368,0.252c-0.43,0-1.229-1.008-1.229-1.543c0-0.063,0.011-0.105,0.053-0.21
		c0.21,0.315,0.231,0.336,0.378,0.462c0.157,0.147,0.304,0.221,0.42,0.221c0.179,0,0.504-0.137,1.019-0.441
		c1.176-0.683,1.585-0.977,2.509-1.732c1.292-1.05,1.922-1.691,2.825-2.804L83.303,86.9z"/>
	<path d="M89.058,90.922c0,0.598,0,1.827,0.01,2.1c0,0.095,0,0.158,0,0.189c0,0.315-0.073,0.452-0.23,0.452
		c-0.115,0-0.231-0.094-0.378-0.283c-0.158-0.242-0.273-0.515-0.273-0.683c0-0.095,0.011-0.158,0.084-0.389
		c0.115-0.389,0.179-1.701,0.179-3.612c0-2.163-0.031-2.73-0.168-2.993c-0.126-0.231-0.305-0.378-0.672-0.536
		c0.104-0.063,0.168-0.084,0.272-0.084c0.242,0,0.641,0.137,1.019,0.357c0.294,0.168,0.399,0.283,0.399,0.441
		c0,0.063-0.011,0.084-0.063,0.189c-0.136,0.283-0.178,0.714-0.178,2.289c1.145,0.136,2.162,0.409,2.677,0.714
		c0.315,0.178,0.431,0.368,0.431,0.693c0,0.263-0.095,0.462-0.23,0.462c-0.084,0-0.147-0.031-0.41-0.262
		c-0.776-0.651-1.522-1.061-2.467-1.344v0.242V90.922z M91.042,85.409c1.344,0.567,1.806,0.935,1.806,1.417
		c0,0.294-0.126,0.546-0.283,0.546c-0.116,0-0.126-0.01-0.389-0.451c-0.283-0.504-0.661-0.924-1.229-1.386L91.042,85.409z
		 M91.997,84.664c0.746,0.263,1.103,0.431,1.449,0.693c0.241,0.178,0.336,0.346,0.336,0.588c0,0.273-0.105,0.493-0.241,0.493
		c-0.126,0-0.147-0.031-0.389-0.388c-0.315-0.483-0.704-0.861-1.239-1.26L91.997,84.664z"/>
	<path d="M96.46,88.759c0.263,0.199,0.462,0.252,1.019,0.252c0.115,0,0.115,0,1.292-0.032c0.409-0.01,3.748-0.063,4.095-0.063
		c0.945,0,1.176,0.021,1.365,0.095c0.104,0.052,0.146,0.115,0.146,0.21c0,0.126-0.095,0.242-0.241,0.284
		c-0.283,0.094-0.535,0.105-2.521,0.126c-0.976,0.01-3.381,0.073-3.748,0.094c-0.493,0.032-0.588,0.042-0.756,0.137
		c-0.042,0.01-0.115,0.031-0.157,0.031c-0.158,0-0.326-0.115-0.504-0.346c-0.221-0.273-0.399-0.714-0.399-0.966
		c0-0.147,0.011-0.168,0.084-0.241C96.261,88.58,96.313,88.654,96.46,88.759z"/>
	<path fill="#00A73B" d="M7.146,105.317c-0.378,1.323-0.966,3.612-1.218,4.641c-0.21,0.924-0.273,1.26-0.273,1.785
		c-0.021,0.672-0.042,0.756-0.147,0.924c-0.105,0.147-0.231,0.231-0.399,0.231c-0.357,0-0.651-0.294-0.903-0.945
		c-0.42-1.071-0.672-2.667-0.672-4.221c0-1.932,0.231-3.696,0.945-6.993c0.273-1.302,0.315-1.533,0.315-1.89
		c0-0.63-0.168-1.134-0.609-1.848c0.483,0.021,0.882,0.294,1.47,1.05c0.483,0.609,0.756,1.197,0.756,1.596
		c0,0.231,0,0.231-0.336,0.924c-1.008,2.1-1.596,4.599-1.596,6.846c0,1.071,0.084,1.743,0.336,2.604l0.882-2.1l1.134-2.709
		L7.146,105.317z M9.247,101.517c1.008,0.651,1.659,0.861,2.709,0.861c0.735,0,1.533-0.105,2.394-0.294c0-0.399,0-0.735,0-0.924
		c0-2.352-0.021-2.625-0.294-2.919c-0.252-0.273-0.714-0.42-1.386-0.483c0.294-0.273,0.462-0.336,1.008-0.336
		c0.462,0,1.029,0.084,1.428,0.189c0.609,0.189,0.924,0.441,0.924,0.756c0,0.147,0,0.168-0.189,0.651
		c-0.231,0.609-0.357,1.365-0.441,2.814c0.966-0.273,1.575-0.546,1.932-0.861c0.21-0.21,0.273-0.231,0.462-0.231
		c0.252,0,0.735,0.126,0.987,0.273c0.168,0.084,0.273,0.231,0.273,0.378c0,0.462-1.533,1.092-3.717,1.512
		c0,2.793,0.063,3.948,0.273,5.712c2.436,0.651,3.465,1.47,3.465,2.688c0,0.441-0.189,0.777-0.42,0.777
		c-0.168,0-0.315-0.105-0.735-0.525c-0.924-0.945-1.449-1.323-2.268-1.68c0.021,0.189,0.021,0.357,0.021,0.504
		c0,1.512-1.26,2.415-3.36,2.415c-1.827,0-3.108-0.882-3.108-2.142c0-1.449,1.554-2.373,3.948-2.373
		c0.399,0,0.693,0.021,1.281,0.063c0-0.189,0-0.315,0-0.357l-0.042-2.247l-0.021-2.688c-0.63,0.126-1.239,0.168-1.848,0.168
		c-1.533,0-2.415-0.378-3.465-1.47L9.247,101.517z M12.459,109.182c-1.659,0-2.688,0.546-2.688,1.47
		c0,0.735,0.819,1.239,2.058,1.239c1.155,0,1.974-0.336,2.31-0.987c0.21-0.378,0.273-0.693,0.273-1.47
		C13.825,109.266,13.237,109.182,12.459,109.182z"/>
	<path d="M37.051,100.361c0-0.399,0-0.693-0.042-1.302c1.575,0.168,2.037,0.273,2.037,0.483c0,0.189-0.063,0.21-0.735,0.441v1.575
		h1.113c0.231-0.336,0.315-0.42,0.567-0.735c0.462,0.294,0.588,0.399,0.987,0.735c0.189,0.168,0.252,0.252,0.252,0.357
		s-0.147,0.252-0.504,0.441c0,0.504,0,0.714,0,1.113c0,0.336,0.021,1.764,0.042,4.683c0,0.021,0,0.063,0,0.084
		c0,0.21-0.273,0.294-1.113,0.294c-0.147,0-0.21-0.042-0.231-0.189v-0.63h-3.465v4.179c1.218-0.273,1.701-0.399,3.444-0.945
		c-0.483-0.777-0.735-1.155-1.323-1.89l0.231-0.189c0.84,0.504,1.344,0.882,2.121,1.575c0.714,0.672,0.945,0.987,0.945,1.407
		c0,0.336-0.147,0.966-0.294,1.218c-0.105,0.168-0.252,0.273-0.357,0.273c-0.147,0-0.21-0.084-0.315-0.378
		c-0.126-0.357-0.441-1.029-0.777-1.617c-1.365,0.777-3.045,1.512-5.544,2.373c-0.021,0.546-0.147,0.84-0.315,0.84
		c-0.084,0-0.168-0.084-0.252-0.252c-0.021-0.042-0.252-0.672-0.651-1.869c0.903-0.105,1.071-0.126,1.617-0.252l-0.021-9.555
		l0.021-1.218c-0.693,0.693-1.05,1.029-1.995,1.764l-0.21-0.231c1.134-1.26,2.079-2.562,2.898-4.074
		c0.441-0.777,0.903-1.722,1.197-2.457c0.147-0.315,0.189-0.462,0.294-0.966c1.596,0.357,2.184,0.567,2.184,0.777
		c0,0.168-0.294,0.294-0.861,0.357l-0.147,0.252c2.163,0.672,2.163,0.672,2.961,1.008c0.735,0.315,0.966,0.672,0.966,1.428
		c0,0.546-0.168,0.903-0.399,0.903c-0.189,0-0.252-0.063-0.63-0.525c-0.63-0.777-1.491-1.491-3.087-2.52
		c-1.218,2.016-1.722,2.688-2.793,3.864c0.42,0.189,0.588,0.273,1.092,0.567h1.092V100.361z M39.424,104.331v-2.289h-3.465v2.289
		H39.424z M35.958,104.792v2.436h3.465v-2.436H35.958z M49.588,98.556c0.42-0.588,0.567-0.777,1.008-1.344
		c0.735,0.63,0.945,0.819,1.617,1.512c0.042,0.063,0.063,0.126,0.063,0.168c0,0.084-0.105,0.147-0.231,0.147h-4.641v3.003h2.1
		c0.273-0.399,0.357-0.504,0.672-0.882c0.567,0.462,0.735,0.609,1.239,1.029c0.147,0.147,0.189,0.21,0.189,0.294
		s-0.189,0.231-0.63,0.441v4.389c0.021,1.26,0.021,2.394,0.021,3.381c0,0.063,0,0.147,0,0.168c0,0.546-0.147,0.882-0.546,1.197
		c-0.273,0.231-0.609,0.357-1.365,0.504c-0.042-0.861-0.315-1.155-1.344-1.386v-0.231c0.399,0.021,0.861,0.042,1.176,0.042
		c0.084,0,0.147,0,0.294,0c0.042,0,0.084,0,0.084,0c0.231,0,0.294-0.084,0.294-0.336v-8.127h-2.184v7.539
		c0,0.966,0,1.092,0.063,4.242c-0.042,0.147-0.084,0.168-0.252,0.189c-0.42,0.084-0.693,0.105-0.861,0.105
		c-0.231,0-0.336-0.063-0.336-0.189c0-0.021,0-0.042,0-0.063c0.084-2.247,0.105-4.011,0.105-6.552v-5.271h-1.995l-0.021,5.859v2.037
		c0,0.399,0,0.798,0.021,1.533c-0.021,0.189-0.063,0.252-0.252,0.294c-0.168,0.021-0.63,0.063-0.819,0.063
		c-0.231,0-0.357-0.084-0.357-0.21c0-0.042,0-0.084,0.021-0.147c0.063-1.911,0.063-2.415,0.084-5.397c0-0.966,0-1.995,0.021-3.066
		c0-0.168,0-0.252,0-0.294v-1.722c-0.714,1.218-0.903,1.47-1.617,2.331l-0.294-0.189c0.903-1.533,1.491-2.919,2.058-4.809
		c0.483-1.659,0.756-2.772,0.819-3.528c1.554,0.357,2.205,0.588,2.205,0.798s-0.273,0.315-0.84,0.357
		c-0.441,1.113-0.441,1.113-0.84,2.121H49.588z M44.106,99.039c-0.21,0.483-0.462,0.987-1.155,2.205
		c0.651,0.336,0.756,0.399,1.365,0.798h1.806v-3.003H44.106z"/>
	<path d="M82.81,98.114c-0.168,0.84-0.231,1.113-0.42,1.617c-0.651,1.806-1.806,2.961-3.738,3.759
		c-1.05,0.42-1.911,0.609-3.171,0.756l-0.084-0.315c2.604-0.714,3.885-1.491,4.893-2.961c0.672-0.945,0.945-1.722,1.05-2.856h-3.591
		c-0.168,1.764-0.945,3.192-1.764,3.192c-0.315,0-0.63-0.525-0.63-1.092c0-0.294,0.084-0.462,0.399-0.672
		c0.882-0.651,1.302-1.428,1.638-3.129h0.357c0.021,0.525,0.021,0.735,0.021,0.903c0,0.084,0,0.189,0,0.315h5.943v-1.134
		c0-0.42-0.021-0.693-0.084-1.26c1.827,0.273,1.827,0.273,2.016,0.315c0.294,0.042,0.483,0.147,0.483,0.294
		c0,0.021-0.063,0.105-0.105,0.147c-0.147,0.105-0.273,0.147-0.861,0.315v1.323h5.376c0.356-0.483,0.482-0.63,0.944-1.071
		c0.798,0.588,1.029,0.777,1.765,1.386c0.146,0.168,0.188,0.21,0.188,0.294c0,0.021-0.042,0.084-0.084,0.105
		c-0.084,0.042-0.272,0.084-0.482,0.105l-1.093,0.126c-0.378,0.336-0.378,0.336-1.028,1.029c-0.399,0.441-0.399,0.441-0.735,0.735
		l-0.273-0.105c0.336-0.735,0.357-0.798,0.799-2.121h-3.633v2.772c0,0.378,0.125,0.441,0.924,0.441c0.146,0,0.65,0,1.428,0.021
		c0.104,0,0.188,0,0.23,0c0.841,0,1.869-0.063,2.121-0.147c0.21-0.063,0.315-0.189,0.588-0.735c0-0.021,0.126-0.294,0.336-0.756
		c0.084-0.168,0.21-0.42,0.357-0.756l0.252,0.042l-0.146,1.596l-0.021,0.252c0,0.105,0,0.168,0,0.168
		c0,0.147,0.063,0.189,0.336,0.252c0.252,0.063,0.441,0.273,0.441,0.504c0,0.525-1.009,0.672-4.768,0.672
		c-1.827,0-2.583-0.042-2.919-0.147c-0.336-0.084-0.504-0.378-0.504-0.84v-3.339H82.81z M78.799,108.677
		c-0.063,1.407-0.315,2.457-0.882,3.465c-0.399,0.714-1.218,1.386-1.68,1.386c-0.315,0-0.693-0.672-0.693-1.218
		c0-0.294,0.105-0.378,0.735-0.651c0.231-0.105,1.029-0.798,1.365-1.218c0.378-0.441,0.567-0.882,0.819-1.764H78.799z
		 M87.22,102.944c1.806,0.819,2.688,1.323,3.717,2.121c0.357,0.273,0.462,0.399,0.525,0.693c0.063,0.21,0.084,0.336,0.084,0.462
		c0,0.147-0.105,0.588-0.168,0.777c-0.084,0.21-0.189,0.315-0.336,0.315c-0.126,0-0.252-0.105-0.441-0.336
		c-0.525-0.735-0.924-1.239-1.302-1.701c-1.113,0.21-1.995,0.336-3.927,0.588c-2.499,0.315-2.583,0.336-5.355,0.609
		c-1.281,0.126-1.281,0.126-1.869,0.189c-0.168,0.672-0.252,0.819-0.399,0.819c-0.231,0-0.399-0.546-0.756-2.289
		c0.714,0.042,0.987,0.063,1.554,0.063c0.021,0,0.819-0.021,2.415-0.042c0.735-1.218,1.218-2.415,1.617-3.927
		c1.575,0.294,2.289,0.504,2.289,0.714c0,0.168-0.231,0.252-1.008,0.399c-1.029,1.365-1.575,2.016-2.331,2.814
		c3.003-0.063,5.082-0.147,7.434-0.336c-0.189-0.189-0.819-0.777-1.911-1.764L87.22,102.944z M80.479,109.497
		c0-0.399-0.021-0.735-0.063-1.512c0.882,0.063,1.932,0.231,2.268,0.378c0.042,0.021,0.105,0.105,0.105,0.168
		c0,0.168-0.147,0.252-0.861,0.504v3.171c0,0.252,0.105,0.42,0.273,0.462c0.189,0.042,1.134,0.084,2.037,0.084l1.911-0.021h0.294
		c0.713,0,0.945-0.084,1.113-0.357c0.168-0.336,0.693-1.827,1.155-3.339l0.252,0.042l-0.105,2.688
		c-0.021,0.126-0.021,0.21-0.021,0.294c0,0.399,0.021,0.42,0.356,0.525c0.357,0.105,0.588,0.315,0.588,0.525
		c0,0.252-0.378,0.567-0.818,0.672c-0.504,0.105-2.268,0.168-4.536,0.168c-2.037,0-3.003-0.042-3.339-0.168
		c-0.441-0.168-0.609-0.462-0.609-1.008V109.497z M83.292,106.851c1.449,0.462,2.268,0.84,2.94,1.428
		c0.315,0.252,0.378,0.42,0.378,0.861c0,0.567-0.294,1.092-0.588,1.092c-0.168,0-0.168-0.021-0.525-0.588
		c-0.483-0.819-1.155-1.554-2.331-2.562L83.292,106.851z M89.971,108.278c1.092,0.63,1.953,1.26,2.793,2.058
		c0.672,0.63,0.882,0.966,0.882,1.365c0,0.399-0.23,0.987-0.482,1.281c-0.084,0.105-0.231,0.168-0.357,0.168
		c-0.21,0-0.231-0.042-0.483-0.609c-0.546-1.323-1.386-2.646-2.583-4.095L89.971,108.278z"/>
	<path fill="#00A73B" d="M115.78,112.625c2.268-0.672,3.717-1.533,4.914-2.919c1.239-1.407,1.869-3.129,1.869-5.061
		c0-2.037-0.819-3.654-2.373-4.641c-0.924-0.609-2.311-0.966-3.633-0.966c-0.252,0-0.399,0-0.735,0.042
		c0.504,0.735,0.651,1.134,0.651,1.743c0,1.638-1.177,4.704-2.772,7.266c-1.323,2.1-2.352,3.129-3.129,3.129
		c-0.357,0-0.693-0.168-0.924-0.441c-0.189-0.252-0.231-0.336-0.588-1.344c-0.189-0.546-0.315-0.798-0.925-1.974
		c-0.336-0.672-0.482-1.239-0.482-1.911c0-1.323,0.714-2.877,1.89-4.158c1.701-1.806,4.474-2.94,7.225-2.94
		c2.12,0,4.073,0.693,5.418,1.932c1.344,1.239,2.016,2.898,2.016,4.935c0,2.625-1.533,4.956-4.179,6.363
		c-1.219,0.651-2.311,0.987-4.096,1.302L115.78,112.625z M108.871,106.094c0,1.008,0.315,2.037,0.84,2.772
		c0.294,0.378,0.567,0.609,0.798,0.609c0.463,0,1.471-1.134,2.499-2.772c1.555-2.478,2.667-5.187,2.667-6.489
		c0-0.315-0.063-0.525-0.294-1.05C111.728,99.815,108.871,102.86,108.871,106.094z"/>
</g>
<g>
	<path d="M22.771,125.946c0.851,0.168,1.491,0.389,1.838,0.62c0.283,0.178,0.399,0.388,0.399,0.693c0,0.273-0.137,0.504-0.294,0.504
		c-0.105,0-0.168-0.042-0.326-0.241c-0.525-0.662-0.998-1.061-1.68-1.439L22.771,125.946z M30.897,125.694
		c-0.567,0.809-1.102,1.407-2.226,2.457c-0.872,0.819-2.016,1.627-3.644,2.593c-0.284,0.168-0.357,0.221-0.504,0.357
		c-0.084,0.074-0.158,0.105-0.242,0.105c-0.21,0-0.441-0.199-0.746-0.619c-0.199-0.305-0.325-0.62-0.325-0.84
		c0-0.105,0.021-0.168,0.084-0.252c0.231,0.452,0.483,0.662,0.798,0.662c0.284,0,1.061-0.357,2.058-0.956
		c1.627-0.956,3.423-2.373,4.599-3.623L30.897,125.694z M23.926,124.077c1.68,0.399,2.215,0.725,2.215,1.344
		c0,0.294-0.126,0.525-0.283,0.525c-0.116,0-0.116,0-0.567-0.557c-0.399-0.472-0.882-0.872-1.438-1.166L23.926,124.077z"/>
	<path d="M35.402,124.77c0.546,0,1.806-0.084,2.898-0.2c0.557-0.063,0.725-0.095,0.851-0.2c0.115-0.084,0.178-0.115,0.252-0.115
		c0.115,0,0.388,0.189,0.682,0.483c0.158,0.158,0.231,0.273,0.231,0.368c0,0.073-0.021,0.115-0.137,0.262
		c-0.084,0.116-0.115,0.231-0.273,1.271c-0.168,1.029-0.168,1.029-0.347,2.121c-0.063,0.347-0.105,0.599-0.126,0.767
		c0.389,0.252,0.515,0.388,0.515,0.588c0,0.095-0.084,0.158-0.231,0.158c-0.084,0-0.126,0-0.41-0.042
		c-0.136-0.021-0.546-0.032-0.956-0.032c-0.798,0-1.638,0.105-2.551,0.326c-0.273,0.063-0.357,0.094-0.536,0.168
		c-0.063,0.031-0.115,0.042-0.178,0.042c-0.231,0-0.441-0.147-0.672-0.473c-0.199-0.273-0.304-0.515-0.304-0.683
		c0-0.031,0.01-0.063,0.052-0.147c0.252,0.368,0.546,0.536,0.924,0.536c0.178,0,0.441-0.021,0.903-0.084
		c0.935-0.116,1.627-0.179,2.772-0.252c0.095-0.578,0.221-1.606,0.294-2.289c-1.344,0.074-2.971,0.294-3.633,0.504
		c-0.095,0.032-0.168,0.042-0.231,0.042c-0.126,0-0.273-0.073-0.389-0.189c-0.221-0.22-0.41-0.609-0.41-0.83
		c0-0.063,0.011-0.094,0.042-0.178c0.326,0.409,0.504,0.514,0.914,0.514c0.095,0,0.095,0,2.3-0.21
		c0.262-0.031,0.598-0.042,1.459-0.084c0.115-1.071,0.147-1.396,0.157-1.953c-0.725,0-1.428,0.073-2.877,0.273
		c-0.483,0.063-0.609,0.084-1.008,0.178c-0.105,0.032-0.179,0.042-0.231,0.042c-0.116,0-0.242-0.063-0.347-0.168
		c-0.263-0.283-0.462-0.662-0.462-0.903c0-0.063,0.01-0.116,0.063-0.21C34.636,124.602,34.919,124.77,35.402,124.77z"/>
	<path d="M43.96,126.859c0.262,0.199,0.462,0.252,1.018,0.252c0.116,0,0.116,0,1.292-0.032c0.41-0.01,3.749-0.063,4.095-0.063
		c0.945,0,1.176,0.021,1.365,0.095c0.105,0.052,0.147,0.115,0.147,0.21c0,0.126-0.095,0.242-0.242,0.284
		c-0.284,0.094-0.536,0.105-2.52,0.126c-0.977,0.01-3.381,0.073-3.749,0.094c-0.494,0.032-0.588,0.042-0.756,0.137
		c-0.042,0.01-0.116,0.031-0.158,0.031c-0.157,0-0.325-0.115-0.504-0.346c-0.221-0.273-0.399-0.714-0.399-0.966
		c0-0.147,0.01-0.168,0.084-0.241C43.76,126.681,43.813,126.754,43.96,126.859z"/>
	<path d="M56.728,131.668c0.83-0.588,1.386-1.113,1.953-1.848c0.609-0.798,1.04-1.585,1.459-2.688
		c0.273-0.714,0.389-1.197,0.452-1.795c-0.168-0.011-0.21-0.011-0.336-0.011c-0.945,0-2.415,0.189-3.654,0.462
		c-0.084,0.021-0.147,0.032-0.189,0.032c-0.126,0-0.262-0.053-0.535-0.189c0.042,0.115,0.042,0.126,0.052,0.473
		c0.011,0.745,0.021,1.459,0.021,1.512c0,0.389-0.073,0.567-0.242,0.567c-0.231,0-0.598-0.546-0.598-0.882
		c0-0.074,0.01-0.116,0.073-0.242c0.063-0.157,0.095-0.399,0.095-0.766c0-0.809-0.179-1.145-0.767-1.48
		c0.084-0.042,0.126-0.053,0.21-0.053c0.294,0,0.452,0.084,1.103,0.599c0.263,0,0.305-0.011,1.04-0.116
		c0.42-0.063,0.557-0.073,0.893-0.115c0.01-0.168,0.01-0.242,0.01-0.473c0-0.651-0.031-0.935-0.136-1.113
		c-0.095-0.179-0.179-0.231-0.567-0.378c0.084-0.073,0.157-0.105,0.262-0.105c0.609,0,1.386,0.326,1.386,0.588
		c0,0.063-0.021,0.105-0.095,0.241c-0.147,0.252-0.21,0.588-0.231,1.166c1.816-0.157,1.995-0.178,2.152-0.262
		c0.084-0.042,0.137-0.063,0.189-0.063c0.105,0,0.273,0.095,0.515,0.284c0.305,0.252,0.41,0.389,0.41,0.536
		c0,0.105-0.011,0.126-0.126,0.252c-0.095,0.094-0.158,0.241-0.305,0.63c-0.378,1.008-0.63,1.575-1.008,2.194
		c-0.704,1.166-1.344,1.89-2.279,2.541c-0.462,0.326-0.724,0.483-1.113,0.651L56.728,131.668z"/>
	<path d="M64.466,128.938c1.313-0.704,2.719-1.764,3.948-2.982c1.04-1.018,1.711-1.869,1.711-2.173c0-0.199-0.168-0.368-0.588-0.599
		c0.116-0.042,0.137-0.042,0.21-0.042c0.305,0,0.567,0.095,0.903,0.315c0.357,0.241,0.546,0.483,0.546,0.682
		c0,0.095-0.011,0.116-0.42,0.462c-0.105,0.084-0.105,0.084-0.851,0.798c-0.735,0.704-0.798,0.756-1.25,1.134
		c0.41,0.305,0.588,0.462,0.641,0.588c0.042,0.105,0.063,0.599,0.073,1.543c0.011,0.735,0.032,1.407,0.053,2.006
		c0,0.231,0.01,0.535,0.01,0.598c0,0.368-0.073,0.525-0.241,0.525c-0.242,0-0.714-0.578-0.714-0.882c0-0.073,0-0.073,0.063-0.273
		c0.095-0.262,0.189-1.564,0.189-2.583c0-0.514-0.021-0.83-0.063-0.998c-0.031-0.105-0.073-0.157-0.231-0.325
		c-0.735,0.588-1.491,1.124-2.016,1.438c-0.588,0.346-1.344,0.714-1.89,0.914L64.466,128.938z"/>
	<path d="M75.838,124.402c1.008,0.252,1.617,0.494,2.026,0.788c0.242,0.168,0.357,0.399,0.357,0.714
		c0,0.347-0.115,0.588-0.294,0.588c-0.116,0-0.168-0.052-0.452-0.42c-0.514-0.683-0.893-1.029-1.711-1.543L75.838,124.402z
		 M83.303,125.001c-0.525,0.987-1.166,1.816-2.205,2.824c-0.966,0.935-1.617,1.459-2.95,2.394c-0.494,0.347-0.546,0.389-0.62,0.483
		c-0.168,0.2-0.231,0.252-0.368,0.252c-0.43,0-1.229-1.008-1.229-1.543c0-0.063,0.011-0.105,0.053-0.21
		c0.21,0.315,0.231,0.336,0.378,0.462c0.157,0.147,0.304,0.221,0.42,0.221c0.179,0,0.504-0.137,1.019-0.441
		c1.176-0.683,1.585-0.977,2.509-1.732c1.292-1.05,1.922-1.691,2.825-2.804L83.303,125.001z"/>
	<path d="M89.058,129.022c0,0.598,0,1.827,0.01,2.1c0,0.095,0,0.158,0,0.189c0,0.315-0.073,0.452-0.23,0.452
		c-0.115,0-0.231-0.094-0.378-0.283c-0.158-0.242-0.273-0.515-0.273-0.683c0-0.095,0.011-0.158,0.084-0.389
		c0.115-0.389,0.179-1.701,0.179-3.612c0-2.163-0.031-2.73-0.168-2.993c-0.126-0.231-0.305-0.378-0.672-0.536
		c0.104-0.063,0.168-0.084,0.272-0.084c0.242,0,0.641,0.137,1.019,0.357c0.294,0.168,0.399,0.283,0.399,0.441
		c0,0.063-0.011,0.084-0.063,0.189c-0.136,0.283-0.178,0.714-0.178,2.289c1.145,0.136,2.162,0.409,2.677,0.714
		c0.315,0.178,0.431,0.368,0.431,0.693c0,0.263-0.095,0.462-0.23,0.462c-0.084,0-0.147-0.031-0.41-0.262
		c-0.776-0.651-1.522-1.061-2.467-1.344v0.242V129.022z M91.042,123.51c1.344,0.567,1.806,0.935,1.806,1.417
		c0,0.294-0.126,0.546-0.283,0.546c-0.116,0-0.126-0.01-0.389-0.451c-0.283-0.504-0.661-0.924-1.229-1.386L91.042,123.51z
		 M91.997,122.764c0.746,0.263,1.103,0.431,1.449,0.693c0.241,0.178,0.336,0.346,0.336,0.588c0,0.273-0.105,0.493-0.241,0.493
		c-0.126,0-0.147-0.031-0.389-0.388c-0.315-0.483-0.704-0.861-1.239-1.26L91.997,122.764z"/>
	<path d="M96.46,126.859c0.263,0.199,0.462,0.252,1.019,0.252c0.115,0,0.115,0,1.292-0.032c0.409-0.01,3.748-0.063,4.095-0.063
		c0.945,0,1.176,0.021,1.365,0.095c0.104,0.052,0.146,0.115,0.146,0.21c0,0.126-0.095,0.242-0.241,0.284
		c-0.283,0.094-0.535,0.105-2.521,0.126c-0.976,0.01-3.381,0.073-3.748,0.094c-0.493,0.032-0.588,0.042-0.756,0.137
		c-0.042,0.01-0.115,0.031-0.157,0.031c-0.158,0-0.326-0.115-0.504-0.346c-0.221-0.273-0.399-0.714-0.399-0.966
		c0-0.147,0.011-0.168,0.084-0.241C96.261,126.681,96.313,126.754,96.46,126.859z"/>
	<path d="M7.146,143.418c-0.378,1.323-0.966,3.612-1.218,4.641c-0.21,0.924-0.273,1.26-0.273,1.785
		c-0.021,0.672-0.042,0.756-0.147,0.924c-0.105,0.147-0.231,0.231-0.399,0.231c-0.357,0-0.651-0.294-0.903-0.945
		c-0.42-1.071-0.672-2.667-0.672-4.221c0-1.932,0.231-3.696,0.945-6.993c0.273-1.302,0.315-1.533,0.315-1.89
		c0-0.63-0.168-1.134-0.609-1.848c0.483,0.021,0.882,0.294,1.47,1.05c0.483,0.609,0.756,1.197,0.756,1.596
		c0,0.231,0,0.231-0.336,0.924c-1.008,2.1-1.596,4.599-1.596,6.846c0,1.071,0.084,1.743,0.336,2.604l0.882-2.1l1.134-2.709
		L7.146,143.418z M9.247,139.617c1.008,0.651,1.659,0.861,2.709,0.861c0.735,0,1.533-0.105,2.394-0.294c0-0.399,0-0.735,0-0.924
		c0-2.352-0.021-2.625-0.294-2.919c-0.252-0.273-0.714-0.42-1.386-0.483c0.294-0.273,0.462-0.336,1.008-0.336
		c0.462,0,1.029,0.084,1.428,0.189c0.609,0.189,0.924,0.441,0.924,0.756c0,0.147,0,0.168-0.189,0.651
		c-0.231,0.609-0.357,1.365-0.441,2.814c0.966-0.273,1.575-0.546,1.932-0.861c0.21-0.21,0.273-0.231,0.462-0.231
		c0.252,0,0.735,0.126,0.987,0.273c0.168,0.084,0.273,0.231,0.273,0.378c0,0.462-1.533,1.092-3.717,1.512
		c0,2.793,0.063,3.948,0.273,5.712c2.436,0.651,3.465,1.47,3.465,2.688c0,0.441-0.189,0.777-0.42,0.777
		c-0.168,0-0.315-0.105-0.735-0.525c-0.924-0.945-1.449-1.323-2.268-1.68c0.021,0.189,0.021,0.357,0.021,0.504
		c0,1.512-1.26,2.415-3.36,2.415c-1.827,0-3.108-0.882-3.108-2.142c0-1.449,1.554-2.373,3.948-2.373
		c0.399,0,0.693,0.021,1.281,0.063c0-0.189,0-0.315,0-0.357l-0.042-2.247l-0.021-2.688c-0.63,0.126-1.239,0.168-1.848,0.168
		c-1.533,0-2.415-0.378-3.465-1.47L9.247,139.617z M12.459,147.282c-1.659,0-2.688,0.546-2.688,1.47
		c0,0.735,0.819,1.239,2.058,1.239c1.155,0,1.974-0.336,2.31-0.987c0.21-0.378,0.273-0.693,0.273-1.47
		C13.825,147.366,13.237,147.282,12.459,147.282z"/>
	<path d="M37.051,138.462c0-0.399,0-0.693-0.042-1.302c1.575,0.168,2.037,0.273,2.037,0.483c0,0.189-0.063,0.21-0.735,0.441v1.575
		h1.113c0.231-0.336,0.315-0.42,0.567-0.735c0.462,0.294,0.588,0.399,0.987,0.735c0.189,0.168,0.252,0.252,0.252,0.357
		s-0.147,0.252-0.504,0.441c0,0.504,0,0.714,0,1.113c0,0.336,0.021,1.764,0.042,4.683c0,0.021,0,0.063,0,0.084
		c0,0.21-0.273,0.294-1.113,0.294c-0.147,0-0.21-0.042-0.231-0.189v-0.63h-3.465v4.179c1.218-0.273,1.701-0.399,3.444-0.945
		c-0.483-0.777-0.735-1.155-1.323-1.89l0.231-0.189c0.84,0.504,1.344,0.882,2.121,1.575c0.714,0.672,0.945,0.987,0.945,1.407
		c0,0.336-0.147,0.966-0.294,1.218c-0.105,0.168-0.252,0.273-0.357,0.273c-0.147,0-0.21-0.084-0.315-0.378
		c-0.126-0.357-0.441-1.029-0.777-1.617c-1.365,0.777-3.045,1.512-5.544,2.373c-0.021,0.546-0.147,0.84-0.315,0.84
		c-0.084,0-0.168-0.084-0.252-0.252c-0.021-0.042-0.252-0.672-0.651-1.869c0.903-0.105,1.071-0.126,1.617-0.252l-0.021-9.555
		l0.021-1.218c-0.693,0.693-1.05,1.029-1.995,1.764l-0.21-0.231c1.134-1.26,2.079-2.562,2.898-4.074
		c0.441-0.777,0.903-1.722,1.197-2.457c0.147-0.315,0.189-0.462,0.294-0.966c1.596,0.357,2.184,0.567,2.184,0.777
		c0,0.168-0.294,0.294-0.861,0.357l-0.147,0.252c2.163,0.672,2.163,0.672,2.961,1.008c0.735,0.315,0.966,0.672,0.966,1.428
		c0,0.546-0.168,0.903-0.399,0.903c-0.189,0-0.252-0.063-0.63-0.525c-0.63-0.777-1.491-1.491-3.087-2.52
		c-1.218,2.016-1.722,2.688-2.793,3.864c0.42,0.189,0.588,0.273,1.092,0.567h1.092V138.462z M39.424,142.431v-2.289h-3.465v2.289
		H39.424z M35.958,142.893v2.436h3.465v-2.436H35.958z M49.588,136.656c0.42-0.588,0.567-0.777,1.008-1.344
		c0.735,0.63,0.945,0.819,1.617,1.512c0.042,0.063,0.063,0.126,0.063,0.168c0,0.084-0.105,0.147-0.231,0.147h-4.641v3.003h2.1
		c0.273-0.399,0.357-0.504,0.672-0.882c0.567,0.462,0.735,0.609,1.239,1.029c0.147,0.147,0.189,0.21,0.189,0.294
		s-0.189,0.231-0.63,0.441v4.389c0.021,1.26,0.021,2.394,0.021,3.381c0,0.063,0,0.147,0,0.168c0,0.546-0.147,0.882-0.546,1.197
		c-0.273,0.231-0.609,0.357-1.365,0.504c-0.042-0.861-0.315-1.155-1.344-1.386v-0.231c0.399,0.021,0.861,0.042,1.176,0.042
		c0.084,0,0.147,0,0.294,0c0.042,0,0.084,0,0.084,0c0.231,0,0.294-0.084,0.294-0.336v-8.127h-2.184v7.539
		c0,0.966,0,1.092,0.063,4.242c-0.042,0.147-0.084,0.168-0.252,0.189c-0.42,0.084-0.693,0.105-0.861,0.105
		c-0.231,0-0.336-0.063-0.336-0.189c0-0.021,0-0.042,0-0.063c0.084-2.247,0.105-4.011,0.105-6.552v-5.271h-1.995l-0.021,5.859v2.037
		c0,0.399,0,0.798,0.021,1.533c-0.021,0.189-0.063,0.252-0.252,0.294c-0.168,0.021-0.63,0.063-0.819,0.063
		c-0.231,0-0.357-0.084-0.357-0.21c0-0.042,0-0.084,0.021-0.147c0.063-1.911,0.063-2.415,0.084-5.397c0-0.966,0-1.995,0.021-3.066
		c0-0.168,0-0.252,0-0.294v-1.722c-0.714,1.218-0.903,1.47-1.617,2.331l-0.294-0.189c0.903-1.533,1.491-2.919,2.058-4.809
		c0.483-1.659,0.756-2.772,0.819-3.528c1.554,0.357,2.205,0.588,2.205,0.798s-0.273,0.315-0.84,0.357
		c-0.441,1.113-0.441,1.113-0.84,2.121H49.588z M44.106,137.139c-0.21,0.483-0.462,0.987-1.155,2.205
		c0.651,0.336,0.756,0.399,1.365,0.798h1.806v-3.003H44.106z"/>
	<path d="M82.81,136.215c-0.168,0.84-0.231,1.113-0.42,1.617c-0.651,1.806-1.806,2.961-3.738,3.759
		c-1.05,0.42-1.911,0.609-3.171,0.756l-0.084-0.315c2.604-0.714,3.885-1.491,4.893-2.961c0.672-0.945,0.945-1.722,1.05-2.856h-3.591
		c-0.168,1.764-0.945,3.192-1.764,3.192c-0.315,0-0.63-0.525-0.63-1.092c0-0.294,0.084-0.462,0.399-0.672
		c0.882-0.651,1.302-1.428,1.638-3.129h0.357c0.021,0.525,0.021,0.735,0.021,0.903c0,0.084,0,0.189,0,0.315h5.943v-1.134
		c0-0.42-0.021-0.693-0.084-1.26c1.827,0.273,1.827,0.273,2.016,0.315c0.294,0.042,0.483,0.147,0.483,0.294
		c0,0.021-0.063,0.105-0.105,0.147c-0.147,0.105-0.273,0.147-0.861,0.315v1.323h5.376c0.356-0.483,0.482-0.63,0.944-1.071
		c0.798,0.588,1.029,0.777,1.765,1.386c0.146,0.168,0.188,0.21,0.188,0.294c0,0.021-0.042,0.084-0.084,0.105
		c-0.084,0.042-0.272,0.084-0.482,0.105l-1.093,0.126c-0.378,0.336-0.378,0.336-1.028,1.029c-0.399,0.441-0.399,0.441-0.735,0.735
		l-0.273-0.105c0.336-0.735,0.357-0.798,0.799-2.121h-3.633v2.772c0,0.378,0.125,0.441,0.924,0.441c0.146,0,0.65,0,1.428,0.021
		c0.104,0,0.188,0,0.23,0c0.841,0,1.869-0.063,2.121-0.147c0.21-0.063,0.315-0.189,0.588-0.735c0-0.021,0.126-0.294,0.336-0.756
		c0.084-0.168,0.21-0.42,0.357-0.756l0.252,0.042l-0.146,1.596l-0.021,0.252c0,0.105,0,0.168,0,0.168
		c0,0.147,0.063,0.189,0.336,0.252c0.252,0.063,0.441,0.273,0.441,0.504c0,0.525-1.009,0.672-4.768,0.672
		c-1.827,0-2.583-0.042-2.919-0.147c-0.336-0.084-0.504-0.378-0.504-0.84v-3.339H82.81z M78.799,146.778
		c-0.063,1.407-0.315,2.457-0.882,3.465c-0.399,0.714-1.218,1.386-1.68,1.386c-0.315,0-0.693-0.672-0.693-1.218
		c0-0.294,0.105-0.378,0.735-0.651c0.231-0.105,1.029-0.798,1.365-1.218c0.378-0.441,0.567-0.882,0.819-1.764H78.799z
		 M87.22,141.045c1.806,0.819,2.688,1.323,3.717,2.121c0.357,0.273,0.462,0.399,0.525,0.693c0.063,0.21,0.084,0.336,0.084,0.462
		c0,0.147-0.105,0.588-0.168,0.777c-0.084,0.21-0.189,0.315-0.336,0.315c-0.126,0-0.252-0.105-0.441-0.336
		c-0.525-0.735-0.924-1.239-1.302-1.701c-1.113,0.21-1.995,0.336-3.927,0.588c-2.499,0.315-2.583,0.336-5.355,0.609
		c-1.281,0.126-1.281,0.126-1.869,0.189c-0.168,0.672-0.252,0.819-0.399,0.819c-0.231,0-0.399-0.546-0.756-2.289
		c0.714,0.042,0.987,0.063,1.554,0.063c0.021,0,0.819-0.021,2.415-0.042c0.735-1.218,1.218-2.415,1.617-3.927
		c1.575,0.294,2.289,0.504,2.289,0.714c0,0.168-0.231,0.252-1.008,0.399c-1.029,1.365-1.575,2.016-2.331,2.814
		c3.003-0.063,5.082-0.147,7.434-0.336c-0.189-0.189-0.819-0.777-1.911-1.764L87.22,141.045z M80.479,147.597
		c0-0.399-0.021-0.735-0.063-1.512c0.882,0.063,1.932,0.231,2.268,0.378c0.042,0.021,0.105,0.105,0.105,0.168
		c0,0.168-0.147,0.252-0.861,0.504v3.171c0,0.252,0.105,0.42,0.273,0.462c0.189,0.042,1.134,0.084,2.037,0.084l1.911-0.021h0.294
		c0.713,0,0.945-0.084,1.113-0.357c0.168-0.336,0.693-1.827,1.155-3.339l0.252,0.042l-0.105,2.688
		c-0.021,0.126-0.021,0.21-0.021,0.294c0,0.399,0.021,0.42,0.356,0.525c0.357,0.105,0.588,0.315,0.588,0.525
		c0,0.252-0.378,0.567-0.818,0.672c-0.504,0.105-2.268,0.168-4.536,0.168c-2.037,0-3.003-0.042-3.339-0.168
		c-0.441-0.168-0.609-0.462-0.609-1.008V147.597z M83.292,144.951c1.449,0.462,2.268,0.84,2.94,1.428
		c0.315,0.252,0.378,0.42,0.378,0.861c0,0.567-0.294,1.092-0.588,1.092c-0.168,0-0.168-0.021-0.525-0.588
		c-0.483-0.819-1.155-1.554-2.331-2.562L83.292,144.951z M89.971,146.379c1.092,0.63,1.953,1.26,2.793,2.058
		c0.672,0.63,0.882,0.966,0.882,1.365c0,0.399-0.23,0.987-0.482,1.281c-0.084,0.105-0.231,0.168-0.357,0.168
		c-0.21,0-0.231-0.042-0.483-0.609c-0.546-1.323-1.386-2.646-2.583-4.095L89.971,146.379z"/>
	<path d="M115.78,150.726c2.268-0.672,3.717-1.533,4.914-2.919c1.239-1.407,1.869-3.129,1.869-5.061
		c0-2.037-0.819-3.654-2.373-4.641c-0.924-0.609-2.311-0.966-3.633-0.966c-0.252,0-0.399,0-0.735,0.042
		c0.504,0.735,0.651,1.134,0.651,1.743c0,1.638-1.177,4.704-2.772,7.266c-1.323,2.1-2.352,3.129-3.129,3.129
		c-0.357,0-0.693-0.168-0.924-0.441c-0.189-0.252-0.231-0.336-0.588-1.344c-0.189-0.546-0.315-0.798-0.925-1.974
		c-0.336-0.672-0.482-1.239-0.482-1.911c0-1.323,0.714-2.877,1.89-4.158c1.701-1.806,4.474-2.94,7.225-2.94
		c2.12,0,4.073,0.693,5.418,1.932c1.344,1.239,2.016,2.898,2.016,4.935c0,2.625-1.533,4.956-4.179,6.363
		c-1.219,0.651-2.311,0.987-4.096,1.302L115.78,150.726z M108.871,144.195c0,1.008,0.315,2.037,0.84,2.772
		c0.294,0.378,0.567,0.609,0.798,0.609c0.463,0,1.471-1.134,2.499-2.772c1.555-2.478,2.667-5.187,2.667-6.489
		c0-0.315-0.063-0.525-0.294-1.05C111.728,137.916,108.871,140.961,108.871,144.195z"/>
</g>
<rect x="0.25" y="94.375" fill="none" stroke="#008CD6" stroke-width="0.5" width="21" height="21"/>
<rect x="31.75" y="94.375" fill="none" stroke="#008CD6" stroke-width="0.5" width="21" height="21"/>
<rect x="73.75" y="94.375" fill="none" stroke="#008CD6" stroke-width="0.5" width="21" height="21"/>
<rect x="105.251" y="94.375" fill="none" stroke="#008CD6" stroke-width="0.5" width="21" height="21"/>
</svg>
