<?xml version="1.0" encoding="utf-8"?>
<!-- Generator: Adobe Illustrator 12.0.0, SVG Export Plug-In . SVG Version: 6.00 Build 51448)  -->
<!DOCTYPE svg PUBLIC "-//W3C//DTD SVG 1.1//EN" "http://www.w3.org/Graphics/SVG/1.1/DTD/svg11.dtd" [
	<!ENTITY ns_svg "http://www.w3.org/2000/svg">
	<!ENTITY ns_xlink "http://www.w3.org/1999/xlink">
]>
<svg  version="1.1" id="レイヤー_1" xmlns="&ns_svg;" xmlns:xlink="&ns_xlink;" width="126.502" height="70.116"
	 viewBox="0 0 126.502 70.116" overflow="visible" enable-background="new 0 0 126.502 70.116" xml:space="preserve">
<g>
	<path d="M10.068,10.066c0.819-0.651,1.134-1.029,1.544-1.869c-0.483-0.147-0.861-0.399-1.218-0.809
		C9.932,6.832,9.68,6.003,9.68,5.016c0-0.073,0-0.199,0.01-0.388C8.85,5.562,8.314,6.706,8.314,7.546c0,0.073,0,0.136,0,0.189
		c0.011,0.073,0.011,0.136,0.011,0.168c0,0.168-0.116,0.294-0.263,0.294c-0.357,0-0.619-0.882-0.619-2.121
		c0-0.535,0.031-1.008,0.126-1.764c0.052-0.483,0.063-0.63,0.063-0.83c0-0.347-0.147-0.693-0.399-0.956
		c0.221,0,0.347,0.063,0.609,0.273c0.336,0.294,0.567,0.641,0.567,0.872c0,0.105-0.011,0.147-0.126,0.388
		C8.052,4.564,7.884,5.415,7.884,6.108c0,0.189,0.01,0.304,0.052,0.556c0.62-1.229,0.977-1.743,1.774-2.509
		c0.137-1.071,0.347-1.669,0.746-2.163c0.231-0.294,0.546-0.452,0.882-0.452c0.294,0,0.63,0.147,0.84,0.368
		c0.241,0.252,0.357,0.462,0.525,0.945c0.063,0,0.126,0,0.147,0c0.588,0,1.145,0.179,1.638,0.525c0.672,0.462,1.04,1.208,1.04,2.058
		c0,1.628-1.313,2.888-3.014,2.888c-0.074,0-0.168,0-0.326-0.01c-0.64,0.976-1.166,1.47-2.026,1.879L10.068,10.066z M10.005,4.271
		c-0.01,0.252-0.021,0.399-0.021,0.514c0,0.977,0.305,1.848,0.819,2.321c0.315,0.294,0.588,0.451,1.019,0.577
		c0.283-0.914,0.42-1.932,0.42-3.15c0-0.599-0.021-0.935-0.105-1.365C11.244,3.357,10.656,3.661,10.005,4.271z M12.095,2.916
		c-0.189-0.798-0.441-1.134-0.851-1.134c-0.588,0-1.019,0.735-1.208,2.089C10.708,3.357,11.307,3.073,12.095,2.916z M12.966,4.869
		c0,1.134-0.168,2.037-0.525,2.898c1.386,0,2.373-1.04,2.373-2.488c0-0.83-0.315-1.501-0.882-1.869
		c-0.347-0.22-0.651-0.315-1.166-0.325C12.914,3.819,12.966,4.271,12.966,4.869z"/>
	<path d="M31.1,10.213c0.746-0.462,1.208-0.872,1.669-1.47c0.735-0.977,1.103-2.163,1.103-3.539c0-0.913-0.157-1.774-0.389-2.163
		c-0.189-0.305-0.441-0.462-0.745-0.462c-0.525,0-1.008,0.452-1.386,1.313c-0.304,0.683-0.494,1.543-0.494,2.258
		c0,0.178,0.011,0.294,0.042,0.651c0.011,0.063,0.011,0.147,0.011,0.221c0,0.199-0.095,0.315-0.273,0.315
		c-0.399,0-0.662-0.851-0.662-2.153c0-0.871,0.063-1.417,0.336-2.814c0.084-0.42,0.116-0.619,0.116-0.766
		c0-0.336-0.147-0.536-0.567-0.746c0.084-0.032,0.147-0.053,0.189-0.053c0.22,0,0.556,0.137,0.84,0.347
		c0.294,0.21,0.41,0.378,0.41,0.588c0,0.137-0.021,0.2-0.147,0.399c-0.399,0.662-0.756,2.153-0.756,3.129c0,0.095,0,0.2,0.011,0.389
		h0.021c0.315-1.344,0.704-2.215,1.218-2.751c0.389-0.42,0.809-0.62,1.281-0.62c1.008,0,1.722,1.239,1.722,2.993
		c0,1.365-0.378,2.499-1.145,3.434c-0.619,0.766-1.323,1.26-2.32,1.659L31.1,10.213z"/>
	<path d="M73.761,9.898c0.767-0.62,1.113-0.966,1.491-1.491s0.63-1.019,0.935-1.816c-0.914-0.483-1.816-0.714-3.013-0.767
		c-0.641,1.166-0.914,1.606-1.271,2.079c-0.389,0.483-0.714,0.725-1.008,0.725c-0.441,0-0.809-0.504-0.809-1.113
		c0-0.535,0.263-1.071,0.714-1.449c0.462-0.389,1.155-0.63,1.995-0.693c0.147-0.252,0.168-0.325,0.746-1.648
		c0.336-0.798,0.378-0.914,0.546-1.48c-0.252,0.063-0.976,0.294-1.512,0.483C72.407,2.779,72.323,2.8,72.228,2.8
		c-0.325,0-0.662-0.515-0.662-1.019c0-0.105,0.021-0.157,0.116-0.242c0.21,0.483,0.399,0.641,0.788,0.641
		c0.273,0,0.598-0.052,1.113-0.178c0.273-0.074,0.315-0.095,0.462-0.221c0.063-0.073,0.126-0.094,0.221-0.094
		c0.231,0,0.756,0.556,0.756,0.819c0,0.084-0.042,0.157-0.157,0.241c-0.242,0.2-0.336,0.347-1.061,1.785
		C73.52,5.1,73.478,5.184,73.373,5.383c1.061,0.052,1.974,0.231,3.014,0.599c0.178-0.546,0.346-1.354,0.346-1.69
		c0-0.284-0.147-0.473-0.546-0.725c0.074-0.053,0.116-0.063,0.189-0.063c0.179,0,0.42,0.084,0.735,0.241
		c0.336,0.168,0.493,0.336,0.493,0.525c0,0.105-0.01,0.157-0.094,0.367c-0.032,0.074-0.095,0.294-0.252,0.788
		c-0.053,0.189-0.095,0.315-0.242,0.798c1.26,0.63,1.596,0.935,1.596,1.491c0,0.21-0.105,0.378-0.242,0.378
		c-0.095,0-0.168-0.053-0.357-0.221c-0.336-0.336-0.683-0.609-1.25-0.987c-0.462,1.008-0.788,1.512-1.344,2.047
		c-0.472,0.452-0.903,0.756-1.575,1.082L73.761,9.898z M70.538,7.263c0,0.389,0.221,0.756,0.452,0.756
		c0.346,0,0.788-0.609,1.596-2.205C71.241,5.961,70.538,6.454,70.538,7.263z"/>
	<path d="M109.094,5.667c-0.189,0.661-0.483,1.806-0.609,2.32c-0.105,0.462-0.137,0.63-0.137,0.893
		c-0.011,0.336-0.021,0.378-0.074,0.462c-0.052,0.073-0.115,0.115-0.199,0.115c-0.179,0-0.326-0.147-0.452-0.472
		c-0.21-0.536-0.336-1.333-0.336-2.111c0-0.966,0.116-1.848,0.473-3.496c0.136-0.651,0.157-0.767,0.157-0.945
		c0-0.315-0.084-0.567-0.304-0.924c0.241,0.011,0.441,0.147,0.735,0.525c0.242,0.305,0.378,0.599,0.378,0.798
		c0,0.115,0,0.115-0.168,0.462c-0.504,1.05-0.798,2.299-0.798,3.423c0,0.536,0.042,0.872,0.168,1.302l0.441-1.05l0.567-1.354
		L109.094,5.667z M110.144,3.766c0.504,0.326,0.83,0.431,1.354,0.431c0.368,0,0.767-0.053,1.197-0.147c0-0.2,0-0.368,0-0.462
		c0-1.176-0.011-1.313-0.147-1.459c-0.126-0.137-0.357-0.21-0.693-0.242c0.147-0.136,0.231-0.168,0.504-0.168
		c0.231,0,0.515,0.042,0.714,0.095c0.304,0.094,0.462,0.22,0.462,0.378c0,0.073,0,0.084-0.095,0.325
		c-0.115,0.305-0.178,0.683-0.22,1.407c0.483-0.137,0.788-0.273,0.966-0.431c0.105-0.105,0.137-0.115,0.231-0.115
		c0.126,0,0.368,0.063,0.494,0.136c0.084,0.042,0.136,0.116,0.136,0.189c0,0.231-0.766,0.546-1.858,0.756
		c0,1.396,0.032,1.974,0.137,2.856c1.218,0.325,1.732,0.735,1.732,1.344c0,0.221-0.095,0.389-0.21,0.389
		c-0.084,0-0.158-0.053-0.368-0.263c-0.462-0.472-0.725-0.662-1.134-0.84c0.01,0.094,0.01,0.178,0.01,0.252
		c0,0.756-0.63,1.208-1.68,1.208c-0.914,0-1.554-0.441-1.554-1.071c0-0.725,0.777-1.187,1.974-1.187c0.199,0,0.346,0.01,0.641,0.031
		c0-0.094,0-0.157,0-0.178l-0.021-1.124l-0.011-1.344c-0.315,0.063-0.62,0.084-0.924,0.084c-0.767,0-1.208-0.189-1.732-0.735
		L110.144,3.766z M111.75,7.599c-0.83,0-1.344,0.273-1.344,0.735c0,0.367,0.409,0.619,1.029,0.619c0.578,0,0.987-0.168,1.155-0.493
		c0.105-0.189,0.136-0.347,0.136-0.735C112.433,7.641,112.139,7.599,111.75,7.599z"/>
	<path d="M117.588,2.926c0.504,0.473,0.798,0.609,1.323,0.609c0.273,0,0.557-0.042,0.956-0.126c0.263-0.683,0.378-1.124,0.378-1.491
		c0-0.347-0.168-0.557-0.672-0.809c0.115-0.063,0.168-0.074,0.252-0.074c0.21,0,0.535,0.095,0.84,0.242
		c0.357,0.178,0.493,0.294,0.493,0.441c0,0.084-0.021,0.147-0.104,0.273c-0.042,0.084-0.263,0.515-0.641,1.292
		c0.777-0.273,0.871-0.325,1.165-0.578c0.085-0.073,0.116-0.084,0.221-0.084c0.41,0,0.714,0.137,0.714,0.315
		c0,0.273-0.65,0.535-2.32,0.924c-0.095,0.21-0.272,0.641-0.556,1.271c-0.315,0.725-1.124,2.488-1.218,2.667
		c-0.157,0.283-0.252,0.378-0.378,0.378c-0.178,0-0.325-0.326-0.325-0.746c0-0.21,0.021-0.273,0.115-0.378
		c0.231-0.252,0.357-0.41,0.504-0.63c0.515-0.767,0.893-1.48,1.313-2.468c-0.231,0.032-0.325,0.042-0.493,0.042
		c-0.378,0-0.662-0.063-0.924-0.22c-0.315-0.179-0.556-0.431-0.767-0.767L117.588,2.926z M123.143,3.514
		c0.724,0.063,1.313,0.252,1.795,0.578c0.409,0.263,0.661,0.578,0.661,0.819c0,0.179-0.104,0.305-0.272,0.305
		c-0.084,0-0.147-0.021-0.241-0.084c-0.294-0.179-0.494-0.221-1.029-0.221c-0.84,0-1.103,0.231-1.103,0.956
		c0,0.284,0.053,0.735,0.21,1.806c0.641,0.189,1.187,0.441,1.491,0.683c0.283,0.22,0.42,0.493,0.42,0.829
		c0,0.21-0.084,0.357-0.21,0.357c-0.105,0-0.147-0.031-0.367-0.273c-0.379-0.409-0.725-0.661-1.271-0.924c0,0.084,0,0.158,0,0.2
		c0,0.42-0.084,0.661-0.295,0.892c-0.283,0.284-0.776,0.452-1.364,0.452c-0.945,0-1.597-0.452-1.597-1.113
		c0-0.735,0.799-1.25,1.964-1.25c0.241,0,0.357,0.01,0.63,0.052c-0.031-0.83-0.031-0.914-0.031-1.04
		c0-0.861,0.084-1.187,0.367-1.501c0.21-0.22,0.504-0.367,0.998-0.493c0.157-0.042,0.178-0.053,0.566-0.137
		c-0.283-0.305-0.608-0.473-1.354-0.725L123.143,3.514z M122.576,8.113c-0.325-0.095-0.567-0.126-0.903-0.126
		c-0.893,0-1.438,0.305-1.438,0.798c0,0.389,0.399,0.62,1.05,0.62c0.851,0,1.292-0.347,1.292-1.008V8.113z"/>
	<path d="M12.063,13.5c-1.47,2.667-1.596,2.856-2.373,4.053h6.405c0.378-0.441,0.504-0.567,0.882-0.987
		c0.609,0.483,0.798,0.63,1.407,1.134c0.063,0.063,0.105,0.126,0.105,0.189c0,0.126-0.084,0.189-0.735,0.504
		c0.021,8.61,0.021,8.61,0.147,11.844c-0.021,0.315-0.252,0.399-1.113,0.399c-0.357,0-0.441-0.042-0.483-0.294v-1.218H6.099v1.134
		c-0.021,0.252-0.063,0.336-0.273,0.399c-0.231,0.063-0.504,0.084-0.819,0.084c-0.294,0-0.399-0.084-0.399-0.294
		c0-0.021,0-0.063,0-0.084c0.042-3.066,0.063-5.67,0.063-9.282c0-1.281,0-1.407-0.042-3.213c-0.021-0.714-0.021-0.714-0.021-1.302
		c0.756,0.42,0.987,0.546,1.701,0.987h2.814c0.084-0.294,0.084-0.294,0.252-0.861c0.294-0.987,0.462-1.722,0.714-3.192H4.377
		c-0.882,0-1.869,0.042-2.541,0.105L1.71,12.744c0.987,0.189,1.806,0.273,2.667,0.273h12.999c0.525-0.714,0.672-0.924,1.239-1.617
		c0.987,0.756,1.281,1.008,2.268,1.806c0.063,0.063,0.105,0.126,0.105,0.168c0,0.084-0.084,0.126-0.231,0.126H12.063z
		 M16.305,18.036H6.099v4.746h10.206V18.036z M6.099,23.265v5.376h10.206v-5.376H6.099z"/>
	<path d="M22.437,21.9c2.331-1.617,4.032-3.234,5.922-5.607c0.987-1.239,1.89-2.604,2.31-3.465c0.147-0.315,0.231-0.546,0.378-1.029
		c0.483,0.084,0.84,0.168,1.071,0.21c1.155,0.231,1.407,0.315,1.407,0.504c0,0.168-0.252,0.294-0.819,0.399
		c1.029,1.722,2.436,3.192,4.326,4.557c1.785,1.281,3.486,2.079,5.439,2.604l-0.042,0.294c-0.882,0.105-1.218,0.399-1.659,1.386
		c-1.953-1.008-3.087-1.827-4.62-3.423c-1.554-1.575-2.247-2.541-3.759-5.208c-1.491,2.373-2.814,3.948-4.746,5.691
		c-1.68,1.491-3.045,2.436-4.977,3.402L22.437,21.9z M27.624,30.174c0,0.189-0.021,0.252-0.126,0.294
		c-0.189,0.063-0.672,0.126-1.092,0.126c-0.231,0-0.294-0.063-0.294-0.294c0.042-3.276,0.063-4.305,0.063-5.166
		c0-1.659-0.021-2.436-0.063-3.234c0.777,0.441,1.008,0.588,1.68,1.071h8.484c0.336-0.462,0.462-0.609,0.861-1.071
		c0.588,0.441,0.777,0.588,1.344,1.071c0.168,0.147,0.21,0.21,0.21,0.294c0,0.126-0.189,0.273-0.693,0.441
		c0,3.066,0,3.066,0.084,6.321c0,0.042,0,0.063,0,0.084c0,0.168-0.042,0.231-0.189,0.273c-0.147,0.063-0.84,0.147-1.071,0.147
		c-0.21,0-0.315-0.084-0.315-0.252c0-0.021,0-0.063,0-0.105v-0.882h-8.883V30.174z M27.603,19.233
		c0.609,0.105,1.113,0.168,1.554,0.168h4.389c0.483-0.525,0.63-0.714,1.113-1.26c0.756,0.588,1.008,0.756,1.764,1.386
		c0.105,0.105,0.168,0.189,0.168,0.252c0,0.084-0.042,0.105-0.273,0.105h-7.161c-0.399,0-0.714,0.021-1.386,0.126L27.603,19.233z
		 M27.624,28.809h8.883v-5.355h-8.883V28.809z"/>
	<path d="M53.076,28.851c2.268-0.672,3.717-1.533,4.914-2.919c1.239-1.407,1.869-3.129,1.869-5.061c0-2.037-0.819-3.654-2.373-4.641
		c-0.924-0.609-2.31-0.966-3.633-0.966c-0.252,0-0.399,0-0.735,0.042c0.504,0.735,0.651,1.134,0.651,1.743
		c0,1.638-1.176,4.704-2.772,7.266c-1.323,2.1-2.352,3.129-3.129,3.129c-0.357,0-0.693-0.168-0.924-0.441
		c-0.189-0.252-0.231-0.336-0.588-1.344c-0.189-0.546-0.315-0.798-0.924-1.974c-0.336-0.672-0.483-1.239-0.483-1.911
		c0-1.323,0.714-2.877,1.89-4.158c1.701-1.806,4.473-2.94,7.224-2.94c2.121,0,4.074,0.693,5.418,1.932
		c1.344,1.239,2.016,2.898,2.016,4.935c0,2.625-1.533,4.956-4.179,6.363c-1.218,0.651-2.31,0.987-4.095,1.302L53.076,28.851z
		 M46.167,22.32c0,1.008,0.315,2.037,0.84,2.772c0.294,0.378,0.567,0.609,0.798,0.609c0.462,0,1.47-1.134,2.499-2.772
		c1.554-2.478,2.667-5.187,2.667-6.489c0-0.315-0.063-0.525-0.294-1.05C49.023,16.041,46.167,19.086,46.167,22.32z"/>
	<path d="M69.183,18.582c-0.357,0-0.525,0-1.869,0.105l-0.21-0.735c0.462,0.063,0.462,0.063,2.058,0.147h4.158
		c0-0.273,0-0.273,0-1.029c0-0.588-0.021-0.882-0.084-1.491c2.268,0.252,2.268,0.252,2.268,0.441c0,0.084-0.042,0.168-0.21,0.273
		c0,0-0.084,0.042-0.252,0.147c-0.063,0.042-0.126,0.084-0.189,0.126c0,0.903,0,0.903-0.021,1.533h3.696l1.092-1.302
		c0.798,0.63,1.05,0.84,1.848,1.491c0.063,0.063,0.084,0.105,0.084,0.147c0,0.084-0.084,0.147-0.189,0.147h-6.552
		c-0.021,0.861-0.042,1.302-0.105,2.247h3.717l1.134-1.365c0.819,0.672,1.071,0.882,1.911,1.617
		c0.021,0.021,0.042,0.063,0.042,0.084c0,0.063-0.084,0.147-0.189,0.147h-6.657c-0.084,0.966-0.168,1.491-0.336,2.331h5.439
		c0.567-0.672,0.735-0.882,1.344-1.47c0.882,0.672,1.155,0.903,2.037,1.659c0.084,0.084,0.126,0.147,0.126,0.189
		c0,0.063-0.063,0.105-0.126,0.105h-8.631c0.84,1.197,1.722,1.995,3.234,2.856c1.659,0.966,3.654,1.47,6.342,1.659v0.231
		c-0.756,0.273-1.113,0.714-1.344,1.638c-2.478-0.567-4.347-1.512-6.048-3.066c-1.197-1.071-1.869-1.869-2.583-3.087
		c-0.441,1.302-1.134,2.289-2.247,3.234c-1.89,1.617-3.99,2.52-7.287,3.15L64.5,30.468c2.415-0.756,4.053-1.617,5.628-2.898
		c1.344-1.134,2.1-2.142,2.52-3.444h-5.145c-0.945,0-1.26,0.021-1.995,0.147l-0.21-0.798c0.651,0.084,1.617,0.168,2.205,0.168h5.292
		c0.21-0.84,0.273-1.302,0.357-2.331h-3.864c-0.462,0-0.861,0.021-1.827,0.105l-0.252-0.756c0.441,0.063,1.785,0.168,2.058,0.168
		h3.927c0.063-0.945,0.084-1.26,0.105-2.247H69.183z M80.88,14.403l0.966-1.092c0.798,0.525,1.029,0.693,1.827,1.197
		c0.189,0.168,0.315,0.294,0.315,0.399c0,0.063-0.042,0.126-0.105,0.168c-0.084,0.042-0.294,0.105-0.546,0.168
		c-0.483,0.126-0.735,0.189-0.777,0.21c-0.819,0.714-1.218,1.05-2.1,1.743l-0.252-0.147c0.462-0.861,0.63-1.26,0.945-2.163H67.398
		c-0.147,1.554-1.029,3.192-1.701,3.192c-0.315,0-0.672-0.651-0.672-1.197c0-0.252,0.105-0.42,0.483-0.693
		c0.945-0.693,1.218-1.176,1.596-2.877h0.357c0,0.777,0,0.777-0.021,1.092h5.88V13.08c0-0.483-0.021-0.777-0.063-1.428
		c0.882,0.084,1.848,0.21,2.163,0.294c0.21,0.042,0.294,0.105,0.294,0.189c0,0.147-0.021,0.168-0.882,0.609v1.659H80.88z"/>
	<path d="M92.157,12.66c0.63,0,1.617,0.189,2.121,0.399c0.42,0.168,0.588,0.378,0.588,0.672c0,0.021,0,0.042,0,0.042
		c0,0.168-0.021,0.168-0.168,0.546c-0.252,0.714-0.462,2.52-0.462,4.263c0,1.239,0.168,1.554,0.819,1.554
		c0.441,0,0.903-0.168,2.814-1.071c0.378-0.189,0.609-0.252,0.861-0.252c0.504,0,1.008,0.441,1.008,0.882
		c0,0.273-0.147,0.504-0.441,0.63c-0.147,0.063-0.441,0.168-1.407,0.441c-2.541,0.714-3.927,1.344-5.25,2.352
		c-1.134,0.882-1.638,1.701-1.638,2.688c0,1.512,1.197,2.289,3.528,2.289c1.302,0,3.36-0.252,4.872-0.609
		c0.21-0.042,0.294-0.063,0.42-0.063c0.546,0,1.134,0.525,1.134,1.029c0,0.378-0.231,0.567-0.903,0.693
		c-0.672,0.126-2.772,0.273-4.032,0.273c-1.533,0-2.688-0.168-3.57-0.483c-1.407-0.525-2.289-1.722-2.289-3.108
		c0-1.218,0.672-2.373,2.058-3.528c0.63-0.546,1.323-1.008,2.562-1.68c-0.462,0-0.651-0.063-1.008-0.315
		c-0.315-0.231-0.504-0.693-0.609-1.596c-0.063-0.504-0.084-0.966-0.147-2.541c-0.063-1.785-0.084-2.1-0.252-2.415
		c-0.231-0.399-0.63-0.609-1.512-0.756C91.569,12.723,91.737,12.66,92.157,12.66z"/>
	<path d="M106.626,25.071c1.575-1.701,2.541-2.961,3.423-4.41c0.819-1.386,1.407-2.646,1.701-3.654
		c0.756,0.252,1.869,0.651,2.1,0.756c0.084,0.042,0.168,0.126,0.168,0.189c0,0.168-0.294,0.273-0.84,0.273
		c-0.021,0-0.084,0-0.147-0.021c-0.756,1.218-1.113,1.722-1.869,2.688c1.323,0.252,1.617,0.357,1.617,0.525
		c0,0.189-0.168,0.273-0.819,0.441v3.465c0,1.554,0,1.554,0,4.998c-0.063,0.252-0.189,0.294-0.777,0.315
		c-0.168,0-0.273,0.021-0.336,0.021c-0.042,0-0.063,0-0.063,0c-0.231,0-0.336-0.084-0.336-0.273
		c0.084-4.347,0.084-4.347,0.084-5.061v-3.612c-1.428,1.743-2.268,2.52-3.717,3.612L106.626,25.071z M118.071,14.277v-1.323
		c0-0.588,0-0.714-0.042-1.239c2.247,0.315,2.247,0.315,2.247,0.504s-0.252,0.315-0.84,0.441c0,0.651,0,1.197,0,1.617h2.793
		c0.588-0.651,0.798-0.861,1.365-1.491c0.882,0.714,1.155,0.945,2.016,1.701c0.042,0.042,0.063,0.084,0.063,0.126
		c0,0.084-0.105,0.147-0.189,0.147h-6.048c0,1.113,0,1.113,0.021,1.911c-0.021,0.147-0.063,0.231-0.147,0.273
		c-0.168,0.063-0.546,0.105-0.903,0.105c-0.252,0-0.336-0.063-0.357-0.273c0.021-0.903,0.021-0.903,0.021-2.016h-4.221
		c0,1.176,0,1.176,0,1.911c-0.042,0.231-0.168,0.273-0.714,0.294c-0.105,0-0.21,0.021-0.294,0.021c-0.021,0-0.042,0-0.042,0
		c-0.231,0-0.336-0.084-0.357-0.273c0.042-0.777,0.042-0.777,0.042-1.953h-3.696c-0.672,0-1.26,0.063-1.764,0.168l-0.126-0.861
		c0.861,0.168,1.176,0.21,1.89,0.21h3.696c0-0.168,0-0.21,0-0.315c0-0.924-0.021-1.806-0.063-2.289
		c2.289,0.273,2.289,0.273,2.289,0.483c0,0.189-0.063,0.21-0.861,0.504v1.617H118.071z M117.882,23.685
		c0.84-0.63,1.386-1.113,2.268-2.037c1.386-1.449,2.101-2.373,2.583-3.318c1.995,1.134,2.017,1.155,2.017,1.323
		c0,0.105-0.169,0.21-0.357,0.21c-0.189,0-0.378-0.021-0.609-0.042c-2.016,1.932-3.905,3.318-5.9,4.347v4.494
		c0,0.105,0.126,0.168,0.336,0.189c0.294,0.042,2.373,0.105,2.897,0.105c0.714,0,1.827-0.063,2.017-0.126
		c0.23-0.063,0.294-0.168,0.524-0.777c0.336-0.903,0.609-1.785,1.071-3.486h0.273l-0.273,3.36c-0.021,0.336-0.021,0.504-0.021,0.525
		c0,0.147,0.042,0.189,0.336,0.294c0.336,0.126,0.462,0.273,0.462,0.525c0,0.357-0.252,0.588-0.819,0.714
		c-0.462,0.084-2.121,0.168-3.801,0.168c-2.583,0-3.402-0.063-3.864-0.315c-0.399-0.21-0.546-0.525-0.567-1.197
		c0.021-3.444,0.021-3.444,0.021-3.906v-5.376c0-0.63-0.042-1.575-0.105-2.121c2.142,0.315,2.352,0.357,2.352,0.525
		c0,0.189-0.294,0.336-0.84,0.462V23.685z"/>
</g>
<g>
	<path d="M10.068,49.441c0.819-0.651,1.134-1.029,1.544-1.869c-0.483-0.147-0.861-0.399-1.218-0.809
		c-0.462-0.557-0.714-1.386-0.714-2.373c0-0.073,0-0.199,0.01-0.388c-0.84,0.934-1.375,2.079-1.375,2.919c0,0.073,0,0.136,0,0.189
		c0.011,0.073,0.011,0.136,0.011,0.168c0,0.168-0.116,0.294-0.263,0.294c-0.357,0-0.619-0.882-0.619-2.121
		c0-0.535,0.031-1.008,0.126-1.764c0.052-0.483,0.063-0.63,0.063-0.83c0-0.347-0.147-0.693-0.399-0.956
		c0.221,0,0.347,0.063,0.609,0.273c0.336,0.294,0.567,0.641,0.567,0.872c0,0.105-0.011,0.147-0.126,0.388
		c-0.231,0.504-0.399,1.354-0.399,2.048c0,0.189,0.01,0.304,0.052,0.556c0.62-1.229,0.977-1.743,1.774-2.509
		c0.137-1.071,0.347-1.669,0.746-2.163c0.231-0.294,0.546-0.452,0.882-0.452c0.294,0,0.63,0.147,0.84,0.368
		c0.241,0.252,0.357,0.462,0.525,0.945c0.063,0,0.126,0,0.147,0c0.588,0,1.145,0.179,1.638,0.525c0.672,0.462,1.04,1.208,1.04,2.058
		c0,1.628-1.313,2.888-3.014,2.888c-0.074,0-0.168,0-0.326-0.01c-0.64,0.976-1.166,1.47-2.026,1.879L10.068,49.441z M10.005,43.646
		c-0.01,0.252-0.021,0.399-0.021,0.514c0,0.977,0.305,1.848,0.819,2.321c0.315,0.294,0.588,0.451,1.019,0.577
		c0.283-0.914,0.42-1.932,0.42-3.15c0-0.599-0.021-0.935-0.105-1.365C11.244,42.732,10.656,43.036,10.005,43.646z M12.095,42.291
		c-0.189-0.798-0.441-1.134-0.851-1.134c-0.588,0-1.019,0.735-1.208,2.089C10.708,42.732,11.307,42.448,12.095,42.291z
		 M12.966,44.244c0,1.134-0.168,2.037-0.525,2.898c1.386,0,2.373-1.04,2.373-2.488c0-0.83-0.315-1.501-0.882-1.869
		c-0.347-0.22-0.651-0.315-1.166-0.325C12.914,43.194,12.966,43.646,12.966,44.244z"/>
	<path d="M31.1,49.588c0.746-0.462,1.208-0.872,1.669-1.47c0.735-0.977,1.103-2.163,1.103-3.539c0-0.913-0.157-1.774-0.389-2.163
		c-0.189-0.305-0.441-0.462-0.745-0.462c-0.525,0-1.008,0.452-1.386,1.313c-0.304,0.683-0.494,1.543-0.494,2.258
		c0,0.178,0.011,0.294,0.042,0.651c0.011,0.063,0.011,0.147,0.011,0.221c0,0.199-0.095,0.315-0.273,0.315
		c-0.399,0-0.662-0.851-0.662-2.153c0-0.871,0.063-1.417,0.336-2.814c0.084-0.42,0.116-0.619,0.116-0.766
		c0-0.336-0.147-0.536-0.567-0.746c0.084-0.032,0.147-0.053,0.189-0.053c0.22,0,0.556,0.137,0.84,0.347
		c0.294,0.21,0.41,0.378,0.41,0.588c0,0.137-0.021,0.2-0.147,0.399c-0.399,0.662-0.756,2.153-0.756,3.129c0,0.095,0,0.2,0.011,0.389
		h0.021c0.315-1.344,0.704-2.215,1.218-2.751c0.389-0.42,0.809-0.62,1.281-0.62c1.008,0,1.722,1.239,1.722,2.993
		c0,1.365-0.378,2.499-1.145,3.434c-0.619,0.766-1.323,1.26-2.32,1.659L31.1,49.588z"/>
	<path d="M73.761,49.273c0.767-0.62,1.113-0.966,1.491-1.491s0.63-1.019,0.935-1.816c-0.914-0.483-1.816-0.714-3.013-0.767
		c-0.641,1.166-0.914,1.606-1.271,2.079c-0.389,0.483-0.714,0.725-1.008,0.725c-0.441,0-0.809-0.504-0.809-1.113
		c0-0.535,0.263-1.071,0.714-1.449c0.462-0.389,1.155-0.63,1.995-0.693c0.147-0.252,0.168-0.325,0.746-1.648
		c0.336-0.798,0.378-0.914,0.546-1.48c-0.252,0.063-0.976,0.294-1.512,0.483c-0.168,0.053-0.252,0.074-0.347,0.074
		c-0.325,0-0.662-0.515-0.662-1.019c0-0.105,0.021-0.157,0.116-0.242c0.21,0.483,0.399,0.641,0.788,0.641
		c0.273,0,0.598-0.052,1.113-0.178c0.273-0.074,0.315-0.095,0.462-0.221c0.063-0.073,0.126-0.094,0.221-0.094
		c0.231,0,0.756,0.556,0.756,0.819c0,0.084-0.042,0.157-0.157,0.241c-0.242,0.2-0.336,0.347-1.061,1.785
		c-0.284,0.567-0.326,0.651-0.431,0.851c1.061,0.052,1.974,0.231,3.014,0.599c0.178-0.546,0.346-1.354,0.346-1.69
		c0-0.284-0.147-0.473-0.546-0.725c0.074-0.053,0.116-0.063,0.189-0.063c0.179,0,0.42,0.084,0.735,0.241
		c0.336,0.168,0.493,0.336,0.493,0.525c0,0.105-0.01,0.157-0.094,0.367c-0.032,0.074-0.095,0.294-0.252,0.788
		c-0.053,0.189-0.095,0.315-0.242,0.798c1.26,0.63,1.596,0.935,1.596,1.491c0,0.21-0.105,0.378-0.242,0.378
		c-0.095,0-0.168-0.053-0.357-0.221c-0.336-0.336-0.683-0.609-1.25-0.987c-0.462,1.008-0.788,1.512-1.344,2.047
		c-0.472,0.452-0.903,0.756-1.575,1.082L73.761,49.273z M70.538,46.638c0,0.389,0.221,0.756,0.452,0.756
		c0.346,0,0.788-0.609,1.596-2.205C71.241,45.336,70.538,45.829,70.538,46.638z"/>
	<path d="M109.094,45.042c-0.189,0.661-0.483,1.806-0.609,2.32c-0.105,0.462-0.137,0.63-0.137,0.893
		c-0.011,0.336-0.021,0.378-0.074,0.462c-0.052,0.073-0.115,0.115-0.199,0.115c-0.179,0-0.326-0.147-0.452-0.472
		c-0.21-0.536-0.336-1.333-0.336-2.111c0-0.966,0.116-1.848,0.473-3.496c0.136-0.651,0.157-0.767,0.157-0.945
		c0-0.315-0.084-0.567-0.304-0.924c0.241,0.011,0.441,0.147,0.735,0.525c0.242,0.305,0.378,0.599,0.378,0.798
		c0,0.115,0,0.115-0.168,0.462c-0.504,1.05-0.798,2.299-0.798,3.423c0,0.536,0.042,0.872,0.168,1.302l0.441-1.05l0.567-1.354
		L109.094,45.042z M110.144,43.141c0.504,0.326,0.83,0.431,1.354,0.431c0.368,0,0.767-0.053,1.197-0.147c0-0.2,0-0.368,0-0.462
		c0-1.176-0.011-1.313-0.147-1.459c-0.126-0.137-0.357-0.21-0.693-0.242c0.147-0.136,0.231-0.168,0.504-0.168
		c0.231,0,0.515,0.042,0.714,0.095c0.304,0.094,0.462,0.22,0.462,0.378c0,0.073,0,0.084-0.095,0.325
		c-0.115,0.305-0.178,0.683-0.22,1.407c0.483-0.137,0.788-0.273,0.966-0.431c0.105-0.105,0.137-0.115,0.231-0.115
		c0.126,0,0.368,0.063,0.494,0.136c0.084,0.042,0.136,0.116,0.136,0.189c0,0.231-0.766,0.546-1.858,0.756
		c0,1.396,0.032,1.974,0.137,2.856c1.218,0.325,1.732,0.735,1.732,1.344c0,0.221-0.095,0.389-0.21,0.389
		c-0.084,0-0.158-0.053-0.368-0.263c-0.462-0.472-0.725-0.662-1.134-0.84c0.01,0.094,0.01,0.178,0.01,0.252
		c0,0.756-0.63,1.208-1.68,1.208c-0.914,0-1.554-0.441-1.554-1.071c0-0.725,0.777-1.187,1.974-1.187c0.199,0,0.346,0.01,0.641,0.031
		c0-0.094,0-0.157,0-0.178l-0.021-1.124l-0.011-1.344c-0.315,0.063-0.62,0.084-0.924,0.084c-0.767,0-1.208-0.189-1.732-0.735
		L110.144,43.141z M111.75,46.974c-0.83,0-1.344,0.273-1.344,0.735c0,0.367,0.409,0.619,1.029,0.619
		c0.578,0,0.987-0.168,1.155-0.493c0.105-0.189,0.136-0.347,0.136-0.735C112.433,47.016,112.139,46.974,111.75,46.974z"/>
	<path d="M117.588,42.301c0.504,0.473,0.798,0.609,1.323,0.609c0.273,0,0.557-0.042,0.956-0.126
		c0.263-0.683,0.378-1.124,0.378-1.491c0-0.347-0.168-0.557-0.672-0.809c0.115-0.063,0.168-0.074,0.252-0.074
		c0.21,0,0.535,0.095,0.84,0.242c0.357,0.178,0.493,0.294,0.493,0.441c0,0.084-0.021,0.147-0.104,0.273
		c-0.042,0.084-0.263,0.515-0.641,1.292c0.777-0.273,0.871-0.325,1.165-0.578c0.085-0.073,0.116-0.084,0.221-0.084
		c0.41,0,0.714,0.137,0.714,0.315c0,0.273-0.65,0.535-2.32,0.924c-0.095,0.21-0.272,0.641-0.556,1.271
		c-0.315,0.725-1.124,2.488-1.218,2.667c-0.157,0.283-0.252,0.378-0.378,0.378c-0.178,0-0.325-0.326-0.325-0.746
		c0-0.21,0.021-0.273,0.115-0.378c0.231-0.252,0.357-0.41,0.504-0.63c0.515-0.767,0.893-1.48,1.313-2.468
		c-0.231,0.032-0.325,0.042-0.493,0.042c-0.378,0-0.662-0.063-0.924-0.22c-0.315-0.179-0.556-0.431-0.767-0.767L117.588,42.301z
		 M123.143,42.889c0.724,0.063,1.313,0.252,1.795,0.578c0.409,0.263,0.661,0.578,0.661,0.819c0,0.179-0.104,0.305-0.272,0.305
		c-0.084,0-0.147-0.021-0.241-0.084c-0.294-0.179-0.494-0.221-1.029-0.221c-0.84,0-1.103,0.231-1.103,0.956
		c0,0.284,0.053,0.735,0.21,1.806c0.641,0.189,1.187,0.441,1.491,0.683c0.283,0.22,0.42,0.493,0.42,0.829
		c0,0.21-0.084,0.357-0.21,0.357c-0.105,0-0.147-0.031-0.367-0.273c-0.379-0.409-0.725-0.661-1.271-0.924c0,0.084,0,0.158,0,0.2
		c0,0.42-0.084,0.661-0.295,0.892c-0.283,0.284-0.776,0.452-1.364,0.452c-0.945,0-1.597-0.452-1.597-1.113
		c0-0.735,0.799-1.25,1.964-1.25c0.241,0,0.357,0.01,0.63,0.052c-0.031-0.83-0.031-0.914-0.031-1.04
		c0-0.861,0.084-1.187,0.367-1.501c0.21-0.22,0.504-0.367,0.998-0.493c0.157-0.042,0.178-0.053,0.566-0.137
		c-0.283-0.305-0.608-0.473-1.354-0.725L123.143,42.889z M122.576,47.488c-0.325-0.095-0.567-0.126-0.903-0.126
		c-0.893,0-1.438,0.305-1.438,0.798c0,0.389,0.399,0.62,1.05,0.62c0.851,0,1.292-0.347,1.292-1.008V47.488z"/>
	<path d="M12.063,52.875c-1.47,2.667-1.596,2.856-2.373,4.053h6.405c0.378-0.441,0.504-0.567,0.882-0.987
		c0.609,0.483,0.798,0.63,1.407,1.134c0.063,0.063,0.105,0.126,0.105,0.189c0,0.126-0.084,0.189-0.735,0.504
		c0.021,8.61,0.021,8.61,0.147,11.844c-0.021,0.315-0.252,0.399-1.113,0.399c-0.357,0-0.441-0.042-0.483-0.294v-1.218H6.099v1.134
		c-0.021,0.252-0.063,0.336-0.273,0.399c-0.231,0.063-0.504,0.084-0.819,0.084c-0.294,0-0.399-0.084-0.399-0.294
		c0-0.021,0-0.063,0-0.084c0.042-3.066,0.063-5.67,0.063-9.282c0-1.281,0-1.407-0.042-3.213c-0.021-0.714-0.021-0.714-0.021-1.302
		c0.756,0.42,0.987,0.546,1.701,0.987h2.814c0.084-0.294,0.084-0.294,0.252-0.861c0.294-0.987,0.462-1.722,0.714-3.192H4.377
		c-0.882,0-1.869,0.042-2.541,0.105L1.71,52.119c0.987,0.189,1.806,0.273,2.667,0.273h12.999c0.525-0.714,0.672-0.924,1.239-1.617
		c0.987,0.756,1.281,1.008,2.268,1.806c0.063,0.063,0.105,0.126,0.105,0.168c0,0.084-0.084,0.126-0.231,0.126H12.063z
		 M16.305,57.411H6.099v4.746h10.206V57.411z M6.099,62.64v5.376h10.206V62.64H6.099z"/>
	<path d="M22.437,61.275c2.331-1.617,4.032-3.234,5.922-5.607c0.987-1.239,1.89-2.604,2.31-3.465
		c0.147-0.315,0.231-0.546,0.378-1.029c0.483,0.084,0.84,0.168,1.071,0.21c1.155,0.231,1.407,0.315,1.407,0.504
		c0,0.168-0.252,0.294-0.819,0.399c1.029,1.722,2.436,3.192,4.326,4.557c1.785,1.281,3.486,2.079,5.439,2.604l-0.042,0.294
		c-0.882,0.105-1.218,0.399-1.659,1.386c-1.953-1.008-3.087-1.827-4.62-3.423c-1.554-1.575-2.247-2.541-3.759-5.208
		c-1.491,2.373-2.814,3.948-4.746,5.691c-1.68,1.491-3.045,2.436-4.977,3.402L22.437,61.275z M27.624,69.549
		c0,0.189-0.021,0.252-0.126,0.294c-0.189,0.063-0.672,0.126-1.092,0.126c-0.231,0-0.294-0.063-0.294-0.294
		c0.042-3.276,0.063-4.305,0.063-5.166c0-1.659-0.021-2.436-0.063-3.234c0.777,0.441,1.008,0.588,1.68,1.071h8.484
		c0.336-0.462,0.462-0.609,0.861-1.071c0.588,0.441,0.777,0.588,1.344,1.071c0.168,0.147,0.21,0.21,0.21,0.294
		c0,0.126-0.189,0.273-0.693,0.441c0,3.066,0,3.066,0.084,6.321c0,0.042,0,0.063,0,0.084c0,0.168-0.042,0.231-0.189,0.273
		c-0.147,0.063-0.84,0.147-1.071,0.147c-0.21,0-0.315-0.084-0.315-0.252c0-0.021,0-0.063,0-0.105v-0.882h-8.883V69.549z
		 M27.603,58.608c0.609,0.105,1.113,0.168,1.554,0.168h4.389c0.483-0.525,0.63-0.714,1.113-1.26
		c0.756,0.588,1.008,0.756,1.764,1.386c0.105,0.105,0.168,0.189,0.168,0.252c0,0.084-0.042,0.105-0.273,0.105h-7.161
		c-0.399,0-0.714,0.021-1.386,0.126L27.603,58.608z M27.624,68.184h8.883v-5.355h-8.883V68.184z"/>
	<path d="M53.076,68.226c2.268-0.672,3.717-1.533,4.914-2.919c1.239-1.407,1.869-3.129,1.869-5.061c0-2.037-0.819-3.654-2.373-4.641
		c-0.924-0.609-2.31-0.966-3.633-0.966c-0.252,0-0.399,0-0.735,0.042c0.504,0.735,0.651,1.134,0.651,1.743
		c0,1.638-1.176,4.704-2.772,7.266c-1.323,2.1-2.352,3.129-3.129,3.129c-0.357,0-0.693-0.168-0.924-0.441
		c-0.189-0.252-0.231-0.336-0.588-1.344c-0.189-0.546-0.315-0.798-0.924-1.974c-0.336-0.672-0.483-1.239-0.483-1.911
		c0-1.323,0.714-2.877,1.89-4.158c1.701-1.806,4.473-2.94,7.224-2.94c2.121,0,4.074,0.693,5.418,1.932
		c1.344,1.239,2.016,2.898,2.016,4.935c0,2.625-1.533,4.956-4.179,6.363c-1.218,0.651-2.31,0.987-4.095,1.302L53.076,68.226z
		 M46.167,61.695c0,1.008,0.315,2.037,0.84,2.772c0.294,0.378,0.567,0.609,0.798,0.609c0.462,0,1.47-1.134,2.499-2.772
		c1.554-2.478,2.667-5.187,2.667-6.489c0-0.315-0.063-0.525-0.294-1.05C49.023,55.416,46.167,58.461,46.167,61.695z"/>
	<path d="M69.183,57.957c-0.357,0-0.525,0-1.869,0.105l-0.21-0.735c0.462,0.063,0.462,0.063,2.058,0.147h4.158
		c0-0.273,0-0.273,0-1.029c0-0.588-0.021-0.882-0.084-1.491c2.268,0.252,2.268,0.252,2.268,0.441c0,0.084-0.042,0.168-0.21,0.273
		c0,0-0.084,0.042-0.252,0.147c-0.063,0.042-0.126,0.084-0.189,0.126c0,0.903,0,0.903-0.021,1.533h3.696l1.092-1.302
		c0.798,0.63,1.05,0.84,1.848,1.491c0.063,0.063,0.084,0.105,0.084,0.147c0,0.084-0.084,0.147-0.189,0.147h-6.552
		c-0.021,0.861-0.042,1.302-0.105,2.247h3.717l1.134-1.365c0.819,0.672,1.071,0.882,1.911,1.617
		c0.021,0.021,0.042,0.063,0.042,0.084c0,0.063-0.084,0.147-0.189,0.147h-6.657c-0.084,0.966-0.168,1.491-0.336,2.331h5.439
		c0.567-0.672,0.735-0.882,1.344-1.47c0.882,0.672,1.155,0.903,2.037,1.659c0.084,0.084,0.126,0.147,0.126,0.189
		c0,0.063-0.063,0.105-0.126,0.105h-8.631c0.84,1.197,1.722,1.995,3.234,2.856c1.659,0.966,3.654,1.47,6.342,1.659v0.231
		c-0.756,0.273-1.113,0.714-1.344,1.638c-2.478-0.567-4.347-1.512-6.048-3.066c-1.197-1.071-1.869-1.869-2.583-3.087
		c-0.441,1.302-1.134,2.289-2.247,3.234c-1.89,1.617-3.99,2.52-7.287,3.15L64.5,69.843c2.415-0.756,4.053-1.617,5.628-2.898
		c1.344-1.134,2.1-2.142,2.52-3.444h-5.145c-0.945,0-1.26,0.021-1.995,0.147l-0.21-0.798c0.651,0.084,1.617,0.168,2.205,0.168h5.292
		c0.21-0.84,0.273-1.302,0.357-2.331h-3.864c-0.462,0-0.861,0.021-1.827,0.105l-0.252-0.756c0.441,0.063,1.785,0.168,2.058,0.168
		h3.927c0.063-0.945,0.084-1.26,0.105-2.247H69.183z M80.88,53.778l0.966-1.092c0.798,0.525,1.029,0.693,1.827,1.197
		c0.189,0.168,0.315,0.294,0.315,0.399c0,0.063-0.042,0.126-0.105,0.168c-0.084,0.042-0.294,0.105-0.546,0.168
		c-0.483,0.126-0.735,0.189-0.777,0.21c-0.819,0.714-1.218,1.05-2.1,1.743l-0.252-0.147c0.462-0.861,0.63-1.26,0.945-2.163H67.398
		c-0.147,1.554-1.029,3.192-1.701,3.192c-0.315,0-0.672-0.651-0.672-1.197c0-0.252,0.105-0.42,0.483-0.693
		c0.945-0.693,1.218-1.176,1.596-2.877h0.357c0,0.777,0,0.777-0.021,1.092h5.88v-1.323c0-0.483-0.021-0.777-0.063-1.428
		c0.882,0.084,1.848,0.21,2.163,0.294c0.21,0.042,0.294,0.105,0.294,0.189c0,0.147-0.021,0.168-0.882,0.609v1.659H80.88z"/>
	<path d="M92.157,52.035c0.63,0,1.617,0.189,2.121,0.399c0.42,0.168,0.588,0.378,0.588,0.672c0,0.021,0,0.042,0,0.042
		c0,0.168-0.021,0.168-0.168,0.546c-0.252,0.714-0.462,2.52-0.462,4.263c0,1.239,0.168,1.554,0.819,1.554
		c0.441,0,0.903-0.168,2.814-1.071c0.378-0.189,0.609-0.252,0.861-0.252c0.504,0,1.008,0.441,1.008,0.882
		c0,0.273-0.147,0.504-0.441,0.63c-0.147,0.063-0.441,0.168-1.407,0.441c-2.541,0.714-3.927,1.344-5.25,2.352
		c-1.134,0.882-1.638,1.701-1.638,2.688c0,1.512,1.197,2.289,3.528,2.289c1.302,0,3.36-0.252,4.872-0.609
		c0.21-0.042,0.294-0.063,0.42-0.063c0.546,0,1.134,0.525,1.134,1.029c0,0.378-0.231,0.567-0.903,0.693
		c-0.672,0.126-2.772,0.273-4.032,0.273c-1.533,0-2.688-0.168-3.57-0.483c-1.407-0.525-2.289-1.722-2.289-3.108
		c0-1.218,0.672-2.373,2.058-3.528c0.63-0.546,1.323-1.008,2.562-1.68c-0.462,0-0.651-0.063-1.008-0.315
		c-0.315-0.231-0.504-0.693-0.609-1.596c-0.063-0.504-0.084-0.966-0.147-2.541c-0.063-1.785-0.084-2.1-0.252-2.415
		c-0.231-0.399-0.63-0.609-1.512-0.756C91.569,52.098,91.737,52.035,92.157,52.035z"/>
	<path d="M106.626,64.446c1.575-1.701,2.541-2.961,3.423-4.41c0.819-1.386,1.407-2.646,1.701-3.654
		c0.756,0.252,1.869,0.651,2.1,0.756c0.084,0.042,0.168,0.126,0.168,0.189c0,0.168-0.294,0.273-0.84,0.273
		c-0.021,0-0.084,0-0.147-0.021c-0.756,1.218-1.113,1.722-1.869,2.688c1.323,0.252,1.617,0.357,1.617,0.525
		c0,0.189-0.168,0.273-0.819,0.441v3.465c0,1.554,0,1.554,0,4.998c-0.063,0.252-0.189,0.294-0.777,0.315
		c-0.168,0-0.273,0.021-0.336,0.021c-0.042,0-0.063,0-0.063,0c-0.231,0-0.336-0.084-0.336-0.273
		c0.084-4.347,0.084-4.347,0.084-5.061v-3.612c-1.428,1.743-2.268,2.52-3.717,3.612L106.626,64.446z M118.071,53.652v-1.323
		c0-0.588,0-0.714-0.042-1.239c2.247,0.315,2.247,0.315,2.247,0.504s-0.252,0.315-0.84,0.441c0,0.651,0,1.197,0,1.617h2.793
		c0.588-0.651,0.798-0.861,1.365-1.491c0.882,0.714,1.155,0.945,2.016,1.701c0.042,0.042,0.063,0.084,0.063,0.126
		c0,0.084-0.105,0.147-0.189,0.147h-6.048c0,1.113,0,1.113,0.021,1.911c-0.021,0.147-0.063,0.231-0.147,0.273
		c-0.168,0.063-0.546,0.105-0.903,0.105c-0.252,0-0.336-0.063-0.357-0.273c0.021-0.903,0.021-0.903,0.021-2.016h-4.221
		c0,1.176,0,1.176,0,1.911c-0.042,0.231-0.168,0.273-0.714,0.294c-0.105,0-0.21,0.021-0.294,0.021c-0.021,0-0.042,0-0.042,0
		c-0.231,0-0.336-0.084-0.357-0.273c0.042-0.777,0.042-0.777,0.042-1.953h-3.696c-0.672,0-1.26,0.063-1.764,0.168l-0.126-0.861
		c0.861,0.168,1.176,0.21,1.89,0.21h3.696c0-0.168,0-0.21,0-0.315c0-0.924-0.021-1.806-0.063-2.289
		c2.289,0.273,2.289,0.273,2.289,0.483c0,0.189-0.063,0.21-0.861,0.504v1.617H118.071z M117.882,63.06
		c0.84-0.63,1.386-1.113,2.268-2.037c1.386-1.449,2.101-2.373,2.583-3.318c1.995,1.134,2.017,1.155,2.017,1.323
		c0,0.105-0.169,0.21-0.357,0.21c-0.189,0-0.378-0.021-0.609-0.042c-2.016,1.932-3.905,3.318-5.9,4.347v4.494
		c0,0.105,0.126,0.168,0.336,0.189c0.294,0.042,2.373,0.105,2.897,0.105c0.714,0,1.827-0.063,2.017-0.126
		c0.23-0.063,0.294-0.168,0.524-0.777c0.336-0.903,0.609-1.785,1.071-3.486h0.273l-0.273,3.36c-0.021,0.336-0.021,0.504-0.021,0.525
		c0,0.147,0.042,0.189,0.336,0.294c0.336,0.126,0.462,0.273,0.462,0.525c0,0.357-0.252,0.588-0.819,0.714
		c-0.462,0.084-2.121,0.168-3.801,0.168c-2.583,0-3.402-0.063-3.864-0.315c-0.399-0.21-0.546-0.525-0.567-1.197
		c0.021-3.444,0.021-3.444,0.021-3.906v-5.376c0-0.63-0.042-1.575-0.105-2.121c2.142,0.315,2.352,0.357,2.352,0.525
		c0,0.189-0.294,0.336-0.84,0.462V63.06z"/>
</g>
<g>
	<rect x="0.25" y="10.75" fill="none" stroke="#008CD6" stroke-width="0.5" width="126.002" height="21"/>
	<line fill="none" stroke="#008CD6" stroke-width="0.5" x1="21.25" y1="31.75" x2="21.25" y2="10.75"/>
	<line fill="none" stroke="#008CD6" stroke-width="0.5" x1="42.25" y1="31.75" x2="42.25" y2="10.75"/>
	<line fill="none" stroke="#008CD6" stroke-width="0.5" x1="63.25" y1="31.75" x2="63.25" y2="10.75"/>
	<line fill="none" stroke="#008CD6" stroke-width="0.5" x1="84.25" y1="31.75" x2="84.25" y2="10.75"/>
	<line fill="none" stroke="#008CD6" stroke-width="0.5" x1="105.25" y1="31.75" x2="105.25" y2="10.75"/>
</g>
<polyline fill="none" stroke="#008CD6" stroke-width="0.5" points="5.5,10.75 5.5,0.25 16,0.25 16,10.75 "/>
<polyline fill="none" stroke="#008CD6" stroke-width="0.5" points="26.5,10.75 26.5,0.25 37,0.25 37,10.75 "/>
<polyline fill="none" stroke="#008CD6" stroke-width="0.5" points="68.5,10.75 68.5,0.25 79,0.25 79,10.75 "/>
<polyline fill="none" stroke="#008CD6" stroke-width="0.5" points="105.25,10.75 105.25,0.25 126.246,0.25 126.246,10.75 "/>
<line fill="none" stroke="#008CD6" stroke-width="0.5" x1="115.75" y1="10.75" x2="115.75" y2="0.25"/>
</svg>
