<?xml version="1.0" encoding="utf-8"?>
<!-- Generator: Adobe Illustrator 12.0.0, SVG Export Plug-In . SVG Version: 6.00 Build 51448)  -->
<!DOCTYPE svg PUBLIC "-//W3C//DTD SVG 1.1//EN" "http://www.w3.org/Graphics/SVG/1.1/DTD/svg11.dtd" [
	<!ENTITY ns_svg "http://www.w3.org/2000/svg">
	<!ENTITY ns_xlink "http://www.w3.org/1999/xlink">
]>
<svg  version="1.1" id="レイヤー_1" xmlns="&ns_svg;" xmlns:xlink="&ns_xlink;" width="56.25" height="101.745"
	 viewBox="0 0 56.25 101.745" overflow="visible" enable-background="new 0 0 56.25 101.745" xml:space="preserve">
<g>
	<g>
		<path d="M9.623,3.577C9.322,4.816,9.196,5.453,9.196,5.698c0,0.021,0,0.049,0,0.077c0.007,0.056,0.007,0.084,0.007,0.112
			c0,0.224-0.057,0.329-0.176,0.329c-0.104,0-0.21-0.091-0.294-0.252C8.51,5.53,8.397,4.921,8.397,4.151
			c0-0.518,0.035-0.854,0.154-1.589c0.091-0.511,0.112-0.707,0.112-0.868c0-0.217-0.084-0.434-0.252-0.672
			C8.565,1.029,8.706,1.12,8.874,1.295c0.203,0.224,0.308,0.413,0.308,0.56c0,0.091-0.007,0.133-0.098,0.385
			C8.846,2.905,8.72,3.57,8.72,4.186c0,0.518,0.049,0.847,0.168,1.092c0.084-0.21,0.504-1.351,0.63-1.729L9.623,3.577z
			 M10.183,2.422c0.315,0.224,0.483,0.28,0.813,0.28c0.287,0,0.692-0.056,1.008-0.147c0-0.105,0-0.182,0-0.245
			c0-0.581-0.021-0.861-0.084-0.98c-0.07-0.14-0.267-0.245-0.595-0.322c0.104-0.091,0.153-0.105,0.385-0.105
			c0.504,0,0.84,0.14,0.84,0.35c0,0.028-0.014,0.098-0.035,0.168c-0.07,0.259-0.077,0.343-0.091,1.008
			c0.378-0.119,0.462-0.161,0.637-0.301c0.049-0.035,0.084-0.049,0.147-0.049c0.224,0,0.42,0.098,0.42,0.21
			c0,0.084-0.049,0.126-0.245,0.224c-0.224,0.105-0.441,0.175-0.952,0.308V3.85c0,1.106-0.188,1.673-0.714,2.226
			c-0.308,0.315-0.616,0.546-1.064,0.763l-0.056-0.091c0.511-0.399,0.756-0.665,0.987-1.078c0.329-0.574,0.44-1.197,0.44-2.401
			c0-0.154,0-0.175,0-0.357c-0.314,0.063-0.56,0.091-0.812,0.091c-0.469,0-0.784-0.14-1.099-0.497L10.183,2.422z"/>
		<path d="M14.942,2.408c0.287,0.294,0.47,0.385,0.771,0.385c0.272,0,0.567-0.042,0.889-0.133c0.141-0.455,0.238-0.945,0.238-1.19
			c0-0.21-0.105-0.301-0.497-0.434c0.091-0.049,0.126-0.063,0.217-0.063c0.161,0,0.393,0.049,0.603,0.133
			c0.21,0.077,0.314,0.175,0.314,0.28c0,0.049,0,0.049-0.084,0.168c-0.091,0.133-0.245,0.504-0.42,1.001
			c0.393-0.14,0.645-0.273,0.813-0.427c0.111-0.105,0.14-0.119,0.195-0.119c0.092,0,0.26,0.035,0.371,0.077
			c0.077,0.028,0.112,0.07,0.112,0.126c0,0.119-0.112,0.21-0.406,0.336c-0.314,0.147-0.784,0.301-1.225,0.413
			c-0.084,0.238-0.084,0.238-0.294,0.889c-0.141,0.42-0.141,0.42-0.525,1.561c-0.28,0.833-0.371,1.008-0.518,1.008
			c-0.07,0-0.119-0.042-0.161-0.14c-0.056-0.112-0.098-0.287-0.098-0.406c0-0.112,0.007-0.133,0.153-0.343
			c0.351-0.511,0.623-1.12,1.1-2.506c-0.267,0.049-0.47,0.07-0.673,0.07c-0.427,0-0.699-0.182-0.959-0.63L14.942,2.408z
			 M17.735,4.823c-0.007,0.105-0.007,0.189-0.007,0.217c0,0.399,0.189,0.7,0.532,0.847C18.45,5.971,18.737,6.02,19.01,6.02
			c0.287,0,0.448-0.021,0.672-0.105c0.049-0.021,0.091-0.028,0.119-0.028c0.077,0,0.238,0.077,0.357,0.168
			c0.084,0.07,0.126,0.133,0.126,0.196c0,0.154-0.273,0.231-0.826,0.231c-0.539,0-0.987-0.077-1.295-0.224
			c-0.378-0.182-0.596-0.546-0.596-1.015c0-0.154,0.015-0.273,0.063-0.441L17.735,4.823z M17.925,3.528
			c0.504-0.308,1.078-0.476,1.624-0.476c0.147,0,0.329,0.049,0.441,0.126c0.069,0.042,0.111,0.119,0.111,0.196
			c0,0.119-0.063,0.154-0.266,0.168c-0.259,0.007-0.343,0.035-0.539,0.14c-0.14,0.077-0.147,0.077-0.385,0.238
			c-0.134,0.084-0.134,0.084-0.245,0.147l-0.042-0.063c0.084-0.084,0.084-0.084,0.336-0.315c0.063-0.056,0.126-0.119,0.343-0.329
			c-0.462,0-0.833,0.077-1.337,0.259L17.925,3.528z M18.919,1.218c0.385,0.119,0.742,0.287,0.945,0.441
			c0.153,0.112,0.202,0.203,0.202,0.35c0,0.189-0.084,0.35-0.175,0.35c-0.056,0-0.104-0.042-0.161-0.133
			c-0.245-0.399-0.44-0.609-0.854-0.924L18.919,1.218z M19.521,0.735c0.525,0.133,0.813,0.238,1.008,0.371
			c0.141,0.105,0.189,0.196,0.189,0.364c0,0.175-0.063,0.308-0.146,0.308c-0.05,0-0.092-0.035-0.161-0.14
			c-0.238-0.322-0.532-0.588-0.932-0.812L19.521,0.735z"/>
		<path d="M22.755,1.771c0.168,0.252,0.28,0.371,0.483,0.504c0.244,0.154,0.454,0.231,0.818,0.301
			c0.196-0.973,0.217-1.078,0.217-1.246c0-0.238-0.098-0.385-0.378-0.581c0.057-0.021,0.077-0.028,0.119-0.028
			c0.126,0,0.309,0.077,0.519,0.217c0.224,0.154,0.363,0.35,0.363,0.504c0,0.063-0.021,0.119-0.091,0.203
			c-0.119,0.168-0.196,0.357-0.385,0.973c0.146,0.042,0.21,0.077,0.28,0.154c0.056,0.063,0.098,0.161,0.098,0.231
			c0,0.091-0.084,0.147-0.224,0.147c-0.07,0-0.161-0.014-0.273-0.035c-0.14,0.469-0.224,0.882-0.28,1.295
			c0.168,0.035,0.287,0.049,0.357,0.049c0.021,0,0.035,0,0.056-0.007c0.042-0.007,0.07-0.007,0.077-0.007
			c0.182,0,0.42,0.217,0.42,0.378c0,0.098-0.091,0.161-0.238,0.161c-0.195,0-0.489-0.049-0.741-0.126
			c-0.015,0.168-0.021,0.252-0.021,0.343c0,0.714,0.399,1.113,1.106,1.113c0.476,0,0.889-0.182,1.105-0.476
			c0.154-0.21,0.231-0.448,0.231-0.714c0-0.581-0.393-1.239-1.058-1.75l0.077-0.091c1.036,0.637,1.478,1.218,1.478,1.932
			c0,0.847-0.729,1.491-1.701,1.491c-0.364,0-0.714-0.105-0.952-0.287c-0.364-0.273-0.539-0.693-0.539-1.302
			c0-0.084,0.007-0.175,0.014-0.35c-0.272-0.126-0.412-0.21-0.56-0.357c-0.189-0.196-0.308-0.455-0.308-0.693
			c0-0.161,0.076-0.336,0.217-0.483c0.168-0.168,0.343-0.266,0.679-0.371c-0.28-0.105-0.476-0.231-0.679-0.434
			c-0.147-0.154-0.231-0.294-0.364-0.616L22.755,1.771z M23.168,3.332c-0.105,0.112-0.154,0.217-0.154,0.35
			c0,0.294,0.238,0.511,0.721,0.658c0.035-0.35,0.099-0.749,0.21-1.274C23.539,3.087,23.336,3.164,23.168,3.332z"/>
		<path d="M31.701,6.272c0.756-0.224,1.238-0.511,1.638-0.973c0.413-0.469,0.623-1.043,0.623-1.687c0-0.679-0.273-1.218-0.791-1.547
			C32.863,1.862,32.4,1.743,31.96,1.743c-0.084,0-0.133,0-0.245,0.014c0.168,0.245,0.217,0.378,0.217,0.581
			c0,0.546-0.392,1.568-0.924,2.422c-0.441,0.7-0.784,1.043-1.043,1.043c-0.119,0-0.231-0.056-0.308-0.147
			c-0.063-0.084-0.077-0.112-0.196-0.448c-0.063-0.182-0.105-0.266-0.308-0.658c-0.112-0.224-0.161-0.413-0.161-0.637
			c0-0.441,0.237-0.959,0.63-1.386c0.566-0.602,1.491-0.98,2.408-0.98c0.707,0,1.357,0.231,1.806,0.644
			c0.448,0.413,0.672,0.966,0.672,1.645c0,0.875-0.511,1.652-1.393,2.121c-0.406,0.217-0.771,0.329-1.365,0.434L31.701,6.272z
			 M29.397,4.095c0,0.336,0.105,0.679,0.28,0.924c0.098,0.126,0.189,0.203,0.266,0.203c0.154,0,0.49-0.378,0.833-0.924
			c0.519-0.826,0.89-1.729,0.89-2.163c0-0.105-0.021-0.175-0.099-0.35C30.35,2.002,29.397,3.017,29.397,4.095z"/>
		<path d="M4.723,14.42c-0.252,0.882-0.644,2.408-0.812,3.094c-0.141,0.616-0.183,0.84-0.183,1.19
			c-0.014,0.448-0.027,0.504-0.098,0.616c-0.07,0.098-0.154,0.154-0.266,0.154c-0.238,0-0.435-0.196-0.603-0.63
			c-0.28-0.714-0.448-1.778-0.448-2.814c0-1.288,0.154-2.464,0.63-4.662c0.183-0.868,0.211-1.022,0.211-1.26
			c0-0.42-0.112-0.756-0.406-1.232c0.322,0.014,0.588,0.196,0.979,0.7c0.322,0.406,0.504,0.798,0.504,1.064
			c0,0.154,0,0.154-0.224,0.616c-0.672,1.4-1.064,3.066-1.064,4.564c0,0.714,0.057,1.162,0.225,1.736l0.588-1.4l0.756-1.806
			L4.723,14.42z M6.123,11.886c0.672,0.434,1.105,0.574,1.806,0.574c0.49,0,1.022-0.07,1.596-0.196c0-0.266,0-0.49,0-0.616
			c0-1.568-0.014-1.75-0.195-1.946C9.161,9.521,8.853,9.422,8.405,9.38c0.195-0.182,0.308-0.224,0.672-0.224
			c0.308,0,0.686,0.056,0.951,0.126c0.406,0.126,0.616,0.294,0.616,0.504c0,0.098,0,0.112-0.126,0.434
			c-0.153,0.406-0.237,0.91-0.294,1.876c0.645-0.182,1.05-0.364,1.288-0.574c0.14-0.14,0.182-0.154,0.308-0.154
			c0.169,0,0.49,0.084,0.658,0.182c0.112,0.056,0.183,0.154,0.183,0.252c0,0.308-1.022,0.728-2.479,1.008
			c0,1.862,0.042,2.632,0.183,3.808c1.624,0.434,2.31,0.98,2.31,1.792c0,0.294-0.126,0.518-0.28,0.518
			c-0.111,0-0.21-0.07-0.489-0.35c-0.616-0.63-0.967-0.882-1.513-1.12c0.015,0.126,0.015,0.238,0.015,0.336
			c0,1.008-0.841,1.61-2.24,1.61c-1.218,0-2.072-0.588-2.072-1.428c0-0.966,1.036-1.582,2.632-1.582
			c0.267,0,0.462,0.014,0.854,0.042c0-0.126,0-0.21,0-0.238L9.553,14.7l-0.014-1.792c-0.42,0.084-0.826,0.112-1.232,0.112
			c-1.021,0-1.609-0.252-2.31-0.98L6.123,11.886z M8.265,16.996c-1.105,0-1.792,0.364-1.792,0.98c0,0.49,0.546,0.826,1.372,0.826
			c0.771,0,1.316-0.224,1.54-0.658c0.14-0.252,0.182-0.462,0.182-0.98C9.175,17.052,8.783,16.996,8.265,16.996z"/>
		<path d="M14.663,15.498c0.504,0.07,0.952,0.112,1.344,0.112h5.166c0.252-0.336,0.336-0.434,0.588-0.742
			c0.434,0.364,0.574,0.49,0.98,0.854c0.042,0.056,0.069,0.098,0.069,0.112c0,0.042-0.042,0.098-0.069,0.098h-6.734
			c-0.35,0-0.448,0-1.246,0.056L14.663,15.498z M15.363,8.218c0.518,0.294,0.979,0.63,1.273,0.924
			c0.182,0.168,0.266,0.336,0.266,0.518c0,0.308-0.237,0.728-0.42,0.728c-0.098,0-0.153-0.07-0.21-0.238
			c-0.21-0.63-0.42-1.008-1.008-1.834L15.363,8.218z M20.725,10.654c0.183-0.238,0.252-0.308,0.462-0.532
			c0.309,0.224,0.393,0.294,0.687,0.532c0.084,0.07,0.126,0.112,0.126,0.168c0,0.07,0,0.07-0.448,0.42c0,0.406,0,0.644,0,0.938
			c0,0.812,0.014,1.526,0.056,2.618c-0.014,0.084-0.042,0.126-0.111,0.14c-0.057,0.014-0.42,0.042-0.616,0.042
			c-0.084,0-0.126-0.028-0.14-0.098v-0.406H16.23v0.406c0,0.112-0.014,0.154-0.056,0.182c-0.07,0.042-0.364,0.07-0.686,0.07
			c-0.154,0-0.21-0.042-0.21-0.154c0-0.014,0-0.028,0-0.042c0.084-1.148,0.098-1.75,0.098-3.08c0-0.63,0-0.672-0.042-1.736
			c0.462,0.21,0.602,0.28,1.021,0.532h3.374c0.588-0.952,1.036-1.932,1.204-2.618c0.477,0.182,0.477,0.196,0.616,0.238
			c0.504,0.196,0.63,0.28,0.63,0.378c0,0.126-0.056,0.14-0.602,0.224c-0.603,0.77-0.771,0.966-1.54,1.778H20.725z M16.553,20.146
			c0,0.112-0.028,0.14-0.112,0.168c-0.084,0.028-0.573,0.098-0.672,0.098c-0.098,0-0.14-0.042-0.14-0.126c0,0,0-0.014,0-0.028
			c0.028-1.064,0.042-1.764,0.042-2.618c0-0.448-0.014-0.714-0.042-1.232c0.49,0.252,0.644,0.336,1.12,0.644h3.374
			c0.182-0.238,0.252-0.308,0.448-0.518c0.336,0.21,0.447,0.28,0.783,0.518c0.099,0.084,0.141,0.14,0.141,0.168
			c0,0.07-0.183,0.21-0.435,0.35c0,0.182,0,0.294,0,0.406c0,0.28,0,0.28,0.042,1.708c0,0.014,0,0.042,0,0.056
			c0,0.14-0.266,0.224-0.714,0.224c-0.126,0-0.168-0.028-0.168-0.098v-0.308h-3.668V20.146z M18.093,12.376v-1.4H16.23v1.4H18.093z
			 M16.23,14.154h1.862v-1.456H16.23V14.154z M16.553,19.236h3.668v-1.862h-3.668V19.236z M17.449,7.868
			c0.476,0.28,0.686,0.42,1.092,0.756c0.336,0.266,0.462,0.448,0.462,0.672c0,0.378-0.238,0.798-0.462,0.798
			c-0.084,0-0.141-0.056-0.196-0.21c-0.056-0.168-0.182-0.476-0.322-0.77c-0.224-0.49-0.35-0.686-0.699-1.148L17.449,7.868z
			 M20.739,10.976h-1.82v1.4h1.82V10.976z M18.919,12.698v1.456h1.82v-1.456H18.919z M24.757,12.418
			c0.14,1.358,0.392,2.394,0.854,3.528c0.364,0.882,0.883,1.736,1.429,2.352c0.308,0.35,0.476,0.49,0.952,0.784l-0.015,0.14
			c-0.28,0.056-0.364,0.098-0.56,0.336c-0.168,0.224-0.252,0.378-0.378,0.756c-0.771-0.966-1.246-1.932-1.666-3.276
			c-0.378-1.246-0.658-2.8-0.771-4.354c-0.111,1.372-0.224,2.002-0.462,2.926c-0.406,1.456-1.078,2.8-1.89,3.78
			c-0.406,0.476-0.687,0.728-1.372,1.204l-0.14-0.154c0.63-0.63,0.909-0.994,1.344-1.68c1.036-1.708,1.498-3.388,1.708-6.342h-0.84
			c-0.42,0-0.757,0.028-1.093,0.07l-0.084-0.476c0.364,0.042,0.868,0.084,1.177,0.084h0.867c0.042-0.882,0.057-1.498,0.057-2.744
			c0-0.504-0.015-0.812-0.057-1.316c1.261,0.112,1.526,0.154,1.526,0.308c0,0.098-0.112,0.182-0.602,0.392
			c0,0.294-0.015,0.56-0.015,0.7c-0.027,1.974-0.027,1.974-0.069,2.66h1.105c0.309-0.364,0.406-0.476,0.729-0.826
			c0.462,0.378,0.602,0.49,1.05,0.91c0.056,0.056,0.098,0.126,0.098,0.154c0,0.056-0.07,0.084-0.168,0.084H24.757z M25.471,8.862
			c0.826,0.644,1.274,1.148,1.274,1.47c0,0.322-0.336,0.882-0.519,0.882c-0.153,0-0.195-0.084-0.28-0.56
			c-0.098-0.476-0.195-0.728-0.615-1.694L25.471,8.862z"/>
		<path d="M41.907,11.368c0-2.464,0-2.618-0.07-3.542c0.308,0.042,0.56,0.07,0.714,0.084c0.63,0.084,0.896,0.182,0.896,0.322
			c0,0.126-0.141,0.196-0.616,0.35c-0.015,0.938-0.015,1.484-0.015,2.016v1.036l3.011-0.868c0.168-0.322,0.224-0.42,0.42-0.728
			c0.434,0.252,0.56,0.336,0.979,0.602c0.154,0.126,0.21,0.168,0.21,0.21c0,0.07-0.056,0.112-0.49,0.378
			c-0.041,2.086-0.21,3.64-0.476,4.508c-0.21,0.658-0.56,0.882-1.68,1.064c-0.07-0.462-0.154-0.63-0.393-0.784
			c-0.252-0.182-0.573-0.294-1.204-0.448v-0.21c0.967,0.14,1.61,0.21,1.961,0.21c0.363,0,0.447-0.126,0.615-0.84
			c0.141-0.602,0.267-2.254,0.267-3.402c0-0.084,0-0.182-0.015-0.322l-3.206,0.952c0,3.402,0,3.402,0.028,5.096
			c0,0.014,0,0.028,0,0.028c0,0.182-0.14,0.238-0.546,0.238c-0.07,0-0.126,0.014-0.168,0.014c-0.028,0-0.056,0-0.07,0
			c-0.153,0-0.224-0.056-0.224-0.196c0.042-1.82,0.056-2.114,0.056-2.478v-2.436l-2.744,0.812v5.334c0,0.644,0,0.644,3.935,0.644
			c2.016,0,3.206-0.028,3.542-0.084c0.378-0.07,0.518-0.238,0.7-0.882c0.042-0.182,0.098-0.392,0.615-2.562l0.21,0.028l-0.069,2.534
			c0,0.056,0.014,0.308,0.042,0.392c0.027,0.182,0.069,0.224,0.321,0.336c0.196,0.084,0.295,0.21,0.295,0.364
			c0,0.266-0.211,0.448-0.589,0.546c-0.531,0.126-1.834,0.182-4.55,0.182c-4.102,0-4.563-0.028-5.04-0.308
			c-0.279-0.168-0.392-0.448-0.405-1.036c0-0.63,0-1.078,0.014-1.4c0-0.672,0.014-1.176,0.014-1.33v-2.478l-1.021,0.308
			c-0.252,0.07-0.687,0.266-1.177,0.504l-0.252-0.518c0.322-0.042,0.98-0.182,1.33-0.294l1.12-0.322v-2.884
			c0-0.252-0.014-0.574-0.042-1.092c1.316,0.112,1.666,0.182,1.652,0.35c-0.015,0.154-0.196,0.28-0.645,0.406v2.94l2.759-0.812
			V11.368z"/>
	</g>
	<g>
		<path d="M9.623,28.978c-0.301,1.239-0.427,1.876-0.427,2.121c0,0.021,0,0.049,0,0.077c0.007,0.056,0.007,0.084,0.007,0.112
			c0,0.224-0.057,0.329-0.176,0.329c-0.104,0-0.21-0.091-0.294-0.252c-0.224-0.434-0.336-1.043-0.336-1.813
			c0-0.518,0.035-0.854,0.154-1.589c0.091-0.511,0.112-0.707,0.112-0.868c0-0.217-0.084-0.434-0.252-0.672
			c0.153,0.007,0.294,0.098,0.462,0.273c0.203,0.224,0.308,0.413,0.308,0.56c0,0.091-0.007,0.133-0.098,0.385
			c-0.238,0.665-0.364,1.33-0.364,1.946c0,0.518,0.049,0.847,0.168,1.092c0.084-0.21,0.504-1.351,0.63-1.729L9.623,28.978z
			 M10.183,27.822c0.315,0.224,0.483,0.28,0.813,0.28c0.287,0,0.692-0.056,1.008-0.147c0-0.105,0-0.182,0-0.245
			c0-0.581-0.021-0.861-0.084-0.98c-0.07-0.14-0.267-0.245-0.595-0.322c0.104-0.091,0.153-0.105,0.385-0.105
			c0.504,0,0.84,0.14,0.84,0.35c0,0.028-0.014,0.098-0.035,0.168c-0.07,0.259-0.077,0.343-0.091,1.008
			c0.378-0.119,0.462-0.161,0.637-0.301c0.049-0.035,0.084-0.049,0.147-0.049c0.224,0,0.42,0.098,0.42,0.21
			c0,0.084-0.049,0.126-0.245,0.224c-0.224,0.105-0.441,0.175-0.952,0.308v1.029c0,1.106-0.188,1.673-0.714,2.226
			c-0.308,0.315-0.616,0.546-1.064,0.763l-0.056-0.091c0.511-0.399,0.756-0.665,0.987-1.078c0.329-0.574,0.44-1.197,0.44-2.401
			c0-0.154,0-0.175,0-0.357c-0.314,0.063-0.56,0.091-0.812,0.091c-0.469,0-0.784-0.14-1.099-0.497L10.183,27.822z"/>
		<path d="M14.942,27.809c0.287,0.294,0.47,0.385,0.771,0.385c0.272,0,0.567-0.042,0.889-0.133c0.141-0.455,0.238-0.945,0.238-1.19
			c0-0.21-0.105-0.301-0.497-0.434c0.091-0.049,0.126-0.063,0.217-0.063c0.161,0,0.393,0.049,0.603,0.133
			c0.21,0.077,0.314,0.175,0.314,0.28c0,0.049,0,0.049-0.084,0.168c-0.091,0.133-0.245,0.504-0.42,1.001
			c0.393-0.14,0.645-0.273,0.813-0.427c0.111-0.105,0.14-0.119,0.195-0.119c0.092,0,0.26,0.035,0.371,0.077
			c0.077,0.028,0.112,0.07,0.112,0.126c0,0.119-0.112,0.21-0.406,0.336c-0.314,0.147-0.784,0.301-1.225,0.413
			c-0.084,0.238-0.084,0.238-0.294,0.889c-0.141,0.42-0.141,0.42-0.525,1.561c-0.28,0.833-0.371,1.008-0.518,1.008
			c-0.07,0-0.119-0.042-0.161-0.14c-0.056-0.112-0.098-0.287-0.098-0.406c0-0.112,0.007-0.133,0.153-0.343
			c0.351-0.511,0.623-1.12,1.1-2.506c-0.267,0.049-0.47,0.07-0.673,0.07c-0.427,0-0.699-0.182-0.959-0.63L14.942,27.809z
			 M17.735,30.224c-0.007,0.105-0.007,0.189-0.007,0.217c0,0.399,0.189,0.7,0.532,0.847c0.189,0.084,0.477,0.133,0.749,0.133
			c0.287,0,0.448-0.021,0.672-0.105c0.049-0.021,0.091-0.028,0.119-0.028c0.077,0,0.238,0.077,0.357,0.168
			c0.084,0.07,0.126,0.133,0.126,0.196c0,0.154-0.273,0.231-0.826,0.231c-0.539,0-0.987-0.077-1.295-0.224
			c-0.378-0.182-0.596-0.546-0.596-1.015c0-0.154,0.015-0.273,0.063-0.441L17.735,30.224z M17.925,28.929
			c0.504-0.308,1.078-0.476,1.624-0.476c0.147,0,0.329,0.049,0.441,0.126c0.069,0.042,0.111,0.119,0.111,0.196
			c0,0.119-0.063,0.154-0.266,0.168c-0.259,0.007-0.343,0.035-0.539,0.14c-0.14,0.077-0.147,0.077-0.385,0.238
			c-0.134,0.084-0.134,0.084-0.245,0.147l-0.042-0.063c0.084-0.084,0.084-0.084,0.336-0.315c0.063-0.056,0.126-0.119,0.343-0.329
			c-0.462,0-0.833,0.077-1.337,0.259L17.925,28.929z M18.919,26.619c0.385,0.119,0.742,0.287,0.945,0.441
			c0.153,0.112,0.202,0.203,0.202,0.35c0,0.189-0.084,0.35-0.175,0.35c-0.056,0-0.104-0.042-0.161-0.133
			c-0.245-0.399-0.44-0.609-0.854-0.924L18.919,26.619z M19.521,26.136c0.525,0.133,0.813,0.238,1.008,0.371
			c0.141,0.105,0.189,0.196,0.189,0.364c0,0.175-0.063,0.308-0.146,0.308c-0.05,0-0.092-0.035-0.161-0.14
			c-0.238-0.322-0.532-0.588-0.932-0.812L19.521,26.136z"/>
		<path d="M22.755,27.171c0.168,0.252,0.28,0.371,0.483,0.504c0.244,0.154,0.454,0.231,0.818,0.301
			c0.196-0.973,0.217-1.078,0.217-1.246c0-0.238-0.098-0.385-0.378-0.581c0.057-0.021,0.077-0.028,0.119-0.028
			c0.126,0,0.309,0.077,0.519,0.217c0.224,0.154,0.363,0.35,0.363,0.504c0,0.063-0.021,0.119-0.091,0.203
			c-0.119,0.168-0.196,0.357-0.385,0.973c0.146,0.042,0.21,0.077,0.28,0.154c0.056,0.063,0.098,0.161,0.098,0.231
			c0,0.091-0.084,0.147-0.224,0.147c-0.07,0-0.161-0.014-0.273-0.035c-0.14,0.469-0.224,0.882-0.28,1.295
			c0.168,0.035,0.287,0.049,0.357,0.049c0.021,0,0.035,0,0.056-0.007c0.042-0.007,0.07-0.007,0.077-0.007
			c0.182,0,0.42,0.217,0.42,0.378c0,0.098-0.091,0.161-0.238,0.161c-0.195,0-0.489-0.049-0.741-0.126
			c-0.015,0.168-0.021,0.252-0.021,0.343c0,0.714,0.399,1.113,1.106,1.113c0.476,0,0.889-0.182,1.105-0.476
			c0.154-0.21,0.231-0.448,0.231-0.714c0-0.581-0.393-1.239-1.058-1.75l0.077-0.091c1.036,0.637,1.478,1.218,1.478,1.932
			c0,0.847-0.729,1.491-1.701,1.491c-0.364,0-0.714-0.105-0.952-0.287c-0.364-0.273-0.539-0.693-0.539-1.302
			c0-0.084,0.007-0.175,0.014-0.35c-0.272-0.126-0.412-0.21-0.56-0.357c-0.189-0.196-0.308-0.455-0.308-0.693
			c0-0.161,0.076-0.336,0.217-0.483c0.168-0.168,0.343-0.266,0.679-0.371c-0.28-0.105-0.476-0.231-0.679-0.434
			c-0.147-0.154-0.231-0.294-0.364-0.616L22.755,27.171z M23.168,28.732c-0.105,0.112-0.154,0.217-0.154,0.35
			c0,0.294,0.238,0.511,0.721,0.658c0.035-0.35,0.099-0.749,0.21-1.274C23.539,28.487,23.336,28.564,23.168,28.732z"/>
		<path d="M31.701,31.672c0.756-0.224,1.238-0.511,1.638-0.973c0.413-0.469,0.623-1.043,0.623-1.687
			c0-0.679-0.273-1.218-0.791-1.547c-0.308-0.203-0.771-0.322-1.211-0.322c-0.084,0-0.133,0-0.245,0.014
			c0.168,0.245,0.217,0.378,0.217,0.581c0,0.546-0.392,1.568-0.924,2.422c-0.441,0.7-0.784,1.043-1.043,1.043
			c-0.119,0-0.231-0.056-0.308-0.147c-0.063-0.084-0.077-0.112-0.196-0.448c-0.063-0.182-0.105-0.266-0.308-0.658
			c-0.112-0.224-0.161-0.413-0.161-0.637c0-0.441,0.237-0.959,0.63-1.386c0.566-0.602,1.491-0.98,2.408-0.98
			c0.707,0,1.357,0.231,1.806,0.644c0.448,0.413,0.672,0.966,0.672,1.645c0,0.875-0.511,1.652-1.393,2.121
			c-0.406,0.217-0.771,0.329-1.365,0.434L31.701,31.672z M29.397,29.496c0,0.336,0.105,0.679,0.28,0.924
			c0.098,0.126,0.189,0.203,0.266,0.203c0.154,0,0.49-0.378,0.833-0.924c0.519-0.826,0.89-1.729,0.89-2.163
			c0-0.105-0.021-0.175-0.099-0.35C30.35,27.402,29.397,28.417,29.397,29.496z"/>
		<path d="M4.723,39.821c-0.252,0.882-0.644,2.408-0.812,3.094c-0.141,0.616-0.183,0.84-0.183,1.19
			c-0.014,0.448-0.027,0.504-0.098,0.616c-0.07,0.098-0.154,0.154-0.266,0.154c-0.238,0-0.435-0.196-0.603-0.63
			c-0.28-0.714-0.448-1.778-0.448-2.814c0-1.288,0.154-2.464,0.63-4.662c0.183-0.868,0.211-1.022,0.211-1.26
			c0-0.42-0.112-0.756-0.406-1.232c0.322,0.014,0.588,0.196,0.979,0.7c0.322,0.406,0.504,0.798,0.504,1.064
			c0,0.154,0,0.154-0.224,0.616c-0.672,1.4-1.064,3.066-1.064,4.564c0,0.714,0.057,1.162,0.225,1.736l0.588-1.4l0.756-1.806
			L4.723,39.821z M6.123,37.287c0.672,0.434,1.105,0.574,1.806,0.574c0.49,0,1.022-0.07,1.596-0.196c0-0.266,0-0.49,0-0.616
			c0-1.568-0.014-1.75-0.195-1.946c-0.168-0.182-0.477-0.28-0.924-0.322c0.195-0.182,0.308-0.224,0.672-0.224
			c0.308,0,0.686,0.056,0.951,0.126c0.406,0.126,0.616,0.294,0.616,0.504c0,0.098,0,0.112-0.126,0.434
			c-0.153,0.406-0.237,0.91-0.294,1.876c0.645-0.182,1.05-0.364,1.288-0.574c0.14-0.14,0.182-0.154,0.308-0.154
			c0.169,0,0.49,0.084,0.658,0.182c0.112,0.056,0.183,0.154,0.183,0.252c0,0.308-1.022,0.728-2.479,1.008
			c0,1.862,0.042,2.632,0.183,3.808c1.624,0.434,2.31,0.98,2.31,1.792c0,0.294-0.126,0.518-0.28,0.518
			c-0.111,0-0.21-0.07-0.489-0.35c-0.616-0.63-0.967-0.882-1.513-1.12c0.015,0.126,0.015,0.238,0.015,0.336
			c0,1.008-0.841,1.61-2.24,1.61c-1.218,0-2.072-0.588-2.072-1.428c0-0.966,1.036-1.582,2.632-1.582
			c0.267,0,0.462,0.014,0.854,0.042c0-0.126,0-0.21,0-0.238l-0.028-1.498l-0.014-1.792c-0.42,0.084-0.826,0.112-1.232,0.112
			c-1.021,0-1.609-0.252-2.31-0.98L6.123,37.287z M8.265,42.396c-1.105,0-1.792,0.364-1.792,0.98c0,0.49,0.546,0.826,1.372,0.826
			c0.771,0,1.316-0.224,1.54-0.658c0.14-0.252,0.182-0.462,0.182-0.98C9.175,42.453,8.783,42.396,8.265,42.396z"/>
		<path d="M14.663,40.898c0.504,0.07,0.952,0.112,1.344,0.112h5.166c0.252-0.336,0.336-0.434,0.588-0.742
			c0.434,0.364,0.574,0.49,0.98,0.854c0.042,0.056,0.069,0.098,0.069,0.112c0,0.042-0.042,0.098-0.069,0.098h-6.734
			c-0.35,0-0.448,0-1.246,0.056L14.663,40.898z M15.363,33.619c0.518,0.294,0.979,0.63,1.273,0.924
			c0.182,0.168,0.266,0.336,0.266,0.518c0,0.308-0.237,0.728-0.42,0.728c-0.098,0-0.153-0.07-0.21-0.238
			c-0.21-0.63-0.42-1.008-1.008-1.834L15.363,33.619z M20.725,36.055c0.183-0.238,0.252-0.308,0.462-0.532
			c0.309,0.224,0.393,0.294,0.687,0.532c0.084,0.07,0.126,0.112,0.126,0.168c0,0.07,0,0.07-0.448,0.42c0,0.406,0,0.644,0,0.938
			c0,0.812,0.014,1.526,0.056,2.618c-0.014,0.084-0.042,0.126-0.111,0.14c-0.057,0.014-0.42,0.042-0.616,0.042
			c-0.084,0-0.126-0.028-0.14-0.098v-0.406H16.23v0.406c0,0.112-0.014,0.154-0.056,0.182c-0.07,0.042-0.364,0.07-0.686,0.07
			c-0.154,0-0.21-0.042-0.21-0.154c0-0.014,0-0.028,0-0.042c0.084-1.148,0.098-1.75,0.098-3.08c0-0.63,0-0.672-0.042-1.736
			c0.462,0.21,0.602,0.28,1.021,0.532h3.374c0.588-0.952,1.036-1.932,1.204-2.618c0.477,0.182,0.477,0.196,0.616,0.238
			c0.504,0.196,0.63,0.28,0.63,0.378c0,0.126-0.056,0.14-0.602,0.224c-0.603,0.77-0.771,0.966-1.54,1.778H20.725z M16.553,45.547
			c0,0.112-0.028,0.14-0.112,0.168c-0.084,0.028-0.573,0.098-0.672,0.098c-0.098,0-0.14-0.042-0.14-0.126c0,0,0-0.014,0-0.028
			c0.028-1.064,0.042-1.764,0.042-2.618c0-0.448-0.014-0.714-0.042-1.232c0.49,0.252,0.644,0.336,1.12,0.644h3.374
			c0.182-0.238,0.252-0.308,0.448-0.518c0.336,0.21,0.447,0.28,0.783,0.518c0.099,0.084,0.141,0.14,0.141,0.168
			c0,0.07-0.183,0.21-0.435,0.35c0,0.182,0,0.294,0,0.406c0,0.28,0,0.28,0.042,1.708c0,0.014,0,0.042,0,0.056
			c0,0.14-0.266,0.224-0.714,0.224c-0.126,0-0.168-0.028-0.168-0.098v-0.308h-3.668V45.547z M18.093,37.777v-1.4H16.23v1.4H18.093z
			 M16.23,39.555h1.862v-1.456H16.23V39.555z M16.553,44.637h3.668v-1.862h-3.668V44.637z M17.449,33.269
			c0.476,0.28,0.686,0.42,1.092,0.756c0.336,0.266,0.462,0.448,0.462,0.672c0,0.378-0.238,0.798-0.462,0.798
			c-0.084,0-0.141-0.056-0.196-0.21c-0.056-0.168-0.182-0.476-0.322-0.77c-0.224-0.49-0.35-0.686-0.699-1.148L17.449,33.269z
			 M20.739,36.376h-1.82v1.4h1.82V36.376z M18.919,38.099v1.456h1.82v-1.456H18.919z M24.757,37.819
			c0.14,1.358,0.392,2.394,0.854,3.528c0.364,0.882,0.883,1.736,1.429,2.352c0.308,0.35,0.476,0.49,0.952,0.784l-0.015,0.14
			c-0.28,0.056-0.364,0.098-0.56,0.336c-0.168,0.224-0.252,0.378-0.378,0.756c-0.771-0.966-1.246-1.932-1.666-3.276
			c-0.378-1.246-0.658-2.8-0.771-4.354c-0.111,1.372-0.224,2.002-0.462,2.926c-0.406,1.456-1.078,2.8-1.89,3.78
			c-0.406,0.476-0.687,0.728-1.372,1.204l-0.14-0.154c0.63-0.63,0.909-0.994,1.344-1.68c1.036-1.708,1.498-3.388,1.708-6.342h-0.84
			c-0.42,0-0.757,0.028-1.093,0.07l-0.084-0.476c0.364,0.042,0.868,0.084,1.177,0.084h0.867c0.042-0.882,0.057-1.498,0.057-2.744
			c0-0.504-0.015-0.812-0.057-1.316c1.261,0.112,1.526,0.154,1.526,0.308c0,0.098-0.112,0.182-0.602,0.392
			c0,0.294-0.015,0.56-0.015,0.7c-0.027,1.974-0.027,1.974-0.069,2.66h1.105c0.309-0.364,0.406-0.476,0.729-0.826
			c0.462,0.378,0.602,0.49,1.05,0.91c0.056,0.056,0.098,0.126,0.098,0.154c0,0.056-0.07,0.084-0.168,0.084H24.757z M25.471,34.263
			c0.826,0.644,1.274,1.148,1.274,1.47c0,0.322-0.336,0.882-0.519,0.882c-0.153,0-0.195-0.084-0.28-0.56
			c-0.098-0.476-0.195-0.728-0.615-1.694L25.471,34.263z"/>
		<path d="M41.907,36.769c0-2.464,0-2.618-0.07-3.542c0.308,0.042,0.56,0.07,0.714,0.084c0.63,0.084,0.896,0.182,0.896,0.322
			c0,0.126-0.141,0.196-0.616,0.35c-0.015,0.938-0.015,1.484-0.015,2.016v1.036l3.011-0.868c0.168-0.322,0.224-0.42,0.42-0.728
			c0.434,0.252,0.56,0.336,0.979,0.602c0.154,0.126,0.21,0.168,0.21,0.21c0,0.07-0.056,0.112-0.49,0.378
			c-0.041,2.086-0.21,3.64-0.476,4.508c-0.21,0.658-0.56,0.882-1.68,1.064c-0.07-0.462-0.154-0.63-0.393-0.784
			c-0.252-0.182-0.573-0.294-1.204-0.448v-0.21c0.967,0.14,1.61,0.21,1.961,0.21c0.363,0,0.447-0.126,0.615-0.84
			c0.141-0.602,0.267-2.254,0.267-3.402c0-0.084,0-0.182-0.015-0.322l-3.206,0.952c0,3.402,0,3.402,0.028,5.096
			c0,0.014,0,0.028,0,0.028c0,0.182-0.14,0.238-0.546,0.238c-0.07,0-0.126,0.014-0.168,0.014c-0.028,0-0.056,0-0.07,0
			c-0.153,0-0.224-0.056-0.224-0.196c0.042-1.82,0.056-2.114,0.056-2.478v-2.436l-2.744,0.812v5.334c0,0.644,0,0.644,3.935,0.644
			c2.016,0,3.206-0.028,3.542-0.084c0.378-0.07,0.518-0.238,0.7-0.882c0.042-0.182,0.098-0.392,0.615-2.562l0.21,0.028l-0.069,2.534
			c0,0.056,0.014,0.308,0.042,0.392c0.027,0.182,0.069,0.224,0.321,0.336c0.196,0.084,0.295,0.21,0.295,0.364
			c0,0.266-0.211,0.448-0.589,0.546c-0.531,0.126-1.834,0.182-4.55,0.182c-4.102,0-4.563-0.028-5.04-0.308
			c-0.279-0.168-0.392-0.448-0.405-1.036c0-0.63,0-1.078,0.014-1.4c0-0.672,0.014-1.176,0.014-1.33v-2.478l-1.021,0.308
			c-0.252,0.07-0.687,0.266-1.177,0.504l-0.252-0.518c0.322-0.042,0.98-0.182,1.33-0.294l1.12-0.322v-2.884
			c0-0.252-0.014-0.574-0.042-1.092c1.316,0.112,1.666,0.182,1.652,0.35c-0.015,0.154-0.196,0.28-0.645,0.406v2.94l2.759-0.812
			V36.769z"/>
	</g>
	<rect x="0.125" y="7.125" fill="none" stroke="#000000" stroke-width="0.25" width="28" height="14"/>
	<line fill="none" stroke="#000000" stroke-width="0.25" x1="14.125" y1="21.125" x2="14.125" y2="7.125"/>
	<rect x="35.125" y="7.125" fill="none" stroke="#000000" stroke-width="0.25" width="14" height="14"/>
	<g>
		<line fill="none" stroke="#000000" stroke-width="0.25" x1="14.125" y1="7.125" x2="14.125" y2="0.125"/>
		<line fill="none" stroke="#000000" stroke-width="0.25" x1="21.125" y1="7.125" x2="21.125" y2="0.125"/>
		<polyline fill="none" stroke="#000000" stroke-width="0.25" points="7.125,7.125 7.125,0.125 35.125,0.125 35.125,7.125 
			28.125,7.125 28.125,0.125 		"/>
	</g>
	<g>
		<path d="M16.623,59.327c-0.301,1.239-0.427,1.876-0.427,2.121c0,0.021,0,0.049,0,0.077c0.007,0.056,0.007,0.084,0.007,0.112
			c0,0.224-0.057,0.329-0.176,0.329c-0.104,0-0.21-0.091-0.294-0.252c-0.224-0.434-0.336-1.043-0.336-1.813
			c0-0.518,0.035-0.854,0.154-1.589c0.091-0.511,0.112-0.707,0.112-0.868c0-0.217-0.084-0.434-0.252-0.672
			c0.153,0.007,0.294,0.098,0.462,0.273c0.203,0.224,0.308,0.413,0.308,0.56c0,0.091-0.007,0.133-0.098,0.385
			c-0.238,0.665-0.364,1.33-0.364,1.946c0,0.518,0.049,0.847,0.168,1.092c0.084-0.21,0.504-1.351,0.63-1.729L16.623,59.327z
			 M17.183,58.172c0.315,0.224,0.483,0.28,0.813,0.28c0.287,0,0.692-0.056,1.008-0.147c0-0.105,0-0.182,0-0.245
			c0-0.581-0.021-0.861-0.084-0.98c-0.07-0.14-0.267-0.245-0.595-0.322c0.104-0.091,0.153-0.105,0.385-0.105
			c0.504,0,0.84,0.14,0.84,0.35c0,0.028-0.014,0.098-0.035,0.168c-0.07,0.259-0.077,0.343-0.091,1.008
			c0.378-0.119,0.462-0.161,0.637-0.301c0.049-0.035,0.084-0.049,0.147-0.049c0.224,0,0.42,0.098,0.42,0.21
			c0,0.084-0.049,0.126-0.245,0.224c-0.224,0.105-0.441,0.175-0.952,0.308V59.6c0,1.106-0.188,1.673-0.714,2.226
			c-0.308,0.315-0.616,0.546-1.064,0.763l-0.056-0.091c0.511-0.399,0.756-0.665,0.987-1.078c0.329-0.574,0.44-1.197,0.44-2.401
			c0-0.154,0-0.175,0-0.357c-0.314,0.063-0.56,0.091-0.812,0.091c-0.469,0-0.784-0.14-1.099-0.497L17.183,58.172z"/>
		<path d="M21.942,58.158c0.287,0.294,0.47,0.385,0.771,0.385c0.272,0,0.567-0.042,0.889-0.133c0.141-0.455,0.238-0.945,0.238-1.19
			c0-0.21-0.105-0.301-0.497-0.434c0.091-0.049,0.126-0.063,0.217-0.063c0.161,0,0.393,0.049,0.603,0.133
			c0.21,0.077,0.314,0.175,0.314,0.28c0,0.049,0,0.049-0.084,0.168c-0.091,0.133-0.245,0.504-0.42,1.001
			c0.393-0.14,0.645-0.273,0.813-0.427c0.111-0.105,0.14-0.119,0.195-0.119c0.092,0,0.26,0.035,0.371,0.077
			c0.077,0.028,0.112,0.07,0.112,0.126c0,0.119-0.112,0.21-0.406,0.336c-0.314,0.147-0.784,0.301-1.225,0.413
			c-0.084,0.238-0.084,0.238-0.294,0.889c-0.141,0.42-0.141,0.42-0.525,1.561c-0.28,0.833-0.371,1.008-0.518,1.008
			c-0.07,0-0.119-0.042-0.161-0.14c-0.056-0.112-0.098-0.287-0.098-0.406c0-0.112,0.007-0.133,0.153-0.343
			c0.351-0.511,0.623-1.12,1.1-2.506c-0.267,0.049-0.47,0.07-0.673,0.07c-0.427,0-0.699-0.182-0.959-0.63L21.942,58.158z
			 M24.735,60.573c-0.007,0.105-0.007,0.189-0.007,0.217c0,0.399,0.189,0.7,0.532,0.847c0.189,0.084,0.477,0.133,0.749,0.133
			c0.287,0,0.448-0.021,0.672-0.105c0.049-0.021,0.091-0.028,0.119-0.028c0.077,0,0.238,0.077,0.357,0.168
			c0.084,0.07,0.126,0.133,0.126,0.196c0,0.154-0.273,0.231-0.826,0.231c-0.539,0-0.987-0.077-1.295-0.224
			c-0.378-0.182-0.596-0.546-0.596-1.015c0-0.154,0.015-0.273,0.063-0.441L24.735,60.573z M24.925,59.278
			c0.504-0.308,1.078-0.476,1.624-0.476c0.147,0,0.329,0.049,0.441,0.126c0.069,0.042,0.111,0.119,0.111,0.196
			c0,0.119-0.063,0.154-0.266,0.168c-0.259,0.007-0.343,0.035-0.539,0.14c-0.14,0.077-0.147,0.077-0.385,0.238
			c-0.134,0.084-0.134,0.084-0.245,0.147l-0.042-0.063c0.084-0.084,0.084-0.084,0.336-0.315c0.063-0.056,0.126-0.119,0.343-0.329
			c-0.462,0-0.833,0.077-1.337,0.259L24.925,59.278z M25.919,56.968c0.385,0.119,0.742,0.287,0.945,0.441
			c0.153,0.112,0.202,0.203,0.202,0.35c0,0.189-0.084,0.35-0.175,0.35c-0.056,0-0.104-0.042-0.161-0.133
			c-0.245-0.399-0.44-0.609-0.854-0.924L25.919,56.968z M26.521,56.485c0.525,0.133,0.813,0.238,1.008,0.371
			c0.141,0.105,0.189,0.196,0.189,0.364c0,0.175-0.063,0.308-0.146,0.308c-0.05,0-0.092-0.035-0.161-0.14
			c-0.238-0.322-0.532-0.588-0.932-0.812L26.521,56.485z"/>
		<path d="M29.755,57.521c0.168,0.252,0.28,0.371,0.483,0.504c0.244,0.154,0.454,0.231,0.818,0.301
			c0.196-0.973,0.217-1.078,0.217-1.246c0-0.238-0.098-0.385-0.378-0.581c0.057-0.021,0.077-0.028,0.119-0.028
			c0.126,0,0.309,0.077,0.519,0.217c0.224,0.154,0.363,0.35,0.363,0.504c0,0.063-0.021,0.119-0.091,0.203
			c-0.119,0.168-0.196,0.357-0.385,0.973c0.146,0.042,0.21,0.077,0.28,0.154c0.056,0.063,0.098,0.161,0.098,0.231
			c0,0.091-0.084,0.147-0.224,0.147c-0.07,0-0.161-0.014-0.273-0.035c-0.14,0.469-0.224,0.882-0.28,1.295
			c0.168,0.035,0.287,0.049,0.357,0.049c0.021,0,0.035,0,0.056-0.007c0.042-0.007,0.07-0.007,0.077-0.007
			c0.182,0,0.42,0.217,0.42,0.378c0,0.098-0.091,0.161-0.238,0.161c-0.195,0-0.489-0.049-0.741-0.126
			c-0.015,0.168-0.021,0.252-0.021,0.343c0,0.714,0.399,1.113,1.106,1.113c0.476,0,0.889-0.182,1.105-0.476
			c0.154-0.21,0.231-0.448,0.231-0.714c0-0.581-0.393-1.239-1.058-1.75l0.077-0.091c1.036,0.637,1.478,1.218,1.478,1.932
			c0,0.847-0.729,1.491-1.701,1.491c-0.364,0-0.714-0.105-0.952-0.287c-0.364-0.273-0.539-0.693-0.539-1.302
			c0-0.084,0.007-0.175,0.014-0.35c-0.272-0.126-0.412-0.21-0.56-0.357c-0.189-0.196-0.308-0.455-0.308-0.693
			c0-0.161,0.076-0.336,0.217-0.483c0.168-0.168,0.343-0.266,0.679-0.371c-0.28-0.105-0.476-0.231-0.679-0.434
			c-0.147-0.154-0.231-0.294-0.364-0.616L29.755,57.521z M30.168,59.082c-0.105,0.112-0.154,0.217-0.154,0.35
			c0,0.294,0.238,0.511,0.721,0.658c0.035-0.35,0.099-0.749,0.21-1.274C30.539,58.837,30.336,58.914,30.168,59.082z"/>
		<path d="M38.701,62.022c0.756-0.224,1.238-0.511,1.638-0.973c0.413-0.469,0.623-1.043,0.623-1.687
			c0-0.679-0.273-1.218-0.791-1.547c-0.308-0.203-0.771-0.322-1.211-0.322c-0.084,0-0.133,0-0.245,0.014
			c0.168,0.245,0.217,0.378,0.217,0.581c0,0.546-0.392,1.568-0.924,2.422c-0.441,0.7-0.784,1.043-1.043,1.043
			c-0.119,0-0.231-0.056-0.308-0.147c-0.063-0.084-0.077-0.112-0.196-0.448c-0.063-0.182-0.105-0.266-0.308-0.658
			c-0.112-0.224-0.161-0.413-0.161-0.637c0-0.441,0.237-0.959,0.63-1.386c0.566-0.602,1.491-0.98,2.408-0.98
			c0.707,0,1.357,0.231,1.806,0.644c0.448,0.413,0.672,0.966,0.672,1.645c0,0.875-0.511,1.652-1.393,2.121
			c-0.406,0.217-0.771,0.329-1.365,0.434L38.701,62.022z M36.397,59.845c0,0.336,0.105,0.679,0.28,0.924
			c0.098,0.126,0.189,0.203,0.266,0.203c0.154,0,0.49-0.378,0.833-0.924c0.519-0.826,0.89-1.729,0.89-2.163
			c0-0.105-0.021-0.175-0.099-0.35C37.35,57.752,36.397,58.767,36.397,59.845z"/>
		<path d="M4.723,70.17c-0.252,0.882-0.644,2.408-0.812,3.094c-0.141,0.616-0.183,0.84-0.183,1.19
			c-0.014,0.448-0.027,0.504-0.098,0.616c-0.07,0.098-0.154,0.154-0.266,0.154c-0.238,0-0.435-0.196-0.603-0.63
			c-0.28-0.714-0.448-1.778-0.448-2.814c0-1.288,0.154-2.464,0.63-4.662c0.183-0.868,0.211-1.022,0.211-1.26
			c0-0.42-0.112-0.756-0.406-1.232c0.322,0.014,0.588,0.196,0.979,0.7c0.322,0.406,0.504,0.798,0.504,1.064
			c0,0.154,0,0.154-0.224,0.616c-0.672,1.4-1.064,3.066-1.064,4.564c0,0.714,0.057,1.162,0.225,1.736l0.588-1.4L4.513,70.1
			L4.723,70.17z M6.123,67.636c0.672,0.434,1.105,0.574,1.806,0.574c0.49,0,1.022-0.07,1.596-0.196c0-0.266,0-0.49,0-0.616
			c0-1.568-0.014-1.75-0.195-1.946c-0.168-0.182-0.477-0.28-0.924-0.322c0.195-0.182,0.308-0.224,0.672-0.224
			c0.308,0,0.686,0.056,0.951,0.126c0.406,0.126,0.616,0.294,0.616,0.504c0,0.098,0,0.112-0.126,0.434
			c-0.153,0.406-0.237,0.91-0.294,1.876c0.645-0.182,1.05-0.364,1.288-0.574c0.14-0.14,0.182-0.154,0.308-0.154
			c0.169,0,0.49,0.084,0.658,0.182c0.112,0.056,0.183,0.154,0.183,0.252c0,0.308-1.022,0.728-2.479,1.008
			c0,1.862,0.042,2.632,0.183,3.808c1.624,0.434,2.31,0.98,2.31,1.792c0,0.294-0.126,0.518-0.28,0.518
			c-0.111,0-0.21-0.07-0.489-0.35c-0.616-0.63-0.967-0.882-1.513-1.12c0.015,0.126,0.015,0.238,0.015,0.336
			c0,1.008-0.841,1.61-2.24,1.61c-1.218,0-2.072-0.588-2.072-1.428c0-0.966,1.036-1.582,2.632-1.582
			c0.267,0,0.462,0.014,0.854,0.042c0-0.126,0-0.21,0-0.238L9.553,70.45l-0.014-1.792c-0.42,0.084-0.826,0.112-1.232,0.112
			c-1.021,0-1.609-0.252-2.31-0.98L6.123,67.636z M8.265,72.746c-1.105,0-1.792,0.364-1.792,0.98c0,0.49,0.546,0.826,1.372,0.826
			c0.771,0,1.316-0.224,1.54-0.658c0.14-0.252,0.182-0.462,0.182-0.98C9.175,72.802,8.783,72.746,8.265,72.746z"/>
		<path d="M21.663,71.248c0.504,0.07,0.952,0.112,1.344,0.112h5.166c0.252-0.336,0.336-0.434,0.588-0.742
			c0.434,0.364,0.574,0.49,0.98,0.854c0.042,0.056,0.069,0.098,0.069,0.112c0,0.042-0.042,0.098-0.069,0.098h-6.734
			c-0.35,0-0.448,0-1.246,0.056L21.663,71.248z M22.363,63.968c0.518,0.294,0.979,0.63,1.273,0.924
			c0.182,0.168,0.266,0.336,0.266,0.518c0,0.308-0.237,0.728-0.42,0.728c-0.098,0-0.153-0.07-0.21-0.238
			c-0.21-0.63-0.42-1.008-1.008-1.834L22.363,63.968z M27.725,66.404c0.183-0.238,0.252-0.308,0.462-0.532
			c0.309,0.224,0.393,0.294,0.687,0.532c0.084,0.07,0.126,0.112,0.126,0.168c0,0.07,0,0.07-0.448,0.42c0,0.406,0,0.644,0,0.938
			c0,0.812,0.014,1.526,0.056,2.618c-0.014,0.084-0.042,0.126-0.111,0.14c-0.057,0.014-0.42,0.042-0.616,0.042
			c-0.084,0-0.126-0.028-0.14-0.098v-0.406H23.23v0.406c0,0.112-0.014,0.154-0.056,0.182c-0.07,0.042-0.364,0.07-0.686,0.07
			c-0.154,0-0.21-0.042-0.21-0.154c0-0.014,0-0.028,0-0.042c0.084-1.148,0.098-1.75,0.098-3.08c0-0.63,0-0.672-0.042-1.736
			c0.462,0.21,0.602,0.28,1.021,0.532h3.374c0.588-0.952,1.036-1.932,1.204-2.618c0.477,0.182,0.477,0.196,0.616,0.238
			c0.504,0.196,0.63,0.28,0.63,0.378c0,0.126-0.056,0.14-0.602,0.224c-0.603,0.77-0.771,0.966-1.54,1.778H27.725z M23.553,75.896
			c0,0.112-0.028,0.14-0.112,0.168c-0.084,0.028-0.573,0.098-0.672,0.098c-0.098,0-0.14-0.042-0.14-0.126c0,0,0-0.014,0-0.028
			c0.028-1.064,0.042-1.764,0.042-2.618c0-0.448-0.014-0.714-0.042-1.232c0.49,0.252,0.644,0.336,1.12,0.644h3.374
			c0.182-0.238,0.252-0.308,0.448-0.518c0.336,0.21,0.447,0.28,0.783,0.518c0.099,0.084,0.141,0.14,0.141,0.168
			c0,0.07-0.183,0.21-0.435,0.35c0,0.182,0,0.294,0,0.406c0,0.28,0,0.28,0.042,1.708c0,0.014,0,0.042,0,0.056
			c0,0.14-0.266,0.224-0.714,0.224c-0.126,0-0.168-0.028-0.168-0.098v-0.308h-3.668V75.896z M25.093,68.126v-1.4H23.23v1.4H25.093z
			 M23.23,69.904h1.862v-1.456H23.23V69.904z M23.553,74.986h3.668v-1.862h-3.668V74.986z M24.449,63.618
			c0.476,0.28,0.686,0.42,1.092,0.756c0.336,0.266,0.462,0.448,0.462,0.672c0,0.378-0.238,0.798-0.462,0.798
			c-0.084,0-0.141-0.056-0.196-0.21c-0.056-0.168-0.182-0.476-0.322-0.77c-0.224-0.49-0.35-0.686-0.699-1.148L24.449,63.618z
			 M27.739,66.726h-1.82v1.4h1.82V66.726z M25.919,68.448v1.456h1.82v-1.456H25.919z M31.757,68.168
			c0.14,1.358,0.392,2.394,0.854,3.528c0.364,0.882,0.883,1.736,1.429,2.352c0.308,0.35,0.476,0.49,0.952,0.784l-0.015,0.14
			c-0.28,0.056-0.364,0.098-0.56,0.336c-0.168,0.224-0.252,0.378-0.378,0.756c-0.771-0.966-1.246-1.932-1.666-3.276
			c-0.378-1.246-0.658-2.8-0.771-4.354c-0.111,1.372-0.224,2.002-0.462,2.926c-0.406,1.456-1.078,2.8-1.89,3.78
			c-0.406,0.476-0.687,0.728-1.372,1.204l-0.14-0.154c0.63-0.63,0.909-0.994,1.344-1.68c1.036-1.708,1.498-3.388,1.708-6.342h-0.84
			c-0.42,0-0.757,0.028-1.093,0.07l-0.084-0.476c0.364,0.042,0.868,0.084,1.177,0.084h0.867c0.042-0.882,0.057-1.498,0.057-2.744
			c0-0.504-0.015-0.812-0.057-1.316c1.261,0.112,1.526,0.154,1.526,0.308c0,0.098-0.112,0.182-0.602,0.392
			c0,0.294-0.015,0.56-0.015,0.7c-0.027,1.974-0.027,1.974-0.069,2.66h1.105c0.309-0.364,0.406-0.476,0.729-0.826
			c0.462,0.378,0.602,0.49,1.05,0.91c0.056,0.056,0.098,0.126,0.098,0.154c0,0.056-0.07,0.084-0.168,0.084H31.757z M32.471,64.612
			c0.826,0.644,1.274,1.148,1.274,1.47c0,0.322-0.336,0.882-0.519,0.882c-0.153,0-0.195-0.084-0.28-0.56
			c-0.098-0.476-0.195-0.728-0.615-1.694L32.471,64.612z"/>
		<path d="M48.907,67.118c0-2.464,0-2.618-0.07-3.542c0.308,0.042,0.56,0.07,0.714,0.084c0.63,0.084,0.896,0.182,0.896,0.322
			c0,0.126-0.141,0.196-0.616,0.35c-0.015,0.938-0.015,1.484-0.015,2.016v1.036l3.011-0.868c0.168-0.322,0.224-0.42,0.42-0.728
			c0.434,0.252,0.56,0.336,0.979,0.602c0.155,0.126,0.209,0.168,0.209,0.21c0,0.07-0.055,0.112-0.49,0.378
			c-0.041,2.086-0.21,3.64-0.476,4.508c-0.21,0.658-0.56,0.882-1.68,1.064c-0.07-0.462-0.154-0.63-0.393-0.784
			c-0.252-0.182-0.573-0.294-1.204-0.448v-0.21c0.967,0.14,1.61,0.21,1.961,0.21c0.363,0,0.447-0.126,0.615-0.84
			c0.141-0.602,0.267-2.254,0.267-3.402c0-0.084,0-0.182-0.015-0.322l-3.206,0.952c0,3.402,0,3.402,0.028,5.096
			c0,0.014,0,0.028,0,0.028c0,0.182-0.14,0.238-0.546,0.238c-0.07,0-0.126,0.014-0.168,0.014c-0.028,0-0.056,0-0.07,0
			c-0.153,0-0.224-0.056-0.224-0.196c0.042-1.82,0.056-2.114,0.056-2.478v-2.436l-2.744,0.812v5.334c0,0.644,0,0.644,3.935,0.644
			c2.016,0,3.206-0.028,3.542-0.084c0.378-0.07,0.518-0.238,0.7-0.882c0.043-0.182,0.098-0.392,0.615-2.562l0.211,0.028l-0.07,2.534
			c0,0.056,0.014,0.308,0.043,0.392c0.027,0.182,0.068,0.224,0.32,0.336c0.197,0.084,0.295,0.21,0.295,0.364
			c0,0.266-0.211,0.448-0.588,0.546c-0.531,0.126-1.834,0.182-4.55,0.182c-4.102,0-4.563-0.028-5.04-0.308
			c-0.279-0.168-0.392-0.448-0.405-1.036c0-0.63,0-1.078,0.014-1.4c0-0.672,0.014-1.176,0.014-1.33v-2.478l-1.021,0.308
			c-0.252,0.07-0.687,0.266-1.177,0.504l-0.252-0.518c0.322-0.042,0.98-0.182,1.33-0.294l1.12-0.322v-2.884
			c0-0.252-0.014-0.574-0.042-1.092c1.316,0.112,1.666,0.182,1.652,0.35c-0.015,0.154-0.196,0.28-0.645,0.406v2.94l2.759-0.812
			V67.118z"/>
	</g>
	<g>
		<path d="M16.623,84.728c-0.301,1.239-0.427,1.876-0.427,2.121c0,0.021,0,0.049,0,0.077c0.007,0.056,0.007,0.084,0.007,0.112
			c0,0.224-0.057,0.329-0.176,0.329c-0.104,0-0.21-0.091-0.294-0.252c-0.224-0.434-0.336-1.043-0.336-1.813
			c0-0.518,0.035-0.854,0.154-1.589c0.091-0.511,0.112-0.707,0.112-0.868c0-0.217-0.084-0.434-0.252-0.672
			c0.153,0.007,0.294,0.098,0.462,0.273c0.203,0.224,0.308,0.413,0.308,0.56c0,0.091-0.007,0.133-0.098,0.385
			c-0.238,0.665-0.364,1.33-0.364,1.946c0,0.518,0.049,0.847,0.168,1.092c0.084-0.21,0.504-1.351,0.63-1.729L16.623,84.728z
			 M17.183,83.572c0.315,0.224,0.483,0.28,0.813,0.28c0.287,0,0.692-0.056,1.008-0.147c0-0.105,0-0.182,0-0.245
			c0-0.581-0.021-0.861-0.084-0.98c-0.07-0.14-0.267-0.245-0.595-0.322c0.104-0.091,0.153-0.105,0.385-0.105
			c0.504,0,0.84,0.14,0.84,0.35c0,0.028-0.014,0.098-0.035,0.168c-0.07,0.259-0.077,0.343-0.091,1.008
			c0.378-0.119,0.462-0.161,0.637-0.301c0.049-0.035,0.084-0.049,0.147-0.049c0.224,0,0.42,0.098,0.42,0.21
			c0,0.084-0.049,0.126-0.245,0.224c-0.224,0.105-0.441,0.175-0.952,0.308V85c0,1.106-0.188,1.673-0.714,2.226
			c-0.308,0.315-0.616,0.546-1.064,0.763l-0.056-0.091c0.511-0.399,0.756-0.665,0.987-1.078c0.329-0.574,0.44-1.197,0.44-2.401
			c0-0.154,0-0.175,0-0.357c-0.314,0.063-0.56,0.091-0.812,0.091c-0.469,0-0.784-0.14-1.099-0.497L17.183,83.572z"/>
		<path d="M21.942,83.559c0.287,0.294,0.47,0.385,0.771,0.385c0.272,0,0.567-0.042,0.889-0.133c0.141-0.455,0.238-0.945,0.238-1.19
			c0-0.21-0.105-0.301-0.497-0.434c0.091-0.049,0.126-0.063,0.217-0.063c0.161,0,0.393,0.049,0.603,0.133
			c0.21,0.077,0.314,0.175,0.314,0.28c0,0.049,0,0.049-0.084,0.168c-0.091,0.133-0.245,0.504-0.42,1.001
			c0.393-0.14,0.645-0.273,0.813-0.427c0.111-0.105,0.14-0.119,0.195-0.119c0.092,0,0.26,0.035,0.371,0.077
			c0.077,0.028,0.112,0.07,0.112,0.126c0,0.119-0.112,0.21-0.406,0.336c-0.314,0.147-0.784,0.301-1.225,0.413
			C23.749,84.35,23.749,84.35,23.539,85c-0.141,0.42-0.141,0.42-0.525,1.561c-0.28,0.833-0.371,1.008-0.518,1.008
			c-0.07,0-0.119-0.042-0.161-0.14c-0.056-0.112-0.098-0.287-0.098-0.406c0-0.112,0.007-0.133,0.153-0.343
			c0.351-0.511,0.623-1.12,1.1-2.506c-0.267,0.049-0.47,0.07-0.673,0.07c-0.427,0-0.699-0.182-0.959-0.63L21.942,83.559z
			 M24.735,85.974c-0.007,0.105-0.007,0.189-0.007,0.217c0,0.399,0.189,0.7,0.532,0.847c0.189,0.084,0.477,0.133,0.749,0.133
			c0.287,0,0.448-0.021,0.672-0.105c0.049-0.021,0.091-0.028,0.119-0.028c0.077,0,0.238,0.077,0.357,0.168
			c0.084,0.07,0.126,0.133,0.126,0.196c0,0.154-0.273,0.231-0.826,0.231c-0.539,0-0.987-0.077-1.295-0.224
			c-0.378-0.182-0.596-0.546-0.596-1.015c0-0.154,0.015-0.273,0.063-0.441L24.735,85.974z M24.925,84.679
			c0.504-0.308,1.078-0.476,1.624-0.476c0.147,0,0.329,0.049,0.441,0.126c0.069,0.042,0.111,0.119,0.111,0.196
			c0,0.119-0.063,0.154-0.266,0.168c-0.259,0.007-0.343,0.035-0.539,0.14c-0.14,0.077-0.147,0.077-0.385,0.238
			c-0.134,0.084-0.134,0.084-0.245,0.147l-0.042-0.063c0.084-0.084,0.084-0.084,0.336-0.315c0.063-0.056,0.126-0.119,0.343-0.329
			c-0.462,0-0.833,0.077-1.337,0.259L24.925,84.679z M25.919,82.369c0.385,0.119,0.742,0.287,0.945,0.441
			c0.153,0.112,0.202,0.203,0.202,0.35c0,0.189-0.084,0.35-0.175,0.35c-0.056,0-0.104-0.042-0.161-0.133
			c-0.245-0.399-0.44-0.609-0.854-0.924L25.919,82.369z M26.521,81.886c0.525,0.133,0.813,0.238,1.008,0.371
			c0.141,0.105,0.189,0.196,0.189,0.364c0,0.175-0.063,0.308-0.146,0.308c-0.05,0-0.092-0.035-0.161-0.14
			c-0.238-0.322-0.532-0.588-0.932-0.812L26.521,81.886z"/>
		<path d="M29.755,82.921c0.168,0.252,0.28,0.371,0.483,0.504c0.244,0.154,0.454,0.231,0.818,0.301
			c0.196-0.973,0.217-1.078,0.217-1.246c0-0.238-0.098-0.385-0.378-0.581c0.057-0.021,0.077-0.028,0.119-0.028
			c0.126,0,0.309,0.077,0.519,0.217c0.224,0.154,0.363,0.35,0.363,0.504c0,0.063-0.021,0.119-0.091,0.203
			c-0.119,0.168-0.196,0.357-0.385,0.973c0.146,0.042,0.21,0.077,0.28,0.154c0.056,0.063,0.098,0.161,0.098,0.231
			c0,0.091-0.084,0.147-0.224,0.147c-0.07,0-0.161-0.014-0.273-0.035c-0.14,0.469-0.224,0.882-0.28,1.295
			c0.168,0.035,0.287,0.049,0.357,0.049c0.021,0,0.035,0,0.056-0.007c0.042-0.007,0.07-0.007,0.077-0.007
			c0.182,0,0.42,0.217,0.42,0.378c0,0.098-0.091,0.161-0.238,0.161c-0.195,0-0.489-0.049-0.741-0.126
			c-0.015,0.168-0.021,0.252-0.021,0.343c0,0.714,0.399,1.113,1.106,1.113c0.476,0,0.889-0.182,1.105-0.476
			c0.154-0.21,0.231-0.448,0.231-0.714c0-0.581-0.393-1.239-1.058-1.75l0.077-0.091c1.036,0.637,1.478,1.218,1.478,1.932
			c0,0.847-0.729,1.491-1.701,1.491c-0.364,0-0.714-0.105-0.952-0.287c-0.364-0.273-0.539-0.693-0.539-1.302
			c0-0.084,0.007-0.175,0.014-0.35c-0.272-0.126-0.412-0.21-0.56-0.357c-0.189-0.196-0.308-0.455-0.308-0.693
			c0-0.161,0.076-0.336,0.217-0.483c0.168-0.168,0.343-0.266,0.679-0.371c-0.28-0.105-0.476-0.231-0.679-0.434
			c-0.147-0.154-0.231-0.294-0.364-0.616L29.755,82.921z M30.168,84.482c-0.105,0.112-0.154,0.217-0.154,0.35
			c0,0.294,0.238,0.511,0.721,0.658c0.035-0.35,0.099-0.749,0.21-1.274C30.539,84.237,30.336,84.314,30.168,84.482z"/>
		<path d="M38.701,87.422c0.756-0.224,1.238-0.511,1.638-0.973c0.413-0.469,0.623-1.043,0.623-1.687
			c0-0.679-0.273-1.218-0.791-1.547c-0.308-0.203-0.771-0.322-1.211-0.322c-0.084,0-0.133,0-0.245,0.014
			c0.168,0.245,0.217,0.378,0.217,0.581c0,0.546-0.392,1.568-0.924,2.422c-0.441,0.7-0.784,1.043-1.043,1.043
			c-0.119,0-0.231-0.056-0.308-0.147c-0.063-0.084-0.077-0.112-0.196-0.448c-0.063-0.182-0.105-0.266-0.308-0.658
			c-0.112-0.224-0.161-0.413-0.161-0.637c0-0.441,0.237-0.959,0.63-1.386c0.566-0.602,1.491-0.98,2.408-0.98
			c0.707,0,1.357,0.231,1.806,0.644c0.448,0.413,0.672,0.966,0.672,1.645c0,0.875-0.511,1.652-1.393,2.121
			c-0.406,0.217-0.771,0.329-1.365,0.434L38.701,87.422z M36.397,85.246c0,0.336,0.105,0.679,0.28,0.924
			c0.098,0.126,0.189,0.203,0.266,0.203c0.154,0,0.49-0.378,0.833-0.924c0.519-0.826,0.89-1.729,0.89-2.163
			c0-0.105-0.021-0.175-0.099-0.35C37.35,83.152,36.397,84.167,36.397,85.246z"/>
		<path d="M4.723,95.571c-0.252,0.882-0.644,2.408-0.812,3.094c-0.141,0.616-0.183,0.84-0.183,1.19
			c-0.014,0.448-0.027,0.504-0.098,0.616c-0.07,0.098-0.154,0.154-0.266,0.154c-0.238,0-0.435-0.196-0.603-0.63
			c-0.28-0.714-0.448-1.778-0.448-2.814c0-1.288,0.154-2.464,0.63-4.662c0.183-0.868,0.211-1.022,0.211-1.26
			c0-0.42-0.112-0.756-0.406-1.232c0.322,0.014,0.588,0.196,0.979,0.7c0.322,0.406,0.504,0.798,0.504,1.064
			c0,0.154,0,0.154-0.224,0.616c-0.672,1.4-1.064,3.066-1.064,4.564c0,0.714,0.057,1.162,0.225,1.736l0.588-1.4L4.513,95.5
			L4.723,95.571z M6.123,93.037c0.672,0.434,1.105,0.574,1.806,0.574c0.49,0,1.022-0.07,1.596-0.196c0-0.266,0-0.49,0-0.616
			c0-1.568-0.014-1.75-0.195-1.946c-0.168-0.182-0.477-0.28-0.924-0.322c0.195-0.182,0.308-0.224,0.672-0.224
			c0.308,0,0.686,0.056,0.951,0.126c0.406,0.126,0.616,0.294,0.616,0.504c0,0.098,0,0.112-0.126,0.434
			c-0.153,0.406-0.237,0.91-0.294,1.876c0.645-0.182,1.05-0.364,1.288-0.574c0.14-0.14,0.182-0.154,0.308-0.154
			c0.169,0,0.49,0.084,0.658,0.182c0.112,0.056,0.183,0.154,0.183,0.252c0,0.308-1.022,0.728-2.479,1.008
			c0,1.862,0.042,2.632,0.183,3.808c1.624,0.434,2.31,0.98,2.31,1.792c0,0.294-0.126,0.518-0.28,0.518
			c-0.111,0-0.21-0.07-0.489-0.35c-0.616-0.63-0.967-0.882-1.513-1.12c0.015,0.126,0.015,0.238,0.015,0.336
			c0,1.008-0.841,1.61-2.24,1.61c-1.218,0-2.072-0.588-2.072-1.428c0-0.966,1.036-1.582,2.632-1.582
			c0.267,0,0.462,0.014,0.854,0.042c0-0.126,0-0.21,0-0.238l-0.028-1.498l-0.014-1.792c-0.42,0.084-0.826,0.112-1.232,0.112
			c-1.021,0-1.609-0.252-2.31-0.98L6.123,93.037z M8.265,98.146c-1.105,0-1.792,0.364-1.792,0.98c0,0.49,0.546,0.826,1.372,0.826
			c0.771,0,1.316-0.224,1.54-0.658c0.14-0.252,0.182-0.462,0.182-0.98C9.175,98.203,8.783,98.146,8.265,98.146z"/>
		<path d="M21.663,96.648c0.504,0.07,0.952,0.112,1.344,0.112h5.166c0.252-0.336,0.336-0.434,0.588-0.742
			c0.434,0.364,0.574,0.49,0.98,0.854c0.042,0.056,0.069,0.098,0.069,0.112c0,0.042-0.042,0.098-0.069,0.098h-6.734
			c-0.35,0-0.448,0-1.246,0.056L21.663,96.648z M22.363,89.369c0.518,0.294,0.979,0.63,1.273,0.924
			c0.182,0.168,0.266,0.336,0.266,0.518c0,0.308-0.237,0.728-0.42,0.728c-0.098,0-0.153-0.07-0.21-0.238
			c-0.21-0.63-0.42-1.008-1.008-1.834L22.363,89.369z M27.725,91.805c0.183-0.238,0.252-0.308,0.462-0.532
			c0.309,0.224,0.393,0.294,0.687,0.532c0.084,0.07,0.126,0.112,0.126,0.168c0,0.07,0,0.07-0.448,0.42c0,0.406,0,0.644,0,0.938
			c0,0.812,0.014,1.526,0.056,2.618c-0.014,0.084-0.042,0.126-0.111,0.14c-0.057,0.014-0.42,0.042-0.616,0.042
			c-0.084,0-0.126-0.028-0.14-0.098v-0.406H23.23v0.406c0,0.112-0.014,0.154-0.056,0.182c-0.07,0.042-0.364,0.07-0.686,0.07
			c-0.154,0-0.21-0.042-0.21-0.154c0-0.014,0-0.028,0-0.042c0.084-1.148,0.098-1.75,0.098-3.08c0-0.63,0-0.672-0.042-1.736
			c0.462,0.21,0.602,0.28,1.021,0.532h3.374c0.588-0.952,1.036-1.932,1.204-2.618c0.477,0.182,0.477,0.196,0.616,0.238
			c0.504,0.196,0.63,0.28,0.63,0.378c0,0.126-0.056,0.14-0.602,0.224c-0.603,0.77-0.771,0.966-1.54,1.778H27.725z M23.553,101.297
			c0,0.112-0.028,0.14-0.112,0.168c-0.084,0.028-0.573,0.098-0.672,0.098c-0.098,0-0.14-0.042-0.14-0.126c0,0,0-0.014,0-0.028
			c0.028-1.064,0.042-1.764,0.042-2.618c0-0.448-0.014-0.714-0.042-1.232c0.49,0.252,0.644,0.336,1.12,0.644h3.374
			c0.182-0.238,0.252-0.308,0.448-0.518c0.336,0.21,0.447,0.28,0.783,0.518c0.099,0.084,0.141,0.14,0.141,0.168
			c0,0.07-0.183,0.21-0.435,0.35c0,0.182,0,0.294,0,0.406c0,0.28,0,0.28,0.042,1.708c0,0.014,0,0.042,0,0.056
			c0,0.14-0.266,0.224-0.714,0.224c-0.126,0-0.168-0.028-0.168-0.098v-0.308h-3.668V101.297z M25.093,93.527v-1.4H23.23v1.4H25.093z
			 M23.23,95.305h1.862v-1.456H23.23V95.305z M23.553,100.387h3.668v-1.862h-3.668V100.387z M24.449,89.019
			c0.476,0.28,0.686,0.42,1.092,0.756c0.336,0.266,0.462,0.448,0.462,0.672c0,0.378-0.238,0.798-0.462,0.798
			c-0.084,0-0.141-0.056-0.196-0.21c-0.056-0.168-0.182-0.476-0.322-0.77c-0.224-0.49-0.35-0.686-0.699-1.148L24.449,89.019z
			 M27.739,92.126h-1.82v1.4h1.82V92.126z M25.919,93.849v1.456h1.82v-1.456H25.919z M31.757,93.569
			c0.14,1.358,0.392,2.394,0.854,3.528c0.364,0.882,0.883,1.736,1.429,2.352c0.308,0.35,0.476,0.49,0.952,0.784l-0.015,0.14
			c-0.28,0.056-0.364,0.098-0.56,0.336c-0.168,0.224-0.252,0.378-0.378,0.756c-0.771-0.966-1.246-1.932-1.666-3.276
			c-0.378-1.246-0.658-2.8-0.771-4.354c-0.111,1.372-0.224,2.002-0.462,2.926c-0.406,1.456-1.078,2.8-1.89,3.78
			c-0.406,0.476-0.687,0.728-1.372,1.204l-0.14-0.154c0.63-0.63,0.909-0.994,1.344-1.68c1.036-1.708,1.498-3.388,1.708-6.342h-0.84
			c-0.42,0-0.757,0.028-1.093,0.07l-0.084-0.476c0.364,0.042,0.868,0.084,1.177,0.084h0.867c0.042-0.882,0.057-1.498,0.057-2.744
			c0-0.504-0.015-0.812-0.057-1.316c1.261,0.112,1.526,0.154,1.526,0.308c0,0.098-0.112,0.182-0.602,0.392
			c0,0.294-0.015,0.56-0.015,0.7c-0.027,1.974-0.027,1.974-0.069,2.66h1.105c0.309-0.364,0.406-0.476,0.729-0.826
			c0.462,0.378,0.602,0.49,1.05,0.91c0.056,0.056,0.098,0.126,0.098,0.154c0,0.056-0.07,0.084-0.168,0.084H31.757z M32.471,90.013
			c0.826,0.644,1.274,1.148,1.274,1.47c0,0.322-0.336,0.882-0.519,0.882c-0.153,0-0.195-0.084-0.28-0.56
			c-0.098-0.476-0.195-0.728-0.615-1.694L32.471,90.013z"/>
		<path d="M48.907,92.519c0-2.464,0-2.618-0.07-3.542c0.308,0.042,0.56,0.07,0.714,0.084c0.63,0.084,0.896,0.182,0.896,0.322
			c0,0.126-0.141,0.196-0.616,0.35c-0.015,0.938-0.015,1.484-0.015,2.016v1.036l3.011-0.868c0.168-0.322,0.224-0.42,0.42-0.728
			c0.434,0.252,0.56,0.336,0.979,0.602c0.155,0.126,0.209,0.168,0.209,0.21c0,0.07-0.055,0.112-0.49,0.378
			c-0.041,2.086-0.21,3.64-0.476,4.508c-0.21,0.658-0.56,0.882-1.68,1.064c-0.07-0.462-0.154-0.63-0.393-0.784
			c-0.252-0.182-0.573-0.294-1.204-0.448v-0.21c0.967,0.14,1.61,0.21,1.961,0.21c0.363,0,0.447-0.126,0.615-0.84
			c0.141-0.602,0.267-2.254,0.267-3.402c0-0.084,0-0.182-0.015-0.322l-3.206,0.952c0,3.402,0,3.402,0.028,5.096
			c0,0.014,0,0.028,0,0.028c0,0.182-0.14,0.238-0.546,0.238c-0.07,0-0.126,0.014-0.168,0.014c-0.028,0-0.056,0-0.07,0
			c-0.153,0-0.224-0.056-0.224-0.196c0.042-1.82,0.056-2.114,0.056-2.478v-2.436l-2.744,0.812v5.334c0,0.644,0,0.644,3.935,0.644
			c2.016,0,3.206-0.028,3.542-0.084c0.378-0.07,0.518-0.238,0.7-0.882c0.043-0.182,0.098-0.392,0.615-2.562l0.211,0.028l-0.07,2.534
			c0,0.056,0.014,0.308,0.043,0.392c0.027,0.182,0.068,0.224,0.32,0.336c0.197,0.084,0.295,0.21,0.295,0.364
			c0,0.266-0.211,0.448-0.588,0.546c-0.531,0.126-1.834,0.182-4.55,0.182c-4.102,0-4.563-0.028-5.04-0.308
			c-0.279-0.168-0.392-0.448-0.405-1.036c0-0.63,0-1.078,0.014-1.4c0-0.672,0.014-1.176,0.014-1.33v-2.478l-1.021,0.308
			c-0.252,0.07-0.687,0.266-1.177,0.504l-0.252-0.518c0.322-0.042,0.98-0.182,1.33-0.294l1.12-0.322v-2.884
			c0-0.252-0.014-0.574-0.042-1.092c1.316,0.112,1.666,0.182,1.652,0.35c-0.015,0.154-0.196,0.28-0.645,0.406v2.94l2.759-0.812
			V92.519z"/>
	</g>
	<rect x="0.125" y="62.875" fill="none" stroke="#000000" stroke-width="0.25" width="14" height="14"/>
	<rect x="21.125" y="62.875" fill="none" stroke="#000000" stroke-width="0.25" width="14" height="14"/>
	<rect x="42.125" y="62.875" fill="none" stroke="#000000" stroke-width="0.25" width="14" height="14"/>
	<g>
		<line fill="none" stroke="#000000" stroke-width="0.25" x1="28.125" y1="62.875" x2="28.125" y2="55.875"/>
		<polyline fill="none" stroke="#000000" stroke-width="0.25" points="35.125,55.875 35.125,62.875 42.125,62.875 42.125,55.875 
			14.125,55.875 14.125,62.875 21.125,62.875 21.125,55.875 		"/>
	</g>
</g>
</svg>
