<?xml version="1.0" encoding="utf-8"?>
<!-- Generator: Adobe Illustrator 12.0.0, SVG Export Plug-In . SVG Version: 6.00 Build 51448)  -->
<!DOCTYPE svg PUBLIC "-//W3C//DTD SVG 1.1//EN" "http://www.w3.org/Graphics/SVG/1.1/DTD/svg11.dtd" [
	<!ENTITY ns_svg "http://www.w3.org/2000/svg">
	<!ENTITY ns_xlink "http://www.w3.org/1999/xlink">
]>
<svg  version="1.1" id="レイヤー_1" xmlns="&ns_svg;" xmlns:xlink="&ns_xlink;" width="84.5" height="101.939"
	 viewBox="0 0 84.5 101.939" overflow="visible" enable-background="new 0 0 84.5 101.939" xml:space="preserve">
<g>
	<g>
		<path d="M8.264,2.897C8.831,3.009,9.258,3.156,9.489,3.31c0.188,0.119,0.266,0.259,0.266,0.462c0,0.182-0.091,0.336-0.196,0.336
			c-0.069,0-0.111-0.028-0.217-0.161c-0.35-0.441-0.665-0.707-1.12-0.959L8.264,2.897z M13.682,2.729
			c-0.378,0.539-0.734,0.938-1.483,1.638c-0.581,0.546-1.345,1.085-2.43,1.729C9.58,6.208,9.531,6.243,9.433,6.334
			c-0.056,0.049-0.104,0.07-0.161,0.07c-0.14,0-0.294-0.133-0.497-0.413c-0.133-0.203-0.217-0.413-0.217-0.56
			c0-0.07,0.015-0.112,0.057-0.168c0.153,0.301,0.321,0.441,0.531,0.441c0.189,0,0.707-0.238,1.372-0.637
			c1.085-0.637,2.282-1.582,3.066-2.415L13.682,2.729z M9.034,1.651c1.12,0.266,1.477,0.483,1.477,0.896
			c0,0.196-0.084,0.35-0.188,0.35c-0.077,0-0.077,0-0.379-0.371C9.678,2.211,9.355,1.945,8.984,1.749L9.034,1.651z"/>
		<path d="M16.685,2.113c0.364,0,1.204-0.056,1.933-0.133c0.371-0.042,0.482-0.063,0.566-0.133c0.077-0.056,0.119-0.077,0.168-0.077
			c0.077,0,0.259,0.126,0.455,0.322c0.105,0.105,0.154,0.182,0.154,0.245c0,0.049-0.014,0.077-0.091,0.175
			c-0.057,0.077-0.077,0.154-0.183,0.847c-0.111,0.686-0.111,0.686-0.23,1.414c-0.042,0.231-0.07,0.399-0.084,0.511
			c0.259,0.168,0.343,0.259,0.343,0.392c0,0.063-0.056,0.105-0.154,0.105c-0.056,0-0.084,0-0.272-0.028
			c-0.091-0.014-0.364-0.021-0.638-0.021c-0.531,0-1.092,0.07-1.7,0.217c-0.183,0.042-0.238,0.063-0.357,0.112
			c-0.042,0.021-0.077,0.028-0.119,0.028c-0.153,0-0.294-0.098-0.448-0.315c-0.133-0.182-0.202-0.343-0.202-0.455
			c0-0.021,0.007-0.042,0.034-0.098c0.168,0.245,0.364,0.357,0.616,0.357c0.119,0,0.294-0.014,0.603-0.056
			c0.623-0.077,1.085-0.119,1.848-0.168c0.063-0.385,0.147-1.071,0.196-1.526c-0.896,0.049-1.981,0.196-2.422,0.336
			c-0.063,0.021-0.112,0.028-0.154,0.028c-0.084,0-0.182-0.049-0.259-0.126c-0.147-0.147-0.273-0.406-0.273-0.553
			c0-0.042,0.007-0.063,0.028-0.119c0.217,0.273,0.336,0.343,0.608,0.343c0.063,0,0.063,0,1.533-0.14
			c0.175-0.021,0.399-0.028,0.974-0.056c0.076-0.714,0.098-0.931,0.104-1.302c-0.483,0-0.952,0.049-1.918,0.182
			c-0.322,0.042-0.406,0.056-0.672,0.119c-0.07,0.021-0.119,0.028-0.154,0.028c-0.077,0-0.161-0.042-0.23-0.112
			c-0.176-0.189-0.309-0.441-0.309-0.602c0-0.042,0.007-0.077,0.042-0.14C16.174,2.001,16.363,2.113,16.685,2.113z"/>
		<path d="M22.39,3.506c0.175,0.133,0.309,0.168,0.679,0.168c0.077,0,0.077,0,0.861-0.021c0.273-0.007,2.499-0.042,2.73-0.042
			c0.63,0,0.783,0.014,0.909,0.063c0.07,0.035,0.099,0.077,0.099,0.14c0,0.084-0.063,0.161-0.161,0.189
			c-0.189,0.063-0.357,0.07-1.68,0.084c-0.651,0.007-2.254,0.049-2.499,0.063c-0.329,0.021-0.393,0.028-0.504,0.091
			c-0.028,0.007-0.077,0.021-0.105,0.021c-0.104,0-0.217-0.077-0.336-0.231c-0.147-0.182-0.266-0.476-0.266-0.644
			c0-0.098,0.007-0.112,0.056-0.161C22.257,3.387,22.292,3.436,22.39,3.506z"/>
		<path d="M30.901,6.712c0.554-0.392,0.925-0.742,1.303-1.232c0.405-0.532,0.692-1.057,0.973-1.792
			c0.182-0.476,0.259-0.798,0.301-1.197c-0.111-0.007-0.14-0.007-0.224-0.007c-0.63,0-1.61,0.126-2.437,0.308
			c-0.056,0.014-0.098,0.021-0.126,0.021c-0.084,0-0.175-0.035-0.356-0.126c0.028,0.077,0.028,0.084,0.035,0.315
			c0.007,0.497,0.014,0.973,0.014,1.008c0,0.259-0.049,0.378-0.161,0.378c-0.154,0-0.398-0.364-0.398-0.588
			c0-0.049,0.007-0.077,0.049-0.161c0.042-0.105,0.063-0.266,0.063-0.511c0-0.539-0.119-0.763-0.511-0.987
			c0.056-0.028,0.084-0.035,0.14-0.035c0.196,0,0.302,0.056,0.735,0.399c0.175,0,0.203-0.007,0.693-0.077
			c0.279-0.042,0.371-0.049,0.595-0.077c0.007-0.112,0.007-0.161,0.007-0.315c0-0.434-0.021-0.623-0.091-0.742
			c-0.063-0.119-0.119-0.154-0.378-0.252c0.056-0.049,0.104-0.07,0.175-0.07c0.406,0,0.924,0.217,0.924,0.392
			c0,0.042-0.014,0.07-0.063,0.161c-0.099,0.168-0.141,0.392-0.154,0.777c1.211-0.105,1.33-0.119,1.435-0.175
			c0.057-0.028,0.092-0.042,0.126-0.042c0.07,0,0.183,0.063,0.344,0.189c0.203,0.168,0.272,0.259,0.272,0.357
			c0,0.07-0.007,0.084-0.084,0.168c-0.063,0.063-0.104,0.161-0.203,0.42c-0.252,0.672-0.42,1.05-0.672,1.463
			c-0.469,0.777-0.896,1.26-1.519,1.694c-0.309,0.217-0.483,0.322-0.742,0.434L30.901,6.712z"/>
		<path d="M36.061,4.892c0.875-0.469,1.813-1.176,2.632-1.988c0.693-0.679,1.142-1.246,1.142-1.449c0-0.133-0.112-0.245-0.393-0.399
			c0.077-0.028,0.092-0.028,0.141-0.028c0.203,0,0.378,0.063,0.602,0.21c0.238,0.161,0.364,0.322,0.364,0.455
			c0,0.063-0.007,0.077-0.28,0.308c-0.069,0.056-0.069,0.056-0.566,0.532c-0.49,0.469-0.532,0.504-0.833,0.756
			c0.272,0.203,0.392,0.308,0.427,0.392c0.028,0.07,0.042,0.399,0.049,1.029c0.007,0.49,0.021,0.938,0.035,1.337
			c0,0.154,0.007,0.357,0.007,0.399c0,0.245-0.049,0.35-0.161,0.35c-0.161,0-0.476-0.385-0.476-0.588c0-0.049,0-0.049,0.042-0.182
			c0.063-0.175,0.126-1.043,0.126-1.722c0-0.343-0.015-0.553-0.042-0.665c-0.021-0.07-0.049-0.105-0.154-0.217
			c-0.49,0.392-0.994,0.749-1.344,0.959c-0.393,0.231-0.896,0.476-1.26,0.609L36.061,4.892z"/>
		<path d="M43.642,1.868c0.672,0.168,1.078,0.329,1.352,0.525c0.161,0.112,0.237,0.266,0.237,0.476c0,0.231-0.076,0.392-0.195,0.392
			c-0.077,0-0.112-0.035-0.302-0.28c-0.343-0.455-0.595-0.686-1.141-1.029L43.642,1.868z M48.619,2.267
			c-0.351,0.658-0.777,1.211-1.471,1.883c-0.644,0.623-1.077,0.973-1.967,1.596c-0.329,0.231-0.364,0.259-0.413,0.322
			c-0.111,0.133-0.153,0.168-0.245,0.168c-0.286,0-0.818-0.672-0.818-1.029c0-0.042,0.007-0.07,0.035-0.14
			c0.14,0.21,0.153,0.224,0.252,0.308c0.104,0.098,0.202,0.147,0.279,0.147c0.119,0,0.336-0.091,0.68-0.294
			c0.783-0.455,1.057-0.651,1.673-1.155c0.86-0.7,1.281-1.127,1.883-1.869L48.619,2.267z"/>
		<path d="M52.455,4.948c0,0.399,0,1.218,0.007,1.4c0,0.063,0,0.105,0,0.126c0,0.21-0.049,0.301-0.154,0.301
			c-0.077,0-0.153-0.063-0.252-0.189c-0.104-0.161-0.182-0.343-0.182-0.455c0-0.063,0.007-0.105,0.056-0.259
			c0.077-0.259,0.119-1.134,0.119-2.408c0-1.442-0.021-1.82-0.112-1.995c-0.084-0.154-0.203-0.252-0.447-0.357
			c0.069-0.042,0.111-0.056,0.182-0.056c0.161,0,0.427,0.091,0.679,0.238c0.196,0.112,0.267,0.189,0.267,0.294
			c0,0.042-0.008,0.056-0.042,0.126c-0.092,0.189-0.119,0.476-0.119,1.526c0.763,0.091,1.441,0.273,1.785,0.476
			c0.21,0.119,0.286,0.245,0.286,0.462c0,0.175-0.063,0.308-0.153,0.308c-0.057,0-0.099-0.021-0.273-0.175
			c-0.518-0.434-1.015-0.707-1.645-0.896v0.161V4.948z M53.777,1.273c0.896,0.378,1.204,0.623,1.204,0.945
			c0,0.196-0.084,0.364-0.188,0.364c-0.077,0-0.084-0.007-0.259-0.301c-0.189-0.336-0.441-0.616-0.819-0.924L53.777,1.273z
			 M54.415,0.776c0.497,0.175,0.734,0.287,0.966,0.462c0.161,0.119,0.224,0.231,0.224,0.392c0,0.182-0.069,0.329-0.161,0.329
			c-0.084,0-0.098-0.021-0.259-0.259c-0.21-0.322-0.469-0.574-0.826-0.84L54.415,0.776z"/>
		<path d="M57.39,3.506c0.175,0.133,0.309,0.168,0.679,0.168c0.077,0,0.077,0,0.861-0.021c0.273-0.007,2.499-0.042,2.73-0.042
			c0.63,0,0.783,0.014,0.909,0.063c0.07,0.035,0.099,0.077,0.099,0.14c0,0.084-0.063,0.161-0.161,0.189
			c-0.189,0.063-0.357,0.07-1.68,0.084c-0.651,0.007-2.254,0.049-2.499,0.063c-0.329,0.021-0.393,0.028-0.504,0.091
			c-0.028,0.007-0.077,0.021-0.105,0.021c-0.104,0-0.217-0.077-0.336-0.231c-0.147-0.182-0.266-0.476-0.266-0.644
			c0-0.098,0.007-0.112,0.056-0.161C57.257,3.387,57.292,3.436,57.39,3.506z"/>
		<path fill="#00A73B" d="M4.848,14.545c-0.252,0.882-0.644,2.408-0.812,3.094c-0.141,0.616-0.183,0.84-0.183,1.19
			c-0.014,0.448-0.027,0.504-0.098,0.616c-0.07,0.098-0.154,0.154-0.266,0.154c-0.238,0-0.435-0.196-0.603-0.63
			c-0.28-0.714-0.448-1.778-0.448-2.814c0-1.288,0.154-2.464,0.63-4.662c0.183-0.868,0.211-1.022,0.211-1.26
			c0-0.42-0.112-0.756-0.406-1.232c0.322,0.014,0.588,0.196,0.979,0.7c0.322,0.406,0.504,0.798,0.504,1.064
			c0,0.154,0,0.154-0.224,0.616c-0.672,1.4-1.064,3.066-1.064,4.564c0,0.714,0.057,1.162,0.225,1.736l0.588-1.4l0.756-1.806
			L4.848,14.545z M6.248,12.011c0.672,0.434,1.105,0.574,1.806,0.574c0.49,0,1.022-0.07,1.596-0.196c0-0.266,0-0.49,0-0.616
			c0-1.568-0.014-1.75-0.195-1.946C9.286,9.646,8.978,9.547,8.53,9.505c0.195-0.182,0.308-0.224,0.672-0.224
			c0.308,0,0.686,0.056,0.951,0.126c0.406,0.126,0.616,0.294,0.616,0.504c0,0.098,0,0.112-0.126,0.434
			c-0.153,0.406-0.237,0.91-0.294,1.876c0.645-0.182,1.05-0.364,1.288-0.574c0.14-0.14,0.182-0.154,0.308-0.154
			c0.169,0,0.49,0.084,0.658,0.182c0.112,0.056,0.183,0.154,0.183,0.252c0,0.308-1.022,0.728-2.479,1.008
			c0,1.862,0.042,2.632,0.183,3.808c1.624,0.434,2.31,0.98,2.31,1.792c0,0.294-0.126,0.518-0.28,0.518
			c-0.111,0-0.21-0.07-0.489-0.35c-0.616-0.63-0.967-0.882-1.513-1.12c0.015,0.126,0.015,0.238,0.015,0.336
			c0,1.008-0.841,1.61-2.24,1.61c-1.218,0-2.072-0.588-2.072-1.428c0-0.966,1.036-1.582,2.632-1.582
			c0.267,0,0.462,0.014,0.854,0.042c0-0.126,0-0.21,0-0.238l-0.028-1.498l-0.014-1.792c-0.42,0.084-0.826,0.112-1.232,0.112
			c-1.021,0-1.609-0.252-2.31-0.98L6.248,12.011z M8.39,17.121c-1.105,0-1.792,0.364-1.792,0.98c0,0.49,0.546,0.826,1.372,0.826
			c0.771,0,1.316-0.224,1.54-0.658c0.14-0.252,0.182-0.462,0.182-0.98C9.3,17.177,8.908,17.121,8.39,17.121z"/>
		<path d="M17.784,11.241c0-0.266,0-0.462-0.028-0.868c1.05,0.112,1.358,0.182,1.358,0.322c0,0.126-0.042,0.14-0.49,0.294v1.05
			h0.742c0.153-0.224,0.21-0.28,0.378-0.49c0.308,0.196,0.392,0.266,0.657,0.49c0.126,0.112,0.168,0.168,0.168,0.238
			s-0.098,0.168-0.336,0.294c0,0.336,0,0.476,0,0.742c0,0.224,0.015,1.176,0.028,3.122c0,0.014,0,0.042,0,0.056
			c0,0.14-0.182,0.196-0.742,0.196c-0.098,0-0.14-0.028-0.153-0.126v-0.42h-2.311v2.786c0.813-0.182,1.134-0.266,2.296-0.63
			c-0.321-0.518-0.489-0.77-0.882-1.26l0.154-0.126c0.56,0.336,0.896,0.588,1.414,1.05c0.476,0.448,0.63,0.658,0.63,0.938
			c0,0.224-0.099,0.644-0.196,0.812c-0.07,0.112-0.168,0.182-0.238,0.182c-0.098,0-0.14-0.056-0.21-0.252
			c-0.084-0.238-0.294-0.686-0.518-1.078c-0.91,0.518-2.03,1.008-3.696,1.582c-0.014,0.364-0.098,0.56-0.21,0.56
			c-0.056,0-0.111-0.056-0.168-0.168c-0.014-0.028-0.168-0.448-0.434-1.246c0.602-0.07,0.714-0.084,1.078-0.168l-0.015-6.37
			l0.015-0.812c-0.462,0.462-0.7,0.686-1.33,1.176l-0.141-0.154c0.757-0.84,1.387-1.708,1.933-2.716
			c0.294-0.518,0.602-1.148,0.798-1.638c0.098-0.21,0.126-0.308,0.196-0.644c1.063,0.238,1.456,0.378,1.456,0.518
			c0,0.112-0.196,0.196-0.574,0.238l-0.099,0.168c1.442,0.448,1.442,0.448,1.975,0.672c0.49,0.21,0.644,0.448,0.644,0.952
			c0,0.364-0.111,0.602-0.266,0.602c-0.126,0-0.168-0.042-0.42-0.35c-0.42-0.518-0.994-0.994-2.059-1.68
			c-0.812,1.344-1.147,1.792-1.861,2.576c0.279,0.126,0.392,0.182,0.728,0.378h0.729V11.241z M19.366,13.887v-1.526h-2.311v1.526
			H19.366z M17.056,14.195v1.624h2.311v-1.624H17.056z M26.142,10.037c0.28-0.392,0.378-0.518,0.672-0.896
			c0.49,0.42,0.63,0.546,1.078,1.008c0.028,0.042,0.042,0.084,0.042,0.112c0,0.056-0.069,0.098-0.154,0.098h-3.094v2.002h1.4
			c0.182-0.266,0.238-0.336,0.448-0.588c0.378,0.308,0.489,0.406,0.825,0.686c0.099,0.098,0.126,0.14,0.126,0.196
			s-0.126,0.154-0.42,0.294v2.926c0.015,0.84,0.015,1.596,0.015,2.254c0,0.042,0,0.098,0,0.112c0,0.364-0.099,0.588-0.364,0.798
			c-0.182,0.154-0.406,0.238-0.91,0.336c-0.028-0.574-0.21-0.77-0.896-0.924v-0.154c0.266,0.014,0.573,0.028,0.783,0.028
			c0.057,0,0.099,0,0.196,0c0.028,0,0.056,0,0.056,0c0.154,0,0.196-0.056,0.196-0.224v-5.418h-1.456v5.026
			c0,0.644,0,0.728,0.042,2.828c-0.027,0.098-0.056,0.112-0.168,0.126c-0.279,0.056-0.462,0.07-0.574,0.07
			c-0.153,0-0.224-0.042-0.224-0.126c0-0.014,0-0.028,0-0.042c0.056-1.498,0.07-2.674,0.07-4.368v-3.514h-1.33l-0.015,3.906v1.358
			c0,0.266,0,0.532,0.015,1.022c-0.015,0.126-0.042,0.168-0.168,0.196c-0.112,0.014-0.42,0.042-0.546,0.042
			c-0.154,0-0.238-0.056-0.238-0.14c0-0.028,0-0.056,0.014-0.098c0.042-1.274,0.042-1.61,0.057-3.598c0-0.644,0-1.33,0.014-2.044
			c0-0.112,0-0.168,0-0.196v-1.148c-0.476,0.812-0.602,0.98-1.078,1.554l-0.196-0.126c0.603-1.022,0.994-1.946,1.372-3.206
			c0.322-1.106,0.504-1.848,0.546-2.352c1.036,0.238,1.471,0.392,1.471,0.532s-0.183,0.21-0.561,0.238
			c-0.294,0.742-0.294,0.742-0.56,1.414H26.142z M22.487,10.359c-0.14,0.322-0.308,0.658-0.77,1.47
			c0.434,0.224,0.504,0.266,0.91,0.532h1.204v-2.002H22.487z"/>
		<path d="M48.29,9.743c-0.112,0.56-0.154,0.742-0.28,1.078c-0.434,1.204-1.204,1.974-2.492,2.506
			c-0.7,0.28-1.273,0.406-2.113,0.504l-0.057-0.21c1.736-0.476,2.59-0.994,3.262-1.974c0.448-0.63,0.631-1.148,0.7-1.904h-2.394
			c-0.112,1.176-0.63,2.128-1.176,2.128c-0.21,0-0.421-0.35-0.421-0.728c0-0.196,0.057-0.308,0.267-0.448
			c0.588-0.434,0.868-0.952,1.092-2.086h0.238c0.014,0.35,0.014,0.49,0.014,0.602c0,0.056,0,0.126,0,0.21h3.962V8.666
			c0-0.28-0.014-0.462-0.056-0.84c1.218,0.182,1.218,0.182,1.344,0.21c0.196,0.028,0.322,0.098,0.322,0.196
			c0,0.014-0.042,0.07-0.07,0.098c-0.098,0.07-0.182,0.098-0.574,0.21v0.882h3.584c0.238-0.322,0.322-0.42,0.63-0.714
			c0.532,0.392,0.687,0.518,1.177,0.924c0.098,0.112,0.126,0.14,0.126,0.196c0,0.014-0.028,0.056-0.057,0.07
			c-0.056,0.028-0.182,0.056-0.321,0.07l-0.729,0.084c-0.252,0.224-0.252,0.224-0.686,0.686c-0.267,0.294-0.267,0.294-0.49,0.49
			l-0.182-0.07c0.224-0.49,0.237-0.532,0.531-1.414H51.02v1.848c0,0.252,0.084,0.294,0.616,0.294c0.098,0,0.434,0,0.952,0.014
			c0.07,0,0.126,0,0.154,0c0.56,0,1.245-0.042,1.414-0.098c0.14-0.042,0.21-0.126,0.392-0.49c0-0.014,0.084-0.196,0.224-0.504
			c0.057-0.112,0.141-0.28,0.238-0.504l0.168,0.028l-0.098,1.064l-0.015,0.168c0,0.07,0,0.112,0,0.112
			c0,0.098,0.042,0.126,0.225,0.168c0.168,0.042,0.294,0.182,0.294,0.336c0,0.35-0.672,0.448-3.178,0.448
			c-1.219,0-1.723-0.028-1.946-0.098c-0.225-0.056-0.336-0.252-0.336-0.56V9.743H48.29z M45.616,16.785
			c-0.042,0.938-0.21,1.638-0.589,2.31c-0.266,0.476-0.812,0.924-1.119,0.924c-0.21,0-0.462-0.448-0.462-0.812
			c0-0.196,0.069-0.252,0.489-0.434c0.154-0.07,0.687-0.532,0.91-0.812c0.252-0.294,0.378-0.588,0.546-1.176H45.616z M51.229,12.963
			c1.204,0.546,1.792,0.882,2.479,1.414c0.237,0.182,0.308,0.266,0.35,0.462c0.042,0.14,0.057,0.224,0.057,0.308
			c0,0.098-0.07,0.392-0.112,0.518c-0.057,0.14-0.126,0.21-0.225,0.21c-0.084,0-0.168-0.07-0.294-0.224
			c-0.35-0.49-0.615-0.826-0.867-1.134c-0.742,0.14-1.33,0.224-2.618,0.392c-1.666,0.21-1.723,0.224-3.57,0.406
			c-0.854,0.084-0.854,0.084-1.246,0.126c-0.112,0.448-0.168,0.546-0.266,0.546c-0.154,0-0.267-0.364-0.504-1.526
			c0.476,0.028,0.657,0.042,1.036,0.042c0.014,0,0.546-0.014,1.609-0.028c0.49-0.812,0.813-1.61,1.078-2.618
			c1.05,0.196,1.526,0.336,1.526,0.476c0,0.112-0.154,0.168-0.672,0.266c-0.687,0.91-1.051,1.344-1.555,1.876
			c2.002-0.042,3.389-0.098,4.956-0.224c-0.126-0.126-0.546-0.518-1.273-1.176L51.229,12.963z M46.735,17.331
			c0-0.266-0.014-0.49-0.042-1.008c0.589,0.042,1.288,0.154,1.513,0.252c0.027,0.014,0.069,0.07,0.069,0.112
			c0,0.112-0.098,0.168-0.573,0.336v2.114c0,0.168,0.069,0.28,0.182,0.308c0.126,0.028,0.756,0.056,1.358,0.056l1.273-0.014h0.196
			c0.476,0,0.63-0.056,0.742-0.238c0.111-0.224,0.462-1.218,0.77-2.226l0.168,0.028l-0.069,1.792
			c-0.015,0.084-0.015,0.14-0.015,0.196c0,0.266,0.015,0.28,0.238,0.35c0.238,0.07,0.392,0.21,0.392,0.35
			c0,0.168-0.252,0.378-0.546,0.448c-0.336,0.07-1.512,0.112-3.023,0.112c-1.358,0-2.002-0.028-2.227-0.112
			c-0.294-0.112-0.406-0.308-0.406-0.672V17.331z M48.611,15.567c0.967,0.308,1.513,0.56,1.961,0.952
			c0.21,0.168,0.252,0.28,0.252,0.574c0,0.378-0.196,0.728-0.393,0.728c-0.112,0-0.112-0.014-0.35-0.392
			c-0.322-0.546-0.771-1.036-1.555-1.708L48.611,15.567z M53.063,16.519c0.729,0.42,1.303,0.84,1.862,1.372
			c0.448,0.42,0.588,0.644,0.588,0.91s-0.154,0.658-0.322,0.854c-0.056,0.07-0.153,0.112-0.237,0.112
			c-0.141,0-0.154-0.028-0.322-0.406c-0.364-0.882-0.924-1.764-1.722-2.73L53.063,16.519z"/>
		<path fill="#ED6E46" d="M68.561,9.575c0.322-0.378,0.42-0.504,0.756-0.882c0.477,0.448,0.631,0.588,1.107,1.036
			c0.027,0.028,0.041,0.056,0.041,0.07c0,0.042-0.07,0.098-0.139,0.098h-3.053c0.448,0.28,0.687,0.49,1.036,0.91
			c0.154,0.182,0.224,0.336,0.224,0.476c0,0.35-0.322,0.798-0.587,0.798c-0.112,0-0.127-0.056-0.211-0.434
			c-0.126-0.658-0.266-1.05-0.657-1.75h-0.756c-0.616,0.868-1.232,1.568-2.03,2.296l-0.21-0.14c0.658-0.784,1.063-1.47,1.554-2.534
			c0.322-0.714,0.434-1.064,0.546-1.624c0.322,0.056,0.561,0.112,0.729,0.14c0.56,0.098,0.657,0.126,0.728,0.182
			c0.028,0.028,0.07,0.084,0.07,0.112c0,0.112-0.112,0.154-0.63,0.238c-0.21,0.462-0.294,0.63-0.532,1.008H68.561z M73.336,12.403
			c0.35-0.336,0.447-0.448,0.742-0.784c0.461,0.392,0.602,0.518,1.049,0.938c0.029,0.028,0.043,0.056,0.043,0.084
			c0,0.042-0.057,0.084-0.113,0.084H70.62v1.694h3.977c0.35-0.42,0.461-0.546,0.84-0.938c0.545,0.434,0.713,0.574,1.246,1.05
			c0.041,0.056,0.07,0.098,0.07,0.126c0,0.042-0.07,0.084-0.154,0.084h-3.332v1.624h1.26c0.336-0.406,0.434-0.518,0.77-0.91
			c0.518,0.434,0.686,0.574,1.205,1.036c0.041,0.042,0.055,0.084,0.055,0.112c0,0.042-0.07,0.084-0.125,0.084h-3.164v1.288
			c0,0.21,0,0.21,0.014,1.554c-0.057,0.49-0.141,0.672-0.42,0.854c-0.295,0.21-0.602,0.308-1.232,0.406
			c-0.055-0.392-0.125-0.56-0.322-0.7c-0.238-0.182-0.504-0.238-1.582-0.378v-0.224c0.953,0.056,1.037,0.07,2.367,0.126
			c0.027,0,0.055,0,0.07,0c0.139,0,0.182-0.042,0.182-0.224v-2.702H65.79c-0.658,0-0.813,0.014-1.148,0.112l-0.098-0.574
			c0.406,0.112,0.602,0.14,1.246,0.14h6.552v-1.624h-6.777c-0.615,0-0.728,0.014-1.273,0.098l-0.099-0.56
			c0.547,0.126,0.757,0.14,1.372,0.14h4.158v-1.694h-2.771c-0.393,0-0.519,0.014-1.051,0.112L65.79,12.25
			c0.448,0.112,0.714,0.154,1.162,0.154h2.771v-0.308c0-0.238,0-0.294-0.055-0.994c0.168,0.028,0.168,0.028,0.363,0.042
			c0.699-1.092,1.148-2.072,1.428-3.164C72.86,8.217,73,8.259,73,8.385s-0.197,0.21-0.658,0.266c-0.252,0.42-0.35,0.574-0.617,0.924
			h2.758c0.365-0.406,0.463-0.532,0.813-0.896l1.316,1.008c0.057,0.056,0.084,0.084,0.084,0.112c0,0.056-0.07,0.098-0.127,0.098
			H72.44c0.377,0.224,0.504,0.322,0.883,0.658c0.336,0.294,0.434,0.448,0.434,0.644c0,0.294-0.322,0.784-0.52,0.784
			c-0.098,0-0.182-0.098-0.223-0.308c-0.211-0.784-0.434-1.26-0.826-1.778h-0.729c-0.477,0.588-0.77,0.91-1.162,1.274
			c0.799,0.126,0.883,0.154,0.883,0.266c0,0.126-0.098,0.168-0.561,0.28v0.686H73.336z M67.189,16.967
			c1.737,0.742,2.241,1.106,2.241,1.624c0,0.448-0.197,0.896-0.406,0.896c-0.127,0-0.182-0.056-0.477-0.616
			c-0.419-0.756-0.812-1.232-1.469-1.792L67.189,16.967z"/>
	</g>
	<g>
		<path d="M8.264,28.297c0.567,0.112,0.994,0.259,1.226,0.413c0.188,0.119,0.266,0.259,0.266,0.462c0,0.182-0.091,0.336-0.196,0.336
			c-0.069,0-0.111-0.028-0.217-0.161c-0.35-0.441-0.665-0.707-1.12-0.959L8.264,28.297z M13.682,28.129
			c-0.378,0.539-0.734,0.938-1.483,1.638c-0.581,0.546-1.345,1.085-2.43,1.729c-0.188,0.112-0.237,0.147-0.336,0.238
			c-0.056,0.049-0.104,0.07-0.161,0.07c-0.14,0-0.294-0.133-0.497-0.413c-0.133-0.203-0.217-0.413-0.217-0.56
			c0-0.07,0.015-0.112,0.057-0.168c0.153,0.301,0.321,0.441,0.531,0.441c0.189,0,0.707-0.238,1.372-0.637
			c1.085-0.637,2.282-1.582,3.066-2.415L13.682,28.129z M9.034,27.052c1.12,0.266,1.477,0.483,1.477,0.896
			c0,0.196-0.084,0.35-0.188,0.35c-0.077,0-0.077,0-0.379-0.371c-0.266-0.315-0.588-0.581-0.959-0.777L9.034,27.052z"/>
		<path d="M16.685,27.514c0.364,0,1.204-0.056,1.933-0.133c0.371-0.042,0.482-0.063,0.566-0.133
			c0.077-0.056,0.119-0.077,0.168-0.077c0.077,0,0.259,0.126,0.455,0.322c0.105,0.105,0.154,0.182,0.154,0.245
			c0,0.049-0.014,0.077-0.091,0.175c-0.057,0.077-0.077,0.154-0.183,0.847c-0.111,0.686-0.111,0.686-0.23,1.414
			c-0.042,0.231-0.07,0.399-0.084,0.511c0.259,0.168,0.343,0.259,0.343,0.392c0,0.063-0.056,0.105-0.154,0.105
			c-0.056,0-0.084,0-0.272-0.028c-0.091-0.014-0.364-0.021-0.638-0.021c-0.531,0-1.092,0.07-1.7,0.217
			c-0.183,0.042-0.238,0.063-0.357,0.112c-0.042,0.021-0.077,0.028-0.119,0.028c-0.153,0-0.294-0.098-0.448-0.315
			c-0.133-0.182-0.202-0.343-0.202-0.455c0-0.021,0.007-0.042,0.034-0.098c0.168,0.245,0.364,0.357,0.616,0.357
			c0.119,0,0.294-0.014,0.603-0.056c0.623-0.077,1.085-0.119,1.848-0.168c0.063-0.385,0.147-1.071,0.196-1.526
			c-0.896,0.049-1.981,0.196-2.422,0.336c-0.063,0.021-0.112,0.028-0.154,0.028c-0.084,0-0.182-0.049-0.259-0.126
			c-0.147-0.147-0.273-0.406-0.273-0.553c0-0.042,0.007-0.063,0.028-0.119c0.217,0.273,0.336,0.343,0.608,0.343
			c0.063,0,0.063,0,1.533-0.14c0.175-0.021,0.399-0.028,0.974-0.056c0.076-0.714,0.098-0.931,0.104-1.302
			c-0.483,0-0.952,0.049-1.918,0.182c-0.322,0.042-0.406,0.056-0.672,0.119c-0.07,0.021-0.119,0.028-0.154,0.028
			c-0.077,0-0.161-0.042-0.23-0.112c-0.176-0.189-0.309-0.441-0.309-0.602c0-0.042,0.007-0.077,0.042-0.14
			C16.174,27.401,16.363,27.514,16.685,27.514z"/>
		<path d="M22.39,28.907c0.175,0.133,0.309,0.168,0.679,0.168c0.077,0,0.077,0,0.861-0.021c0.273-0.007,2.499-0.042,2.73-0.042
			c0.63,0,0.783,0.014,0.909,0.063c0.07,0.035,0.099,0.077,0.099,0.14c0,0.084-0.063,0.161-0.161,0.189
			c-0.189,0.063-0.357,0.07-1.68,0.084c-0.651,0.007-2.254,0.049-2.499,0.063c-0.329,0.021-0.393,0.028-0.504,0.091
			c-0.028,0.007-0.077,0.021-0.105,0.021c-0.104,0-0.217-0.077-0.336-0.231c-0.147-0.182-0.266-0.476-0.266-0.644
			c0-0.098,0.007-0.112,0.056-0.161C22.257,28.788,22.292,28.836,22.39,28.907z"/>
		<path d="M30.901,32.112c0.554-0.392,0.925-0.742,1.303-1.232c0.405-0.532,0.692-1.057,0.973-1.792
			c0.182-0.476,0.259-0.798,0.301-1.197c-0.111-0.007-0.14-0.007-0.224-0.007c-0.63,0-1.61,0.126-2.437,0.308
			c-0.056,0.014-0.098,0.021-0.126,0.021c-0.084,0-0.175-0.035-0.356-0.126c0.028,0.077,0.028,0.084,0.035,0.315
			c0.007,0.497,0.014,0.973,0.014,1.008c0,0.259-0.049,0.378-0.161,0.378c-0.154,0-0.398-0.364-0.398-0.588
			c0-0.049,0.007-0.077,0.049-0.161c0.042-0.105,0.063-0.266,0.063-0.511c0-0.539-0.119-0.763-0.511-0.987
			c0.056-0.028,0.084-0.035,0.14-0.035c0.196,0,0.302,0.056,0.735,0.399c0.175,0,0.203-0.007,0.693-0.077
			c0.279-0.042,0.371-0.049,0.595-0.077c0.007-0.112,0.007-0.161,0.007-0.315c0-0.434-0.021-0.623-0.091-0.742
			c-0.063-0.119-0.119-0.154-0.378-0.252c0.056-0.049,0.104-0.07,0.175-0.07c0.406,0,0.924,0.217,0.924,0.392
			c0,0.042-0.014,0.07-0.063,0.161c-0.099,0.168-0.141,0.392-0.154,0.777c1.211-0.105,1.33-0.119,1.435-0.175
			c0.057-0.028,0.092-0.042,0.126-0.042c0.07,0,0.183,0.063,0.344,0.189c0.203,0.168,0.272,0.259,0.272,0.357
			c0,0.07-0.007,0.084-0.084,0.168c-0.063,0.063-0.104,0.161-0.203,0.42c-0.252,0.672-0.42,1.05-0.672,1.463
			c-0.469,0.777-0.896,1.26-1.519,1.694c-0.309,0.217-0.483,0.322-0.742,0.434L30.901,32.112z"/>
		<path d="M36.061,30.292c0.875-0.469,1.813-1.176,2.632-1.988c0.693-0.679,1.142-1.246,1.142-1.449
			c0-0.133-0.112-0.245-0.393-0.399c0.077-0.028,0.092-0.028,0.141-0.028c0.203,0,0.378,0.063,0.602,0.21
			c0.238,0.161,0.364,0.322,0.364,0.455c0,0.063-0.007,0.077-0.28,0.308c-0.069,0.056-0.069,0.056-0.566,0.532
			c-0.49,0.469-0.532,0.504-0.833,0.756c0.272,0.203,0.392,0.308,0.427,0.392c0.028,0.07,0.042,0.399,0.049,1.029
			c0.007,0.49,0.021,0.938,0.035,1.337c0,0.154,0.007,0.357,0.007,0.399c0,0.245-0.049,0.35-0.161,0.35
			c-0.161,0-0.476-0.385-0.476-0.588c0-0.049,0-0.049,0.042-0.182c0.063-0.175,0.126-1.043,0.126-1.722
			c0-0.343-0.015-0.553-0.042-0.665c-0.021-0.07-0.049-0.105-0.154-0.217c-0.49,0.392-0.994,0.749-1.344,0.959
			c-0.393,0.231-0.896,0.476-1.26,0.609L36.061,30.292z"/>
		<path d="M43.642,27.269c0.672,0.168,1.078,0.329,1.352,0.525c0.161,0.112,0.237,0.266,0.237,0.476
			c0,0.231-0.076,0.392-0.195,0.392c-0.077,0-0.112-0.035-0.302-0.28c-0.343-0.455-0.595-0.686-1.141-1.029L43.642,27.269z
			 M48.619,27.667c-0.351,0.658-0.777,1.211-1.471,1.883c-0.644,0.623-1.077,0.973-1.967,1.596
			c-0.329,0.231-0.364,0.259-0.413,0.322c-0.111,0.133-0.153,0.168-0.245,0.168c-0.286,0-0.818-0.672-0.818-1.029
			c0-0.042,0.007-0.07,0.035-0.14c0.14,0.21,0.153,0.224,0.252,0.308c0.104,0.098,0.202,0.147,0.279,0.147
			c0.119,0,0.336-0.091,0.68-0.294c0.783-0.455,1.057-0.651,1.673-1.155c0.86-0.7,1.281-1.127,1.883-1.869L48.619,27.667z"/>
		<path d="M52.455,30.349c0,0.399,0,1.218,0.007,1.4c0,0.063,0,0.105,0,0.126c0,0.21-0.049,0.301-0.154,0.301
			c-0.077,0-0.153-0.063-0.252-0.189c-0.104-0.161-0.182-0.343-0.182-0.455c0-0.063,0.007-0.105,0.056-0.259
			c0.077-0.259,0.119-1.134,0.119-2.408c0-1.442-0.021-1.82-0.112-1.995c-0.084-0.154-0.203-0.252-0.447-0.357
			c0.069-0.042,0.111-0.056,0.182-0.056c0.161,0,0.427,0.091,0.679,0.238c0.196,0.112,0.267,0.189,0.267,0.294
			c0,0.042-0.008,0.056-0.042,0.126c-0.092,0.189-0.119,0.476-0.119,1.526c0.763,0.091,1.441,0.273,1.785,0.476
			c0.21,0.119,0.286,0.245,0.286,0.462c0,0.175-0.063,0.308-0.153,0.308c-0.057,0-0.099-0.021-0.273-0.175
			c-0.518-0.434-1.015-0.707-1.645-0.896v0.161V30.349z M53.777,26.673c0.896,0.378,1.204,0.623,1.204,0.945
			c0,0.196-0.084,0.364-0.188,0.364c-0.077,0-0.084-0.007-0.259-0.301c-0.189-0.336-0.441-0.616-0.819-0.924L53.777,26.673z
			 M54.415,26.177c0.497,0.175,0.734,0.287,0.966,0.462c0.161,0.119,0.224,0.231,0.224,0.392c0,0.182-0.069,0.329-0.161,0.329
			c-0.084,0-0.098-0.021-0.259-0.259c-0.21-0.322-0.469-0.574-0.826-0.84L54.415,26.177z"/>
		<path d="M57.39,28.907c0.175,0.133,0.309,0.168,0.679,0.168c0.077,0,0.077,0,0.861-0.021c0.273-0.007,2.499-0.042,2.73-0.042
			c0.63,0,0.783,0.014,0.909,0.063c0.07,0.035,0.099,0.077,0.099,0.14c0,0.084-0.063,0.161-0.161,0.189
			c-0.189,0.063-0.357,0.07-1.68,0.084c-0.651,0.007-2.254,0.049-2.499,0.063c-0.329,0.021-0.393,0.028-0.504,0.091
			c-0.028,0.007-0.077,0.021-0.105,0.021c-0.104,0-0.217-0.077-0.336-0.231c-0.147-0.182-0.266-0.476-0.266-0.644
			c0-0.098,0.007-0.112,0.056-0.161C57.257,28.788,57.292,28.836,57.39,28.907z"/>
		<path d="M4.848,39.946c-0.252,0.882-0.644,2.408-0.812,3.094c-0.141,0.616-0.183,0.84-0.183,1.19
			c-0.014,0.448-0.027,0.504-0.098,0.616C3.686,44.944,3.602,45,3.49,45c-0.238,0-0.435-0.196-0.603-0.63
			c-0.28-0.714-0.448-1.778-0.448-2.814c0-1.288,0.154-2.464,0.63-4.662c0.183-0.868,0.211-1.022,0.211-1.26
			c0-0.42-0.112-0.756-0.406-1.232c0.322,0.014,0.588,0.196,0.979,0.7c0.322,0.406,0.504,0.798,0.504,1.064
			c0,0.154,0,0.154-0.224,0.616c-0.672,1.4-1.064,3.066-1.064,4.564c0,0.714,0.057,1.162,0.225,1.736l0.588-1.4l0.756-1.806
			L4.848,39.946z M6.248,37.412c0.672,0.434,1.105,0.574,1.806,0.574c0.49,0,1.022-0.07,1.596-0.196c0-0.266,0-0.49,0-0.616
			c0-1.568-0.014-1.75-0.195-1.946c-0.168-0.182-0.477-0.28-0.924-0.322c0.195-0.182,0.308-0.224,0.672-0.224
			c0.308,0,0.686,0.056,0.951,0.126c0.406,0.126,0.616,0.294,0.616,0.504c0,0.098,0,0.112-0.126,0.434
			c-0.153,0.406-0.237,0.91-0.294,1.876c0.645-0.182,1.05-0.364,1.288-0.574c0.14-0.14,0.182-0.154,0.308-0.154
			c0.169,0,0.49,0.084,0.658,0.182c0.112,0.056,0.183,0.154,0.183,0.252c0,0.308-1.022,0.728-2.479,1.008
			c0,1.862,0.042,2.632,0.183,3.808c1.624,0.434,2.31,0.98,2.31,1.792c0,0.294-0.126,0.518-0.28,0.518
			c-0.111,0-0.21-0.07-0.489-0.35c-0.616-0.63-0.967-0.882-1.513-1.12c0.015,0.126,0.015,0.238,0.015,0.336
			c0,1.008-0.841,1.61-2.24,1.61c-1.218,0-2.072-0.588-2.072-1.428c0-0.966,1.036-1.582,2.632-1.582
			c0.267,0,0.462,0.014,0.854,0.042c0-0.126,0-0.21,0-0.238l-0.028-1.498l-0.014-1.792c-0.42,0.084-0.826,0.112-1.232,0.112
			c-1.021,0-1.609-0.252-2.31-0.98L6.248,37.412z M8.39,42.521c-1.105,0-1.792,0.364-1.792,0.98c0,0.49,0.546,0.826,1.372,0.826
			c0.771,0,1.316-0.224,1.54-0.658c0.14-0.252,0.182-0.462,0.182-0.98C9.3,42.578,8.908,42.521,8.39,42.521z"/>
		<path d="M17.784,36.642c0-0.266,0-0.462-0.028-0.868c1.05,0.112,1.358,0.182,1.358,0.322c0,0.126-0.042,0.14-0.49,0.294v1.05
			h0.742c0.153-0.224,0.21-0.28,0.378-0.49c0.308,0.196,0.392,0.266,0.657,0.49c0.126,0.112,0.168,0.168,0.168,0.238
			s-0.098,0.168-0.336,0.294c0,0.336,0,0.476,0,0.742c0,0.224,0.015,1.176,0.028,3.122c0,0.014,0,0.042,0,0.056
			c0,0.14-0.182,0.196-0.742,0.196c-0.098,0-0.14-0.028-0.153-0.126v-0.42h-2.311v2.786c0.813-0.182,1.134-0.266,2.296-0.63
			c-0.321-0.518-0.489-0.77-0.882-1.26l0.154-0.126c0.56,0.336,0.896,0.588,1.414,1.05c0.476,0.448,0.63,0.658,0.63,0.938
			c0,0.224-0.099,0.644-0.196,0.812c-0.07,0.112-0.168,0.182-0.238,0.182c-0.098,0-0.14-0.056-0.21-0.252
			c-0.084-0.238-0.294-0.686-0.518-1.078c-0.91,0.518-2.03,1.008-3.696,1.582c-0.014,0.364-0.098,0.56-0.21,0.56
			c-0.056,0-0.111-0.056-0.168-0.168c-0.014-0.028-0.168-0.448-0.434-1.246c0.602-0.07,0.714-0.084,1.078-0.168l-0.015-6.37
			l0.015-0.812c-0.462,0.462-0.7,0.686-1.33,1.176l-0.141-0.154c0.757-0.84,1.387-1.708,1.933-2.716
			c0.294-0.518,0.602-1.148,0.798-1.638c0.098-0.21,0.126-0.308,0.196-0.644c1.063,0.238,1.456,0.378,1.456,0.518
			c0,0.112-0.196,0.196-0.574,0.238l-0.099,0.168c1.442,0.448,1.442,0.448,1.975,0.672c0.49,0.21,0.644,0.448,0.644,0.952
			c0,0.364-0.111,0.602-0.266,0.602c-0.126,0-0.168-0.042-0.42-0.35c-0.42-0.518-0.994-0.994-2.059-1.68
			c-0.812,1.344-1.147,1.792-1.861,2.576c0.279,0.126,0.392,0.182,0.728,0.378h0.729V36.642z M19.366,39.288v-1.526h-2.311v1.526
			H19.366z M17.056,39.596v1.624h2.311v-1.624H17.056z M26.142,35.438c0.28-0.392,0.378-0.518,0.672-0.896
			c0.49,0.42,0.63,0.546,1.078,1.008c0.028,0.042,0.042,0.084,0.042,0.112c0,0.056-0.069,0.098-0.154,0.098h-3.094v2.002h1.4
			c0.182-0.266,0.238-0.336,0.448-0.588c0.378,0.308,0.489,0.406,0.825,0.686c0.099,0.098,0.126,0.14,0.126,0.196
			s-0.126,0.154-0.42,0.294v2.926c0.015,0.84,0.015,1.596,0.015,2.254c0,0.042,0,0.098,0,0.112c0,0.364-0.099,0.588-0.364,0.798
			c-0.182,0.154-0.406,0.238-0.91,0.336c-0.028-0.574-0.21-0.77-0.896-0.924v-0.154c0.266,0.014,0.573,0.028,0.783,0.028
			c0.057,0,0.099,0,0.196,0c0.028,0,0.056,0,0.056,0c0.154,0,0.196-0.056,0.196-0.224v-5.418h-1.456v5.026
			c0,0.644,0,0.728,0.042,2.828c-0.027,0.098-0.056,0.112-0.168,0.126c-0.279,0.056-0.462,0.07-0.574,0.07
			c-0.153,0-0.224-0.042-0.224-0.126c0-0.014,0-0.028,0-0.042c0.056-1.498,0.07-2.674,0.07-4.368v-3.514h-1.33l-0.015,3.906v1.358
			c0,0.266,0,0.532,0.015,1.022c-0.015,0.126-0.042,0.168-0.168,0.196c-0.112,0.014-0.42,0.042-0.546,0.042
			c-0.154,0-0.238-0.056-0.238-0.14c0-0.028,0-0.056,0.014-0.098c0.042-1.274,0.042-1.61,0.057-3.598c0-0.644,0-1.33,0.014-2.044
			c0-0.112,0-0.168,0-0.196v-1.148c-0.476,0.812-0.602,0.98-1.078,1.554l-0.196-0.126c0.603-1.022,0.994-1.946,1.372-3.206
			c0.322-1.106,0.504-1.848,0.546-2.352c1.036,0.238,1.471,0.392,1.471,0.532s-0.183,0.21-0.561,0.238
			c-0.294,0.742-0.294,0.742-0.56,1.414H26.142z M22.487,35.76c-0.14,0.322-0.308,0.658-0.77,1.47
			c0.434,0.224,0.504,0.266,0.91,0.532h1.204V35.76H22.487z"/>
		<path d="M48.29,35.144c-0.112,0.56-0.154,0.742-0.28,1.078c-0.434,1.204-1.204,1.974-2.492,2.506
			c-0.7,0.28-1.273,0.406-2.113,0.504l-0.057-0.21c1.736-0.476,2.59-0.994,3.262-1.974c0.448-0.63,0.631-1.148,0.7-1.904h-2.394
			c-0.112,1.176-0.63,2.128-1.176,2.128c-0.21,0-0.421-0.35-0.421-0.728c0-0.196,0.057-0.308,0.267-0.448
			c0.588-0.434,0.868-0.952,1.092-2.086h0.238c0.014,0.35,0.014,0.49,0.014,0.602c0,0.056,0,0.126,0,0.21h3.962v-0.756
			c0-0.28-0.014-0.462-0.056-0.84c1.218,0.182,1.218,0.182,1.344,0.21c0.196,0.028,0.322,0.098,0.322,0.196
			c0,0.014-0.042,0.07-0.07,0.098c-0.098,0.07-0.182,0.098-0.574,0.21v0.882h3.584c0.238-0.322,0.322-0.42,0.63-0.714
			c0.532,0.392,0.687,0.518,1.177,0.924c0.098,0.112,0.126,0.14,0.126,0.196c0,0.014-0.028,0.056-0.057,0.07
			c-0.056,0.028-0.182,0.056-0.321,0.07l-0.729,0.084c-0.252,0.224-0.252,0.224-0.686,0.686c-0.267,0.294-0.267,0.294-0.49,0.49
			l-0.182-0.07c0.224-0.49,0.237-0.532,0.531-1.414H51.02v1.848c0,0.252,0.084,0.294,0.616,0.294c0.098,0,0.434,0,0.952,0.014
			c0.07,0,0.126,0,0.154,0c0.56,0,1.245-0.042,1.414-0.098c0.14-0.042,0.21-0.126,0.392-0.49c0-0.014,0.084-0.196,0.224-0.504
			c0.057-0.112,0.141-0.28,0.238-0.504l0.168,0.028l-0.098,1.064l-0.015,0.168c0,0.07,0,0.112,0,0.112
			c0,0.098,0.042,0.126,0.225,0.168c0.168,0.042,0.294,0.182,0.294,0.336c0,0.35-0.672,0.448-3.178,0.448
			c-1.219,0-1.723-0.028-1.946-0.098c-0.225-0.056-0.336-0.252-0.336-0.56v-2.226H48.29z M45.616,42.186
			c-0.042,0.938-0.21,1.638-0.589,2.31c-0.266,0.476-0.812,0.924-1.119,0.924c-0.21,0-0.462-0.448-0.462-0.812
			c0-0.196,0.069-0.252,0.489-0.434c0.154-0.07,0.687-0.532,0.91-0.812c0.252-0.294,0.378-0.588,0.546-1.176H45.616z M51.229,38.364
			c1.204,0.546,1.792,0.882,2.479,1.414c0.237,0.182,0.308,0.266,0.35,0.462c0.042,0.14,0.057,0.224,0.057,0.308
			c0,0.098-0.07,0.392-0.112,0.518c-0.057,0.14-0.126,0.21-0.225,0.21c-0.084,0-0.168-0.07-0.294-0.224
			c-0.35-0.49-0.615-0.826-0.867-1.134c-0.742,0.14-1.33,0.224-2.618,0.392c-1.666,0.21-1.723,0.224-3.57,0.406
			c-0.854,0.084-0.854,0.084-1.246,0.126c-0.112,0.448-0.168,0.546-0.266,0.546c-0.154,0-0.267-0.364-0.504-1.526
			c0.476,0.028,0.657,0.042,1.036,0.042c0.014,0,0.546-0.014,1.609-0.028c0.49-0.812,0.813-1.61,1.078-2.618
			c1.05,0.196,1.526,0.336,1.526,0.476c0,0.112-0.154,0.168-0.672,0.266c-0.687,0.91-1.051,1.344-1.555,1.876
			c2.002-0.042,3.389-0.098,4.956-0.224c-0.126-0.126-0.546-0.518-1.273-1.176L51.229,38.364z M46.735,42.731
			c0-0.266-0.014-0.49-0.042-1.008c0.589,0.042,1.288,0.154,1.513,0.252c0.027,0.014,0.069,0.07,0.069,0.112
			c0,0.112-0.098,0.168-0.573,0.336v2.114c0,0.168,0.069,0.28,0.182,0.308c0.126,0.028,0.756,0.056,1.358,0.056l1.273-0.014h0.196
			c0.476,0,0.63-0.056,0.742-0.238c0.111-0.224,0.462-1.218,0.77-2.226l0.168,0.028l-0.069,1.792
			c-0.015,0.084-0.015,0.14-0.015,0.196c0,0.266,0.015,0.28,0.238,0.35c0.238,0.07,0.392,0.21,0.392,0.35
			c0,0.168-0.252,0.378-0.546,0.448c-0.336,0.07-1.512,0.112-3.023,0.112c-1.358,0-2.002-0.028-2.227-0.112
			c-0.294-0.112-0.406-0.308-0.406-0.672V42.731z M48.611,40.968c0.967,0.308,1.513,0.56,1.961,0.952
			c0.21,0.168,0.252,0.28,0.252,0.574c0,0.378-0.196,0.728-0.393,0.728c-0.112,0-0.112-0.014-0.35-0.392
			c-0.322-0.546-0.771-1.036-1.555-1.708L48.611,40.968z M53.063,41.919c0.729,0.42,1.303,0.84,1.862,1.372
			c0.448,0.42,0.588,0.644,0.588,0.91s-0.154,0.658-0.322,0.854c-0.056,0.07-0.153,0.112-0.237,0.112
			c-0.141,0-0.154-0.028-0.322-0.406c-0.364-0.882-0.924-1.764-1.722-2.73L53.063,41.919z"/>
		<path d="M68.561,34.976c0.322-0.378,0.42-0.504,0.756-0.882c0.477,0.448,0.631,0.588,1.107,1.036
			c0.027,0.028,0.041,0.056,0.041,0.07c0,0.042-0.07,0.098-0.139,0.098h-3.053c0.448,0.28,0.687,0.49,1.036,0.91
			c0.154,0.182,0.224,0.336,0.224,0.476c0,0.35-0.322,0.798-0.587,0.798c-0.112,0-0.127-0.056-0.211-0.434
			c-0.126-0.658-0.266-1.05-0.657-1.75h-0.756c-0.616,0.868-1.232,1.568-2.03,2.296l-0.21-0.14c0.658-0.784,1.063-1.47,1.554-2.534
			c0.322-0.714,0.434-1.064,0.546-1.624c0.322,0.056,0.561,0.112,0.729,0.14c0.56,0.098,0.657,0.126,0.728,0.182
			c0.028,0.028,0.07,0.084,0.07,0.112c0,0.112-0.112,0.154-0.63,0.238c-0.21,0.462-0.294,0.63-0.532,1.008H68.561z M73.336,37.804
			c0.35-0.336,0.447-0.448,0.742-0.784c0.461,0.392,0.602,0.518,1.049,0.938c0.029,0.028,0.043,0.056,0.043,0.084
			c0,0.042-0.057,0.084-0.113,0.084H70.62v1.694h3.977c0.35-0.42,0.461-0.546,0.84-0.938c0.545,0.434,0.713,0.574,1.246,1.05
			c0.041,0.056,0.07,0.098,0.07,0.126c0,0.042-0.07,0.084-0.154,0.084h-3.332v1.624h1.26c0.336-0.406,0.434-0.518,0.77-0.91
			c0.518,0.434,0.686,0.574,1.205,1.036c0.041,0.042,0.055,0.084,0.055,0.112c0,0.042-0.07,0.084-0.125,0.084h-3.164v1.288
			c0,0.21,0,0.21,0.014,1.554c-0.057,0.49-0.141,0.672-0.42,0.854c-0.295,0.21-0.602,0.308-1.232,0.406
			c-0.055-0.392-0.125-0.56-0.322-0.7c-0.238-0.182-0.504-0.238-1.582-0.378v-0.224c0.953,0.056,1.037,0.07,2.367,0.126
			c0.027,0,0.055,0,0.07,0c0.139,0,0.182-0.042,0.182-0.224v-2.702H65.79c-0.658,0-0.813,0.014-1.148,0.112l-0.098-0.574
			c0.406,0.112,0.602,0.14,1.246,0.14h6.552v-1.624h-6.777c-0.615,0-0.728,0.014-1.273,0.098l-0.099-0.56
			c0.547,0.126,0.757,0.14,1.372,0.14h4.158v-1.694h-2.771c-0.393,0-0.519,0.014-1.051,0.112L65.79,37.65
			c0.448,0.112,0.714,0.154,1.162,0.154h2.771v-0.308c0-0.238,0-0.294-0.055-0.994c0.168,0.028,0.168,0.028,0.363,0.042
			c0.699-1.092,1.148-2.072,1.428-3.164C72.86,33.618,73,33.66,73,33.786s-0.197,0.21-0.658,0.266
			c-0.252,0.42-0.35,0.574-0.617,0.924h2.758c0.365-0.406,0.463-0.532,0.813-0.896l1.316,1.008c0.057,0.056,0.084,0.084,0.084,0.112
			c0,0.056-0.07,0.098-0.127,0.098H72.44c0.377,0.224,0.504,0.322,0.883,0.658c0.336,0.294,0.434,0.448,0.434,0.644
			c0,0.294-0.322,0.784-0.52,0.784c-0.098,0-0.182-0.098-0.223-0.308c-0.211-0.784-0.434-1.26-0.826-1.778h-0.729
			c-0.477,0.588-0.77,0.91-1.162,1.274c0.799,0.126,0.883,0.154,0.883,0.266c0,0.126-0.098,0.168-0.561,0.28v0.686H73.336z
			 M67.189,42.368c1.737,0.742,2.241,1.106,2.241,1.624c0,0.448-0.197,0.896-0.406,0.896c-0.127,0-0.182-0.056-0.477-0.616
			c-0.419-0.756-0.812-1.232-1.469-1.792L67.189,42.368z"/>
	</g>
	<rect x="0.25" y="7.25" fill="none" stroke="#008CD6" stroke-width="0.5" width="28" height="14"/>
	<line fill="none" stroke="#008CD6" stroke-width="0.5" x1="14.25" y1="21.25" x2="14.25" y2="7.25"/>
	<rect x="42.25" y="7.25" fill="none" stroke="#008CD6" stroke-width="0.5" width="14" height="14"/>
	<rect x="63.25" y="7.25" fill="none" stroke="#008CD6" stroke-width="0.5" width="14" height="14"/>
	<line fill="none" stroke="#008CD6" stroke-width="0.5" x1="14.25" y1="7.25" x2="14.25" y2="0.25"/>
	<line fill="none" stroke="#008CD6" stroke-width="0.5" x1="21.25" y1="7.25" x2="21.25" y2="0.25"/>
	<polyline fill="none" stroke="#008CD6" stroke-width="0.5" points="7.25,7.25 7.25,0.25 35.25,0.25 35.25,7.25 	"/>
	<g>
		<polyline fill="none" stroke="#008CD6" stroke-width="0.5" points="42.25,0.25 42.25,7.25 28.25,7.25 28.25,0.25 		"/>
		<line fill="none" stroke="#008CD6" stroke-width="0.5" x1="49.25" y1="7.25" x2="49.25" y2="0.25"/>
		<polyline fill="none" stroke="#008CD6" stroke-width="0.5" points="35.25,0.25 63.25,0.25 63.25,7.25 56.25,7.25 56.25,0.25 		"/>
	</g>
	<line fill="none" stroke="#008CD6" stroke-width="0.5" x1="28.25" y1="63" x2="28.25" y2="56"/>
	<polyline fill="none" stroke="#008CD6" stroke-width="0.5" points="42.25,63 42.25,56 14.25,56 14.25,63 21.25,63 21.25,56 	"/>
	<g>
		<polyline fill="none" stroke="#008CD6" stroke-width="0.5" points="49.25,56 49.25,63 35.25,63 35.25,56 		"/>
		<line fill="none" stroke="#008CD6" stroke-width="0.5" x1="56.25" y1="63" x2="56.25" y2="56"/>
		<polyline fill="none" stroke="#008CD6" stroke-width="0.5" points="42.25,56 70.25,56 70.25,63 63.25,63 63.25,56 		"/>
	</g>
	<g>
		<path d="M15.264,58.647c0.567,0.112,0.994,0.259,1.226,0.413c0.188,0.119,0.266,0.259,0.266,0.462
			c0,0.182-0.091,0.336-0.196,0.336c-0.069,0-0.111-0.028-0.217-0.161c-0.35-0.441-0.665-0.707-1.12-0.959L15.264,58.647z
			 M20.682,58.479c-0.378,0.539-0.734,0.938-1.483,1.638c-0.581,0.546-1.345,1.085-2.43,1.729c-0.188,0.112-0.237,0.147-0.336,0.238
			c-0.056,0.049-0.104,0.07-0.161,0.07c-0.14,0-0.294-0.133-0.497-0.413c-0.133-0.203-0.217-0.413-0.217-0.56
			c0-0.07,0.015-0.112,0.057-0.168c0.153,0.301,0.321,0.441,0.531,0.441c0.189,0,0.707-0.238,1.372-0.637
			c1.085-0.637,2.282-1.582,3.066-2.415L20.682,58.479z M16.034,57.401c1.12,0.266,1.477,0.483,1.477,0.896
			c0,0.196-0.084,0.35-0.188,0.35c-0.077,0-0.077,0-0.379-0.371c-0.266-0.315-0.588-0.581-0.959-0.777L16.034,57.401z"/>
		<path d="M23.685,57.863c0.364,0,1.204-0.056,1.933-0.133c0.371-0.042,0.482-0.063,0.566-0.133
			c0.077-0.056,0.119-0.077,0.168-0.077c0.077,0,0.259,0.126,0.455,0.322c0.105,0.105,0.154,0.182,0.154,0.245
			c0,0.049-0.014,0.077-0.091,0.175c-0.057,0.077-0.077,0.154-0.183,0.847c-0.111,0.686-0.111,0.686-0.23,1.414
			c-0.042,0.231-0.07,0.399-0.084,0.511c0.259,0.168,0.343,0.259,0.343,0.392c0,0.063-0.056,0.105-0.154,0.105
			c-0.056,0-0.084,0-0.272-0.028c-0.091-0.014-0.364-0.021-0.638-0.021c-0.531,0-1.092,0.07-1.7,0.217
			c-0.183,0.042-0.238,0.063-0.357,0.112c-0.042,0.021-0.077,0.028-0.119,0.028c-0.153,0-0.294-0.098-0.448-0.315
			c-0.133-0.182-0.202-0.343-0.202-0.455c0-0.021,0.007-0.042,0.034-0.098c0.168,0.245,0.364,0.357,0.616,0.357
			c0.119,0,0.294-0.014,0.603-0.056c0.623-0.077,1.085-0.119,1.848-0.168c0.063-0.385,0.147-1.071,0.196-1.526
			c-0.896,0.049-1.981,0.196-2.422,0.336c-0.063,0.021-0.112,0.028-0.154,0.028c-0.084,0-0.182-0.049-0.259-0.126
			c-0.147-0.147-0.273-0.406-0.273-0.553c0-0.042,0.007-0.063,0.028-0.119c0.217,0.273,0.336,0.343,0.608,0.343
			c0.063,0,0.063,0,1.533-0.14c0.175-0.021,0.399-0.028,0.974-0.056c0.076-0.714,0.098-0.931,0.104-1.302
			c-0.483,0-0.952,0.049-1.918,0.182c-0.322,0.042-0.406,0.056-0.672,0.119c-0.07,0.021-0.119,0.028-0.154,0.028
			c-0.077,0-0.161-0.042-0.23-0.112c-0.176-0.189-0.309-0.441-0.309-0.602c0-0.042,0.007-0.077,0.042-0.14
			C23.174,57.751,23.363,57.863,23.685,57.863z"/>
		<path d="M29.39,59.256c0.175,0.133,0.309,0.168,0.679,0.168c0.077,0,0.077,0,0.861-0.021c0.273-0.007,2.499-0.042,2.73-0.042
			c0.63,0,0.783,0.014,0.909,0.063c0.07,0.035,0.099,0.077,0.099,0.14c0,0.084-0.063,0.161-0.161,0.189
			c-0.189,0.063-0.357,0.07-1.68,0.084c-0.651,0.007-2.254,0.049-2.499,0.063c-0.329,0.021-0.393,0.028-0.504,0.091
			c-0.028,0.007-0.077,0.021-0.105,0.021c-0.104,0-0.217-0.077-0.336-0.231c-0.147-0.182-0.266-0.476-0.266-0.644
			c0-0.098,0.007-0.112,0.056-0.161C29.257,59.137,29.292,59.186,29.39,59.256z"/>
		<path d="M37.901,62.462c0.554-0.392,0.925-0.742,1.303-1.232c0.405-0.532,0.692-1.057,0.973-1.792
			c0.182-0.476,0.259-0.798,0.301-1.197c-0.111-0.007-0.14-0.007-0.224-0.007c-0.63,0-1.61,0.126-2.437,0.308
			c-0.056,0.014-0.098,0.021-0.126,0.021c-0.084,0-0.175-0.035-0.356-0.126c0.028,0.077,0.028,0.084,0.035,0.315
			c0.007,0.497,0.014,0.973,0.014,1.008c0,0.259-0.049,0.378-0.161,0.378c-0.154,0-0.398-0.364-0.398-0.588
			c0-0.049,0.007-0.077,0.049-0.161c0.042-0.105,0.063-0.266,0.063-0.511c0-0.539-0.119-0.763-0.511-0.987
			c0.056-0.028,0.084-0.035,0.14-0.035c0.196,0,0.302,0.056,0.735,0.399c0.175,0,0.203-0.007,0.693-0.077
			c0.279-0.042,0.371-0.049,0.595-0.077c0.007-0.112,0.007-0.161,0.007-0.315c0-0.434-0.021-0.623-0.091-0.742
			c-0.063-0.119-0.119-0.154-0.378-0.252c0.056-0.049,0.104-0.07,0.175-0.07c0.406,0,0.924,0.217,0.924,0.392
			c0,0.042-0.014,0.07-0.063,0.161c-0.099,0.168-0.141,0.392-0.154,0.777c1.211-0.105,1.33-0.119,1.435-0.175
			c0.057-0.028,0.092-0.042,0.126-0.042c0.07,0,0.183,0.063,0.344,0.189c0.203,0.168,0.272,0.259,0.272,0.357
			c0,0.07-0.007,0.084-0.084,0.168c-0.063,0.063-0.104,0.161-0.203,0.42c-0.252,0.672-0.42,1.05-0.672,1.463
			c-0.469,0.777-0.896,1.26-1.519,1.694c-0.309,0.217-0.483,0.322-0.742,0.434L37.901,62.462z"/>
		<path d="M43.061,60.642c0.875-0.469,1.813-1.176,2.632-1.988c0.693-0.679,1.142-1.246,1.142-1.449
			c0-0.133-0.112-0.245-0.393-0.399c0.077-0.028,0.092-0.028,0.141-0.028c0.203,0,0.378,0.063,0.602,0.21
			c0.238,0.161,0.364,0.322,0.364,0.455c0,0.063-0.007,0.077-0.28,0.308c-0.069,0.056-0.069,0.056-0.566,0.532
			c-0.49,0.469-0.532,0.504-0.833,0.756c0.272,0.203,0.392,0.308,0.427,0.392c0.028,0.07,0.042,0.399,0.049,1.029
			c0.007,0.49,0.021,0.938,0.035,1.337c0,0.154,0.007,0.357,0.007,0.399c0,0.245-0.049,0.35-0.161,0.35
			c-0.161,0-0.476-0.385-0.476-0.588c0-0.049,0-0.049,0.042-0.182c0.063-0.175,0.126-1.043,0.126-1.722
			c0-0.343-0.015-0.553-0.042-0.665c-0.021-0.07-0.049-0.105-0.154-0.217c-0.49,0.392-0.994,0.749-1.344,0.959
			c-0.393,0.231-0.896,0.476-1.26,0.609L43.061,60.642z"/>
		<path d="M50.642,57.618c0.672,0.168,1.078,0.329,1.352,0.525c0.161,0.112,0.237,0.266,0.237,0.476
			c0,0.231-0.076,0.392-0.195,0.392c-0.077,0-0.112-0.035-0.302-0.28c-0.343-0.455-0.595-0.686-1.141-1.029L50.642,57.618z
			 M55.619,58.017c-0.351,0.658-0.777,1.211-1.471,1.883c-0.644,0.623-1.077,0.973-1.967,1.596
			c-0.329,0.231-0.364,0.259-0.413,0.322c-0.111,0.133-0.153,0.168-0.245,0.168c-0.286,0-0.818-0.672-0.818-1.029
			c0-0.042,0.007-0.07,0.035-0.14c0.14,0.21,0.153,0.224,0.252,0.308c0.104,0.098,0.202,0.147,0.279,0.147
			c0.119,0,0.336-0.091,0.68-0.294c0.783-0.455,1.057-0.651,1.673-1.155c0.86-0.7,1.281-1.127,1.883-1.869L55.619,58.017z"/>
		<path d="M59.455,60.698c0,0.399,0,1.218,0.007,1.4c0,0.063,0,0.105,0,0.126c0,0.21-0.049,0.301-0.154,0.301
			c-0.077,0-0.153-0.063-0.252-0.189c-0.104-0.161-0.182-0.343-0.182-0.455c0-0.063,0.007-0.105,0.056-0.259
			c0.077-0.259,0.119-1.134,0.119-2.408c0-1.442-0.021-1.82-0.112-1.995c-0.084-0.154-0.203-0.252-0.447-0.357
			c0.069-0.042,0.111-0.056,0.182-0.056c0.161,0,0.427,0.091,0.679,0.238c0.196,0.112,0.267,0.189,0.267,0.294
			c0,0.042-0.008,0.056-0.042,0.126c-0.092,0.189-0.119,0.476-0.119,1.526c0.763,0.091,1.441,0.273,1.785,0.476
			c0.21,0.119,0.286,0.245,0.286,0.462c0,0.175-0.063,0.308-0.153,0.308c-0.057,0-0.099-0.021-0.273-0.175
			c-0.518-0.434-1.015-0.707-1.645-0.896v0.161V60.698z M60.777,57.023c0.896,0.378,1.204,0.623,1.204,0.945
			c0,0.196-0.084,0.364-0.188,0.364c-0.077,0-0.084-0.007-0.259-0.301c-0.189-0.336-0.441-0.616-0.819-0.924L60.777,57.023z
			 M61.415,56.526c0.497,0.175,0.734,0.287,0.966,0.462c0.161,0.119,0.224,0.231,0.224,0.392c0,0.182-0.069,0.329-0.161,0.329
			c-0.084,0-0.098-0.021-0.259-0.259c-0.21-0.322-0.469-0.574-0.826-0.84L61.415,56.526z"/>
		<path d="M64.39,59.256c0.175,0.133,0.309,0.168,0.679,0.168c0.077,0,0.077,0,0.861-0.021c0.273-0.007,2.499-0.042,2.731-0.042
			c0.629,0,0.783,0.014,0.908,0.063c0.07,0.035,0.1,0.077,0.1,0.14c0,0.084-0.064,0.161-0.162,0.189
			c-0.189,0.063-0.357,0.07-1.679,0.084c-0.651,0.007-2.254,0.049-2.499,0.063c-0.329,0.021-0.393,0.028-0.504,0.091
			c-0.028,0.007-0.077,0.021-0.105,0.021c-0.104,0-0.217-0.077-0.336-0.231c-0.147-0.182-0.266-0.476-0.266-0.644
			c0-0.098,0.007-0.112,0.056-0.161C64.257,59.137,64.292,59.186,64.39,59.256z"/>
		<path fill="#00A73B" d="M4.848,70.295c-0.252,0.882-0.644,2.408-0.812,3.094c-0.141,0.616-0.183,0.84-0.183,1.19
			c-0.014,0.448-0.027,0.504-0.098,0.616c-0.07,0.098-0.154,0.154-0.266,0.154c-0.238,0-0.435-0.196-0.603-0.63
			c-0.28-0.714-0.448-1.778-0.448-2.814c0-1.288,0.154-2.464,0.63-4.662c0.183-0.868,0.211-1.022,0.211-1.26
			c0-0.42-0.112-0.756-0.406-1.232c0.322,0.014,0.588,0.196,0.979,0.7c0.322,0.406,0.504,0.798,0.504,1.064
			c0,0.154,0,0.154-0.224,0.616c-0.672,1.4-1.064,3.066-1.064,4.564c0,0.714,0.057,1.162,0.225,1.736l0.588-1.4l0.756-1.806
			L4.848,70.295z M6.248,67.761c0.672,0.434,1.105,0.574,1.806,0.574c0.49,0,1.022-0.07,1.596-0.196c0-0.266,0-0.49,0-0.616
			c0-1.568-0.014-1.75-0.195-1.946c-0.168-0.182-0.477-0.28-0.924-0.322c0.195-0.182,0.308-0.224,0.672-0.224
			c0.308,0,0.686,0.056,0.951,0.126c0.406,0.126,0.616,0.294,0.616,0.504c0,0.098,0,0.112-0.126,0.434
			c-0.153,0.406-0.237,0.91-0.294,1.876c0.645-0.182,1.05-0.364,1.288-0.574c0.14-0.14,0.182-0.154,0.308-0.154
			c0.169,0,0.49,0.084,0.658,0.182c0.112,0.056,0.183,0.154,0.183,0.252c0,0.308-1.022,0.728-2.479,1.008
			c0,1.862,0.042,2.632,0.183,3.808c1.624,0.434,2.31,0.98,2.31,1.792c0,0.294-0.126,0.518-0.28,0.518
			c-0.111,0-0.21-0.07-0.489-0.35c-0.616-0.63-0.967-0.882-1.513-1.12c0.015,0.126,0.015,0.238,0.015,0.336
			c0,1.008-0.841,1.61-2.24,1.61c-1.218,0-2.072-0.588-2.072-1.428c0-0.966,1.036-1.582,2.632-1.582
			c0.267,0,0.462,0.014,0.854,0.042c0-0.126,0-0.21,0-0.238l-0.028-1.498l-0.014-1.792c-0.42,0.084-0.826,0.112-1.232,0.112
			c-1.021,0-1.609-0.252-2.31-0.98L6.248,67.761z M8.39,72.871c-1.105,0-1.792,0.364-1.792,0.98c0,0.49,0.546,0.826,1.372,0.826
			c0.771,0,1.316-0.224,1.54-0.658c0.14-0.252,0.182-0.462,0.182-0.98C9.3,72.927,8.908,72.871,8.39,72.871z"/>
		<path d="M24.784,66.991c0-0.266,0-0.462-0.028-0.868c1.05,0.112,1.358,0.182,1.358,0.322c0,0.126-0.042,0.14-0.49,0.294v1.05
			h0.742c0.153-0.224,0.21-0.28,0.378-0.49c0.308,0.196,0.392,0.266,0.657,0.49c0.126,0.112,0.168,0.168,0.168,0.238
			s-0.098,0.168-0.336,0.294c0,0.336,0,0.476,0,0.742c0,0.224,0.015,1.176,0.028,3.122c0,0.014,0,0.042,0,0.056
			c0,0.14-0.182,0.196-0.742,0.196c-0.098,0-0.14-0.028-0.153-0.126v-0.42h-2.311v2.786c0.813-0.182,1.134-0.266,2.296-0.63
			c-0.321-0.518-0.489-0.77-0.882-1.26l0.154-0.126c0.56,0.336,0.896,0.588,1.414,1.05c0.476,0.448,0.63,0.658,0.63,0.938
			c0,0.224-0.099,0.644-0.196,0.812c-0.07,0.112-0.168,0.182-0.238,0.182c-0.098,0-0.14-0.056-0.21-0.252
			c-0.084-0.238-0.294-0.686-0.518-1.078c-0.91,0.518-2.03,1.008-3.696,1.582c-0.014,0.364-0.098,0.56-0.21,0.56
			c-0.056,0-0.111-0.056-0.168-0.168c-0.014-0.028-0.168-0.448-0.434-1.246c0.602-0.07,0.714-0.084,1.078-0.168l-0.015-6.37
			l0.015-0.812c-0.462,0.462-0.7,0.686-1.33,1.176l-0.141-0.154c0.757-0.84,1.387-1.708,1.933-2.716
			c0.294-0.518,0.602-1.148,0.798-1.638c0.098-0.21,0.126-0.308,0.196-0.644c1.063,0.238,1.456,0.378,1.456,0.518
			c0,0.112-0.196,0.196-0.574,0.238l-0.099,0.168c1.442,0.448,1.442,0.448,1.975,0.672c0.49,0.21,0.644,0.448,0.644,0.952
			c0,0.364-0.111,0.602-0.266,0.602c-0.126,0-0.168-0.042-0.42-0.35c-0.42-0.518-0.994-0.994-2.059-1.68
			c-0.812,1.344-1.147,1.792-1.861,2.576c0.279,0.126,0.392,0.182,0.728,0.378h0.729V66.991z M26.366,69.637v-1.526h-2.311v1.526
			H26.366z M24.056,69.945v1.624h2.311v-1.624H24.056z M33.142,65.787c0.28-0.392,0.378-0.518,0.672-0.896
			c0.49,0.42,0.63,0.546,1.078,1.008c0.028,0.042,0.042,0.084,0.042,0.112c0,0.056-0.069,0.098-0.154,0.098h-3.094v2.002h1.4
			c0.182-0.266,0.238-0.336,0.448-0.588c0.378,0.308,0.489,0.406,0.825,0.686c0.099,0.098,0.126,0.14,0.126,0.196
			s-0.126,0.154-0.42,0.294v2.926c0.015,0.84,0.015,1.596,0.015,2.254c0,0.042,0,0.098,0,0.112c0,0.364-0.099,0.588-0.364,0.798
			c-0.182,0.154-0.406,0.238-0.91,0.336c-0.028-0.574-0.21-0.77-0.896-0.924v-0.154c0.266,0.014,0.573,0.028,0.783,0.028
			c0.057,0,0.099,0,0.196,0c0.028,0,0.056,0,0.056,0c0.154,0,0.196-0.056,0.196-0.224v-5.418h-1.456v5.026
			c0,0.644,0,0.728,0.042,2.828c-0.027,0.098-0.056,0.112-0.168,0.126c-0.279,0.056-0.462,0.07-0.574,0.07
			c-0.153,0-0.224-0.042-0.224-0.126c0-0.014,0-0.028,0-0.042c0.056-1.498,0.07-2.674,0.07-4.368v-3.514h-1.33l-0.015,3.906v1.358
			c0,0.266,0,0.532,0.015,1.022c-0.015,0.126-0.042,0.168-0.168,0.196c-0.112,0.014-0.42,0.042-0.546,0.042
			c-0.154,0-0.238-0.056-0.238-0.14c0-0.028,0-0.056,0.014-0.098c0.042-1.274,0.042-1.61,0.057-3.598c0-0.644,0-1.33,0.014-2.044
			c0-0.112,0-0.168,0-0.196v-1.148c-0.476,0.812-0.602,0.98-1.078,1.554l-0.196-0.126c0.603-1.022,0.994-1.946,1.372-3.206
			c0.322-1.106,0.504-1.848,0.546-2.352c1.036,0.238,1.471,0.392,1.471,0.532s-0.183,0.21-0.561,0.238
			c-0.294,0.742-0.294,0.742-0.56,1.414H33.142z M29.487,66.109c-0.14,0.322-0.308,0.658-0.77,1.47
			c0.434,0.224,0.504,0.266,0.91,0.532h1.204v-2.002H29.487z"/>
		<path d="M55.29,65.493c-0.112,0.56-0.154,0.742-0.28,1.078c-0.434,1.204-1.204,1.974-2.492,2.506
			c-0.7,0.28-1.273,0.406-2.113,0.504l-0.057-0.21c1.736-0.476,2.59-0.994,3.262-1.974c0.448-0.63,0.631-1.148,0.7-1.904h-2.394
			c-0.112,1.176-0.63,2.128-1.176,2.128c-0.21,0-0.421-0.35-0.421-0.728c0-0.196,0.057-0.308,0.267-0.448
			c0.588-0.434,0.868-0.952,1.092-2.086h0.238c0.014,0.35,0.014,0.49,0.014,0.602c0,0.056,0,0.126,0,0.21h3.962v-0.756
			c0-0.28-0.014-0.462-0.056-0.84c1.218,0.182,1.218,0.182,1.344,0.21c0.196,0.028,0.322,0.098,0.322,0.196
			c0,0.014-0.042,0.07-0.07,0.098c-0.098,0.07-0.182,0.098-0.574,0.21v0.882h3.584c0.238-0.322,0.322-0.42,0.63-0.714
			c0.532,0.392,0.687,0.518,1.177,0.924c0.098,0.112,0.126,0.14,0.126,0.196c0,0.014-0.028,0.056-0.057,0.07
			c-0.056,0.028-0.182,0.056-0.321,0.07l-0.729,0.084c-0.252,0.224-0.252,0.224-0.686,0.686c-0.267,0.294-0.267,0.294-0.49,0.49
			l-0.182-0.07c0.224-0.49,0.237-0.532,0.531-1.414H58.02v1.848c0,0.252,0.084,0.294,0.616,0.294c0.098,0,0.434,0,0.952,0.014
			c0.07,0,0.126,0,0.154,0c0.56,0,1.245-0.042,1.414-0.098c0.14-0.042,0.21-0.126,0.392-0.49c0-0.014,0.084-0.196,0.224-0.504
			c0.057-0.112,0.141-0.28,0.238-0.504l0.168,0.028l-0.098,1.064l-0.015,0.168c0,0.07,0,0.112,0,0.112
			c0,0.098,0.042,0.126,0.225,0.168c0.168,0.042,0.294,0.182,0.294,0.336c0,0.35-0.672,0.448-3.178,0.448
			c-1.219,0-1.723-0.028-1.946-0.098c-0.225-0.056-0.336-0.252-0.336-0.56v-2.226H55.29z M52.616,72.535
			c-0.042,0.938-0.21,1.638-0.589,2.31c-0.266,0.476-0.812,0.924-1.119,0.924c-0.21,0-0.462-0.448-0.462-0.812
			c0-0.196,0.069-0.252,0.489-0.434c0.154-0.07,0.687-0.532,0.91-0.812c0.252-0.294,0.378-0.588,0.546-1.176H52.616z M58.229,68.713
			c1.204,0.546,1.792,0.882,2.479,1.414c0.237,0.182,0.308,0.266,0.35,0.462c0.042,0.14,0.057,0.224,0.057,0.308
			c0,0.098-0.07,0.392-0.112,0.518c-0.057,0.14-0.126,0.21-0.225,0.21c-0.084,0-0.168-0.07-0.294-0.224
			c-0.35-0.49-0.615-0.826-0.867-1.134c-0.742,0.14-1.33,0.224-2.618,0.392c-1.666,0.21-1.723,0.224-3.57,0.406
			c-0.854,0.084-0.854,0.084-1.246,0.126c-0.112,0.448-0.168,0.546-0.266,0.546c-0.154,0-0.267-0.364-0.504-1.526
			c0.476,0.028,0.657,0.042,1.036,0.042c0.014,0,0.546-0.014,1.609-0.028c0.49-0.812,0.813-1.61,1.078-2.618
			c1.05,0.196,1.526,0.336,1.526,0.476c0,0.112-0.154,0.168-0.672,0.266c-0.687,0.91-1.051,1.344-1.555,1.876
			c2.002-0.042,3.389-0.098,4.956-0.224c-0.126-0.126-0.546-0.518-1.273-1.176L58.229,68.713z M53.735,73.081
			c0-0.266-0.014-0.49-0.042-1.008c0.589,0.042,1.288,0.154,1.513,0.252c0.027,0.014,0.069,0.07,0.069,0.112
			c0,0.112-0.098,0.168-0.573,0.336v2.114c0,0.168,0.069,0.28,0.182,0.308c0.126,0.028,0.756,0.056,1.358,0.056l1.273-0.014h0.196
			c0.476,0,0.63-0.056,0.742-0.238c0.111-0.224,0.462-1.218,0.77-2.226l0.168,0.028l-0.069,1.792
			c-0.015,0.084-0.015,0.14-0.015,0.196c0,0.266,0.015,0.28,0.238,0.35c0.238,0.07,0.392,0.21,0.392,0.35
			c0,0.168-0.252,0.378-0.546,0.448c-0.336,0.07-1.512,0.112-3.023,0.112c-1.358,0-2.002-0.028-2.227-0.112
			c-0.294-0.112-0.406-0.308-0.406-0.672V73.081z M55.611,71.317c0.967,0.308,1.513,0.56,1.961,0.952
			c0.21,0.168,0.252,0.28,0.252,0.574c0,0.378-0.196,0.728-0.393,0.728c-0.112,0-0.112-0.014-0.35-0.392
			c-0.322-0.546-0.771-1.036-1.555-1.708L55.611,71.317z M60.063,72.269c0.729,0.42,1.303,0.84,1.862,1.372
			c0.448,0.42,0.588,0.644,0.588,0.91s-0.154,0.658-0.322,0.854c-0.056,0.07-0.153,0.112-0.237,0.112
			c-0.141,0-0.154-0.028-0.322-0.406c-0.364-0.882-0.924-1.764-1.722-2.73L60.063,72.269z"/>
		<path fill="#ED6E46" d="M75.561,65.325c0.322-0.378,0.42-0.504,0.756-0.882c0.477,0.448,0.631,0.588,1.107,1.036
			c0.027,0.028,0.041,0.056,0.041,0.07c0,0.042-0.07,0.098-0.139,0.098h-3.053c0.447,0.28,0.686,0.49,1.035,0.91
			c0.154,0.182,0.225,0.336,0.225,0.476c0,0.35-0.322,0.798-0.588,0.798c-0.111,0-0.127-0.056-0.211-0.434
			c-0.125-0.658-0.266-1.05-0.656-1.75h-0.756c-0.617,0.868-1.232,1.568-2.031,2.296l-0.209-0.14
			c0.658-0.784,1.063-1.47,1.553-2.534c0.322-0.714,0.434-1.064,0.547-1.624c0.322,0.056,0.561,0.112,0.729,0.14
			c0.559,0.098,0.656,0.126,0.727,0.182c0.029,0.028,0.07,0.084,0.07,0.112c0,0.112-0.111,0.154-0.629,0.238
			c-0.211,0.462-0.295,0.63-0.533,1.008H75.561z M80.336,68.153c0.35-0.336,0.447-0.448,0.742-0.784
			c0.461,0.392,0.602,0.518,1.049,0.938c0.029,0.028,0.043,0.056,0.043,0.084c0,0.042-0.057,0.084-0.113,0.084H77.62v1.694h3.977
			c0.35-0.42,0.461-0.546,0.84-0.938c0.545,0.434,0.713,0.574,1.246,1.05c0.041,0.056,0.07,0.098,0.07,0.126
			c0,0.042-0.07,0.084-0.154,0.084h-3.332v1.624h1.26c0.336-0.406,0.434-0.518,0.77-0.91c0.518,0.434,0.686,0.574,1.205,1.036
			c0.041,0.042,0.055,0.084,0.055,0.112c0,0.042-0.07,0.084-0.125,0.084h-3.164v1.288c0,0.21,0,0.21,0.014,1.554
			c-0.057,0.49-0.141,0.672-0.42,0.854c-0.295,0.21-0.602,0.308-1.232,0.406c-0.055-0.392-0.125-0.56-0.322-0.7
			c-0.238-0.182-0.504-0.238-1.582-0.378v-0.224c0.953,0.056,1.037,0.07,2.367,0.126c0.027,0,0.055,0,0.07,0
			c0.139,0,0.182-0.042,0.182-0.224v-2.702H72.79c-0.658,0-0.813,0.014-1.148,0.112l-0.098-0.574c0.406,0.112,0.602,0.14,1.246,0.14
			h6.553v-1.624h-6.777c-0.615,0-0.727,0.014-1.273,0.098l-0.098-0.56c0.547,0.126,0.756,0.14,1.371,0.14h4.158v-1.694h-2.771
			c-0.393,0-0.518,0.014-1.051,0.112L72.79,68c0.449,0.112,0.715,0.154,1.162,0.154h2.771v-0.308c0-0.238,0-0.294-0.055-0.994
			c0.168,0.028,0.168,0.028,0.363,0.042c0.699-1.092,1.148-2.072,1.428-3.164c1.4,0.238,1.541,0.28,1.541,0.406
			s-0.197,0.21-0.658,0.266c-0.252,0.42-0.35,0.574-0.617,0.924h2.758c0.365-0.406,0.463-0.532,0.813-0.896l1.316,1.008
			c0.057,0.056,0.084,0.084,0.084,0.112c0,0.056-0.07,0.098-0.127,0.098H79.44c0.377,0.224,0.504,0.322,0.883,0.658
			c0.336,0.294,0.434,0.448,0.434,0.644c0,0.294-0.322,0.784-0.52,0.784c-0.098,0-0.182-0.098-0.223-0.308
			c-0.211-0.784-0.434-1.26-0.826-1.778h-0.729c-0.477,0.588-0.77,0.91-1.162,1.274c0.799,0.126,0.883,0.154,0.883,0.266
			c0,0.126-0.098,0.168-0.561,0.28v0.686H80.336z M74.19,72.717c1.736,0.742,2.24,1.106,2.24,1.624c0,0.448-0.197,0.896-0.406,0.896
			c-0.127,0-0.182-0.056-0.477-0.616c-0.42-0.756-0.813-1.232-1.469-1.792L74.19,72.717z"/>
	</g>
	<g>
		<path d="M15.264,84.047c0.567,0.112,0.994,0.259,1.226,0.413c0.188,0.119,0.266,0.259,0.266,0.462
			c0,0.182-0.091,0.336-0.196,0.336c-0.069,0-0.111-0.028-0.217-0.161c-0.35-0.441-0.665-0.707-1.12-0.959L15.264,84.047z
			 M20.682,83.879c-0.378,0.539-0.734,0.938-1.483,1.638c-0.581,0.546-1.345,1.085-2.43,1.729c-0.188,0.112-0.237,0.147-0.336,0.238
			c-0.056,0.049-0.104,0.07-0.161,0.07c-0.14,0-0.294-0.133-0.497-0.413c-0.133-0.203-0.217-0.413-0.217-0.56
			c0-0.07,0.015-0.112,0.057-0.168c0.153,0.301,0.321,0.44,0.531,0.44c0.189,0,0.707-0.237,1.372-0.638
			c1.085-0.637,2.282-1.581,3.066-2.414L20.682,83.879z M16.034,82.802c1.12,0.266,1.477,0.483,1.477,0.896
			c0,0.196-0.084,0.35-0.188,0.35c-0.077,0-0.077,0-0.379-0.371c-0.266-0.315-0.588-0.581-0.959-0.777L16.034,82.802z"/>
		<path d="M23.685,83.264c0.364,0,1.204-0.056,1.933-0.133c0.371-0.042,0.482-0.063,0.566-0.133
			c0.077-0.056,0.119-0.077,0.168-0.077c0.077,0,0.259,0.126,0.455,0.322c0.105,0.105,0.154,0.182,0.154,0.245
			c0,0.049-0.014,0.077-0.091,0.175c-0.057,0.077-0.077,0.154-0.183,0.847c-0.111,0.686-0.111,0.686-0.23,1.415
			c-0.042,0.23-0.07,0.398-0.084,0.511c0.259,0.168,0.343,0.259,0.343,0.392c0,0.063-0.056,0.105-0.154,0.105
			c-0.056,0-0.084,0-0.272-0.028c-0.091-0.014-0.364-0.021-0.638-0.021c-0.531,0-1.092,0.07-1.7,0.217
			c-0.183,0.042-0.238,0.063-0.357,0.111c-0.042,0.021-0.077,0.028-0.119,0.028c-0.153,0-0.294-0.098-0.448-0.315
			c-0.133-0.182-0.202-0.342-0.202-0.454c0-0.021,0.007-0.042,0.034-0.099c0.168,0.246,0.364,0.357,0.616,0.357
			c0.119,0,0.294-0.014,0.603-0.057c0.623-0.076,1.085-0.118,1.848-0.168c0.063-0.385,0.147-1.07,0.196-1.525
			c-0.896,0.049-1.981,0.196-2.422,0.336c-0.063,0.021-0.112,0.028-0.154,0.028c-0.084,0-0.182-0.049-0.259-0.126
			c-0.147-0.147-0.273-0.406-0.273-0.553c0-0.042,0.007-0.063,0.028-0.119c0.217,0.273,0.336,0.343,0.608,0.343
			c0.063,0,0.063,0,1.533-0.14c0.175-0.021,0.399-0.028,0.974-0.056c0.076-0.714,0.098-0.931,0.104-1.302
			c-0.483,0-0.952,0.049-1.918,0.182c-0.322,0.042-0.406,0.056-0.672,0.119c-0.07,0.021-0.119,0.028-0.154,0.028
			c-0.077,0-0.161-0.042-0.23-0.112c-0.176-0.189-0.309-0.441-0.309-0.602c0-0.042,0.007-0.077,0.042-0.14
			C23.174,83.151,23.363,83.264,23.685,83.264z"/>
		<path d="M29.39,84.657c0.175,0.133,0.309,0.168,0.679,0.168c0.077,0,0.077,0,0.861-0.021c0.273-0.007,2.499-0.042,2.73-0.042
			c0.63,0,0.783,0.014,0.909,0.063c0.07,0.035,0.099,0.077,0.099,0.14c0,0.084-0.063,0.161-0.161,0.189
			c-0.189,0.063-0.357,0.07-1.68,0.084c-0.651,0.007-2.254,0.049-2.499,0.063c-0.329,0.021-0.393,0.028-0.504,0.091
			c-0.028,0.007-0.077,0.021-0.105,0.021c-0.104,0-0.217-0.077-0.336-0.231c-0.147-0.182-0.266-0.476-0.266-0.644
			c0-0.098,0.007-0.112,0.056-0.161C29.257,84.538,29.292,84.586,29.39,84.657z"/>
		<path d="M37.901,87.862c0.554-0.392,0.925-0.741,1.303-1.231c0.405-0.532,0.692-1.057,0.973-1.792
			c0.182-0.476,0.259-0.798,0.301-1.197c-0.111-0.007-0.14-0.007-0.224-0.007c-0.63,0-1.61,0.126-2.437,0.308
			c-0.056,0.014-0.098,0.021-0.126,0.021c-0.084,0-0.175-0.035-0.356-0.126c0.028,0.077,0.028,0.084,0.035,0.315
			c0.007,0.497,0.014,0.973,0.014,1.008c0,0.259-0.049,0.378-0.161,0.378c-0.154,0-0.398-0.365-0.398-0.588
			c0-0.049,0.007-0.077,0.049-0.161c0.042-0.105,0.063-0.266,0.063-0.511c0-0.539-0.119-0.763-0.511-0.987
			c0.056-0.028,0.084-0.035,0.14-0.035c0.196,0,0.302,0.056,0.735,0.399c0.175,0,0.203-0.007,0.693-0.077
			c0.279-0.042,0.371-0.049,0.595-0.077c0.007-0.112,0.007-0.161,0.007-0.315c0-0.434-0.021-0.623-0.091-0.742
			c-0.063-0.119-0.119-0.154-0.378-0.252c0.056-0.049,0.104-0.07,0.175-0.07c0.406,0,0.924,0.217,0.924,0.392
			c0,0.042-0.014,0.07-0.063,0.161c-0.099,0.168-0.141,0.392-0.154,0.777c1.211-0.105,1.33-0.119,1.435-0.175
			c0.057-0.028,0.092-0.042,0.126-0.042c0.07,0,0.183,0.063,0.344,0.189c0.203,0.168,0.272,0.259,0.272,0.357
			c0,0.07-0.007,0.084-0.084,0.168c-0.063,0.063-0.104,0.161-0.203,0.42c-0.252,0.672-0.42,1.05-0.672,1.462
			c-0.469,0.777-0.896,1.26-1.519,1.694c-0.309,0.218-0.483,0.322-0.742,0.435L37.901,87.862z"/>
		<path d="M43.061,86.043c0.875-0.469,1.813-1.176,2.632-1.988c0.693-0.679,1.142-1.246,1.142-1.449
			c0-0.133-0.112-0.245-0.393-0.399c0.077-0.028,0.092-0.028,0.141-0.028c0.203,0,0.378,0.063,0.602,0.21
			c0.238,0.161,0.364,0.322,0.364,0.455c0,0.063-0.007,0.077-0.28,0.308c-0.069,0.056-0.069,0.056-0.566,0.532
			c-0.49,0.469-0.532,0.504-0.833,0.756c0.272,0.203,0.392,0.308,0.427,0.392c0.028,0.07,0.042,0.399,0.049,1.029
			c0.007,0.49,0.021,0.938,0.035,1.337c0,0.154,0.007,0.357,0.007,0.399c0,0.245-0.049,0.35-0.161,0.35
			c-0.161,0-0.476-0.385-0.476-0.588c0-0.049,0-0.049,0.042-0.183c0.063-0.174,0.126-1.043,0.126-1.721
			c0-0.343-0.015-0.553-0.042-0.665c-0.021-0.07-0.049-0.105-0.154-0.217c-0.49,0.392-0.994,0.749-1.344,0.959
			c-0.393,0.231-0.896,0.477-1.26,0.609L43.061,86.043z"/>
		<path d="M50.642,83.019c0.672,0.168,1.078,0.329,1.352,0.525c0.161,0.112,0.237,0.266,0.237,0.476
			c0,0.231-0.076,0.392-0.195,0.392c-0.077,0-0.112-0.035-0.302-0.28c-0.343-0.455-0.595-0.686-1.141-1.029L50.642,83.019z
			 M55.619,83.417c-0.351,0.658-0.777,1.211-1.471,1.883c-0.644,0.624-1.077,0.973-1.967,1.596c-0.329,0.23-0.364,0.259-0.413,0.322
			c-0.111,0.133-0.153,0.168-0.245,0.168c-0.286,0-0.818-0.672-0.818-1.029c0-0.042,0.007-0.07,0.035-0.141
			c0.14,0.211,0.153,0.225,0.252,0.309c0.104,0.098,0.202,0.146,0.279,0.146c0.119,0,0.336-0.09,0.68-0.293
			c0.783-0.455,1.057-0.651,1.673-1.155c0.86-0.7,1.281-1.127,1.883-1.869L55.619,83.417z"/>
		<path d="M59.455,86.099c0,0.399,0,1.218,0.007,1.399c0,0.063,0,0.105,0,0.127c0,0.209-0.049,0.301-0.154,0.301
			c-0.077,0-0.153-0.063-0.252-0.189c-0.104-0.16-0.182-0.343-0.182-0.455c0-0.063,0.007-0.105,0.056-0.259
			c0.077-0.259,0.119-1.134,0.119-2.408c0-1.442-0.021-1.82-0.112-1.995c-0.084-0.154-0.203-0.252-0.447-0.357
			c0.069-0.042,0.111-0.056,0.182-0.056c0.161,0,0.427,0.091,0.679,0.238c0.196,0.112,0.267,0.189,0.267,0.294
			c0,0.042-0.008,0.056-0.042,0.126c-0.092,0.189-0.119,0.476-0.119,1.526c0.763,0.091,1.441,0.273,1.785,0.476
			c0.21,0.119,0.286,0.245,0.286,0.462c0,0.175-0.063,0.308-0.153,0.308c-0.057,0-0.099-0.021-0.273-0.175
			c-0.518-0.434-1.015-0.707-1.645-0.896v0.161V86.099z M60.777,82.423c0.896,0.378,1.204,0.623,1.204,0.945
			c0,0.196-0.084,0.364-0.188,0.364c-0.077,0-0.084-0.007-0.259-0.301c-0.189-0.336-0.441-0.616-0.819-0.924L60.777,82.423z
			 M61.415,81.927c0.497,0.175,0.734,0.287,0.966,0.462c0.161,0.119,0.224,0.231,0.224,0.392c0,0.182-0.069,0.329-0.161,0.329
			c-0.084,0-0.098-0.021-0.259-0.259c-0.21-0.322-0.469-0.574-0.826-0.84L61.415,81.927z"/>
		<path d="M64.39,84.657c0.175,0.133,0.309,0.168,0.679,0.168c0.077,0,0.077,0,0.861-0.021c0.273-0.007,2.499-0.042,2.731-0.042
			c0.629,0,0.783,0.014,0.908,0.063c0.07,0.035,0.1,0.077,0.1,0.14c0,0.084-0.064,0.161-0.162,0.189
			c-0.189,0.063-0.357,0.07-1.679,0.084c-0.651,0.007-2.254,0.049-2.499,0.063c-0.329,0.021-0.393,0.028-0.504,0.091
			c-0.028,0.007-0.077,0.021-0.105,0.021c-0.104,0-0.217-0.077-0.336-0.231c-0.147-0.182-0.266-0.476-0.266-0.644
			c0-0.098,0.007-0.112,0.056-0.161C64.257,84.538,64.292,84.586,64.39,84.657z"/>
		<path d="M4.848,95.695c-0.252,0.883-0.644,2.408-0.812,3.094c-0.141,0.617-0.183,0.841-0.183,1.19
			c-0.014,0.448-0.027,0.505-0.098,0.616c-0.07,0.098-0.154,0.154-0.266,0.154c-0.238,0-0.435-0.196-0.603-0.631
			c-0.28-0.713-0.448-1.777-0.448-2.813c0-1.288,0.154-2.464,0.63-4.662c0.183-0.868,0.211-1.022,0.211-1.26
			c0-0.42-0.112-0.756-0.406-1.231c0.322,0.014,0.588,0.195,0.979,0.699c0.322,0.406,0.504,0.799,0.504,1.064
			c0,0.154,0,0.154-0.224,0.615c-0.672,1.4-1.064,3.066-1.064,4.564c0,0.714,0.057,1.162,0.225,1.736l0.588-1.4l0.756-1.807
			L4.848,95.695z M6.248,93.162c0.672,0.434,1.105,0.574,1.806,0.574c0.49,0,1.022-0.07,1.596-0.197c0-0.266,0-0.489,0-0.615
			c0-1.568-0.014-1.75-0.195-1.946c-0.168-0.182-0.477-0.28-0.924-0.321c0.195-0.183,0.308-0.225,0.672-0.225
			c0.308,0,0.686,0.057,0.951,0.126c0.406,0.126,0.616,0.294,0.616,0.504c0,0.099,0,0.112-0.126,0.435
			c-0.153,0.406-0.237,0.91-0.294,1.875c0.645-0.182,1.05-0.363,1.288-0.573c0.14-0.14,0.182-0.154,0.308-0.154
			c0.169,0,0.49,0.084,0.658,0.183c0.112,0.056,0.183,0.153,0.183,0.252c0,0.308-1.022,0.728-2.479,1.008
			c0,1.861,0.042,2.632,0.183,3.808c1.624,0.435,2.31,0.979,2.31,1.792c0,0.294-0.126,0.518-0.28,0.518
			c-0.111,0-0.21-0.069-0.489-0.35c-0.616-0.63-0.967-0.882-1.513-1.119c0.015,0.125,0.015,0.237,0.015,0.336
			c0,1.008-0.841,1.609-2.24,1.609c-1.218,0-2.072-0.588-2.072-1.428c0-0.967,1.036-1.582,2.632-1.582
			c0.267,0,0.462,0.014,0.854,0.042c0-0.126,0-0.21,0-0.238l-0.028-1.498l-0.014-1.792c-0.42,0.084-0.826,0.112-1.232,0.112
			c-1.021,0-1.609-0.253-2.31-0.979L6.248,93.162z M8.39,98.271c-1.105,0-1.792,0.364-1.792,0.98c0,0.49,0.546,0.826,1.372,0.826
			c0.771,0,1.316-0.225,1.54-0.658c0.14-0.252,0.182-0.463,0.182-0.98C9.3,98.328,8.908,98.271,8.39,98.271z"/>
		<path d="M24.784,92.392c0-0.267,0-0.462-0.028-0.868c1.05,0.112,1.358,0.182,1.358,0.322c0,0.126-0.042,0.141-0.49,0.294v1.05
			h0.742c0.153-0.224,0.21-0.279,0.378-0.49c0.308,0.196,0.392,0.267,0.657,0.49c0.126,0.112,0.168,0.168,0.168,0.238
			s-0.098,0.168-0.336,0.294c0,0.336,0,0.476,0,0.742c0,0.224,0.015,1.176,0.028,3.122c0,0.014,0,0.041,0,0.056
			c0,0.14-0.182,0.196-0.742,0.196c-0.098,0-0.14-0.028-0.153-0.126v-0.421h-2.311v2.787c0.813-0.183,1.134-0.267,2.296-0.631
			c-0.321-0.518-0.489-0.77-0.882-1.26l0.154-0.126c0.56,0.336,0.896,0.588,1.414,1.05c0.476,0.448,0.63,0.658,0.63,0.938
			c0,0.224-0.099,0.644-0.196,0.812c-0.07,0.112-0.168,0.182-0.238,0.182c-0.098,0-0.14-0.055-0.21-0.252
			c-0.084-0.237-0.294-0.686-0.518-1.077c-0.91,0.518-2.03,1.008-3.696,1.582c-0.014,0.364-0.098,0.56-0.21,0.56
			c-0.056,0-0.111-0.056-0.168-0.168c-0.014-0.027-0.168-0.447-0.434-1.246c0.602-0.07,0.714-0.084,1.078-0.168l-0.015-6.369
			l0.015-0.813c-0.462,0.462-0.7,0.686-1.33,1.176l-0.141-0.154c0.757-0.84,1.387-1.707,1.933-2.716
			c0.294-0.518,0.602-1.147,0.798-1.638c0.098-0.21,0.126-0.309,0.196-0.645c1.063,0.238,1.456,0.379,1.456,0.519
			c0,0.112-0.196,0.196-0.574,0.237l-0.099,0.168c1.442,0.449,1.442,0.449,1.975,0.673c0.49,0.21,0.644,0.448,0.644,0.952
			c0,0.363-0.111,0.602-0.266,0.602c-0.126,0-0.168-0.042-0.42-0.35c-0.42-0.519-0.994-0.994-2.059-1.68
			c-0.812,1.344-1.147,1.791-1.861,2.575c0.279,0.126,0.392,0.183,0.728,0.378h0.729V92.392z M26.366,95.037v-1.525h-2.311v1.525
			H26.366z M24.056,95.346v1.624h2.311v-1.624H24.056z M33.142,91.188c0.28-0.392,0.378-0.518,0.672-0.896
			c0.49,0.421,0.63,0.547,1.078,1.009c0.028,0.042,0.042,0.084,0.042,0.112c0,0.056-0.069,0.098-0.154,0.098h-3.094v2.002h1.4
			c0.182-0.266,0.238-0.336,0.448-0.588c0.378,0.308,0.489,0.406,0.825,0.686c0.099,0.098,0.126,0.141,0.126,0.196
			s-0.126,0.153-0.42,0.294v2.926c0.015,0.84,0.015,1.596,0.015,2.254c0,0.043,0,0.098,0,0.112c0,0.364-0.099,0.588-0.364,0.798
			c-0.182,0.154-0.406,0.238-0.91,0.336c-0.028-0.574-0.21-0.77-0.896-0.924v-0.154c0.266,0.014,0.573,0.028,0.783,0.028
			c0.057,0,0.099,0,0.196,0c0.028,0,0.056,0,0.056,0c0.154,0,0.196-0.056,0.196-0.224v-5.418h-1.456v5.025
			c0,0.645,0,0.729,0.042,2.828c-0.027,0.098-0.056,0.112-0.168,0.126c-0.279,0.056-0.462,0.07-0.574,0.07
			c-0.153,0-0.224-0.042-0.224-0.126c0-0.014,0-0.028,0-0.042c0.056-1.498,0.07-2.675,0.07-4.368v-3.514h-1.33l-0.015,3.906v1.357
			c0,0.266,0,0.532,0.015,1.021c-0.015,0.127-0.042,0.168-0.168,0.196c-0.112,0.015-0.42,0.042-0.546,0.042
			c-0.154,0-0.238-0.056-0.238-0.14c0-0.028,0-0.056,0.014-0.099c0.042-1.273,0.042-1.609,0.057-3.598c0-0.645,0-1.33,0.014-2.044
			c0-0.112,0-0.168,0-0.196v-1.147c-0.476,0.812-0.602,0.979-1.078,1.554l-0.196-0.126c0.603-1.022,0.994-1.946,1.372-3.206
			c0.322-1.105,0.504-1.848,0.546-2.352c1.036,0.238,1.471,0.392,1.471,0.531c0,0.141-0.183,0.211-0.561,0.238
			c-0.294,0.742-0.294,0.742-0.56,1.414H33.142z M29.487,91.51c-0.14,0.322-0.308,0.658-0.77,1.47
			c0.434,0.224,0.504,0.267,0.91,0.532h1.204V91.51H29.487z"/>
		<path d="M55.29,90.894c-0.112,0.56-0.154,0.742-0.28,1.078c-0.434,1.204-1.204,1.974-2.492,2.506
			c-0.7,0.28-1.273,0.406-2.113,0.504l-0.057-0.21c1.736-0.476,2.59-0.994,3.262-1.974c0.448-0.63,0.631-1.147,0.7-1.904h-2.394
			c-0.112,1.177-0.63,2.128-1.176,2.128c-0.21,0-0.421-0.35-0.421-0.729c0-0.195,0.057-0.307,0.267-0.447
			c0.588-0.434,0.868-0.952,1.092-2.086h0.238c0.014,0.35,0.014,0.49,0.014,0.602c0,0.057,0,0.127,0,0.211h3.962v-0.756
			c0-0.281-0.014-0.463-0.056-0.841c1.218,0.183,1.218,0.183,1.344,0.21c0.196,0.028,0.322,0.098,0.322,0.196
			c0,0.014-0.042,0.069-0.07,0.098c-0.098,0.07-0.182,0.099-0.574,0.21v0.883h3.584c0.238-0.322,0.322-0.42,0.63-0.715
			c0.532,0.393,0.687,0.518,1.177,0.924c0.098,0.112,0.126,0.141,0.126,0.196c0,0.015-0.028,0.056-0.057,0.07
			c-0.056,0.028-0.182,0.056-0.321,0.069l-0.729,0.084c-0.252,0.225-0.252,0.225-0.686,0.687c-0.267,0.294-0.267,0.294-0.49,0.49
			l-0.182-0.07c0.224-0.489,0.237-0.532,0.531-1.414H58.02v1.849c0,0.252,0.084,0.293,0.616,0.293c0.098,0,0.434,0,0.952,0.015
			c0.07,0,0.126,0,0.154,0c0.56,0,1.245-0.042,1.414-0.099c0.14-0.041,0.21-0.125,0.392-0.489c0-0.015,0.084-0.196,0.224-0.505
			c0.057-0.111,0.141-0.279,0.238-0.504l0.168,0.028l-0.098,1.064l-0.015,0.168c0,0.069,0,0.112,0,0.112
			c0,0.098,0.042,0.125,0.225,0.168c0.168,0.041,0.294,0.182,0.294,0.336c0,0.35-0.672,0.447-3.178,0.447
			c-1.219,0-1.723-0.027-1.946-0.098c-0.225-0.057-0.336-0.252-0.336-0.561v-2.226H55.29z M52.616,97.936
			c-0.042,0.938-0.21,1.639-0.589,2.311c-0.266,0.476-0.812,0.924-1.119,0.924c-0.21,0-0.462-0.448-0.462-0.813
			c0-0.195,0.069-0.252,0.489-0.434c0.154-0.07,0.687-0.532,0.91-0.813c0.252-0.293,0.378-0.588,0.546-1.176H52.616z M58.229,94.113
			c1.204,0.547,1.792,0.883,2.479,1.414c0.237,0.182,0.308,0.266,0.35,0.463c0.042,0.14,0.057,0.224,0.057,0.308
			c0,0.098-0.07,0.392-0.112,0.518c-0.057,0.14-0.126,0.21-0.225,0.21c-0.084,0-0.168-0.07-0.294-0.224
			c-0.35-0.49-0.615-0.826-0.867-1.134c-0.742,0.14-1.33,0.224-2.618,0.392c-1.666,0.21-1.723,0.224-3.57,0.406
			c-0.854,0.084-0.854,0.084-1.246,0.126c-0.112,0.447-0.168,0.546-0.266,0.546c-0.154,0-0.267-0.364-0.504-1.526
			c0.476,0.028,0.657,0.043,1.036,0.043c0.014,0,0.546-0.015,1.609-0.029c0.49-0.812,0.813-1.609,1.078-2.617
			c1.05,0.195,1.526,0.336,1.526,0.477c0,0.111-0.154,0.168-0.672,0.266c-0.687,0.91-1.051,1.344-1.555,1.875
			c2.002-0.041,3.389-0.098,4.956-0.223c-0.126-0.127-0.546-0.519-1.273-1.177L58.229,94.113z M53.735,98.481
			c0-0.266-0.014-0.489-0.042-1.008c0.589,0.042,1.288,0.153,1.513,0.252c0.027,0.015,0.069,0.07,0.069,0.112
			c0,0.111-0.098,0.168-0.573,0.336v2.113c0,0.168,0.069,0.281,0.182,0.309c0.126,0.027,0.756,0.057,1.358,0.057l1.273-0.015h0.196
			c0.476,0,0.63-0.056,0.742-0.238c0.111-0.224,0.462-1.218,0.77-2.226l0.168,0.027l-0.069,1.793
			c-0.015,0.084-0.015,0.14-0.015,0.195c0,0.266,0.015,0.28,0.238,0.35c0.238,0.07,0.392,0.211,0.392,0.351
			c0,0.168-0.252,0.378-0.546,0.448c-0.336,0.07-1.512,0.111-3.023,0.111c-1.358,0-2.002-0.027-2.227-0.111
			c-0.294-0.112-0.406-0.309-0.406-0.672V98.481z M55.611,96.718c0.967,0.308,1.513,0.56,1.961,0.952
			c0.21,0.168,0.252,0.279,0.252,0.574c0,0.377-0.196,0.728-0.393,0.728c-0.112,0-0.112-0.015-0.35-0.392
			c-0.322-0.547-0.771-1.037-1.555-1.709L55.611,96.718z M60.063,97.67c0.729,0.42,1.303,0.84,1.862,1.371
			c0.448,0.42,0.588,0.645,0.588,0.91c0,0.267-0.154,0.658-0.322,0.854c-0.056,0.069-0.153,0.112-0.237,0.112
			c-0.141,0-0.154-0.028-0.322-0.406c-0.364-0.882-0.924-1.764-1.722-2.73L60.063,97.67z"/>
		<path d="M75.561,90.726c0.322-0.378,0.42-0.504,0.756-0.882c0.477,0.447,0.631,0.588,1.107,1.036
			c0.027,0.028,0.041,0.056,0.041,0.069c0,0.043-0.07,0.099-0.139,0.099h-3.053c0.447,0.28,0.686,0.489,1.035,0.909
			c0.154,0.183,0.225,0.336,0.225,0.477c0,0.35-0.322,0.798-0.588,0.798c-0.111,0-0.127-0.056-0.211-0.434
			c-0.125-0.658-0.266-1.05-0.656-1.75h-0.756c-0.617,0.868-1.232,1.567-2.031,2.296l-0.209-0.141
			c0.658-0.783,1.063-1.469,1.553-2.533c0.322-0.715,0.434-1.064,0.547-1.624c0.322,0.056,0.561,0.112,0.729,0.14
			c0.559,0.098,0.656,0.126,0.727,0.182c0.029,0.028,0.07,0.084,0.07,0.112c0,0.112-0.111,0.154-0.629,0.238
			c-0.211,0.462-0.295,0.63-0.533,1.008H75.561z M80.336,93.554c0.35-0.336,0.447-0.448,0.742-0.784
			c0.461,0.393,0.602,0.518,1.049,0.938c0.029,0.029,0.043,0.057,0.043,0.084c0,0.043-0.057,0.084-0.113,0.084H77.62v1.695h3.977
			c0.35-0.42,0.461-0.547,0.84-0.938c0.545,0.434,0.713,0.573,1.246,1.05c0.041,0.057,0.07,0.098,0.07,0.126
			c0,0.042-0.07,0.084-0.154,0.084h-3.332v1.624h1.26c0.336-0.406,0.434-0.518,0.77-0.91c0.518,0.434,0.686,0.574,1.205,1.036
			c0.041,0.042,0.055,0.084,0.055,0.112c0,0.042-0.07,0.084-0.125,0.084h-3.164v1.287c0,0.211,0,0.211,0.014,1.555
			c-0.057,0.49-0.141,0.672-0.42,0.854c-0.295,0.211-0.602,0.309-1.232,0.406c-0.055-0.392-0.125-0.56-0.322-0.699
			c-0.238-0.183-0.504-0.238-1.582-0.379v-0.224c0.953,0.056,1.037,0.069,2.367,0.126c0.027,0,0.055,0,0.07,0
			c0.139,0,0.182-0.042,0.182-0.225v-2.701H72.79c-0.658,0-0.813,0.014-1.148,0.111l-0.098-0.574
			c0.406,0.113,0.602,0.141,1.246,0.141h6.553v-1.624h-6.777c-0.615,0-0.727,0.015-1.273,0.099l-0.098-0.561
			c0.547,0.126,0.756,0.141,1.371,0.141h4.158v-1.695h-2.771c-0.393,0-0.518,0.015-1.051,0.113L72.79,93.4
			c0.449,0.111,0.715,0.153,1.162,0.153h2.771v-0.308c0-0.238,0-0.295-0.055-0.994c0.168,0.027,0.168,0.027,0.363,0.041
			c0.699-1.092,1.148-2.071,1.428-3.163C79.86,89.367,80,89.41,80,89.535c0,0.127-0.197,0.211-0.658,0.267
			c-0.252,0.42-0.35,0.573-0.617,0.924h2.758c0.365-0.405,0.463-0.532,0.813-0.896l1.316,1.008c0.057,0.056,0.084,0.084,0.084,0.111
			c0,0.057-0.07,0.099-0.127,0.099H79.44c0.377,0.224,0.504,0.321,0.883,0.657c0.336,0.295,0.434,0.449,0.434,0.645
			c0,0.294-0.322,0.784-0.52,0.784c-0.098,0-0.182-0.099-0.223-0.308c-0.211-0.785-0.434-1.26-0.826-1.778h-0.729
			c-0.477,0.588-0.77,0.909-1.162,1.274c0.799,0.125,0.883,0.153,0.883,0.266c0,0.126-0.098,0.168-0.561,0.279v0.687H80.336z
			 M74.19,98.117c1.736,0.742,2.24,1.106,2.24,1.625c0,0.447-0.197,0.896-0.406,0.896c-0.127,0-0.182-0.056-0.477-0.616
			c-0.42-0.756-0.813-1.232-1.469-1.792L74.19,98.117z"/>
	</g>
	<rect x="0.25" y="63" fill="none" stroke="#008CD6" stroke-width="0.5" width="14" height="14"/>
	<rect x="21.25" y="63" fill="none" stroke="#008CD6" stroke-width="0.5" width="14" height="14"/>
	<rect x="49.25" y="63" fill="none" stroke="#008CD6" stroke-width="0.5" width="14" height="14"/>
	<rect x="70.25" y="63" fill="none" stroke="#008CD6" stroke-width="0.5" width="14" height="14"/>
</g>
</svg>
