<?xml version="1.0" encoding="utf-8"?>
<!-- Generator: Adobe Illustrator 12.0.0, SVG Export Plug-In . SVG Version: 6.00 Build 51448)  -->
<!DOCTYPE svg PUBLIC "-//W3C//DTD SVG 1.1//EN" "http://www.w3.org/Graphics/SVG/1.1/DTD/svg11.dtd" [
	<!ENTITY ns_svg "http://www.w3.org/2000/svg">
	<!ENTITY ns_xlink "http://www.w3.org/1999/xlink">
]>
<svg  version="1.1" id="レイヤー_1" xmlns="&ns_svg;" xmlns:xlink="&ns_xlink;" width="110.244" height="195.244"
	 viewBox="0 0 110.244 195.244" overflow="visible" enable-background="new 0 0 110.244 195.244" xml:space="preserve">
<g>
	<path d="M29.442,36.265c0.819-0.651,1.134-1.029,1.544-1.869c-0.483-0.147-0.861-0.399-1.218-0.809
		c-0.462-0.557-0.714-1.386-0.714-2.373c0-0.073,0-0.199,0.01-0.388c-0.84,0.934-1.375,2.079-1.375,2.919c0,0.073,0,0.136,0,0.189
		C27.7,34.007,27.7,34.07,27.7,34.102c0,0.168-0.116,0.294-0.263,0.294c-0.357,0-0.619-0.882-0.619-2.121
		c0-0.535,0.031-1.008,0.126-1.764c0.052-0.483,0.063-0.63,0.063-0.83c0-0.347-0.147-0.693-0.399-0.956
		c0.221,0,0.347,0.063,0.609,0.273c0.336,0.294,0.567,0.641,0.567,0.872c0,0.105-0.011,0.147-0.126,0.388
		c-0.231,0.504-0.399,1.354-0.399,2.048c0,0.189,0.01,0.304,0.052,0.556c0.62-1.229,0.977-1.743,1.774-2.509
		c0.137-1.071,0.347-1.669,0.746-2.163c0.231-0.294,0.546-0.452,0.882-0.452c0.294,0,0.63,0.147,0.84,0.368
		c0.241,0.252,0.357,0.462,0.525,0.945c0.063,0,0.126,0,0.147,0c0.588,0,1.145,0.179,1.638,0.525c0.672,0.462,1.04,1.208,1.04,2.058
		c0,1.628-1.313,2.888-3.014,2.888c-0.074,0-0.168,0-0.326-0.01c-0.64,0.976-1.166,1.47-2.026,1.879L29.442,36.265z M29.379,30.469
		c-0.01,0.252-0.021,0.399-0.021,0.514c0,0.977,0.305,1.848,0.819,2.321c0.315,0.294,0.588,0.451,1.019,0.577
		c0.283-0.914,0.42-1.932,0.42-3.15c0-0.599-0.021-0.935-0.105-1.365C30.619,29.555,30.031,29.859,29.379,30.469z M31.469,29.114
		c-0.189-0.798-0.441-1.134-0.851-1.134c-0.588,0-1.019,0.735-1.208,2.089C30.083,29.555,30.682,29.271,31.469,29.114z
		 M32.341,31.067c0,1.134-0.168,2.037-0.525,2.898c1.386,0,2.373-1.04,2.373-2.488c0-0.83-0.315-1.501-0.882-1.869
		c-0.347-0.22-0.651-0.315-1.166-0.325C32.288,30.017,32.341,30.469,32.341,31.067z"/>
	<path d="M29.474,57.412c0.746-0.462,1.208-0.872,1.669-1.47c0.735-0.977,1.103-2.163,1.103-3.539c0-0.913-0.157-1.774-0.389-2.163
		c-0.189-0.305-0.441-0.462-0.745-0.462c-0.525,0-1.008,0.452-1.386,1.313c-0.304,0.683-0.494,1.543-0.494,2.258
		c0,0.178,0.011,0.294,0.042,0.651c0.011,0.063,0.011,0.147,0.011,0.221c0,0.199-0.095,0.315-0.273,0.315
		c-0.399,0-0.662-0.851-0.662-2.153c0-0.871,0.063-1.417,0.336-2.814c0.084-0.42,0.116-0.619,0.116-0.766
		c0-0.336-0.147-0.536-0.567-0.746c0.084-0.032,0.147-0.053,0.189-0.053c0.22,0,0.556,0.137,0.84,0.347
		c0.294,0.21,0.41,0.378,0.41,0.588c0,0.137-0.021,0.2-0.147,0.399c-0.399,0.662-0.756,2.153-0.756,3.129c0,0.095,0,0.2,0.011,0.389
		h0.021c0.315-1.344,0.704-2.215,1.218-2.751c0.389-0.42,0.809-0.62,1.281-0.62c1.008,0,1.722,1.239,1.722,2.993
		c0,1.365-0.378,2.499-1.145,3.434c-0.619,0.766-1.323,1.26-2.32,1.659L29.474,57.412z"/>
	<path d="M30.136,99.097c0.767-0.62,1.113-0.966,1.491-1.491s0.63-1.019,0.935-1.816c-0.914-0.483-1.816-0.714-3.013-0.767
		c-0.641,1.166-0.914,1.606-1.271,2.079c-0.389,0.483-0.714,0.725-1.008,0.725c-0.441,0-0.809-0.504-0.809-1.113
		c0-0.535,0.263-1.071,0.714-1.449c0.462-0.389,1.155-0.63,1.995-0.693c0.147-0.252,0.168-0.325,0.746-1.648
		c0.336-0.798,0.378-0.914,0.546-1.48c-0.252,0.063-0.976,0.294-1.512,0.483c-0.168,0.053-0.252,0.074-0.347,0.074
		c-0.325,0-0.662-0.515-0.662-1.019c0-0.105,0.021-0.157,0.116-0.242c0.21,0.483,0.399,0.641,0.788,0.641
		c0.273,0,0.598-0.052,1.113-0.178c0.273-0.074,0.315-0.095,0.462-0.221c0.063-0.073,0.126-0.094,0.221-0.094
		c0.231,0,0.756,0.556,0.756,0.819c0,0.084-0.042,0.157-0.157,0.241c-0.242,0.2-0.336,0.347-1.061,1.785
		c-0.284,0.567-0.326,0.651-0.431,0.851c1.061,0.052,1.974,0.231,3.014,0.599c0.178-0.546,0.346-1.354,0.346-1.69
		c0-0.284-0.147-0.473-0.546-0.725c0.074-0.053,0.116-0.063,0.189-0.063c0.179,0,0.42,0.084,0.735,0.241
		c0.336,0.168,0.493,0.336,0.493,0.525c0,0.105-0.01,0.157-0.094,0.367c-0.032,0.074-0.095,0.294-0.252,0.788
		c-0.053,0.189-0.095,0.315-0.242,0.798c1.26,0.63,1.596,0.935,1.596,1.491c0,0.21-0.105,0.378-0.242,0.378
		c-0.095,0-0.168-0.053-0.357-0.221c-0.336-0.336-0.683-0.609-1.25-0.987c-0.462,1.008-0.788,1.512-1.344,2.047
		c-0.472,0.452-0.903,0.756-1.575,1.082L30.136,99.097z M26.912,96.461c0,0.389,0.221,0.756,0.452,0.756
		c0.346,0,0.788-0.609,1.596-2.205C27.616,95.159,26.912,95.652,26.912,96.461z"/>
	<path d="M28.718,131.615c-0.189,0.661-0.483,1.806-0.609,2.32c-0.105,0.462-0.137,0.63-0.137,0.893
		c-0.011,0.336-0.021,0.378-0.074,0.462c-0.052,0.073-0.115,0.115-0.199,0.115c-0.179,0-0.326-0.147-0.452-0.472
		c-0.21-0.536-0.336-1.333-0.336-2.111c0-0.966,0.116-1.848,0.473-3.496c0.136-0.651,0.157-0.767,0.157-0.945
		c0-0.315-0.084-0.567-0.304-0.924c0.241,0.011,0.441,0.147,0.735,0.525c0.242,0.305,0.378,0.599,0.378,0.798
		c0,0.115,0,0.115-0.168,0.462c-0.504,1.05-0.798,2.299-0.798,3.423c0,0.536,0.042,0.872,0.168,1.302l0.441-1.05l0.567-1.354
		L28.718,131.615z M29.768,129.714c0.504,0.326,0.83,0.431,1.354,0.431c0.368,0,0.767-0.053,1.197-0.147c0-0.2,0-0.368,0-0.462
		c0-1.176-0.011-1.313-0.147-1.459c-0.126-0.137-0.357-0.21-0.693-0.242c0.147-0.136,0.231-0.168,0.504-0.168
		c0.231,0,0.515,0.042,0.714,0.095c0.304,0.094,0.462,0.22,0.462,0.378c0,0.073,0,0.084-0.095,0.325
		c-0.115,0.305-0.178,0.683-0.22,1.407c0.483-0.137,0.788-0.273,0.966-0.431c0.105-0.105,0.137-0.115,0.231-0.115
		c0.126,0,0.368,0.063,0.494,0.136c0.084,0.042,0.136,0.116,0.136,0.189c0,0.231-0.766,0.546-1.858,0.756
		c0,1.396,0.032,1.974,0.137,2.856c1.218,0.325,1.732,0.735,1.732,1.344c0,0.221-0.095,0.389-0.21,0.389
		c-0.084,0-0.158-0.053-0.368-0.263c-0.462-0.472-0.725-0.662-1.134-0.84c0.01,0.094,0.01,0.178,0.01,0.252
		c0,0.756-0.63,1.208-1.68,1.208c-0.914,0-1.554-0.441-1.554-1.071c0-0.725,0.777-1.187,1.974-1.187c0.199,0,0.346,0.01,0.641,0.031
		c0-0.094,0-0.157,0-0.178l-0.021-1.124l-0.011-1.344c-0.315,0.063-0.62,0.084-0.924,0.084c-0.767,0-1.208-0.189-1.732-0.735
		L29.768,129.714z M31.375,133.547c-0.83,0-1.344,0.273-1.344,0.735c0,0.367,0.409,0.619,1.029,0.619
		c0.578,0,0.987-0.168,1.155-0.493c0.105-0.189,0.136-0.347,0.136-0.735C32.057,133.589,31.763,133.547,31.375,133.547z"/>
	<path d="M26.713,139.375c0.504,0.473,0.798,0.609,1.323,0.609c0.273,0,0.557-0.042,0.956-0.126
		c0.262-0.683,0.378-1.124,0.378-1.491c0-0.347-0.168-0.557-0.672-0.809c0.115-0.063,0.168-0.074,0.252-0.074
		c0.21,0,0.536,0.095,0.84,0.242c0.357,0.178,0.494,0.294,0.494,0.441c0,0.084-0.021,0.147-0.105,0.273
		c-0.042,0.084-0.263,0.515-0.641,1.292c0.777-0.273,0.872-0.325,1.166-0.578c0.084-0.073,0.116-0.084,0.221-0.084
		c0.409,0,0.714,0.137,0.714,0.315c0,0.273-0.651,0.535-2.321,0.924c-0.094,0.21-0.273,0.641-0.556,1.271
		c-0.315,0.725-1.124,2.488-1.218,2.667c-0.157,0.283-0.252,0.378-0.378,0.378c-0.178,0-0.325-0.326-0.325-0.746
		c0-0.21,0.021-0.273,0.115-0.378c0.231-0.252,0.357-0.41,0.504-0.63c0.515-0.767,0.893-1.48,1.313-2.468
		c-0.231,0.032-0.325,0.042-0.493,0.042c-0.378,0-0.662-0.063-0.924-0.22c-0.315-0.179-0.556-0.431-0.767-0.767L26.713,139.375z
		 M32.267,139.962c0.725,0.063,1.313,0.252,1.795,0.578c0.41,0.263,0.662,0.578,0.662,0.819c0,0.179-0.105,0.305-0.273,0.305
		c-0.084,0-0.147-0.021-0.242-0.084c-0.294-0.179-0.493-0.221-1.029-0.221c-0.84,0-1.103,0.231-1.103,0.956
		c0,0.284,0.053,0.735,0.21,1.806c0.641,0.189,1.187,0.441,1.491,0.683c0.283,0.22,0.42,0.493,0.42,0.829
		c0,0.21-0.084,0.357-0.21,0.357c-0.105,0-0.147-0.031-0.368-0.273c-0.378-0.409-0.725-0.661-1.271-0.924c0,0.084,0,0.158,0,0.2
		c0,0.42-0.084,0.661-0.294,0.892c-0.284,0.284-0.777,0.452-1.365,0.452c-0.945,0-1.596-0.452-1.596-1.113
		c0-0.735,0.798-1.25,1.963-1.25c0.242,0,0.357,0.01,0.63,0.052c-0.031-0.83-0.031-0.914-0.031-1.04
		c0-0.861,0.084-1.187,0.367-1.501c0.21-0.22,0.504-0.367,0.998-0.493c0.158-0.042,0.179-0.053,0.567-0.137
		c-0.284-0.305-0.609-0.473-1.354-0.725L32.267,139.962z M31.7,144.562c-0.326-0.095-0.567-0.126-0.903-0.126
		c-0.892,0-1.438,0.305-1.438,0.798c0,0.389,0.399,0.62,1.05,0.62c0.851,0,1.292-0.347,1.292-1.008V144.562z"/>
	<path d="M15.688,23.948c-1.47,2.667-1.596,2.856-2.373,4.053h6.405c0.378-0.441,0.504-0.567,0.882-0.987
		c0.609,0.483,0.798,0.63,1.407,1.134c0.063,0.063,0.105,0.126,0.105,0.189c0,0.126-0.084,0.189-0.735,0.504
		c0.021,8.61,0.021,8.61,0.147,11.844c-0.021,0.315-0.252,0.399-1.113,0.399c-0.357,0-0.441-0.042-0.483-0.294v-1.218H9.724v1.134
		c-0.021,0.252-0.063,0.336-0.273,0.399c-0.231,0.063-0.504,0.084-0.819,0.084c-0.294,0-0.399-0.084-0.399-0.294
		c0-0.021,0-0.063,0-0.084c0.042-3.066,0.063-5.67,0.063-9.282c0-1.281,0-1.407-0.042-3.213c-0.021-0.714-0.021-0.714-0.021-1.302
		c0.756,0.42,0.987,0.546,1.701,0.987h2.814c0.084-0.294,0.084-0.294,0.252-0.861c0.294-0.987,0.462-1.722,0.714-3.192H8.001
		c-0.882,0-1.869,0.042-2.541,0.105l-0.126-0.861c0.987,0.189,1.806,0.273,2.667,0.273H21c0.525-0.714,0.672-0.924,1.239-1.617
		c0.987,0.756,1.281,1.008,2.268,1.806c0.063,0.063,0.105,0.126,0.105,0.168c0,0.084-0.084,0.126-0.231,0.126H15.688z M19.93,28.484
		H9.724v4.746H19.93V28.484z M9.724,33.713v5.376H19.93v-5.376H9.724z"/>
	<path d="M5.062,53.348c2.331-1.617,4.032-3.234,5.922-5.607c0.987-1.239,1.89-2.604,2.31-3.465
		c0.147-0.315,0.231-0.546,0.378-1.029c0.483,0.084,0.84,0.168,1.071,0.21c1.155,0.231,1.407,0.315,1.407,0.504
		c0,0.168-0.252,0.294-0.819,0.399c1.029,1.722,2.436,3.192,4.326,4.557c1.785,1.281,3.486,2.079,5.439,2.604l-0.042,0.294
		c-0.882,0.105-1.218,0.399-1.659,1.386c-1.953-1.008-3.087-1.827-4.62-3.423c-1.554-1.575-2.247-2.541-3.759-5.208
		c-1.491,2.373-2.814,3.948-4.746,5.691c-1.68,1.491-3.045,2.436-4.977,3.402L5.062,53.348z M10.249,61.622
		c0,0.189-0.021,0.252-0.126,0.294c-0.189,0.063-0.672,0.126-1.092,0.126c-0.231,0-0.294-0.063-0.294-0.294
		C8.779,58.472,8.8,57.443,8.8,56.582c0-1.659-0.021-2.436-0.063-3.234c0.777,0.441,1.008,0.588,1.68,1.071H18.9
		c0.336-0.462,0.462-0.609,0.861-1.071c0.588,0.441,0.777,0.588,1.344,1.071c0.168,0.147,0.21,0.21,0.21,0.294
		c0,0.126-0.189,0.273-0.693,0.441c0,3.066,0,3.066,0.084,6.321c0,0.042,0,0.063,0,0.084c0,0.168-0.042,0.231-0.189,0.273
		c-0.147,0.063-0.84,0.147-1.071,0.147c-0.21,0-0.315-0.084-0.315-0.252c0-0.021,0-0.063,0-0.105V60.74h-8.883V61.622z
		 M10.228,50.681c0.609,0.105,1.113,0.168,1.554,0.168h4.389c0.483-0.525,0.63-0.714,1.113-1.26
		c0.756,0.588,1.008,0.756,1.764,1.386c0.105,0.105,0.168,0.189,0.168,0.252c0,0.084-0.042,0.105-0.273,0.105h-7.161
		c-0.399,0-0.714,0.021-1.386,0.126L10.228,50.681z M10.249,60.257h8.883v-5.355h-8.883V60.257z"/>
	<path d="M14.701,81.299c2.268-0.672,3.717-1.533,4.914-2.919c1.239-1.407,1.869-3.129,1.869-5.061c0-2.037-0.819-3.654-2.373-4.641
		c-0.924-0.609-2.31-0.966-3.633-0.966c-0.252,0-0.399,0-0.735,0.042c0.504,0.735,0.651,1.134,0.651,1.743
		c0,1.638-1.176,4.704-2.772,7.266c-1.323,2.1-2.352,3.129-3.129,3.129c-0.357,0-0.693-0.168-0.924-0.441
		c-0.189-0.252-0.231-0.336-0.588-1.344c-0.189-0.546-0.315-0.798-0.924-1.974c-0.336-0.672-0.483-1.239-0.483-1.911
		c0-1.323,0.714-2.877,1.89-4.158c1.701-1.806,4.473-2.94,7.224-2.94c2.121,0,4.074,0.693,5.418,1.932
		c1.344,1.239,2.016,2.898,2.016,4.935c0,2.625-1.533,4.956-4.179,6.363c-1.218,0.651-2.31,0.987-4.095,1.302L14.701,81.299z
		 M7.792,74.768c0,1.008,0.315,2.037,0.84,2.772c0.294,0.378,0.567,0.609,0.798,0.609c0.462,0,1.47-1.134,2.499-2.772
		c1.554-2.478,2.667-5.187,2.667-6.489c0-0.315-0.063-0.525-0.294-1.05C10.647,68.489,7.792,71.534,7.792,74.768z"/>
	<path d="M9.808,92.03c-0.357,0-0.525,0-1.869,0.105L7.729,91.4c0.462,0.063,0.462,0.063,2.058,0.147h4.158c0-0.273,0-0.273,0-1.029
		c0-0.588-0.021-0.882-0.084-1.491c2.268,0.252,2.268,0.252,2.268,0.441c0,0.084-0.042,0.168-0.21,0.273
		c0,0-0.084,0.042-0.252,0.147c-0.063,0.042-0.126,0.084-0.189,0.126c0,0.903,0,0.903-0.021,1.533h3.696l1.092-1.302
		c0.798,0.63,1.05,0.84,1.848,1.491c0.063,0.063,0.084,0.105,0.084,0.147c0,0.084-0.084,0.147-0.189,0.147h-6.552
		c-0.021,0.861-0.042,1.302-0.105,2.247h3.717l1.134-1.365c0.819,0.672,1.071,0.882,1.911,1.617
		c0.021,0.021,0.042,0.063,0.042,0.084c0,0.063-0.084,0.147-0.189,0.147h-6.657c-0.084,0.966-0.168,1.491-0.336,2.331h5.439
		c0.567-0.672,0.735-0.882,1.344-1.47c0.882,0.672,1.155,0.903,2.037,1.659c0.084,0.084,0.126,0.147,0.126,0.189
		c0,0.063-0.063,0.105-0.126,0.105h-8.631c0.84,1.197,1.722,1.995,3.234,2.856c1.659,0.966,3.654,1.47,6.342,1.659v0.231
		c-0.756,0.273-1.113,0.714-1.344,1.638c-2.478-0.567-4.347-1.512-6.048-3.066c-1.197-1.071-1.869-1.869-2.583-3.087
		c-0.441,1.302-1.134,2.289-2.247,3.234c-1.89,1.617-3.99,2.52-7.287,3.15l-0.084-0.273c2.415-0.756,4.053-1.617,5.628-2.898
		c1.344-1.134,2.1-2.142,2.52-3.444H8.127c-0.945,0-1.26,0.021-1.995,0.147l-0.21-0.798c0.651,0.084,1.617,0.168,2.205,0.168h5.292
		c0.21-0.84,0.273-1.302,0.357-2.331H9.913c-0.462,0-0.861,0.021-1.827,0.105l-0.252-0.756c0.441,0.063,1.785,0.168,2.058,0.168
		h3.927c0.063-0.945,0.084-1.26,0.105-2.247H9.808z M21.504,87.851l0.966-1.092c0.798,0.525,1.029,0.693,1.827,1.197
		c0.189,0.168,0.315,0.294,0.315,0.399c0,0.063-0.042,0.126-0.105,0.168c-0.084,0.042-0.294,0.105-0.546,0.168
		c-0.483,0.126-0.735,0.189-0.777,0.21c-0.819,0.714-1.218,1.05-2.1,1.743l-0.252-0.147c0.462-0.861,0.63-1.26,0.945-2.163H8.022
		c-0.147,1.554-1.029,3.192-1.701,3.192c-0.315,0-0.672-0.651-0.672-1.197c0-0.252,0.105-0.42,0.483-0.693
		c0.945-0.693,1.218-1.176,1.596-2.877h0.357c0,0.777,0,0.777-0.021,1.092h5.88v-1.323c0-0.483-0.021-0.777-0.063-1.428
		c0.882,0.084,1.848,0.21,2.163,0.294c0.21,0.042,0.294,0.105,0.294,0.189c0,0.147-0.021,0.168-0.882,0.609v1.659H21.504z"/>
	<path d="M11.782,107.108c0.63,0,1.617,0.189,2.121,0.399c0.42,0.168,0.588,0.378,0.588,0.672c0,0.021,0,0.042,0,0.042
		c0,0.168-0.021,0.168-0.168,0.546c-0.252,0.714-0.462,2.52-0.462,4.263c0,1.239,0.168,1.554,0.819,1.554
		c0.441,0,0.903-0.168,2.814-1.071c0.378-0.189,0.609-0.252,0.861-0.252c0.504,0,1.008,0.441,1.008,0.882
		c0,0.273-0.147,0.504-0.441,0.63c-0.147,0.063-0.441,0.168-1.407,0.441c-2.541,0.714-3.927,1.344-5.25,2.352
		c-1.134,0.882-1.638,1.701-1.638,2.688c0,1.512,1.197,2.289,3.528,2.289c1.302,0,3.36-0.252,4.872-0.609
		c0.21-0.042,0.294-0.063,0.42-0.063c0.546,0,1.134,0.525,1.134,1.029c0,0.378-0.231,0.567-0.903,0.693
		c-0.672,0.126-2.772,0.273-4.032,0.273c-1.533,0-2.688-0.168-3.57-0.483c-1.407-0.525-2.289-1.722-2.289-3.108
		c0-1.218,0.672-2.373,2.058-3.528c0.63-0.546,1.323-1.008,2.562-1.68c-0.462,0-0.651-0.063-1.008-0.315
		c-0.315-0.231-0.504-0.693-0.609-1.596c-0.063-0.504-0.084-0.966-0.147-2.541c-0.063-1.785-0.084-2.1-0.252-2.415
		c-0.231-0.399-0.63-0.609-1.512-0.756C11.194,107.171,11.362,107.108,11.782,107.108z"/>
	<path d="M5.25,140.519c1.575-1.701,2.541-2.961,3.423-4.41c0.819-1.386,1.407-2.646,1.701-3.654c0.756,0.252,1.869,0.651,2.1,0.756
		c0.084,0.042,0.168,0.126,0.168,0.189c0,0.168-0.294,0.273-0.84,0.273c-0.021,0-0.084,0-0.147-0.021
		c-0.756,1.218-1.113,1.722-1.869,2.688c1.323,0.252,1.617,0.357,1.617,0.525c0,0.189-0.168,0.273-0.819,0.441v3.465
		c0,1.554,0,1.554,0,4.998c-0.063,0.252-0.189,0.294-0.777,0.315c-0.168,0-0.273,0.021-0.336,0.021c-0.042,0-0.063,0-0.063,0
		c-0.231,0-0.336-0.084-0.336-0.273c0.084-4.347,0.084-4.347,0.084-5.061v-3.612c-1.428,1.743-2.268,2.52-3.717,3.612L5.25,140.519z
		 M16.696,129.725v-1.323c0-0.588,0-0.714-0.042-1.239c2.247,0.315,2.247,0.315,2.247,0.504s-0.252,0.315-0.84,0.441
		c0,0.651,0,1.197,0,1.617h2.793c0.588-0.651,0.798-0.861,1.365-1.491c0.882,0.714,1.155,0.945,2.016,1.701
		c0.042,0.042,0.063,0.084,0.063,0.126c0,0.084-0.105,0.147-0.189,0.147h-6.048c0,1.113,0,1.113,0.021,1.911
		c-0.021,0.147-0.063,0.231-0.147,0.273c-0.168,0.063-0.546,0.105-0.903,0.105c-0.252,0-0.336-0.063-0.357-0.273
		c0.021-0.903,0.021-0.903,0.021-2.016h-4.221c0,1.176,0,1.176,0,1.911c-0.042,0.231-0.168,0.273-0.714,0.294
		c-0.105,0-0.21,0.021-0.294,0.021c-0.021,0-0.042,0-0.042,0c-0.231,0-0.336-0.084-0.357-0.273c0.042-0.777,0.042-0.777,0.042-1.953
		H7.414c-0.672,0-1.26,0.063-1.764,0.168l-0.126-0.861c0.861,0.168,1.176,0.21,1.89,0.21h3.696c0-0.168,0-0.21,0-0.315
		c0-0.924-0.021-1.806-0.063-2.289c2.289,0.273,2.289,0.273,2.289,0.483c0,0.189-0.063,0.21-0.861,0.504v1.617H16.696z
		 M16.507,139.133c0.84-0.63,1.386-1.113,2.268-2.037c1.386-1.449,2.1-2.373,2.583-3.318c1.995,1.134,2.016,1.155,2.016,1.323
		c0,0.105-0.168,0.21-0.357,0.21s-0.378-0.021-0.609-0.042c-2.016,1.932-3.906,3.318-5.901,4.347v4.494
		c0,0.105,0.126,0.168,0.336,0.189c0.294,0.042,2.373,0.105,2.898,0.105c0.714,0,1.827-0.063,2.016-0.126
		c0.231-0.063,0.294-0.168,0.525-0.777c0.336-0.903,0.609-1.785,1.071-3.486h0.273l-0.273,3.36
		c-0.021,0.336-0.021,0.504-0.021,0.525c0,0.147,0.042,0.189,0.336,0.294c0.336,0.126,0.462,0.273,0.462,0.525
		c0,0.357-0.252,0.588-0.819,0.714c-0.462,0.084-2.121,0.168-3.801,0.168c-2.583,0-3.402-0.063-3.864-0.315
		c-0.399-0.21-0.546-0.525-0.567-1.197c0.021-3.444,0.021-3.444,0.021-3.906v-5.376c0-0.63-0.042-1.575-0.105-2.121
		c2.142,0.315,2.352,0.357,2.352,0.525c0,0.189-0.294,0.336-0.84,0.462V139.133z"/>
</g>
<g>
	<g>
		<path d="M69.447,36.265c0.819-0.651,1.134-1.029,1.543-1.869c-0.483-0.147-0.861-0.399-1.218-0.809
			c-0.462-0.557-0.714-1.386-0.714-2.373c0-0.073,0-0.199,0.01-0.388c-0.84,0.934-1.375,2.079-1.375,2.919c0,0.073,0,0.136,0,0.189
			c0.011,0.073,0.011,0.136,0.011,0.168c0,0.168-0.116,0.294-0.263,0.294c-0.357,0-0.619-0.882-0.619-2.121
			c0-0.535,0.031-1.008,0.126-1.764c0.052-0.483,0.063-0.63,0.063-0.83c0-0.347-0.147-0.693-0.399-0.956
			c0.221,0,0.347,0.063,0.609,0.273c0.336,0.294,0.567,0.641,0.567,0.872c0,0.105-0.011,0.147-0.126,0.388
			c-0.231,0.504-0.399,1.354-0.399,2.048c0,0.189,0.01,0.304,0.052,0.556c0.62-1.229,0.977-1.743,1.774-2.509
			c0.137-1.071,0.347-1.669,0.746-2.163c0.231-0.294,0.546-0.452,0.882-0.452c0.294,0,0.63,0.147,0.84,0.368
			c0.241,0.252,0.357,0.462,0.525,0.945c0.063,0,0.126,0,0.147,0c0.588,0,1.145,0.179,1.638,0.525
			c0.672,0.462,1.04,1.208,1.04,2.058c0,1.628-1.313,2.888-3.014,2.888c-0.074,0-0.168,0-0.326-0.01
			c-0.64,0.976-1.166,1.47-2.026,1.879L69.447,36.265z M69.384,30.469c-0.01,0.252-0.021,0.399-0.021,0.514
			c0,0.977,0.305,1.848,0.819,2.321c0.315,0.294,0.588,0.451,1.019,0.577c0.283-0.914,0.42-1.932,0.42-3.15
			c0-0.599-0.021-0.935-0.105-1.365C70.623,29.555,70.035,29.859,69.384,30.469z M71.474,29.114
			c-0.189-0.798-0.441-1.134-0.851-1.134c-0.588,0-1.019,0.735-1.208,2.089C70.087,29.555,70.686,29.271,71.474,29.114z
			 M72.345,31.067c0,1.134-0.168,2.037-0.525,2.898c1.386,0,2.373-1.04,2.373-2.488c0-0.83-0.315-1.501-0.882-1.869
			c-0.347-0.22-0.651-0.315-1.166-0.325C72.292,30.017,72.345,30.469,72.345,31.067z"/>
		<path d="M69.479,57.412c0.746-0.462,1.208-0.872,1.669-1.47c0.735-0.977,1.103-2.163,1.103-3.539c0-0.913-0.158-1.774-0.389-2.163
			c-0.189-0.305-0.441-0.462-0.745-0.462c-0.525,0-1.008,0.452-1.386,1.313c-0.305,0.683-0.494,1.543-0.494,2.258
			c0,0.178,0.011,0.294,0.042,0.651c0.011,0.063,0.011,0.147,0.011,0.221c0,0.199-0.095,0.315-0.273,0.315
			c-0.399,0-0.662-0.851-0.662-2.153c0-0.871,0.063-1.417,0.336-2.814c0.084-0.42,0.116-0.619,0.116-0.766
			c0-0.336-0.147-0.536-0.567-0.746c0.084-0.032,0.147-0.053,0.189-0.053c0.22,0,0.556,0.137,0.84,0.347
			c0.294,0.21,0.41,0.378,0.41,0.588c0,0.137-0.021,0.2-0.147,0.399c-0.399,0.662-0.756,2.153-0.756,3.129
			c0,0.095,0,0.2,0.011,0.389h0.021c0.315-1.344,0.704-2.215,1.218-2.751c0.389-0.42,0.809-0.62,1.281-0.62
			c1.008,0,1.722,1.239,1.722,2.993c0,1.365-0.378,2.499-1.145,3.434c-0.619,0.766-1.323,1.26-2.32,1.659L69.479,57.412z"/>
		<path d="M70.14,99.097c0.767-0.62,1.113-0.966,1.491-1.491s0.63-1.019,0.935-1.816c-0.914-0.483-1.816-0.714-3.013-0.767
			c-0.641,1.166-0.914,1.606-1.271,2.079c-0.389,0.483-0.714,0.725-1.008,0.725c-0.441,0-0.809-0.504-0.809-1.113
			c0-0.535,0.263-1.071,0.714-1.449c0.462-0.389,1.155-0.63,1.995-0.693c0.147-0.252,0.168-0.325,0.746-1.648
			c0.336-0.798,0.378-0.914,0.546-1.48c-0.252,0.063-0.976,0.294-1.512,0.483c-0.168,0.053-0.252,0.074-0.347,0.074
			c-0.325,0-0.662-0.515-0.662-1.019c0-0.105,0.021-0.157,0.116-0.242c0.21,0.483,0.399,0.641,0.788,0.641
			c0.273,0,0.599-0.052,1.113-0.178c0.273-0.074,0.315-0.095,0.462-0.221c0.063-0.073,0.126-0.094,0.221-0.094
			c0.231,0,0.756,0.556,0.756,0.819c0,0.084-0.042,0.157-0.157,0.241c-0.242,0.2-0.336,0.347-1.061,1.785
			c-0.284,0.567-0.326,0.651-0.431,0.851c1.061,0.052,1.974,0.231,3.014,0.599c0.178-0.546,0.346-1.354,0.346-1.69
			c0-0.284-0.147-0.473-0.546-0.725c0.074-0.053,0.116-0.063,0.189-0.063c0.179,0,0.42,0.084,0.735,0.241
			c0.336,0.168,0.494,0.336,0.494,0.525c0,0.105-0.01,0.157-0.094,0.367c-0.032,0.074-0.095,0.294-0.252,0.788
			c-0.053,0.189-0.095,0.315-0.242,0.798c1.26,0.63,1.596,0.935,1.596,1.491c0,0.21-0.105,0.378-0.242,0.378
			c-0.095,0-0.168-0.053-0.357-0.221c-0.336-0.336-0.683-0.609-1.25-0.987c-0.462,1.008-0.788,1.512-1.344,2.047
			c-0.472,0.452-0.903,0.756-1.575,1.082L70.14,99.097z M66.917,96.461c0,0.389,0.221,0.756,0.452,0.756
			c0.346,0,0.788-0.609,1.596-2.205C67.62,95.159,66.917,95.652,66.917,96.461z"/>
		<path d="M68.723,131.615c-0.189,0.661-0.483,1.806-0.609,2.32c-0.105,0.462-0.136,0.63-0.136,0.893
			c-0.011,0.336-0.021,0.378-0.074,0.462c-0.052,0.073-0.115,0.115-0.199,0.115c-0.179,0-0.326-0.147-0.452-0.472
			c-0.21-0.536-0.336-1.333-0.336-2.111c0-0.966,0.116-1.848,0.473-3.496c0.136-0.651,0.157-0.767,0.157-0.945
			c0-0.315-0.084-0.567-0.304-0.924c0.241,0.011,0.441,0.147,0.735,0.525c0.242,0.305,0.378,0.599,0.378,0.798
			c0,0.115,0,0.115-0.168,0.462c-0.504,1.05-0.798,2.299-0.798,3.423c0,0.536,0.042,0.872,0.168,1.302l0.441-1.05l0.567-1.354
			L68.723,131.615z M69.772,129.714c0.504,0.326,0.83,0.431,1.354,0.431c0.368,0,0.767-0.053,1.197-0.147c0-0.2,0-0.368,0-0.462
			c0-1.176-0.011-1.313-0.147-1.459c-0.126-0.137-0.357-0.21-0.693-0.242c0.147-0.136,0.231-0.168,0.504-0.168
			c0.231,0,0.515,0.042,0.714,0.095c0.304,0.094,0.462,0.22,0.462,0.378c0,0.073,0,0.084-0.095,0.325
			c-0.115,0.305-0.178,0.683-0.22,1.407c0.483-0.137,0.788-0.273,0.966-0.431c0.105-0.105,0.137-0.115,0.231-0.115
			c0.126,0,0.368,0.063,0.494,0.136c0.084,0.042,0.136,0.116,0.136,0.189c0,0.231-0.766,0.546-1.858,0.756
			c0,1.396,0.032,1.974,0.137,2.856c1.218,0.325,1.732,0.735,1.732,1.344c0,0.221-0.095,0.389-0.21,0.389
			c-0.084,0-0.158-0.053-0.368-0.263c-0.462-0.472-0.725-0.662-1.134-0.84c0.01,0.094,0.01,0.178,0.01,0.252
			c0,0.756-0.63,1.208-1.68,1.208c-0.914,0-1.554-0.441-1.554-1.071c0-0.725,0.777-1.187,1.974-1.187
			c0.199,0,0.346,0.01,0.641,0.031c0-0.094,0-0.157,0-0.178l-0.021-1.124l-0.011-1.344c-0.315,0.063-0.62,0.084-0.924,0.084
			c-0.767,0-1.208-0.189-1.732-0.735L69.772,129.714z M71.379,133.547c-0.83,0-1.344,0.273-1.344,0.735
			c0,0.367,0.409,0.619,1.029,0.619c0.578,0,0.987-0.168,1.155-0.493c0.105-0.189,0.136-0.347,0.136-0.735
			C72.062,133.589,71.768,133.547,71.379,133.547z"/>
		<path d="M66.717,139.375c0.504,0.473,0.798,0.609,1.323,0.609c0.273,0,0.557-0.042,0.956-0.126
			c0.262-0.683,0.378-1.124,0.378-1.491c0-0.347-0.168-0.557-0.672-0.809c0.115-0.063,0.168-0.074,0.252-0.074
			c0.21,0,0.536,0.095,0.84,0.242c0.357,0.178,0.494,0.294,0.494,0.441c0,0.084-0.021,0.147-0.105,0.273
			c-0.042,0.084-0.263,0.515-0.641,1.292c0.777-0.273,0.872-0.325,1.166-0.578c0.084-0.073,0.115-0.084,0.221-0.084
			c0.409,0,0.714,0.137,0.714,0.315c0,0.273-0.651,0.535-2.321,0.924c-0.094,0.21-0.273,0.641-0.556,1.271
			c-0.315,0.725-1.124,2.488-1.218,2.667c-0.157,0.283-0.252,0.378-0.378,0.378c-0.178,0-0.325-0.326-0.325-0.746
			c0-0.21,0.021-0.273,0.115-0.378c0.231-0.252,0.357-0.41,0.504-0.63c0.515-0.767,0.893-1.48,1.313-2.468
			c-0.231,0.032-0.325,0.042-0.493,0.042c-0.378,0-0.662-0.063-0.924-0.22c-0.315-0.179-0.556-0.431-0.767-0.767L66.717,139.375z
			 M72.271,139.962c0.725,0.063,1.313,0.252,1.795,0.578c0.41,0.263,0.662,0.578,0.662,0.819c0,0.179-0.105,0.305-0.273,0.305
			c-0.084,0-0.147-0.021-0.242-0.084c-0.294-0.179-0.493-0.221-1.029-0.221c-0.84,0-1.103,0.231-1.103,0.956
			c0,0.284,0.052,0.735,0.21,1.806c0.641,0.189,1.187,0.441,1.491,0.683c0.283,0.22,0.42,0.493,0.42,0.829
			c0,0.21-0.084,0.357-0.21,0.357c-0.105,0-0.147-0.031-0.368-0.273c-0.378-0.409-0.725-0.661-1.271-0.924c0,0.084,0,0.158,0,0.2
			c0,0.42-0.084,0.661-0.294,0.892c-0.284,0.284-0.777,0.452-1.365,0.452c-0.945,0-1.596-0.452-1.596-1.113
			c0-0.735,0.798-1.25,1.963-1.25c0.242,0,0.357,0.01,0.63,0.052c-0.031-0.83-0.031-0.914-0.031-1.04
			c0-0.861,0.084-1.187,0.367-1.501c0.21-0.22,0.504-0.367,0.998-0.493c0.158-0.042,0.179-0.053,0.567-0.137
			c-0.284-0.305-0.609-0.473-1.354-0.725L72.271,139.962z M71.705,144.562c-0.326-0.095-0.567-0.126-0.903-0.126
			c-0.893,0-1.439,0.305-1.439,0.798c0,0.389,0.399,0.62,1.05,0.62c0.851,0,1.292-0.347,1.292-1.008V144.562z"/>
		<path d="M55.692,23.948c-1.47,2.667-1.596,2.856-2.373,4.053h6.405c0.378-0.441,0.504-0.567,0.882-0.987
			c0.609,0.483,0.798,0.63,1.407,1.134c0.063,0.063,0.105,0.126,0.105,0.189c0,0.126-0.084,0.189-0.735,0.504
			c0.021,8.61,0.021,8.61,0.147,11.844c-0.021,0.315-0.252,0.399-1.113,0.399c-0.357,0-0.441-0.042-0.483-0.294v-1.218H49.728v1.134
			c-0.021,0.252-0.063,0.336-0.273,0.399c-0.231,0.063-0.504,0.084-0.819,0.084c-0.294,0-0.399-0.084-0.399-0.294
			c0-0.021,0-0.063,0-0.084c0.042-3.066,0.063-5.67,0.063-9.282c0-1.281,0-1.407-0.042-3.213c-0.021-0.714-0.021-0.714-0.021-1.302
			c0.756,0.42,0.987,0.546,1.701,0.987h2.814c0.084-0.294,0.084-0.294,0.252-0.861c0.294-0.987,0.462-1.722,0.714-3.192h-5.712
			c-0.882,0-1.869,0.042-2.541,0.105l-0.126-0.861c0.987,0.189,1.806,0.273,2.667,0.273h12.999c0.525-0.714,0.672-0.924,1.239-1.617
			c0.987,0.756,1.281,1.008,2.268,1.806c0.063,0.063,0.105,0.126,0.105,0.168c0,0.084-0.084,0.126-0.231,0.126H55.692z
			 M59.934,28.484H49.728v4.746h10.206V28.484z M49.728,33.713v5.376h10.206v-5.376H49.728z"/>
		<path d="M45.066,53.348c2.331-1.617,4.032-3.234,5.922-5.607c0.987-1.239,1.89-2.604,2.31-3.465
			c0.147-0.315,0.231-0.546,0.378-1.029c0.483,0.084,0.84,0.168,1.071,0.21c1.155,0.231,1.407,0.315,1.407,0.504
			c0,0.168-0.252,0.294-0.819,0.399c1.029,1.722,2.436,3.192,4.326,4.557c1.785,1.281,3.486,2.079,5.439,2.604l-0.042,0.294
			c-0.882,0.105-1.218,0.399-1.659,1.386c-1.953-1.008-3.087-1.827-4.62-3.423c-1.554-1.575-2.247-2.541-3.759-5.208
			c-1.491,2.373-2.814,3.948-4.746,5.691c-1.68,1.491-3.045,2.436-4.977,3.402L45.066,53.348z M50.253,61.622
			c0,0.189-0.021,0.252-0.126,0.294c-0.189,0.063-0.672,0.126-1.092,0.126c-0.231,0-0.294-0.063-0.294-0.294
			c0.042-3.276,0.063-4.305,0.063-5.166c0-1.659-0.021-2.436-0.063-3.234c0.777,0.441,1.008,0.588,1.68,1.071h8.484
			c0.336-0.462,0.462-0.609,0.861-1.071c0.588,0.441,0.777,0.588,1.344,1.071c0.168,0.147,0.21,0.21,0.21,0.294
			c0,0.126-0.189,0.273-0.693,0.441c0,3.066,0,3.066,0.084,6.321c0,0.042,0,0.063,0,0.084c0,0.168-0.042,0.231-0.189,0.273
			c-0.147,0.063-0.84,0.147-1.071,0.147c-0.21,0-0.315-0.084-0.315-0.252c0-0.021,0-0.063,0-0.105V60.74h-8.883V61.622z
			 M50.232,50.681c0.609,0.105,1.113,0.168,1.554,0.168h4.389c0.483-0.525,0.63-0.714,1.113-1.26
			c0.756,0.588,1.008,0.756,1.764,1.386c0.105,0.105,0.168,0.189,0.168,0.252c0,0.084-0.042,0.105-0.273,0.105h-7.161
			c-0.399,0-0.714,0.021-1.386,0.126L50.232,50.681z M50.253,60.257h8.883v-5.355h-8.883V60.257z"/>
		<path d="M54.705,81.299c2.268-0.672,3.717-1.533,4.914-2.919c1.239-1.407,1.869-3.129,1.869-5.061
			c0-2.037-0.819-3.654-2.373-4.641c-0.924-0.609-2.31-0.966-3.633-0.966c-0.252,0-0.399,0-0.735,0.042
			c0.504,0.735,0.651,1.134,0.651,1.743c0,1.638-1.176,4.704-2.772,7.266c-1.323,2.1-2.352,3.129-3.129,3.129
			c-0.357,0-0.693-0.168-0.924-0.441c-0.189-0.252-0.231-0.336-0.588-1.344c-0.189-0.546-0.315-0.798-0.924-1.974
			c-0.336-0.672-0.483-1.239-0.483-1.911c0-1.323,0.714-2.877,1.89-4.158c1.701-1.806,4.473-2.94,7.224-2.94
			c2.121,0,4.074,0.693,5.418,1.932c1.344,1.239,2.016,2.898,2.016,4.935c0,2.625-1.533,4.956-4.179,6.363
			c-1.218,0.651-2.31,0.987-4.095,1.302L54.705,81.299z M47.796,74.768c0,1.008,0.315,2.037,0.84,2.772
			c0.294,0.378,0.567,0.609,0.798,0.609c0.462,0,1.47-1.134,2.499-2.772c1.554-2.478,2.667-5.187,2.667-6.489
			c0-0.315-0.063-0.525-0.294-1.05C50.652,68.489,47.796,71.534,47.796,74.768z"/>
		<path d="M49.812,92.03c-0.357,0-0.525,0-1.869,0.105l-0.21-0.735c0.462,0.063,0.462,0.063,2.058,0.147h4.158
			c0-0.273,0-0.273,0-1.029c0-0.588-0.021-0.882-0.084-1.491c2.268,0.252,2.268,0.252,2.268,0.441c0,0.084-0.042,0.168-0.21,0.273
			c0,0-0.084,0.042-0.252,0.147c-0.063,0.042-0.126,0.084-0.189,0.126c0,0.903,0,0.903-0.021,1.533h3.696l1.092-1.302
			c0.798,0.63,1.05,0.84,1.848,1.491c0.063,0.063,0.084,0.105,0.084,0.147c0,0.084-0.084,0.147-0.189,0.147H55.44
			c-0.021,0.861-0.042,1.302-0.105,2.247h3.717l1.134-1.365c0.819,0.672,1.071,0.882,1.911,1.617
			c0.021,0.021,0.042,0.063,0.042,0.084c0,0.063-0.084,0.147-0.189,0.147h-6.657c-0.084,0.966-0.168,1.491-0.336,2.331h5.439
			c0.567-0.672,0.735-0.882,1.344-1.47c0.882,0.672,1.155,0.903,2.037,1.659c0.084,0.084,0.126,0.147,0.126,0.189
			c0,0.063-0.063,0.105-0.126,0.105h-8.631c0.84,1.197,1.722,1.995,3.234,2.856c1.659,0.966,3.654,1.47,6.342,1.659v0.231
			c-0.756,0.273-1.113,0.714-1.344,1.638c-2.478-0.567-4.347-1.512-6.048-3.066c-1.197-1.071-1.869-1.869-2.583-3.087
			c-0.441,1.302-1.134,2.289-2.247,3.234c-1.89,1.617-3.99,2.52-7.287,3.15l-0.084-0.273c2.415-0.756,4.053-1.617,5.628-2.898
			c1.344-1.134,2.1-2.142,2.52-3.444h-5.145c-0.945,0-1.26,0.021-1.995,0.147l-0.21-0.798c0.651,0.084,1.617,0.168,2.205,0.168
			h5.292c0.21-0.84,0.273-1.302,0.357-2.331h-3.864c-0.462,0-0.861,0.021-1.827,0.105l-0.252-0.756
			c0.441,0.063,1.785,0.168,2.058,0.168h3.927c0.063-0.945,0.084-1.26,0.105-2.247H49.812z M61.509,87.851l0.966-1.092
			c0.798,0.525,1.029,0.693,1.827,1.197c0.189,0.168,0.315,0.294,0.315,0.399c0,0.063-0.042,0.126-0.105,0.168
			c-0.084,0.042-0.294,0.105-0.546,0.168c-0.483,0.126-0.735,0.189-0.777,0.21c-0.819,0.714-1.218,1.05-2.1,1.743l-0.252-0.147
			c0.462-0.861,0.63-1.26,0.945-2.163H48.027c-0.147,1.554-1.029,3.192-1.701,3.192c-0.315,0-0.672-0.651-0.672-1.197
			c0-0.252,0.105-0.42,0.483-0.693c0.945-0.693,1.218-1.176,1.596-2.877h0.357c0,0.777,0,0.777-0.021,1.092h5.88v-1.323
			c0-0.483-0.021-0.777-0.063-1.428c0.882,0.084,1.848,0.21,2.163,0.294c0.21,0.042,0.294,0.105,0.294,0.189
			c0,0.147-0.021,0.168-0.882,0.609v1.659H61.509z"/>
		<path d="M51.786,107.108c0.63,0,1.617,0.189,2.121,0.399c0.42,0.168,0.588,0.378,0.588,0.672c0,0.021,0,0.042,0,0.042
			c0,0.168-0.021,0.168-0.168,0.546c-0.252,0.714-0.462,2.52-0.462,4.263c0,1.239,0.168,1.554,0.819,1.554
			c0.441,0,0.903-0.168,2.814-1.071c0.378-0.189,0.609-0.252,0.861-0.252c0.504,0,1.008,0.441,1.008,0.882
			c0,0.273-0.147,0.504-0.441,0.63c-0.147,0.063-0.441,0.168-1.407,0.441c-2.541,0.714-3.927,1.344-5.25,2.352
			c-1.134,0.882-1.638,1.701-1.638,2.688c0,1.512,1.197,2.289,3.528,2.289c1.302,0,3.36-0.252,4.872-0.609
			c0.21-0.042,0.294-0.063,0.42-0.063c0.546,0,1.134,0.525,1.134,1.029c0,0.378-0.231,0.567-0.903,0.693
			c-0.672,0.126-2.772,0.273-4.032,0.273c-1.533,0-2.688-0.168-3.57-0.483c-1.407-0.525-2.289-1.722-2.289-3.108
			c0-1.218,0.672-2.373,2.058-3.528c0.63-0.546,1.323-1.008,2.562-1.68c-0.462,0-0.651-0.063-1.008-0.315
			c-0.315-0.231-0.504-0.693-0.609-1.596c-0.063-0.504-0.084-0.966-0.147-2.541c-0.063-1.785-0.084-2.1-0.252-2.415
			c-0.231-0.399-0.63-0.609-1.512-0.756C51.198,107.171,51.366,107.108,51.786,107.108z"/>
		<path d="M45.255,140.519c1.575-1.701,2.541-2.961,3.423-4.41c0.819-1.386,1.407-2.646,1.701-3.654
			c0.756,0.252,1.869,0.651,2.1,0.756c0.084,0.042,0.168,0.126,0.168,0.189c0,0.168-0.294,0.273-0.84,0.273
			c-0.021,0-0.084,0-0.147-0.021c-0.756,1.218-1.113,1.722-1.869,2.688c1.323,0.252,1.617,0.357,1.617,0.525
			c0,0.189-0.168,0.273-0.819,0.441v3.465c0,1.554,0,1.554,0,4.998c-0.063,0.252-0.189,0.294-0.777,0.315
			c-0.168,0-0.273,0.021-0.336,0.021c-0.042,0-0.063,0-0.063,0c-0.231,0-0.336-0.084-0.336-0.273
			c0.084-4.347,0.084-4.347,0.084-5.061v-3.612c-1.428,1.743-2.268,2.52-3.717,3.612L45.255,140.519z M56.7,129.725v-1.323
			c0-0.588,0-0.714-0.042-1.239c2.247,0.315,2.247,0.315,2.247,0.504s-0.252,0.315-0.84,0.441c0,0.651,0,1.197,0,1.617h2.793
			c0.588-0.651,0.798-0.861,1.365-1.491c0.882,0.714,1.155,0.945,2.016,1.701c0.042,0.042,0.063,0.084,0.063,0.126
			c0,0.084-0.105,0.147-0.189,0.147h-6.048c0,1.113,0,1.113,0.021,1.911c-0.021,0.147-0.063,0.231-0.147,0.273
			c-0.168,0.063-0.546,0.105-0.903,0.105c-0.252,0-0.336-0.063-0.357-0.273c0.021-0.903,0.021-0.903,0.021-2.016h-4.221
			c0,1.176,0,1.176,0,1.911c-0.042,0.231-0.168,0.273-0.714,0.294c-0.105,0-0.21,0.021-0.294,0.021c-0.021,0-0.042,0-0.042,0
			c-0.231,0-0.336-0.084-0.357-0.273c0.042-0.777,0.042-0.777,0.042-1.953h-3.696c-0.672,0-1.26,0.063-1.764,0.168l-0.126-0.861
			c0.861,0.168,1.176,0.21,1.89,0.21h3.696c0-0.168,0-0.21,0-0.315c0-0.924-0.021-1.806-0.063-2.289
			c2.289,0.273,2.289,0.273,2.289,0.483c0,0.189-0.063,0.21-0.861,0.504v1.617H56.7z M56.511,139.133
			c0.84-0.63,1.386-1.113,2.268-2.037c1.386-1.449,2.1-2.373,2.583-3.318c1.995,1.134,2.016,1.155,2.016,1.323
			c0,0.105-0.168,0.21-0.357,0.21s-0.378-0.021-0.609-0.042c-2.016,1.932-3.906,3.318-5.901,4.347v4.494
			c0,0.105,0.126,0.168,0.336,0.189c0.294,0.042,2.373,0.105,2.898,0.105c0.714,0,1.827-0.063,2.016-0.126
			c0.231-0.063,0.294-0.168,0.525-0.777c0.336-0.903,0.609-1.785,1.071-3.486h0.273l-0.273,3.36
			c-0.021,0.336-0.021,0.504-0.021,0.525c0,0.147,0.042,0.189,0.336,0.294c0.336,0.126,0.462,0.273,0.462,0.525
			c0,0.357-0.252,0.588-0.819,0.714c-0.462,0.084-2.121,0.168-3.801,0.168c-2.583,0-3.402-0.063-3.864-0.315
			c-0.399-0.21-0.546-0.525-0.567-1.197c0.021-3.444,0.021-3.444,0.021-3.906v-5.376c0-0.63-0.042-1.575-0.105-2.121
			c2.142,0.315,2.352,0.357,2.352,0.525c0,0.189-0.294,0.336-0.84,0.462V139.133z"/>
	</g>
</g>
<g>
	<rect x="4.445" y="21.233" fill="none" stroke="#008CD6" stroke-width="0.5" width="21" height="126.003"/>
	<line fill="none" stroke="#008CD6" stroke-width="0.5" x1="4.445" y1="42.233" x2="25.445" y2="42.233"/>
	<line fill="none" stroke="#008CD6" stroke-width="0.5" x1="4.445" y1="63.233" x2="25.445" y2="63.233"/>
	<line fill="none" stroke="#008CD6" stroke-width="0.5" x1="4.445" y1="84.233" x2="25.445" y2="84.233"/>
	<line fill="none" stroke="#008CD6" stroke-width="0.5" x1="4.445" y1="105.233" x2="25.445" y2="105.233"/>
	<line fill="none" stroke="#008CD6" stroke-width="0.5" x1="4.445" y1="126.233" x2="25.445" y2="126.233"/>
</g>
<polyline fill="none" stroke="#008CD6" stroke-width="0.5" points="25.445,26.483 35.945,26.483 35.945,36.983 25.445,36.983 "/>
<polyline fill="none" stroke="#008CD6" stroke-width="0.5" points="25.445,47.483 35.945,47.483 35.945,57.983 25.445,57.983 "/>
<polyline fill="none" stroke="#008CD6" stroke-width="0.5" points="25.445,89.483 35.945,89.483 35.945,99.983 25.445,99.983 "/>
<g>
	<polyline fill="none" stroke="#008CD6" stroke-width="0.5" points="25.445,126.233 35.945,126.233 35.945,147.229 25.445,147.229 	
		"/>
	<line fill="none" stroke="#008CD6" stroke-width="0.5" x1="25.445" y1="136.733" x2="35.945" y2="136.733"/>
</g>
<g>
	<line fill="none" stroke="#008CD6" stroke-width="0.5" x1="14.545" y1="21.098" x2="14.545" y2="11.363"/>
	<polyline fill="none" stroke="#008CD6" stroke-width="0.5" points="17.45,16.067 14.545,21.098 11.64,16.067 	"/>
</g>
<g>
	<line fill="none" stroke="#008CD6" stroke-width="0.5" x1="30.67" y1="26.302" x2="30.67" y2="11.363"/>
	<polyline fill="none" stroke="#008CD6" stroke-width="0.5" points="33.575,21.271 30.67,26.302 27.765,21.271 	"/>
</g>
<g>
	<path fill="#008CD6" d="M12.655,2.76c-0.18-0.516-0.312-0.768-0.564-1.056c-0.48-0.564-1.2-0.864-2.076-0.864
		c-1.944,0-3.168,1.488-3.168,3.876c0,2.376,1.236,3.888,3.168,3.888c0.948,0,1.752-0.36,2.244-1.008
		c0.252-0.348,0.372-0.648,0.48-1.2l0.996,0.24c-0.204,0.708-0.36,1.044-0.648,1.428c-0.672,0.9-1.764,1.392-3.108,1.392
		c-1.152,0-2.124-0.36-2.808-1.056c-0.84-0.84-1.296-2.148-1.296-3.648c0-1.548,0.48-2.856,1.368-3.732C7.939,0.348,8.851,0,9.991,0
		c1.128,0,2.04,0.324,2.688,0.972c0.42,0.408,0.648,0.768,0.936,1.512L12.655,2.76z"/>
	<path fill="#008CD6" d="M15.175,9.288c0.06-0.432,0.084-0.756,0.084-1.356V1.524c0-0.6-0.024-0.912-0.084-1.356h1.068
		c-0.072,0.444-0.096,0.756-0.096,1.368v2.028c0,0.192,0,0.288-0.036,0.6c0.24-0.396,0.372-0.576,0.66-0.816
		c0.516-0.444,1.068-0.648,1.8-0.648c1.404,0,2.244,0.828,2.244,2.232v3.012c0,0.552,0.024,0.9,0.084,1.344h-1.08
		c0.06-0.396,0.084-0.756,0.084-1.356V5.1c0-1.044-0.516-1.608-1.452-1.608c-0.672,0-1.224,0.288-1.692,0.876
		c-0.336,0.432-0.492,0.756-0.6,1.26v2.304c0,0.528,0.024,0.888,0.084,1.356H15.175z"/>
	<path fill="#008CD6" d="M26.851,8.436c-0.468,0.42-0.696,0.576-1.104,0.732c-0.408,0.156-0.84,0.24-1.248,0.24
		c-1.32,0-2.124-0.684-2.124-1.824c0-0.96,0.6-1.656,1.716-1.968c0.708-0.204,1.284-0.276,2.76-0.312V4.608
		c0-0.816-0.516-1.236-1.512-1.236c-0.66,0-1.152,0.168-1.488,0.516c-0.156,0.168-0.252,0.336-0.372,0.696L22.542,4.38
		c0.216-0.552,0.372-0.804,0.672-1.068c0.492-0.456,1.212-0.684,2.112-0.684c1.584,0,2.4,0.672,2.4,1.968v3.372
		c0,0.54,0.024,0.84,0.096,1.32h-0.972V8.436z M26.851,6.012c-1.428,0.036-2.112,0.12-2.652,0.348
		c-0.612,0.252-0.912,0.66-0.912,1.236c0,0.66,0.492,1.08,1.272,1.08c0.696,0,1.452-0.336,1.92-0.852
		c0.276-0.3,0.372-0.552,0.372-1.032V6.012z"/>
	<path fill="#008CD6" d="M33.367,3.744c-0.456-0.144-0.672-0.18-0.972-0.18c-0.612,0-1.116,0.252-1.476,0.732
		c-0.288,0.372-0.396,0.66-0.444,1.2v2.448c0,0.54,0.024,0.876,0.084,1.344h-1.08c0.06-0.552,0.084-0.864,0.084-1.356V4.176
		c0-0.6-0.024-0.924-0.084-1.356h0.996v0.684c0,0.096,0,0.276-0.012,0.36c0.228-0.372,0.408-0.564,0.66-0.732
		c0.456-0.3,0.864-0.42,1.44-0.42c0.36,0,0.564,0.024,1.068,0.108L33.367,3.744z"/>
	<path fill="#008CD6" d="M38.91,8.436c-0.468,0.42-0.696,0.576-1.104,0.732c-0.408,0.156-0.84,0.24-1.248,0.24
		c-1.32,0-2.124-0.684-2.124-1.824c0-0.96,0.6-1.656,1.716-1.968c0.708-0.204,1.284-0.276,2.76-0.312V4.608
		c0-0.816-0.516-1.236-1.512-1.236c-0.66,0-1.152,0.168-1.488,0.516c-0.156,0.168-0.252,0.336-0.372,0.696L34.602,4.38
		c0.216-0.552,0.372-0.804,0.672-1.068c0.492-0.456,1.212-0.684,2.112-0.684c1.584,0,2.4,0.672,2.4,1.968v3.372
		c0,0.54,0.024,0.84,0.096,1.32H38.91V8.436z M38.91,6.012c-1.428,0.036-2.112,0.12-2.652,0.348
		c-0.612,0.252-0.912,0.66-0.912,1.236c0,0.66,0.492,1.08,1.272,1.08c0.696,0,1.452-0.336,1.92-0.852
		c0.276-0.3,0.372-0.552,0.372-1.032V6.012z"/>
	<path fill="#008CD6" d="M46.134,4.8c-0.348-0.936-0.924-1.38-1.812-1.38c-1.32,0-2.16,1.032-2.16,2.64
		c0,1.584,0.864,2.592,2.208,2.592c0.684,0,1.248-0.276,1.56-0.768c0.12-0.18,0.18-0.324,0.264-0.612l0.9,0.24
		c-0.168,0.432-0.288,0.66-0.492,0.924c-0.528,0.66-1.296,1.008-2.268,1.008c-1.884,0-3.096-1.308-3.096-3.36
		c0-2.076,1.2-3.432,3.036-3.432c0.996,0,1.8,0.384,2.316,1.104c0.168,0.228,0.276,0.42,0.42,0.768L46.134,4.8z"/>
	<path fill="#008CD6" d="M50.31,1.032c-0.06,0.384-0.084,0.816-0.084,1.332V2.82h0.576c0.552,0,0.804-0.012,1.224-0.072V3.66
		c-0.384-0.06-0.684-0.072-1.224-0.072h-0.576v4.176c0,0.348,0.048,0.528,0.156,0.636c0.132,0.132,0.336,0.204,0.588,0.204
		c0.312,0,0.552-0.072,0.948-0.312l0.264,0.84c-0.492,0.204-0.864,0.276-1.356,0.276c-0.528,0-0.936-0.132-1.176-0.372
		c-0.24-0.24-0.336-0.588-0.336-1.152V3.588h-0.48c-0.408,0-0.684,0.024-1.08,0.072V2.748c0.336,0.06,0.576,0.072,1.08,0.072h0.48
		V2.364c0-0.48-0.024-0.936-0.084-1.332H50.31z"/>
	<path fill="#008CD6" d="M53.79,6.192c0.036,0.804,0.156,1.248,0.48,1.68c0.384,0.528,0.972,0.816,1.692,0.816
		c0.972,0,1.644-0.48,1.98-1.404l0.84,0.336c-0.228,0.504-0.384,0.72-0.66,0.996c-0.564,0.552-1.296,0.84-2.172,0.84
		c-1.884,0-3.072-1.32-3.072-3.396c0-2.052,1.176-3.396,2.976-3.396c1.548,0,2.664,0.996,2.904,2.604
		c0.012,0.132,0.06,0.6,0.084,0.924H53.79z M57.882,5.436C57.81,4.764,57.63,4.332,57.246,3.96c-0.372-0.36-0.84-0.54-1.416-0.54
		c-0.732,0-1.344,0.372-1.704,1.044c-0.168,0.3-0.228,0.516-0.3,0.972H57.882z"/>
	<path fill="#008CD6" d="M64.123,3.744c-0.456-0.144-0.672-0.18-0.972-0.18c-0.612,0-1.116,0.252-1.476,0.732
		c-0.288,0.372-0.396,0.66-0.444,1.2v2.448c0,0.54,0.024,0.876,0.084,1.344h-1.08c0.06-0.552,0.084-0.864,0.084-1.356V4.176
		c0-0.6-0.024-0.924-0.084-1.356h0.996v0.684c0,0.096,0,0.276-0.012,0.36c0.228-0.372,0.408-0.564,0.66-0.732
		c0.456-0.3,0.864-0.42,1.44-0.42c0.36,0,0.564,0.024,1.068,0.108L64.123,3.744z"/>
	<path fill="#008CD6" d="M69.762,3.588c-0.42,0-0.72,0.024-1.092,0.072V2.748c0.324,0.048,0.612,0.072,1.092,0.072h0.492V2.112
		c0-0.732,0.096-1.116,0.372-1.464c0.288-0.372,0.84-0.588,1.512-0.588c0.468,0,0.84,0.072,1.272,0.24l-0.252,0.804
		c-0.324-0.192-0.624-0.276-0.996-0.276c-0.384,0-0.66,0.108-0.816,0.324c-0.132,0.192-0.18,0.444-0.18,1.008v0.66h0.6
		c0.516,0,0.828-0.012,1.272-0.072V3.66c-0.408-0.06-0.684-0.072-1.272-0.072h-0.6v4.356c0,0.564,0.024,0.9,0.084,1.344h-1.08
		c0.06-0.444,0.084-0.852,0.084-1.356V3.588H69.762z"/>
	<path fill="#008CD6" d="M78.282,3.744c-0.456-0.144-0.672-0.18-0.972-0.18c-0.612,0-1.116,0.252-1.476,0.732
		c-0.288,0.372-0.396,0.66-0.444,1.2v2.448c0,0.54,0.024,0.876,0.084,1.344h-1.08c0.06-0.552,0.084-0.864,0.084-1.356V4.176
		c0-0.6-0.024-0.924-0.084-1.356h0.996v0.684c0,0.096,0,0.276-0.012,0.36c0.228-0.372,0.408-0.564,0.66-0.732
		c0.456-0.3,0.864-0.42,1.44-0.42c0.36,0,0.564,0.024,1.068,0.108L78.282,3.744z"/>
	<path fill="#008CD6" d="M83.826,8.436c-0.468,0.42-0.696,0.576-1.104,0.732c-0.408,0.156-0.84,0.24-1.248,0.24
		c-1.32,0-2.124-0.684-2.124-1.824c0-0.96,0.6-1.656,1.716-1.968c0.708-0.204,1.284-0.276,2.76-0.312V4.608
		c0-0.816-0.516-1.236-1.512-1.236c-0.66,0-1.152,0.168-1.488,0.516c-0.156,0.168-0.252,0.336-0.372,0.696L79.518,4.38
		c0.216-0.552,0.372-0.804,0.672-1.068c0.492-0.456,1.212-0.684,2.112-0.684c1.584,0,2.4,0.672,2.4,1.968v3.372
		c0,0.54,0.024,0.84,0.096,1.32h-0.972V8.436z M83.826,6.012c-1.428,0.036-2.112,0.12-2.652,0.348
		c-0.612,0.252-0.912,0.66-0.912,1.236c0,0.66,0.492,1.08,1.272,1.08c0.696,0,1.452-0.336,1.92-0.852
		c0.276-0.3,0.372-0.552,0.372-1.032V6.012z"/>
	<path fill="#008CD6" d="M86.454,9.288c0.06-0.432,0.084-0.792,0.084-1.356V4.176c0-0.6-0.024-0.924-0.084-1.356h0.972v0.66
		c0,0.06-0.012,0.204-0.024,0.432c0.108-0.204,0.216-0.348,0.456-0.6c0.408-0.408,0.996-0.624,1.692-0.624
		c0.684,0,1.188,0.204,1.548,0.612c0.18,0.192,0.252,0.336,0.372,0.696c0.564-0.924,1.212-1.308,2.22-1.308
		c0.792,0,1.392,0.252,1.752,0.732c0.288,0.384,0.408,0.852,0.408,1.56v2.964c0,0.6,0.024,0.924,0.084,1.344h-1.08
		c0.072-0.444,0.084-0.72,0.084-1.356V5.1c0-1.14-0.42-1.632-1.38-1.632c-0.6,0-1.164,0.324-1.512,0.876
		C91.818,4.692,91.65,5.22,91.65,5.58v2.364c0,0.6,0.024,0.936,0.084,1.344h-1.08c0.06-0.432,0.084-0.744,0.084-1.356V5.1
		c0-1.056-0.48-1.632-1.344-1.632c-0.624,0-1.2,0.336-1.572,0.912c-0.216,0.324-0.396,0.888-0.396,1.2v2.352
		c0,0.552,0.024,0.876,0.084,1.356H86.454z"/>
	<path fill="#008CD6" d="M98.238,6.192c0.036,0.804,0.156,1.248,0.48,1.68c0.384,0.528,0.972,0.816,1.692,0.816
		c0.972,0,1.644-0.48,1.98-1.404l0.84,0.336c-0.228,0.504-0.384,0.72-0.66,0.996c-0.564,0.552-1.296,0.84-2.172,0.84
		c-1.884,0-3.072-1.32-3.072-3.396c0-2.052,1.176-3.396,2.976-3.396c1.548,0,2.664,0.996,2.904,2.604
		c0.012,0.132,0.06,0.6,0.084,0.924H98.238z M102.33,5.436c-0.072-0.672-0.252-1.104-0.636-1.476c-0.372-0.36-0.84-0.54-1.416-0.54
		c-0.732,0-1.344,0.372-1.704,1.044c-0.168,0.3-0.228,0.516-0.3,0.972H102.33z"/>
</g>
<g>
	<line fill="none" stroke="#008CD6" stroke-width="0.5" x1="25.445" y1="147.229" x2="25.445" y2="156.964"/>
	<polyline fill="none" stroke="#008CD6" stroke-width="0.5" points="22.541,152.26 25.445,147.229 28.351,152.26 	"/>
</g>
<g>
	<path fill="#008CD6" d="M6.78,159.136c-0.18-0.516-0.312-0.768-0.564-1.056c-0.48-0.564-1.2-0.864-2.076-0.864
		c-1.944,0-3.168,1.488-3.168,3.876c0,2.376,1.236,3.888,3.168,3.888c0.948,0,1.752-0.36,2.244-1.008
		c0.252-0.348,0.372-0.648,0.48-1.2l0.996,0.24c-0.204,0.708-0.36,1.044-0.648,1.428c-0.672,0.9-1.764,1.392-3.108,1.392
		c-1.152,0-2.124-0.36-2.808-1.056C0.456,163.937,0,162.628,0,161.128c0-1.548,0.48-2.856,1.368-3.732
		c0.696-0.672,1.608-1.02,2.748-1.02c1.128,0,2.04,0.324,2.688,0.972c0.42,0.408,0.648,0.768,0.936,1.512L6.78,159.136z"/>
	<path fill="#008CD6" d="M9.3,165.665c0.06-0.432,0.084-0.756,0.084-1.356V157.9c0-0.6-0.024-0.912-0.084-1.356h1.068
		c-0.072,0.444-0.096,0.756-0.096,1.368v2.028c0,0.192,0,0.288-0.036,0.6c0.24-0.396,0.372-0.576,0.66-0.816
		c0.516-0.444,1.068-0.648,1.8-0.648c1.404,0,2.244,0.828,2.244,2.232v3.012c0,0.552,0.024,0.9,0.084,1.344h-1.08
		c0.06-0.396,0.084-0.756,0.084-1.356v-2.832c0-1.044-0.516-1.608-1.452-1.608c-0.672,0-1.224,0.288-1.692,0.876
		c-0.336,0.432-0.492,0.756-0.6,1.26v2.304c0,0.528,0.024,0.888,0.084,1.356H9.3z"/>
	<path fill="#008CD6" d="M20.976,164.813c-0.468,0.42-0.696,0.576-1.104,0.732c-0.408,0.156-0.84,0.24-1.248,0.24
		c-1.32,0-2.124-0.684-2.124-1.824c0-0.96,0.6-1.656,1.716-1.968c0.708-0.204,1.284-0.276,2.76-0.312v-0.696
		c0-0.816-0.516-1.236-1.512-1.236c-0.66,0-1.152,0.168-1.488,0.516c-0.156,0.168-0.252,0.336-0.372,0.696l-0.936-0.204
		c0.216-0.552,0.372-0.804,0.672-1.068c0.492-0.456,1.212-0.684,2.112-0.684c1.584,0,2.4,0.672,2.4,1.968v3.372
		c0,0.54,0.024,0.84,0.096,1.32h-0.972V164.813z M20.976,162.388c-1.428,0.036-2.112,0.12-2.652,0.348
		c-0.612,0.252-0.912,0.66-0.912,1.236c0,0.66,0.492,1.08,1.272,1.08c0.696,0,1.452-0.336,1.92-0.852
		c0.276-0.3,0.372-0.552,0.372-1.032V162.388z"/>
	<path fill="#008CD6" d="M27.492,160.12c-0.456-0.144-0.672-0.18-0.972-0.18c-0.612,0-1.116,0.252-1.476,0.732
		c-0.288,0.372-0.396,0.66-0.444,1.2v2.448c0,0.54,0.024,0.876,0.084,1.344h-1.08c0.06-0.552,0.084-0.864,0.084-1.356v-3.756
		c0-0.6-0.024-0.924-0.084-1.356H24.6v0.684c0,0.096,0,0.276-0.012,0.36c0.228-0.372,0.408-0.564,0.66-0.732
		c0.456-0.3,0.864-0.42,1.44-0.42c0.36,0,0.564,0.024,1.068,0.108L27.492,160.12z"/>
	<path fill="#008CD6" d="M33.035,164.813c-0.468,0.42-0.696,0.576-1.104,0.732c-0.408,0.156-0.84,0.24-1.248,0.24
		c-1.32,0-2.124-0.684-2.124-1.824c0-0.96,0.6-1.656,1.716-1.968c0.708-0.204,1.284-0.276,2.76-0.312v-0.696
		c0-0.816-0.516-1.236-1.512-1.236c-0.66,0-1.152,0.168-1.488,0.516c-0.156,0.168-0.252,0.336-0.372,0.696l-0.936-0.204
		c0.216-0.552,0.372-0.804,0.672-1.068c0.492-0.456,1.212-0.684,2.112-0.684c1.584,0,2.4,0.672,2.4,1.968v3.372
		c0,0.54,0.024,0.84,0.096,1.32h-0.972V164.813z M33.035,162.388c-1.428,0.036-2.112,0.12-2.652,0.348
		c-0.612,0.252-0.912,0.66-0.912,1.236c0,0.66,0.492,1.08,1.272,1.08c0.696,0,1.452-0.336,1.92-0.852
		c0.276-0.3,0.372-0.552,0.372-1.032V162.388z"/>
	<path fill="#008CD6" d="M40.259,161.176c-0.348-0.936-0.924-1.38-1.812-1.38c-1.32,0-2.16,1.032-2.16,2.64
		c0,1.584,0.864,2.592,2.208,2.592c0.684,0,1.248-0.276,1.56-0.768c0.12-0.18,0.18-0.324,0.264-0.612l0.9,0.24
		c-0.168,0.432-0.288,0.66-0.492,0.924c-0.528,0.66-1.296,1.008-2.268,1.008c-1.884,0-3.096-1.308-3.096-3.36
		c0-2.076,1.2-3.432,3.036-3.432c0.996,0,1.8,0.384,2.316,1.104c0.168,0.228,0.276,0.42,0.42,0.768L40.259,161.176z"/>
	<path fill="#008CD6" d="M44.435,157.408c-0.06,0.384-0.084,0.816-0.084,1.332v0.456h0.576c0.552,0,0.804-0.012,1.224-0.072v0.912
		c-0.384-0.06-0.684-0.072-1.224-0.072h-0.576v4.176c0,0.348,0.048,0.528,0.156,0.636c0.132,0.132,0.336,0.204,0.588,0.204
		c0.312,0,0.552-0.072,0.948-0.312l0.264,0.84c-0.492,0.204-0.864,0.276-1.356,0.276c-0.528,0-0.936-0.132-1.176-0.372
		c-0.24-0.24-0.336-0.588-0.336-1.152v-4.296h-0.48c-0.408,0-0.684,0.024-1.08,0.072v-0.912c0.336,0.06,0.576,0.072,1.08,0.072h0.48
		v-0.456c0-0.48-0.024-0.936-0.084-1.332H44.435z"/>
	<path fill="#008CD6" d="M47.915,162.568c0.036,0.804,0.156,1.248,0.48,1.68c0.384,0.528,0.972,0.816,1.692,0.816
		c0.972,0,1.644-0.48,1.98-1.404l0.84,0.336c-0.228,0.504-0.384,0.72-0.66,0.996c-0.564,0.552-1.296,0.84-2.172,0.84
		c-1.884,0-3.072-1.32-3.072-3.396c0-2.052,1.176-3.396,2.976-3.396c1.548,0,2.664,0.996,2.904,2.604
		c0.012,0.132,0.06,0.6,0.084,0.924H47.915z M52.007,161.813c-0.072-0.672-0.252-1.104-0.636-1.476
		c-0.372-0.36-0.84-0.54-1.416-0.54c-0.732,0-1.344,0.372-1.704,1.044c-0.168,0.3-0.228,0.516-0.3,0.972H52.007z"/>
	<path fill="#008CD6" d="M58.248,160.12c-0.456-0.144-0.672-0.18-0.972-0.18c-0.612,0-1.116,0.252-1.476,0.732
		c-0.288,0.372-0.396,0.66-0.444,1.2v2.448c0,0.54,0.024,0.876,0.084,1.344h-1.08c0.06-0.552,0.084-0.864,0.084-1.356v-3.756
		c0-0.6-0.024-0.924-0.084-1.356h0.996v0.684c0,0.096,0,0.276-0.012,0.36c0.228-0.372,0.408-0.564,0.66-0.732
		c0.456-0.3,0.864-0.42,1.44-0.42c0.36,0,0.564,0.024,1.068,0.108L58.248,160.12z"/>
	<path fill="#008CD6" d="M63.887,159.964c-0.42,0-0.72,0.024-1.092,0.072v-0.912c0.324,0.048,0.612,0.072,1.092,0.072h0.492v-0.708
		c0-0.732,0.096-1.116,0.372-1.464c0.288-0.372,0.84-0.588,1.512-0.588c0.468,0,0.84,0.072,1.272,0.24l-0.252,0.804
		c-0.324-0.192-0.624-0.276-0.996-0.276c-0.384,0-0.66,0.108-0.816,0.324c-0.132,0.192-0.18,0.444-0.18,1.008v0.66h0.6
		c0.516,0,0.828-0.012,1.272-0.072v0.912c-0.408-0.06-0.684-0.072-1.272-0.072h-0.6v4.356c0,0.564,0.024,0.9,0.084,1.344h-1.08
		c0.06-0.444,0.084-0.852,0.084-1.356v-4.344H63.887z"/>
	<path fill="#008CD6" d="M72.407,160.12c-0.456-0.144-0.672-0.18-0.972-0.18c-0.612,0-1.116,0.252-1.476,0.732
		c-0.288,0.372-0.396,0.66-0.444,1.2v2.448c0,0.54,0.024,0.876,0.084,1.344h-1.08c0.06-0.552,0.084-0.864,0.084-1.356v-3.756
		c0-0.6-0.024-0.924-0.084-1.356h0.996v0.684c0,0.096,0,0.276-0.012,0.36c0.228-0.372,0.408-0.564,0.66-0.732
		c0.456-0.3,0.864-0.42,1.44-0.42c0.36,0,0.564,0.024,1.068,0.108L72.407,160.12z"/>
	<path fill="#008CD6" d="M77.951,164.813c-0.468,0.42-0.696,0.576-1.104,0.732c-0.408,0.156-0.84,0.24-1.248,0.24
		c-1.32,0-2.124-0.684-2.124-1.824c0-0.96,0.6-1.656,1.716-1.968c0.708-0.204,1.284-0.276,2.76-0.312v-0.696
		c0-0.816-0.516-1.236-1.512-1.236c-0.66,0-1.152,0.168-1.488,0.516c-0.156,0.168-0.252,0.336-0.372,0.696l-0.936-0.204
		c0.216-0.552,0.372-0.804,0.672-1.068c0.492-0.456,1.212-0.684,2.112-0.684c1.584,0,2.4,0.672,2.4,1.968v3.372
		c0,0.54,0.024,0.84,0.096,1.32h-0.972V164.813z M77.951,162.388c-1.428,0.036-2.112,0.12-2.652,0.348
		c-0.612,0.252-0.912,0.66-0.912,1.236c0,0.66,0.492,1.08,1.272,1.08c0.696,0,1.452-0.336,1.92-0.852
		c0.276-0.3,0.372-0.552,0.372-1.032V162.388z"/>
	<path fill="#008CD6" d="M80.579,165.665c0.06-0.432,0.084-0.792,0.084-1.356v-3.756c0-0.6-0.024-0.924-0.084-1.356h0.972v0.66
		c0,0.06-0.012,0.204-0.024,0.432c0.108-0.204,0.216-0.348,0.456-0.6c0.408-0.408,0.996-0.624,1.692-0.624
		c0.684,0,1.188,0.204,1.548,0.612c0.18,0.192,0.252,0.336,0.372,0.696c0.564-0.924,1.212-1.308,2.22-1.308
		c0.792,0,1.392,0.252,1.752,0.732c0.288,0.384,0.408,0.852,0.408,1.56v2.964c0,0.6,0.024,0.924,0.084,1.344h-1.08
		c0.072-0.444,0.084-0.72,0.084-1.356v-2.832c0-1.14-0.42-1.632-1.38-1.632c-0.6,0-1.164,0.324-1.512,0.876
		c-0.228,0.348-0.396,0.876-0.396,1.236v2.364c0,0.6,0.024,0.936,0.084,1.344h-1.08c0.06-0.432,0.084-0.744,0.084-1.356v-2.832
		c0-1.056-0.48-1.632-1.344-1.632c-0.624,0-1.2,0.336-1.572,0.912c-0.216,0.324-0.396,0.888-0.396,1.2v2.352
		c0,0.552,0.024,0.876,0.084,1.356H80.579z"/>
	<path fill="#008CD6" d="M92.363,162.568c0.036,0.804,0.156,1.248,0.48,1.68c0.384,0.528,0.972,0.816,1.692,0.816
		c0.972,0,1.644-0.48,1.98-1.404l0.84,0.336c-0.228,0.504-0.384,0.72-0.66,0.996c-0.564,0.552-1.296,0.84-2.172,0.84
		c-1.884,0-3.072-1.32-3.072-3.396c0-2.052,1.176-3.396,2.976-3.396c1.548,0,2.664,0.996,2.904,2.604
		c0.012,0.132,0.06,0.6,0.084,0.924H92.363z M96.455,161.813c-0.072-0.672-0.252-1.104-0.636-1.476
		c-0.372-0.36-0.84-0.54-1.416-0.54c-0.732,0-1.344,0.372-1.704,1.044c-0.168,0.3-0.228,0.516-0.3,0.972H96.455z"/>
	<path fill="#008CD6" d="M99.443,163.744c0.084,0.444,0.18,0.66,0.42,0.876c0.3,0.276,0.78,0.42,1.392,0.42
		c1.044,0,1.704-0.444,1.704-1.152c0-0.336-0.12-0.588-0.372-0.744c-0.288-0.18-0.528-0.252-1.416-0.432
		c-0.96-0.204-1.368-0.348-1.776-0.624c-0.42-0.288-0.648-0.732-0.648-1.26c0-0.432,0.18-0.84,0.516-1.164
		c0.42-0.408,1.068-0.624,1.872-0.624c0.816,0,1.452,0.192,1.884,0.576c0.312,0.264,0.48,0.54,0.636,1.092l-0.948,0.156
		c-0.072-0.324-0.132-0.468-0.3-0.636c-0.276-0.3-0.708-0.456-1.248-0.456c-0.876,0-1.5,0.444-1.5,1.08
		c0,0.276,0.144,0.516,0.408,0.66c0.276,0.156,0.588,0.252,1.332,0.408c1.164,0.264,1.548,0.408,1.908,0.684
		c0.372,0.3,0.576,0.756,0.576,1.248c0,1.2-1.02,1.944-2.664,1.944c-1.092,0-1.932-0.324-2.376-0.936
		c-0.18-0.252-0.264-0.456-0.384-0.948L99.443,163.744z"/>
	<path fill="#008CD6" d="M4.5,178.313c-0.468,0.42-0.696,0.576-1.104,0.732c-0.408,0.156-0.84,0.24-1.248,0.24
		c-1.32,0-2.124-0.684-2.124-1.824c0-0.96,0.6-1.656,1.716-1.968c0.708-0.204,1.284-0.276,2.76-0.312v-0.696
		c0-0.816-0.516-1.236-1.512-1.236c-0.66,0-1.152,0.168-1.488,0.516c-0.156,0.168-0.252,0.336-0.372,0.696l-0.936-0.204
		c0.216-0.552,0.372-0.804,0.672-1.068c0.492-0.456,1.212-0.684,2.112-0.684c1.584,0,2.4,0.672,2.4,1.968v3.372
		c0,0.54,0.024,0.84,0.096,1.32H4.5V178.313z M4.5,175.888c-1.428,0.036-2.112,0.12-2.652,0.348
		c-0.612,0.252-0.912,0.66-0.912,1.236c0,0.66,0.492,1.08,1.272,1.08c0.696,0,1.452-0.336,1.92-0.852
		c0.276-0.3,0.372-0.552,0.372-1.032V175.888z"/>
	<path fill="#008CD6" d="M11.016,173.62c-0.456-0.144-0.672-0.18-0.972-0.18c-0.612,0-1.116,0.252-1.476,0.732
		c-0.288,0.372-0.396,0.66-0.444,1.2v2.448c0,0.54,0.024,0.876,0.084,1.344h-1.08c0.06-0.552,0.084-0.864,0.084-1.356v-3.756
		c0-0.6-0.024-0.924-0.084-1.356h0.996v0.684c0,0.096,0,0.276-0.012,0.36c0.228-0.372,0.408-0.564,0.66-0.732
		c0.456-0.3,0.864-0.42,1.44-0.42c0.36,0,0.564,0.024,1.068,0.108L11.016,173.62z"/>
	<path fill="#008CD6" d="M12.899,176.068c0.036,0.804,0.156,1.248,0.48,1.68c0.384,0.528,0.972,0.816,1.692,0.816
		c0.972,0,1.644-0.48,1.98-1.404l0.84,0.336c-0.228,0.504-0.384,0.72-0.66,0.996c-0.564,0.552-1.296,0.84-2.172,0.84
		c-1.884,0-3.072-1.32-3.072-3.396c0-2.052,1.176-3.396,2.976-3.396c1.548,0,2.664,0.996,2.904,2.604
		c0.012,0.132,0.06,0.6,0.084,0.924H12.899z M16.992,175.313c-0.072-0.672-0.252-1.104-0.636-1.476
		c-0.372-0.36-0.84-0.54-1.416-0.54c-0.732,0-1.344,0.372-1.704,1.044c-0.168,0.3-0.228,0.516-0.3,0.972H16.992z"/>
	<path fill="#008CD6" d="M23.976,177.244c0.084,0.444,0.18,0.66,0.42,0.876c0.3,0.276,0.78,0.42,1.392,0.42
		c1.044,0,1.704-0.444,1.704-1.152c0-0.336-0.12-0.588-0.372-0.744c-0.288-0.18-0.528-0.252-1.416-0.432
		c-0.96-0.204-1.368-0.348-1.776-0.624c-0.42-0.288-0.648-0.732-0.648-1.26c0-0.432,0.18-0.84,0.516-1.164
		c0.42-0.408,1.068-0.624,1.872-0.624c0.816,0,1.452,0.192,1.884,0.576c0.312,0.264,0.48,0.54,0.636,1.092l-0.948,0.156
		c-0.072-0.324-0.132-0.468-0.3-0.636c-0.276-0.3-0.708-0.456-1.248-0.456c-0.876,0-1.5,0.444-1.5,1.08
		c0,0.276,0.144,0.516,0.408,0.66c0.276,0.156,0.588,0.252,1.332,0.408c1.164,0.264,1.548,0.408,1.908,0.684
		c0.372,0.3,0.576,0.756,0.576,1.248c0,1.2-1.02,1.944-2.664,1.944c-1.092,0-1.932-0.324-2.376-0.936
		c-0.18-0.252-0.264-0.456-0.384-0.948L23.976,177.244z"/>
	<path fill="#008CD6" d="M30.396,176.068c0.036,0.804,0.156,1.248,0.48,1.68c0.384,0.528,0.972,0.816,1.692,0.816
		c0.972,0,1.644-0.48,1.98-1.404l0.84,0.336c-0.228,0.504-0.384,0.72-0.66,0.996c-0.564,0.552-1.296,0.84-2.172,0.84
		c-1.884,0-3.072-1.32-3.072-3.396c0-2.052,1.176-3.396,2.976-3.396c1.548,0,2.664,0.996,2.904,2.604
		c0.012,0.132,0.06,0.6,0.084,0.924H30.396z M34.488,175.313c-0.072-0.672-0.252-1.104-0.636-1.476
		c-0.372-0.36-0.84-0.54-1.416-0.54c-0.732,0-1.344,0.372-1.704,1.044c-0.168,0.3-0.228,0.516-0.3,0.972H34.488z"/>
	<path fill="#008CD6" d="M38.676,170.908c-0.06,0.384-0.084,0.816-0.084,1.332v0.456h0.576c0.552,0,0.804-0.012,1.224-0.072v0.912
		c-0.384-0.06-0.684-0.072-1.224-0.072h-0.576v4.176c0,0.348,0.048,0.528,0.156,0.636c0.132,0.132,0.336,0.204,0.588,0.204
		c0.312,0,0.552-0.072,0.948-0.312l0.264,0.84c-0.492,0.204-0.864,0.276-1.356,0.276c-0.528,0-0.936-0.132-1.176-0.372
		c-0.24-0.24-0.336-0.588-0.336-1.152v-4.296H37.2c-0.408,0-0.684,0.024-1.08,0.072v-0.912c0.336,0.06,0.576,0.072,1.08,0.072h0.48
		v-0.456c0-0.48-0.024-0.936-0.084-1.332H38.676z"/>
	<path fill="#008CD6" d="M45.912,173.464c-0.42,0-0.72,0.024-1.092,0.072v-0.912c0.324,0.048,0.612,0.072,1.092,0.072h0.492v-0.708
		c0-0.732,0.096-1.116,0.372-1.464c0.288-0.372,0.84-0.588,1.512-0.588c0.468,0,0.84,0.072,1.272,0.24l-0.252,0.804
		c-0.324-0.192-0.624-0.276-0.996-0.276c-0.384,0-0.66,0.108-0.816,0.324c-0.132,0.192-0.18,0.444-0.18,1.008v0.66h0.6
		c0.516,0,0.828-0.012,1.272-0.072v0.912c-0.408-0.06-0.684-0.072-1.272-0.072h-0.6v4.356c0,0.564,0.024,0.9,0.084,1.344h-1.08
		c0.06-0.444,0.084-0.852,0.084-1.356v-4.344H45.912z"/>
	<path fill="#008CD6" d="M51.624,170.044c-0.06,0.432-0.084,0.756-0.084,1.356v6.42c0,0.54,0.024,0.864,0.084,1.344h-1.08
		c0.06-0.432,0.084-0.804,0.084-1.344v-6.432c0-0.588-0.024-0.912-0.084-1.344H51.624z"/>
	<path fill="#008CD6" d="M58.043,178.384c0-0.132,0-0.216,0.036-0.528c-0.6,0.984-1.344,1.428-2.424,1.428
		c-0.864,0-1.536-0.312-1.92-0.888c-0.216-0.348-0.336-0.816-0.336-1.392v-2.964c0-0.54-0.024-0.96-0.084-1.344h1.08
		c-0.06,0.42-0.084,0.828-0.084,1.356v2.796c0,1.068,0.516,1.668,1.452,1.668c0.684,0,1.248-0.3,1.728-0.948
		c0.312-0.42,0.444-0.72,0.552-1.2v-2.316c0-0.516-0.024-0.936-0.084-1.356h1.068c-0.06,0.42-0.084,0.804-0.084,1.356v3.756
		c0,0.54,0.024,0.876,0.096,1.356h-0.996V178.384z"/>
	<path fill="#008CD6" d="M61.379,177.244c0.084,0.444,0.18,0.66,0.42,0.876c0.3,0.276,0.78,0.42,1.392,0.42
		c1.044,0,1.704-0.444,1.704-1.152c0-0.336-0.12-0.588-0.372-0.744c-0.288-0.18-0.528-0.252-1.416-0.432
		c-0.96-0.204-1.368-0.348-1.776-0.624c-0.42-0.288-0.648-0.732-0.648-1.26c0-0.432,0.18-0.84,0.516-1.164
		c0.42-0.408,1.068-0.624,1.872-0.624c0.816,0,1.452,0.192,1.884,0.576c0.312,0.264,0.48,0.54,0.636,1.092l-0.948,0.156
		c-0.072-0.324-0.132-0.468-0.3-0.636c-0.276-0.3-0.708-0.456-1.248-0.456c-0.876,0-1.5,0.444-1.5,1.08
		c0,0.276,0.144,0.516,0.408,0.66c0.276,0.156,0.588,0.252,1.332,0.408c1.164,0.264,1.548,0.408,1.908,0.684
		c0.372,0.3,0.576,0.756,0.576,1.248c0,1.2-1.02,1.944-2.664,1.944c-1.092,0-1.932-0.324-2.376-0.936
		c-0.18-0.252-0.264-0.456-0.384-0.948L61.379,177.244z"/>
	<path fill="#008CD6" d="M67.188,179.165c0.06-0.432,0.084-0.756,0.084-1.356V171.4c0-0.6-0.024-0.912-0.084-1.356h1.068
		c-0.072,0.444-0.096,0.756-0.096,1.368v2.028c0,0.192,0,0.288-0.036,0.6c0.24-0.396,0.372-0.576,0.66-0.816
		c0.516-0.444,1.068-0.648,1.8-0.648c1.404,0,2.244,0.828,2.244,2.232v3.012c0,0.552,0.024,0.9,0.084,1.344h-1.08
		c0.06-0.396,0.084-0.756,0.084-1.356v-2.832c0-1.044-0.516-1.608-1.452-1.608c-0.672,0-1.224,0.288-1.692,0.876
		c-0.336,0.432-0.492,0.756-0.6,1.26v2.304c0,0.528,0.024,0.888,0.084,1.356H67.188z"/>
	<path fill="#008CD6" d="M4.5,191.813c-0.468,0.42-0.696,0.576-1.104,0.732c-0.408,0.156-0.84,0.24-1.248,0.24
		c-1.32,0-2.124-0.684-2.124-1.824c0-0.96,0.6-1.656,1.716-1.968c0.708-0.204,1.284-0.276,2.76-0.312v-0.696
		c0-0.816-0.516-1.236-1.512-1.236c-0.66,0-1.152,0.168-1.488,0.516c-0.156,0.168-0.252,0.336-0.372,0.696l-0.936-0.204
		c0.216-0.552,0.372-0.804,0.672-1.068c0.492-0.456,1.212-0.684,2.112-0.684c1.584,0,2.4,0.672,2.4,1.968v3.372
		c0,0.54,0.024,0.84,0.096,1.32H4.5V191.813z M4.5,189.388c-1.428,0.036-2.112,0.12-2.652,0.348
		c-0.612,0.252-0.912,0.66-0.912,1.236c0,0.66,0.492,1.08,1.272,1.08c0.696,0,1.452-0.336,1.92-0.852
		c0.276-0.3,0.372-0.552,0.372-1.032V189.388z"/>
	<path fill="#008CD6" d="M7.872,193.504c0.168,0.228,0.24,0.312,0.384,0.42c0.456,0.396,0.96,0.564,1.608,0.564
		c1.044,0,1.776-0.456,2.088-1.32c0.12-0.348,0.168-0.78,0.216-1.776c-0.18,0.324-0.312,0.48-0.516,0.66
		c-0.456,0.408-1.128,0.624-1.86,0.624c-1.812,0-2.964-1.26-2.964-3.264c0-2.04,1.176-3.336,3.036-3.336
		c1.044,0,1.812,0.42,2.304,1.26c-0.012-0.204-0.024-0.3-0.024-0.456v-0.684h0.96c-0.06,0.468-0.084,0.78-0.084,1.344v4.296
		c0,1.176-0.216,1.932-0.696,2.496c-0.504,0.588-1.404,0.912-2.496,0.912c-1.188,0-1.932-0.336-2.724-1.2L7.872,193.504z
		 M9.84,191.92c1.368,0,2.28-1.044,2.28-2.604c0-1.512-0.864-2.484-2.208-2.484c-1.332,0-2.148,0.984-2.148,2.58
		C7.764,190.972,8.556,191.92,9.84,191.92z"/>
	<path fill="#008CD6" d="M19.092,191.813c-0.468,0.42-0.696,0.576-1.104,0.732c-0.408,0.156-0.84,0.24-1.248,0.24
		c-1.32,0-2.124-0.684-2.124-1.824c0-0.96,0.6-1.656,1.716-1.968c0.708-0.204,1.284-0.276,2.76-0.312v-0.696
		c0-0.816-0.516-1.236-1.512-1.236c-0.66,0-1.152,0.168-1.488,0.516c-0.156,0.168-0.252,0.336-0.372,0.696l-0.936-0.204
		c0.216-0.552,0.372-0.804,0.672-1.068c0.492-0.456,1.212-0.684,2.112-0.684c1.584,0,2.4,0.672,2.4,1.968v3.372
		c0,0.54,0.024,0.84,0.096,1.32h-0.972V191.813z M19.092,189.388c-1.428,0.036-2.112,0.12-2.652,0.348
		c-0.612,0.252-0.912,0.66-0.912,1.236c0,0.66,0.492,1.08,1.272,1.08c0.696,0,1.452-0.336,1.92-0.852
		c0.276-0.3,0.372-0.552,0.372-1.032V189.388z"/>
	<path fill="#008CD6" d="M22.872,183.544v1.068h-1.164v-1.068H22.872z M22.824,186.196c-0.06,0.42-0.084,0.756-0.084,1.356v3.756
		c0,0.552,0.024,0.888,0.084,1.356h-1.08c0.06-0.516,0.084-0.852,0.084-1.356v-3.756c0-0.576-0.024-0.936-0.084-1.356H22.824z"/>
	<path fill="#008CD6" d="M24.576,192.665c0.072-0.456,0.096-0.78,0.096-1.356v-3.756c0-0.54-0.024-0.876-0.096-1.356h0.996v0.816
		c0,0.144,0,0.24-0.036,0.516c0.564-0.984,1.344-1.452,2.424-1.452c0.864,0,1.536,0.312,1.92,0.9
		c0.228,0.348,0.336,0.792,0.336,1.38v2.964c0,0.612,0.024,0.948,0.084,1.344h-1.08c0.06-0.468,0.084-0.828,0.084-1.356v-2.796
		c0-1.08-0.516-1.656-1.464-1.656c-0.672,0-1.212,0.3-1.716,0.948c-0.312,0.408-0.456,0.708-0.552,1.188v2.316
		c0,0.528,0.024,0.888,0.084,1.356H24.576z"/>
	<path fill="#008CD6" d="M32.627,190.744c0.084,0.444,0.18,0.66,0.42,0.876c0.3,0.276,0.78,0.42,1.392,0.42
		c1.044,0,1.704-0.444,1.704-1.152c0-0.336-0.12-0.588-0.372-0.744c-0.288-0.18-0.528-0.252-1.416-0.432
		c-0.96-0.204-1.368-0.348-1.776-0.624c-0.42-0.288-0.648-0.732-0.648-1.26c0-0.432,0.18-0.84,0.516-1.164
		c0.42-0.408,1.068-0.624,1.872-0.624c0.816,0,1.452,0.192,1.884,0.576c0.312,0.264,0.48,0.54,0.636,1.092l-0.948,0.156
		c-0.072-0.324-0.132-0.468-0.3-0.636c-0.276-0.3-0.708-0.456-1.248-0.456c-0.876,0-1.5,0.444-1.5,1.08
		c0,0.276,0.144,0.516,0.408,0.66c0.276,0.156,0.588,0.252,1.332,0.408c1.164,0.264,1.548,0.408,1.908,0.684
		c0.372,0.3,0.576,0.756,0.576,1.248c0,1.2-1.02,1.944-2.664,1.944c-1.092,0-1.932-0.324-2.376-0.936
		c-0.18-0.252-0.264-0.456-0.384-0.948L32.627,190.744z"/>
	<path fill="#008CD6" d="M40.271,184.408c-0.06,0.384-0.084,0.816-0.084,1.332v0.456h0.576c0.552,0,0.804-0.012,1.224-0.072v0.912
		c-0.384-0.06-0.684-0.072-1.224-0.072h-0.576v4.176c0,0.348,0.048,0.528,0.156,0.636c0.132,0.132,0.336,0.204,0.588,0.204
		c0.312,0,0.552-0.072,0.948-0.312l0.264,0.84c-0.492,0.204-0.864,0.276-1.356,0.276c-0.528,0-0.936-0.132-1.176-0.372
		c-0.24-0.24-0.336-0.588-0.336-1.152v-4.296h-0.48c-0.408,0-0.684,0.024-1.08,0.072v-0.912c0.336,0.06,0.576,0.072,1.08,0.072h0.48
		v-0.456c0-0.48-0.024-0.936-0.084-1.332H40.271z"/>
	<path fill="#008CD6" d="M47.748,189.568c0.036,0.804,0.156,1.248,0.48,1.68c0.384,0.528,0.972,0.816,1.692,0.816
		c0.972,0,1.644-0.48,1.98-1.404l0.84,0.336c-0.228,0.504-0.384,0.72-0.66,0.996c-0.564,0.552-1.296,0.84-2.172,0.84
		c-1.884,0-3.072-1.32-3.072-3.396c0-2.052,1.176-3.396,2.976-3.396c1.548,0,2.664,0.996,2.904,2.604
		c0.012,0.132,0.06,0.6,0.084,0.924H47.748z M51.84,188.813c-0.072-0.672-0.252-1.104-0.636-1.476c-0.372-0.36-0.84-0.54-1.416-0.54
		c-0.732,0-1.344,0.372-1.704,1.044c-0.168,0.3-0.228,0.516-0.3,0.972H51.84z"/>
	<path fill="#008CD6" d="M58.464,191.813c-0.468,0.42-0.696,0.576-1.104,0.732c-0.408,0.156-0.84,0.24-1.248,0.24
		c-1.32,0-2.124-0.684-2.124-1.824c0-0.96,0.6-1.656,1.716-1.968c0.708-0.204,1.284-0.276,2.76-0.312v-0.696
		c0-0.816-0.516-1.236-1.512-1.236c-0.66,0-1.152,0.168-1.488,0.516c-0.156,0.168-0.252,0.336-0.372,0.696l-0.936-0.204
		c0.216-0.552,0.372-0.804,0.672-1.068c0.492-0.456,1.212-0.684,2.112-0.684c1.584,0,2.4,0.672,2.4,1.968v3.372
		c0,0.54,0.024,0.84,0.096,1.32h-0.972V191.813z M58.464,189.388c-1.428,0.036-2.112,0.12-2.652,0.348
		c-0.612,0.252-0.912,0.66-0.912,1.236c0,0.66,0.492,1.08,1.272,1.08c0.696,0,1.452-0.336,1.92-0.852
		c0.276-0.3,0.372-0.552,0.372-1.032V189.388z"/>
	<path fill="#008CD6" d="M65.688,188.176c-0.348-0.936-0.924-1.38-1.812-1.38c-1.32,0-2.16,1.032-2.16,2.64
		c0,1.584,0.864,2.592,2.208,2.592c0.684,0,1.248-0.276,1.56-0.768c0.12-0.18,0.18-0.324,0.264-0.612l0.9,0.24
		c-0.168,0.432-0.288,0.66-0.492,0.924c-0.528,0.66-1.296,1.008-2.268,1.008c-1.884,0-3.096-1.308-3.096-3.36
		c0-2.076,1.2-3.432,3.036-3.432c0.996,0,1.8,0.384,2.316,1.104c0.168,0.228,0.276,0.42,0.42,0.768L65.688,188.176z"/>
	<path fill="#008CD6" d="M68.028,192.665c0.06-0.432,0.084-0.756,0.084-1.356V184.9c0-0.6-0.024-0.912-0.084-1.356h1.068
		C69.024,183.988,69,184.3,69,184.912v2.028c0,0.192,0,0.288-0.036,0.6c0.24-0.396,0.372-0.576,0.66-0.816
		c0.516-0.444,1.068-0.648,1.8-0.648c1.404,0,2.244,0.828,2.244,2.232v3.012c0,0.552,0.024,0.9,0.084,1.344h-1.08
		c0.06-0.396,0.084-0.756,0.084-1.356v-2.832c0-1.044-0.516-1.608-1.452-1.608c-0.672,0-1.224,0.288-1.692,0.876
		c-0.336,0.432-0.492,0.756-0.6,1.26v2.304c0,0.528,0.024,0.888,0.084,1.356H68.028z"/>
	<path fill="#008CD6" d="M79.128,189.437c0-2.076,1.248-3.396,3.204-3.396s3.192,1.32,3.192,3.384c0,2.052-1.248,3.396-3.18,3.396
		C80.375,192.82,79.128,191.512,79.128,189.437z M80.052,189.412c0,1.632,0.876,2.628,2.28,2.628c1.404,0,2.268-0.996,2.268-2.616
		s-0.864-2.628-2.244-2.628C80.928,186.796,80.052,187.792,80.052,189.412z"/>
	<path fill="#008CD6" d="M88.764,184.408c-0.06,0.384-0.084,0.816-0.084,1.332v0.456h0.576c0.552,0,0.804-0.012,1.224-0.072v0.912
		c-0.384-0.06-0.684-0.072-1.224-0.072H88.68v4.176c0,0.348,0.048,0.528,0.156,0.636c0.132,0.132,0.336,0.204,0.588,0.204
		c0.312,0,0.552-0.072,0.948-0.312l0.264,0.84c-0.492,0.204-0.864,0.276-1.356,0.276c-0.528,0-0.936-0.132-1.176-0.372
		c-0.24-0.24-0.336-0.588-0.336-1.152v-4.296h-0.48c-0.408,0-0.684,0.024-1.08,0.072v-0.912c0.336,0.06,0.576,0.072,1.08,0.072h0.48
		v-0.456c0-0.48-0.024-0.936-0.084-1.332H88.764z"/>
	<path fill="#008CD6" d="M91.632,192.665c0.06-0.432,0.084-0.756,0.084-1.356V184.9c0-0.6-0.024-0.912-0.084-1.356H92.7
		c-0.072,0.444-0.096,0.756-0.096,1.368v2.028c0,0.192,0,0.288-0.036,0.6c0.24-0.396,0.372-0.576,0.66-0.816
		c0.516-0.444,1.068-0.648,1.8-0.648c1.404,0,2.244,0.828,2.244,2.232v3.012c0,0.552,0.024,0.9,0.084,1.344h-1.08
		c0.06-0.396,0.084-0.756,0.084-1.356v-2.832c0-1.044-0.516-1.608-1.452-1.608c-0.672,0-1.224,0.288-1.692,0.876
		c-0.336,0.432-0.492,0.756-0.6,1.26v2.304c0,0.528,0.024,0.888,0.084,1.356H91.632z"/>
	<path fill="#008CD6" d="M99.647,189.568c0.036,0.804,0.156,1.248,0.48,1.68c0.384,0.528,0.972,0.816,1.692,0.816
		c0.972,0,1.644-0.48,1.98-1.404l0.84,0.336c-0.228,0.504-0.384,0.72-0.66,0.996c-0.564,0.552-1.296,0.84-2.172,0.84
		c-1.884,0-3.072-1.32-3.072-3.396c0-2.052,1.176-3.396,2.976-3.396c1.548,0,2.664,0.996,2.904,2.604
		c0.012,0.132,0.06,0.6,0.084,0.924H99.647z M103.74,188.813c-0.072-0.672-0.252-1.104-0.636-1.476
		c-0.372-0.36-0.84-0.54-1.416-0.54c-0.732,0-1.344,0.372-1.704,1.044c-0.168,0.3-0.228,0.516-0.3,0.972H103.74z"/>
	<path fill="#008CD6" d="M109.979,187.12c-0.456-0.144-0.672-0.18-0.972-0.18c-0.612,0-1.116,0.252-1.476,0.732
		c-0.288,0.372-0.396,0.66-0.444,1.2v2.448c0,0.54,0.023,0.876,0.084,1.344h-1.08c0.06-0.552,0.084-0.864,0.084-1.356v-3.756
		c0-0.6-0.024-0.924-0.084-1.356h0.996v0.684c0,0.096,0,0.276-0.012,0.36c0.228-0.372,0.407-0.564,0.659-0.732
		c0.456-0.3,0.864-0.42,1.44-0.42c0.36,0,0.564,0.024,1.068,0.108L109.979,187.12z"/>
</g>
</svg>
