<?xml version="1.0" encoding="utf-8"?>
<!-- Generator: Adobe Illustrator 12.0.0, SVG Export Plug-In . SVG Version: 6.00 Build 51448)  -->
<!DOCTYPE svg PUBLIC "-//W3C//DTD SVG 1.1//EN" "http://www.w3.org/Graphics/SVG/1.1/DTD/svg11.dtd" [
	<!ENTITY ns_svg "http://www.w3.org/2000/svg">
	<!ENTITY ns_xlink "http://www.w3.org/1999/xlink">
]>
<svg  version="1.1" id="レイヤー_1" xmlns="&ns_svg;" xmlns:xlink="&ns_xlink;" width="163.37" height="158.52"
	 viewBox="0 0 163.37 158.52" overflow="visible" enable-background="new 0 0 163.37 158.52" xml:space="preserve">
<g>
	<path d="M38.625,2.246c0.325,0.389,0.504,0.494,0.892,0.494c0.63,0,1.417-0.273,1.995-0.683c0.042-0.031,0.095-0.052,0.147-0.052
		c0.21,0,0.588,0.315,0.588,0.504c0,0.094-0.042,0.126-0.346,0.283c-0.431,0.21-0.945,0.651-1.333,1.145
		c-0.756,0.935-1.155,1.974-1.155,2.993c0,1.417,0.788,2.299,2.037,2.299c0.956,0,1.795-0.525,2.278-1.417
		c0.347-0.661,0.525-1.543,0.525-2.656c0-1.103-0.105-1.974-0.347-2.846c-0.032-0.105-0.053-0.22-0.053-0.252
		c0-0.105,0.084-0.189,0.2-0.189h0.011c0.157,0.011,0.378,0.126,0.504,0.263c0.126,0.115,0.147,0.168,0.157,0.388
		c0.042,0.483,0.41,1.564,0.84,2.415c0.294,0.599,0.546,0.977,0.84,1.271c0.2,0.2,0.305,0.515,0.305,0.872
		c0,0.242-0.095,0.41-0.242,0.41c-0.242,0-0.525-0.368-0.945-1.218c-0.431-0.882-0.714-1.648-1.124-3.013l-0.032,0.01
		c0.21,1.491,0.242,1.869,0.242,2.636c0,1.396-0.305,2.404-0.935,3.118c-0.504,0.578-1.26,0.903-2.058,0.903
		c-1.564,0-2.593-1.176-2.593-2.972c0-0.662,0.147-1.407,0.42-2.068c0.252-0.63,0.536-1.103,1.071-1.785
		c-0.357,0.063-0.598,0.095-0.809,0.095c-0.588,0-0.955-0.252-1.229-0.84L38.625,2.246z"/>
	<path d="M52.022,8.987c0.966-0.242,1.659-0.504,2.32-0.882c1.229-0.693,1.932-1.722,1.932-2.824c0-1.05-0.777-1.764-1.922-1.764
		c-1.228,0-2.835,0.672-4.221,1.753c-0.168,0.137-0.273,0.179-0.399,0.179c-0.494,0-1.26-0.735-1.26-1.208
		c0-0.074,0.021-0.137,0.084-0.263c0.105,0.221,0.168,0.294,0.294,0.389c0.158,0.116,0.284,0.168,0.431,0.168
		c0.273,0,0.672-0.115,1.271-0.378c1.659-0.725,2.751-1.008,3.843-1.008c1.596,0,2.688,0.934,2.688,2.31
		c0,1.302-0.882,2.426-2.415,3.077c-0.798,0.336-1.565,0.515-2.594,0.609L52.022,8.987z"/>
	<path d="M66.607,7.916c-1.008,1.365-2.384,2.174-3.686,2.174c-0.798,0-1.417-0.326-1.743-0.893
		c-0.21-0.368-0.294-0.882-0.294-1.774c0-0.578,0.032-1.575,0.084-2.531c0.063-1.134,0.074-1.428,0.074-1.806
		c0-0.903-0.105-1.082-0.851-1.397c0.115-0.084,0.178-0.105,0.294-0.105c0.241,0,0.62,0.095,0.945,0.242
		c0.399,0.189,0.609,0.399,0.609,0.62c0,0.073-0.01,0.136-0.094,0.378c-0.2,0.63-0.546,3.812-0.546,5.04
		c0,0.641,0.126,1.019,0.42,1.26c0.231,0.179,0.567,0.284,0.935,0.284c0.714,0,1.596-0.252,2.394-0.672
		c0.483-0.252,0.787-0.473,1.333-0.935L66.607,7.916z M64.045,2.488c0.567,0.199,1.008,0.462,1.354,0.788
		c0.178,0.178,0.262,0.357,0.262,0.598c0,0.273-0.115,0.462-0.273,0.462c-0.084,0-0.115-0.032-0.294-0.357
		c-0.347-0.588-0.672-0.997-1.134-1.386L64.045,2.488z M64.979,1.753c0.661,0.22,1.05,0.409,1.407,0.703
		c0.189,0.158,0.252,0.284,0.252,0.525c0,0.304-0.094,0.504-0.241,0.504c-0.095,0-0.137-0.053-0.273-0.294
		c-0.283-0.483-0.661-0.893-1.218-1.323L64.979,1.753z"/>
	<path d="M101.362,3.779c0.42,0.378,0.788,0.535,1.25,0.535c0.294,0,0.567-0.031,1.05-0.136c0.011-0.305,0.011-0.777,0.011-0.966
		c0-1.103-0.126-1.323-0.851-1.449c0.147-0.116,0.231-0.147,0.452-0.147c0.357,0,0.798,0.105,1.082,0.263
		c0.136,0.073,0.231,0.22,0.231,0.336c0,0.063,0,0.063-0.116,0.273c-0.168,0.304-0.273,0.798-0.326,1.564
		c0.557-0.189,0.809-0.326,1.145-0.609c0.084-0.063,0.189-0.105,0.252-0.105c0.095,0,0.273,0.042,0.399,0.094
		c0.105,0.042,0.178,0.137,0.178,0.231c0,0.147-0.094,0.231-0.473,0.41c-0.472,0.22-0.966,0.389-1.533,0.515
		c-0.011,0.147-0.011,0.147-0.032,0.525c-0.01,0.283-0.031,0.746-0.042,1.375c1.176-0.42,1.932-0.578,2.783-0.578
		c1.438,0,2.341,0.683,2.341,1.795c0,1.029-0.787,1.827-1.795,1.827c-0.966,0-1.659-0.641-2.026-1.858l0.157-0.053
		c0.252,0.483,0.41,0.704,0.63,0.914c0.294,0.273,0.619,0.399,0.998,0.399c0.766,0,1.313-0.599,1.313-1.438
		c0-0.809-0.546-1.25-1.554-1.25c-0.83,0-1.827,0.263-2.846,0.756c0,1.113,0,1.113,0.011,1.428c0.01,0.2,0.01,0.315,0.01,0.399
		c0,0.252-0.042,0.452-0.136,0.62c-0.126,0.241-0.326,0.389-0.504,0.389c-0.147,0-0.147,0-0.788-0.567
		c-0.221-0.178-0.525-0.388-0.704-0.472c-0.231-0.105-0.347-0.263-0.347-0.441c0-0.168,0.105-0.378,0.315-0.588
		c0.388-0.399,0.745-0.63,1.669-1.082c0.01-0.147,0.01-0.304,0.021-0.504c0.021-0.473,0.021-0.473,0.052-1.512
		c-0.325,0.052-0.567,0.073-0.819,0.073c-0.672,0-1.124-0.241-1.564-0.861L101.362,3.779z M102.517,8.032
		c-0.21,0.22-0.315,0.389-0.315,0.504c0,0.105,0.137,0.221,0.42,0.326c0.231,0.094,0.515,0.168,0.651,0.168
		c0.126,0,0.178-0.074,0.189-0.263c0.052-0.945,0.073-1.459,0.073-1.522C103.042,7.549,102.779,7.748,102.517,8.032z M107.2,2.719
		c0.641,0.031,1.113,0.147,1.543,0.378c0.462,0.252,0.735,0.599,0.735,0.924c0,0.189-0.126,0.305-0.315,0.305
		c-0.021,0-0.073,0-0.157-0.021c-0.147-0.021-0.189-0.021-0.221-0.021c-0.157,0-0.409,0.053-1.292,0.284l-0.063-0.105
		c0.63-0.326,0.998-0.546,1.145-0.672c-0.168-0.294-0.336-0.462-0.662-0.651c-0.21-0.115-0.378-0.179-0.724-0.273L107.2,2.719z"/>
	<path d="M111.862,3.779c0.42,0.378,0.788,0.535,1.25,0.535c0.294,0,0.567-0.031,1.05-0.136c0.011-0.305,0.011-0.777,0.011-0.966
		c0-1.103-0.126-1.323-0.851-1.449c0.147-0.116,0.231-0.147,0.452-0.147c0.357,0,0.798,0.105,1.082,0.263
		c0.136,0.073,0.231,0.22,0.231,0.336c0,0.063,0,0.063-0.116,0.273c-0.168,0.304-0.273,0.798-0.326,1.564
		c0.557-0.189,0.809-0.326,1.145-0.609c0.084-0.063,0.189-0.105,0.252-0.105c0.095,0,0.273,0.042,0.399,0.094
		c0.105,0.042,0.178,0.137,0.178,0.231c0,0.147-0.094,0.231-0.473,0.41c-0.472,0.22-0.966,0.389-1.533,0.515
		c-0.011,0.147-0.011,0.147-0.032,0.525c-0.01,0.283-0.031,0.746-0.042,1.375c1.176-0.42,1.932-0.578,2.783-0.578
		c1.438,0,2.341,0.683,2.341,1.795c0,1.029-0.787,1.827-1.795,1.827c-0.966,0-1.659-0.641-2.026-1.858l0.157-0.053
		c0.252,0.483,0.41,0.704,0.63,0.914c0.294,0.273,0.619,0.399,0.998,0.399c0.766,0,1.313-0.599,1.313-1.438
		c0-0.809-0.546-1.25-1.554-1.25c-0.83,0-1.827,0.263-2.846,0.756c0,1.113,0,1.113,0.011,1.428c0.01,0.2,0.01,0.315,0.01,0.399
		c0,0.252-0.042,0.452-0.136,0.62c-0.126,0.241-0.326,0.389-0.504,0.389c-0.147,0-0.147,0-0.788-0.567
		c-0.221-0.178-0.525-0.388-0.704-0.472c-0.231-0.105-0.347-0.263-0.347-0.441c0-0.168,0.105-0.378,0.315-0.588
		c0.388-0.399,0.745-0.63,1.669-1.082c0.01-0.147,0.01-0.304,0.021-0.504c0.021-0.473,0.021-0.473,0.052-1.512
		c-0.325,0.052-0.567,0.073-0.819,0.073c-0.672,0-1.124-0.241-1.564-0.861L111.862,3.779z M113.017,8.032
		c-0.21,0.22-0.315,0.389-0.315,0.504c0,0.105,0.137,0.221,0.42,0.326c0.231,0.094,0.515,0.168,0.651,0.168
		c0.126,0,0.178-0.074,0.189-0.263c0.052-0.945,0.073-1.459,0.073-1.522C113.542,7.549,113.279,7.748,113.017,8.032z M117.7,2.719
		c0.641,0.031,1.113,0.147,1.543,0.378c0.462,0.252,0.735,0.599,0.735,0.924c0,0.189-0.126,0.305-0.315,0.305
		c-0.021,0-0.073,0-0.157-0.021c-0.147-0.021-0.189-0.021-0.221-0.021c-0.157,0-0.409,0.053-1.292,0.284l-0.063-0.105
		c0.63-0.326,0.998-0.546,1.145-0.672c-0.168-0.294-0.336-0.462-0.662-0.651c-0.21-0.115-0.378-0.179-0.724-0.273L117.7,2.719z"/>
	<path d="M124.504,4.525c-0.735,0.252-1.092,0.388-1.365,0.546c-0.157,0.094-0.22,0.115-0.304,0.115
		c-0.116,0-0.326-0.136-0.462-0.315c-0.189-0.241-0.346-0.609-0.346-0.798c0-0.053,0.021-0.126,0.063-0.231
		c0.22,0.441,0.409,0.578,0.798,0.578c0.231,0,0.956-0.147,1.785-0.368c0.241-0.609,0.43-1.354,0.43-1.722
		c0-0.325-0.199-0.504-0.808-0.703c0.126-0.084,0.189-0.105,0.315-0.105c0.157,0,0.42,0.053,0.704,0.137
		c0.472,0.137,0.735,0.326,0.735,0.546c0,0.084-0.021,0.126-0.147,0.305c-0.147,0.22-0.368,0.693-0.672,1.428
		c0.462-0.105,0.661-0.126,0.913-0.126c0.903,0,1.334,0.536,1.334,1.638c0,1.344-0.536,3.087-1.145,3.77
		c-0.262,0.283-0.672,0.472-1.008,0.472c-0.179,0-0.263-0.073-0.284-0.241c-0.031-0.294-0.052-0.315-1.166-1.229l0.095-0.137
		c0.809,0.462,1.407,0.725,1.627,0.725c0.242,0,0.41-0.22,0.683-0.882c0.367-0.861,0.619-2.026,0.619-2.825
		c0-0.703-0.188-0.956-0.745-0.956c-0.315,0-0.504,0.042-1.103,0.221c-0.147,0.357-0.147,0.357-0.609,1.428
		c-0.042,0.105-0.252,0.598-0.62,1.47c-0.42,0.987-0.767,1.743-0.935,2.037c-0.073,0.136-0.157,0.199-0.252,0.199
		c-0.189,0-0.305-0.273-0.305-0.724c0-0.273,0.032-0.347,0.242-0.588c0.21-0.231,0.473-0.672,0.777-1.239
		c0.399-0.777,0.399-0.777,0.84-1.743L124.504,4.525z M128.599,3.853c0.819,0.242,1.46,0.662,1.922,1.26
		c0.398,0.514,0.599,1.019,0.599,1.491c0,0.357-0.158,0.567-0.42,0.567c-0.085,0-0.137-0.011-0.242-0.074
		c-0.168-0.094-0.23-0.105-0.431-0.105c-0.367,0-0.42,0-1.313,0.095l-0.042-0.147c1.061-0.325,1.281-0.399,1.606-0.535
		c-0.042-0.357-0.136-0.651-0.325-1.008c-0.336-0.64-0.745-1.04-1.438-1.396L128.599,3.853z"/>
	<path d="M136.463,10.048c0.767-0.62,1.113-0.966,1.491-1.491s0.63-1.019,0.935-1.816c-0.913-0.483-1.816-0.714-3.014-0.767
		c-0.641,1.166-0.913,1.606-1.271,2.079c-0.389,0.483-0.714,0.725-1.008,0.725c-0.44,0-0.809-0.504-0.809-1.113
		c0-0.535,0.263-1.071,0.714-1.449c0.462-0.389,1.155-0.63,1.995-0.693c0.147-0.252,0.168-0.325,0.746-1.648
		c0.336-0.798,0.378-0.914,0.546-1.48c-0.252,0.063-0.977,0.294-1.513,0.483c-0.168,0.053-0.252,0.074-0.346,0.074
		c-0.326,0-0.662-0.515-0.662-1.019c0-0.105,0.021-0.157,0.115-0.242c0.211,0.483,0.399,0.641,0.788,0.641
		c0.272,0,0.599-0.052,1.113-0.178c0.272-0.074,0.314-0.095,0.462-0.221c0.063-0.073,0.126-0.094,0.22-0.094
		c0.231,0,0.757,0.556,0.757,0.819c0,0.084-0.042,0.157-0.158,0.241c-0.241,0.2-0.336,0.347-1.061,1.785
		c-0.283,0.567-0.325,0.651-0.43,0.851c1.061,0.052,1.974,0.231,3.013,0.599c0.179-0.546,0.347-1.354,0.347-1.69
		c0-0.284-0.146-0.473-0.546-0.725c0.073-0.053,0.115-0.063,0.189-0.063c0.178,0,0.42,0.084,0.734,0.241
		c0.336,0.168,0.494,0.336,0.494,0.525c0,0.105-0.011,0.157-0.095,0.367c-0.031,0.074-0.095,0.294-0.252,0.788
		c-0.053,0.189-0.095,0.315-0.242,0.798c1.261,0.63,1.597,0.935,1.597,1.491c0,0.21-0.105,0.378-0.242,0.378
		c-0.094,0-0.168-0.053-0.356-0.221c-0.336-0.336-0.683-0.609-1.25-0.987c-0.462,1.008-0.787,1.512-1.344,2.047
		c-0.473,0.452-0.902,0.756-1.575,1.082L136.463,10.048z M133.24,7.412c0,0.389,0.22,0.756,0.451,0.756
		c0.347,0,0.787-0.609,1.596-2.205C133.943,6.11,133.24,6.604,133.24,7.412z"/>
	<path d="M3.113,16.904c0.294,0.273,0.525,0.357,0.945,0.357c0.588,0,1.113-0.105,5.817-1.239c0.882-0.231,2.016-0.462,3.402-0.735
		c1.596-0.336,2.205-0.483,2.835-0.693c0.42-0.126,0.567-0.168,0.735-0.168c0.252,0,0.714,0.189,1.134,0.441
		c0.42,0.273,0.609,0.504,0.609,0.798c0,0.315-0.252,0.525-0.651,0.525c-0.084,0-0.231,0-0.378-0.021
		c-0.273-0.042-0.378-0.042-0.588-0.042c-3.591,0-7.056,3.423-7.056,6.951c0,1.932,0.966,3.381,2.772,4.158
		c0.714,0.294,1.512,0.483,2.142,0.504c0.42,0,0.588,0.063,0.882,0.336c0.399,0.378,0.63,0.756,0.63,1.008
		c0,0.336-0.315,0.588-0.756,0.588c-1.218,0-3.108-0.672-4.284-1.512c-1.596-1.134-2.436-2.772-2.436-4.704
		c0-1.701,0.84-3.591,2.289-5.124c0.84-0.924,1.659-1.491,3.423-2.415c-1.911,0.273-3.633,0.693-6.027,1.47
		c-1.323,0.42-2.688,0.987-3.36,1.344c-0.42,0.252-0.567,0.294-0.84,0.294c-0.504,0-1.134-0.483-1.617-1.239
		c-0.336-0.504-0.546-1.071-0.546-1.407c0-0.168,0.042-0.294,0.231-0.567C2.609,16.337,2.777,16.61,3.113,16.904z M15.23,18.102
		c0.777,0.336,1.554,0.756,2.1,1.155c0.567,0.441,0.819,0.819,0.819,1.302c0,0.588-0.231,1.029-0.525,1.029
		c-0.189,0-0.231-0.063-0.63-0.798c-0.42-0.777-1.134-1.68-1.953-2.436L15.23,18.102z M17.246,17.24
		c0.882,0.252,1.491,0.504,2.079,0.84c0.651,0.378,0.924,0.777,0.924,1.344s-0.21,1.008-0.504,1.008
		c-0.147,0-0.273-0.105-0.42-0.441c-0.462-0.945-1.176-1.743-2.226-2.52L17.246,17.24z"/>
	<path d="M22.938,18.333c1.05-0.609,1.596-1.281,1.596-2.016c0-0.336-0.021-0.357-0.672-0.504c-0.567-0.147-0.945-0.63-0.945-1.218
		c0-0.777,0.63-1.365,1.428-1.365c0.945,0,1.596,0.777,1.596,1.911c0,1.533-0.987,2.94-2.583,3.696L22.938,18.333z M27.053,18.333
		c1.05-0.609,1.596-1.281,1.596-2.016c0-0.336-0.021-0.357-0.672-0.504c-0.567-0.147-0.945-0.63-0.945-1.218
		c0-0.777,0.63-1.365,1.428-1.365c0.945,0,1.596,0.777,1.596,1.911c0,1.533-0.987,2.94-2.583,3.696L27.053,18.333z"/>
	<path d="M53.366,19.949h4.032c0.462-0.609,0.609-0.777,1.113-1.323c0.798,0.63,1.05,0.84,1.827,1.554
		c0.042,0.042,0.084,0.105,0.084,0.147c0,0.063-0.105,0.105-0.252,0.105h-6.804v3.843h5.859c0.546-0.651,0.714-0.84,1.281-1.428
		c0.819,0.693,1.05,0.924,1.827,1.659c0.042,0.042,0.063,0.105,0.063,0.126c0,0.063-0.105,0.126-0.21,0.126h-8.82v1.113
		c0,2.499,0.021,4.032,0.042,4.599c-0.042,0.168-0.084,0.21-0.252,0.252c-0.126,0.042-0.798,0.105-1.029,0.105
		s-0.315-0.063-0.315-0.252c0.042-1.491,0.063-3.024,0.063-4.704v-1.113h-6.3c-0.714,0-1.575,0.042-2.121,0.105l-0.147-0.798
		c0.882,0.147,1.596,0.21,2.415,0.21h6.153v-3.843h-4.557c-0.441,0-1.197,0.042-1.89,0.126l-0.126-0.777
		c0.798,0.126,1.365,0.168,2.1,0.168h4.473v-3.465h-5.502c-0.483,0-1.155,0.042-1.89,0.147l-0.105-0.861
		c0.63,0.126,1.512,0.231,1.995,0.231h3.255c-0.231-0.21-0.231-0.231-0.441-0.84c-0.168-0.567-0.567-1.323-0.966-1.974
		c-0.231-0.336-0.441-0.567-0.903-1.029l0.189-0.252c1.008,0.504,1.596,0.903,2.352,1.575c0.588,0.546,0.84,0.924,0.84,1.302
		c0,0.399-0.231,0.861-0.588,1.218h3.906c1.26-1.974,1.575-2.604,2.079-4.095c1.911,0.588,2.331,0.756,2.331,0.987
		s-0.21,0.294-1.029,0.294c-1.302,1.449-1.659,1.806-2.835,2.814h4.032c0.483-0.651,0.63-0.84,1.155-1.449
		c0.84,0.672,1.092,0.882,1.848,1.617c0.042,0.063,0.084,0.126,0.084,0.168c0,0.084-0.126,0.147-0.294,0.147h-8.022V19.949z"/>
	<path d="M75.185,21.692c-0.378,1.323-0.966,3.612-1.218,4.641c-0.21,0.924-0.273,1.26-0.273,1.785
		c-0.021,0.672-0.042,0.756-0.147,0.924c-0.105,0.147-0.231,0.231-0.399,0.231c-0.357,0-0.651-0.294-0.903-0.945
		c-0.42-1.071-0.672-2.667-0.672-4.221c0-1.932,0.231-3.696,0.945-6.993c0.273-1.302,0.315-1.533,0.315-1.89
		c0-0.63-0.168-1.134-0.609-1.848c0.483,0.021,0.882,0.294,1.47,1.05c0.483,0.609,0.756,1.197,0.756,1.596
		c0,0.231,0,0.231-0.336,0.924c-1.008,2.1-1.596,4.599-1.596,6.846c0,1.071,0.084,1.743,0.336,2.604l0.882-2.1l1.134-2.709
		L75.185,21.692z M77.285,17.892c1.008,0.651,1.659,0.861,2.709,0.861c0.735,0,1.533-0.105,2.394-0.294c0-0.399,0-0.735,0-0.924
		c0-2.352-0.021-2.625-0.294-2.919c-0.252-0.273-0.714-0.42-1.386-0.483c0.294-0.273,0.462-0.336,1.008-0.336
		c0.462,0,1.029,0.084,1.428,0.189c0.609,0.189,0.924,0.441,0.924,0.756c0,0.147,0,0.168-0.189,0.651
		c-0.231,0.609-0.357,1.365-0.441,2.814c0.966-0.273,1.575-0.546,1.932-0.861c0.21-0.21,0.273-0.231,0.462-0.231
		c0.252,0,0.735,0.126,0.987,0.273c0.168,0.084,0.273,0.231,0.273,0.378c0,0.462-1.533,1.092-3.717,1.512
		c0,2.793,0.063,3.948,0.273,5.712c2.436,0.651,3.465,1.47,3.465,2.688c0,0.441-0.189,0.777-0.42,0.777
		c-0.168,0-0.315-0.105-0.735-0.525c-0.924-0.945-1.449-1.323-2.268-1.68c0.021,0.189,0.021,0.357,0.021,0.504
		c0,1.512-1.26,2.415-3.36,2.415c-1.827,0-3.108-0.882-3.108-2.142c0-1.449,1.554-2.373,3.948-2.373
		c0.399,0,0.693,0.021,1.281,0.063c0-0.189,0-0.315,0-0.357l-0.042-2.247l-0.021-2.688c-0.63,0.126-1.239,0.168-1.848,0.168
		c-1.533,0-2.415-0.378-3.465-1.47L77.285,17.892z M80.498,25.557c-1.659,0-2.688,0.546-2.688,1.47c0,0.735,0.819,1.239,2.058,1.239
		c1.155,0,1.974-0.336,2.31-0.987c0.21-0.378,0.273-0.693,0.273-1.47C81.863,25.641,81.275,25.557,80.498,25.557z"/>
	<path d="M90.746,31.416c1.113-0.651,1.617-1.281,1.617-2.037c0-0.252-0.084-0.357-0.399-0.42c-0.903-0.231-1.239-0.567-1.239-1.26
		c0-0.798,0.588-1.386,1.407-1.386c0.987,0,1.617,0.756,1.617,1.932c0,0.84-0.336,1.743-0.903,2.436
		c-0.42,0.525-0.924,0.882-1.68,1.239L90.746,31.416z"/>
	<path d="M111.578,28.749c0.231,0,0.42,0.021,0.546,0.021c1.113,0.063,1.113,0.063,2.1,0.063c0.651,0,0.819-0.063,0.966-0.357
		c0.378-0.798,0.63-2.961,0.63-5.397c0-0.882-0.042-1.722-0.126-2.457c-0.462,0.714-0.651,0.966-1.155,1.575
		c-1.155,1.365-1.974,2.121-3.339,3.129l-0.231-0.21c1.155-1.197,1.974-2.247,3.318-4.326c0.42-0.651,0.609-0.987,1.113-1.995
		c-0.21-0.861-0.378-1.365-0.714-2.184c-0.84,0.777-0.945,0.84-3.486,2.52l-0.189-0.252c1.617-1.323,2.331-1.995,3.297-3.15
		c-0.525-1.071-0.966-1.743-1.827-2.898l0.231-0.231c0.945,0.903,1.491,1.575,2.1,2.499c1.176-1.512,1.827-2.52,2.121-3.276
		c0.357,0.168,0.651,0.294,0.819,0.357c1.008,0.441,1.197,0.546,1.197,0.693s-0.168,0.21-0.504,0.21
		c-0.021,0-0.294-0.021-0.483-0.021c-1.008,1.26-1.743,2.079-2.625,2.94c1.218,2.31,1.806,4.872,1.806,8.022
		c0,1.827-0.168,3.465-0.462,4.536c-0.189,0.63-0.546,1.218-0.966,1.512c-0.357,0.252-0.735,0.399-1.617,0.567
		c-0.063-0.546-0.168-0.798-0.483-1.029c-0.315-0.252-0.735-0.357-2.058-0.525L111.578,28.749z M123.506,21.629
		c0.672,1.869,0.966,2.499,1.659,3.486c1.555-1.134,2.311-1.827,2.961-2.73c0.567,0.378,0.567,0.378,1.555,0.987
		c0.188,0.126,0.294,0.231,0.294,0.294c0,0.105-0.126,0.189-0.252,0.189c-0.021,0-0.021,0-0.042,0
		c-0.147-0.021-0.379-0.042-0.799-0.063c-1.322,0.714-1.322,0.714-3.485,1.638c0.63,0.777,1.134,1.239,2.037,1.848
		c0.734,0.525,1.658,1.008,2.289,1.239c0.378,0.147,0.65,0.21,1.344,0.315v0.315c-0.819,0.252-1.029,0.441-1.428,1.302
		c-1.513-0.819-2.353-1.449-3.402-2.583c-1.26-1.344-2.184-2.94-2.772-4.809c-0.126-0.378-0.189-0.63-0.399-1.428h-2.52v6.615
		c2.079-0.462,3.15-0.735,4.263-1.092l0.126,0.315c-1.323,0.672-3.927,1.806-6.216,2.709c-0.021,0.147-0.042,0.294-0.063,0.378
		c-0.042,0.315-0.147,0.483-0.252,0.483c-0.021,0-0.021,0-0.021,0c-0.105-0.021-0.21-0.126-0.294-0.315
		c-0.042-0.105-0.126-0.357-0.231-0.756c-0.126-0.462-0.231-0.861-0.336-1.218c0.756-0.105,1.071-0.147,1.659-0.252V16.085
		c-0.021-0.42-0.021-0.798-0.021-1.176c-0.021-0.546-0.021-0.567-0.042-1.008c0.735,0.357,0.945,0.483,1.596,0.945h2.247v-2.121
		c0-0.084,0-0.273-0.021-0.546c-0.021-0.126-0.021-0.315-0.042-0.567c2.247,0.252,2.499,0.294,2.499,0.525
		c0,0.189-0.126,0.252-0.987,0.483v2.226h2.646c0.356-0.399,0.462-0.525,0.818-0.903c0.504,0.399,0.672,0.504,1.176,0.882
		c0.168,0.105,0.231,0.21,0.231,0.315c0,0.168-0.126,0.273-0.693,0.567c-0.021,0.63-0.021,1.071-0.021,1.428
		c0,1.806,0.042,3.843,0.084,4.746c-0.042,0.168-0.084,0.252-0.21,0.273c-0.231,0.063-0.63,0.126-0.903,0.126
		c-0.21,0-0.294-0.063-0.336-0.273v-0.378H123.506z M127.202,17.913V15.33h-6.657v2.583H127.202z M120.545,18.396v2.751h6.657
		v-2.751H120.545z"/>
	<path d="M146.48,15.498c0.504,0.756,0.84,1.113,1.449,1.512c0.734,0.462,1.364,0.693,2.457,0.903
		c0.588-2.919,0.65-3.234,0.65-3.738c0-0.714-0.294-1.155-1.134-1.743c0.168-0.063,0.231-0.084,0.357-0.084
		c0.378,0,0.924,0.231,1.554,0.651c0.672,0.462,1.092,1.05,1.092,1.512c0,0.189-0.063,0.357-0.273,0.609
		c-0.356,0.504-0.588,1.071-1.154,2.919c0.44,0.126,0.63,0.231,0.84,0.462c0.168,0.189,0.294,0.483,0.294,0.693
		c0,0.273-0.252,0.441-0.672,0.441c-0.21,0-0.483-0.042-0.819-0.105c-0.42,1.407-0.672,2.646-0.84,3.885
		c0.504,0.105,0.861,0.147,1.071,0.147c0.063,0,0.104,0,0.168-0.021c0.126-0.021,0.21-0.021,0.23-0.021
		c0.546,0,1.261,0.651,1.261,1.134c0,0.294-0.273,0.483-0.715,0.483c-0.588,0-1.47-0.147-2.226-0.378
		c-0.042,0.504-0.063,0.756-0.063,1.029c0,2.142,1.197,3.339,3.318,3.339c1.428,0,2.667-0.546,3.318-1.428
		c0.462-0.63,0.692-1.344,0.692-2.142c0-1.743-1.176-3.717-3.171-5.25l0.231-0.273c3.107,1.911,4.431,3.654,4.431,5.796
		c0,2.541-2.184,4.473-5.103,4.473c-1.093,0-2.143-0.315-2.856-0.861c-1.092-0.819-1.617-2.079-1.617-3.906
		c0-0.252,0.021-0.525,0.042-1.05c-0.818-0.378-1.238-0.63-1.68-1.071c-0.567-0.588-0.924-1.365-0.924-2.079
		c0-0.483,0.23-1.008,0.65-1.449c0.505-0.504,1.029-0.798,2.037-1.113c-0.84-0.315-1.428-0.693-2.037-1.302
		c-0.44-0.462-0.692-0.882-1.092-1.848L146.48,15.498z M147.72,20.181c-0.315,0.336-0.463,0.651-0.463,1.05
		c0,0.882,0.715,1.533,2.163,1.974c0.105-1.05,0.294-2.247,0.63-3.822C148.832,19.445,148.224,19.676,147.72,20.181z"/>
</g>
<g>
	<path d="M38.625,41.472c0.325,0.389,0.504,0.494,0.892,0.494c0.63,0,1.417-0.273,1.995-0.683c0.042-0.031,0.095-0.052,0.147-0.052
		c0.21,0,0.588,0.315,0.588,0.504c0,0.094-0.042,0.126-0.346,0.283c-0.431,0.21-0.945,0.651-1.333,1.145
		c-0.756,0.935-1.155,1.974-1.155,2.993c0,1.417,0.788,2.299,2.037,2.299c0.956,0,1.795-0.525,2.278-1.417
		c0.347-0.661,0.525-1.543,0.525-2.656c0-1.103-0.105-1.974-0.347-2.846c-0.032-0.105-0.053-0.22-0.053-0.252
		c0-0.105,0.084-0.189,0.2-0.189h0.011c0.157,0.011,0.378,0.126,0.504,0.263c0.126,0.115,0.147,0.168,0.157,0.388
		c0.042,0.483,0.41,1.564,0.84,2.415c0.294,0.599,0.546,0.977,0.84,1.271c0.2,0.2,0.305,0.515,0.305,0.872
		c0,0.242-0.095,0.41-0.242,0.41c-0.242,0-0.525-0.368-0.945-1.218c-0.431-0.882-0.714-1.648-1.124-3.013l-0.032,0.01
		c0.21,1.491,0.242,1.869,0.242,2.636c0,1.396-0.305,2.404-0.935,3.118c-0.504,0.578-1.26,0.903-2.058,0.903
		c-1.564,0-2.593-1.176-2.593-2.972c0-0.662,0.147-1.407,0.42-2.068c0.252-0.63,0.536-1.103,1.071-1.785
		c-0.357,0.063-0.598,0.095-0.809,0.095c-0.588,0-0.955-0.252-1.229-0.84L38.625,41.472z"/>
	<path d="M52.022,48.213c0.966-0.242,1.659-0.504,2.32-0.882c1.229-0.693,1.932-1.722,1.932-2.824c0-1.05-0.777-1.764-1.922-1.764
		c-1.228,0-2.835,0.672-4.221,1.753c-0.168,0.137-0.273,0.179-0.399,0.179c-0.494,0-1.26-0.735-1.26-1.208
		c0-0.074,0.021-0.137,0.084-0.263c0.105,0.221,0.168,0.294,0.294,0.389c0.158,0.116,0.284,0.168,0.431,0.168
		c0.273,0,0.672-0.115,1.271-0.378c1.659-0.725,2.751-1.008,3.843-1.008c1.596,0,2.688,0.934,2.688,2.31
		c0,1.302-0.882,2.426-2.415,3.077c-0.798,0.336-1.565,0.515-2.594,0.609L52.022,48.213z"/>
	<path d="M66.607,47.142c-1.008,1.365-2.384,2.174-3.686,2.174c-0.798,0-1.417-0.326-1.743-0.893
		c-0.21-0.368-0.294-0.882-0.294-1.774c0-0.578,0.032-1.575,0.084-2.531c0.063-1.134,0.074-1.428,0.074-1.806
		c0-0.903-0.105-1.082-0.851-1.397c0.115-0.084,0.178-0.105,0.294-0.105c0.241,0,0.62,0.095,0.945,0.242
		c0.399,0.189,0.609,0.399,0.609,0.62c0,0.073-0.01,0.136-0.094,0.378c-0.2,0.63-0.546,3.812-0.546,5.04
		c0,0.641,0.126,1.019,0.42,1.26c0.231,0.179,0.567,0.284,0.935,0.284c0.714,0,1.596-0.252,2.394-0.672
		c0.483-0.252,0.787-0.473,1.333-0.935L66.607,47.142z M64.045,41.713c0.567,0.199,1.008,0.462,1.354,0.788
		c0.178,0.178,0.262,0.357,0.262,0.598c0,0.273-0.115,0.462-0.273,0.462c-0.084,0-0.115-0.032-0.294-0.357
		c-0.347-0.588-0.672-0.997-1.134-1.386L64.045,41.713z M64.979,40.979c0.661,0.22,1.05,0.409,1.407,0.703
		c0.189,0.158,0.252,0.284,0.252,0.525c0,0.304-0.094,0.504-0.241,0.504c-0.095,0-0.137-0.053-0.273-0.294
		c-0.283-0.483-0.661-0.893-1.218-1.323L64.979,40.979z"/>
	<path d="M101.362,43.005c0.42,0.378,0.788,0.535,1.25,0.535c0.294,0,0.567-0.031,1.05-0.136c0.011-0.305,0.011-0.777,0.011-0.966
		c0-1.103-0.126-1.323-0.851-1.449c0.147-0.116,0.231-0.147,0.452-0.147c0.357,0,0.798,0.105,1.082,0.263
		c0.136,0.073,0.231,0.22,0.231,0.336c0,0.063,0,0.063-0.116,0.273c-0.168,0.304-0.273,0.798-0.326,1.564
		c0.557-0.189,0.809-0.326,1.145-0.609c0.084-0.063,0.189-0.105,0.252-0.105c0.095,0,0.273,0.042,0.399,0.094
		c0.105,0.042,0.178,0.137,0.178,0.231c0,0.147-0.094,0.231-0.473,0.41c-0.472,0.22-0.966,0.389-1.533,0.515
		c-0.011,0.147-0.011,0.147-0.032,0.525c-0.01,0.283-0.031,0.746-0.042,1.375c1.176-0.42,1.932-0.578,2.783-0.578
		c1.438,0,2.341,0.683,2.341,1.795c0,1.029-0.787,1.827-1.795,1.827c-0.966,0-1.659-0.641-2.026-1.858l0.157-0.053
		c0.252,0.483,0.41,0.704,0.63,0.914c0.294,0.273,0.619,0.399,0.998,0.399c0.766,0,1.313-0.599,1.313-1.438
		c0-0.809-0.546-1.25-1.554-1.25c-0.83,0-1.827,0.263-2.846,0.756c0,1.113,0,1.113,0.011,1.428c0.01,0.2,0.01,0.315,0.01,0.399
		c0,0.252-0.042,0.452-0.136,0.62c-0.126,0.241-0.326,0.389-0.504,0.389c-0.147,0-0.147,0-0.788-0.567
		c-0.221-0.178-0.525-0.388-0.704-0.472c-0.231-0.105-0.347-0.263-0.347-0.441c0-0.168,0.105-0.378,0.315-0.588
		c0.388-0.399,0.745-0.63,1.669-1.082c0.01-0.147,0.01-0.304,0.021-0.504c0.021-0.473,0.021-0.473,0.052-1.512
		c-0.325,0.052-0.567,0.073-0.819,0.073c-0.672,0-1.124-0.241-1.564-0.861L101.362,43.005z M102.517,47.257
		c-0.21,0.22-0.315,0.389-0.315,0.504c0,0.105,0.137,0.221,0.42,0.326c0.231,0.094,0.515,0.168,0.651,0.168
		c0.126,0,0.178-0.074,0.189-0.263c0.052-0.945,0.073-1.459,0.073-1.522C103.042,46.774,102.779,46.974,102.517,47.257z
		 M107.2,41.944c0.641,0.031,1.113,0.147,1.543,0.378c0.462,0.252,0.735,0.599,0.735,0.924c0,0.189-0.126,0.305-0.315,0.305
		c-0.021,0-0.073,0-0.157-0.021c-0.147-0.021-0.189-0.021-0.221-0.021c-0.157,0-0.409,0.053-1.292,0.284l-0.063-0.105
		c0.63-0.326,0.998-0.546,1.145-0.672c-0.168-0.294-0.336-0.462-0.662-0.651c-0.21-0.115-0.378-0.179-0.724-0.273L107.2,41.944z"/>
	<path d="M111.862,43.005c0.42,0.378,0.788,0.535,1.25,0.535c0.294,0,0.567-0.031,1.05-0.136c0.011-0.305,0.011-0.777,0.011-0.966
		c0-1.103-0.126-1.323-0.851-1.449c0.147-0.116,0.231-0.147,0.452-0.147c0.357,0,0.798,0.105,1.082,0.263
		c0.136,0.073,0.231,0.22,0.231,0.336c0,0.063,0,0.063-0.116,0.273c-0.168,0.304-0.273,0.798-0.326,1.564
		c0.557-0.189,0.809-0.326,1.145-0.609c0.084-0.063,0.189-0.105,0.252-0.105c0.095,0,0.273,0.042,0.399,0.094
		c0.105,0.042,0.178,0.137,0.178,0.231c0,0.147-0.094,0.231-0.473,0.41c-0.472,0.22-0.966,0.389-1.533,0.515
		c-0.011,0.147-0.011,0.147-0.032,0.525c-0.01,0.283-0.031,0.746-0.042,1.375c1.176-0.42,1.932-0.578,2.783-0.578
		c1.438,0,2.341,0.683,2.341,1.795c0,1.029-0.787,1.827-1.795,1.827c-0.966,0-1.659-0.641-2.026-1.858l0.157-0.053
		c0.252,0.483,0.41,0.704,0.63,0.914c0.294,0.273,0.619,0.399,0.998,0.399c0.766,0,1.313-0.599,1.313-1.438
		c0-0.809-0.546-1.25-1.554-1.25c-0.83,0-1.827,0.263-2.846,0.756c0,1.113,0,1.113,0.011,1.428c0.01,0.2,0.01,0.315,0.01,0.399
		c0,0.252-0.042,0.452-0.136,0.62c-0.126,0.241-0.326,0.389-0.504,0.389c-0.147,0-0.147,0-0.788-0.567
		c-0.221-0.178-0.525-0.388-0.704-0.472c-0.231-0.105-0.347-0.263-0.347-0.441c0-0.168,0.105-0.378,0.315-0.588
		c0.388-0.399,0.745-0.63,1.669-1.082c0.01-0.147,0.01-0.304,0.021-0.504c0.021-0.473,0.021-0.473,0.052-1.512
		c-0.325,0.052-0.567,0.073-0.819,0.073c-0.672,0-1.124-0.241-1.564-0.861L111.862,43.005z M113.017,47.257
		c-0.21,0.22-0.315,0.389-0.315,0.504c0,0.105,0.137,0.221,0.42,0.326c0.231,0.094,0.515,0.168,0.651,0.168
		c0.126,0,0.178-0.074,0.189-0.263c0.052-0.945,0.073-1.459,0.073-1.522C113.542,46.774,113.279,46.974,113.017,47.257z
		 M117.7,41.944c0.641,0.031,1.113,0.147,1.543,0.378c0.462,0.252,0.735,0.599,0.735,0.924c0,0.189-0.126,0.305-0.315,0.305
		c-0.021,0-0.073,0-0.157-0.021c-0.147-0.021-0.189-0.021-0.221-0.021c-0.157,0-0.409,0.053-1.292,0.284l-0.063-0.105
		c0.63-0.326,0.998-0.546,1.145-0.672c-0.168-0.294-0.336-0.462-0.662-0.651c-0.21-0.115-0.378-0.179-0.724-0.273L117.7,41.944z"/>
	<path d="M124.504,43.75c-0.735,0.252-1.092,0.388-1.365,0.546c-0.157,0.094-0.22,0.115-0.304,0.115
		c-0.116,0-0.326-0.136-0.462-0.315c-0.189-0.241-0.346-0.609-0.346-0.798c0-0.053,0.021-0.126,0.063-0.231
		c0.22,0.441,0.409,0.578,0.798,0.578c0.231,0,0.956-0.147,1.785-0.368c0.241-0.609,0.43-1.354,0.43-1.722
		c0-0.325-0.199-0.504-0.808-0.703c0.126-0.084,0.189-0.105,0.315-0.105c0.157,0,0.42,0.053,0.704,0.137
		c0.472,0.137,0.735,0.326,0.735,0.546c0,0.084-0.021,0.126-0.147,0.305c-0.147,0.22-0.368,0.693-0.672,1.428
		c0.462-0.105,0.661-0.126,0.913-0.126c0.903,0,1.334,0.536,1.334,1.638c0,1.344-0.536,3.087-1.145,3.77
		c-0.262,0.283-0.672,0.472-1.008,0.472c-0.179,0-0.263-0.073-0.284-0.241c-0.031-0.294-0.052-0.315-1.166-1.229l0.095-0.137
		c0.809,0.462,1.407,0.725,1.627,0.725c0.242,0,0.41-0.22,0.683-0.882c0.367-0.861,0.619-2.026,0.619-2.825
		c0-0.703-0.188-0.956-0.745-0.956c-0.315,0-0.504,0.042-1.103,0.221c-0.147,0.357-0.147,0.357-0.609,1.428
		c-0.042,0.105-0.252,0.598-0.62,1.47c-0.42,0.987-0.767,1.743-0.935,2.037c-0.073,0.136-0.157,0.199-0.252,0.199
		c-0.189,0-0.305-0.273-0.305-0.724c0-0.273,0.032-0.347,0.242-0.588c0.21-0.231,0.473-0.672,0.777-1.239
		c0.399-0.777,0.399-0.777,0.84-1.743L124.504,43.75z M128.599,43.078c0.819,0.242,1.46,0.662,1.922,1.26
		c0.398,0.514,0.599,1.019,0.599,1.491c0,0.357-0.158,0.567-0.42,0.567c-0.085,0-0.137-0.011-0.242-0.074
		c-0.168-0.094-0.23-0.105-0.431-0.105c-0.367,0-0.42,0-1.313,0.095l-0.042-0.147c1.061-0.325,1.281-0.399,1.606-0.535
		c-0.042-0.357-0.136-0.651-0.325-1.008c-0.336-0.64-0.745-1.04-1.438-1.396L128.599,43.078z"/>
	<path d="M136.463,49.273c0.767-0.62,1.113-0.966,1.491-1.491s0.63-1.019,0.935-1.816c-0.913-0.483-1.816-0.714-3.014-0.767
		c-0.641,1.166-0.913,1.606-1.271,2.079c-0.389,0.483-0.714,0.725-1.008,0.725c-0.44,0-0.809-0.504-0.809-1.113
		c0-0.535,0.263-1.071,0.714-1.449c0.462-0.389,1.155-0.63,1.995-0.693c0.147-0.252,0.168-0.325,0.746-1.648
		c0.336-0.798,0.378-0.914,0.546-1.48c-0.252,0.063-0.977,0.294-1.513,0.483c-0.168,0.053-0.252,0.074-0.346,0.074
		c-0.326,0-0.662-0.515-0.662-1.019c0-0.105,0.021-0.157,0.115-0.242c0.211,0.483,0.399,0.641,0.788,0.641
		c0.272,0,0.599-0.052,1.113-0.178c0.272-0.074,0.314-0.095,0.462-0.221c0.063-0.073,0.126-0.094,0.22-0.094
		c0.231,0,0.757,0.556,0.757,0.819c0,0.084-0.042,0.157-0.158,0.241c-0.241,0.2-0.336,0.347-1.061,1.785
		c-0.283,0.567-0.325,0.651-0.43,0.851c1.061,0.052,1.974,0.231,3.013,0.599c0.179-0.546,0.347-1.354,0.347-1.69
		c0-0.284-0.146-0.473-0.546-0.725c0.073-0.053,0.115-0.063,0.189-0.063c0.178,0,0.42,0.084,0.734,0.241
		c0.336,0.168,0.494,0.336,0.494,0.525c0,0.105-0.011,0.157-0.095,0.367c-0.031,0.074-0.095,0.294-0.252,0.788
		c-0.053,0.189-0.095,0.315-0.242,0.798c1.261,0.63,1.597,0.935,1.597,1.491c0,0.21-0.105,0.378-0.242,0.378
		c-0.094,0-0.168-0.053-0.356-0.221c-0.336-0.336-0.683-0.609-1.25-0.987c-0.462,1.008-0.787,1.512-1.344,2.047
		c-0.473,0.452-0.902,0.756-1.575,1.082L136.463,49.273z M133.24,46.638c0,0.389,0.22,0.756,0.451,0.756
		c0.347,0,0.787-0.609,1.596-2.205C133.943,45.336,133.24,45.829,133.24,46.638z"/>
	<path d="M3.113,56.13c0.294,0.273,0.525,0.357,0.945,0.357c0.588,0,1.113-0.105,5.817-1.239c0.882-0.231,2.016-0.462,3.402-0.735
		c1.596-0.336,2.205-0.483,2.835-0.693c0.42-0.126,0.567-0.168,0.735-0.168c0.252,0,0.714,0.189,1.134,0.441
		c0.42,0.273,0.609,0.504,0.609,0.798c0,0.315-0.252,0.525-0.651,0.525c-0.084,0-0.231,0-0.378-0.021
		c-0.273-0.042-0.378-0.042-0.588-0.042c-3.591,0-7.056,3.423-7.056,6.951c0,1.932,0.966,3.381,2.772,4.158
		c0.714,0.294,1.512,0.483,2.142,0.504c0.42,0,0.588,0.063,0.882,0.336c0.399,0.378,0.63,0.756,0.63,1.008
		c0,0.336-0.315,0.588-0.756,0.588c-1.218,0-3.108-0.672-4.284-1.512c-1.596-1.134-2.436-2.772-2.436-4.704
		c0-1.701,0.84-3.591,2.289-5.124c0.84-0.924,1.659-1.491,3.423-2.415c-1.911,0.273-3.633,0.693-6.027,1.47
		c-1.323,0.42-2.688,0.987-3.36,1.344c-0.42,0.252-0.567,0.294-0.84,0.294c-0.504,0-1.134-0.483-1.617-1.239
		c-0.336-0.504-0.546-1.071-0.546-1.407c0-0.168,0.042-0.294,0.231-0.567C2.609,55.563,2.777,55.836,3.113,56.13z M15.23,57.327
		c0.777,0.336,1.554,0.756,2.1,1.155c0.567,0.441,0.819,0.819,0.819,1.302c0,0.588-0.231,1.029-0.525,1.029
		c-0.189,0-0.231-0.063-0.63-0.798c-0.42-0.777-1.134-1.68-1.953-2.436L15.23,57.327z M17.246,56.466
		c0.882,0.252,1.491,0.504,2.079,0.84c0.651,0.378,0.924,0.777,0.924,1.344s-0.21,1.008-0.504,1.008
		c-0.147,0-0.273-0.105-0.42-0.441c-0.462-0.945-1.176-1.743-2.226-2.52L17.246,56.466z"/>
	<path d="M22.938,57.558c1.05-0.609,1.596-1.281,1.596-2.016c0-0.336-0.021-0.357-0.672-0.504c-0.567-0.147-0.945-0.63-0.945-1.218
		c0-0.777,0.63-1.365,1.428-1.365c0.945,0,1.596,0.777,1.596,1.911c0,1.533-0.987,2.94-2.583,3.696L22.938,57.558z M27.053,57.558
		c1.05-0.609,1.596-1.281,1.596-2.016c0-0.336-0.021-0.357-0.672-0.504c-0.567-0.147-0.945-0.63-0.945-1.218
		c0-0.777,0.63-1.365,1.428-1.365c0.945,0,1.596,0.777,1.596,1.911c0,1.533-0.987,2.94-2.583,3.696L27.053,57.558z"/>
	<path d="M53.366,59.175h4.032c0.462-0.609,0.609-0.777,1.113-1.323c0.798,0.63,1.05,0.84,1.827,1.554
		c0.042,0.042,0.084,0.105,0.084,0.147c0,0.063-0.105,0.105-0.252,0.105h-6.804v3.843h5.859c0.546-0.651,0.714-0.84,1.281-1.428
		c0.819,0.693,1.05,0.924,1.827,1.659c0.042,0.042,0.063,0.105,0.063,0.126c0,0.063-0.105,0.126-0.21,0.126h-8.82v1.113
		c0,2.499,0.021,4.032,0.042,4.599c-0.042,0.168-0.084,0.21-0.252,0.252c-0.126,0.042-0.798,0.105-1.029,0.105
		s-0.315-0.063-0.315-0.252c0.042-1.491,0.063-3.024,0.063-4.704v-1.113h-6.3c-0.714,0-1.575,0.042-2.121,0.105l-0.147-0.798
		c0.882,0.147,1.596,0.21,2.415,0.21h6.153v-3.843h-4.557c-0.441,0-1.197,0.042-1.89,0.126l-0.126-0.777
		c0.798,0.126,1.365,0.168,2.1,0.168h4.473V55.71h-5.502c-0.483,0-1.155,0.042-1.89,0.147l-0.105-0.861
		c0.63,0.126,1.512,0.231,1.995,0.231h3.255c-0.231-0.21-0.231-0.231-0.441-0.84c-0.168-0.567-0.567-1.323-0.966-1.974
		c-0.231-0.336-0.441-0.567-0.903-1.029l0.189-0.252c1.008,0.504,1.596,0.903,2.352,1.575c0.588,0.546,0.84,0.924,0.84,1.302
		c0,0.399-0.231,0.861-0.588,1.218h3.906c1.26-1.974,1.575-2.604,2.079-4.095c1.911,0.588,2.331,0.756,2.331,0.987
		s-0.21,0.294-1.029,0.294c-1.302,1.449-1.659,1.806-2.835,2.814h4.032c0.483-0.651,0.63-0.84,1.155-1.449
		c0.84,0.672,1.092,0.882,1.848,1.617c0.042,0.063,0.084,0.126,0.084,0.168c0,0.084-0.126,0.147-0.294,0.147h-8.022V59.175z"/>
	<path d="M75.185,60.918c-0.378,1.323-0.966,3.612-1.218,4.641c-0.21,0.924-0.273,1.26-0.273,1.785
		c-0.021,0.672-0.042,0.756-0.147,0.924c-0.105,0.147-0.231,0.231-0.399,0.231c-0.357,0-0.651-0.294-0.903-0.945
		c-0.42-1.071-0.672-2.667-0.672-4.221c0-1.932,0.231-3.696,0.945-6.993c0.273-1.302,0.315-1.533,0.315-1.89
		c0-0.63-0.168-1.134-0.609-1.848c0.483,0.021,0.882,0.294,1.47,1.05c0.483,0.609,0.756,1.197,0.756,1.596
		c0,0.231,0,0.231-0.336,0.924c-1.008,2.1-1.596,4.599-1.596,6.846c0,1.071,0.084,1.743,0.336,2.604l0.882-2.1l1.134-2.709
		L75.185,60.918z M77.285,57.117c1.008,0.651,1.659,0.861,2.709,0.861c0.735,0,1.533-0.105,2.394-0.294c0-0.399,0-0.735,0-0.924
		c0-2.352-0.021-2.625-0.294-2.919c-0.252-0.273-0.714-0.42-1.386-0.483c0.294-0.273,0.462-0.336,1.008-0.336
		c0.462,0,1.029,0.084,1.428,0.189c0.609,0.189,0.924,0.441,0.924,0.756c0,0.147,0,0.168-0.189,0.651
		c-0.231,0.609-0.357,1.365-0.441,2.814c0.966-0.273,1.575-0.546,1.932-0.861c0.21-0.21,0.273-0.231,0.462-0.231
		c0.252,0,0.735,0.126,0.987,0.273c0.168,0.084,0.273,0.231,0.273,0.378c0,0.462-1.533,1.092-3.717,1.512
		c0,2.793,0.063,3.948,0.273,5.712c2.436,0.651,3.465,1.47,3.465,2.688c0,0.441-0.189,0.777-0.42,0.777
		c-0.168,0-0.315-0.105-0.735-0.525c-0.924-0.945-1.449-1.323-2.268-1.68c0.021,0.189,0.021,0.357,0.021,0.504
		c0,1.512-1.26,2.415-3.36,2.415c-1.827,0-3.108-0.882-3.108-2.142c0-1.449,1.554-2.373,3.948-2.373
		c0.399,0,0.693,0.021,1.281,0.063c0-0.189,0-0.315,0-0.357l-0.042-2.247l-0.021-2.688c-0.63,0.126-1.239,0.168-1.848,0.168
		c-1.533,0-2.415-0.378-3.465-1.47L77.285,57.117z M80.498,64.782c-1.659,0-2.688,0.546-2.688,1.47c0,0.735,0.819,1.239,2.058,1.239
		c1.155,0,1.974-0.336,2.31-0.987c0.21-0.378,0.273-0.693,0.273-1.47C81.863,64.866,81.275,64.782,80.498,64.782z"/>
	<path d="M90.746,70.641c1.113-0.651,1.617-1.281,1.617-2.037c0-0.252-0.084-0.357-0.399-0.42c-0.903-0.231-1.239-0.567-1.239-1.26
		c0-0.798,0.588-1.386,1.407-1.386c0.987,0,1.617,0.756,1.617,1.932c0,0.84-0.336,1.743-0.903,2.436
		c-0.42,0.525-0.924,0.882-1.68,1.239L90.746,70.641z"/>
	<path d="M111.578,67.974c0.231,0,0.42,0.021,0.546,0.021c1.113,0.063,1.113,0.063,2.1,0.063c0.651,0,0.819-0.063,0.966-0.357
		c0.378-0.798,0.63-2.961,0.63-5.397c0-0.882-0.042-1.722-0.126-2.457c-0.462,0.714-0.651,0.966-1.155,1.575
		c-1.155,1.365-1.974,2.121-3.339,3.129l-0.231-0.21c1.155-1.197,1.974-2.247,3.318-4.326c0.42-0.651,0.609-0.987,1.113-1.995
		c-0.21-0.861-0.378-1.365-0.714-2.184c-0.84,0.777-0.945,0.84-3.486,2.52l-0.189-0.252c1.617-1.323,2.331-1.995,3.297-3.15
		c-0.525-1.071-0.966-1.743-1.827-2.898l0.231-0.231c0.945,0.903,1.491,1.575,2.1,2.499c1.176-1.512,1.827-2.52,2.121-3.276
		c0.357,0.168,0.651,0.294,0.819,0.357c1.008,0.441,1.197,0.546,1.197,0.693s-0.168,0.21-0.504,0.21
		c-0.021,0-0.294-0.021-0.483-0.021c-1.008,1.26-1.743,2.079-2.625,2.94c1.218,2.31,1.806,4.872,1.806,8.022
		c0,1.827-0.168,3.465-0.462,4.536c-0.189,0.63-0.546,1.218-0.966,1.512c-0.357,0.252-0.735,0.399-1.617,0.567
		c-0.063-0.546-0.168-0.798-0.483-1.029c-0.315-0.252-0.735-0.357-2.058-0.525L111.578,67.974z M123.506,60.855
		c0.672,1.869,0.966,2.499,1.659,3.486c1.555-1.134,2.311-1.827,2.961-2.73c0.567,0.378,0.567,0.378,1.555,0.987
		c0.188,0.126,0.294,0.231,0.294,0.294c0,0.105-0.126,0.189-0.252,0.189c-0.021,0-0.021,0-0.042,0
		c-0.147-0.021-0.379-0.042-0.799-0.063c-1.322,0.714-1.322,0.714-3.485,1.638c0.63,0.777,1.134,1.239,2.037,1.848
		c0.734,0.525,1.658,1.008,2.289,1.239c0.378,0.147,0.65,0.21,1.344,0.315v0.315c-0.819,0.252-1.029,0.441-1.428,1.302
		c-1.513-0.819-2.353-1.449-3.402-2.583c-1.26-1.344-2.184-2.94-2.772-4.809c-0.126-0.378-0.189-0.63-0.399-1.428h-2.52v6.615
		c2.079-0.462,3.15-0.735,4.263-1.092l0.126,0.315c-1.323,0.672-3.927,1.806-6.216,2.709c-0.021,0.147-0.042,0.294-0.063,0.378
		c-0.042,0.315-0.147,0.483-0.252,0.483c-0.021,0-0.021,0-0.021,0c-0.105-0.021-0.21-0.126-0.294-0.315
		c-0.042-0.105-0.126-0.357-0.231-0.756c-0.126-0.462-0.231-0.861-0.336-1.218c0.756-0.105,1.071-0.147,1.659-0.252V55.311
		c-0.021-0.42-0.021-0.798-0.021-1.176c-0.021-0.546-0.021-0.567-0.042-1.008c0.735,0.357,0.945,0.483,1.596,0.945h2.247v-2.121
		c0-0.084,0-0.273-0.021-0.546c-0.021-0.126-0.021-0.315-0.042-0.567c2.247,0.252,2.499,0.294,2.499,0.525
		c0,0.189-0.126,0.252-0.987,0.483v2.226h2.646c0.356-0.399,0.462-0.525,0.818-0.903c0.504,0.399,0.672,0.504,1.176,0.882
		c0.168,0.105,0.231,0.21,0.231,0.315c0,0.168-0.126,0.273-0.693,0.567c-0.021,0.63-0.021,1.071-0.021,1.428
		c0,1.806,0.042,3.843,0.084,4.746c-0.042,0.168-0.084,0.252-0.21,0.273c-0.231,0.063-0.63,0.126-0.903,0.126
		c-0.21,0-0.294-0.063-0.336-0.273v-0.378H123.506z M127.202,57.138v-2.583h-6.657v2.583H127.202z M120.545,57.621v2.751h6.657
		v-2.751H120.545z"/>
	<path d="M146.48,54.723c0.504,0.756,0.84,1.113,1.449,1.512c0.734,0.462,1.364,0.693,2.457,0.903
		c0.588-2.919,0.65-3.234,0.65-3.738c0-0.714-0.294-1.155-1.134-1.743c0.168-0.063,0.231-0.084,0.357-0.084
		c0.378,0,0.924,0.231,1.554,0.651c0.672,0.462,1.092,1.05,1.092,1.512c0,0.189-0.063,0.357-0.273,0.609
		c-0.356,0.504-0.588,1.071-1.154,2.919c0.44,0.126,0.63,0.231,0.84,0.462c0.168,0.189,0.294,0.483,0.294,0.693
		c0,0.273-0.252,0.441-0.672,0.441c-0.21,0-0.483-0.042-0.819-0.105c-0.42,1.407-0.672,2.646-0.84,3.885
		c0.504,0.105,0.861,0.147,1.071,0.147c0.063,0,0.104,0,0.168-0.021c0.126-0.021,0.21-0.021,0.23-0.021
		c0.546,0,1.261,0.651,1.261,1.134c0,0.294-0.273,0.483-0.715,0.483c-0.588,0-1.47-0.147-2.226-0.378
		c-0.042,0.504-0.063,0.756-0.063,1.029c0,2.142,1.197,3.339,3.318,3.339c1.428,0,2.667-0.546,3.318-1.428
		c0.462-0.63,0.692-1.344,0.692-2.142c0-1.743-1.176-3.717-3.171-5.25l0.231-0.273c3.107,1.911,4.431,3.654,4.431,5.796
		c0,2.541-2.184,4.473-5.103,4.473c-1.093,0-2.143-0.315-2.856-0.861c-1.092-0.819-1.617-2.079-1.617-3.906
		c0-0.252,0.021-0.525,0.042-1.05c-0.818-0.378-1.238-0.63-1.68-1.071c-0.567-0.588-0.924-1.365-0.924-2.079
		c0-0.483,0.23-1.008,0.65-1.449c0.505-0.504,1.029-0.798,2.037-1.113c-0.84-0.315-1.428-0.693-2.037-1.302
		c-0.44-0.462-0.692-0.882-1.092-1.848L146.48,54.723z M147.72,59.406c-0.315,0.336-0.463,0.651-0.463,1.05
		c0,0.882,0.715,1.533,2.163,1.974c0.105-1.05,0.294-2.247,0.63-3.822C148.832,58.671,148.224,58.902,147.72,59.406z"/>
</g>
<rect x="0.25" y="10.75" fill="none" stroke="#008CD6" stroke-width="0.5" width="63" height="21"/>
<rect x="68.498" y="10.75" fill="none" stroke="#008CD6" stroke-width="0.5" width="63" height="21"/>
<rect x="142.12" y="10.75" fill="none" stroke="#008CD6" stroke-width="0.5" width="21" height="21"/>
<rect x="136.747" y="98.125" fill="none" stroke="#008CD6" stroke-width="0.5" width="21" height="21"/>
<rect x="105.248" y="98.125" fill="none" stroke="#008CD6" stroke-width="0.5" width="21" height="21"/>
<g>
	<line fill="none" stroke="#008CD6" stroke-width="0.5" x1="37" y1="10.75" x2="37" y2="0.25"/>
	<line fill="none" stroke="#008CD6" stroke-width="0.5" x1="47.5" y1="0.25" x2="47.5" y2="10.75"/>
	<path fill="none" stroke="#000000" stroke-width="0.1768" d="M37,10.75"/>
	<line fill="none" stroke="#008CD6" stroke-width="0.5" x1="58" y1="10.75" x2="58" y2="0.25"/>
	<polyline fill="none" stroke="#008CD6" stroke-width="0.5" points="37,10.75 37,0.25 68.498,0.25 68.498,10.75 	"/>
	<line fill="none" stroke="#008CD6" stroke-width="0.5" x1="68.498" y1="10.75" x2="63.248" y2="10.75"/>
</g>
<g>
	<line fill="none" stroke="#008CD6" stroke-width="0.5" x1="99.998" y1="10.75" x2="99.998" y2="0.25"/>
	<line fill="none" stroke="#008CD6" stroke-width="0.5" x1="120.998" y1="10.75" x2="120.998" y2="0.25"/>
	<polyline fill="none" stroke="#008CD6" stroke-width="0.5" points="99.998,10.75 99.998,0.25 141.997,0.25 141.997,10.75 
		131.497,10.75 131.497,0.25 	"/>
	<line fill="none" stroke="#008CD6" stroke-width="0.5" x1="110.498" y1="0.25" x2="110.498" y2="10.75"/>
</g>
<line fill="none" stroke="#008CD6" stroke-width="0.5" x1="21.25" y1="31.75" x2="21.25" y2="10.75"/>
<line fill="none" stroke="#008CD6" stroke-width="0.5" x1="42.25" y1="31.75" x2="42.25" y2="10.75"/>
<line fill="none" stroke="#008CD6" stroke-width="0.5" stroke-dasharray="2" x1="31.75" y1="31.75" x2="31.75" y2="10.75"/>
<line fill="none" stroke="#008CD6" stroke-width="0.5" x1="89.498" y1="31.75" x2="89.498" y2="10.75"/>
<line fill="none" stroke="#008CD6" stroke-width="0.5" stroke-dasharray="2" x1="99.998" y1="31.75" x2="99.998" y2="10.75"/>
<line fill="none" stroke="#008CD6" stroke-width="0.5" x1="110.498" y1="31.75" x2="110.498" y2="10.75"/>
<g>
	<path d="M33.375,89.621c0.325,0.389,0.504,0.494,0.892,0.494c0.63,0,1.417-0.273,1.995-0.683c0.042-0.031,0.095-0.052,0.147-0.052
		c0.21,0,0.588,0.315,0.588,0.504c0,0.094-0.042,0.126-0.346,0.283c-0.431,0.21-0.945,0.651-1.333,1.145
		c-0.756,0.935-1.155,1.974-1.155,2.993c0,1.417,0.788,2.299,2.037,2.299c0.956,0,1.795-0.525,2.278-1.417
		c0.347-0.661,0.525-1.543,0.525-2.656c0-1.103-0.105-1.974-0.347-2.846c-0.032-0.105-0.053-0.22-0.053-0.252
		c0-0.105,0.084-0.189,0.2-0.189h0.011c0.157,0.011,0.378,0.126,0.504,0.263c0.126,0.115,0.147,0.168,0.157,0.388
		c0.042,0.483,0.41,1.564,0.84,2.415c0.294,0.599,0.546,0.977,0.84,1.271c0.2,0.2,0.305,0.515,0.305,0.872
		c0,0.242-0.095,0.41-0.242,0.41c-0.242,0-0.525-0.368-0.945-1.218c-0.431-0.882-0.714-1.648-1.124-3.013l-0.032,0.01
		c0.21,1.491,0.242,1.869,0.242,2.636c0,1.396-0.305,2.404-0.935,3.118c-0.504,0.578-1.26,0.903-2.058,0.903
		c-1.564,0-2.593-1.176-2.593-2.972c0-0.662,0.147-1.407,0.42-2.068c0.252-0.63,0.536-1.103,1.071-1.785
		c-0.357,0.063-0.598,0.095-0.809,0.095c-0.588,0-0.955-0.252-1.229-0.84L33.375,89.621z"/>
	<path d="M46.772,96.362c0.966-0.242,1.659-0.504,2.32-0.882c1.229-0.693,1.932-1.722,1.932-2.824c0-1.05-0.777-1.764-1.922-1.764
		c-1.228,0-2.835,0.672-4.221,1.753c-0.168,0.137-0.273,0.179-0.399,0.179c-0.494,0-1.26-0.735-1.26-1.208
		c0-0.074,0.021-0.137,0.084-0.263c0.105,0.221,0.168,0.294,0.294,0.389c0.158,0.116,0.284,0.168,0.431,0.168
		c0.273,0,0.672-0.115,1.271-0.378c1.659-0.725,2.751-1.008,3.843-1.008c1.596,0,2.688,0.934,2.688,2.31
		c0,1.302-0.882,2.426-2.415,3.077c-0.798,0.336-1.565,0.515-2.594,0.609L46.772,96.362z"/>
	<path d="M61.357,95.291c-1.008,1.365-2.384,2.174-3.686,2.174c-0.798,0-1.417-0.326-1.743-0.893
		c-0.21-0.368-0.294-0.882-0.294-1.774c0-0.578,0.032-1.575,0.084-2.531c0.063-1.134,0.074-1.428,0.074-1.806
		c0-0.903-0.105-1.082-0.851-1.397c0.115-0.084,0.178-0.105,0.294-0.105c0.241,0,0.62,0.095,0.945,0.242
		c0.399,0.189,0.609,0.399,0.609,0.62c0,0.073-0.01,0.136-0.094,0.378c-0.2,0.63-0.546,3.812-0.546,5.04
		c0,0.641,0.126,1.019,0.42,1.26c0.231,0.179,0.567,0.284,0.935,0.284c0.714,0,1.596-0.252,2.394-0.672
		c0.483-0.252,0.787-0.473,1.333-0.935L61.357,95.291z M58.795,89.863c0.567,0.199,1.008,0.462,1.354,0.788
		c0.178,0.178,0.262,0.357,0.262,0.598c0,0.273-0.115,0.462-0.273,0.462c-0.084,0-0.115-0.032-0.294-0.357
		c-0.347-0.588-0.672-0.997-1.134-1.386L58.795,89.863z M59.729,89.128c0.661,0.22,1.05,0.409,1.407,0.703
		c0.189,0.158,0.252,0.284,0.252,0.525c0,0.304-0.094,0.504-0.241,0.504c-0.095,0-0.137-0.053-0.273-0.294
		c-0.283-0.483-0.661-0.893-1.218-1.323L59.729,89.128z"/>
	<path d="M96.112,91.154c0.42,0.378,0.788,0.535,1.25,0.535c0.294,0,0.567-0.031,1.05-0.136c0.011-0.305,0.011-0.777,0.011-0.966
		c0-1.103-0.126-1.323-0.851-1.449c0.147-0.116,0.231-0.147,0.452-0.147c0.357,0,0.798,0.105,1.082,0.263
		c0.136,0.073,0.231,0.22,0.231,0.336c0,0.063,0,0.063-0.116,0.273c-0.168,0.304-0.273,0.798-0.326,1.564
		c0.557-0.189,0.809-0.326,1.145-0.609c0.084-0.063,0.189-0.105,0.252-0.105c0.095,0,0.273,0.042,0.399,0.094
		c0.105,0.042,0.178,0.137,0.178,0.231c0,0.147-0.094,0.231-0.473,0.41c-0.472,0.22-0.966,0.389-1.533,0.515
		c-0.011,0.147-0.011,0.147-0.032,0.525c-0.01,0.283-0.031,0.746-0.042,1.375c1.176-0.42,1.932-0.578,2.783-0.578
		c1.438,0,2.341,0.683,2.341,1.795c0,1.029-0.787,1.827-1.795,1.827c-0.966,0-1.659-0.641-2.026-1.858l0.157-0.053
		c0.252,0.483,0.41,0.704,0.63,0.914c0.294,0.273,0.619,0.399,0.998,0.399c0.766,0,1.313-0.599,1.313-1.438
		c0-0.809-0.546-1.25-1.554-1.25c-0.83,0-1.827,0.263-2.846,0.756c0,1.113,0,1.113,0.011,1.428c0.01,0.2,0.01,0.315,0.01,0.399
		c0,0.252-0.042,0.452-0.136,0.62c-0.126,0.241-0.326,0.389-0.504,0.389c-0.147,0-0.147,0-0.788-0.567
		c-0.221-0.178-0.525-0.388-0.704-0.472c-0.231-0.105-0.347-0.263-0.347-0.441c0-0.168,0.105-0.378,0.315-0.588
		c0.388-0.399,0.745-0.63,1.669-1.082c0.01-0.147,0.01-0.304,0.021-0.504c0.021-0.473,0.021-0.473,0.052-1.512
		c-0.325,0.052-0.567,0.073-0.819,0.073c-0.672,0-1.124-0.241-1.564-0.861L96.112,91.154z M97.267,95.407
		c-0.21,0.22-0.315,0.389-0.315,0.504c0,0.105,0.137,0.221,0.42,0.326c0.231,0.094,0.515,0.168,0.651,0.168
		c0.126,0,0.178-0.074,0.189-0.263c0.052-0.945,0.073-1.459,0.073-1.522C97.792,94.924,97.529,95.123,97.267,95.407z M101.95,90.094
		c0.641,0.031,1.113,0.147,1.543,0.378c0.462,0.252,0.735,0.599,0.735,0.924c0,0.189-0.126,0.305-0.315,0.305
		c-0.021,0-0.073,0-0.157-0.021c-0.147-0.021-0.189-0.021-0.221-0.021c-0.157,0-0.409,0.053-1.292,0.284l-0.063-0.105
		c0.63-0.326,0.998-0.546,1.145-0.672c-0.168-0.294-0.336-0.462-0.662-0.651c-0.21-0.115-0.378-0.179-0.724-0.273L101.95,90.094z"/>
	<path d="M106.612,91.154c0.42,0.378,0.788,0.535,1.25,0.535c0.294,0,0.567-0.031,1.05-0.136c0.011-0.305,0.011-0.777,0.011-0.966
		c0-1.103-0.126-1.323-0.851-1.449c0.147-0.116,0.231-0.147,0.452-0.147c0.357,0,0.798,0.105,1.082,0.263
		c0.136,0.073,0.231,0.22,0.231,0.336c0,0.063,0,0.063-0.116,0.273c-0.168,0.304-0.273,0.798-0.326,1.564
		c0.557-0.189,0.809-0.326,1.145-0.609c0.084-0.063,0.189-0.105,0.252-0.105c0.095,0,0.273,0.042,0.399,0.094
		c0.105,0.042,0.178,0.137,0.178,0.231c0,0.147-0.094,0.231-0.473,0.41c-0.472,0.22-0.966,0.389-1.533,0.515
		c-0.011,0.147-0.011,0.147-0.032,0.525c-0.01,0.283-0.031,0.746-0.042,1.375c1.176-0.42,1.932-0.578,2.783-0.578
		c1.438,0,2.341,0.683,2.341,1.795c0,1.029-0.787,1.827-1.795,1.827c-0.966,0-1.659-0.641-2.026-1.858l0.157-0.053
		c0.252,0.483,0.41,0.704,0.63,0.914c0.294,0.273,0.619,0.399,0.998,0.399c0.766,0,1.313-0.599,1.313-1.438
		c0-0.809-0.546-1.25-1.554-1.25c-0.83,0-1.827,0.263-2.846,0.756c0,1.113,0,1.113,0.011,1.428c0.01,0.2,0.01,0.315,0.01,0.399
		c0,0.252-0.042,0.452-0.136,0.62c-0.126,0.241-0.326,0.389-0.504,0.389c-0.147,0-0.147,0-0.788-0.567
		c-0.221-0.178-0.525-0.388-0.704-0.472c-0.231-0.105-0.347-0.263-0.347-0.441c0-0.168,0.105-0.378,0.315-0.588
		c0.388-0.399,0.745-0.63,1.669-1.082c0.01-0.147,0.01-0.304,0.021-0.504c0.021-0.473,0.021-0.473,0.052-1.512
		c-0.325,0.052-0.567,0.073-0.819,0.073c-0.672,0-1.124-0.241-1.564-0.861L106.612,91.154z M107.767,95.407
		c-0.21,0.22-0.315,0.389-0.315,0.504c0,0.105,0.137,0.221,0.42,0.326c0.231,0.094,0.515,0.168,0.651,0.168
		c0.126,0,0.178-0.074,0.189-0.263c0.052-0.945,0.073-1.459,0.073-1.522C108.292,94.924,108.029,95.123,107.767,95.407z
		 M112.45,90.094c0.641,0.031,1.113,0.147,1.543,0.378c0.462,0.252,0.735,0.599,0.735,0.924c0,0.189-0.126,0.305-0.315,0.305
		c-0.021,0-0.073,0-0.157-0.021c-0.147-0.021-0.189-0.021-0.221-0.021c-0.157,0-0.409,0.053-1.292,0.284l-0.063-0.105
		c0.63-0.326,0.998-0.546,1.145-0.672c-0.168-0.294-0.336-0.462-0.662-0.651c-0.21-0.115-0.378-0.179-0.724-0.273L112.45,90.094z"/>
	<path d="M119.254,91.9c-0.735,0.252-1.092,0.388-1.365,0.546c-0.157,0.094-0.22,0.115-0.304,0.115
		c-0.116,0-0.326-0.136-0.462-0.315c-0.189-0.241-0.346-0.609-0.346-0.798c0-0.053,0.021-0.126,0.063-0.231
		c0.22,0.441,0.409,0.578,0.798,0.578c0.231,0,0.956-0.147,1.785-0.368c0.241-0.609,0.43-1.354,0.43-1.722
		c0-0.325-0.199-0.504-0.808-0.703c0.126-0.084,0.189-0.105,0.315-0.105c0.157,0,0.42,0.053,0.704,0.137
		c0.472,0.137,0.735,0.326,0.735,0.546c0,0.084-0.021,0.126-0.147,0.305c-0.147,0.22-0.368,0.693-0.672,1.428
		c0.462-0.105,0.661-0.126,0.913-0.126c0.903,0,1.333,0.536,1.333,1.638c0,1.344-0.535,3.087-1.145,3.77
		c-0.262,0.283-0.672,0.472-1.008,0.472c-0.179,0-0.263-0.073-0.284-0.241c-0.031-0.294-0.052-0.315-1.166-1.229l0.095-0.137
		c0.809,0.462,1.407,0.725,1.627,0.725c0.242,0,0.41-0.22,0.683-0.882c0.367-0.861,0.62-2.026,0.62-2.825
		c0-0.703-0.189-0.956-0.746-0.956c-0.315,0-0.504,0.042-1.103,0.221c-0.147,0.357-0.147,0.357-0.609,1.428
		c-0.042,0.105-0.252,0.598-0.62,1.47c-0.42,0.987-0.767,1.743-0.935,2.037c-0.073,0.136-0.157,0.199-0.252,0.199
		c-0.189,0-0.305-0.273-0.305-0.724c0-0.273,0.032-0.347,0.242-0.588c0.21-0.231,0.473-0.672,0.777-1.239
		c0.399-0.777,0.399-0.777,0.84-1.743L119.254,91.9z M123.349,91.228c0.819,0.242,1.459,0.662,1.921,1.26
		c0.399,0.514,0.599,1.019,0.599,1.491c0,0.357-0.157,0.567-0.42,0.567c-0.084,0-0.137-0.011-0.242-0.074
		c-0.168-0.094-0.231-0.105-0.43-0.105c-0.368,0-0.42,0-1.313,0.095l-0.042-0.147c1.061-0.325,1.281-0.399,1.606-0.535
		c-0.042-0.357-0.137-0.651-0.326-1.008c-0.336-0.64-0.746-1.04-1.438-1.396L123.349,91.228z"/>
	<path d="M131.213,97.423c0.767-0.62,1.113-0.966,1.491-1.491s0.63-1.019,0.935-1.816c-0.913-0.483-1.816-0.714-3.014-0.767
		c-0.641,1.166-0.913,1.606-1.271,2.079c-0.389,0.483-0.714,0.725-1.008,0.725c-0.44,0-0.809-0.504-0.809-1.113
		c0-0.535,0.263-1.071,0.714-1.449c0.462-0.389,1.155-0.63,1.995-0.693c0.147-0.252,0.168-0.325,0.746-1.648
		c0.336-0.798,0.378-0.914,0.546-1.48c-0.252,0.063-0.977,0.294-1.513,0.483c-0.168,0.053-0.252,0.074-0.346,0.074
		c-0.326,0-0.662-0.515-0.662-1.019c0-0.105,0.021-0.157,0.115-0.242c0.211,0.483,0.399,0.641,0.788,0.641
		c0.272,0,0.599-0.052,1.113-0.178c0.272-0.074,0.314-0.095,0.462-0.221c0.063-0.073,0.126-0.094,0.22-0.094
		c0.231,0,0.757,0.556,0.757,0.819c0,0.084-0.042,0.157-0.158,0.241c-0.241,0.2-0.336,0.347-1.061,1.785
		c-0.283,0.567-0.325,0.651-0.43,0.851c1.061,0.052,1.974,0.231,3.013,0.599c0.179-0.546,0.347-1.354,0.347-1.69
		c0-0.284-0.146-0.473-0.546-0.725c0.073-0.053,0.115-0.063,0.189-0.063c0.178,0,0.42,0.084,0.734,0.241
		c0.336,0.168,0.494,0.336,0.494,0.525c0,0.105-0.011,0.157-0.095,0.367c-0.031,0.074-0.095,0.294-0.252,0.788
		c-0.053,0.189-0.095,0.315-0.242,0.798c1.261,0.63,1.597,0.935,1.597,1.491c0,0.21-0.105,0.378-0.242,0.378
		c-0.094,0-0.168-0.053-0.356-0.221c-0.336-0.336-0.683-0.609-1.25-0.987c-0.462,1.008-0.787,1.512-1.344,2.047
		c-0.473,0.452-0.902,0.756-1.575,1.082L131.213,97.423z M127.99,94.787c0,0.389,0.22,0.756,0.451,0.756
		c0.347,0,0.787-0.609,1.596-2.205C128.693,93.485,127.99,93.979,127.99,94.787z"/>
	<path d="M3.113,104.279c0.294,0.273,0.525,0.357,0.945,0.357c0.588,0,1.113-0.105,5.817-1.239c0.882-0.231,2.016-0.462,3.402-0.735
		c1.596-0.336,2.205-0.483,2.835-0.693c0.42-0.126,0.567-0.168,0.735-0.168c0.252,0,0.714,0.189,1.134,0.441
		c0.42,0.273,0.609,0.504,0.609,0.798c0,0.315-0.252,0.525-0.651,0.525c-0.084,0-0.231,0-0.378-0.021
		c-0.273-0.042-0.378-0.042-0.588-0.042c-3.591,0-7.056,3.423-7.056,6.951c0,1.932,0.966,3.381,2.772,4.158
		c0.714,0.294,1.512,0.483,2.142,0.504c0.42,0,0.588,0.063,0.882,0.336c0.399,0.378,0.63,0.756,0.63,1.008
		c0,0.336-0.315,0.588-0.756,0.588c-1.218,0-3.108-0.672-4.284-1.512c-1.596-1.134-2.436-2.772-2.436-4.704
		c0-1.701,0.84-3.591,2.289-5.124c0.84-0.924,1.659-1.491,3.423-2.415c-1.911,0.273-3.633,0.693-6.027,1.47
		c-1.323,0.42-2.688,0.987-3.36,1.344c-0.42,0.252-0.567,0.294-0.84,0.294c-0.504,0-1.134-0.483-1.617-1.239
		c-0.336-0.504-0.546-1.071-0.546-1.407c0-0.168,0.042-0.294,0.231-0.567C2.609,103.712,2.777,103.985,3.113,104.279z
		 M15.23,105.477c0.777,0.336,1.554,0.756,2.1,1.155c0.567,0.441,0.819,0.819,0.819,1.302c0,0.588-0.231,1.029-0.525,1.029
		c-0.189,0-0.231-0.063-0.63-0.798c-0.42-0.777-1.134-1.68-1.953-2.436L15.23,105.477z M17.246,104.615
		c0.882,0.252,1.491,0.504,2.079,0.84c0.651,0.378,0.924,0.777,0.924,1.344s-0.21,1.008-0.504,1.008
		c-0.147,0-0.273-0.105-0.42-0.441c-0.462-0.945-1.176-1.743-2.226-2.52L17.246,104.615z"/>
	<path d="M22.938,105.708c1.05-0.609,1.596-1.281,1.596-2.016c0-0.336-0.021-0.357-0.672-0.504c-0.567-0.147-0.945-0.63-0.945-1.218
		c0-0.777,0.63-1.365,1.428-1.365c0.945,0,1.596,0.777,1.596,1.911c0,1.533-0.987,2.94-2.583,3.696L22.938,105.708z M27.053,105.708
		c1.05-0.609,1.596-1.281,1.596-2.016c0-0.336-0.021-0.357-0.672-0.504c-0.567-0.147-0.945-0.63-0.945-1.218
		c0-0.777,0.63-1.365,1.428-1.365c0.945,0,1.596,0.777,1.596,1.911c0,1.533-0.987,2.94-2.583,3.696L27.053,105.708z"/>
	<path d="M48.116,107.324h4.032c0.462-0.609,0.609-0.777,1.113-1.323c0.798,0.63,1.05,0.84,1.827,1.554
		c0.042,0.042,0.084,0.105,0.084,0.147c0,0.063-0.105,0.105-0.252,0.105h-6.804v3.843h5.859c0.546-0.651,0.714-0.84,1.281-1.428
		c0.819,0.693,1.05,0.924,1.827,1.659c0.042,0.042,0.063,0.105,0.063,0.126c0,0.063-0.105,0.126-0.21,0.126h-8.82v1.113
		c0,2.499,0.021,4.032,0.042,4.599c-0.042,0.168-0.084,0.21-0.252,0.252c-0.126,0.042-0.798,0.105-1.029,0.105
		s-0.315-0.063-0.315-0.252c0.042-1.491,0.063-3.024,0.063-4.704v-1.113h-6.3c-0.714,0-1.575,0.042-2.121,0.105l-0.147-0.798
		c0.882,0.147,1.596,0.21,2.415,0.21h6.153v-3.843h-4.557c-0.441,0-1.197,0.042-1.89,0.126l-0.126-0.777
		c0.798,0.126,1.365,0.168,2.1,0.168h4.473v-3.465h-5.502c-0.483,0-1.155,0.042-1.89,0.147l-0.105-0.861
		c0.63,0.126,1.512,0.231,1.995,0.231h3.255c-0.231-0.21-0.231-0.231-0.441-0.84c-0.168-0.567-0.567-1.323-0.966-1.974
		c-0.231-0.336-0.441-0.567-0.903-1.029l0.189-0.252c1.008,0.504,1.596,0.903,2.352,1.575c0.588,0.546,0.84,0.924,0.84,1.302
		c0,0.399-0.231,0.861-0.588,1.218h3.906c1.26-1.974,1.575-2.604,2.079-4.095c1.911,0.588,2.331,0.756,2.331,0.987
		s-0.21,0.294-1.029,0.294c-1.302,1.449-1.659,1.806-2.835,2.814h4.032c0.483-0.651,0.63-0.84,1.155-1.449
		c0.84,0.672,1.092,0.882,1.848,1.617c0.042,0.063,0.084,0.126,0.084,0.168c0,0.084-0.126,0.147-0.294,0.147h-8.022V107.324z"/>
	<path d="M69.935,109.067c-0.378,1.323-0.966,3.612-1.218,4.641c-0.21,0.924-0.273,1.26-0.273,1.785
		c-0.021,0.672-0.042,0.756-0.147,0.924c-0.105,0.147-0.231,0.231-0.399,0.231c-0.357,0-0.651-0.294-0.903-0.945
		c-0.42-1.071-0.672-2.667-0.672-4.221c0-1.932,0.231-3.696,0.945-6.993c0.273-1.302,0.315-1.533,0.315-1.89
		c0-0.63-0.168-1.134-0.609-1.848c0.483,0.021,0.882,0.294,1.47,1.05c0.483,0.609,0.756,1.197,0.756,1.596
		c0,0.231,0,0.231-0.336,0.924c-1.008,2.1-1.596,4.599-1.596,6.846c0,1.071,0.084,1.743,0.336,2.604l0.882-2.1l1.134-2.709
		L69.935,109.067z M72.035,105.267c1.008,0.651,1.659,0.861,2.709,0.861c0.735,0,1.533-0.105,2.394-0.294c0-0.399,0-0.735,0-0.924
		c0-2.352-0.021-2.625-0.294-2.919c-0.252-0.273-0.714-0.42-1.386-0.483c0.294-0.273,0.462-0.336,1.008-0.336
		c0.462,0,1.029,0.084,1.428,0.189c0.609,0.189,0.924,0.441,0.924,0.756c0,0.147,0,0.168-0.189,0.651
		c-0.231,0.609-0.357,1.365-0.441,2.814c0.966-0.273,1.575-0.546,1.932-0.861c0.21-0.21,0.273-0.231,0.462-0.231
		c0.252,0,0.735,0.126,0.987,0.273c0.168,0.084,0.273,0.231,0.273,0.378c0,0.462-1.533,1.092-3.717,1.512
		c0,2.793,0.063,3.948,0.273,5.712c2.436,0.651,3.465,1.47,3.465,2.688c0,0.441-0.189,0.777-0.42,0.777
		c-0.168,0-0.315-0.105-0.735-0.525c-0.924-0.945-1.449-1.323-2.268-1.68c0.021,0.189,0.021,0.357,0.021,0.504
		c0,1.512-1.26,2.415-3.36,2.415c-1.827,0-3.108-0.882-3.108-2.142c0-1.449,1.554-2.373,3.948-2.373
		c0.399,0,0.693,0.021,1.281,0.063c0-0.189,0-0.315,0-0.357l-0.042-2.247l-0.021-2.688c-0.63,0.126-1.239,0.168-1.848,0.168
		c-1.533,0-2.415-0.378-3.465-1.47L72.035,105.267z M75.248,112.932c-1.659,0-2.688,0.546-2.688,1.47
		c0,0.735,0.819,1.239,2.058,1.239c1.155,0,1.974-0.336,2.31-0.987c0.21-0.378,0.273-0.693,0.273-1.47
		C76.613,113.016,76.025,112.932,75.248,112.932z"/>
	<path d="M85.496,118.791c1.113-0.651,1.617-1.281,1.617-2.037c0-0.252-0.084-0.357-0.399-0.42c-0.903-0.231-1.239-0.567-1.239-1.26
		c0-0.798,0.588-1.386,1.407-1.386c0.987,0,1.617,0.756,1.617,1.932c0,0.84-0.336,1.743-0.903,2.436
		c-0.42,0.525-0.924,0.882-1.68,1.239L85.496,118.791z"/>
	<path d="M106.328,116.124c0.231,0,0.42,0.021,0.546,0.021c1.113,0.063,1.113,0.063,2.1,0.063c0.651,0,0.819-0.063,0.966-0.357
		c0.378-0.798,0.63-2.961,0.63-5.397c0-0.882-0.042-1.722-0.126-2.457c-0.462,0.714-0.651,0.966-1.155,1.575
		c-1.155,1.365-1.974,2.121-3.339,3.129l-0.231-0.21c1.155-1.197,1.974-2.247,3.318-4.326c0.42-0.651,0.609-0.987,1.113-1.995
		c-0.21-0.861-0.378-1.365-0.714-2.184c-0.84,0.777-0.945,0.84-3.486,2.52l-0.189-0.252c1.617-1.323,2.331-1.995,3.297-3.15
		c-0.525-1.071-0.966-1.743-1.827-2.898l0.231-0.231c0.945,0.903,1.491,1.575,2.1,2.499c1.176-1.512,1.827-2.52,2.121-3.276
		c0.357,0.168,0.651,0.294,0.819,0.357c1.008,0.441,1.197,0.546,1.197,0.693s-0.168,0.21-0.504,0.21
		c-0.021,0-0.294-0.021-0.483-0.021c-1.008,1.26-1.743,2.079-2.625,2.94c1.218,2.31,1.806,4.872,1.806,8.022
		c0,1.827-0.168,3.465-0.462,4.536c-0.189,0.63-0.546,1.218-0.966,1.512c-0.357,0.252-0.735,0.399-1.617,0.567
		c-0.063-0.546-0.168-0.798-0.483-1.029c-0.315-0.252-0.735-0.357-2.058-0.525L106.328,116.124z M118.256,109.004
		c0.672,1.869,0.966,2.499,1.659,3.486c1.554-1.134,2.31-1.827,2.961-2.73c0.567,0.378,0.567,0.378,1.554,0.987
		c0.189,0.126,0.294,0.231,0.294,0.294c0,0.105-0.126,0.189-0.252,0.189c-0.021,0-0.021,0-0.042,0
		c-0.147-0.021-0.378-0.042-0.798-0.063c-1.323,0.714-1.323,0.714-3.486,1.638c0.63,0.777,1.134,1.239,2.037,1.848
		c0.735,0.525,1.659,1.008,2.289,1.239c0.378,0.147,0.651,0.21,1.344,0.315v0.315c-0.819,0.252-1.029,0.441-1.428,1.302
		c-1.512-0.819-2.352-1.449-3.402-2.583c-1.26-1.344-2.184-2.94-2.772-4.809c-0.126-0.378-0.189-0.63-0.399-1.428h-2.52v6.615
		c2.079-0.462,3.15-0.735,4.263-1.092l0.126,0.315c-1.323,0.672-3.927,1.806-6.216,2.709c-0.021,0.147-0.042,0.294-0.063,0.378
		c-0.042,0.315-0.147,0.483-0.252,0.483c-0.021,0-0.021,0-0.021,0c-0.105-0.021-0.21-0.126-0.294-0.315
		c-0.042-0.105-0.126-0.357-0.231-0.756c-0.126-0.462-0.231-0.861-0.336-1.218c0.756-0.105,1.071-0.147,1.659-0.252V103.46
		c-0.021-0.42-0.021-0.798-0.021-1.176c-0.021-0.546-0.021-0.567-0.042-1.008c0.735,0.357,0.945,0.483,1.596,0.945h2.247v-2.121
		c0-0.084,0-0.273-0.021-0.546c-0.021-0.126-0.021-0.315-0.042-0.567c2.247,0.252,2.499,0.294,2.499,0.525
		c0,0.189-0.126,0.252-0.987,0.483v2.226h2.646c0.357-0.399,0.462-0.525,0.819-0.903c0.504,0.399,0.672,0.504,1.176,0.882
		c0.168,0.105,0.231,0.21,0.231,0.315c0,0.168-0.126,0.273-0.693,0.567c-0.021,0.63-0.021,1.071-0.021,1.428
		c0,1.806,0.042,3.843,0.084,4.746c-0.042,0.168-0.084,0.252-0.21,0.273c-0.231,0.063-0.63,0.126-0.903,0.126
		c-0.21,0-0.294-0.063-0.336-0.273v-0.378H118.256z M121.952,105.288v-2.583h-6.657v2.583H121.952z M115.295,105.771v2.751h6.657
		v-2.751H115.295z"/>
	<path d="M141.23,102.873c0.504,0.756,0.84,1.113,1.449,1.512c0.734,0.462,1.364,0.693,2.457,0.903
		c0.588-2.919,0.65-3.234,0.65-3.738c0-0.714-0.294-1.155-1.134-1.743c0.168-0.063,0.231-0.084,0.357-0.084
		c0.378,0,0.924,0.231,1.554,0.651c0.672,0.462,1.092,1.05,1.092,1.512c0,0.189-0.063,0.357-0.273,0.609
		c-0.356,0.504-0.588,1.071-1.154,2.919c0.44,0.126,0.63,0.231,0.84,0.462c0.168,0.189,0.294,0.483,0.294,0.693
		c0,0.273-0.252,0.441-0.672,0.441c-0.21,0-0.483-0.042-0.819-0.105c-0.42,1.407-0.672,2.646-0.84,3.885
		c0.504,0.105,0.861,0.147,1.071,0.147c0.063,0,0.104,0,0.168-0.021c0.126-0.021,0.21-0.021,0.23-0.021
		c0.546,0,1.261,0.651,1.261,1.134c0,0.294-0.273,0.483-0.715,0.483c-0.588,0-1.47-0.147-2.226-0.378
		c-0.042,0.504-0.063,0.756-0.063,1.029c0,2.142,1.197,3.339,3.318,3.339c1.428,0,2.667-0.546,3.318-1.428
		c0.462-0.63,0.692-1.344,0.692-2.142c0-1.743-1.176-3.717-3.171-5.25l0.231-0.273c3.107,1.911,4.431,3.654,4.431,5.796
		c0,2.541-2.184,4.473-5.103,4.473c-1.093,0-2.143-0.315-2.856-0.861c-1.092-0.819-1.617-2.079-1.617-3.906
		c0-0.252,0.021-0.525,0.042-1.05c-0.818-0.378-1.238-0.63-1.68-1.071c-0.567-0.588-0.924-1.365-0.924-2.079
		c0-0.483,0.23-1.008,0.65-1.449c0.505-0.504,1.029-0.798,2.037-1.113c-0.84-0.315-1.428-0.693-2.037-1.302
		c-0.44-0.462-0.692-0.882-1.092-1.848L141.23,102.873z M142.47,107.556c-0.315,0.336-0.463,0.651-0.463,1.05
		c0,0.882,0.715,1.533,2.163,1.974c0.105-1.05,0.294-2.247,0.63-3.822C143.582,106.82,142.974,107.051,142.47,107.556z"/>
</g>
<g>
	<path d="M33.375,128.847c0.325,0.389,0.504,0.494,0.892,0.494c0.63,0,1.417-0.273,1.995-0.683c0.042-0.031,0.095-0.052,0.147-0.052
		c0.21,0,0.588,0.315,0.588,0.504c0,0.094-0.042,0.126-0.346,0.283c-0.431,0.21-0.945,0.651-1.333,1.145
		c-0.756,0.935-1.155,1.974-1.155,2.993c0,1.417,0.788,2.299,2.037,2.299c0.956,0,1.795-0.525,2.278-1.417
		c0.347-0.661,0.525-1.543,0.525-2.656c0-1.103-0.105-1.974-0.347-2.846c-0.032-0.105-0.053-0.22-0.053-0.252
		c0-0.105,0.084-0.189,0.2-0.189h0.011c0.157,0.011,0.378,0.126,0.504,0.263c0.126,0.115,0.147,0.168,0.157,0.388
		c0.042,0.483,0.41,1.564,0.84,2.415c0.294,0.599,0.546,0.977,0.84,1.271c0.2,0.2,0.305,0.515,0.305,0.872
		c0,0.242-0.095,0.41-0.242,0.41c-0.242,0-0.525-0.368-0.945-1.218c-0.431-0.882-0.714-1.648-1.124-3.013l-0.032,0.01
		c0.21,1.491,0.242,1.869,0.242,2.636c0,1.396-0.305,2.404-0.935,3.118c-0.504,0.578-1.26,0.903-2.058,0.903
		c-1.564,0-2.593-1.176-2.593-2.972c0-0.662,0.147-1.407,0.42-2.068c0.252-0.63,0.536-1.103,1.071-1.785
		c-0.357,0.063-0.598,0.095-0.809,0.095c-0.588,0-0.955-0.252-1.229-0.84L33.375,128.847z"/>
	<path d="M46.772,135.588c0.966-0.242,1.659-0.504,2.32-0.882c1.229-0.693,1.932-1.722,1.932-2.824c0-1.05-0.777-1.764-1.922-1.764
		c-1.228,0-2.835,0.672-4.221,1.753c-0.168,0.137-0.273,0.179-0.399,0.179c-0.494,0-1.26-0.735-1.26-1.208
		c0-0.074,0.021-0.137,0.084-0.263c0.105,0.221,0.168,0.294,0.294,0.389c0.158,0.116,0.284,0.168,0.431,0.168
		c0.273,0,0.672-0.115,1.271-0.378c1.659-0.725,2.751-1.008,3.843-1.008c1.596,0,2.688,0.934,2.688,2.31
		c0,1.302-0.882,2.426-2.415,3.077c-0.798,0.336-1.565,0.515-2.594,0.609L46.772,135.588z"/>
	<path d="M61.357,134.517c-1.008,1.365-2.384,2.174-3.686,2.174c-0.798,0-1.417-0.326-1.743-0.893
		c-0.21-0.368-0.294-0.882-0.294-1.774c0-0.578,0.032-1.575,0.084-2.531c0.063-1.134,0.074-1.428,0.074-1.806
		c0-0.903-0.105-1.082-0.851-1.397c0.115-0.084,0.178-0.105,0.294-0.105c0.241,0,0.62,0.095,0.945,0.242
		c0.399,0.189,0.609,0.399,0.609,0.62c0,0.073-0.01,0.136-0.094,0.378c-0.2,0.63-0.546,3.812-0.546,5.04
		c0,0.641,0.126,1.019,0.42,1.26c0.231,0.179,0.567,0.284,0.935,0.284c0.714,0,1.596-0.252,2.394-0.672
		c0.483-0.252,0.787-0.473,1.333-0.935L61.357,134.517z M58.795,129.088c0.567,0.199,1.008,0.462,1.354,0.788
		c0.178,0.178,0.262,0.357,0.262,0.598c0,0.273-0.115,0.462-0.273,0.462c-0.084,0-0.115-0.032-0.294-0.357
		c-0.347-0.588-0.672-0.997-1.134-1.386L58.795,129.088z M59.729,128.354c0.661,0.22,1.05,0.409,1.407,0.703
		c0.189,0.158,0.252,0.284,0.252,0.525c0,0.304-0.094,0.504-0.241,0.504c-0.095,0-0.137-0.053-0.273-0.294
		c-0.283-0.483-0.661-0.893-1.218-1.323L59.729,128.354z"/>
	<path d="M96.112,130.38c0.42,0.378,0.788,0.535,1.25,0.535c0.294,0,0.567-0.031,1.05-0.136c0.011-0.305,0.011-0.777,0.011-0.966
		c0-1.103-0.126-1.323-0.851-1.449c0.147-0.116,0.231-0.147,0.452-0.147c0.357,0,0.798,0.105,1.082,0.263
		c0.136,0.073,0.231,0.22,0.231,0.336c0,0.063,0,0.063-0.116,0.273c-0.168,0.304-0.273,0.798-0.326,1.564
		c0.557-0.189,0.809-0.326,1.145-0.609c0.084-0.063,0.189-0.105,0.252-0.105c0.095,0,0.273,0.042,0.399,0.094
		c0.105,0.042,0.178,0.137,0.178,0.231c0,0.147-0.094,0.231-0.473,0.41c-0.472,0.22-0.966,0.389-1.533,0.515
		c-0.011,0.147-0.011,0.147-0.032,0.525c-0.01,0.283-0.031,0.746-0.042,1.375c1.176-0.42,1.932-0.578,2.783-0.578
		c1.438,0,2.341,0.683,2.341,1.795c0,1.029-0.787,1.827-1.795,1.827c-0.966,0-1.659-0.641-2.026-1.858l0.157-0.053
		c0.252,0.483,0.41,0.704,0.63,0.914c0.294,0.273,0.619,0.399,0.998,0.399c0.766,0,1.313-0.599,1.313-1.438
		c0-0.809-0.546-1.25-1.554-1.25c-0.83,0-1.827,0.263-2.846,0.756c0,1.113,0,1.113,0.011,1.428c0.01,0.2,0.01,0.315,0.01,0.399
		c0,0.252-0.042,0.452-0.136,0.62c-0.126,0.241-0.326,0.389-0.504,0.389c-0.147,0-0.147,0-0.788-0.567
		c-0.221-0.178-0.525-0.388-0.704-0.472c-0.231-0.105-0.347-0.263-0.347-0.441c0-0.168,0.105-0.378,0.315-0.588
		c0.388-0.399,0.745-0.63,1.669-1.082c0.01-0.147,0.01-0.304,0.021-0.504c0.021-0.473,0.021-0.473,0.052-1.512
		c-0.325,0.052-0.567,0.073-0.819,0.073c-0.672,0-1.124-0.241-1.564-0.861L96.112,130.38z M97.267,134.632
		c-0.21,0.22-0.315,0.389-0.315,0.504c0,0.105,0.137,0.221,0.42,0.326c0.231,0.094,0.515,0.168,0.651,0.168
		c0.126,0,0.178-0.074,0.189-0.263c0.052-0.945,0.073-1.459,0.073-1.522C97.792,134.149,97.529,134.349,97.267,134.632z
		 M101.95,129.319c0.641,0.031,1.113,0.147,1.543,0.378c0.462,0.252,0.735,0.599,0.735,0.924c0,0.189-0.126,0.305-0.315,0.305
		c-0.021,0-0.073,0-0.157-0.021c-0.147-0.021-0.189-0.021-0.221-0.021c-0.157,0-0.409,0.053-1.292,0.284l-0.063-0.105
		c0.63-0.326,0.998-0.546,1.145-0.672c-0.168-0.294-0.336-0.462-0.662-0.651c-0.21-0.115-0.378-0.179-0.724-0.273L101.95,129.319z"
		/>
	<path d="M106.612,130.38c0.42,0.378,0.788,0.535,1.25,0.535c0.294,0,0.567-0.031,1.05-0.136c0.011-0.305,0.011-0.777,0.011-0.966
		c0-1.103-0.126-1.323-0.851-1.449c0.147-0.116,0.231-0.147,0.452-0.147c0.357,0,0.798,0.105,1.082,0.263
		c0.136,0.073,0.231,0.22,0.231,0.336c0,0.063,0,0.063-0.116,0.273c-0.168,0.304-0.273,0.798-0.326,1.564
		c0.557-0.189,0.809-0.326,1.145-0.609c0.084-0.063,0.189-0.105,0.252-0.105c0.095,0,0.273,0.042,0.399,0.094
		c0.105,0.042,0.178,0.137,0.178,0.231c0,0.147-0.094,0.231-0.473,0.41c-0.472,0.22-0.966,0.389-1.533,0.515
		c-0.011,0.147-0.011,0.147-0.032,0.525c-0.01,0.283-0.031,0.746-0.042,1.375c1.176-0.42,1.932-0.578,2.783-0.578
		c1.438,0,2.341,0.683,2.341,1.795c0,1.029-0.787,1.827-1.795,1.827c-0.966,0-1.659-0.641-2.026-1.858l0.157-0.053
		c0.252,0.483,0.41,0.704,0.63,0.914c0.294,0.273,0.619,0.399,0.998,0.399c0.766,0,1.313-0.599,1.313-1.438
		c0-0.809-0.546-1.25-1.554-1.25c-0.83,0-1.827,0.263-2.846,0.756c0,1.113,0,1.113,0.011,1.428c0.01,0.2,0.01,0.315,0.01,0.399
		c0,0.252-0.042,0.452-0.136,0.62c-0.126,0.241-0.326,0.389-0.504,0.389c-0.147,0-0.147,0-0.788-0.567
		c-0.221-0.178-0.525-0.388-0.704-0.472c-0.231-0.105-0.347-0.263-0.347-0.441c0-0.168,0.105-0.378,0.315-0.588
		c0.388-0.399,0.745-0.63,1.669-1.082c0.01-0.147,0.01-0.304,0.021-0.504c0.021-0.473,0.021-0.473,0.052-1.512
		c-0.325,0.052-0.567,0.073-0.819,0.073c-0.672,0-1.124-0.241-1.564-0.861L106.612,130.38z M107.767,134.632
		c-0.21,0.22-0.315,0.389-0.315,0.504c0,0.105,0.137,0.221,0.42,0.326c0.231,0.094,0.515,0.168,0.651,0.168
		c0.126,0,0.178-0.074,0.189-0.263c0.052-0.945,0.073-1.459,0.073-1.522C108.292,134.149,108.029,134.349,107.767,134.632z
		 M112.45,129.319c0.641,0.031,1.113,0.147,1.543,0.378c0.462,0.252,0.735,0.599,0.735,0.924c0,0.189-0.126,0.305-0.315,0.305
		c-0.021,0-0.073,0-0.157-0.021c-0.147-0.021-0.189-0.021-0.221-0.021c-0.157,0-0.409,0.053-1.292,0.284l-0.063-0.105
		c0.63-0.326,0.998-0.546,1.145-0.672c-0.168-0.294-0.336-0.462-0.662-0.651c-0.21-0.115-0.378-0.179-0.724-0.273L112.45,129.319z"
		/>
	<path d="M119.254,131.125c-0.735,0.252-1.092,0.388-1.365,0.546c-0.157,0.094-0.22,0.115-0.304,0.115
		c-0.116,0-0.326-0.136-0.462-0.315c-0.189-0.241-0.346-0.609-0.346-0.798c0-0.053,0.021-0.126,0.063-0.231
		c0.22,0.441,0.409,0.578,0.798,0.578c0.231,0,0.956-0.147,1.785-0.368c0.241-0.609,0.43-1.354,0.43-1.722
		c0-0.325-0.199-0.504-0.808-0.703c0.126-0.084,0.189-0.105,0.315-0.105c0.157,0,0.42,0.053,0.704,0.137
		c0.472,0.137,0.735,0.326,0.735,0.546c0,0.084-0.021,0.126-0.147,0.305c-0.147,0.22-0.368,0.693-0.672,1.428
		c0.462-0.105,0.661-0.126,0.913-0.126c0.903,0,1.333,0.536,1.333,1.638c0,1.344-0.535,3.087-1.145,3.77
		c-0.262,0.283-0.672,0.472-1.008,0.472c-0.179,0-0.263-0.073-0.284-0.241c-0.031-0.294-0.052-0.315-1.166-1.229l0.095-0.137
		c0.809,0.462,1.407,0.725,1.627,0.725c0.242,0,0.41-0.22,0.683-0.882c0.367-0.861,0.62-2.026,0.62-2.825
		c0-0.703-0.189-0.956-0.746-0.956c-0.315,0-0.504,0.042-1.103,0.221c-0.147,0.357-0.147,0.357-0.609,1.428
		c-0.042,0.105-0.252,0.598-0.62,1.47c-0.42,0.987-0.767,1.743-0.935,2.037c-0.073,0.136-0.157,0.199-0.252,0.199
		c-0.189,0-0.305-0.273-0.305-0.724c0-0.273,0.032-0.347,0.242-0.588c0.21-0.231,0.473-0.672,0.777-1.239
		c0.399-0.777,0.399-0.777,0.84-1.743L119.254,131.125z M123.349,130.453c0.819,0.242,1.459,0.662,1.921,1.26
		c0.399,0.514,0.599,1.019,0.599,1.491c0,0.357-0.157,0.567-0.42,0.567c-0.084,0-0.137-0.011-0.242-0.074
		c-0.168-0.094-0.231-0.105-0.43-0.105c-0.368,0-0.42,0-1.313,0.095l-0.042-0.147c1.061-0.325,1.281-0.399,1.606-0.535
		c-0.042-0.357-0.137-0.651-0.326-1.008c-0.336-0.64-0.746-1.04-1.438-1.396L123.349,130.453z"/>
	<path d="M131.213,136.648c0.767-0.62,1.113-0.966,1.491-1.491s0.63-1.019,0.935-1.816c-0.913-0.483-1.816-0.714-3.014-0.767
		c-0.641,1.166-0.913,1.606-1.271,2.079c-0.389,0.483-0.714,0.725-1.008,0.725c-0.44,0-0.809-0.504-0.809-1.113
		c0-0.535,0.263-1.071,0.714-1.449c0.462-0.389,1.155-0.63,1.995-0.693c0.147-0.252,0.168-0.325,0.746-1.648
		c0.336-0.798,0.378-0.914,0.546-1.48c-0.252,0.063-0.977,0.294-1.513,0.483c-0.168,0.053-0.252,0.074-0.346,0.074
		c-0.326,0-0.662-0.515-0.662-1.019c0-0.105,0.021-0.157,0.115-0.242c0.211,0.483,0.399,0.641,0.788,0.641
		c0.272,0,0.599-0.052,1.113-0.178c0.272-0.074,0.314-0.095,0.462-0.221c0.063-0.073,0.126-0.094,0.22-0.094
		c0.231,0,0.757,0.556,0.757,0.819c0,0.084-0.042,0.157-0.158,0.241c-0.241,0.2-0.336,0.347-1.061,1.785
		c-0.283,0.567-0.325,0.651-0.43,0.851c1.061,0.052,1.974,0.231,3.013,0.599c0.179-0.546,0.347-1.354,0.347-1.69
		c0-0.284-0.146-0.473-0.546-0.725c0.073-0.053,0.115-0.063,0.189-0.063c0.178,0,0.42,0.084,0.734,0.241
		c0.336,0.168,0.494,0.336,0.494,0.525c0,0.105-0.011,0.157-0.095,0.367c-0.031,0.074-0.095,0.294-0.252,0.788
		c-0.053,0.189-0.095,0.315-0.242,0.798c1.261,0.63,1.597,0.935,1.597,1.491c0,0.21-0.105,0.378-0.242,0.378
		c-0.094,0-0.168-0.053-0.356-0.221c-0.336-0.336-0.683-0.609-1.25-0.987c-0.462,1.008-0.787,1.512-1.344,2.047
		c-0.473,0.452-0.902,0.756-1.575,1.082L131.213,136.648z M127.99,134.013c0,0.389,0.22,0.756,0.451,0.756
		c0.347,0,0.787-0.609,1.596-2.205C128.693,132.711,127.99,133.204,127.99,134.013z"/>
	<path d="M3.113,143.505c0.294,0.273,0.525,0.357,0.945,0.357c0.588,0,1.113-0.105,5.817-1.239c0.882-0.231,2.016-0.462,3.402-0.735
		c1.596-0.336,2.205-0.483,2.835-0.693c0.42-0.126,0.567-0.168,0.735-0.168c0.252,0,0.714,0.189,1.134,0.441
		c0.42,0.273,0.609,0.504,0.609,0.798c0,0.315-0.252,0.525-0.651,0.525c-0.084,0-0.231,0-0.378-0.021
		c-0.273-0.042-0.378-0.042-0.588-0.042c-3.591,0-7.056,3.423-7.056,6.951c0,1.932,0.966,3.381,2.772,4.158
		c0.714,0.294,1.512,0.483,2.142,0.504c0.42,0,0.588,0.063,0.882,0.336c0.399,0.378,0.63,0.756,0.63,1.008
		c0,0.336-0.315,0.588-0.756,0.588c-1.218,0-3.108-0.672-4.284-1.512c-1.596-1.134-2.436-2.772-2.436-4.704
		c0-1.701,0.84-3.591,2.289-5.124c0.84-0.924,1.659-1.491,3.423-2.415c-1.911,0.273-3.633,0.693-6.027,1.47
		c-1.323,0.42-2.688,0.987-3.36,1.344c-0.42,0.252-0.567,0.294-0.84,0.294c-0.504,0-1.134-0.483-1.617-1.239
		c-0.336-0.504-0.546-1.071-0.546-1.407c0-0.168,0.042-0.294,0.231-0.567C2.609,142.938,2.777,143.211,3.113,143.505z
		 M15.23,144.702c0.777,0.336,1.554,0.756,2.1,1.155c0.567,0.441,0.819,0.819,0.819,1.302c0,0.588-0.231,1.029-0.525,1.029
		c-0.189,0-0.231-0.063-0.63-0.798c-0.42-0.777-1.134-1.68-1.953-2.436L15.23,144.702z M17.246,143.841
		c0.882,0.252,1.491,0.504,2.079,0.84c0.651,0.378,0.924,0.777,0.924,1.344s-0.21,1.008-0.504,1.008
		c-0.147,0-0.273-0.105-0.42-0.441c-0.462-0.945-1.176-1.743-2.226-2.52L17.246,143.841z"/>
	<path d="M22.938,144.933c1.05-0.609,1.596-1.281,1.596-2.016c0-0.336-0.021-0.357-0.672-0.504c-0.567-0.147-0.945-0.63-0.945-1.218
		c0-0.777,0.63-1.365,1.428-1.365c0.945,0,1.596,0.777,1.596,1.911c0,1.533-0.987,2.94-2.583,3.696L22.938,144.933z M27.053,144.933
		c1.05-0.609,1.596-1.281,1.596-2.016c0-0.336-0.021-0.357-0.672-0.504c-0.567-0.147-0.945-0.63-0.945-1.218
		c0-0.777,0.63-1.365,1.428-1.365c0.945,0,1.596,0.777,1.596,1.911c0,1.533-0.987,2.94-2.583,3.696L27.053,144.933z"/>
	<path d="M48.116,146.55h4.032c0.462-0.609,0.609-0.777,1.113-1.323c0.798,0.63,1.05,0.84,1.827,1.554
		c0.042,0.042,0.084,0.105,0.084,0.147c0,0.063-0.105,0.105-0.252,0.105h-6.804v3.843h5.859c0.546-0.651,0.714-0.84,1.281-1.428
		c0.819,0.693,1.05,0.924,1.827,1.659c0.042,0.042,0.063,0.105,0.063,0.126c0,0.063-0.105,0.126-0.21,0.126h-8.82v1.113
		c0,2.499,0.021,4.032,0.042,4.599c-0.042,0.168-0.084,0.21-0.252,0.252c-0.126,0.042-0.798,0.105-1.029,0.105
		s-0.315-0.063-0.315-0.252c0.042-1.491,0.063-3.024,0.063-4.704v-1.113h-6.3c-0.714,0-1.575,0.042-2.121,0.105l-0.147-0.798
		c0.882,0.147,1.596,0.21,2.415,0.21h6.153v-3.843h-4.557c-0.441,0-1.197,0.042-1.89,0.126l-0.126-0.777
		c0.798,0.126,1.365,0.168,2.1,0.168h4.473v-3.465h-5.502c-0.483,0-1.155,0.042-1.89,0.147l-0.105-0.861
		c0.63,0.126,1.512,0.231,1.995,0.231h3.255c-0.231-0.21-0.231-0.231-0.441-0.84c-0.168-0.567-0.567-1.323-0.966-1.974
		c-0.231-0.336-0.441-0.567-0.903-1.029l0.189-0.252c1.008,0.504,1.596,0.903,2.352,1.575c0.588,0.546,0.84,0.924,0.84,1.302
		c0,0.399-0.231,0.861-0.588,1.218h3.906c1.26-1.974,1.575-2.604,2.079-4.095c1.911,0.588,2.331,0.756,2.331,0.987
		s-0.21,0.294-1.029,0.294c-1.302,1.449-1.659,1.806-2.835,2.814h4.032c0.483-0.651,0.63-0.84,1.155-1.449
		c0.84,0.672,1.092,0.882,1.848,1.617c0.042,0.063,0.084,0.126,0.084,0.168c0,0.084-0.126,0.147-0.294,0.147h-8.022V146.55z"/>
	<path d="M69.074,148.293c-0.378,1.323-0.966,3.612-1.218,4.641c-0.21,0.924-0.273,1.26-0.273,1.785
		c-0.021,0.672-0.042,0.756-0.147,0.924c-0.105,0.147-0.231,0.231-0.399,0.231c-0.357,0-0.651-0.294-0.903-0.945
		c-0.42-1.071-0.672-2.667-0.672-4.221c0-1.932,0.231-3.696,0.945-6.993c0.273-1.302,0.315-1.533,0.315-1.89
		c0-0.63-0.168-1.134-0.609-1.848c0.483,0.021,0.882,0.294,1.47,1.05c0.483,0.609,0.756,1.197,0.756,1.596
		c0,0.231,0,0.231-0.336,0.924c-1.008,2.1-1.596,4.599-1.596,6.846c0,1.071,0.084,1.743,0.336,2.604l0.882-2.1l1.134-2.709
		L69.074,148.293z M71.174,144.492c1.008,0.651,1.659,0.861,2.709,0.861c0.735,0,1.533-0.105,2.394-0.294c0-0.399,0-0.735,0-0.924
		c0-2.352-0.021-2.625-0.294-2.919c-0.252-0.273-0.714-0.42-1.386-0.483c0.294-0.273,0.462-0.336,1.008-0.336
		c0.462,0,1.029,0.084,1.428,0.189c0.609,0.189,0.924,0.441,0.924,0.756c0,0.147,0,0.168-0.189,0.651
		c-0.231,0.609-0.357,1.365-0.441,2.814c0.966-0.273,1.575-0.546,1.932-0.861c0.21-0.21,0.273-0.231,0.462-0.231
		c0.252,0,0.735,0.126,0.987,0.273c0.168,0.084,0.273,0.231,0.273,0.378c0,0.462-1.533,1.092-3.717,1.512
		c0,2.793,0.063,3.948,0.273,5.712c2.436,0.651,3.465,1.47,3.465,2.688c0,0.441-0.189,0.777-0.42,0.777
		c-0.168,0-0.315-0.105-0.735-0.525c-0.924-0.945-1.449-1.323-2.268-1.68c0.021,0.189,0.021,0.357,0.021,0.504
		c0,1.512-1.26,2.415-3.36,2.415c-1.827,0-3.108-0.882-3.108-2.142c0-1.449,1.554-2.373,3.948-2.373
		c0.399,0,0.693,0.021,1.281,0.063c0-0.189,0-0.315,0-0.357l-0.042-2.247l-0.021-2.688c-0.63,0.126-1.239,0.168-1.848,0.168
		c-1.533,0-2.415-0.378-3.465-1.47L71.174,144.492z M74.387,152.157c-1.659,0-2.688,0.546-2.688,1.47
		c0,0.735,0.819,1.239,2.058,1.239c1.155,0,1.974-0.336,2.31-0.987c0.21-0.378,0.273-0.693,0.273-1.47
		C75.752,152.241,75.165,152.157,74.387,152.157z"/>
	<path d="M83.69,158.016c1.113-0.651,1.617-1.281,1.617-2.037c0-0.252-0.084-0.357-0.399-0.42c-0.903-0.231-1.239-0.567-1.239-1.26
		c0-0.798,0.588-1.386,1.407-1.386c0.987,0,1.617,0.756,1.617,1.932c0,0.84-0.336,1.743-0.903,2.436
		c-0.42,0.525-0.924,0.882-1.68,1.239L83.69,158.016z"/>
	<path d="M104.522,155.349c0.231,0,0.42,0.021,0.546,0.021c1.113,0.063,1.113,0.063,2.1,0.063c0.651,0,0.819-0.063,0.966-0.357
		c0.378-0.798,0.63-2.961,0.63-5.397c0-0.882-0.042-1.722-0.126-2.457c-0.462,0.714-0.651,0.966-1.155,1.575
		c-1.155,1.365-1.974,2.121-3.339,3.129l-0.231-0.21c1.155-1.197,1.974-2.247,3.318-4.326c0.42-0.651,0.609-0.987,1.113-1.995
		c-0.21-0.861-0.378-1.365-0.714-2.184c-0.84,0.777-0.945,0.84-3.486,2.52l-0.189-0.252c1.617-1.323,2.331-1.995,3.297-3.15
		c-0.525-1.071-0.966-1.743-1.827-2.898l0.231-0.231c0.945,0.903,1.491,1.575,2.1,2.499c1.176-1.512,1.827-2.52,2.121-3.276
		c0.357,0.168,0.651,0.294,0.819,0.357c1.008,0.441,1.197,0.546,1.197,0.693s-0.168,0.21-0.504,0.21
		c-0.021,0-0.294-0.021-0.483-0.021c-1.008,1.26-1.743,2.079-2.625,2.94c1.218,2.31,1.806,4.872,1.806,8.022
		c0,1.827-0.168,3.465-0.462,4.536c-0.189,0.63-0.546,1.218-0.966,1.512c-0.357,0.252-0.735,0.399-1.617,0.567
		c-0.063-0.546-0.168-0.798-0.483-1.029c-0.315-0.252-0.735-0.357-2.058-0.525L104.522,155.349z M116.45,148.23
		c0.672,1.869,0.966,2.499,1.659,3.486c1.554-1.134,2.31-1.827,2.961-2.73c0.567,0.378,0.567,0.378,1.554,0.987
		c0.189,0.126,0.294,0.231,0.294,0.294c0,0.105-0.126,0.189-0.252,0.189c-0.021,0-0.021,0-0.042,0
		c-0.147-0.021-0.378-0.042-0.798-0.063c-1.323,0.714-1.323,0.714-3.486,1.638c0.63,0.777,1.134,1.239,2.037,1.848
		c0.735,0.525,1.659,1.008,2.289,1.239c0.378,0.147,0.651,0.21,1.344,0.315v0.315c-0.819,0.252-1.029,0.441-1.428,1.302
		c-1.512-0.819-2.352-1.449-3.402-2.583c-1.26-1.344-2.184-2.94-2.772-4.809c-0.126-0.378-0.189-0.63-0.399-1.428h-2.52v6.615
		c2.079-0.462,3.15-0.735,4.263-1.092l0.126,0.315c-1.323,0.672-3.927,1.806-6.216,2.709c-0.021,0.147-0.042,0.294-0.063,0.378
		c-0.042,0.315-0.147,0.483-0.252,0.483c-0.021,0-0.021,0-0.021,0c-0.105-0.021-0.21-0.126-0.294-0.315
		c-0.042-0.105-0.126-0.357-0.231-0.756c-0.126-0.462-0.231-0.861-0.336-1.218c0.756-0.105,1.071-0.147,1.659-0.252v-12.411
		c-0.021-0.42-0.021-0.798-0.021-1.176c-0.021-0.546-0.021-0.567-0.042-1.008c0.735,0.357,0.945,0.483,1.596,0.945h2.247v-2.121
		c0-0.084,0-0.273-0.021-0.546c-0.021-0.126-0.021-0.315-0.042-0.567c2.247,0.252,2.499,0.294,2.499,0.525
		c0,0.189-0.126,0.252-0.987,0.483v2.226h2.646c0.357-0.399,0.462-0.525,0.819-0.903c0.504,0.399,0.672,0.504,1.176,0.882
		c0.168,0.105,0.231,0.21,0.231,0.315c0,0.168-0.126,0.273-0.693,0.567c-0.021,0.63-0.021,1.071-0.021,1.428
		c0,1.806,0.042,3.843,0.084,4.746c-0.042,0.168-0.084,0.252-0.21,0.273c-0.231,0.063-0.63,0.126-0.903,0.126
		c-0.21,0-0.294-0.063-0.336-0.273v-0.378H116.45z M120.146,144.513v-2.583h-6.657v2.583H120.146z M113.489,144.996v2.751h6.657
		v-2.751H113.489z"/>
	<path d="M139.425,142.098c0.504,0.756,0.84,1.113,1.449,1.512c0.734,0.462,1.364,0.693,2.457,0.903
		c0.588-2.919,0.65-3.234,0.65-3.738c0-0.714-0.294-1.155-1.134-1.743c0.168-0.063,0.231-0.084,0.357-0.084
		c0.378,0,0.924,0.231,1.554,0.651c0.672,0.462,1.092,1.05,1.092,1.512c0,0.189-0.063,0.357-0.273,0.609
		c-0.356,0.504-0.588,1.071-1.154,2.919c0.44,0.126,0.63,0.231,0.84,0.462c0.168,0.189,0.294,0.483,0.294,0.693
		c0,0.273-0.252,0.441-0.672,0.441c-0.21,0-0.483-0.042-0.819-0.105c-0.42,1.407-0.672,2.646-0.84,3.885
		c0.504,0.105,0.861,0.147,1.071,0.147c0.063,0,0.104,0,0.168-0.021c0.126-0.021,0.21-0.021,0.23-0.021
		c0.546,0,1.261,0.651,1.261,1.134c0,0.294-0.273,0.483-0.715,0.483c-0.588,0-1.47-0.147-2.226-0.378
		c-0.042,0.504-0.063,0.756-0.063,1.029c0,2.142,1.197,3.339,3.318,3.339c1.428,0,2.667-0.546,3.318-1.428
		c0.462-0.63,0.692-1.344,0.692-2.142c0-1.743-1.176-3.717-3.171-5.25l0.231-0.273c3.107,1.911,4.431,3.654,4.431,5.796
		c0,2.541-2.184,4.473-5.103,4.473c-1.093,0-2.143-0.315-2.856-0.861c-1.092-0.819-1.617-2.079-1.617-3.906
		c0-0.252,0.021-0.525,0.042-1.05c-0.818-0.378-1.238-0.63-1.68-1.071c-0.567-0.588-0.924-1.365-0.924-2.079
		c0-0.483,0.23-1.008,0.65-1.449c0.505-0.504,1.029-0.798,2.037-1.113c-0.84-0.315-1.428-0.693-2.037-1.302
		c-0.44-0.462-0.692-0.882-1.092-1.848L139.425,142.098z M140.664,146.781c-0.315,0.336-0.463,0.651-0.463,1.05
		c0,0.882,0.715,1.533,2.163,1.974c0.105-1.05,0.294-2.247,0.631-3.822C141.776,146.046,141.168,146.277,140.664,146.781z"/>
</g>
<rect x="0.25" y="98.125" fill="none" stroke="#008CD6" stroke-width="0.5" width="57.751" height="21"/>
<rect x="63.371" y="98.125" fill="none" stroke="#008CD6" stroke-width="0.5" width="21" height="21"/>
<polyline fill="none" stroke="#008CD6" stroke-width="0.5" points="84.371,98.125 100.121,98.125 100.121,119.125 84.371,119.125 
	"/>
<line fill="none" stroke="#008CD6" stroke-width="0.5" x1="84.371" y1="119.125" x2="84.371" y2="98.125"/>
<g>
	<line fill="none" stroke="#008CD6" stroke-width="0.5" x1="31.75" y1="98.125" x2="31.75" y2="87.625"/>
	<line fill="none" stroke="#008CD6" stroke-width="0.5" x1="42.25" y1="87.625" x2="42.25" y2="98.125"/>
	<path fill="none" stroke="#008CD6" stroke-width="0.5" d="M31.75,98.125"/>
	<line fill="none" stroke="#008CD6" stroke-width="0.5" x1="52.75" y1="98.125" x2="52.75" y2="87.625"/>
	<polyline fill="none" stroke="#008CD6" stroke-width="0.5" points="31.75,98.125 31.75,87.625 63.248,87.625 63.248,98.125 	"/>
	<line fill="none" stroke="#008CD6" stroke-width="0.5" x1="63.248" y1="98.125" x2="57.998" y2="98.125"/>
</g>
<g>
	<line fill="none" stroke="#008CD6" stroke-width="0.5" x1="94.748" y1="98.125" x2="94.748" y2="87.625"/>
	<line fill="none" stroke="#008CD6" stroke-width="0.5" x1="115.748" y1="98.125" x2="115.748" y2="87.625"/>
	<polyline fill="none" stroke="#008CD6" stroke-width="0.5" points="105.248,87.625 105.248,98.125 94.748,98.125 94.748,87.625 
		136.747,87.625 136.747,98.125 126.248,98.125 126.248,87.625 	"/>
</g>
<line fill="none" stroke="#008CD6" stroke-width="0.5" x1="21.25" y1="119.125" x2="21.25" y2="98.125"/>
<line fill="none" stroke="#008CD6" stroke-width="0.5" x1="37" y1="119.125" x2="37" y2="98.125"/>
<line fill="none" stroke="#008CD6" stroke-width="0.5" stroke-dasharray="2" x1="31.75" y1="119.125" x2="31.75" y2="98.125"/>
<line fill="none" stroke="#008CD6" stroke-width="0.5" stroke-dasharray="2" x1="94.871" y1="119.125" x2="94.871" y2="98.125"/>
</svg>
