<?xml version="1.0" encoding="utf-8"?>
<!-- Generator: Adobe Illustrator 12.0.0, SVG Export Plug-In . SVG Version: 6.00 Build 51448)  -->
<!DOCTYPE svg PUBLIC "-//W3C//DTD SVG 1.1//EN" "http://www.w3.org/Graphics/SVG/1.1/DTD/svg11.dtd" [
	<!ENTITY ns_svg "http://www.w3.org/2000/svg">
	<!ENTITY ns_xlink "http://www.w3.org/1999/xlink">
]>
<svg  version="1.1" id="レイヤー_1" xmlns="&ns_svg;" xmlns:xlink="&ns_xlink;" width="66" height="30"
	 viewBox="0 0 66 30" overflow="visible" enable-background="new 0 0 66 30" xml:space="preserve">
<g>
	<path d="M0.511,19.914c2.373-1.68,3.78-2.898,5.292-4.599c1.512-1.701,2.793-3.528,3.444-4.914c2.1,0.483,2.373,0.588,2.373,0.798
		c0,0.189-0.252,0.273-0.861,0.336l-0.063,0.042c1.428,1.848,2.478,2.835,4.179,3.969c1.701,1.113,2.961,1.68,5.355,2.415
		l-0.021,0.189c-0.882,0.357-1.155,0.672-1.365,1.554c-1.491-0.777-2.058-1.113-3.045-1.89c-1.512-1.155-2.793-2.394-3.738-3.57
		c-0.546-0.693-0.882-1.197-1.617-2.352c-1.827,2.394-3.087,3.738-5.082,5.334c-1.596,1.281-2.772,1.995-4.725,2.898L0.511,19.914z
		 M15.736,21.027c0.483-0.609,0.63-0.798,1.155-1.344c0.861,0.63,1.134,0.84,1.953,1.554c0.084,0.084,0.105,0.126,0.105,0.168
		c0,0.063-0.084,0.105-0.21,0.105h-7.854v6.51h5.376l1.386-1.575c0.903,0.756,1.176,0.987,1.974,1.722
		c0.084,0.105,0.105,0.147,0.105,0.189c0,0.084-0.105,0.147-0.21,0.147H2.674c-0.546,0-0.924,0.021-1.428,0.105L1.141,27.81
		c0.567,0.147,1.008,0.21,1.659,0.21h6.615v-6.51H3.262c-0.42,0-0.756,0.021-1.323,0.105L1.834,20.88
		c0.525,0.105,0.84,0.147,1.428,0.147h6.153v-3.003H6.749c-0.357,0-0.756,0.042-1.092,0.105l-0.105-0.756
		c0.651,0.147,0.861,0.168,1.365,0.168h4.683l1.197-1.344c0.756,0.651,0.987,0.84,1.722,1.512c0.084,0.084,0.105,0.147,0.105,0.189
		c0,0.084-0.084,0.126-0.21,0.126h-3.528v3.003H15.736z M4.354,22.413c1.89,1.449,2.814,2.541,2.814,3.318
		c0,0.273-0.105,0.63-0.294,0.987c-0.189,0.336-0.357,0.483-0.546,0.483c-0.252,0-0.252,0-0.693-1.512
		c-0.315-1.113-0.651-1.806-1.491-3.129L4.354,22.413z M12.25,27.348c0.651-1.05,0.903-1.533,1.575-3.024
		c0.588-1.281,0.651-1.47,0.819-2.037c0.399,0.126,0.714,0.231,0.924,0.315c1.029,0.336,1.281,0.441,1.281,0.588
		c0,0.168-0.252,0.252-0.903,0.357c-1.806,2.289-2.31,2.877-3.465,3.969L12.25,27.348z"/>
	<path d="M28.231,11.241c0.63,0,1.617,0.189,2.121,0.399c0.42,0.168,0.588,0.378,0.588,0.672c0,0.021,0,0.042,0,0.042
		c0,0.168-0.021,0.168-0.168,0.546c-0.252,0.714-0.462,2.52-0.462,4.263c0,1.239,0.168,1.554,0.819,1.554
		c0.441,0,0.903-0.168,2.814-1.071c0.378-0.189,0.609-0.252,0.861-0.252c0.504,0,1.008,0.441,1.008,0.882
		c0,0.273-0.147,0.504-0.441,0.63c-0.147,0.063-0.441,0.168-1.407,0.441c-2.541,0.714-3.927,1.344-5.25,2.352
		c-1.134,0.882-1.638,1.701-1.638,2.688c0,1.512,1.197,2.289,3.528,2.289c1.302,0,3.36-0.252,4.872-0.609
		c0.21-0.042,0.294-0.063,0.42-0.063c0.546,0,1.134,0.525,1.134,1.029c0,0.378-0.231,0.567-0.903,0.693
		c-0.672,0.126-2.772,0.273-4.032,0.273c-1.533,0-2.688-0.168-3.57-0.483c-1.407-0.525-2.289-1.722-2.289-3.108
		c0-1.218,0.672-2.373,2.058-3.528c0.63-0.546,1.323-1.008,2.562-1.68c-0.462,0-0.651-0.063-1.008-0.315
		c-0.315-0.231-0.504-0.693-0.609-1.596c-0.063-0.504-0.084-0.966-0.147-2.541c-0.063-1.785-0.084-2.1-0.252-2.415
		c-0.231-0.399-0.63-0.609-1.512-0.756C27.644,11.304,27.812,11.241,28.231,11.241z"/>
	<path d="M47.761,19.536h1.323c0.357-0.441,0.672-0.819,0.945-1.134c0.693,0.546,0.903,0.735,1.575,1.344
		c0.063,0.063,0.084,0.126,0.084,0.147c0,0.084-0.084,0.126-0.189,0.126h-3.738v6.153c1.197-0.252,1.89-0.42,3.57-0.861l0.105,0.273
		c-2.079,0.987-2.184,1.029-7.35,2.667c-0.084,0.63-0.168,0.84-0.378,0.84c-0.084,0-0.168-0.063-0.231-0.189
		c-0.021-0.042-0.21-0.693-0.567-1.932c0.84-0.063,0.84-0.063,3.57-0.546v-6.405h-2.142c-0.63,0-0.924,0.021-1.407,0.105
		l-0.126-0.756c0.588,0.126,1.008,0.168,1.512,0.168h2.163v-2.772h-0.588c-0.399,0-0.777,0.021-1.155,0.063l-0.084-0.567
		c-0.819,0.882-1.113,1.197-2.016,1.932l-0.273-0.231c1.155-1.344,1.89-2.415,2.772-4.074c0.756-1.428,1.218-2.52,1.491-3.486
		c2.058,0.378,2.247,0.42,2.247,0.609c0,0.168-0.21,0.252-0.903,0.42l-0.105,0.252c1.113,0.462,1.806,0.84,2.646,1.386
		c0.84,0.546,0.966,0.735,0.966,1.386c0,0.546-0.189,0.987-0.42,0.987c-0.126,0-0.252-0.105-0.441-0.399
		c-0.693-1.008-1.365-1.743-2.898-3.066c-0.903,1.638-1.596,2.583-2.961,4.158c0.546,0.126,0.735,0.147,1.134,0.147h2.625
		c0.357-0.504,0.462-0.651,0.84-1.092c0.714,0.567,0.924,0.735,1.575,1.344c0.021,0.042,0.042,0.105,0.042,0.126
		c0,0.084-0.063,0.105-0.231,0.105h-2.982V19.536z M43.688,21.048c0.546,0.588,0.777,0.882,1.218,1.47
		c0.525,0.735,0.714,1.113,0.714,1.533c0,0.294-0.168,0.84-0.357,1.155c-0.147,0.252-0.315,0.378-0.462,0.378
		c-0.231,0-0.294-0.147-0.399-1.029c-0.126-0.903-0.441-2.037-0.945-3.381L43.688,21.048z M48.517,25.395
		c0.546-1.89,0.882-3.297,1.029-4.389c1.869,0.63,1.932,0.651,1.932,0.84s-0.231,0.273-0.84,0.336
		c-0.735,1.491-1.029,2.037-1.848,3.381L48.517,25.395z M56.014,19.62c0.252,1.449,0.525,2.268,1.176,3.507
		c1.722-1.407,2.415-2.1,3.087-3.003c1.344,0.819,1.638,1.05,1.638,1.218c0,0.126-0.168,0.21-0.378,0.21
		c-0.126,0-0.315-0.021-0.504-0.042c-1.827,1.071-2.331,1.344-3.654,1.932c0.42,0.714,0.819,1.239,1.386,1.806
		c1.092,1.092,2.058,1.68,3.591,2.205v0.252c-0.945,0.231-1.134,0.378-1.764,1.365c-1.554-1.218-2.352-2.058-3.171-3.423
		c-1.008-1.68-1.617-3.591-1.89-6.027h-1.932v7.098c0.903-0.189,1.554-0.357,3.297-0.861l0.105,0.336
		c-1.785,0.882-2.352,1.113-5.67,2.436c-0.063,0.63-0.126,0.84-0.315,0.84c-0.084,0-0.168-0.084-0.252-0.231
		c-0.021-0.042-0.231-0.651-0.63-1.848c0.651-0.084,0.777-0.105,1.638-0.294c0.147-0.021,0.147-0.021,0.525-0.105V13.698
		c0-1.029-0.021-1.659-0.042-2.919c0.672,0.357,0.861,0.483,1.47,0.924h5.061c0.336-0.399,0.441-0.504,0.777-0.882
		c0.588,0.378,0.756,0.504,1.239,0.882c0.168,0.147,0.231,0.231,0.231,0.315c0,0.147-0.147,0.252-0.84,0.588
		c0,4.662,0,4.662,0.084,7.014c0,0.021,0,0.042,0,0.063c0,0.105-0.042,0.189-0.126,0.252c-0.168,0.105-0.714,0.231-1.05,0.231
		c-0.189,0-0.273-0.063-0.273-0.252V19.62H56.014z M58.828,12.186h-5.229v3.192h5.229V12.186z M58.828,15.861h-5.229v3.276h5.229
		V15.861z"/>
</g>
<g>
	<path d="M3.686,2.751c0.409,0.42,0.598,0.861,0.598,1.407c0,1.113-0.819,1.827-2.079,1.827c-0.315,0-0.536-0.031-0.924-0.126
		c-0.388,0.21-0.546,0.389-0.546,0.63c0,0.399,0.273,0.525,1.155,0.525c0.147,0,0.231,0,0.494,0c0.084,0,0.2,0,0.242,0
		c0.714,0,1.05,0.031,1.344,0.105C4.546,7.287,4.84,7.665,4.84,8.253c0,0.515-0.315,1.04-0.788,1.302
		C3.581,9.828,2.982,9.954,2.194,9.954c-0.704,0-1.229-0.105-1.627-0.326C0.178,9.418,0,9.093,0,8.61
		c0-0.441,0.084-0.546,0.735-0.966C0.283,7.434,0.073,7.14,0.073,6.72c0-0.294,0.095-0.431,0.504-0.714l0.41-0.273
		c-0.294-0.199-0.41-0.305-0.525-0.452C0.241,5.008,0.126,4.62,0.126,4.2c0-0.714,0.304-1.333,0.819-1.638
		c0.357-0.21,0.798-0.315,1.292-0.315c0.221,0,0.41,0.021,0.704,0.073c0.336,0.053,0.42,0.063,0.662,0.063
		c0.262,0,0.577-0.01,1.144-0.031v0.399H3.686z M0.693,8.516c0,0.777,0.557,1.187,1.627,1.187c1.124,0,1.816-0.462,1.816-1.197
		c0-0.441-0.241-0.672-0.809-0.767c-0.22-0.031-0.525-0.042-1.197-0.042c-0.368,0-0.998,0.011-1.008,0.021
		C0.829,7.822,0.693,8.075,0.693,8.516z M1.25,5.25c0.178,0.315,0.535,0.504,0.956,0.504c0.766,0,1.176-0.557,1.176-1.596
		c0-1.103-0.399-1.67-1.176-1.67c-0.788,0-1.197,0.536-1.197,1.585C1.008,4.546,1.092,4.966,1.25,5.25z"/>
	<path d="M6.299,2.951c0.441-0.452,1.103-0.704,1.827-0.704c1.533,0,2.541,1.082,2.541,2.73c0,1.753-1.008,2.856-2.604,2.856
		c-1.522,0-2.53-1.082-2.53-2.709C5.533,4.252,5.816,3.444,6.299,2.951z M8.095,7.581c1.029,0,1.596-0.893,1.596-2.51
		c0-1.638-0.588-2.583-1.617-2.583c-1.008,0-1.564,0.893-1.564,2.499C6.51,6.636,7.087,7.581,8.095,7.581z"/>
	<path d="M11.55,7.465c0.693-0.021,0.745-0.105,0.745-1.082V1.271c0-0.515-0.042-0.767-0.157-0.861
		c-0.074-0.063-0.231-0.084-0.588-0.095V0.084L13.229,0c-0.042,0.704-0.063,1.543-0.063,2.1v4.284c0,0.977,0.053,1.061,0.756,1.082
		v0.231H11.55V7.465z"/>
	<path d="M19.666,0c-0.042,0.672-0.063,1.281-0.063,2.089v4.063c0.021,0.987,0.021,0.998,0.074,1.124
		c0.063,0.137,0.189,0.189,0.493,0.189h0.116v0.231l-1.47,0.084l-0.042-0.913c-0.431,0.661-1.019,0.976-1.785,0.976
		c-0.588,0-1.165-0.273-1.543-0.724c-0.388-0.483-0.598-1.155-0.598-1.953c0-1.732,0.966-2.919,2.373-2.919
		c0.64,0,1.081,0.21,1.522,0.704V1.365c0-1.018-0.011-1.039-0.777-1.05V0.084L19.666,0z M17.283,2.509
		c-0.945,0-1.459,0.893-1.459,2.541c0,1.627,0.472,2.489,1.365,2.489c0.998,0,1.585-0.924,1.585-2.499
		C18.773,3.413,18.238,2.509,17.283,2.509z"/>
	<path d="M39.598,6.038h0.325c0.042,0.493,0.116,0.746,0.294,0.977c0.273,0.378,0.662,0.567,1.145,0.567
		c0.714,0,1.145-0.368,1.145-0.987c0-0.241-0.094-0.472-0.252-0.609c-0.189-0.157-0.22-0.168-1.176-0.588
		c-1.134-0.494-1.48-0.872-1.48-1.585c0-0.368,0.105-0.725,0.283-0.966c0.284-0.378,0.777-0.599,1.302-0.599
		c0.273,0,0.409,0.021,0.977,0.126c0.084,0.01,0.157,0.021,0.22,0.021c0.126,0,0.294-0.021,0.504-0.074l-0.052,1.659h-0.347
		c-0.021-0.935-0.483-1.491-1.25-1.491c-0.651,0-1.071,0.368-1.071,0.935c0,0.242,0.094,0.431,0.284,0.567
		c0.199,0.147,0.399,0.252,1.092,0.546c0.704,0.294,0.966,0.451,1.208,0.714c0.22,0.242,0.347,0.588,0.347,0.998
		c0,0.966-0.641,1.585-1.628,1.585c-0.294,0-0.43-0.021-1.05-0.126c-0.147-0.021-0.273-0.032-0.389-0.032
		c-0.115,0-0.262,0.011-0.472,0.042L39.598,6.038z"/>
	<path d="M45.73,2.278c-0.032,0.609-0.063,1.522-0.063,1.964v2.142c0,0.977,0.052,1.061,0.756,1.082v0.231h-2.394V7.465
		c0.725-0.021,0.777-0.105,0.777-1.082V3.581c0-0.525-0.042-0.767-0.157-0.861c-0.084-0.073-0.252-0.094-0.62-0.094V2.394
		L45.73,2.278z M45.205,0.052c0.325,0,0.588,0.263,0.588,0.588c0,0.336-0.263,0.598-0.588,0.598c-0.336,0-0.599-0.262-0.599-0.598
		C44.606,0.315,44.869,0.052,45.205,0.052z"/>
	<path d="M47.158,7.465c0.693-0.021,0.745-0.105,0.745-1.082V1.271c0-0.515-0.042-0.767-0.157-0.861
		c-0.074-0.063-0.231-0.084-0.588-0.095V0.084L48.838,0c-0.042,0.704-0.063,1.543-0.063,2.1v4.284c0,0.977,0.053,1.061,0.756,1.082
		v0.231h-2.373V7.465z"/>
	<path d="M54.204,3.602c0.073-0.2,0.126-0.441,0.126-0.557c0-0.273-0.242-0.399-0.809-0.42V2.394h2.152v0.231
		c-0.557,0.021-0.809,0.263-1.103,1.05l-1.512,4.063H52.46l-1.659-4.357c-0.22-0.609-0.378-0.746-0.829-0.756V2.394h2.362v0.231
		c-0.483,0.01-0.693,0.126-0.693,0.357c0,0.095,0.063,0.347,0.147,0.557l1.229,3.36L54.204,3.602z"/>
	<path d="M57.228,4.735c0.01,0.725,0.073,1.145,0.241,1.575c0.305,0.777,0.819,1.155,1.575,1.155c0.745,0,1.313-0.388,1.732-1.187
		l0.241,0.137c-0.472,0.966-1.187,1.417-2.215,1.417c-1.501,0-2.53-1.113-2.53-2.72c0-1.701,1.008-2.866,2.488-2.866
		c0.956,0,1.68,0.483,2.005,1.333c0.105,0.283,0.147,0.536,0.168,1.155H57.228z M60.021,4.452c-0.011-0.557-0.063-0.861-0.2-1.166
		c-0.231-0.515-0.588-0.777-1.082-0.777c-0.504,0-0.924,0.284-1.208,0.819c-0.157,0.304-0.22,0.577-0.283,1.124H60.021z"/>
	<path d="M63.317,2.278c0.021,0.525,0.032,0.662,0.032,0.882c0,0.073,0,0.189,0,0.336c0.346-0.798,0.913-1.25,1.533-1.25
		c0.451,0,0.798,0.283,0.798,0.651c0,0.263-0.221,0.431-0.557,0.431c-0.231,0-0.325-0.063-0.389-0.263
		c-0.063-0.231-0.126-0.294-0.294-0.294c-0.272,0-0.567,0.231-0.788,0.63c-0.189,0.347-0.283,0.777-0.283,1.333v1.648
		c0,0.987,0.052,1.061,0.755,1.082v0.231h-2.404V7.465c0.703-0.021,0.766-0.105,0.766-1.082V3.57c0-0.787-0.126-0.945-0.724-0.945
		V2.394L63.317,2.278z"/>
</g>
</svg>
