<?xml version="1.0" encoding="utf-8"?>
<!-- Generator: Adobe Illustrator 12.0.0, SVG Export Plug-In . SVG Version: 6.00 Build 51448)  -->
<!DOCTYPE svg PUBLIC "-//W3C//DTD SVG 1.1//EN" "http://www.w3.org/Graphics/SVG/1.1/DTD/svg11.dtd" [
	<!ENTITY ns_svg "http://www.w3.org/2000/svg">
	<!ENTITY ns_xlink "http://www.w3.org/1999/xlink">
]>
<svg  version="1.1" id="レイヤー_1" xmlns="&ns_svg;" xmlns:xlink="&ns_xlink;" width="26.124" height="29.4"
	 viewBox="0 0 26.124 29.4" overflow="visible" enable-background="new 0 0 26.124 29.4" xml:space="preserve">
<g>
	<path d="M0.042,6.038h0.325c0.042,0.493,0.116,0.746,0.294,0.977c0.273,0.378,0.662,0.567,1.145,0.567
		c0.714,0,1.145-0.368,1.145-0.987c0-0.241-0.094-0.472-0.252-0.609c-0.189-0.157-0.22-0.168-1.176-0.588
		c-1.134-0.494-1.48-0.872-1.48-1.585c0-0.368,0.105-0.725,0.283-0.966c0.284-0.378,0.777-0.599,1.302-0.599
		c0.273,0,0.409,0.021,0.977,0.126c0.084,0.01,0.157,0.021,0.22,0.021c0.126,0,0.294-0.021,0.504-0.074L3.276,3.979H2.929
		C2.908,3.045,2.446,2.488,1.68,2.488c-0.651,0-1.071,0.368-1.071,0.935c0,0.242,0.094,0.431,0.284,0.567
		c0.199,0.147,0.399,0.252,1.092,0.546C2.688,4.83,2.95,4.987,3.192,5.25c0.22,0.242,0.347,0.588,0.347,0.998
		c0,0.966-0.641,1.585-1.628,1.585c-0.294,0-0.43-0.021-1.05-0.126C0.714,7.686,0.588,7.675,0.472,7.675
		C0.357,7.675,0.21,7.686,0,7.717L0.042,6.038z"/>
	<path d="M6.174,2.278C6.142,2.888,6.111,3.801,6.111,4.242v2.142c0,0.977,0.052,1.061,0.756,1.082v0.231H4.473V7.465
		C5.197,7.444,5.25,7.36,5.25,6.384V3.581c0-0.525-0.042-0.767-0.157-0.861C5.008,2.646,4.84,2.625,4.473,2.625V2.394L6.174,2.278z
		 M5.649,0.052c0.325,0,0.588,0.263,0.588,0.588c0,0.336-0.263,0.598-0.588,0.598c-0.336,0-0.599-0.262-0.599-0.598
		C5.05,0.315,5.313,0.052,5.649,0.052z"/>
	<path d="M7.602,7.465C8.295,7.444,8.347,7.36,8.347,6.384V1.271c0-0.515-0.042-0.767-0.157-0.861
		C8.116,0.347,7.959,0.326,7.602,0.315V0.084L9.282,0C9.24,0.704,9.219,1.543,9.219,2.1v4.284c0,0.977,0.053,1.061,0.756,1.082
		v0.231H7.602V7.465z"/>
	<path d="M14.647,3.602c0.073-0.2,0.126-0.441,0.126-0.557c0-0.273-0.242-0.399-0.809-0.42V2.394h2.152v0.231
		c-0.557,0.021-0.809,0.263-1.103,1.05l-1.512,4.063h-0.599l-1.659-4.357c-0.22-0.609-0.378-0.746-0.829-0.756V2.394h2.362v0.231
		c-0.483,0.01-0.693,0.126-0.693,0.357c0,0.095,0.063,0.347,0.147,0.557l1.229,3.36L14.647,3.602z"/>
	<path d="M17.671,4.735c0.01,0.725,0.073,1.145,0.241,1.575c0.305,0.777,0.819,1.155,1.575,1.155c0.745,0,1.313-0.388,1.732-1.187
		l0.241,0.137c-0.472,0.966-1.187,1.417-2.215,1.417c-1.501,0-2.53-1.113-2.53-2.72c0-1.701,1.008-2.866,2.488-2.866
		c0.956,0,1.68,0.483,2.005,1.333c0.105,0.283,0.147,0.536,0.168,1.155H17.671z M20.464,4.452c-0.011-0.557-0.063-0.861-0.2-1.166
		c-0.231-0.515-0.588-0.777-1.082-0.777c-0.504,0-0.924,0.284-1.208,0.819c-0.157,0.304-0.22,0.577-0.283,1.124H20.464z"/>
	<path d="M23.761,2.278c0.021,0.525,0.032,0.662,0.032,0.882c0,0.073,0,0.189,0,0.336c0.346-0.798,0.914-1.25,1.533-1.25
		c0.452,0,0.798,0.283,0.798,0.651c0,0.263-0.221,0.431-0.557,0.431c-0.231,0-0.326-0.063-0.389-0.263
		c-0.063-0.231-0.126-0.294-0.294-0.294c-0.273,0-0.567,0.231-0.788,0.63c-0.189,0.347-0.283,0.777-0.283,1.333v1.648
		c0,0.987,0.052,1.061,0.756,1.082v0.231h-2.404V7.465c0.703-0.021,0.766-0.105,0.766-1.082V3.57c0-0.787-0.126-0.945-0.724-0.945
		V2.394L23.761,2.278z"/>
	<path d="M8.231,19.467h1.323c0.357-0.441,0.672-0.819,0.945-1.134c0.693,0.546,0.903,0.735,1.575,1.344
		c0.063,0.063,0.084,0.126,0.084,0.147c0,0.084-0.084,0.126-0.189,0.126H8.231v6.153c1.197-0.252,1.89-0.42,3.57-0.861l0.105,0.273
		c-2.079,0.987-2.184,1.029-7.35,2.667c-0.084,0.63-0.168,0.84-0.378,0.84c-0.084,0-0.168-0.063-0.231-0.189
		c-0.021-0.042-0.21-0.693-0.567-1.932c0.84-0.063,0.84-0.063,3.57-0.546V19.95H4.809c-0.63,0-0.924,0.021-1.407,0.105l-0.126-0.756
		c0.588,0.126,1.008,0.168,1.512,0.168h2.163v-2.772H6.363c-0.399,0-0.777,0.021-1.155,0.063l-0.084-0.567
		c-0.819,0.882-1.113,1.197-2.016,1.932l-0.273-0.231c1.155-1.344,1.89-2.415,2.772-4.074c0.756-1.428,1.218-2.52,1.491-3.486
		c2.058,0.378,2.247,0.42,2.247,0.609c0,0.168-0.21,0.252-0.903,0.42l-0.105,0.252c1.113,0.462,1.806,0.84,2.646,1.386
		c0.84,0.546,0.966,0.735,0.966,1.386c0,0.546-0.189,0.987-0.42,0.987c-0.126,0-0.252-0.105-0.441-0.399
		c-0.693-1.008-1.365-1.743-2.898-3.066c-0.903,1.638-1.596,2.583-2.961,4.158c0.546,0.126,0.735,0.147,1.134,0.147h2.625
		c0.357-0.504,0.462-0.651,0.84-1.092c0.714,0.567,0.924,0.735,1.575,1.344c0.021,0.042,0.042,0.105,0.042,0.126
		c0,0.084-0.063,0.105-0.231,0.105H8.231V19.467z M4.158,20.979c0.546,0.588,0.777,0.882,1.218,1.47
		c0.525,0.735,0.714,1.113,0.714,1.533c0,0.294-0.168,0.84-0.357,1.155c-0.147,0.252-0.315,0.378-0.462,0.378
		c-0.231,0-0.294-0.147-0.399-1.029c-0.126-0.903-0.441-2.037-0.945-3.381L4.158,20.979z M8.987,25.326
		c0.546-1.89,0.882-3.297,1.029-4.389c1.869,0.63,1.932,0.651,1.932,0.84s-0.231,0.273-0.84,0.336
		c-0.735,1.491-1.029,2.037-1.848,3.381L8.987,25.326z M16.484,19.551c0.252,1.449,0.525,2.268,1.176,3.507
		c1.722-1.407,2.415-2.1,3.087-3.003c1.344,0.819,1.638,1.05,1.638,1.218c0,0.126-0.168,0.21-0.378,0.21
		c-0.126,0-0.315-0.021-0.504-0.042c-1.827,1.071-2.331,1.344-3.654,1.932c0.42,0.714,0.819,1.239,1.386,1.806
		c1.092,1.092,2.058,1.68,3.591,2.205v0.252c-0.945,0.231-1.134,0.378-1.764,1.365c-1.554-1.218-2.352-2.058-3.171-3.423
		c-1.008-1.68-1.617-3.591-1.89-6.027h-1.932v7.098c0.903-0.189,1.554-0.357,3.297-0.861l0.105,0.336
		c-1.785,0.882-2.352,1.113-5.67,2.436c-0.063,0.63-0.126,0.84-0.315,0.84c-0.084,0-0.168-0.084-0.252-0.231
		c-0.021-0.042-0.231-0.651-0.63-1.848c0.651-0.084,0.777-0.105,1.638-0.294c0.147-0.021,0.147-0.021,0.525-0.105V13.629
		c0-1.029-0.021-1.659-0.042-2.919c0.672,0.357,0.861,0.483,1.47,0.924h5.061c0.336-0.399,0.441-0.504,0.777-0.882
		c0.588,0.378,0.756,0.504,1.239,0.882c0.168,0.147,0.231,0.231,0.231,0.315c0,0.147-0.147,0.252-0.84,0.588
		c0,4.662,0,4.662,0.084,7.014c0,0.021,0,0.042,0,0.063c0,0.105-0.042,0.189-0.126,0.252c-0.168,0.105-0.714,0.231-1.05,0.231
		c-0.189,0-0.273-0.063-0.273-0.252v-0.294H16.484z M19.298,12.117h-5.229v3.192h5.229V12.117z M19.298,15.792h-5.229v3.276h5.229
		V15.792z"/>
</g>
</svg>
