<?xml version="1.0" encoding="utf-8"?>
<!-- Generator: Adobe Illustrator 12.0.0, SVG Export Plug-In . SVG Version: 6.00 Build 51448)  -->
<!DOCTYPE svg PUBLIC "-//W3C//DTD SVG 1.1//EN" "http://www.w3.org/Graphics/SVG/1.1/DTD/svg11.dtd" [
	<!ENTITY ns_svg "http://www.w3.org/2000/svg">
	<!ENTITY ns_xlink "http://www.w3.org/1999/xlink">
]>
<svg  version="1.1" id="レイヤー_1" xmlns="&ns_svg;" xmlns:xlink="&ns_xlink;" width="84.501" height="152.679"
	 viewBox="0 0 84.501 152.679" overflow="visible" enable-background="new 0 0 84.501 152.679" xml:space="preserve">
<g>
	<path d="M14.496,5.428c-0.451,1.858-0.64,2.814-0.64,3.182c0,0.031,0,0.073,0,0.115c0.01,0.084,0.01,0.126,0.01,0.168
		c0,0.336-0.084,0.494-0.263,0.494c-0.157,0-0.315-0.137-0.441-0.378c-0.336-0.651-0.504-1.564-0.504-2.72
		c0-0.777,0.053-1.281,0.231-2.383c0.137-0.767,0.168-1.061,0.168-1.302c0-0.325-0.126-0.651-0.378-1.008
		c0.231,0.01,0.441,0.147,0.693,0.41c0.305,0.336,0.462,0.619,0.462,0.84c0,0.137-0.011,0.2-0.147,0.578
		c-0.357,0.998-0.546,1.995-0.546,2.919c0,0.777,0.074,1.271,0.252,1.638c0.126-0.315,0.756-2.026,0.945-2.593L14.496,5.428z
		 M15.336,3.695c0.472,0.336,0.724,0.42,1.218,0.42c0.431,0,1.04-0.084,1.512-0.221c0-0.157,0-0.273,0-0.367
		c0-0.872-0.032-1.292-0.126-1.47c-0.105-0.21-0.399-0.368-0.893-0.483c0.157-0.137,0.231-0.158,0.577-0.158
		c0.756,0,1.26,0.21,1.26,0.525c0,0.042-0.021,0.147-0.053,0.252c-0.105,0.388-0.115,0.514-0.136,1.512
		c0.567-0.178,0.693-0.241,0.956-0.451c0.073-0.053,0.126-0.074,0.22-0.074c0.336,0,0.63,0.147,0.63,0.315
		c0,0.126-0.074,0.189-0.368,0.336c-0.336,0.158-0.662,0.263-1.428,0.462v1.544c0,1.659-0.283,2.509-1.071,3.339
		c-0.462,0.472-0.924,0.819-1.596,1.145l-0.084-0.137c0.767-0.599,1.134-0.998,1.48-1.617c0.494-0.861,0.662-1.796,0.662-3.602
		c0-0.231,0-0.263,0-0.536c-0.473,0.095-0.84,0.137-1.218,0.137c-0.704,0-1.176-0.21-1.648-0.746L15.336,3.695z"/>
	<path d="M22.476,3.674c0.431,0.441,0.704,0.577,1.155,0.577c0.409,0,0.851-0.063,1.333-0.199c0.21-0.683,0.357-1.417,0.357-1.785
		c0-0.315-0.158-0.451-0.746-0.651c0.137-0.074,0.189-0.095,0.326-0.095c0.241,0,0.588,0.074,0.903,0.2
		c0.315,0.116,0.473,0.263,0.473,0.42c0,0.074,0,0.074-0.126,0.252c-0.137,0.2-0.368,0.756-0.63,1.501
		c0.588-0.21,0.966-0.409,1.218-0.64c0.168-0.158,0.21-0.179,0.294-0.179c0.137,0,0.389,0.053,0.557,0.116
		c0.115,0.042,0.168,0.105,0.168,0.189c0,0.178-0.168,0.315-0.609,0.504c-0.473,0.22-1.176,0.452-1.838,0.62
		c-0.126,0.357-0.126,0.357-0.441,1.333c-0.21,0.63-0.21,0.63-0.788,2.341c-0.42,1.25-0.556,1.512-0.777,1.512
		c-0.105,0-0.178-0.063-0.241-0.21c-0.084-0.168-0.147-0.43-0.147-0.609c0-0.168,0.01-0.199,0.231-0.514
		c0.525-0.767,0.934-1.68,1.648-3.759c-0.399,0.074-0.704,0.105-1.008,0.105c-0.64,0-1.05-0.273-1.438-0.945L22.476,3.674z
		 M26.666,7.297c-0.01,0.157-0.01,0.283-0.01,0.325c0,0.599,0.284,1.05,0.798,1.271c0.284,0.126,0.714,0.2,1.124,0.2
		c0.431,0,0.672-0.032,1.008-0.158c0.073-0.031,0.136-0.042,0.178-0.042c0.116,0,0.357,0.116,0.536,0.252
		c0.126,0.105,0.189,0.2,0.189,0.294c0,0.231-0.41,0.347-1.239,0.347c-0.808,0-1.48-0.116-1.942-0.336
		c-0.567-0.273-0.893-0.819-0.893-1.522c0-0.231,0.021-0.41,0.095-0.662L26.666,7.297z M26.949,5.354
		c0.756-0.462,1.617-0.714,2.436-0.714c0.221,0,0.494,0.074,0.662,0.189c0.105,0.063,0.168,0.179,0.168,0.294
		c0,0.179-0.095,0.231-0.399,0.252c-0.389,0.011-0.515,0.053-0.809,0.21c-0.21,0.116-0.221,0.116-0.578,0.357
		c-0.199,0.126-0.199,0.126-0.368,0.22l-0.063-0.094c0.126-0.126,0.126-0.126,0.504-0.473c0.094-0.084,0.189-0.179,0.514-0.494
		c-0.693,0-1.25,0.116-2.005,0.389L26.949,5.354z M28.44,1.889c0.577,0.179,1.113,0.431,1.417,0.662
		c0.231,0.168,0.304,0.304,0.304,0.525c0,0.284-0.126,0.525-0.262,0.525c-0.084,0-0.158-0.063-0.242-0.199
		c-0.368-0.599-0.662-0.914-1.281-1.386L28.44,1.889z M29.343,1.165c0.788,0.2,1.218,0.357,1.512,0.557
		c0.21,0.158,0.283,0.294,0.283,0.546c0,0.263-0.094,0.462-0.221,0.462c-0.073,0-0.136-0.052-0.241-0.21
		c-0.357-0.483-0.798-0.882-1.396-1.218L29.343,1.165z"/>
	<path d="M34.194,2.719c0.252,0.378,0.42,0.557,0.725,0.756c0.367,0.231,0.682,0.347,1.229,0.452
		c0.294-1.459,0.325-1.617,0.325-1.869c0-0.357-0.147-0.578-0.567-0.872c0.084-0.031,0.116-0.042,0.179-0.042
		c0.189,0,0.462,0.116,0.777,0.326c0.336,0.231,0.546,0.525,0.546,0.756c0,0.095-0.031,0.179-0.137,0.305
		c-0.178,0.252-0.294,0.536-0.577,1.459c0.22,0.063,0.315,0.115,0.42,0.231c0.084,0.094,0.147,0.242,0.147,0.347
		c0,0.136-0.126,0.22-0.336,0.22c-0.105,0-0.242-0.021-0.41-0.052c-0.21,0.703-0.336,1.323-0.42,1.942
		c0.252,0.052,0.431,0.073,0.536,0.073c0.031,0,0.052,0,0.084-0.01c0.063-0.011,0.105-0.011,0.115-0.011
		c0.273,0,0.63,0.326,0.63,0.567c0,0.147-0.137,0.241-0.357,0.241c-0.294,0-0.735-0.073-1.113-0.189
		c-0.021,0.252-0.032,0.378-0.032,0.515c0,1.071,0.599,1.669,1.659,1.669c0.714,0,1.333-0.273,1.659-0.714
		c0.231-0.315,0.346-0.672,0.346-1.071c0-0.872-0.588-1.858-1.585-2.625l0.116-0.136c1.554,0.956,2.215,1.827,2.215,2.898
		c0,1.271-1.092,2.236-2.551,2.236c-0.546,0-1.071-0.157-1.428-0.431c-0.546-0.409-0.809-1.039-0.809-1.953
		c0-0.126,0.011-0.263,0.021-0.525c-0.409-0.189-0.619-0.315-0.84-0.536c-0.284-0.294-0.462-0.683-0.462-1.04
		c0-0.242,0.115-0.504,0.325-0.725c0.252-0.252,0.515-0.399,1.019-0.557c-0.42-0.157-0.714-0.346-1.019-0.651
		c-0.22-0.231-0.346-0.441-0.546-0.924L34.194,2.719z M34.814,5.06c-0.158,0.168-0.231,0.326-0.231,0.525
		c0,0.441,0.357,0.767,1.082,0.987c0.053-0.525,0.147-1.124,0.315-1.911C35.37,4.693,35.066,4.808,34.814,5.06z"/>
	<path d="M47.613,9.47c1.134-0.336,1.858-0.767,2.457-1.459c0.62-0.704,0.935-1.564,0.935-2.531c0-1.018-0.41-1.827-1.187-2.32
		c-0.462-0.305-1.155-0.483-1.816-0.483c-0.126,0-0.2,0-0.368,0.021c0.252,0.368,0.326,0.567,0.326,0.872
		c0,0.819-0.588,2.352-1.386,3.633c-0.662,1.05-1.176,1.564-1.564,1.564c-0.179,0-0.347-0.084-0.462-0.22
		c-0.095-0.126-0.116-0.168-0.294-0.672c-0.095-0.273-0.158-0.399-0.462-0.987c-0.168-0.336-0.241-0.62-0.241-0.956
		c0-0.662,0.357-1.438,0.945-2.079c0.851-0.903,2.237-1.47,3.612-1.47c1.06,0,2.037,0.346,2.709,0.966
		c0.672,0.62,1.008,1.449,1.008,2.468c0,1.313-0.767,2.478-2.089,3.181c-0.609,0.326-1.155,0.494-2.048,0.651L47.613,9.47z
		 M44.159,6.205c0,0.504,0.158,1.019,0.42,1.386c0.147,0.189,0.284,0.304,0.399,0.304c0.231,0,0.735-0.567,1.25-1.386
		c0.777-1.239,1.333-2.594,1.333-3.245c0-0.157-0.031-0.263-0.147-0.525C45.587,3.065,44.159,4.588,44.159,6.205z"/>
	<path fill="#00A73B" d="M7.146,21.692c-0.378,1.323-0.966,3.612-1.218,4.641c-0.21,0.924-0.273,1.26-0.273,1.785
		c-0.021,0.672-0.042,0.756-0.147,0.924c-0.105,0.147-0.231,0.231-0.399,0.231c-0.357,0-0.651-0.294-0.903-0.945
		c-0.42-1.071-0.672-2.667-0.672-4.221c0-1.932,0.231-3.696,0.945-6.993c0.273-1.302,0.315-1.533,0.315-1.89
		c0-0.63-0.168-1.134-0.609-1.848c0.483,0.021,0.882,0.294,1.47,1.05c0.483,0.609,0.756,1.197,0.756,1.596
		c0,0.231,0,0.231-0.336,0.924c-1.008,2.1-1.596,4.599-1.596,6.846c0,1.071,0.084,1.743,0.336,2.604l0.882-2.1l1.134-2.709
		L7.146,21.692z M9.246,17.892c1.008,0.651,1.659,0.861,2.709,0.861c0.735,0,1.533-0.105,2.394-0.294c0-0.399,0-0.735,0-0.924
		c0-2.352-0.021-2.625-0.294-2.919c-0.252-0.273-0.714-0.42-1.386-0.483c0.294-0.273,0.462-0.336,1.008-0.336
		c0.462,0,1.029,0.084,1.428,0.189c0.609,0.189,0.924,0.441,0.924,0.756c0,0.147,0,0.168-0.189,0.651
		c-0.231,0.609-0.357,1.365-0.441,2.814c0.966-0.273,1.575-0.546,1.932-0.861c0.21-0.21,0.273-0.231,0.462-0.231
		c0.252,0,0.735,0.126,0.987,0.273c0.168,0.084,0.273,0.231,0.273,0.378c0,0.462-1.533,1.092-3.717,1.512
		c0,2.793,0.063,3.948,0.273,5.712c2.436,0.651,3.465,1.47,3.465,2.688c0,0.441-0.189,0.777-0.42,0.777
		c-0.168,0-0.315-0.105-0.735-0.525c-0.924-0.945-1.449-1.323-2.268-1.68c0.021,0.189,0.021,0.357,0.021,0.504
		c0,1.512-1.26,2.415-3.36,2.415c-1.827,0-3.108-0.882-3.108-2.142c0-1.449,1.554-2.373,3.948-2.373
		c0.399,0,0.693,0.021,1.281,0.063c0-0.189,0-0.315,0-0.357l-0.042-2.247l-0.021-2.688c-0.63,0.126-1.239,0.168-1.848,0.168
		c-1.533,0-2.415-0.378-3.465-1.47L9.246,17.892z M12.459,25.557c-1.659,0-2.688,0.546-2.688,1.47c0,0.735,0.819,1.239,2.058,1.239
		c1.155,0,1.974-0.336,2.31-0.987c0.21-0.378,0.273-0.693,0.273-1.47C13.824,25.641,13.236,25.557,12.459,25.557z"/>
	<path d="M22.056,23.31c0.756,0.105,1.428,0.168,2.016,0.168h7.749c0.378-0.504,0.504-0.651,0.882-1.113
		c0.651,0.546,0.861,0.735,1.47,1.281c0.063,0.084,0.105,0.147,0.105,0.168c0,0.063-0.063,0.147-0.105,0.147H24.072
		c-0.525,0-0.672,0-1.869,0.084L22.056,23.31z M23.106,12.39c0.777,0.441,1.47,0.945,1.911,1.386
		c0.273,0.252,0.399,0.504,0.399,0.777c0,0.462-0.357,1.092-0.63,1.092c-0.147,0-0.231-0.105-0.315-0.357
		c-0.315-0.945-0.63-1.512-1.512-2.751L23.106,12.39z M31.149,16.043c0.273-0.357,0.378-0.462,0.693-0.798
		c0.462,0.336,0.588,0.441,1.029,0.798c0.126,0.105,0.189,0.168,0.189,0.252c0,0.105,0,0.105-0.672,0.63c0,0.609,0,0.966,0,1.407
		c0,1.218,0.021,2.289,0.084,3.927c-0.021,0.126-0.063,0.189-0.168,0.21c-0.084,0.021-0.63,0.063-0.924,0.063
		c-0.126,0-0.189-0.042-0.21-0.147v-0.609h-6.762v0.609c0,0.168-0.021,0.231-0.084,0.273c-0.105,0.063-0.546,0.105-1.029,0.105
		c-0.231,0-0.315-0.063-0.315-0.231c0-0.021,0-0.042,0-0.063c0.126-1.722,0.147-2.625,0.147-4.62c0-0.945,0-1.008-0.063-2.604
		c0.693,0.315,0.903,0.42,1.533,0.798h5.061c0.882-1.428,1.554-2.898,1.806-3.927c0.714,0.273,0.714,0.294,0.924,0.357
		c0.756,0.294,0.945,0.42,0.945,0.567c0,0.189-0.084,0.21-0.903,0.336c-0.903,1.155-1.155,1.449-2.31,2.667H31.149z M24.891,30.281
		c0,0.168-0.042,0.21-0.168,0.252s-0.861,0.147-1.008,0.147s-0.21-0.063-0.21-0.189c0,0,0-0.021,0-0.042
		c0.042-1.596,0.063-2.646,0.063-3.927c0-0.672-0.021-1.071-0.063-1.848c0.735,0.378,0.966,0.504,1.68,0.966h5.061
		c0.273-0.357,0.378-0.462,0.672-0.777c0.504,0.315,0.672,0.42,1.176,0.777c0.147,0.126,0.21,0.21,0.21,0.252
		c0,0.105-0.273,0.315-0.651,0.525c0,0.273,0,0.441,0,0.609c0,0.42,0,0.42,0.063,2.562c0,0.021,0,0.063,0,0.084
		c0,0.21-0.399,0.336-1.071,0.336c-0.189,0-0.252-0.042-0.252-0.147v-0.462h-5.502V30.281z M27.201,18.626v-2.1h-2.793v2.1H27.201z
		 M24.408,21.293h2.793v-2.184h-2.793V21.293z M24.891,28.917h5.502v-2.793h-5.502V28.917z M26.235,11.864
		c0.714,0.42,1.029,0.63,1.638,1.134c0.504,0.399,0.693,0.672,0.693,1.008c0,0.567-0.357,1.197-0.693,1.197
		c-0.126,0-0.21-0.084-0.294-0.315c-0.084-0.252-0.273-0.714-0.483-1.155c-0.336-0.735-0.525-1.029-1.05-1.722L26.235,11.864z
		 M31.17,16.526h-2.73v2.1h2.73V16.526z M28.44,19.109v2.184h2.73v-2.184H28.44z M37.197,18.689c0.21,2.037,0.588,3.591,1.281,5.292
		c0.546,1.323,1.323,2.604,2.142,3.528c0.462,0.525,0.714,0.735,1.428,1.176l-0.021,0.21c-0.42,0.084-0.546,0.147-0.84,0.504
		c-0.252,0.336-0.378,0.567-0.567,1.134c-1.155-1.449-1.869-2.898-2.499-4.914c-0.567-1.869-0.987-4.2-1.155-6.531
		c-0.168,2.058-0.336,3.003-0.693,4.389c-0.609,2.184-1.617,4.2-2.835,5.67c-0.609,0.714-1.029,1.092-2.058,1.806l-0.21-0.231
		c0.945-0.945,1.365-1.491,2.016-2.52c1.554-2.562,2.247-5.082,2.562-9.513h-1.26c-0.63,0-1.134,0.042-1.638,0.105l-0.126-0.714
		c0.546,0.063,1.302,0.126,1.764,0.126h1.302c0.063-1.323,0.084-2.247,0.084-4.116c0-0.756-0.021-1.218-0.084-1.974
		c1.89,0.168,2.289,0.231,2.289,0.462c0,0.147-0.168,0.273-0.903,0.588c0,0.441-0.021,0.84-0.021,1.05
		c-0.042,2.961-0.042,2.961-0.105,3.99h1.659c0.462-0.546,0.609-0.714,1.092-1.239c0.693,0.567,0.903,0.735,1.575,1.365
		c0.084,0.084,0.147,0.189,0.147,0.231c0,0.084-0.105,0.126-0.252,0.126H37.197z M38.268,13.355
		c1.239,0.966,1.911,1.722,1.911,2.205s-0.504,1.323-0.777,1.323c-0.231,0-0.294-0.126-0.42-0.84
		c-0.147-0.714-0.294-1.092-0.924-2.541L38.268,13.355z"/>
	<path fill="#ED6E46" d="M62.922,17.114c0-3.696,0-3.927-0.105-5.313c0.462,0.063,0.84,0.105,1.071,0.126
		c0.945,0.126,1.344,0.273,1.344,0.483c0,0.189-0.21,0.294-0.924,0.525c-0.021,1.407-0.021,2.226-0.021,3.024v1.554l4.515-1.302
		c0.252-0.483,0.336-0.63,0.631-1.092c0.65,0.378,0.84,0.504,1.47,0.903c0.23,0.189,0.314,0.252,0.314,0.315
		c0,0.105-0.084,0.168-0.734,0.567c-0.063,3.129-0.315,5.46-0.714,6.762c-0.315,0.987-0.841,1.323-2.521,1.596
		c-0.105-0.693-0.231-0.945-0.588-1.176c-0.378-0.273-0.861-0.441-1.806-0.672V23.1c1.449,0.21,2.415,0.315,2.94,0.315
		c0.546,0,0.672-0.189,0.924-1.26c0.21-0.903,0.399-3.381,0.399-5.103c0-0.126,0-0.273-0.021-0.483l-4.81,1.428
		c0,5.103,0,5.103,0.042,7.644c0,0.021,0,0.042,0,0.042c0,0.273-0.21,0.357-0.819,0.357c-0.105,0-0.189,0.021-0.252,0.021
		c-0.042,0-0.084,0-0.105,0c-0.231,0-0.336-0.084-0.336-0.294c0.063-2.73,0.084-3.171,0.084-3.717v-3.654l-4.116,1.218v8.001
		c0,0.966,0,0.966,5.901,0.966c3.024,0,4.809-0.042,5.313-0.126c0.567-0.105,0.777-0.357,1.05-1.323
		c0.063-0.273,0.147-0.588,0.925-3.843l0.314,0.042l-0.104,3.801c0,0.084,0.021,0.462,0.063,0.588
		c0.042,0.273,0.105,0.336,0.483,0.504c0.294,0.126,0.44,0.315,0.44,0.546c0,0.399-0.314,0.672-0.882,0.819
		c-0.798,0.189-2.751,0.273-6.825,0.273c-6.153,0-6.846-0.042-7.56-0.462c-0.42-0.252-0.588-0.672-0.609-1.554
		c0-0.945,0-1.617,0.021-2.1c0-1.008,0.021-1.764,0.021-1.995v-3.717l-1.533,0.462c-0.378,0.105-1.029,0.399-1.764,0.756
		l-0.378-0.777c0.483-0.063,1.47-0.273,1.995-0.441l1.68-0.483v-4.326c0-0.378-0.021-0.861-0.063-1.638
		c1.974,0.168,2.499,0.273,2.478,0.525c-0.021,0.231-0.294,0.42-0.966,0.609v4.41l4.137-1.218V17.114z"/>
</g>
<g>
	<path d="M14.496,43.528c-0.451,1.858-0.64,2.814-0.64,3.182c0,0.031,0,0.073,0,0.115c0.01,0.084,0.01,0.126,0.01,0.168
		c0,0.336-0.084,0.494-0.263,0.494c-0.157,0-0.315-0.137-0.441-0.378c-0.336-0.651-0.504-1.564-0.504-2.72
		c0-0.777,0.053-1.281,0.231-2.383c0.137-0.767,0.168-1.061,0.168-1.302c0-0.325-0.126-0.651-0.378-1.008
		c0.231,0.01,0.441,0.147,0.693,0.41c0.305,0.336,0.462,0.619,0.462,0.84c0,0.137-0.011,0.2-0.147,0.578
		c-0.357,0.998-0.546,1.995-0.546,2.919c0,0.777,0.074,1.271,0.252,1.638c0.126-0.315,0.756-2.026,0.945-2.593L14.496,43.528z
		 M15.336,41.796c0.472,0.336,0.724,0.42,1.218,0.42c0.431,0,1.04-0.084,1.512-0.221c0-0.157,0-0.273,0-0.367
		c0-0.872-0.032-1.292-0.126-1.47c-0.105-0.21-0.399-0.368-0.893-0.483c0.157-0.137,0.231-0.158,0.577-0.158
		c0.756,0,1.26,0.21,1.26,0.525c0,0.042-0.021,0.147-0.053,0.252c-0.105,0.388-0.115,0.514-0.136,1.512
		c0.567-0.178,0.693-0.241,0.956-0.451c0.073-0.053,0.126-0.074,0.22-0.074c0.336,0,0.63,0.147,0.63,0.315
		c0,0.126-0.074,0.189-0.368,0.336c-0.336,0.158-0.662,0.263-1.428,0.462v1.544c0,1.659-0.283,2.509-1.071,3.339
		c-0.462,0.472-0.924,0.819-1.596,1.145l-0.084-0.137c0.767-0.599,1.134-0.998,1.48-1.617c0.494-0.861,0.662-1.796,0.662-3.602
		c0-0.231,0-0.263,0-0.536c-0.473,0.095-0.84,0.137-1.218,0.137c-0.704,0-1.176-0.21-1.648-0.746L15.336,41.796z"/>
	<path d="M22.476,41.775c0.431,0.441,0.704,0.577,1.155,0.577c0.409,0,0.851-0.063,1.333-0.199c0.21-0.683,0.357-1.417,0.357-1.785
		c0-0.315-0.158-0.451-0.746-0.651c0.137-0.074,0.189-0.095,0.326-0.095c0.241,0,0.588,0.074,0.903,0.2
		c0.315,0.116,0.473,0.263,0.473,0.42c0,0.074,0,0.074-0.126,0.252c-0.137,0.2-0.368,0.756-0.63,1.501
		c0.588-0.21,0.966-0.409,1.218-0.64c0.168-0.158,0.21-0.179,0.294-0.179c0.137,0,0.389,0.053,0.557,0.116
		c0.115,0.042,0.168,0.105,0.168,0.189c0,0.178-0.168,0.315-0.609,0.504c-0.473,0.22-1.176,0.452-1.838,0.62
		c-0.126,0.357-0.126,0.357-0.441,1.333c-0.21,0.63-0.21,0.63-0.788,2.341c-0.42,1.25-0.556,1.512-0.777,1.512
		c-0.105,0-0.178-0.063-0.241-0.21c-0.084-0.168-0.147-0.43-0.147-0.609c0-0.168,0.01-0.199,0.231-0.514
		c0.525-0.767,0.934-1.68,1.648-3.759c-0.399,0.074-0.704,0.105-1.008,0.105c-0.64,0-1.05-0.273-1.438-0.945L22.476,41.775z
		 M26.666,45.397c-0.01,0.157-0.01,0.283-0.01,0.325c0,0.599,0.284,1.05,0.798,1.271c0.284,0.126,0.714,0.2,1.124,0.2
		c0.431,0,0.672-0.032,1.008-0.158c0.073-0.031,0.136-0.042,0.178-0.042c0.116,0,0.357,0.116,0.536,0.252
		c0.126,0.105,0.189,0.2,0.189,0.294c0,0.231-0.41,0.347-1.239,0.347c-0.808,0-1.48-0.116-1.942-0.336
		c-0.567-0.273-0.893-0.819-0.893-1.522c0-0.231,0.021-0.41,0.095-0.662L26.666,45.397z M26.949,43.455
		c0.756-0.462,1.617-0.714,2.436-0.714c0.221,0,0.494,0.074,0.662,0.189c0.105,0.063,0.168,0.179,0.168,0.294
		c0,0.179-0.095,0.231-0.399,0.252c-0.389,0.011-0.515,0.053-0.809,0.21c-0.21,0.116-0.221,0.116-0.578,0.357
		c-0.199,0.126-0.199,0.126-0.368,0.22l-0.063-0.094c0.126-0.126,0.126-0.126,0.504-0.473c0.094-0.084,0.189-0.179,0.514-0.494
		c-0.693,0-1.25,0.116-2.005,0.389L26.949,43.455z M28.44,39.99c0.577,0.179,1.113,0.431,1.417,0.662
		c0.231,0.168,0.304,0.304,0.304,0.525c0,0.284-0.126,0.525-0.262,0.525c-0.084,0-0.158-0.063-0.242-0.199
		c-0.368-0.599-0.662-0.914-1.281-1.386L28.44,39.99z M29.343,39.265c0.788,0.2,1.218,0.357,1.512,0.557
		c0.21,0.158,0.283,0.294,0.283,0.546c0,0.263-0.094,0.462-0.221,0.462c-0.073,0-0.136-0.052-0.241-0.21
		c-0.357-0.483-0.798-0.882-1.396-1.218L29.343,39.265z"/>
	<path d="M34.194,40.819c0.252,0.378,0.42,0.557,0.725,0.756c0.367,0.231,0.682,0.347,1.229,0.452
		c0.294-1.459,0.325-1.617,0.325-1.869c0-0.357-0.147-0.578-0.567-0.872c0.084-0.031,0.116-0.042,0.179-0.042
		c0.189,0,0.462,0.116,0.777,0.326c0.336,0.231,0.546,0.525,0.546,0.756c0,0.095-0.031,0.179-0.137,0.305
		c-0.178,0.252-0.294,0.536-0.577,1.459c0.22,0.063,0.315,0.115,0.42,0.231c0.084,0.094,0.147,0.242,0.147,0.347
		c0,0.136-0.126,0.22-0.336,0.22c-0.105,0-0.242-0.021-0.41-0.052c-0.21,0.703-0.336,1.323-0.42,1.942
		c0.252,0.052,0.431,0.073,0.536,0.073c0.031,0,0.052,0,0.084-0.01c0.063-0.011,0.105-0.011,0.115-0.011
		c0.273,0,0.63,0.326,0.63,0.567c0,0.147-0.137,0.241-0.357,0.241c-0.294,0-0.735-0.073-1.113-0.189
		c-0.021,0.252-0.032,0.378-0.032,0.515c0,1.071,0.599,1.669,1.659,1.669c0.714,0,1.333-0.273,1.659-0.714
		c0.231-0.315,0.346-0.672,0.346-1.071c0-0.872-0.588-1.858-1.585-2.625l0.116-0.136c1.554,0.956,2.215,1.827,2.215,2.898
		c0,1.271-1.092,2.236-2.551,2.236c-0.546,0-1.071-0.157-1.428-0.431c-0.546-0.409-0.809-1.039-0.809-1.953
		c0-0.126,0.011-0.263,0.021-0.525c-0.409-0.189-0.619-0.315-0.84-0.536c-0.284-0.294-0.462-0.683-0.462-1.04
		c0-0.242,0.115-0.504,0.325-0.725c0.252-0.252,0.515-0.399,1.019-0.557c-0.42-0.157-0.714-0.346-1.019-0.651
		c-0.22-0.231-0.346-0.441-0.546-0.924L34.194,40.819z M34.814,43.161c-0.158,0.168-0.231,0.326-0.231,0.525
		c0,0.441,0.357,0.767,1.082,0.987c0.053-0.525,0.147-1.124,0.315-1.911C35.37,42.793,35.066,42.909,34.814,43.161z"/>
	<path d="M47.613,47.571c1.134-0.336,1.858-0.767,2.457-1.459c0.62-0.704,0.935-1.564,0.935-2.531c0-1.018-0.41-1.827-1.187-2.32
		c-0.462-0.305-1.155-0.483-1.816-0.483c-0.126,0-0.2,0-0.368,0.021c0.252,0.368,0.326,0.567,0.326,0.872
		c0,0.819-0.588,2.352-1.386,3.633c-0.662,1.05-1.176,1.564-1.564,1.564c-0.179,0-0.347-0.084-0.462-0.22
		c-0.095-0.126-0.116-0.168-0.294-0.672c-0.095-0.273-0.158-0.399-0.462-0.987c-0.168-0.336-0.241-0.62-0.241-0.956
		c0-0.662,0.357-1.438,0.945-2.079c0.851-0.903,2.237-1.47,3.612-1.47c1.06,0,2.037,0.346,2.709,0.966
		c0.672,0.62,1.008,1.449,1.008,2.468c0,1.313-0.767,2.478-2.089,3.181c-0.609,0.326-1.155,0.494-2.048,0.651L47.613,47.571z
		 M44.159,44.305c0,0.504,0.158,1.019,0.42,1.386c0.147,0.189,0.284,0.304,0.399,0.304c0.231,0,0.735-0.567,1.25-1.386
		c0.777-1.239,1.333-2.594,1.333-3.245c0-0.157-0.031-0.263-0.147-0.525C45.587,41.166,44.159,42.688,44.159,44.305z"/>
	<path d="M7.146,59.793c-0.378,1.323-0.966,3.612-1.218,4.641c-0.21,0.924-0.273,1.26-0.273,1.785
		c-0.021,0.672-0.042,0.756-0.147,0.924c-0.105,0.147-0.231,0.231-0.399,0.231c-0.357,0-0.651-0.294-0.903-0.945
		c-0.42-1.071-0.672-2.667-0.672-4.221c0-1.932,0.231-3.696,0.945-6.993c0.273-1.302,0.315-1.533,0.315-1.89
		c0-0.63-0.168-1.134-0.609-1.848c0.483,0.021,0.882,0.294,1.47,1.05c0.483,0.609,0.756,1.197,0.756,1.596
		c0,0.231,0,0.231-0.336,0.924c-1.008,2.1-1.596,4.599-1.596,6.846c0,1.071,0.084,1.743,0.336,2.604l0.882-2.1l1.134-2.709
		L7.146,59.793z M9.246,55.992c1.008,0.651,1.659,0.861,2.709,0.861c0.735,0,1.533-0.105,2.394-0.294c0-0.399,0-0.735,0-0.924
		c0-2.352-0.021-2.625-0.294-2.919c-0.252-0.273-0.714-0.42-1.386-0.483c0.294-0.273,0.462-0.336,1.008-0.336
		c0.462,0,1.029,0.084,1.428,0.189c0.609,0.189,0.924,0.441,0.924,0.756c0,0.147,0,0.168-0.189,0.651
		c-0.231,0.609-0.357,1.365-0.441,2.814c0.966-0.273,1.575-0.546,1.932-0.861c0.21-0.21,0.273-0.231,0.462-0.231
		c0.252,0,0.735,0.126,0.987,0.273c0.168,0.084,0.273,0.231,0.273,0.378c0,0.462-1.533,1.092-3.717,1.512
		c0,2.793,0.063,3.948,0.273,5.712c2.436,0.651,3.465,1.47,3.465,2.688c0,0.441-0.189,0.777-0.42,0.777
		c-0.168,0-0.315-0.105-0.735-0.525c-0.924-0.945-1.449-1.323-2.268-1.68c0.021,0.189,0.021,0.357,0.021,0.504
		c0,1.512-1.26,2.415-3.36,2.415c-1.827,0-3.108-0.882-3.108-2.142c0-1.449,1.554-2.373,3.948-2.373
		c0.399,0,0.693,0.021,1.281,0.063c0-0.189,0-0.315,0-0.357l-0.042-2.247l-0.021-2.688c-0.63,0.126-1.239,0.168-1.848,0.168
		c-1.533,0-2.415-0.378-3.465-1.47L9.246,55.992z M12.459,63.657c-1.659,0-2.688,0.546-2.688,1.47c0,0.735,0.819,1.239,2.058,1.239
		c1.155,0,1.974-0.336,2.31-0.987c0.21-0.378,0.273-0.693,0.273-1.47C13.824,63.741,13.236,63.657,12.459,63.657z"/>
	<path d="M22.056,61.41c0.756,0.105,1.428,0.168,2.016,0.168h7.749c0.378-0.504,0.504-0.651,0.882-1.113
		c0.651,0.546,0.861,0.735,1.47,1.281c0.063,0.084,0.105,0.147,0.105,0.168c0,0.063-0.063,0.147-0.105,0.147H24.072
		c-0.525,0-0.672,0-1.869,0.084L22.056,61.41z M23.106,50.49c0.777,0.441,1.47,0.945,1.911,1.386
		c0.273,0.252,0.399,0.504,0.399,0.777c0,0.462-0.357,1.092-0.63,1.092c-0.147,0-0.231-0.105-0.315-0.357
		c-0.315-0.945-0.63-1.512-1.512-2.751L23.106,50.49z M31.149,54.144c0.273-0.357,0.378-0.462,0.693-0.798
		c0.462,0.336,0.588,0.441,1.029,0.798c0.126,0.105,0.189,0.168,0.189,0.252c0,0.105,0,0.105-0.672,0.63c0,0.609,0,0.966,0,1.407
		c0,1.218,0.021,2.289,0.084,3.927c-0.021,0.126-0.063,0.189-0.168,0.21c-0.084,0.021-0.63,0.063-0.924,0.063
		c-0.126,0-0.189-0.042-0.21-0.147v-0.609h-6.762v0.609c0,0.168-0.021,0.231-0.084,0.273c-0.105,0.063-0.546,0.105-1.029,0.105
		c-0.231,0-0.315-0.063-0.315-0.231c0-0.021,0-0.042,0-0.063c0.126-1.722,0.147-2.625,0.147-4.62c0-0.945,0-1.008-0.063-2.604
		c0.693,0.315,0.903,0.42,1.533,0.798h5.061c0.882-1.428,1.554-2.898,1.806-3.927c0.714,0.273,0.714,0.294,0.924,0.357
		c0.756,0.294,0.945,0.42,0.945,0.567c0,0.189-0.084,0.21-0.903,0.336c-0.903,1.155-1.155,1.449-2.31,2.667H31.149z M24.891,68.382
		c0,0.168-0.042,0.21-0.168,0.252s-0.861,0.147-1.008,0.147s-0.21-0.063-0.21-0.189c0,0,0-0.021,0-0.042
		c0.042-1.596,0.063-2.646,0.063-3.927c0-0.672-0.021-1.071-0.063-1.848c0.735,0.378,0.966,0.504,1.68,0.966h5.061
		c0.273-0.357,0.378-0.462,0.672-0.777c0.504,0.315,0.672,0.42,1.176,0.777c0.147,0.126,0.21,0.21,0.21,0.252
		c0,0.105-0.273,0.315-0.651,0.525c0,0.273,0,0.441,0,0.609c0,0.42,0,0.42,0.063,2.562c0,0.021,0,0.063,0,0.084
		c0,0.21-0.399,0.336-1.071,0.336c-0.189,0-0.252-0.042-0.252-0.147V67.5h-5.502V68.382z M27.201,56.727v-2.1h-2.793v2.1H27.201z
		 M24.408,59.394h2.793V57.21h-2.793V59.394z M24.891,67.017h5.502v-2.793h-5.502V67.017z M26.235,49.965
		c0.714,0.42,1.029,0.63,1.638,1.134c0.504,0.399,0.693,0.672,0.693,1.008c0,0.567-0.357,1.197-0.693,1.197
		c-0.126,0-0.21-0.084-0.294-0.315c-0.084-0.252-0.273-0.714-0.483-1.155c-0.336-0.735-0.525-1.029-1.05-1.722L26.235,49.965z
		 M31.17,54.627h-2.73v2.1h2.73V54.627z M28.44,57.21v2.184h2.73V57.21H28.44z M37.197,56.79c0.21,2.037,0.588,3.591,1.281,5.292
		c0.546,1.323,1.323,2.604,2.142,3.528c0.462,0.525,0.714,0.735,1.428,1.176l-0.021,0.21c-0.42,0.084-0.546,0.147-0.84,0.504
		c-0.252,0.336-0.378,0.567-0.567,1.134c-1.155-1.449-1.869-2.898-2.499-4.914c-0.567-1.869-0.987-4.2-1.155-6.531
		c-0.168,2.058-0.336,3.003-0.693,4.389c-0.609,2.184-1.617,4.2-2.835,5.67c-0.609,0.714-1.029,1.092-2.058,1.806l-0.21-0.231
		c0.945-0.945,1.365-1.491,2.016-2.52c1.554-2.562,2.247-5.082,2.562-9.513h-1.26c-0.63,0-1.134,0.042-1.638,0.105l-0.126-0.714
		c0.546,0.063,1.302,0.126,1.764,0.126h1.302c0.063-1.323,0.084-2.247,0.084-4.116c0-0.756-0.021-1.218-0.084-1.974
		c1.89,0.168,2.289,0.231,2.289,0.462c0,0.147-0.168,0.273-0.903,0.588c0,0.441-0.021,0.84-0.021,1.05
		c-0.042,2.961-0.042,2.961-0.105,3.99h1.659c0.462-0.546,0.609-0.714,1.092-1.239c0.693,0.567,0.903,0.735,1.575,1.365
		c0.084,0.084,0.147,0.189,0.147,0.231c0,0.084-0.105,0.126-0.252,0.126H37.197z M38.268,51.456
		c1.239,0.966,1.911,1.722,1.911,2.205s-0.504,1.323-0.777,1.323c-0.231,0-0.294-0.126-0.42-0.84
		c-0.147-0.714-0.294-1.092-0.924-2.541L38.268,51.456z"/>
	<path d="M62.922,55.215c0-3.696,0-3.927-0.105-5.313c0.462,0.063,0.84,0.105,1.071,0.126c0.945,0.126,1.344,0.273,1.344,0.483
		c0,0.189-0.21,0.294-0.924,0.525c-0.021,1.407-0.021,2.226-0.021,3.024v1.554l4.515-1.302c0.252-0.483,0.336-0.63,0.631-1.092
		c0.65,0.378,0.84,0.504,1.47,0.903c0.23,0.189,0.314,0.252,0.314,0.315c0,0.105-0.084,0.168-0.734,0.567
		c-0.063,3.129-0.315,5.46-0.714,6.762c-0.315,0.987-0.841,1.323-2.521,1.596c-0.105-0.693-0.231-0.945-0.588-1.176
		c-0.378-0.273-0.861-0.441-1.806-0.672V61.2c1.449,0.21,2.415,0.315,2.94,0.315c0.546,0,0.672-0.189,0.924-1.26
		c0.21-0.903,0.399-3.381,0.399-5.103c0-0.126,0-0.273-0.021-0.483l-4.81,1.428c0,5.103,0,5.103,0.042,7.644
		c0,0.021,0,0.042,0,0.042c0,0.273-0.21,0.357-0.819,0.357c-0.105,0-0.189,0.021-0.252,0.021c-0.042,0-0.084,0-0.105,0
		c-0.231,0-0.336-0.084-0.336-0.294c0.063-2.73,0.084-3.171,0.084-3.717v-3.654l-4.116,1.218v8.001c0,0.966,0,0.966,5.901,0.966
		c3.024,0,4.809-0.042,5.313-0.126c0.567-0.105,0.777-0.357,1.05-1.323c0.063-0.273,0.147-0.588,0.925-3.843l0.314,0.042
		l-0.104,3.801c0,0.084,0.021,0.462,0.063,0.588c0.042,0.273,0.105,0.336,0.483,0.504c0.294,0.126,0.44,0.315,0.44,0.546
		c0,0.399-0.314,0.672-0.882,0.819c-0.798,0.189-2.751,0.273-6.825,0.273c-6.153,0-6.846-0.042-7.56-0.462
		c-0.42-0.252-0.588-0.672-0.609-1.554c0-0.945,0-1.617,0.021-2.1c0-1.008,0.021-1.764,0.021-1.995v-3.717l-1.533,0.462
		c-0.378,0.105-1.029,0.399-1.764,0.756l-0.378-0.777c0.483-0.063,1.47-0.273,1.995-0.441l1.68-0.483v-4.326
		c0-0.378-0.021-0.861-0.063-1.638c1.974,0.168,2.499,0.273,2.478,0.525c-0.021,0.231-0.294,0.42-0.966,0.609v4.41l4.137-1.218
		V55.215z"/>
</g>
<rect x="0.25" y="10.75" fill="none" stroke="#008CD6" stroke-width="0.5" width="42" height="21"/>
<line fill="none" stroke="#008CD6" stroke-width="0.5" x1="21.25" y1="31.75" x2="21.25" y2="10.75"/>
<rect x="52.75" y="10.75" fill="none" stroke="#008CD6" stroke-width="0.5" width="21" height="21"/>
<g>
	<line fill="none" stroke="#008CD6" stroke-width="0.5" x1="21.25" y1="10.75" x2="21.25" y2="0.25"/>
	<line fill="none" stroke="#008CD6" stroke-width="0.5" x1="31.75" y1="10.75" x2="31.75" y2="0.25"/>
	<polyline fill="none" stroke="#008CD6" stroke-width="0.5" points="10.75,10.75 10.75,0.25 52.75,0.25 52.75,10.75 42.25,10.75 
		42.25,0.25 	"/>
</g>
<g>
	<path d="M24.996,89.053c-0.451,1.858-0.64,2.814-0.64,3.182c0,0.031,0,0.073,0,0.115c0.01,0.084,0.01,0.126,0.01,0.168
		c0,0.336-0.084,0.494-0.263,0.494c-0.157,0-0.315-0.137-0.441-0.378c-0.336-0.651-0.504-1.564-0.504-2.72
		c0-0.777,0.053-1.281,0.231-2.383c0.137-0.767,0.168-1.061,0.168-1.302c0-0.325-0.126-0.651-0.378-1.008
		c0.231,0.01,0.441,0.147,0.693,0.41c0.305,0.336,0.462,0.619,0.462,0.84c0,0.137-0.011,0.2-0.147,0.578
		c-0.357,0.998-0.546,1.995-0.546,2.919c0,0.777,0.074,1.271,0.252,1.638c0.126-0.315,0.756-2.026,0.945-2.593L24.996,89.053z
		 M25.836,87.32c0.472,0.336,0.724,0.42,1.218,0.42c0.431,0,1.04-0.084,1.512-0.221c0-0.157,0-0.273,0-0.367
		c0-0.872-0.032-1.292-0.126-1.47c-0.105-0.21-0.399-0.368-0.893-0.483c0.157-0.137,0.231-0.158,0.577-0.158
		c0.756,0,1.26,0.21,1.26,0.525c0,0.042-0.021,0.147-0.053,0.252c-0.105,0.388-0.115,0.514-0.136,1.512
		c0.567-0.178,0.693-0.241,0.956-0.451c0.073-0.053,0.126-0.074,0.22-0.074c0.336,0,0.63,0.147,0.63,0.315
		c0,0.126-0.074,0.189-0.368,0.336c-0.336,0.158-0.662,0.263-1.428,0.462v1.544c0,1.659-0.283,2.509-1.071,3.339
		c-0.462,0.472-0.924,0.819-1.596,1.145l-0.084-0.137c0.767-0.599,1.134-0.998,1.48-1.617c0.494-0.861,0.662-1.796,0.662-3.602
		c0-0.231,0-0.263,0-0.536c-0.473,0.095-0.84,0.137-1.218,0.137c-0.704,0-1.176-0.21-1.648-0.746L25.836,87.32z"/>
	<path d="M32.976,87.299c0.431,0.441,0.704,0.577,1.155,0.577c0.409,0,0.851-0.063,1.333-0.199c0.21-0.683,0.357-1.417,0.357-1.785
		c0-0.315-0.158-0.451-0.746-0.651c0.137-0.074,0.189-0.095,0.326-0.095c0.241,0,0.588,0.074,0.903,0.2
		c0.315,0.116,0.473,0.263,0.473,0.42c0,0.074,0,0.074-0.126,0.252c-0.137,0.2-0.368,0.756-0.63,1.501
		c0.588-0.21,0.966-0.409,1.218-0.64c0.168-0.158,0.21-0.179,0.294-0.179c0.137,0,0.389,0.053,0.557,0.116
		c0.115,0.042,0.168,0.105,0.168,0.189c0,0.178-0.168,0.315-0.609,0.504c-0.473,0.22-1.176,0.452-1.838,0.62
		c-0.126,0.357-0.126,0.357-0.441,1.333c-0.21,0.63-0.21,0.63-0.788,2.341c-0.42,1.25-0.556,1.512-0.777,1.512
		c-0.105,0-0.178-0.063-0.241-0.21c-0.084-0.168-0.147-0.43-0.147-0.609c0-0.168,0.01-0.199,0.231-0.514
		c0.525-0.767,0.934-1.68,1.648-3.759c-0.399,0.074-0.704,0.105-1.008,0.105c-0.64,0-1.05-0.273-1.438-0.945L32.976,87.299z
		 M37.166,90.922c-0.01,0.157-0.01,0.283-0.01,0.325c0,0.599,0.284,1.05,0.798,1.271c0.284,0.126,0.714,0.2,1.124,0.2
		c0.431,0,0.672-0.032,1.008-0.158c0.073-0.031,0.136-0.042,0.178-0.042c0.116,0,0.357,0.116,0.536,0.252
		c0.126,0.105,0.189,0.2,0.189,0.294c0,0.231-0.41,0.347-1.239,0.347c-0.808,0-1.48-0.116-1.942-0.336
		c-0.567-0.273-0.893-0.819-0.893-1.522c0-0.231,0.021-0.41,0.095-0.662L37.166,90.922z M37.449,88.979
		c0.756-0.462,1.617-0.714,2.436-0.714c0.221,0,0.494,0.074,0.662,0.189c0.105,0.063,0.168,0.179,0.168,0.294
		c0,0.179-0.095,0.231-0.399,0.252c-0.389,0.011-0.515,0.053-0.809,0.21c-0.21,0.116-0.221,0.116-0.578,0.357
		c-0.199,0.126-0.199,0.126-0.368,0.22l-0.063-0.094c0.126-0.126,0.126-0.126,0.504-0.473c0.094-0.084,0.189-0.179,0.514-0.494
		c-0.693,0-1.25,0.116-2.005,0.389L37.449,88.979z M38.94,85.514c0.577,0.179,1.113,0.431,1.417,0.662
		c0.231,0.168,0.304,0.304,0.304,0.525c0,0.284-0.126,0.525-0.262,0.525c-0.084,0-0.158-0.063-0.242-0.199
		c-0.368-0.599-0.662-0.914-1.281-1.386L38.94,85.514z M39.843,84.79c0.788,0.2,1.218,0.357,1.512,0.557
		c0.21,0.158,0.283,0.294,0.283,0.546c0,0.263-0.094,0.462-0.221,0.462c-0.073,0-0.136-0.052-0.241-0.21
		c-0.357-0.483-0.798-0.882-1.396-1.218L39.843,84.79z"/>
	<path d="M44.694,86.344c0.252,0.378,0.42,0.557,0.725,0.756c0.367,0.231,0.682,0.347,1.229,0.452
		c0.294-1.459,0.325-1.617,0.325-1.869c0-0.357-0.147-0.578-0.567-0.872c0.084-0.031,0.116-0.042,0.179-0.042
		c0.189,0,0.462,0.116,0.777,0.326c0.336,0.231,0.546,0.525,0.546,0.756c0,0.095-0.031,0.179-0.137,0.305
		c-0.178,0.252-0.294,0.536-0.577,1.459c0.22,0.063,0.315,0.115,0.42,0.231c0.084,0.094,0.147,0.242,0.147,0.347
		c0,0.136-0.126,0.22-0.336,0.22c-0.105,0-0.242-0.021-0.41-0.052c-0.21,0.703-0.336,1.323-0.42,1.942
		c0.252,0.052,0.431,0.073,0.536,0.073c0.031,0,0.052,0,0.084-0.01c0.063-0.011,0.105-0.011,0.115-0.011
		c0.273,0,0.63,0.326,0.63,0.567c0,0.147-0.137,0.241-0.357,0.241c-0.294,0-0.735-0.073-1.113-0.189
		c-0.021,0.252-0.032,0.378-0.032,0.515c0,1.071,0.599,1.669,1.659,1.669c0.714,0,1.333-0.273,1.659-0.714
		c0.231-0.315,0.346-0.672,0.346-1.071c0-0.872-0.588-1.858-1.585-2.625l0.116-0.136c1.554,0.956,2.215,1.827,2.215,2.898
		c0,1.271-1.092,2.236-2.551,2.236c-0.546,0-1.071-0.157-1.428-0.431c-0.546-0.409-0.809-1.039-0.809-1.953
		c0-0.126,0.011-0.263,0.021-0.525c-0.409-0.189-0.619-0.315-0.84-0.536c-0.284-0.294-0.462-0.683-0.462-1.04
		c0-0.242,0.115-0.504,0.325-0.725c0.252-0.252,0.515-0.399,1.019-0.557c-0.42-0.157-0.714-0.346-1.019-0.651
		c-0.22-0.231-0.346-0.441-0.546-0.924L44.694,86.344z M45.314,88.685c-0.158,0.168-0.231,0.326-0.231,0.525
		c0,0.441,0.357,0.767,1.082,0.987c0.053-0.525,0.147-1.124,0.315-1.911C45.87,88.318,45.566,88.433,45.314,88.685z"/>
	<path d="M58.113,93.095c1.134-0.336,1.858-0.767,2.457-1.459c0.62-0.704,0.935-1.564,0.935-2.531c0-1.018-0.41-1.827-1.187-2.32
		c-0.462-0.305-1.155-0.483-1.816-0.483c-0.126,0-0.2,0-0.368,0.021c0.252,0.368,0.326,0.567,0.326,0.872
		c0,0.819-0.588,2.352-1.386,3.633c-0.662,1.05-1.176,1.564-1.564,1.564c-0.179,0-0.347-0.084-0.462-0.22
		c-0.095-0.126-0.116-0.168-0.294-0.672c-0.095-0.273-0.158-0.399-0.462-0.987c-0.168-0.336-0.241-0.62-0.241-0.956
		c0-0.662,0.357-1.438,0.945-2.079c0.851-0.903,2.237-1.47,3.612-1.47c1.06,0,2.037,0.346,2.709,0.966
		c0.672,0.62,1.008,1.449,1.008,2.468c0,1.313-0.767,2.478-2.089,3.181c-0.609,0.326-1.155,0.494-2.048,0.651L58.113,93.095z
		 M54.659,89.83c0,0.504,0.158,1.019,0.42,1.386c0.147,0.189,0.284,0.304,0.399,0.304c0.231,0,0.735-0.567,1.25-1.386
		c0.777-1.239,1.333-2.594,1.333-3.245c0-0.157-0.031-0.263-0.147-0.525C56.087,86.69,54.659,88.213,54.659,89.83z"/>
	<path fill="#00A73B" d="M7.146,105.317c-0.378,1.323-0.966,3.612-1.218,4.641c-0.21,0.924-0.273,1.26-0.273,1.785
		c-0.021,0.672-0.042,0.756-0.147,0.924c-0.105,0.147-0.231,0.231-0.399,0.231c-0.357,0-0.651-0.294-0.903-0.945
		c-0.42-1.071-0.672-2.667-0.672-4.221c0-1.932,0.231-3.696,0.945-6.993c0.273-1.302,0.315-1.533,0.315-1.89
		c0-0.63-0.168-1.134-0.609-1.848c0.483,0.021,0.882,0.294,1.47,1.05c0.483,0.609,0.756,1.197,0.756,1.596
		c0,0.231,0,0.231-0.336,0.924c-1.008,2.1-1.596,4.599-1.596,6.846c0,1.071,0.084,1.743,0.336,2.604l0.882-2.1l1.134-2.709
		L7.146,105.317z M9.246,101.517c1.008,0.651,1.659,0.861,2.709,0.861c0.735,0,1.533-0.105,2.394-0.294c0-0.399,0-0.735,0-0.924
		c0-2.352-0.021-2.625-0.294-2.919c-0.252-0.273-0.714-0.42-1.386-0.483c0.294-0.273,0.462-0.336,1.008-0.336
		c0.462,0,1.029,0.084,1.428,0.189c0.609,0.189,0.924,0.441,0.924,0.756c0,0.147,0,0.168-0.189,0.651
		c-0.231,0.609-0.357,1.365-0.441,2.814c0.966-0.273,1.575-0.546,1.932-0.861c0.21-0.21,0.273-0.231,0.462-0.231
		c0.252,0,0.735,0.126,0.987,0.273c0.168,0.084,0.273,0.231,0.273,0.378c0,0.462-1.533,1.092-3.717,1.512
		c0,2.793,0.063,3.948,0.273,5.712c2.436,0.651,3.465,1.47,3.465,2.688c0,0.441-0.189,0.777-0.42,0.777
		c-0.168,0-0.315-0.105-0.735-0.525c-0.924-0.945-1.449-1.323-2.268-1.68c0.021,0.189,0.021,0.357,0.021,0.504
		c0,1.512-1.26,2.415-3.36,2.415c-1.827,0-3.108-0.882-3.108-2.142c0-1.449,1.554-2.373,3.948-2.373
		c0.399,0,0.693,0.021,1.281,0.063c0-0.189,0-0.315,0-0.357l-0.042-2.247l-0.021-2.688c-0.63,0.126-1.239,0.168-1.848,0.168
		c-1.533,0-2.415-0.378-3.465-1.47L9.246,101.517z M12.459,109.182c-1.659,0-2.688,0.546-2.688,1.47
		c0,0.735,0.819,1.239,2.058,1.239c1.155,0,1.974-0.336,2.31-0.987c0.21-0.378,0.273-0.693,0.273-1.47
		C13.824,109.266,13.236,109.182,12.459,109.182z"/>
	<path d="M32.556,106.935c0.756,0.105,1.428,0.168,2.016,0.168h7.749c0.378-0.504,0.504-0.651,0.882-1.113
		c0.651,0.546,0.861,0.735,1.47,1.281c0.063,0.084,0.105,0.147,0.105,0.168c0,0.063-0.063,0.147-0.105,0.147H34.572
		c-0.525,0-0.672,0-1.869,0.084L32.556,106.935z M33.606,96.015c0.777,0.441,1.47,0.945,1.911,1.386
		c0.273,0.252,0.399,0.504,0.399,0.777c0,0.462-0.357,1.092-0.63,1.092c-0.147,0-0.231-0.105-0.315-0.357
		c-0.315-0.945-0.63-1.512-1.512-2.751L33.606,96.015z M41.649,99.668c0.273-0.357,0.378-0.462,0.693-0.798
		c0.462,0.336,0.588,0.441,1.029,0.798c0.126,0.105,0.189,0.168,0.189,0.252c0,0.105,0,0.105-0.672,0.63c0,0.609,0,0.966,0,1.407
		c0,1.218,0.021,2.289,0.084,3.927c-0.021,0.126-0.063,0.189-0.168,0.21c-0.084,0.021-0.63,0.063-0.924,0.063
		c-0.126,0-0.189-0.042-0.21-0.147v-0.609h-6.762v0.609c0,0.168-0.021,0.231-0.084,0.273c-0.105,0.063-0.546,0.105-1.029,0.105
		c-0.231,0-0.315-0.063-0.315-0.231c0-0.021,0-0.042,0-0.063c0.126-1.722,0.147-2.625,0.147-4.62c0-0.945,0-1.008-0.063-2.604
		c0.693,0.315,0.903,0.42,1.533,0.798h5.061c0.882-1.428,1.554-2.898,1.806-3.927c0.714,0.273,0.714,0.294,0.924,0.357
		c0.756,0.294,0.945,0.42,0.945,0.567c0,0.189-0.084,0.21-0.903,0.336c-0.903,1.155-1.155,1.449-2.31,2.667H41.649z M35.391,113.906
		c0,0.168-0.042,0.21-0.168,0.252s-0.861,0.147-1.008,0.147s-0.21-0.063-0.21-0.189c0,0,0-0.021,0-0.042
		c0.042-1.596,0.063-2.646,0.063-3.927c0-0.672-0.021-1.071-0.063-1.848c0.735,0.378,0.966,0.504,1.68,0.966h5.061
		c0.273-0.357,0.378-0.462,0.672-0.777c0.504,0.315,0.672,0.42,1.176,0.777c0.147,0.126,0.21,0.21,0.21,0.252
		c0,0.105-0.273,0.315-0.651,0.525c0,0.273,0,0.441,0,0.609c0,0.42,0,0.42,0.063,2.562c0,0.021,0,0.063,0,0.084
		c0,0.21-0.399,0.336-1.071,0.336c-0.189,0-0.252-0.042-0.252-0.147v-0.462h-5.502V113.906z M37.701,102.251v-2.1h-2.793v2.1H37.701
		z M34.908,104.918h2.793v-2.184h-2.793V104.918z M35.391,112.542h5.502v-2.793h-5.502V112.542z M36.735,95.489
		c0.714,0.42,1.029,0.63,1.638,1.134c0.504,0.399,0.693,0.672,0.693,1.008c0,0.567-0.357,1.197-0.693,1.197
		c-0.126,0-0.21-0.084-0.294-0.315c-0.084-0.252-0.273-0.714-0.483-1.155c-0.336-0.735-0.525-1.029-1.05-1.722L36.735,95.489z
		 M41.67,100.151h-2.73v2.1h2.73V100.151z M38.94,102.734v2.184h2.73v-2.184H38.94z M47.697,102.314
		c0.21,2.037,0.588,3.591,1.281,5.292c0.546,1.323,1.323,2.604,2.142,3.528c0.462,0.525,0.714,0.735,1.428,1.176l-0.021,0.21
		c-0.42,0.084-0.546,0.147-0.84,0.504c-0.252,0.336-0.378,0.567-0.567,1.134c-1.155-1.449-1.869-2.898-2.499-4.914
		c-0.567-1.869-0.987-4.2-1.155-6.531c-0.168,2.058-0.336,3.003-0.693,4.389c-0.609,2.184-1.617,4.2-2.835,5.67
		c-0.609,0.714-1.029,1.092-2.058,1.806l-0.21-0.231c0.945-0.945,1.365-1.491,2.016-2.52c1.554-2.562,2.247-5.082,2.562-9.513h-1.26
		c-0.63,0-1.134,0.042-1.638,0.105l-0.126-0.714c0.546,0.063,1.302,0.126,1.764,0.126h1.302c0.063-1.323,0.084-2.247,0.084-4.116
		c0-0.756-0.021-1.218-0.084-1.974c1.89,0.168,2.289,0.231,2.289,0.462c0,0.147-0.168,0.273-0.903,0.588
		c0,0.441-0.021,0.84-0.021,1.05c-0.042,2.961-0.042,2.961-0.105,3.99h1.659c0.462-0.546,0.609-0.714,1.092-1.239
		c0.693,0.567,0.903,0.735,1.575,1.365c0.084,0.084,0.147,0.189,0.147,0.231c0,0.084-0.105,0.126-0.252,0.126H47.697z M48.768,96.98
		c1.239,0.966,1.911,1.722,1.911,2.205s-0.504,1.323-0.777,1.323c-0.231,0-0.294-0.126-0.42-0.84
		c-0.147-0.714-0.294-1.092-0.924-2.541L48.768,96.98z"/>
	<path fill="#ED6E46" d="M73.422,100.739c0-3.696,0-3.927-0.104-5.313c0.462,0.063,0.84,0.105,1.071,0.126
		c0.944,0.126,1.344,0.273,1.344,0.483c0,0.189-0.21,0.294-0.924,0.525c-0.021,1.407-0.021,2.226-0.021,3.024v1.554l4.515-1.302
		c0.252-0.483,0.336-0.63,0.631-1.092c0.65,0.378,0.84,0.504,1.47,0.903c0.23,0.189,0.314,0.252,0.314,0.315
		c0,0.105-0.084,0.168-0.734,0.567c-0.063,3.129-0.315,5.46-0.714,6.762c-0.315,0.987-0.841,1.323-2.521,1.596
		c-0.104-0.693-0.23-0.945-0.588-1.176c-0.378-0.273-0.861-0.441-1.806-0.672v-0.315c1.448,0.21,2.415,0.315,2.939,0.315
		c0.546,0,0.672-0.189,0.924-1.26c0.21-0.903,0.399-3.381,0.399-5.103c0-0.126,0-0.273-0.021-0.483l-4.81,1.428
		c0,5.103,0,5.103,0.042,7.644c0,0.021,0,0.042,0,0.042c0,0.273-0.21,0.357-0.819,0.357c-0.104,0-0.188,0.021-0.252,0.021
		c-0.042,0-0.084,0-0.104,0c-0.231,0-0.336-0.084-0.336-0.294c0.063-2.73,0.084-3.171,0.084-3.717v-3.654l-4.116,1.218v8.001
		c0,0.966,0,0.966,5.901,0.966c3.023,0,4.809-0.042,5.313-0.126c0.567-0.105,0.777-0.357,1.05-1.323
		c0.063-0.273,0.147-0.588,0.925-3.843l0.314,0.042l-0.104,3.801c0,0.084,0.021,0.462,0.063,0.588
		c0.042,0.273,0.105,0.336,0.483,0.504c0.294,0.126,0.44,0.315,0.44,0.546c0,0.399-0.314,0.672-0.882,0.819
		c-0.798,0.189-2.751,0.273-6.825,0.273c-6.152,0-6.846-0.042-7.56-0.462c-0.42-0.252-0.588-0.672-0.609-1.554
		c0-0.945,0-1.617,0.021-2.1c0-1.008,0.021-1.764,0.021-1.995v-3.717l-1.533,0.462c-0.378,0.105-1.029,0.399-1.764,0.756
		l-0.378-0.777c0.483-0.063,1.47-0.273,1.995-0.441l1.68-0.483V98.85c0-0.378-0.021-0.861-0.063-1.638
		c1.974,0.168,2.499,0.273,2.478,0.525c-0.021,0.231-0.294,0.42-0.966,0.609v4.41l4.137-1.218V100.739z"/>
</g>
<g>
	<path d="M24.996,127.153c-0.451,1.858-0.64,2.814-0.64,3.182c0,0.031,0,0.073,0,0.115c0.01,0.084,0.01,0.126,0.01,0.168
		c0,0.336-0.084,0.494-0.263,0.494c-0.157,0-0.315-0.137-0.441-0.378c-0.336-0.651-0.504-1.564-0.504-2.72
		c0-0.777,0.053-1.281,0.231-2.383c0.137-0.767,0.168-1.061,0.168-1.302c0-0.325-0.126-0.651-0.378-1.008
		c0.231,0.01,0.441,0.147,0.693,0.41c0.305,0.336,0.462,0.619,0.462,0.84c0,0.137-0.011,0.2-0.147,0.578
		c-0.357,0.998-0.546,1.995-0.546,2.919c0,0.777,0.074,1.271,0.252,1.638c0.126-0.315,0.756-2.026,0.945-2.593L24.996,127.153z
		 M25.836,125.421c0.472,0.336,0.724,0.42,1.218,0.42c0.431,0,1.04-0.084,1.512-0.221c0-0.157,0-0.273,0-0.367
		c0-0.872-0.032-1.292-0.126-1.47c-0.105-0.21-0.399-0.368-0.893-0.483c0.157-0.137,0.231-0.158,0.577-0.158
		c0.756,0,1.26,0.21,1.26,0.525c0,0.042-0.021,0.147-0.053,0.252c-0.105,0.388-0.115,0.514-0.136,1.512
		c0.567-0.178,0.693-0.241,0.956-0.451c0.073-0.053,0.126-0.074,0.22-0.074c0.336,0,0.63,0.147,0.63,0.315
		c0,0.126-0.074,0.189-0.368,0.336c-0.336,0.158-0.662,0.263-1.428,0.462v1.544c0,1.659-0.283,2.509-1.071,3.339
		c-0.462,0.472-0.924,0.819-1.596,1.145l-0.084-0.137c0.767-0.599,1.134-0.998,1.48-1.617c0.494-0.861,0.662-1.796,0.662-3.602
		c0-0.231,0-0.263,0-0.536c-0.473,0.095-0.84,0.137-1.218,0.137c-0.704,0-1.176-0.21-1.648-0.746L25.836,125.421z"/>
	<path d="M32.976,125.4c0.431,0.441,0.704,0.577,1.155,0.577c0.409,0,0.851-0.063,1.333-0.199c0.21-0.683,0.357-1.417,0.357-1.785
		c0-0.315-0.158-0.451-0.746-0.651c0.137-0.074,0.189-0.095,0.326-0.095c0.241,0,0.588,0.074,0.903,0.2
		c0.315,0.116,0.473,0.263,0.473,0.42c0,0.074,0,0.074-0.126,0.252c-0.137,0.2-0.368,0.756-0.63,1.501
		c0.588-0.21,0.966-0.409,1.218-0.64c0.168-0.158,0.21-0.179,0.294-0.179c0.137,0,0.389,0.053,0.557,0.116
		c0.115,0.042,0.168,0.105,0.168,0.189c0,0.178-0.168,0.315-0.609,0.504c-0.473,0.22-1.176,0.452-1.838,0.62
		c-0.126,0.357-0.126,0.357-0.441,1.333c-0.21,0.63-0.21,0.63-0.788,2.341c-0.42,1.25-0.556,1.512-0.777,1.512
		c-0.105,0-0.178-0.063-0.241-0.21c-0.084-0.168-0.147-0.43-0.147-0.609c0-0.168,0.01-0.199,0.231-0.514
		c0.525-0.767,0.934-1.68,1.648-3.759c-0.399,0.074-0.704,0.105-1.008,0.105c-0.64,0-1.05-0.273-1.438-0.945L32.976,125.4z
		 M37.166,129.022c-0.01,0.157-0.01,0.283-0.01,0.325c0,0.599,0.284,1.05,0.798,1.271c0.284,0.126,0.714,0.2,1.124,0.2
		c0.431,0,0.672-0.032,1.008-0.158c0.073-0.031,0.136-0.042,0.178-0.042c0.116,0,0.357,0.116,0.536,0.252
		c0.126,0.105,0.189,0.2,0.189,0.294c0,0.231-0.41,0.347-1.239,0.347c-0.808,0-1.48-0.116-1.942-0.336
		c-0.567-0.273-0.893-0.819-0.893-1.522c0-0.231,0.021-0.41,0.095-0.662L37.166,129.022z M37.449,127.08
		c0.756-0.462,1.617-0.714,2.436-0.714c0.221,0,0.494,0.074,0.662,0.189c0.105,0.063,0.168,0.179,0.168,0.294
		c0,0.179-0.095,0.231-0.399,0.252c-0.389,0.011-0.515,0.053-0.809,0.21c-0.21,0.116-0.221,0.116-0.578,0.357
		c-0.199,0.126-0.199,0.126-0.368,0.22l-0.063-0.094c0.126-0.126,0.126-0.126,0.504-0.473c0.094-0.084,0.189-0.179,0.514-0.494
		c-0.693,0-1.25,0.116-2.005,0.389L37.449,127.08z M38.94,123.615c0.577,0.179,1.113,0.431,1.417,0.662
		c0.231,0.168,0.304,0.304,0.304,0.525c0,0.284-0.126,0.525-0.262,0.525c-0.084,0-0.158-0.063-0.242-0.199
		c-0.368-0.599-0.662-0.914-1.281-1.386L38.94,123.615z M39.843,122.89c0.788,0.2,1.218,0.357,1.512,0.557
		c0.21,0.158,0.283,0.294,0.283,0.546c0,0.263-0.094,0.462-0.221,0.462c-0.073,0-0.136-0.052-0.241-0.21
		c-0.357-0.483-0.798-0.882-1.396-1.218L39.843,122.89z"/>
	<path d="M44.694,124.444c0.252,0.378,0.42,0.557,0.725,0.756c0.367,0.231,0.682,0.347,1.229,0.452
		c0.294-1.459,0.325-1.617,0.325-1.869c0-0.357-0.147-0.578-0.567-0.872c0.084-0.031,0.116-0.042,0.179-0.042
		c0.189,0,0.462,0.116,0.777,0.326c0.336,0.231,0.546,0.525,0.546,0.756c0,0.095-0.031,0.179-0.137,0.305
		c-0.178,0.252-0.294,0.536-0.577,1.459c0.22,0.063,0.315,0.115,0.42,0.231c0.084,0.094,0.147,0.242,0.147,0.347
		c0,0.136-0.126,0.22-0.336,0.22c-0.105,0-0.242-0.021-0.41-0.052c-0.21,0.703-0.336,1.323-0.42,1.942
		c0.252,0.052,0.431,0.073,0.536,0.073c0.031,0,0.052,0,0.084-0.01c0.063-0.011,0.105-0.011,0.115-0.011
		c0.273,0,0.63,0.326,0.63,0.567c0,0.147-0.137,0.241-0.357,0.241c-0.294,0-0.735-0.073-1.113-0.189
		c-0.021,0.252-0.032,0.378-0.032,0.515c0,1.071,0.599,1.669,1.659,1.669c0.714,0,1.333-0.273,1.659-0.714
		c0.231-0.315,0.346-0.672,0.346-1.071c0-0.872-0.588-1.858-1.585-2.625l0.116-0.136c1.554,0.956,2.215,1.827,2.215,2.898
		c0,1.271-1.092,2.236-2.551,2.236c-0.546,0-1.071-0.157-1.428-0.431c-0.546-0.409-0.809-1.039-0.809-1.953
		c0-0.126,0.011-0.263,0.021-0.525c-0.409-0.189-0.619-0.315-0.84-0.536c-0.284-0.294-0.462-0.683-0.462-1.04
		c0-0.242,0.115-0.504,0.325-0.725c0.252-0.252,0.515-0.399,1.019-0.557c-0.42-0.157-0.714-0.346-1.019-0.651
		c-0.22-0.231-0.346-0.441-0.546-0.924L44.694,124.444z M45.314,126.786c-0.158,0.168-0.231,0.326-0.231,0.525
		c0,0.441,0.357,0.767,1.082,0.987c0.053-0.525,0.147-1.124,0.315-1.911C45.87,126.418,45.566,126.534,45.314,126.786z"/>
	<path d="M58.113,131.196c1.134-0.336,1.858-0.767,2.457-1.459c0.62-0.704,0.935-1.564,0.935-2.531c0-1.018-0.41-1.827-1.187-2.32
		c-0.462-0.305-1.155-0.483-1.816-0.483c-0.126,0-0.2,0-0.368,0.021c0.252,0.368,0.326,0.567,0.326,0.872
		c0,0.819-0.588,2.352-1.386,3.633c-0.662,1.05-1.176,1.564-1.564,1.564c-0.179,0-0.347-0.084-0.462-0.22
		c-0.095-0.126-0.116-0.168-0.294-0.672c-0.095-0.273-0.158-0.399-0.462-0.987c-0.168-0.336-0.241-0.62-0.241-0.956
		c0-0.662,0.357-1.438,0.945-2.079c0.851-0.903,2.237-1.47,3.612-1.47c1.06,0,2.037,0.346,2.709,0.966
		c0.672,0.62,1.008,1.449,1.008,2.468c0,1.313-0.767,2.478-2.089,3.181c-0.609,0.326-1.155,0.494-2.048,0.651L58.113,131.196z
		 M54.659,127.93c0,0.504,0.158,1.019,0.42,1.386c0.147,0.189,0.284,0.304,0.399,0.304c0.231,0,0.735-0.567,1.25-1.386
		c0.777-1.239,1.333-2.594,1.333-3.245c0-0.157-0.031-0.263-0.147-0.525C56.087,124.791,54.659,126.313,54.659,127.93z"/>
	<path d="M7.146,143.418c-0.378,1.323-0.966,3.612-1.218,4.641c-0.21,0.924-0.273,1.26-0.273,1.785
		c-0.021,0.672-0.042,0.756-0.147,0.924c-0.105,0.147-0.231,0.231-0.399,0.231c-0.357,0-0.651-0.294-0.903-0.945
		c-0.42-1.071-0.672-2.667-0.672-4.221c0-1.932,0.231-3.696,0.945-6.993c0.273-1.302,0.315-1.533,0.315-1.89
		c0-0.63-0.168-1.134-0.609-1.848c0.483,0.021,0.882,0.294,1.47,1.05c0.483,0.609,0.756,1.197,0.756,1.596
		c0,0.231,0,0.231-0.336,0.924c-1.008,2.1-1.596,4.599-1.596,6.846c0,1.071,0.084,1.743,0.336,2.604l0.882-2.1l1.134-2.709
		L7.146,143.418z M9.246,139.617c1.008,0.651,1.659,0.861,2.709,0.861c0.735,0,1.533-0.105,2.394-0.294c0-0.399,0-0.735,0-0.924
		c0-2.352-0.021-2.625-0.294-2.919c-0.252-0.273-0.714-0.42-1.386-0.483c0.294-0.273,0.462-0.336,1.008-0.336
		c0.462,0,1.029,0.084,1.428,0.189c0.609,0.189,0.924,0.441,0.924,0.756c0,0.147,0,0.168-0.189,0.651
		c-0.231,0.609-0.357,1.365-0.441,2.814c0.966-0.273,1.575-0.546,1.932-0.861c0.21-0.21,0.273-0.231,0.462-0.231
		c0.252,0,0.735,0.126,0.987,0.273c0.168,0.084,0.273,0.231,0.273,0.378c0,0.462-1.533,1.092-3.717,1.512
		c0,2.793,0.063,3.948,0.273,5.712c2.436,0.651,3.465,1.47,3.465,2.688c0,0.441-0.189,0.777-0.42,0.777
		c-0.168,0-0.315-0.105-0.735-0.525c-0.924-0.945-1.449-1.323-2.268-1.68c0.021,0.189,0.021,0.357,0.021,0.504
		c0,1.512-1.26,2.415-3.36,2.415c-1.827,0-3.108-0.882-3.108-2.142c0-1.449,1.554-2.373,3.948-2.373
		c0.399,0,0.693,0.021,1.281,0.063c0-0.189,0-0.315,0-0.357l-0.042-2.247l-0.021-2.688c-0.63,0.126-1.239,0.168-1.848,0.168
		c-1.533,0-2.415-0.378-3.465-1.47L9.246,139.617z M12.459,147.282c-1.659,0-2.688,0.546-2.688,1.47
		c0,0.735,0.819,1.239,2.058,1.239c1.155,0,1.974-0.336,2.31-0.987c0.21-0.378,0.273-0.693,0.273-1.47
		C13.824,147.366,13.236,147.282,12.459,147.282z"/>
	<path d="M32.556,145.035c0.756,0.105,1.428,0.168,2.016,0.168h7.749c0.378-0.504,0.504-0.651,0.882-1.113
		c0.651,0.546,0.861,0.735,1.47,1.281c0.063,0.084,0.105,0.147,0.105,0.168c0,0.063-0.063,0.147-0.105,0.147H34.572
		c-0.525,0-0.672,0-1.869,0.084L32.556,145.035z M33.606,134.115c0.777,0.441,1.47,0.945,1.911,1.386
		c0.273,0.252,0.399,0.504,0.399,0.777c0,0.462-0.357,1.092-0.63,1.092c-0.147,0-0.231-0.105-0.315-0.357
		c-0.315-0.945-0.63-1.512-1.512-2.751L33.606,134.115z M41.649,137.769c0.273-0.357,0.378-0.462,0.693-0.798
		c0.462,0.336,0.588,0.441,1.029,0.798c0.126,0.105,0.189,0.168,0.189,0.252c0,0.105,0,0.105-0.672,0.63c0,0.609,0,0.966,0,1.407
		c0,1.218,0.021,2.289,0.084,3.927c-0.021,0.126-0.063,0.189-0.168,0.21c-0.084,0.021-0.63,0.063-0.924,0.063
		c-0.126,0-0.189-0.042-0.21-0.147v-0.609h-6.762v0.609c0,0.168-0.021,0.231-0.084,0.273c-0.105,0.063-0.546,0.105-1.029,0.105
		c-0.231,0-0.315-0.063-0.315-0.231c0-0.021,0-0.042,0-0.063c0.126-1.722,0.147-2.625,0.147-4.62c0-0.945,0-1.008-0.063-2.604
		c0.693,0.315,0.903,0.42,1.533,0.798h5.061c0.882-1.428,1.554-2.898,1.806-3.927c0.714,0.273,0.714,0.294,0.924,0.357
		c0.756,0.294,0.945,0.42,0.945,0.567c0,0.189-0.084,0.21-0.903,0.336c-0.903,1.155-1.155,1.449-2.31,2.667H41.649z M35.391,152.007
		c0,0.168-0.042,0.21-0.168,0.252s-0.861,0.147-1.008,0.147s-0.21-0.063-0.21-0.189c0,0,0-0.021,0-0.042
		c0.042-1.596,0.063-2.646,0.063-3.927c0-0.672-0.021-1.071-0.063-1.848c0.735,0.378,0.966,0.504,1.68,0.966h5.061
		c0.273-0.357,0.378-0.462,0.672-0.777c0.504,0.315,0.672,0.42,1.176,0.777c0.147,0.126,0.21,0.21,0.21,0.252
		c0,0.105-0.273,0.315-0.651,0.525c0,0.273,0,0.441,0,0.609c0,0.42,0,0.42,0.063,2.562c0,0.021,0,0.063,0,0.084
		c0,0.21-0.399,0.336-1.071,0.336c-0.189,0-0.252-0.042-0.252-0.147v-0.462h-5.502V152.007z M37.701,140.352v-2.1h-2.793v2.1H37.701
		z M34.908,143.019h2.793v-2.184h-2.793V143.019z M35.391,150.642h5.502v-2.793h-5.502V150.642z M36.735,133.59
		c0.714,0.42,1.029,0.63,1.638,1.134c0.504,0.399,0.693,0.672,0.693,1.008c0,0.567-0.357,1.197-0.693,1.197
		c-0.126,0-0.21-0.084-0.294-0.315c-0.084-0.252-0.273-0.714-0.483-1.155c-0.336-0.735-0.525-1.029-1.05-1.722L36.735,133.59z
		 M41.67,138.252h-2.73v2.1h2.73V138.252z M38.94,140.835v2.184h2.73v-2.184H38.94z M47.697,140.415
		c0.21,2.037,0.588,3.591,1.281,5.292c0.546,1.323,1.323,2.604,2.142,3.528c0.462,0.525,0.714,0.735,1.428,1.176l-0.021,0.21
		c-0.42,0.084-0.546,0.147-0.84,0.504c-0.252,0.336-0.378,0.567-0.567,1.134c-1.155-1.449-1.869-2.898-2.499-4.914
		c-0.567-1.869-0.987-4.2-1.155-6.531c-0.168,2.058-0.336,3.003-0.693,4.389c-0.609,2.184-1.617,4.2-2.835,5.67
		c-0.609,0.714-1.029,1.092-2.058,1.806l-0.21-0.231c0.945-0.945,1.365-1.491,2.016-2.52c1.554-2.562,2.247-5.082,2.562-9.513h-1.26
		c-0.63,0-1.134,0.042-1.638,0.105l-0.126-0.714c0.546,0.063,1.302,0.126,1.764,0.126h1.302c0.063-1.323,0.084-2.247,0.084-4.116
		c0-0.756-0.021-1.218-0.084-1.974c1.89,0.168,2.289,0.231,2.289,0.462c0,0.147-0.168,0.273-0.903,0.588
		c0,0.441-0.021,0.84-0.021,1.05c-0.042,2.961-0.042,2.961-0.105,3.99h1.659c0.462-0.546,0.609-0.714,1.092-1.239
		c0.693,0.567,0.903,0.735,1.575,1.365c0.084,0.084,0.147,0.189,0.147,0.231c0,0.084-0.105,0.126-0.252,0.126H47.697z
		 M48.768,135.081c1.239,0.966,1.911,1.722,1.911,2.205s-0.504,1.323-0.777,1.323c-0.231,0-0.294-0.126-0.42-0.84
		c-0.147-0.714-0.294-1.092-0.924-2.541L48.768,135.081z"/>
	<path d="M73.422,138.84c0-3.696,0-3.927-0.104-5.313c0.462,0.063,0.84,0.105,1.071,0.126c0.944,0.126,1.344,0.273,1.344,0.483
		c0,0.189-0.21,0.294-0.924,0.525c-0.021,1.407-0.021,2.226-0.021,3.024v1.554l4.515-1.302c0.252-0.483,0.336-0.63,0.631-1.092
		c0.65,0.378,0.84,0.504,1.47,0.903c0.23,0.189,0.314,0.252,0.314,0.315c0,0.105-0.084,0.168-0.734,0.567
		c-0.063,3.129-0.315,5.46-0.714,6.762c-0.315,0.987-0.841,1.323-2.521,1.596c-0.104-0.693-0.23-0.945-0.588-1.176
		c-0.378-0.273-0.861-0.441-1.806-0.672v-0.315c1.448,0.21,2.415,0.315,2.939,0.315c0.546,0,0.672-0.189,0.924-1.26
		c0.21-0.903,0.399-3.381,0.399-5.103c0-0.126,0-0.273-0.021-0.483l-4.81,1.428c0,5.103,0,5.103,0.042,7.644
		c0,0.021,0,0.042,0,0.042c0,0.273-0.21,0.357-0.819,0.357c-0.104,0-0.188,0.021-0.252,0.021c-0.042,0-0.084,0-0.104,0
		c-0.231,0-0.336-0.084-0.336-0.294c0.063-2.73,0.084-3.171,0.084-3.717v-3.654l-4.116,1.218v8.001c0,0.966,0,0.966,5.901,0.966
		c3.023,0,4.809-0.042,5.313-0.126c0.567-0.105,0.777-0.357,1.05-1.323c0.063-0.273,0.147-0.588,0.925-3.843l0.314,0.042
		l-0.104,3.801c0,0.084,0.021,0.462,0.063,0.588c0.042,0.273,0.105,0.336,0.483,0.504c0.294,0.126,0.44,0.315,0.44,0.546
		c0,0.399-0.314,0.672-0.882,0.819c-0.798,0.189-2.751,0.273-6.825,0.273c-6.152,0-6.846-0.042-7.56-0.462
		c-0.42-0.252-0.588-0.672-0.609-1.554c0-0.945,0-1.617,0.021-2.1c0-1.008,0.021-1.764,0.021-1.995v-3.717l-1.533,0.462
		c-0.378,0.105-1.029,0.399-1.764,0.756l-0.378-0.777c0.483-0.063,1.47-0.273,1.995-0.441l1.68-0.483v-4.326
		c0-0.378-0.021-0.861-0.063-1.638c1.974,0.168,2.499,0.273,2.478,0.525c-0.021,0.231-0.294,0.42-0.966,0.609v4.41l4.137-1.218
		V138.84z"/>
</g>
<rect x="0.25" y="94.375" fill="none" stroke="#008CD6" stroke-width="0.5" width="21" height="21"/>
<rect x="31.75" y="94.375" fill="none" stroke="#008CD6" stroke-width="0.5" width="21" height="21"/>
<g>
	<rect x="63.25" y="94.375" fill="none" stroke="#008CD6" stroke-width="0.5" width="21.001" height="21"/>
</g>
<g>
	<line fill="none" stroke="#008CD6" stroke-width="0.5" x1="42.25" y1="94.375" x2="42.25" y2="83.875"/>
	<polyline fill="none" stroke="#008CD6" stroke-width="0.5" points="52.75,83.875 52.75,94.375 63.25,94.375 63.25,83.875 
		21.25,83.875 21.25,94.375 31.75,94.375 31.75,83.875 	"/>
</g>
</svg>
