<?xml version="1.0" encoding="utf-8"?>
<!-- Generator: Adobe Illustrator 12.0.0, SVG Export Plug-In . SVG Version: 6.00 Build 51448)  -->
<!DOCTYPE svg PUBLIC "-//W3C//DTD SVG 1.1//EN" "http://www.w3.org/Graphics/SVG/1.1/DTD/svg11.dtd" [
	<!ENTITY ns_svg "http://www.w3.org/2000/svg">
	<!ENTITY ns_xlink "http://www.w3.org/1999/xlink">
]>
<svg  version="1.1" id="レイヤー_1" xmlns="&ns_svg;" xmlns:xlink="&ns_xlink;" width="56.5" height="101.87"
	 viewBox="0 0 56.5 101.87" overflow="visible" enable-background="new 0 0 56.5 101.87" xml:space="preserve">
<g>
	<path d="M9.748,3.702C9.447,4.941,9.321,5.578,9.321,5.823c0,0.021,0,0.049,0,0.077c0.007,0.056,0.007,0.084,0.007,0.112
		c0,0.224-0.057,0.329-0.176,0.329c-0.104,0-0.21-0.091-0.294-0.252C8.635,5.655,8.522,5.046,8.522,4.276
		c0-0.518,0.035-0.854,0.154-1.589C8.768,2.176,8.789,1.98,8.789,1.819c0-0.217-0.084-0.434-0.252-0.672
		C8.69,1.154,8.831,1.245,8.999,1.42c0.203,0.224,0.308,0.413,0.308,0.56c0,0.091-0.007,0.133-0.098,0.385
		C8.971,3.03,8.845,3.695,8.845,4.311c0,0.518,0.049,0.847,0.168,1.092c0.084-0.21,0.504-1.351,0.63-1.729L9.748,3.702z
		 M10.308,2.547c0.315,0.224,0.483,0.28,0.813,0.28c0.287,0,0.692-0.056,1.008-0.147c0-0.105,0-0.182,0-0.245
		c0-0.581-0.021-0.861-0.084-0.98c-0.07-0.14-0.267-0.245-0.595-0.322c0.104-0.091,0.153-0.105,0.385-0.105
		c0.504,0,0.84,0.14,0.84,0.35c0,0.028-0.014,0.098-0.035,0.168c-0.07,0.259-0.077,0.343-0.091,1.008
		c0.378-0.119,0.462-0.161,0.637-0.301c0.049-0.035,0.084-0.049,0.147-0.049c0.224,0,0.42,0.098,0.42,0.21
		c0,0.084-0.049,0.126-0.245,0.224c-0.224,0.105-0.441,0.175-0.952,0.308v1.029c0,1.106-0.188,1.673-0.714,2.226
		c-0.308,0.315-0.616,0.546-1.064,0.763l-0.056-0.091c0.511-0.399,0.756-0.665,0.987-1.078c0.329-0.574,0.44-1.197,0.44-2.401
		c0-0.154,0-0.175,0-0.357c-0.314,0.063-0.56,0.091-0.812,0.091c-0.469,0-0.784-0.14-1.099-0.497L10.308,2.547z"/>
	<path d="M15.067,2.533c0.287,0.294,0.47,0.385,0.771,0.385c0.272,0,0.567-0.042,0.889-0.133c0.141-0.455,0.238-0.945,0.238-1.19
		c0-0.21-0.105-0.301-0.497-0.434c0.091-0.049,0.126-0.063,0.217-0.063c0.161,0,0.393,0.049,0.603,0.133
		c0.21,0.077,0.314,0.175,0.314,0.28c0,0.049,0,0.049-0.084,0.168c-0.091,0.133-0.245,0.504-0.42,1.001
		c0.393-0.14,0.645-0.273,0.813-0.427c0.111-0.105,0.14-0.119,0.195-0.119c0.092,0,0.26,0.035,0.371,0.077
		c0.077,0.028,0.112,0.07,0.112,0.126c0,0.119-0.112,0.21-0.406,0.336c-0.314,0.147-0.784,0.301-1.225,0.413
		c-0.084,0.238-0.084,0.238-0.294,0.889c-0.141,0.42-0.141,0.42-0.525,1.561c-0.28,0.833-0.371,1.008-0.518,1.008
		c-0.07,0-0.119-0.042-0.161-0.14c-0.056-0.112-0.098-0.287-0.098-0.406c0-0.112,0.007-0.133,0.153-0.343
		c0.351-0.511,0.623-1.12,1.1-2.506c-0.267,0.049-0.47,0.07-0.673,0.07c-0.427,0-0.699-0.182-0.959-0.63L15.067,2.533z M17.86,4.948
		c-0.007,0.105-0.007,0.189-0.007,0.217c0,0.399,0.189,0.7,0.532,0.847c0.189,0.084,0.477,0.133,0.749,0.133
		c0.287,0,0.448-0.021,0.672-0.105c0.049-0.021,0.091-0.028,0.119-0.028c0.077,0,0.238,0.077,0.357,0.168
		c0.084,0.07,0.126,0.133,0.126,0.196c0,0.154-0.273,0.231-0.826,0.231c-0.539,0-0.987-0.077-1.295-0.224
		c-0.378-0.182-0.596-0.546-0.596-1.015c0-0.154,0.015-0.273,0.063-0.441L17.86,4.948z M18.05,3.653
		c0.504-0.308,1.078-0.476,1.624-0.476c0.147,0,0.329,0.049,0.441,0.126c0.069,0.042,0.111,0.119,0.111,0.196
		c0,0.119-0.063,0.154-0.266,0.168c-0.259,0.007-0.343,0.035-0.539,0.14c-0.14,0.077-0.147,0.077-0.385,0.238
		c-0.134,0.084-0.134,0.084-0.245,0.147L18.75,4.129c0.084-0.084,0.084-0.084,0.336-0.315c0.063-0.056,0.126-0.119,0.343-0.329
		c-0.462,0-0.833,0.077-1.337,0.259L18.05,3.653z M19.044,1.343c0.385,0.119,0.742,0.287,0.945,0.441
		c0.153,0.112,0.202,0.203,0.202,0.35c0,0.189-0.084,0.35-0.175,0.35c-0.056,0-0.104-0.042-0.161-0.133
		c-0.245-0.399-0.44-0.609-0.854-0.924L19.044,1.343z M19.646,0.86c0.525,0.133,0.813,0.238,1.008,0.371
		c0.141,0.105,0.189,0.196,0.189,0.364c0,0.175-0.063,0.308-0.146,0.308c-0.05,0-0.092-0.035-0.161-0.14
		c-0.238-0.322-0.532-0.588-0.932-0.812L19.646,0.86z"/>
	<path d="M22.88,1.896c0.168,0.252,0.28,0.371,0.483,0.504c0.244,0.154,0.454,0.231,0.818,0.301
		c0.196-0.973,0.217-1.078,0.217-1.246c0-0.238-0.098-0.385-0.378-0.581c0.057-0.021,0.077-0.028,0.119-0.028
		c0.126,0,0.309,0.077,0.519,0.217c0.224,0.154,0.363,0.35,0.363,0.504c0,0.063-0.021,0.119-0.091,0.203
		c-0.119,0.168-0.196,0.357-0.385,0.973c0.146,0.042,0.21,0.077,0.28,0.154c0.056,0.063,0.098,0.161,0.098,0.231
		c0,0.091-0.084,0.147-0.224,0.147c-0.07,0-0.161-0.014-0.273-0.035c-0.14,0.469-0.224,0.882-0.28,1.295
		c0.168,0.035,0.287,0.049,0.357,0.049c0.021,0,0.035,0,0.056-0.007c0.042-0.007,0.07-0.007,0.077-0.007
		c0.182,0,0.42,0.217,0.42,0.378c0,0.098-0.091,0.161-0.238,0.161c-0.195,0-0.489-0.049-0.741-0.126
		c-0.015,0.168-0.021,0.252-0.021,0.343c0,0.714,0.399,1.113,1.106,1.113c0.476,0,0.889-0.182,1.105-0.476
		c0.154-0.21,0.231-0.448,0.231-0.714c0-0.581-0.393-1.239-1.058-1.75l0.077-0.091c1.036,0.637,1.478,1.218,1.478,1.932
		c0,0.847-0.729,1.491-1.701,1.491c-0.364,0-0.714-0.105-0.952-0.287c-0.364-0.273-0.539-0.693-0.539-1.302
		c0-0.084,0.007-0.175,0.014-0.35c-0.272-0.126-0.412-0.21-0.56-0.357C23.068,4.339,22.95,4.08,22.95,3.842
		c0-0.161,0.076-0.336,0.217-0.483c0.168-0.168,0.343-0.266,0.679-0.371c-0.28-0.105-0.476-0.231-0.679-0.434
		C23.02,2.4,22.936,2.26,22.803,1.938L22.88,1.896z M23.293,3.457c-0.105,0.112-0.154,0.217-0.154,0.35
		c0,0.294,0.238,0.511,0.721,0.658c0.035-0.35,0.099-0.749,0.21-1.274C23.664,3.212,23.461,3.289,23.293,3.457z"/>
	<path d="M31.826,6.397c0.756-0.224,1.238-0.511,1.638-0.973c0.413-0.469,0.623-1.043,0.623-1.687c0-0.679-0.273-1.218-0.791-1.547
		c-0.308-0.203-0.771-0.322-1.211-0.322c-0.084,0-0.133,0-0.245,0.014c0.168,0.245,0.217,0.378,0.217,0.581
		c0,0.546-0.392,1.568-0.924,2.422c-0.441,0.7-0.784,1.043-1.043,1.043c-0.119,0-0.231-0.056-0.308-0.147
		c-0.063-0.084-0.077-0.112-0.196-0.448c-0.063-0.182-0.105-0.266-0.308-0.658c-0.112-0.224-0.161-0.413-0.161-0.637
		c0-0.441,0.237-0.959,0.63-1.386c0.566-0.602,1.491-0.98,2.408-0.98c0.707,0,1.357,0.231,1.806,0.644
		c0.448,0.413,0.672,0.966,0.672,1.645c0,0.875-0.511,1.652-1.393,2.121c-0.406,0.217-0.771,0.329-1.365,0.434L31.826,6.397z
		 M29.522,4.22c0,0.336,0.105,0.679,0.28,0.924c0.098,0.126,0.189,0.203,0.266,0.203c0.154,0,0.49-0.378,0.833-0.924
		c0.519-0.826,0.89-1.729,0.89-2.163c0-0.105-0.021-0.175-0.099-0.35C30.475,2.127,29.522,3.142,29.522,4.22z"/>
	<path fill="#00A73B" d="M4.848,14.545c-0.252,0.882-0.644,2.408-0.812,3.094c-0.141,0.616-0.183,0.84-0.183,1.19
		c-0.014,0.448-0.027,0.504-0.098,0.616c-0.07,0.098-0.154,0.154-0.266,0.154c-0.238,0-0.435-0.196-0.603-0.63
		c-0.28-0.714-0.448-1.778-0.448-2.814c0-1.288,0.154-2.464,0.63-4.662c0.183-0.868,0.211-1.022,0.211-1.26
		c0-0.42-0.112-0.756-0.406-1.232c0.322,0.014,0.588,0.196,0.979,0.7c0.322,0.406,0.504,0.798,0.504,1.064
		c0,0.154,0,0.154-0.224,0.616c-0.672,1.4-1.064,3.066-1.064,4.564c0,0.714,0.057,1.162,0.225,1.736l0.588-1.4l0.756-1.806
		L4.848,14.545z M6.248,12.011c0.672,0.434,1.105,0.574,1.806,0.574c0.49,0,1.022-0.07,1.596-0.196c0-0.266,0-0.49,0-0.616
		c0-1.568-0.014-1.75-0.195-1.946C9.286,9.646,8.978,9.547,8.53,9.505c0.195-0.182,0.308-0.224,0.672-0.224
		c0.308,0,0.686,0.056,0.951,0.126c0.406,0.126,0.616,0.294,0.616,0.504c0,0.098,0,0.112-0.126,0.434
		c-0.153,0.406-0.237,0.91-0.294,1.876c0.645-0.182,1.05-0.364,1.288-0.574c0.14-0.14,0.182-0.154,0.308-0.154
		c0.169,0,0.49,0.084,0.658,0.182c0.112,0.056,0.183,0.154,0.183,0.252c0,0.308-1.022,0.728-2.479,1.008
		c0,1.862,0.042,2.632,0.183,3.808c1.624,0.434,2.31,0.98,2.31,1.792c0,0.294-0.126,0.518-0.28,0.518c-0.111,0-0.21-0.07-0.489-0.35
		c-0.616-0.63-0.967-0.882-1.513-1.12c0.015,0.126,0.015,0.238,0.015,0.336c0,1.008-0.841,1.61-2.24,1.61
		c-1.218,0-2.072-0.588-2.072-1.428c0-0.966,1.036-1.582,2.632-1.582c0.267,0,0.462,0.014,0.854,0.042c0-0.126,0-0.21,0-0.238
		l-0.028-1.498l-0.014-1.792c-0.42,0.084-0.826,0.112-1.232,0.112c-1.021,0-1.609-0.252-2.31-0.98L6.248,12.011z M8.39,17.121
		c-1.105,0-1.792,0.364-1.792,0.98c0,0.49,0.546,0.826,1.372,0.826c0.771,0,1.316-0.224,1.54-0.658
		c0.14-0.252,0.182-0.462,0.182-0.98C9.3,17.177,8.908,17.121,8.39,17.121z"/>
	<path d="M14.788,15.623c0.504,0.07,0.952,0.112,1.344,0.112h5.166c0.252-0.336,0.336-0.434,0.588-0.742
		c0.434,0.364,0.574,0.49,0.98,0.854c0.042,0.056,0.069,0.098,0.069,0.112c0,0.042-0.042,0.098-0.069,0.098h-6.734
		c-0.35,0-0.448,0-1.246,0.056L14.788,15.623z M15.488,8.343c0.518,0.294,0.979,0.63,1.273,0.924
		c0.182,0.168,0.266,0.336,0.266,0.518c0,0.308-0.237,0.728-0.42,0.728c-0.098,0-0.153-0.07-0.21-0.238
		c-0.21-0.63-0.42-1.008-1.008-1.834L15.488,8.343z M20.85,10.779c0.183-0.238,0.252-0.308,0.462-0.532
		c0.309,0.224,0.393,0.294,0.687,0.532c0.084,0.07,0.126,0.112,0.126,0.168c0,0.07,0,0.07-0.448,0.42c0,0.406,0,0.644,0,0.938
		c0,0.812,0.014,1.526,0.056,2.618c-0.014,0.084-0.042,0.126-0.111,0.14c-0.057,0.014-0.42,0.042-0.616,0.042
		c-0.084,0-0.126-0.028-0.14-0.098v-0.406h-4.509v0.406c0,0.112-0.014,0.154-0.056,0.182c-0.07,0.042-0.364,0.07-0.686,0.07
		c-0.154,0-0.21-0.042-0.21-0.154c0-0.014,0-0.028,0-0.042c0.084-1.148,0.098-1.75,0.098-3.08c0-0.63,0-0.672-0.042-1.736
		c0.462,0.21,0.602,0.28,1.021,0.532h3.374c0.588-0.952,1.036-1.932,1.204-2.618c0.477,0.182,0.477,0.196,0.616,0.238
		c0.504,0.196,0.63,0.28,0.63,0.378c0,0.126-0.056,0.14-0.602,0.224c-0.603,0.77-0.771,0.966-1.54,1.778H20.85z M16.678,20.271
		c0,0.112-0.028,0.14-0.112,0.168c-0.084,0.028-0.573,0.098-0.672,0.098c-0.098,0-0.14-0.042-0.14-0.126c0,0,0-0.014,0-0.028
		c0.028-1.064,0.042-1.764,0.042-2.618c0-0.448-0.014-0.714-0.042-1.232c0.49,0.252,0.644,0.336,1.12,0.644h3.374
		c0.182-0.238,0.252-0.308,0.448-0.518c0.336,0.21,0.447,0.28,0.783,0.518c0.099,0.084,0.141,0.14,0.141,0.168
		c0,0.07-0.183,0.21-0.435,0.35c0,0.182,0,0.294,0,0.406c0,0.28,0,0.28,0.042,1.708c0,0.014,0,0.042,0,0.056
		c0,0.14-0.266,0.224-0.714,0.224c-0.126,0-0.168-0.028-0.168-0.098v-0.308h-3.668V20.271z M18.218,12.501v-1.4h-1.862v1.4H18.218z
		 M16.355,14.279h1.862v-1.456h-1.862V14.279z M16.678,19.361h3.668v-1.862h-3.668V19.361z M17.574,7.993
		c0.476,0.28,0.686,0.42,1.092,0.756c0.336,0.266,0.462,0.448,0.462,0.672c0,0.378-0.238,0.798-0.462,0.798
		c-0.084,0-0.141-0.056-0.196-0.21c-0.056-0.168-0.182-0.476-0.322-0.77c-0.224-0.49-0.35-0.686-0.699-1.148L17.574,7.993z
		 M20.864,11.101h-1.82v1.4h1.82V11.101z M19.044,12.823v1.456h1.82v-1.456H19.044z M24.882,12.543
		c0.14,1.358,0.392,2.394,0.854,3.528c0.364,0.882,0.883,1.736,1.429,2.352c0.308,0.35,0.476,0.49,0.952,0.784l-0.015,0.14
		c-0.28,0.056-0.364,0.098-0.56,0.336c-0.168,0.224-0.252,0.378-0.378,0.756c-0.771-0.966-1.246-1.932-1.666-3.276
		c-0.378-1.246-0.658-2.8-0.771-4.354c-0.111,1.372-0.224,2.002-0.462,2.926c-0.406,1.456-1.078,2.8-1.89,3.78
		c-0.406,0.476-0.687,0.728-1.372,1.204l-0.14-0.154c0.63-0.63,0.909-0.994,1.344-1.68c1.036-1.708,1.498-3.388,1.708-6.342h-0.84
		c-0.42,0-0.757,0.028-1.093,0.07l-0.084-0.476c0.364,0.042,0.868,0.084,1.177,0.084h0.867C23.985,11.339,24,10.723,24,9.478
		c0-0.504-0.015-0.812-0.057-1.316c1.261,0.112,1.526,0.154,1.526,0.308c0,0.098-0.112,0.182-0.602,0.392
		c0,0.294-0.015,0.56-0.015,0.7c-0.027,1.974-0.027,1.974-0.069,2.66h1.105c0.309-0.364,0.406-0.476,0.729-0.826
		c0.462,0.378,0.602,0.49,1.05,0.91c0.056,0.056,0.098,0.126,0.098,0.154c0,0.056-0.07,0.084-0.168,0.084H24.882z M25.596,8.987
		c0.826,0.644,1.274,1.148,1.274,1.47c0,0.322-0.336,0.882-0.519,0.882c-0.153,0-0.195-0.084-0.28-0.56
		c-0.098-0.476-0.195-0.728-0.615-1.694L25.596,8.987z"/>
	<path fill="#ED6E46" d="M42.032,11.493c0-2.464,0-2.618-0.07-3.542c0.308,0.042,0.56,0.07,0.714,0.084
		c0.63,0.084,0.896,0.182,0.896,0.322c0,0.126-0.141,0.196-0.616,0.35c-0.015,0.938-0.015,1.484-0.015,2.016v1.036l3.011-0.868
		c0.168-0.322,0.224-0.42,0.42-0.728c0.434,0.252,0.56,0.336,0.979,0.602c0.154,0.126,0.21,0.168,0.21,0.21
		c0,0.07-0.056,0.112-0.49,0.378c-0.041,2.086-0.21,3.64-0.476,4.508c-0.21,0.658-0.56,0.882-1.68,1.064
		c-0.07-0.462-0.154-0.63-0.393-0.784c-0.252-0.182-0.573-0.294-1.204-0.448v-0.21c0.967,0.14,1.61,0.21,1.961,0.21
		c0.363,0,0.447-0.126,0.615-0.84c0.141-0.602,0.267-2.254,0.267-3.402c0-0.084,0-0.182-0.015-0.322l-3.206,0.952
		c0,3.402,0,3.402,0.028,5.096c0,0.014,0,0.028,0,0.028c0,0.182-0.14,0.238-0.546,0.238c-0.07,0-0.126,0.014-0.168,0.014
		c-0.028,0-0.056,0-0.07,0c-0.153,0-0.224-0.056-0.224-0.196c0.042-1.82,0.056-2.114,0.056-2.478v-2.436l-2.744,0.812v5.334
		c0,0.644,0,0.644,3.935,0.644c2.016,0,3.206-0.028,3.542-0.084c0.378-0.07,0.518-0.238,0.7-0.882
		c0.042-0.182,0.098-0.392,0.615-2.562l0.21,0.028l-0.069,2.534c0,0.056,0.014,0.308,0.042,0.392
		c0.027,0.182,0.069,0.224,0.321,0.336c0.196,0.084,0.295,0.21,0.295,0.364c0,0.266-0.211,0.448-0.589,0.546
		c-0.531,0.126-1.834,0.182-4.55,0.182c-4.102,0-4.563-0.028-5.04-0.308c-0.279-0.168-0.392-0.448-0.405-1.036
		c0-0.63,0-1.078,0.014-1.4c0-0.672,0.014-1.176,0.014-1.33v-2.478l-1.021,0.308c-0.252,0.07-0.687,0.266-1.177,0.504l-0.252-0.518
		c0.322-0.042,0.98-0.182,1.33-0.294l1.12-0.322v-2.884c0-0.252-0.014-0.574-0.042-1.092c1.316,0.112,1.666,0.182,1.652,0.35
		c-0.015,0.154-0.196,0.28-0.645,0.406v2.94l2.759-0.812V11.493z"/>
</g>
<g>
	<path d="M9.748,29.103c-0.301,1.239-0.427,1.876-0.427,2.121c0,0.021,0,0.049,0,0.077c0.007,0.056,0.007,0.084,0.007,0.112
		c0,0.224-0.057,0.329-0.176,0.329c-0.104,0-0.21-0.091-0.294-0.252c-0.224-0.434-0.336-1.043-0.336-1.813
		c0-0.518,0.035-0.854,0.154-1.589c0.091-0.511,0.112-0.707,0.112-0.868c0-0.217-0.084-0.434-0.252-0.672
		c0.153,0.007,0.294,0.098,0.462,0.273c0.203,0.224,0.308,0.413,0.308,0.56c0,0.091-0.007,0.133-0.098,0.385
		c-0.238,0.665-0.364,1.33-0.364,1.946c0,0.518,0.049,0.847,0.168,1.092c0.084-0.21,0.504-1.351,0.63-1.729L9.748,29.103z
		 M10.308,27.947c0.315,0.224,0.483,0.28,0.813,0.28c0.287,0,0.692-0.056,1.008-0.147c0-0.105,0-0.182,0-0.245
		c0-0.581-0.021-0.861-0.084-0.98c-0.07-0.14-0.267-0.245-0.595-0.322c0.104-0.091,0.153-0.105,0.385-0.105
		c0.504,0,0.84,0.14,0.84,0.35c0,0.028-0.014,0.098-0.035,0.168c-0.07,0.259-0.077,0.343-0.091,1.008
		c0.378-0.119,0.462-0.161,0.637-0.301c0.049-0.035,0.084-0.049,0.147-0.049c0.224,0,0.42,0.098,0.42,0.21
		c0,0.084-0.049,0.126-0.245,0.224c-0.224,0.105-0.441,0.175-0.952,0.308v1.029c0,1.106-0.188,1.673-0.714,2.226
		c-0.308,0.315-0.616,0.546-1.064,0.763l-0.056-0.091c0.511-0.399,0.756-0.665,0.987-1.078c0.329-0.574,0.44-1.197,0.44-2.401
		c0-0.154,0-0.175,0-0.357c-0.314,0.063-0.56,0.091-0.812,0.091c-0.469,0-0.784-0.14-1.099-0.497L10.308,27.947z"/>
	<path d="M15.067,27.934c0.287,0.294,0.47,0.385,0.771,0.385c0.272,0,0.567-0.042,0.889-0.133c0.141-0.455,0.238-0.945,0.238-1.19
		c0-0.21-0.105-0.301-0.497-0.434c0.091-0.049,0.126-0.063,0.217-0.063c0.161,0,0.393,0.049,0.603,0.133
		c0.21,0.077,0.314,0.175,0.314,0.28c0,0.049,0,0.049-0.084,0.168c-0.091,0.133-0.245,0.504-0.42,1.001
		c0.393-0.14,0.645-0.273,0.813-0.427c0.111-0.105,0.14-0.119,0.195-0.119c0.092,0,0.26,0.035,0.371,0.077
		c0.077,0.028,0.112,0.07,0.112,0.126c0,0.119-0.112,0.21-0.406,0.336c-0.314,0.147-0.784,0.301-1.225,0.413
		c-0.084,0.238-0.084,0.238-0.294,0.889c-0.141,0.42-0.141,0.42-0.525,1.561c-0.28,0.833-0.371,1.008-0.518,1.008
		c-0.07,0-0.119-0.042-0.161-0.14c-0.056-0.112-0.098-0.287-0.098-0.406c0-0.112,0.007-0.133,0.153-0.343
		c0.351-0.511,0.623-1.12,1.1-2.506c-0.267,0.049-0.47,0.07-0.673,0.07c-0.427,0-0.699-0.182-0.959-0.63L15.067,27.934z
		 M17.86,30.349c-0.007,0.105-0.007,0.189-0.007,0.217c0,0.399,0.189,0.7,0.532,0.847c0.189,0.084,0.477,0.133,0.749,0.133
		c0.287,0,0.448-0.021,0.672-0.105c0.049-0.021,0.091-0.028,0.119-0.028c0.077,0,0.238,0.077,0.357,0.168
		c0.084,0.07,0.126,0.133,0.126,0.196c0,0.154-0.273,0.231-0.826,0.231c-0.539,0-0.987-0.077-1.295-0.224
		c-0.378-0.182-0.596-0.546-0.596-1.015c0-0.154,0.015-0.273,0.063-0.441L17.86,30.349z M18.05,29.054
		c0.504-0.308,1.078-0.476,1.624-0.476c0.147,0,0.329,0.049,0.441,0.126c0.069,0.042,0.111,0.119,0.111,0.196
		c0,0.119-0.063,0.154-0.266,0.168c-0.259,0.007-0.343,0.035-0.539,0.14c-0.14,0.077-0.147,0.077-0.385,0.238
		c-0.134,0.084-0.134,0.084-0.245,0.147l-0.042-0.063c0.084-0.084,0.084-0.084,0.336-0.315c0.063-0.056,0.126-0.119,0.343-0.329
		c-0.462,0-0.833,0.077-1.337,0.259L18.05,29.054z M19.044,26.744c0.385,0.119,0.742,0.287,0.945,0.441
		c0.153,0.112,0.202,0.203,0.202,0.35c0,0.189-0.084,0.35-0.175,0.35c-0.056,0-0.104-0.042-0.161-0.133
		c-0.245-0.399-0.44-0.609-0.854-0.924L19.044,26.744z M19.646,26.261c0.525,0.133,0.813,0.238,1.008,0.371
		c0.141,0.105,0.189,0.196,0.189,0.364c0,0.175-0.063,0.308-0.146,0.308c-0.05,0-0.092-0.035-0.161-0.14
		c-0.238-0.322-0.532-0.588-0.932-0.812L19.646,26.261z"/>
	<path d="M22.88,27.296c0.168,0.252,0.28,0.371,0.483,0.504c0.244,0.154,0.454,0.231,0.818,0.301
		c0.196-0.973,0.217-1.078,0.217-1.246c0-0.238-0.098-0.385-0.378-0.581c0.057-0.021,0.077-0.028,0.119-0.028
		c0.126,0,0.309,0.077,0.519,0.217c0.224,0.154,0.363,0.35,0.363,0.504c0,0.063-0.021,0.119-0.091,0.203
		c-0.119,0.168-0.196,0.357-0.385,0.973c0.146,0.042,0.21,0.077,0.28,0.154c0.056,0.063,0.098,0.161,0.098,0.231
		c0,0.091-0.084,0.147-0.224,0.147c-0.07,0-0.161-0.014-0.273-0.035c-0.14,0.469-0.224,0.882-0.28,1.295
		c0.168,0.035,0.287,0.049,0.357,0.049c0.021,0,0.035,0,0.056-0.007c0.042-0.007,0.07-0.007,0.077-0.007
		c0.182,0,0.42,0.217,0.42,0.378c0,0.098-0.091,0.161-0.238,0.161c-0.195,0-0.489-0.049-0.741-0.126
		c-0.015,0.168-0.021,0.252-0.021,0.343c0,0.714,0.399,1.113,1.106,1.113c0.476,0,0.889-0.182,1.105-0.476
		c0.154-0.21,0.231-0.448,0.231-0.714c0-0.581-0.393-1.239-1.058-1.75l0.077-0.091c1.036,0.637,1.478,1.218,1.478,1.932
		c0,0.847-0.729,1.491-1.701,1.491c-0.364,0-0.714-0.105-0.952-0.287c-0.364-0.273-0.539-0.693-0.539-1.302
		c0-0.084,0.007-0.175,0.014-0.35c-0.272-0.126-0.412-0.21-0.56-0.357c-0.189-0.196-0.308-0.455-0.308-0.693
		c0-0.161,0.076-0.336,0.217-0.483c0.168-0.168,0.343-0.266,0.679-0.371c-0.28-0.105-0.476-0.231-0.679-0.434
		c-0.147-0.154-0.231-0.294-0.364-0.616L22.88,27.296z M23.293,28.857c-0.105,0.112-0.154,0.217-0.154,0.35
		c0,0.294,0.238,0.511,0.721,0.658c0.035-0.35,0.099-0.749,0.21-1.274C23.664,28.612,23.461,28.689,23.293,28.857z"/>
	<path d="M31.826,31.797c0.756-0.224,1.238-0.511,1.638-0.973c0.413-0.469,0.623-1.043,0.623-1.687c0-0.679-0.273-1.218-0.791-1.547
		c-0.308-0.203-0.771-0.322-1.211-0.322c-0.084,0-0.133,0-0.245,0.014c0.168,0.245,0.217,0.378,0.217,0.581
		c0,0.546-0.392,1.568-0.924,2.422c-0.441,0.7-0.784,1.043-1.043,1.043c-0.119,0-0.231-0.056-0.308-0.147
		c-0.063-0.084-0.077-0.112-0.196-0.448c-0.063-0.182-0.105-0.266-0.308-0.658c-0.112-0.224-0.161-0.413-0.161-0.637
		c0-0.441,0.237-0.959,0.63-1.386c0.566-0.602,1.491-0.98,2.408-0.98c0.707,0,1.357,0.231,1.806,0.644
		c0.448,0.413,0.672,0.966,0.672,1.645c0,0.875-0.511,1.652-1.393,2.121c-0.406,0.217-0.771,0.329-1.365,0.434L31.826,31.797z
		 M29.522,29.621c0,0.336,0.105,0.679,0.28,0.924c0.098,0.126,0.189,0.203,0.266,0.203c0.154,0,0.49-0.378,0.833-0.924
		c0.519-0.826,0.89-1.729,0.89-2.163c0-0.105-0.021-0.175-0.099-0.35C30.475,27.527,29.522,28.542,29.522,29.621z"/>
	<path d="M4.848,39.946c-0.252,0.882-0.644,2.408-0.812,3.094c-0.141,0.616-0.183,0.84-0.183,1.19
		c-0.014,0.448-0.027,0.504-0.098,0.616C3.686,44.944,3.602,45,3.49,45c-0.238,0-0.435-0.196-0.603-0.63
		c-0.28-0.714-0.448-1.778-0.448-2.814c0-1.288,0.154-2.464,0.63-4.662c0.183-0.868,0.211-1.022,0.211-1.26
		c0-0.42-0.112-0.756-0.406-1.232c0.322,0.014,0.588,0.196,0.979,0.7c0.322,0.406,0.504,0.798,0.504,1.064
		c0,0.154,0,0.154-0.224,0.616c-0.672,1.4-1.064,3.066-1.064,4.564c0,0.714,0.057,1.162,0.225,1.736l0.588-1.4l0.756-1.806
		L4.848,39.946z M6.248,37.412c0.672,0.434,1.105,0.574,1.806,0.574c0.49,0,1.022-0.07,1.596-0.196c0-0.266,0-0.49,0-0.616
		c0-1.568-0.014-1.75-0.195-1.946c-0.168-0.182-0.477-0.28-0.924-0.322c0.195-0.182,0.308-0.224,0.672-0.224
		c0.308,0,0.686,0.056,0.951,0.126c0.406,0.126,0.616,0.294,0.616,0.504c0,0.098,0,0.112-0.126,0.434
		c-0.153,0.406-0.237,0.91-0.294,1.876c0.645-0.182,1.05-0.364,1.288-0.574c0.14-0.14,0.182-0.154,0.308-0.154
		c0.169,0,0.49,0.084,0.658,0.182c0.112,0.056,0.183,0.154,0.183,0.252c0,0.308-1.022,0.728-2.479,1.008
		c0,1.862,0.042,2.632,0.183,3.808c1.624,0.434,2.31,0.98,2.31,1.792c0,0.294-0.126,0.518-0.28,0.518c-0.111,0-0.21-0.07-0.489-0.35
		c-0.616-0.63-0.967-0.882-1.513-1.12c0.015,0.126,0.015,0.238,0.015,0.336c0,1.008-0.841,1.61-2.24,1.61
		c-1.218,0-2.072-0.588-2.072-1.428c0-0.966,1.036-1.582,2.632-1.582c0.267,0,0.462,0.014,0.854,0.042c0-0.126,0-0.21,0-0.238
		l-0.028-1.498l-0.014-1.792c-0.42,0.084-0.826,0.112-1.232,0.112c-1.021,0-1.609-0.252-2.31-0.98L6.248,37.412z M8.39,42.521
		c-1.105,0-1.792,0.364-1.792,0.98c0,0.49,0.546,0.826,1.372,0.826c0.771,0,1.316-0.224,1.54-0.658
		c0.14-0.252,0.182-0.462,0.182-0.98C9.3,42.578,8.908,42.521,8.39,42.521z"/>
	<path d="M14.788,41.023c0.504,0.07,0.952,0.112,1.344,0.112h5.166c0.252-0.336,0.336-0.434,0.588-0.742
		c0.434,0.364,0.574,0.49,0.98,0.854c0.042,0.056,0.069,0.098,0.069,0.112c0,0.042-0.042,0.098-0.069,0.098h-6.734
		c-0.35,0-0.448,0-1.246,0.056L14.788,41.023z M15.488,33.744c0.518,0.294,0.979,0.63,1.273,0.924
		c0.182,0.168,0.266,0.336,0.266,0.518c0,0.308-0.237,0.728-0.42,0.728c-0.098,0-0.153-0.07-0.21-0.238
		c-0.21-0.63-0.42-1.008-1.008-1.834L15.488,33.744z M20.85,36.18c0.183-0.238,0.252-0.308,0.462-0.532
		c0.309,0.224,0.393,0.294,0.687,0.532c0.084,0.07,0.126,0.112,0.126,0.168c0,0.07,0,0.07-0.448,0.42c0,0.406,0,0.644,0,0.938
		c0,0.812,0.014,1.526,0.056,2.618c-0.014,0.084-0.042,0.126-0.111,0.14c-0.057,0.014-0.42,0.042-0.616,0.042
		c-0.084,0-0.126-0.028-0.14-0.098v-0.406h-4.509v0.406c0,0.112-0.014,0.154-0.056,0.182c-0.07,0.042-0.364,0.07-0.686,0.07
		c-0.154,0-0.21-0.042-0.21-0.154c0-0.014,0-0.028,0-0.042c0.084-1.148,0.098-1.75,0.098-3.08c0-0.63,0-0.672-0.042-1.736
		c0.462,0.21,0.602,0.28,1.021,0.532h3.374c0.588-0.952,1.036-1.932,1.204-2.618c0.477,0.182,0.477,0.196,0.616,0.238
		c0.504,0.196,0.63,0.28,0.63,0.378c0,0.126-0.056,0.14-0.602,0.224c-0.603,0.77-0.771,0.966-1.54,1.778H20.85z M16.678,45.672
		c0,0.112-0.028,0.14-0.112,0.168c-0.084,0.028-0.573,0.098-0.672,0.098c-0.098,0-0.14-0.042-0.14-0.126c0,0,0-0.014,0-0.028
		c0.028-1.064,0.042-1.764,0.042-2.618c0-0.448-0.014-0.714-0.042-1.232c0.49,0.252,0.644,0.336,1.12,0.644h3.374
		c0.182-0.238,0.252-0.308,0.448-0.518c0.336,0.21,0.447,0.28,0.783,0.518c0.099,0.084,0.141,0.14,0.141,0.168
		c0,0.07-0.183,0.21-0.435,0.35c0,0.182,0,0.294,0,0.406c0,0.28,0,0.28,0.042,1.708c0,0.014,0,0.042,0,0.056
		c0,0.14-0.266,0.224-0.714,0.224c-0.126,0-0.168-0.028-0.168-0.098v-0.308h-3.668V45.672z M18.218,37.902v-1.4h-1.862v1.4H18.218z
		 M16.355,39.68h1.862v-1.456h-1.862V39.68z M16.678,44.762h3.668v-1.862h-3.668V44.762z M17.574,33.394
		c0.476,0.28,0.686,0.42,1.092,0.756c0.336,0.266,0.462,0.448,0.462,0.672c0,0.378-0.238,0.798-0.462,0.798
		c-0.084,0-0.141-0.056-0.196-0.21c-0.056-0.168-0.182-0.476-0.322-0.77c-0.224-0.49-0.35-0.686-0.699-1.148L17.574,33.394z
		 M20.864,36.501h-1.82v1.4h1.82V36.501z M19.044,38.224v1.456h1.82v-1.456H19.044z M24.882,37.944
		c0.14,1.358,0.392,2.394,0.854,3.528c0.364,0.882,0.883,1.736,1.429,2.352c0.308,0.35,0.476,0.49,0.952,0.784l-0.015,0.14
		c-0.28,0.056-0.364,0.098-0.56,0.336c-0.168,0.224-0.252,0.378-0.378,0.756c-0.771-0.966-1.246-1.932-1.666-3.276
		c-0.378-1.246-0.658-2.8-0.771-4.354c-0.111,1.372-0.224,2.002-0.462,2.926c-0.406,1.456-1.078,2.8-1.89,3.78
		c-0.406,0.476-0.687,0.728-1.372,1.204l-0.14-0.154c0.63-0.63,0.909-0.994,1.344-1.68c1.036-1.708,1.498-3.388,1.708-6.342h-0.84
		c-0.42,0-0.757,0.028-1.093,0.07l-0.084-0.476c0.364,0.042,0.868,0.084,1.177,0.084h0.867C23.985,36.74,24,36.124,24,34.878
		c0-0.504-0.015-0.812-0.057-1.316c1.261,0.112,1.526,0.154,1.526,0.308c0,0.098-0.112,0.182-0.602,0.392
		c0,0.294-0.015,0.56-0.015,0.7c-0.027,1.974-0.027,1.974-0.069,2.66h1.105c0.309-0.364,0.406-0.476,0.729-0.826
		c0.462,0.378,0.602,0.49,1.05,0.91c0.056,0.056,0.098,0.126,0.098,0.154c0,0.056-0.07,0.084-0.168,0.084H24.882z M25.596,34.388
		c0.826,0.644,1.274,1.148,1.274,1.47c0,0.322-0.336,0.882-0.519,0.882c-0.153,0-0.195-0.084-0.28-0.56
		c-0.098-0.476-0.195-0.728-0.615-1.694L25.596,34.388z"/>
	<path d="M42.032,36.894c0-2.464,0-2.618-0.07-3.542c0.308,0.042,0.56,0.07,0.714,0.084c0.63,0.084,0.896,0.182,0.896,0.322
		c0,0.126-0.141,0.196-0.616,0.35c-0.015,0.938-0.015,1.484-0.015,2.016v1.036l3.011-0.868c0.168-0.322,0.224-0.42,0.42-0.728
		c0.434,0.252,0.56,0.336,0.979,0.602c0.154,0.126,0.21,0.168,0.21,0.21c0,0.07-0.056,0.112-0.49,0.378
		c-0.041,2.086-0.21,3.64-0.476,4.508c-0.21,0.658-0.56,0.882-1.68,1.064c-0.07-0.462-0.154-0.63-0.393-0.784
		c-0.252-0.182-0.573-0.294-1.204-0.448v-0.21c0.967,0.14,1.61,0.21,1.961,0.21c0.363,0,0.447-0.126,0.615-0.84
		c0.141-0.602,0.267-2.254,0.267-3.402c0-0.084,0-0.182-0.015-0.322l-3.206,0.952c0,3.402,0,3.402,0.028,5.096
		c0,0.014,0,0.028,0,0.028c0,0.182-0.14,0.238-0.546,0.238c-0.07,0-0.126,0.014-0.168,0.014c-0.028,0-0.056,0-0.07,0
		c-0.153,0-0.224-0.056-0.224-0.196c0.042-1.82,0.056-2.114,0.056-2.478v-2.436l-2.744,0.812v5.334c0,0.644,0,0.644,3.935,0.644
		c2.016,0,3.206-0.028,3.542-0.084c0.378-0.07,0.518-0.238,0.7-0.882c0.042-0.182,0.098-0.392,0.615-2.562l0.21,0.028l-0.069,2.534
		c0,0.056,0.014,0.308,0.042,0.392c0.027,0.182,0.069,0.224,0.321,0.336c0.196,0.084,0.295,0.21,0.295,0.364
		c0,0.266-0.211,0.448-0.589,0.546c-0.531,0.126-1.834,0.182-4.55,0.182c-4.102,0-4.563-0.028-5.04-0.308
		c-0.279-0.168-0.392-0.448-0.405-1.036c0-0.63,0-1.078,0.014-1.4c0-0.672,0.014-1.176,0.014-1.33V38.84l-1.021,0.308
		c-0.252,0.07-0.687,0.266-1.177,0.504l-0.252-0.518c0.322-0.042,0.98-0.182,1.33-0.294l1.12-0.322v-2.884
		c0-0.252-0.014-0.574-0.042-1.092c1.316,0.112,1.666,0.182,1.652,0.35c-0.015,0.154-0.196,0.28-0.645,0.406v2.94l2.759-0.812
		V36.894z"/>
</g>
<rect x="0.25" y="7.25" fill="none" stroke="#008CD6" stroke-width="0.5" width="28" height="14"/>
<line fill="none" stroke="#008CD6" stroke-width="0.5" x1="14.25" y1="21.25" x2="14.25" y2="7.25"/>
<rect x="35.25" y="7.25" fill="none" stroke="#008CD6" stroke-width="0.5" width="14" height="14"/>
<g>
	<line fill="none" stroke="#008CD6" stroke-width="0.5" x1="14.25" y1="7.25" x2="14.25" y2="0.25"/>
	<line fill="none" stroke="#008CD6" stroke-width="0.5" x1="21.25" y1="7.25" x2="21.25" y2="0.25"/>
	<polyline fill="none" stroke="#008CD6" stroke-width="0.5" points="7.25,7.25 7.25,0.25 35.25,0.25 35.25,7.25 28.25,7.25 
		28.25,0.25 	"/>
</g>
<g>
	<path d="M16.748,59.452c-0.301,1.239-0.427,1.876-0.427,2.121c0,0.021,0,0.049,0,0.077c0.007,0.056,0.007,0.084,0.007,0.112
		c0,0.224-0.057,0.329-0.176,0.329c-0.104,0-0.21-0.091-0.294-0.252c-0.224-0.434-0.336-1.043-0.336-1.813
		c0-0.518,0.035-0.854,0.154-1.589c0.091-0.511,0.112-0.707,0.112-0.868c0-0.217-0.084-0.434-0.252-0.672
		c0.153,0.007,0.294,0.098,0.462,0.273c0.203,0.224,0.308,0.413,0.308,0.56c0,0.091-0.007,0.133-0.098,0.385
		c-0.238,0.665-0.364,1.33-0.364,1.946c0,0.518,0.049,0.847,0.168,1.092c0.084-0.21,0.504-1.351,0.63-1.729L16.748,59.452z
		 M17.308,58.297c0.315,0.224,0.483,0.28,0.813,0.28c0.287,0,0.692-0.056,1.008-0.147c0-0.105,0-0.182,0-0.245
		c0-0.581-0.021-0.861-0.084-0.98c-0.07-0.14-0.267-0.245-0.595-0.322c0.104-0.091,0.153-0.105,0.385-0.105
		c0.504,0,0.84,0.14,0.84,0.35c0,0.028-0.014,0.098-0.035,0.168c-0.07,0.259-0.077,0.343-0.091,1.008
		c0.378-0.119,0.462-0.161,0.637-0.301c0.049-0.035,0.084-0.049,0.147-0.049c0.224,0,0.42,0.098,0.42,0.21
		c0,0.084-0.049,0.126-0.245,0.224c-0.224,0.105-0.441,0.175-0.952,0.308v1.029c0,1.106-0.188,1.673-0.714,2.226
		c-0.308,0.315-0.616,0.546-1.064,0.763l-0.056-0.091c0.511-0.399,0.756-0.665,0.987-1.078c0.329-0.574,0.44-1.197,0.44-2.401
		c0-0.154,0-0.175,0-0.357c-0.314,0.063-0.56,0.091-0.812,0.091c-0.469,0-0.784-0.14-1.099-0.497L17.308,58.297z"/>
	<path d="M22.067,58.283c0.287,0.294,0.47,0.385,0.771,0.385c0.272,0,0.567-0.042,0.889-0.133c0.141-0.455,0.238-0.945,0.238-1.19
		c0-0.21-0.105-0.301-0.497-0.434c0.091-0.049,0.126-0.063,0.217-0.063c0.161,0,0.393,0.049,0.603,0.133
		c0.21,0.077,0.314,0.175,0.314,0.28c0,0.049,0,0.049-0.084,0.168c-0.091,0.133-0.245,0.504-0.42,1.001
		c0.393-0.14,0.645-0.273,0.813-0.427c0.111-0.105,0.14-0.119,0.195-0.119c0.092,0,0.26,0.035,0.371,0.077
		c0.077,0.028,0.112,0.07,0.112,0.126c0,0.119-0.112,0.21-0.406,0.336c-0.314,0.147-0.784,0.301-1.225,0.413
		c-0.084,0.238-0.084,0.238-0.294,0.889c-0.141,0.42-0.141,0.42-0.525,1.561c-0.28,0.833-0.371,1.008-0.518,1.008
		c-0.07,0-0.119-0.042-0.161-0.14c-0.056-0.112-0.098-0.287-0.098-0.406c0-0.112,0.007-0.133,0.153-0.343
		c0.351-0.511,0.623-1.12,1.1-2.506c-0.267,0.049-0.47,0.07-0.673,0.07c-0.427,0-0.699-0.182-0.959-0.63L22.067,58.283z
		 M24.86,60.698c-0.007,0.105-0.007,0.189-0.007,0.217c0,0.399,0.189,0.7,0.532,0.847c0.189,0.084,0.477,0.133,0.749,0.133
		c0.287,0,0.448-0.021,0.672-0.105c0.049-0.021,0.091-0.028,0.119-0.028c0.077,0,0.238,0.077,0.357,0.168
		c0.084,0.07,0.126,0.133,0.126,0.196c0,0.154-0.273,0.231-0.826,0.231c-0.539,0-0.987-0.077-1.295-0.224
		c-0.378-0.182-0.596-0.546-0.596-1.015c0-0.154,0.015-0.273,0.063-0.441L24.86,60.698z M25.05,59.403
		c0.504-0.308,1.078-0.476,1.624-0.476c0.147,0,0.329,0.049,0.441,0.126c0.069,0.042,0.111,0.119,0.111,0.196
		c0,0.119-0.063,0.154-0.266,0.168c-0.259,0.007-0.343,0.035-0.539,0.14c-0.14,0.077-0.147,0.077-0.385,0.238
		c-0.134,0.084-0.134,0.084-0.245,0.147l-0.042-0.063c0.084-0.084,0.084-0.084,0.336-0.315c0.063-0.056,0.126-0.119,0.343-0.329
		c-0.462,0-0.833,0.077-1.337,0.259L25.05,59.403z M26.044,57.093c0.385,0.119,0.742,0.287,0.945,0.441
		c0.153,0.112,0.202,0.203,0.202,0.35c0,0.189-0.084,0.35-0.175,0.35c-0.056,0-0.104-0.042-0.161-0.133
		c-0.245-0.399-0.44-0.609-0.854-0.924L26.044,57.093z M26.646,56.61c0.525,0.133,0.813,0.238,1.008,0.371
		c0.141,0.105,0.189,0.196,0.189,0.364c0,0.175-0.063,0.308-0.146,0.308c-0.05,0-0.092-0.035-0.161-0.14
		c-0.238-0.322-0.532-0.588-0.932-0.812L26.646,56.61z"/>
	<path d="M29.88,57.646c0.168,0.252,0.28,0.371,0.483,0.504c0.244,0.154,0.454,0.231,0.818,0.301
		c0.196-0.973,0.217-1.078,0.217-1.246c0-0.238-0.098-0.385-0.378-0.581c0.057-0.021,0.077-0.028,0.119-0.028
		c0.126,0,0.309,0.077,0.519,0.217c0.224,0.154,0.363,0.35,0.363,0.504c0,0.063-0.021,0.119-0.091,0.203
		c-0.119,0.168-0.196,0.357-0.385,0.973c0.146,0.042,0.21,0.077,0.28,0.154c0.056,0.063,0.098,0.161,0.098,0.231
		c0,0.091-0.084,0.147-0.224,0.147c-0.07,0-0.161-0.014-0.273-0.035c-0.14,0.469-0.224,0.882-0.28,1.295
		c0.168,0.035,0.287,0.049,0.357,0.049c0.021,0,0.035,0,0.056-0.007c0.042-0.007,0.07-0.007,0.077-0.007
		c0.182,0,0.42,0.217,0.42,0.378c0,0.098-0.091,0.161-0.238,0.161c-0.195,0-0.489-0.049-0.741-0.126
		c-0.015,0.168-0.021,0.252-0.021,0.343c0,0.714,0.399,1.113,1.106,1.113c0.476,0,0.889-0.182,1.105-0.476
		c0.154-0.21,0.231-0.448,0.231-0.714c0-0.581-0.393-1.239-1.058-1.75l0.077-0.091c1.036,0.637,1.478,1.218,1.478,1.932
		c0,0.847-0.729,1.491-1.701,1.491c-0.364,0-0.714-0.105-0.952-0.287c-0.364-0.273-0.539-0.693-0.539-1.302
		c0-0.084,0.007-0.175,0.014-0.35c-0.272-0.126-0.412-0.21-0.56-0.357c-0.189-0.196-0.308-0.455-0.308-0.693
		c0-0.161,0.076-0.336,0.217-0.483c0.168-0.168,0.343-0.266,0.679-0.371c-0.28-0.105-0.476-0.231-0.679-0.434
		c-0.147-0.154-0.231-0.294-0.364-0.616L29.88,57.646z M30.293,59.207c-0.105,0.112-0.154,0.217-0.154,0.35
		c0,0.294,0.238,0.511,0.721,0.658c0.035-0.35,0.099-0.749,0.21-1.274C30.664,58.962,30.461,59.039,30.293,59.207z"/>
	<path d="M38.826,62.147c0.756-0.224,1.238-0.511,1.638-0.973c0.413-0.469,0.623-1.043,0.623-1.687c0-0.679-0.273-1.218-0.791-1.547
		c-0.308-0.203-0.771-0.322-1.211-0.322c-0.084,0-0.133,0-0.245,0.014c0.168,0.245,0.217,0.378,0.217,0.581
		c0,0.546-0.392,1.568-0.924,2.422c-0.441,0.7-0.784,1.043-1.043,1.043c-0.119,0-0.231-0.056-0.308-0.147
		c-0.063-0.084-0.077-0.112-0.196-0.448c-0.063-0.182-0.105-0.266-0.308-0.658c-0.112-0.224-0.161-0.413-0.161-0.637
		c0-0.441,0.237-0.959,0.63-1.386c0.566-0.602,1.491-0.98,2.408-0.98c0.707,0,1.357,0.231,1.806,0.644
		c0.448,0.413,0.672,0.966,0.672,1.645c0,0.875-0.511,1.652-1.393,2.121c-0.406,0.217-0.771,0.329-1.365,0.434L38.826,62.147z
		 M36.522,59.97c0,0.336,0.105,0.679,0.28,0.924c0.098,0.126,0.189,0.203,0.266,0.203c0.154,0,0.49-0.378,0.833-0.924
		c0.519-0.826,0.89-1.729,0.89-2.163c0-0.105-0.021-0.175-0.099-0.35C37.475,57.877,36.522,58.892,36.522,59.97z"/>
	<path fill="#00A73B" d="M4.848,70.295c-0.252,0.882-0.644,2.408-0.812,3.094c-0.141,0.616-0.183,0.84-0.183,1.19
		c-0.014,0.448-0.027,0.504-0.098,0.616c-0.07,0.098-0.154,0.154-0.266,0.154c-0.238,0-0.435-0.196-0.603-0.63
		c-0.28-0.714-0.448-1.778-0.448-2.814c0-1.288,0.154-2.464,0.63-4.662c0.183-0.868,0.211-1.022,0.211-1.26
		c0-0.42-0.112-0.756-0.406-1.232c0.322,0.014,0.588,0.196,0.979,0.7c0.322,0.406,0.504,0.798,0.504,1.064
		c0,0.154,0,0.154-0.224,0.616c-0.672,1.4-1.064,3.066-1.064,4.564c0,0.714,0.057,1.162,0.225,1.736l0.588-1.4l0.756-1.806
		L4.848,70.295z M6.248,67.761c0.672,0.434,1.105,0.574,1.806,0.574c0.49,0,1.022-0.07,1.596-0.196c0-0.266,0-0.49,0-0.616
		c0-1.568-0.014-1.75-0.195-1.946c-0.168-0.182-0.477-0.28-0.924-0.322c0.195-0.182,0.308-0.224,0.672-0.224
		c0.308,0,0.686,0.056,0.951,0.126c0.406,0.126,0.616,0.294,0.616,0.504c0,0.098,0,0.112-0.126,0.434
		c-0.153,0.406-0.237,0.91-0.294,1.876c0.645-0.182,1.05-0.364,1.288-0.574c0.14-0.14,0.182-0.154,0.308-0.154
		c0.169,0,0.49,0.084,0.658,0.182c0.112,0.056,0.183,0.154,0.183,0.252c0,0.308-1.022,0.728-2.479,1.008
		c0,1.862,0.042,2.632,0.183,3.808c1.624,0.434,2.31,0.98,2.31,1.792c0,0.294-0.126,0.518-0.28,0.518c-0.111,0-0.21-0.07-0.489-0.35
		c-0.616-0.63-0.967-0.882-1.513-1.12c0.015,0.126,0.015,0.238,0.015,0.336c0,1.008-0.841,1.61-2.24,1.61
		c-1.218,0-2.072-0.588-2.072-1.428c0-0.966,1.036-1.582,2.632-1.582c0.267,0,0.462,0.014,0.854,0.042c0-0.126,0-0.21,0-0.238
		l-0.028-1.498l-0.014-1.792c-0.42,0.084-0.826,0.112-1.232,0.112c-1.021,0-1.609-0.252-2.31-0.98L6.248,67.761z M8.39,72.871
		c-1.105,0-1.792,0.364-1.792,0.98c0,0.49,0.546,0.826,1.372,0.826c0.771,0,1.316-0.224,1.54-0.658
		c0.14-0.252,0.182-0.462,0.182-0.98C9.3,72.927,8.908,72.871,8.39,72.871z"/>
	<path d="M21.788,71.373c0.504,0.07,0.952,0.112,1.344,0.112h5.166c0.252-0.336,0.336-0.434,0.588-0.742
		c0.434,0.364,0.574,0.49,0.98,0.854c0.042,0.056,0.069,0.098,0.069,0.112c0,0.042-0.042,0.098-0.069,0.098h-6.734
		c-0.35,0-0.448,0-1.246,0.056L21.788,71.373z M22.488,64.093c0.518,0.294,0.979,0.63,1.273,0.924
		c0.182,0.168,0.266,0.336,0.266,0.518c0,0.308-0.237,0.728-0.42,0.728c-0.098,0-0.153-0.07-0.21-0.238
		c-0.21-0.63-0.42-1.008-1.008-1.834L22.488,64.093z M27.85,66.529c0.183-0.238,0.252-0.308,0.462-0.532
		c0.309,0.224,0.393,0.294,0.687,0.532c0.084,0.07,0.126,0.112,0.126,0.168c0,0.07,0,0.07-0.448,0.42c0,0.406,0,0.644,0,0.938
		c0,0.812,0.014,1.526,0.056,2.618c-0.014,0.084-0.042,0.126-0.111,0.14c-0.057,0.014-0.42,0.042-0.616,0.042
		c-0.084,0-0.126-0.028-0.14-0.098v-0.406h-4.509v0.406c0,0.112-0.014,0.154-0.056,0.182c-0.07,0.042-0.364,0.07-0.686,0.07
		c-0.154,0-0.21-0.042-0.21-0.154c0-0.014,0-0.028,0-0.042c0.084-1.148,0.098-1.75,0.098-3.08c0-0.63,0-0.672-0.042-1.736
		c0.462,0.21,0.602,0.28,1.021,0.532h3.374c0.588-0.952,1.036-1.932,1.204-2.618c0.477,0.182,0.477,0.196,0.616,0.238
		c0.504,0.196,0.63,0.28,0.63,0.378c0,0.126-0.056,0.14-0.602,0.224c-0.603,0.77-0.771,0.966-1.54,1.778H27.85z M23.678,76.021
		c0,0.112-0.028,0.14-0.112,0.168c-0.084,0.028-0.573,0.098-0.672,0.098c-0.098,0-0.14-0.042-0.14-0.126c0,0,0-0.014,0-0.028
		c0.028-1.064,0.042-1.764,0.042-2.618c0-0.448-0.014-0.714-0.042-1.232c0.49,0.252,0.644,0.336,1.12,0.644h3.374
		c0.182-0.238,0.252-0.308,0.448-0.518c0.336,0.21,0.447,0.28,0.783,0.518c0.099,0.084,0.141,0.14,0.141,0.168
		c0,0.07-0.183,0.21-0.435,0.35c0,0.182,0,0.294,0,0.406c0,0.28,0,0.28,0.042,1.708c0,0.014,0,0.042,0,0.056
		c0,0.14-0.266,0.224-0.714,0.224c-0.126,0-0.168-0.028-0.168-0.098v-0.308h-3.668V76.021z M25.218,68.251v-1.4h-1.862v1.4H25.218z
		 M23.355,70.029h1.862v-1.456h-1.862V70.029z M23.678,75.111h3.668v-1.862h-3.668V75.111z M24.574,63.743
		c0.476,0.28,0.686,0.42,1.092,0.756c0.336,0.266,0.462,0.448,0.462,0.672c0,0.378-0.238,0.798-0.462,0.798
		c-0.084,0-0.141-0.056-0.196-0.21c-0.056-0.168-0.182-0.476-0.322-0.77c-0.224-0.49-0.35-0.686-0.699-1.148L24.574,63.743z
		 M27.864,66.851h-1.82v1.4h1.82V66.851z M26.044,68.573v1.456h1.82v-1.456H26.044z M31.882,68.293
		c0.14,1.358,0.392,2.394,0.854,3.528c0.364,0.882,0.883,1.736,1.429,2.352c0.308,0.35,0.476,0.49,0.952,0.784l-0.015,0.14
		c-0.28,0.056-0.364,0.098-0.56,0.336c-0.168,0.224-0.252,0.378-0.378,0.756c-0.771-0.966-1.246-1.932-1.666-3.276
		c-0.378-1.246-0.658-2.8-0.771-4.354c-0.111,1.372-0.224,2.002-0.462,2.926c-0.406,1.456-1.078,2.8-1.89,3.78
		c-0.406,0.476-0.687,0.728-1.372,1.204l-0.14-0.154c0.63-0.63,0.909-0.994,1.344-1.68c1.036-1.708,1.498-3.388,1.708-6.342h-0.84
		c-0.42,0-0.757,0.028-1.093,0.07l-0.084-0.476c0.364,0.042,0.868,0.084,1.177,0.084h0.867C30.985,67.089,31,66.473,31,65.228
		c0-0.504-0.015-0.812-0.057-1.316c1.261,0.112,1.526,0.154,1.526,0.308c0,0.098-0.112,0.182-0.602,0.392
		c0,0.294-0.015,0.56-0.015,0.7c-0.027,1.974-0.027,1.974-0.069,2.66h1.105c0.309-0.364,0.406-0.476,0.729-0.826
		c0.462,0.378,0.602,0.49,1.05,0.91c0.056,0.056,0.098,0.126,0.098,0.154c0,0.056-0.07,0.084-0.168,0.084H31.882z M32.596,64.737
		c0.826,0.644,1.274,1.148,1.274,1.47c0,0.322-0.336,0.882-0.519,0.882c-0.153,0-0.195-0.084-0.28-0.56
		c-0.098-0.476-0.195-0.728-0.615-1.694L32.596,64.737z"/>
	<path fill="#ED6E46" d="M49.032,67.243c0-2.464,0-2.618-0.07-3.542c0.308,0.042,0.56,0.07,0.714,0.084
		c0.63,0.084,0.896,0.182,0.896,0.322c0,0.126-0.141,0.196-0.616,0.35c-0.015,0.938-0.015,1.484-0.015,2.016v1.036l3.011-0.868
		c0.168-0.322,0.224-0.42,0.42-0.728c0.434,0.252,0.56,0.336,0.979,0.602c0.155,0.126,0.209,0.168,0.209,0.21
		c0,0.07-0.055,0.112-0.49,0.378c-0.041,2.086-0.21,3.64-0.476,4.508c-0.21,0.658-0.56,0.882-1.68,1.064
		c-0.07-0.462-0.154-0.63-0.393-0.784c-0.252-0.182-0.573-0.294-1.204-0.448v-0.21c0.967,0.14,1.61,0.21,1.961,0.21
		c0.363,0,0.447-0.126,0.615-0.84c0.141-0.602,0.267-2.254,0.267-3.402c0-0.084,0-0.182-0.015-0.322l-3.206,0.952
		c0,3.402,0,3.402,0.028,5.096c0,0.014,0,0.028,0,0.028c0,0.182-0.14,0.238-0.546,0.238c-0.07,0-0.126,0.014-0.168,0.014
		c-0.028,0-0.056,0-0.07,0c-0.153,0-0.224-0.056-0.224-0.196c0.042-1.82,0.056-2.114,0.056-2.478v-2.436l-2.744,0.812v5.334
		c0,0.644,0,0.644,3.935,0.644c2.016,0,3.206-0.028,3.542-0.084c0.378-0.07,0.518-0.238,0.7-0.882
		c0.043-0.182,0.098-0.392,0.615-2.562l0.211,0.028l-0.07,2.534c0,0.056,0.014,0.308,0.043,0.392
		c0.027,0.182,0.068,0.224,0.32,0.336c0.197,0.084,0.295,0.21,0.295,0.364c0,0.266-0.211,0.448-0.588,0.546
		c-0.531,0.126-1.834,0.182-4.55,0.182c-4.102,0-4.563-0.028-5.04-0.308c-0.279-0.168-0.392-0.448-0.405-1.036
		c0-0.63,0-1.078,0.014-1.4c0-0.672,0.014-1.176,0.014-1.33v-2.478l-1.021,0.308c-0.252,0.07-0.687,0.266-1.177,0.504l-0.252-0.518
		c0.322-0.042,0.98-0.182,1.33-0.294l1.12-0.322v-2.884c0-0.252-0.014-0.574-0.042-1.092c1.316,0.112,1.666,0.182,1.652,0.35
		c-0.015,0.154-0.196,0.28-0.645,0.406v2.94l2.759-0.812V67.243z"/>
</g>
<g>
	<path d="M16.748,84.853c-0.301,1.239-0.427,1.876-0.427,2.121c0,0.021,0,0.049,0,0.077c0.007,0.056,0.007,0.084,0.007,0.112
		c0,0.224-0.057,0.329-0.176,0.329c-0.104,0-0.21-0.091-0.294-0.252c-0.224-0.434-0.336-1.043-0.336-1.813
		c0-0.518,0.035-0.854,0.154-1.589c0.091-0.511,0.112-0.707,0.112-0.868c0-0.217-0.084-0.434-0.252-0.672
		c0.153,0.007,0.294,0.098,0.462,0.273c0.203,0.224,0.308,0.413,0.308,0.56c0,0.091-0.007,0.133-0.098,0.385
		c-0.238,0.665-0.364,1.33-0.364,1.946c0,0.518,0.049,0.847,0.168,1.092c0.084-0.21,0.504-1.351,0.63-1.729L16.748,84.853z
		 M17.308,83.697c0.315,0.224,0.483,0.28,0.813,0.28c0.287,0,0.692-0.056,1.008-0.147c0-0.105,0-0.182,0-0.245
		c0-0.581-0.021-0.861-0.084-0.98c-0.07-0.14-0.267-0.245-0.595-0.322c0.104-0.091,0.153-0.105,0.385-0.105
		c0.504,0,0.84,0.14,0.84,0.35c0,0.028-0.014,0.098-0.035,0.168c-0.07,0.259-0.077,0.343-0.091,1.008
		c0.378-0.119,0.462-0.161,0.637-0.301c0.049-0.035,0.084-0.049,0.147-0.049c0.224,0,0.42,0.098,0.42,0.21
		c0,0.084-0.049,0.126-0.245,0.224c-0.224,0.105-0.441,0.175-0.952,0.308v1.029c0,1.106-0.188,1.673-0.714,2.226
		c-0.308,0.315-0.616,0.546-1.064,0.763l-0.056-0.091c0.511-0.399,0.756-0.665,0.987-1.078c0.329-0.574,0.44-1.197,0.44-2.401
		c0-0.154,0-0.175,0-0.357c-0.314,0.063-0.56,0.091-0.812,0.091c-0.469,0-0.784-0.14-1.099-0.497L17.308,83.697z"/>
	<path d="M22.067,83.684c0.287,0.294,0.47,0.385,0.771,0.385c0.272,0,0.567-0.042,0.889-0.133c0.141-0.455,0.238-0.945,0.238-1.19
		c0-0.21-0.105-0.301-0.497-0.434c0.091-0.049,0.126-0.063,0.217-0.063c0.161,0,0.393,0.049,0.603,0.133
		c0.21,0.077,0.314,0.175,0.314,0.28c0,0.049,0,0.049-0.084,0.168c-0.091,0.133-0.245,0.504-0.42,1.001
		c0.393-0.14,0.645-0.273,0.813-0.427c0.111-0.105,0.14-0.119,0.195-0.119c0.092,0,0.26,0.035,0.371,0.077
		c0.077,0.028,0.112,0.07,0.112,0.126c0,0.119-0.112,0.21-0.406,0.336c-0.314,0.147-0.784,0.301-1.225,0.413
		c-0.084,0.238-0.084,0.238-0.294,0.889c-0.141,0.42-0.141,0.42-0.525,1.561c-0.28,0.833-0.371,1.008-0.518,1.008
		c-0.07,0-0.119-0.042-0.161-0.14c-0.056-0.112-0.098-0.287-0.098-0.406c0-0.112,0.007-0.133,0.153-0.343
		c0.351-0.511,0.623-1.12,1.1-2.506c-0.267,0.049-0.47,0.07-0.673,0.07c-0.427,0-0.699-0.182-0.959-0.63L22.067,83.684z
		 M24.86,86.099c-0.007,0.105-0.007,0.189-0.007,0.217c0,0.399,0.189,0.7,0.532,0.847c0.189,0.084,0.477,0.133,0.749,0.133
		c0.287,0,0.448-0.021,0.672-0.105c0.049-0.021,0.091-0.028,0.119-0.028c0.077,0,0.238,0.077,0.357,0.168
		c0.084,0.07,0.126,0.133,0.126,0.196c0,0.154-0.273,0.231-0.826,0.231c-0.539,0-0.987-0.077-1.295-0.224
		c-0.378-0.182-0.596-0.546-0.596-1.015c0-0.154,0.015-0.273,0.063-0.441L24.86,86.099z M25.05,84.804
		c0.504-0.308,1.078-0.476,1.624-0.476c0.147,0,0.329,0.049,0.441,0.126c0.069,0.042,0.111,0.119,0.111,0.196
		c0,0.119-0.063,0.154-0.266,0.168c-0.259,0.007-0.343,0.035-0.539,0.14c-0.14,0.077-0.147,0.077-0.385,0.238
		c-0.134,0.084-0.134,0.084-0.245,0.147l-0.042-0.063c0.084-0.084,0.084-0.084,0.336-0.315c0.063-0.056,0.126-0.119,0.343-0.329
		c-0.462,0-0.833,0.077-1.337,0.259L25.05,84.804z M26.044,82.494c0.385,0.119,0.742,0.287,0.945,0.441
		c0.153,0.112,0.202,0.203,0.202,0.35c0,0.189-0.084,0.35-0.175,0.35c-0.056,0-0.104-0.042-0.161-0.133
		c-0.245-0.399-0.44-0.609-0.854-0.924L26.044,82.494z M26.646,82.011c0.525,0.133,0.813,0.238,1.008,0.371
		c0.141,0.105,0.189,0.196,0.189,0.364c0,0.175-0.063,0.308-0.146,0.308c-0.05,0-0.092-0.035-0.161-0.14
		c-0.238-0.322-0.532-0.588-0.932-0.812L26.646,82.011z"/>
	<path d="M29.88,83.046c0.168,0.252,0.28,0.371,0.483,0.504c0.244,0.154,0.454,0.231,0.818,0.301
		c0.196-0.973,0.217-1.078,0.217-1.246c0-0.238-0.098-0.385-0.378-0.581c0.057-0.021,0.077-0.028,0.119-0.028
		c0.126,0,0.309,0.077,0.519,0.217c0.224,0.154,0.363,0.35,0.363,0.504c0,0.063-0.021,0.119-0.091,0.203
		c-0.119,0.168-0.196,0.357-0.385,0.973c0.146,0.042,0.21,0.077,0.28,0.154c0.056,0.063,0.098,0.161,0.098,0.231
		c0,0.091-0.084,0.147-0.224,0.147c-0.07,0-0.161-0.014-0.273-0.035c-0.14,0.469-0.224,0.882-0.28,1.295
		c0.168,0.035,0.287,0.049,0.357,0.049c0.021,0,0.035,0,0.056-0.007c0.042-0.007,0.07-0.007,0.077-0.007
		c0.182,0,0.42,0.217,0.42,0.378c0,0.098-0.091,0.161-0.238,0.161c-0.195,0-0.489-0.049-0.741-0.126
		c-0.015,0.168-0.021,0.252-0.021,0.343c0,0.714,0.399,1.113,1.106,1.113c0.476,0,0.889-0.182,1.105-0.476
		c0.154-0.21,0.231-0.448,0.231-0.714c0-0.581-0.393-1.239-1.058-1.75l0.077-0.091c1.036,0.637,1.478,1.218,1.478,1.932
		c0,0.847-0.729,1.491-1.701,1.491c-0.364,0-0.714-0.105-0.952-0.287c-0.364-0.273-0.539-0.693-0.539-1.302
		c0-0.084,0.007-0.175,0.014-0.35c-0.272-0.126-0.412-0.21-0.56-0.357c-0.189-0.196-0.308-0.455-0.308-0.693
		c0-0.161,0.076-0.336,0.217-0.483c0.168-0.168,0.343-0.266,0.679-0.371c-0.28-0.105-0.476-0.231-0.679-0.434
		c-0.147-0.154-0.231-0.294-0.364-0.616L29.88,83.046z M30.293,84.607c-0.105,0.112-0.154,0.217-0.154,0.35
		c0,0.294,0.238,0.511,0.721,0.658c0.035-0.35,0.099-0.749,0.21-1.274C30.664,84.362,30.461,84.439,30.293,84.607z"/>
	<path d="M38.826,87.547c0.756-0.224,1.238-0.511,1.638-0.973c0.413-0.469,0.623-1.043,0.623-1.687c0-0.679-0.273-1.218-0.791-1.547
		c-0.308-0.203-0.771-0.322-1.211-0.322c-0.084,0-0.133,0-0.245,0.014c0.168,0.245,0.217,0.378,0.217,0.581
		c0,0.546-0.392,1.568-0.924,2.422c-0.441,0.7-0.784,1.043-1.043,1.043c-0.119,0-0.231-0.056-0.308-0.147
		c-0.063-0.084-0.077-0.112-0.196-0.448c-0.063-0.182-0.105-0.266-0.308-0.658c-0.112-0.224-0.161-0.413-0.161-0.637
		c0-0.441,0.237-0.959,0.63-1.386c0.566-0.602,1.491-0.98,2.408-0.98c0.707,0,1.357,0.231,1.806,0.644
		c0.448,0.413,0.672,0.966,0.672,1.645c0,0.875-0.511,1.652-1.393,2.121c-0.406,0.217-0.771,0.329-1.365,0.434L38.826,87.547z
		 M36.522,85.371c0,0.336,0.105,0.679,0.28,0.924c0.098,0.126,0.189,0.203,0.266,0.203c0.154,0,0.49-0.378,0.833-0.924
		c0.519-0.826,0.89-1.729,0.89-2.163c0-0.105-0.021-0.175-0.099-0.35C37.475,83.277,36.522,84.292,36.522,85.371z"/>
	<path d="M4.848,95.696c-0.252,0.882-0.644,2.408-0.812,3.094c-0.141,0.616-0.183,0.84-0.183,1.19
		c-0.014,0.448-0.027,0.504-0.098,0.616c-0.07,0.098-0.154,0.154-0.266,0.154c-0.238,0-0.435-0.196-0.603-0.63
		c-0.28-0.714-0.448-1.778-0.448-2.814c0-1.288,0.154-2.464,0.63-4.662c0.183-0.868,0.211-1.022,0.211-1.26
		c0-0.42-0.112-0.756-0.406-1.232c0.322,0.014,0.588,0.196,0.979,0.7c0.322,0.406,0.504,0.798,0.504,1.064
		c0,0.154,0,0.154-0.224,0.616c-0.672,1.4-1.064,3.066-1.064,4.564c0,0.714,0.057,1.162,0.225,1.736l0.588-1.4l0.756-1.806
		L4.848,95.696z M6.248,93.162c0.672,0.434,1.105,0.574,1.806,0.574c0.49,0,1.022-0.07,1.596-0.196c0-0.266,0-0.49,0-0.616
		c0-1.568-0.014-1.75-0.195-1.946c-0.168-0.182-0.477-0.28-0.924-0.322c0.195-0.182,0.308-0.224,0.672-0.224
		c0.308,0,0.686,0.056,0.951,0.126c0.406,0.126,0.616,0.294,0.616,0.504c0,0.098,0,0.112-0.126,0.434
		c-0.153,0.406-0.237,0.91-0.294,1.876c0.645-0.182,1.05-0.364,1.288-0.574c0.14-0.14,0.182-0.154,0.308-0.154
		c0.169,0,0.49,0.084,0.658,0.182c0.112,0.056,0.183,0.154,0.183,0.252c0,0.308-1.022,0.728-2.479,1.008
		c0,1.862,0.042,2.632,0.183,3.808c1.624,0.434,2.31,0.98,2.31,1.792c0,0.294-0.126,0.518-0.28,0.518c-0.111,0-0.21-0.07-0.489-0.35
		c-0.616-0.63-0.967-0.882-1.513-1.12c0.015,0.126,0.015,0.238,0.015,0.336c0,1.008-0.841,1.61-2.24,1.61
		c-1.218,0-2.072-0.588-2.072-1.428c0-0.966,1.036-1.582,2.632-1.582c0.267,0,0.462,0.014,0.854,0.042c0-0.126,0-0.21,0-0.238
		l-0.028-1.498l-0.014-1.792c-0.42,0.084-0.826,0.112-1.232,0.112c-1.021,0-1.609-0.252-2.31-0.98L6.248,93.162z M8.39,98.271
		c-1.105,0-1.792,0.364-1.792,0.98c0,0.49,0.546,0.826,1.372,0.826c0.771,0,1.316-0.224,1.54-0.658
		c0.14-0.252,0.182-0.462,0.182-0.98C9.3,98.328,8.908,98.271,8.39,98.271z"/>
	<path d="M21.788,96.773c0.504,0.07,0.952,0.112,1.344,0.112h5.166c0.252-0.336,0.336-0.434,0.588-0.742
		c0.434,0.364,0.574,0.49,0.98,0.854c0.042,0.056,0.069,0.098,0.069,0.112c0,0.042-0.042,0.098-0.069,0.098h-6.734
		c-0.35,0-0.448,0-1.246,0.056L21.788,96.773z M22.488,89.494c0.518,0.294,0.979,0.63,1.273,0.924
		c0.182,0.168,0.266,0.336,0.266,0.518c0,0.308-0.237,0.728-0.42,0.728c-0.098,0-0.153-0.07-0.21-0.238
		c-0.21-0.63-0.42-1.008-1.008-1.834L22.488,89.494z M27.85,91.93c0.183-0.238,0.252-0.308,0.462-0.532
		c0.309,0.224,0.393,0.294,0.687,0.532c0.084,0.07,0.126,0.112,0.126,0.168c0,0.07,0,0.07-0.448,0.42c0,0.406,0,0.644,0,0.938
		c0,0.812,0.014,1.526,0.056,2.618c-0.014,0.084-0.042,0.126-0.111,0.14c-0.057,0.014-0.42,0.042-0.616,0.042
		c-0.084,0-0.126-0.028-0.14-0.098v-0.406h-4.509v0.406c0,0.112-0.014,0.154-0.056,0.182c-0.07,0.042-0.364,0.07-0.686,0.07
		c-0.154,0-0.21-0.042-0.21-0.154c0-0.014,0-0.028,0-0.042c0.084-1.148,0.098-1.75,0.098-3.08c0-0.63,0-0.672-0.042-1.736
		c0.462,0.21,0.602,0.28,1.021,0.532h3.374c0.588-0.952,1.036-1.932,1.204-2.618c0.477,0.182,0.477,0.196,0.616,0.238
		c0.504,0.196,0.63,0.28,0.63,0.378c0,0.126-0.056,0.14-0.602,0.224c-0.603,0.77-0.771,0.966-1.54,1.778H27.85z M23.678,101.422
		c0,0.112-0.028,0.14-0.112,0.168c-0.084,0.028-0.573,0.098-0.672,0.098c-0.098,0-0.14-0.042-0.14-0.126c0,0,0-0.014,0-0.028
		c0.028-1.064,0.042-1.764,0.042-2.618c0-0.448-0.014-0.714-0.042-1.232c0.49,0.252,0.644,0.336,1.12,0.644h3.374
		c0.182-0.238,0.252-0.308,0.448-0.518c0.336,0.21,0.447,0.28,0.783,0.518c0.099,0.084,0.141,0.14,0.141,0.168
		c0,0.07-0.183,0.21-0.435,0.35c0,0.182,0,0.294,0,0.406c0,0.28,0,0.28,0.042,1.708c0,0.014,0,0.042,0,0.056
		c0,0.14-0.266,0.224-0.714,0.224c-0.126,0-0.168-0.028-0.168-0.098v-0.308h-3.668V101.422z M25.218,93.652v-1.4h-1.862v1.4H25.218z
		 M23.355,95.43h1.862v-1.456h-1.862V95.43z M23.678,100.512h3.668v-1.862h-3.668V100.512z M24.574,89.144
		c0.476,0.28,0.686,0.42,1.092,0.756c0.336,0.266,0.462,0.448,0.462,0.672c0,0.378-0.238,0.798-0.462,0.798
		c-0.084,0-0.141-0.056-0.196-0.21c-0.056-0.168-0.182-0.476-0.322-0.77c-0.224-0.49-0.35-0.686-0.699-1.148L24.574,89.144z
		 M27.864,92.251h-1.82v1.4h1.82V92.251z M26.044,93.974v1.456h1.82v-1.456H26.044z M31.882,93.694
		c0.14,1.358,0.392,2.394,0.854,3.528c0.364,0.882,0.883,1.736,1.429,2.352c0.308,0.35,0.476,0.49,0.952,0.784l-0.015,0.14
		c-0.28,0.056-0.364,0.098-0.56,0.336c-0.168,0.224-0.252,0.378-0.378,0.756c-0.771-0.966-1.246-1.932-1.666-3.276
		c-0.378-1.246-0.658-2.8-0.771-4.354c-0.111,1.372-0.224,2.002-0.462,2.926c-0.406,1.456-1.078,2.8-1.89,3.78
		c-0.406,0.476-0.687,0.728-1.372,1.204l-0.14-0.154c0.63-0.63,0.909-0.994,1.344-1.68c1.036-1.708,1.498-3.388,1.708-6.342h-0.84
		c-0.42,0-0.757,0.028-1.093,0.07l-0.084-0.476c0.364,0.042,0.868,0.084,1.177,0.084h0.867C30.985,92.49,31,91.874,31,90.628
		c0-0.504-0.015-0.812-0.057-1.316c1.261,0.112,1.526,0.154,1.526,0.308c0,0.098-0.112,0.182-0.602,0.392
		c0,0.294-0.015,0.56-0.015,0.7c-0.027,1.974-0.027,1.974-0.069,2.66h1.105c0.309-0.364,0.406-0.476,0.729-0.826
		c0.462,0.378,0.602,0.49,1.05,0.91c0.056,0.056,0.098,0.126,0.098,0.154c0,0.056-0.07,0.084-0.168,0.084H31.882z M32.596,90.138
		c0.826,0.644,1.274,1.148,1.274,1.47c0,0.322-0.336,0.882-0.519,0.882c-0.153,0-0.195-0.084-0.28-0.56
		c-0.098-0.476-0.195-0.728-0.615-1.694L32.596,90.138z"/>
	<path d="M49.032,92.644c0-2.464,0-2.618-0.07-3.542c0.308,0.042,0.56,0.07,0.714,0.084c0.63,0.084,0.896,0.182,0.896,0.322
		c0,0.126-0.141,0.196-0.616,0.35c-0.015,0.938-0.015,1.484-0.015,2.016v1.036l3.011-0.868c0.168-0.322,0.224-0.42,0.42-0.728
		c0.434,0.252,0.56,0.336,0.979,0.602c0.155,0.126,0.209,0.168,0.209,0.21c0,0.07-0.055,0.112-0.49,0.378
		c-0.041,2.086-0.21,3.64-0.476,4.508c-0.21,0.658-0.56,0.882-1.68,1.064c-0.07-0.462-0.154-0.63-0.393-0.784
		c-0.252-0.182-0.573-0.294-1.204-0.448v-0.21c0.967,0.14,1.61,0.21,1.961,0.21c0.363,0,0.447-0.126,0.615-0.84
		c0.141-0.602,0.267-2.254,0.267-3.402c0-0.084,0-0.182-0.015-0.322l-3.206,0.952c0,3.402,0,3.402,0.028,5.096
		c0,0.014,0,0.028,0,0.028c0,0.182-0.14,0.238-0.546,0.238c-0.07,0-0.126,0.014-0.168,0.014c-0.028,0-0.056,0-0.07,0
		c-0.153,0-0.224-0.056-0.224-0.196c0.042-1.82,0.056-2.114,0.056-2.478v-2.436l-2.744,0.812v5.334c0,0.644,0,0.644,3.935,0.644
		c2.016,0,3.206-0.028,3.542-0.084c0.378-0.07,0.518-0.238,0.7-0.882c0.043-0.182,0.098-0.392,0.615-2.562l0.211,0.028l-0.07,2.534
		c0,0.056,0.014,0.308,0.043,0.392c0.027,0.182,0.068,0.224,0.32,0.336c0.197,0.084,0.295,0.21,0.295,0.364
		c0,0.266-0.211,0.448-0.588,0.546c-0.531,0.126-1.834,0.182-4.55,0.182c-4.102,0-4.563-0.028-5.04-0.308
		c-0.279-0.168-0.392-0.448-0.405-1.036c0-0.63,0-1.078,0.014-1.4c0-0.672,0.014-1.176,0.014-1.33V94.59l-1.021,0.308
		c-0.252,0.07-0.687,0.266-1.177,0.504l-0.252-0.518c0.322-0.042,0.98-0.182,1.33-0.294l1.12-0.322v-2.884
		c0-0.252-0.014-0.574-0.042-1.092c1.316,0.112,1.666,0.182,1.652,0.35c-0.015,0.154-0.196,0.28-0.645,0.406v2.94l2.759-0.812
		V92.644z"/>
</g>
<rect x="0.25" y="63" fill="none" stroke="#008CD6" stroke-width="0.5" width="14" height="14"/>
<rect x="21.25" y="63" fill="none" stroke="#008CD6" stroke-width="0.5" width="14" height="14"/>
<rect x="42.25" y="63" fill="none" stroke="#008CD6" stroke-width="0.5" width="14" height="14"/>
<g>
	<line fill="none" stroke="#008CD6" stroke-width="0.5" x1="28.25" y1="63" x2="28.25" y2="56"/>
	<polyline fill="none" stroke="#008CD6" stroke-width="0.5" points="35.25,56 35.25,63 42.25,63 42.25,56 14.25,56 14.25,63 
		21.25,63 21.25,56 	"/>
</g>
</svg>
