<?xml version="1.0" encoding="utf-8"?>
<!-- Generator: Adobe Illustrator 12.0.0, SVG Export Plug-In . SVG Version: 6.00 Build 51448)  -->
<!DOCTYPE svg PUBLIC "-//W3C//DTD SVG 1.1//EN" "http://www.w3.org/Graphics/SVG/1.1/DTD/svg11.dtd" [
	<!ENTITY ns_svg "http://www.w3.org/2000/svg">
	<!ENTITY ns_xlink "http://www.w3.org/1999/xlink">
]>
<svg  version="1.1" id="レイヤー_1" xmlns="&ns_svg;" xmlns:xlink="&ns_xlink;" width="126.499" height="70.149"
	 viewBox="0 0 126.499 70.149" overflow="visible" enable-background="new 0 0 126.499 70.149" xml:space="preserve">
<g>
	<g>
		<path d="M43.292,4.693c0.776-0.65,1.471-1.47,2.205-2.572c0.431-0.651,0.693-1.187,0.693-1.417c0-0.137-0.041-0.22-0.199-0.357
			c-0.136-0.115-0.136-0.115-0.252-0.188c-0.116-0.052-0.116-0.052-0.189-0.095C45.645,0.011,45.686,0,45.749,0
			c0.231,0,0.579,0.116,0.861,0.284c0.335,0.188,0.494,0.367,0.494,0.535c0,0.126-0.01,0.137-0.567,0.956
			c0.136,0.031,0.199,0.042,0.272,0.042c0.211,0,0.725-0.083,1.26-0.209c0.431-0.105,0.609-0.168,0.831-0.283
			c0.083-0.053,0.116-0.063,0.179-0.063c0.252,0,0.85,0.546,0.85,0.776c0,0.095-0.031,0.147-0.157,0.263
			c-0.179,0.158-0.231,0.242-0.504,0.746c-0.924,1.732-1.816,2.877-3.098,3.948c-0.902,0.767-1.69,1.26-2.604,1.638l-0.073-0.146
			c0.841-0.515,1.471-1.029,2.32-1.879c1.271-1.261,2.257-2.688,2.867-4.158c0.105-0.231,0.168-0.452,0.168-0.536
			c0-0.042-0.032-0.073-0.095-0.073c-0.157,0-0.819,0.168-1.333,0.336c-0.189,0.063-0.252,0.073-0.346,0.073
			c-0.221,0-0.442-0.105-0.652-0.305c-0.809,1.155-1.879,2.174-3.023,2.877L43.292,4.693z"/>
		<path d="M55.23,8.547c1.04-0.798,1.701-1.449,2.394-2.342c0.851-1.082,1.481-2.226,1.765-3.203
			c-1.02,0.074-1.964,0.22-3.056,0.483c-0.662,0.158-0.872,0.22-1.093,0.325c-0.167,0.084-0.209,0.094-0.315,0.094
			c-0.368,0-0.965-0.756-0.965-1.218c0-0.073,0.01-0.104,0.063-0.178c0.242,0.419,0.524,0.608,0.913,0.608
			c0.41,0,2.184-0.221,3.549-0.451c0.567-0.095,0.652-0.116,0.861-0.242c0.073-0.042,0.126-0.063,0.168-0.063
			c0.094,0,0.252,0.104,0.492,0.315c0.294,0.273,0.42,0.441,0.42,0.577c0,0.084-0.053,0.168-0.157,0.263
			c-0.148,0.104-0.211,0.199-0.39,0.545c-1.134,2.142-2.824,3.843-4.556,4.61L55.23,8.547z M55.094,0.42
			c0.357,0.409,0.672,0.567,1.124,0.567c0.703,0,1.973-0.273,2.373-0.504c0.083-0.042,0.136-0.063,0.22-0.063
			c0.294,0,0.819,0.367,0.819,0.577c0,0.126-0.094,0.189-0.398,0.231c-1.25,0.189-2.111,0.272-2.678,0.272
			c-0.787,0-1.102-0.199-1.605-0.986L55.094,0.42z"/>
		<path d="M63.494,5.838c1.313-0.703,2.72-1.764,3.948-2.982c1.04-1.019,1.712-1.869,1.712-2.174c0-0.199-0.168-0.368-0.589-0.598
			c0.116-0.042,0.138-0.042,0.211-0.042c0.305,0,0.567,0.095,0.902,0.315c0.357,0.241,0.546,0.483,0.546,0.683
			c0,0.094-0.01,0.115-0.42,0.461C69.7,1.585,69.7,1.585,68.955,2.3c-0.735,0.703-0.798,0.756-1.25,1.134
			c0.409,0.305,0.587,0.462,0.64,0.588c0.042,0.104,0.063,0.598,0.073,1.543c0.01,0.735,0.032,1.407,0.053,2.005
			c0,0.231,0.01,0.536,0.01,0.599c0,0.367-0.073,0.524-0.242,0.524c-0.242,0-0.713-0.577-0.713-0.882c0-0.073,0-0.073,0.063-0.273
			c0.094-0.262,0.189-1.564,0.189-2.582c0-0.515-0.022-0.83-0.063-0.998c-0.032-0.104-0.073-0.157-0.231-0.326
			c-0.735,0.588-1.491,1.124-2.016,1.439c-0.589,0.347-1.345,0.714-1.89,0.914L63.494,5.838z"/>
		<path d="M75.475,8.516c0.776-0.641,1.438-1.564,1.9-2.646c0.347-0.798,0.63-1.827,0.63-2.289c0-0.283-0.199-0.493-0.618-0.672
			c0.063-0.073,0.136-0.105,0.24-0.105c0.138,0,0.504,0.136,0.809,0.305c0.274,0.146,0.378,0.231,0.453,0.367
			c0.482-0.293,1.427-1.039,1.879-1.501c0.24-0.231,0.325-0.347,0.325-0.42c0-0.126-0.126-0.157-0.62-0.157
			c-0.693,0-2.489,0.283-3.623,0.577c-0.398,0.105-0.766,0.231-1.071,0.367c-0.063,0.032-0.168,0.053-0.242,0.053
			c-0.231,0-0.609-0.314-0.839-0.704c-0.116-0.199-0.201-0.441-0.201-0.567c0-0.073,0.022-0.146,0.075-0.242
			c0.189,0.431,0.524,0.63,1.039,0.63c0.378,0,0.567-0.021,2.531-0.273c0.094-0.01,0.325-0.042,0.724-0.084
			c1.627-0.188,1.712-0.21,1.932-0.314c0.063-0.021,0.083-0.032,0.136-0.032c0.116,0,0.305,0.105,0.557,0.305
			c0.451,0.346,0.756,0.703,0.756,0.882c0,0.158-0.063,0.199-0.378,0.284c-0.167,0.053-0.283,0.094-0.514,0.22
			c-0.872,0.494-1.343,0.735-2.479,1.271c-0.063,0.179-0.073,0.199-0.157,0.472c-0.473,1.438-0.882,2.257-1.512,3.003
			c-0.516,0.598-1.04,1.061-1.627,1.407L75.475,8.516z"/>
		<path d="M85.365,1.302c1.008,0.252,1.617,0.494,2.027,0.787c0.242,0.168,0.355,0.399,0.355,0.714c0,0.346-0.113,0.588-0.293,0.588
			c-0.115,0-0.168-0.053-0.452-0.421c-0.515-0.682-0.892-1.029-1.711-1.543L85.365,1.302z M92.832,1.901
			c-0.526,0.987-1.166,1.816-2.207,2.824C89.66,5.66,89.01,6.185,87.676,7.119c-0.494,0.346-0.547,0.388-0.62,0.483
			c-0.167,0.2-0.229,0.252-0.368,0.252c-0.429,0-1.227-1.008-1.227-1.544c0-0.063,0.01-0.105,0.053-0.21
			c0.209,0.316,0.229,0.336,0.377,0.462c0.157,0.147,0.304,0.22,0.42,0.22c0.178,0,0.504-0.136,1.02-0.44
			c1.174-0.683,1.584-0.977,2.509-1.732c1.29-1.05,1.922-1.69,2.824-2.804L92.832,1.901z"/>
		<path d="M97.525,0.021c0.219,0,0.451,0.053,0.775,0.179c0.441,0.168,0.693,0.378,0.693,0.577c0,0.073,0,0.073-0.063,0.231
			c-0.127,0.284-0.189,1.072-0.189,2.29c0.788,0.073,1.826,0.325,2.446,0.588c0.474,0.221,0.651,0.43,0.651,0.808
			c0,0.305-0.095,0.483-0.252,0.483c-0.105,0-0.115,0-0.388-0.252c-0.694-0.641-1.501-1.082-2.468-1.365
			c0.01,0.662,0.01,0.987,0.01,1.302c0,0.273,0,0.399,0,0.63c0,0.473,0,0.63,0,0.903c0,0.314,0,0.314,0.021,1.196
			c0.011,0.221,0.011,0.399,0.011,0.557c0,0.199-0.011,0.294-0.053,0.357c-0.032,0.053-0.116,0.094-0.188,0.094
			c-0.252,0-0.673-0.566-0.673-0.913c0-0.104,0.011-0.168,0.053-0.294c0.158-0.504,0.222-1.869,0.222-4.547
			c0-0.756-0.033-1.521-0.075-1.805c-0.063-0.473-0.293-0.735-0.797-0.935C97.389,0.032,97.43,0.021,97.525,0.021z"/>
		<path d="M9.807,27.626c2.269-0.673,3.718-1.533,4.915-2.92c1.239-1.407,1.869-3.129,1.869-5.061c0-2.037-0.819-3.654-2.373-4.641
			c-0.924-0.609-2.31-0.966-3.633-0.966c-0.252,0-0.4,0-0.735,0.042c0.504,0.735,0.65,1.134,0.65,1.743
			c0,1.638-1.175,4.704-2.771,7.266c-1.323,2.101-2.353,3.13-3.129,3.13c-0.357,0-0.693-0.168-0.924-0.441
			c-0.189-0.252-0.231-0.336-0.587-1.344c-0.189-0.545-0.315-0.797-0.924-1.974c-0.335-0.671-0.483-1.238-0.483-1.911
			c0-1.323,0.715-2.877,1.891-4.158c1.701-1.807,4.472-2.94,7.223-2.94c2.121,0,4.074,0.693,5.418,1.933
			c1.343,1.238,2.016,2.898,2.016,4.935c0,2.625-1.534,4.956-4.179,6.363c-1.217,0.651-2.31,0.987-4.094,1.302L9.807,27.626z
			 M2.899,21.095c0,1.008,0.315,2.037,0.839,2.771c0.294,0.378,0.567,0.609,0.798,0.609c0.461,0,1.469-1.134,2.499-2.772
			c1.554-2.478,2.667-5.187,2.667-6.489c0-0.314-0.063-0.524-0.294-1.049C5.754,14.816,2.899,17.861,2.899,21.095z"/>
		<path d="M23.499,26.639c-0.021,0.252-0.126,0.314-0.693,0.336c-0.167,0-0.272,0.021-0.335,0.021c-0.021,0-0.042,0-0.063,0
			c-0.189,0-0.272-0.083-0.294-0.272c0.042-2.667,0.085-5.271,0.085-9.766c0-2.373-0.022-3.381-0.105-5.417
			c0.65,0.399,0.861,0.525,1.491,1.008h2.625c0.335-0.399,0.441-0.525,0.797-0.923c0.483,0.398,0.631,0.524,1.113,0.923
			c0.168,0.126,0.252,0.21,0.252,0.294c0,0.146-0.252,0.335-0.734,0.567v4.011c0,1.995,0,4.809,0.041,8.42
			c-0.021,0.147-0.063,0.21-0.167,0.253c-0.085,0.042-0.694,0.104-0.904,0.104c-0.168,0-0.252-0.063-0.272-0.252V24.77h-2.836
			V26.639z M26.335,13.031h-2.836v5.166h2.836V13.031z M23.499,18.68v5.607h2.836V18.68H23.499z M37.38,20.78h0.504
			c0.483-0.588,0.652-0.756,1.135-1.324c0.693,0.63,0.902,0.819,1.532,1.45c0.105,0.083,0.148,0.146,0.148,0.209
			c0,0.084-0.127,0.147-0.253,0.147H37.38v3.276c0,0.252,0.022,1.995,0.042,2.73c-0.042,0.966-0.063,1.134-0.272,1.407
			c-0.294,0.378-0.756,0.567-2.017,0.819c-0.083-0.567-0.23-0.84-0.587-1.092c-0.335-0.231-0.756-0.336-2.205-0.524v-0.315
			c1.512,0.105,2.016,0.126,3.381,0.168c0.231,0,0.294-0.063,0.294-0.315v-6.153h-5.587c-1.154,0-1.323,0.021-1.995,0.167
			l-0.189-0.861c0.756,0.168,1.197,0.21,2.227,0.21h5.544v-2.835h-5.922c-1.093,0-1.365,0.021-1.953,0.168l-0.148-0.798
			c0.652,0.126,0.882,0.146,2.101,0.146h2.73v-3.359H30.22c-0.798,0-1.134,0.042-1.575,0.168l-0.168-0.84
			c0.609,0.147,1.05,0.189,1.743,0.189h2.604v-1.554c0-0.357-0.022-0.692-0.105-1.617c2.016,0.21,2.414,0.294,2.414,0.504
			c0,0.168-0.23,0.294-0.923,0.462v2.205h2.477l1.134-1.407c0.735,0.651,0.967,0.861,1.68,1.555
			c0.105,0.084,0.148,0.147,0.148,0.188c0,0.084-0.126,0.147-0.252,0.147H34.21v3.359h3.444l1.113-1.364
			c0.797,0.672,1.049,0.882,1.847,1.533c0.085,0.083,0.126,0.126,0.126,0.167c0,0.084-0.105,0.147-0.231,0.147H37.38V20.78z
			 M29.988,22.145c0.819,0.314,1.575,0.756,2.499,1.407c0.609,0.441,0.882,0.819,0.882,1.239c0,0.671-0.335,1.386-0.63,1.386
			c-0.167,0-0.294-0.146-0.483-0.525c-0.524-1.155-1.26-2.142-2.457-3.318L29.988,22.145z"/>
		<path d="M50.023,17.063c-0.042,2.604-0.189,4.41-0.463,5.943c-0.252,1.47-0.693,3.065-1.217,4.389
			c-0.231,0.609-0.441,1.029-0.945,1.911l-0.315-0.126c0.734-1.848,1.091-3.444,1.365-6.09c0.209-1.994,0.272-3.78,0.272-8.483
			c0-0.609,0-0.882-0.042-1.617c0.715,0.399,0.945,0.525,1.68,0.966h4.956c0.315-0.378,0.42-0.482,0.756-0.818
			c0.526,0.356,0.672,0.482,1.093,0.818c0.105,0.105,0.146,0.189,0.146,0.252c0,0.147-0.146,0.273-0.567,0.483v0.903
			c0,0.189,0,0.335,0,0.378c0,0.272,0,0.608,0.022,1.281c-0.042,0.272-0.211,0.314-1.009,0.314c-0.209,0-0.272-0.042-0.293-0.21
			v-0.294H50.023z M47.796,11.561c0.715,0.146,1.134,0.21,1.554,0.21h5.502c0.441-0.567,0.567-0.735,1.028-1.239
			c0.715,0.567,0.924,0.756,1.617,1.407c0.042,0.042,0.085,0.126,0.085,0.146c0,0.063-0.085,0.169-0.126,0.169h-8.106
			c-0.441,0-1.028,0.063-1.449,0.146L47.796,11.561z M55.503,27.668c0.337-0.42,0.441-0.546,0.798-0.945
			c0.504,0.482,0.672,0.63,1.134,1.134c0.042,0.063,0.063,0.104,0.063,0.147c0,0.063-0.104,0.146-0.209,0.146h-5.522v1.029
			c-0.042,0.252-0.148,0.294-0.652,0.294c-0.083,0-0.167,0-0.209,0c-0.021,0-0.042,0-0.063,0c-0.189,0-0.274-0.063-0.274-0.252
			c0.063-2.542,0.105-4.012,0.105-4.41v-3.108c-0.252,0.315-0.378,0.462-0.819,0.925l-0.189-0.231
			c0.882-1.344,1.638-3.024,2.101-4.746c1.427,0.462,1.68,0.567,1.68,0.735c0,0.147-0.085,0.188-0.778,0.314
			c-0.42,0.672-0.504,0.819-0.861,1.386h1.617c0.526-0.84,0.756-1.364,1.03-2.33c1.386,0.462,1.575,0.545,1.575,0.714
			c0,0.146-0.231,0.23-0.756,0.272c-0.987,0.924-1.113,1.05-1.491,1.344h1.68c0.315-0.419,0.419-0.545,0.756-0.923
			c0.567,0.462,0.713,0.609,1.197,1.092c0.042,0.083,0.083,0.146,0.083,0.188c0,0.084-0.083,0.126-0.209,0.126h-2.562v1.827h0.713
			c0.337-0.441,0.441-0.567,0.798-0.966c0.483,0.525,0.652,0.672,1.113,1.176c0.042,0.063,0.063,0.104,0.063,0.147
			c0,0.063-0.105,0.126-0.252,0.126h-2.436v2.016h0.713c0.357-0.378,0.463-0.483,0.778-0.882c0.504,0.462,0.65,0.608,1.113,1.092
			c0.063,0.063,0.083,0.126,0.083,0.168c0,0.063-0.083,0.105-0.231,0.105h-2.457v2.289H55.503z M55.462,14.438h-5.418
			c0,1.197,0,1.554,0,2.142h5.418V14.438z M53.593,22.397V20.57h-1.827v1.827H53.593z M53.593,24.896V22.88h-1.827v2.016H53.593z
			 M53.593,25.379h-1.827v2.289h1.827V25.379z M55.462,29.474c1.26-0.651,2.142-1.261,3.17-2.205c0.4-0.378,0.463-0.441,1.302-1.429
			c0.357,0.147,0.652,0.253,0.841,0.336c0.839,0.315,1.028,0.42,1.028,0.546c0,0.168-0.189,0.209-0.924,0.23
			c-2.646,1.848-3.107,2.1-5.271,2.793L55.462,29.474z M62.896,12.254c-0.841,1.659-0.882,1.764-1.554,2.751h2.792
			c0.357-0.421,0.463-0.547,0.841-0.945c0.524,0.42,0.693,0.546,1.176,0.945c0.167,0.104,0.23,0.209,0.23,0.293
			c0,0.126,0,0.126-0.65,0.483c0,0.693,0,1.113,0,1.553c0,0.421,0.042,6.237,0.063,7.813c-0.042,0.294-0.168,0.336-0.924,0.336
			c-0.356,0-0.419-0.042-0.461-0.23v-0.525h-4.852v0.651c-0.063,0.188-0.189,0.23-0.734,0.23c-0.127,0-0.211,0.021-0.274,0.021
			c-0.021,0-0.042,0-0.042,0c-0.209,0-0.293-0.063-0.315-0.273l0.022-1.743l0.021-3.528c0-4.473,0-4.872-0.063-5.921
			c0.63,0.357,0.819,0.462,1.386,0.84h1.26c0.042-0.315,0.063-0.462,0.105-0.651c0.272-1.365,0.272-1.365,0.335-2.1H59.2
			c-0.378,0-0.841,0.063-1.219,0.146l-0.126-0.84c0.42,0.146,0.882,0.21,1.345,0.21h4.808c0.442-0.63,0.589-0.798,1.093-1.344
			c0.839,0.609,1.091,0.798,1.912,1.491c0.063,0.084,0.104,0.126,0.104,0.167c0,0.084-0.104,0.169-0.231,0.169H62.896z
			 M64.408,15.488h-4.852v2.395h4.852V15.488z M59.556,18.365v2.604h4.852v-2.604H59.556z M59.556,21.452v2.793h4.852v-2.793H59.556
			z M62.602,25.652c1.786,0.693,3.023,1.26,3.633,1.701c0.315,0.252,0.567,0.693,0.567,1.029c0,0.63-0.231,1.218-0.461,1.218
			c-0.168,0-0.211-0.063-0.652-0.672c-0.126-0.167-1.112-1.26-1.364-1.512c-0.126-0.126-0.735-0.63-1.849-1.533L62.602,25.652z"/>
		<path d="M91.477,15.929c0.336-0.419,0.441-0.545,0.799-0.945c0.67,0.525,0.881,0.693,1.531,1.281
			c0.189,0.147,0.274,0.252,0.274,0.356c0,0.147-0.252,0.21-1.261,0.253c-1.071,1.301-1.805,1.994-3.129,2.981
			c1.113,0.567,2.058,0.924,3.297,1.281c1.849,0.525,3.234,0.734,5.25,0.84v0.315c-0.861,0.167-1.092,0.378-1.617,1.428
			c-1.322-0.315-1.89-0.505-3.338-1.029c0.461,0.462,0.482,0.462,0.881,0.84c0.127,0.146,0.189,0.231,0.189,0.315
			c0,0.021-0.043,0.083-0.063,0.104c-0.043,0.021-0.127,0.084-0.232,0.126c-0.041,0.021-0.125,0.063-0.209,0.105
			c0,0.966,0,0.966,0.021,2.751c0.022,1.155,0.022,1.155,0.042,2.247c0,0.042,0.021,0.105,0.021,0.126
			c0,0.147-0.063,0.231-0.21,0.273c-0.21,0.063-0.567,0.105-0.861,0.105c-0.315,0-0.378-0.063-0.378-0.357c0,0,0-0.021,0-0.042
			v-0.84h-7.918v0.735c0,0.357-0.188,0.462-0.839,0.462c-0.462,0-0.609-0.084-0.609-0.357v-0.042
			c0.022-0.734,0.022-0.734,0.022-1.806c0.021-0.567,0.021-0.567,0.041-1.911V23.3c-1.554,0.567-2.351,0.819-3.927,1.113
			l-0.126-0.294c3.193-1.071,6.259-2.583,8.716-4.305c-0.882-0.714-1.912-1.701-2.541-2.479c-0.504,0.525-1.071,1.029-1.722,1.555
			c-1.471,1.176-2.436,1.764-3.718,2.247l-0.146-0.231c1.973-1.512,2.897-2.31,3.928-3.486c1.174-1.281,1.847-2.289,2.268-3.339
			c2.058,0.421,2.227,0.462,2.227,0.651c0,0.21-0.295,0.336-1.094,0.462c-0.252,0.357-0.357,0.504-0.523,0.735H91.477z
			 M87.864,13.262v-1.449c0-0.483-0.021-0.777-0.063-1.386c1.701,0.168,1.975,0.21,2.185,0.273c0.169,0.063,0.272,0.147,0.272,0.273
			c0,0.23-0.272,0.378-0.902,0.504v1.785h5.88c0.421-0.483,0.546-0.651,0.967-1.155l1.91,1.386c0.126,0.105,0.188,0.189,0.188,0.273
			c0,0.063-0.105,0.147-0.188,0.167c0,0-0.421,0.084-1.26,0.21c-1.302,1.491-1.365,1.554-2.038,2.058l-0.209-0.126
			c0.398-1.008,0.504-1.365,0.735-2.331H81.964c-0.126,1.05-0.315,1.786-0.63,2.353c-0.274,0.482-0.924,0.986-1.282,0.986
			c-0.126,0-0.356-0.167-0.461-0.356c-0.105-0.147-0.168-0.546-0.168-0.882c0-0.273,0-0.294,0.504-0.631
			c0.294-0.209,0.756-0.756,0.987-1.175c0.398-0.756,0.587-1.323,0.713-2.226h0.378c0.022,0.336,0.042,0.567,0.042,0.756
			c0,0.189-0.021,0.378-0.042,0.693H87.864z M92.316,23.363c0.357-0.315,0.357-0.315,0.84-0.714
			c-2.037-0.777-3.088-1.302-4.389-2.163c-1.407,0.924-2.772,1.617-4.662,2.436c0.189,0.147,0.252,0.21,0.461,0.441H92.316z
			 M84.566,27.961h7.918v-4.115h-7.918V27.961z M86.121,16.412c-0.209,0.252-0.272,0.336-0.482,0.567
			c0.525,0.672,1.596,1.491,2.94,2.268c1.134-0.902,1.805-1.575,2.792-2.834H86.121z"/>
		<path d="M111.174,20.318c-0.377,1.323-0.965,3.612-1.217,4.641c-0.211,0.925-0.273,1.261-0.273,1.785
			c-0.021,0.672-0.041,0.757-0.146,0.924c-0.105,0.147-0.232,0.231-0.398,0.231c-0.357,0-0.652-0.294-0.904-0.945
			c-0.42-1.07-0.672-2.667-0.672-4.221c0-1.932,0.23-3.696,0.944-6.993c0.274-1.302,0.316-1.533,0.316-1.89
			c0-0.63-0.169-1.134-0.609-1.848c0.483,0.021,0.882,0.293,1.47,1.049c0.482,0.609,0.756,1.198,0.756,1.596
			c0,0.231,0,0.231-0.336,0.924c-1.008,2.1-1.597,4.599-1.597,6.846c0,1.071,0.085,1.743,0.337,2.604l0.882-2.1l1.134-2.709
			L111.174,20.318z M113.275,16.517c1.008,0.651,1.658,0.861,2.708,0.861c0.735,0,1.534-0.105,2.394-0.295c0-0.399,0-0.734,0-0.923
			c0-2.353-0.021-2.625-0.293-2.919c-0.252-0.272-0.715-0.42-1.386-0.482c0.293-0.273,0.462-0.336,1.008-0.336
			c0.462,0,1.028,0.084,1.427,0.189c0.609,0.189,0.924,0.441,0.924,0.756c0,0.147,0,0.168-0.188,0.651
			c-0.229,0.609-0.356,1.365-0.44,2.813c0.967-0.273,1.574-0.545,1.932-0.86c0.209-0.21,0.272-0.231,0.461-0.231
			c0.254,0,0.736,0.126,0.988,0.273c0.168,0.084,0.273,0.23,0.273,0.378c0,0.462-1.533,1.092-3.718,1.512
			c0,2.793,0.063,3.948,0.274,5.712c2.436,0.651,3.464,1.47,3.464,2.688c0,0.441-0.188,0.777-0.421,0.777
			c-0.166,0-0.314-0.104-0.733-0.525c-0.925-0.945-1.45-1.323-2.269-1.679c0.021,0.188,0.021,0.356,0.021,0.504
			c0,1.512-1.262,2.415-3.36,2.415c-1.827,0-3.108-0.882-3.108-2.142c0-1.449,1.555-2.373,3.947-2.373
			c0.4,0,0.693,0.021,1.282,0.063c0-0.189,0-0.315,0-0.357l-0.042-2.247l-0.021-2.688c-0.629,0.126-1.238,0.168-1.848,0.168
			c-1.533,0-2.414-0.379-3.465-1.47L113.275,16.517z M116.487,24.182c-1.658,0-2.688,0.546-2.688,1.47
			c0,0.735,0.819,1.239,2.059,1.239c1.156,0,1.975-0.336,2.311-0.987c0.209-0.378,0.271-0.693,0.271-1.47
			C117.853,24.266,117.266,24.182,116.487,24.182z"/>
	</g>
</g>
<g>
	<path d="M44.042,44.068c0.776-0.65,1.471-1.47,2.205-2.572c0.431-0.651,0.693-1.187,0.693-1.417c0-0.137-0.041-0.22-0.199-0.357
		c-0.136-0.115-0.136-0.115-0.252-0.188c-0.116-0.052-0.116-0.052-0.189-0.095c0.095-0.052,0.136-0.063,0.199-0.063
		c0.231,0,0.579,0.116,0.861,0.284c0.335,0.188,0.494,0.367,0.494,0.535c0,0.126-0.01,0.137-0.567,0.956
		c0.136,0.031,0.199,0.042,0.272,0.042c0.211,0,0.725-0.083,1.26-0.209c0.431-0.105,0.609-0.168,0.831-0.283
		c0.083-0.053,0.116-0.063,0.179-0.063c0.252,0,0.85,0.546,0.85,0.776c0,0.095-0.031,0.147-0.157,0.263
		c-0.179,0.158-0.231,0.242-0.504,0.746c-0.924,1.732-1.816,2.877-3.098,3.948c-0.902,0.767-1.69,1.26-2.604,1.638l-0.073-0.146
		c0.841-0.515,1.471-1.029,2.32-1.879c1.271-1.261,2.257-2.688,2.867-4.158c0.105-0.231,0.168-0.452,0.168-0.536
		c0-0.042-0.032-0.073-0.095-0.073c-0.157,0-0.819,0.168-1.333,0.336c-0.189,0.063-0.252,0.073-0.346,0.073
		c-0.221,0-0.442-0.105-0.652-0.305c-0.809,1.155-1.879,2.174-3.023,2.877L44.042,44.068z"/>
	<path d="M55.98,47.922c1.04-0.798,1.701-1.449,2.394-2.342c0.851-1.082,1.481-2.226,1.765-3.203
		c-1.02,0.074-1.964,0.22-3.056,0.483c-0.662,0.158-0.872,0.22-1.093,0.325c-0.167,0.084-0.209,0.094-0.315,0.094
		c-0.368,0-0.965-0.756-0.965-1.218c0-0.073,0.01-0.104,0.063-0.178c0.242,0.419,0.524,0.608,0.913,0.608
		c0.41,0,2.184-0.221,3.549-0.451c0.567-0.095,0.652-0.116,0.861-0.242c0.073-0.042,0.126-0.063,0.168-0.063
		c0.094,0,0.252,0.104,0.492,0.315c0.294,0.273,0.42,0.441,0.42,0.577c0,0.084-0.053,0.168-0.157,0.263
		c-0.148,0.104-0.211,0.199-0.39,0.545c-1.134,2.142-2.824,3.843-4.556,4.61L55.98,47.922z M55.844,39.795
		c0.357,0.409,0.672,0.567,1.124,0.567c0.703,0,1.973-0.273,2.373-0.504c0.083-0.042,0.136-0.063,0.22-0.063
		c0.294,0,0.819,0.367,0.819,0.577c0,0.126-0.094,0.189-0.398,0.231c-1.25,0.189-2.111,0.272-2.678,0.272
		c-0.787,0-1.102-0.199-1.605-0.986L55.844,39.795z"/>
	<path d="M64.244,45.213c1.313-0.703,2.72-1.764,3.948-2.982c1.04-1.019,1.712-1.869,1.712-2.174c0-0.199-0.168-0.368-0.589-0.598
		c0.116-0.042,0.138-0.042,0.211-0.042c0.305,0,0.567,0.095,0.902,0.315c0.357,0.241,0.546,0.483,0.546,0.683
		c0,0.094-0.01,0.115-0.42,0.461c-0.104,0.084-0.104,0.084-0.85,0.798c-0.735,0.703-0.798,0.756-1.25,1.134
		c0.409,0.305,0.587,0.462,0.64,0.588c0.042,0.104,0.063,0.598,0.073,1.543c0.01,0.735,0.032,1.407,0.053,2.005
		c0,0.231,0.01,0.536,0.01,0.599c0,0.367-0.073,0.524-0.242,0.524c-0.242,0-0.713-0.577-0.713-0.882c0-0.073,0-0.073,0.063-0.273
		c0.094-0.262,0.189-1.564,0.189-2.582c0-0.515-0.022-0.83-0.063-0.998c-0.032-0.104-0.073-0.157-0.231-0.326
		c-0.735,0.588-1.491,1.124-2.016,1.439c-0.589,0.347-1.345,0.714-1.89,0.914L64.244,45.213z"/>
	<path d="M76.225,47.891c0.776-0.641,1.438-1.564,1.9-2.646c0.347-0.798,0.63-1.827,0.63-2.289c0-0.283-0.199-0.493-0.618-0.672
		c0.063-0.073,0.136-0.105,0.24-0.105c0.138,0,0.504,0.136,0.809,0.305c0.274,0.146,0.378,0.231,0.453,0.367
		c0.482-0.293,1.427-1.039,1.879-1.501c0.24-0.231,0.325-0.347,0.325-0.42c0-0.126-0.126-0.157-0.62-0.157
		c-0.693,0-2.489,0.283-3.623,0.577c-0.398,0.105-0.766,0.231-1.071,0.367c-0.063,0.032-0.168,0.053-0.242,0.053
		c-0.231,0-0.609-0.314-0.839-0.704c-0.116-0.199-0.201-0.441-0.201-0.567c0-0.073,0.022-0.146,0.075-0.242
		c0.189,0.431,0.524,0.63,1.039,0.63c0.378,0,0.567-0.021,2.531-0.273c0.094-0.01,0.325-0.042,0.724-0.084
		c1.627-0.188,1.712-0.21,1.932-0.314c0.063-0.021,0.083-0.032,0.136-0.032c0.116,0,0.305,0.105,0.557,0.305
		c0.451,0.346,0.756,0.703,0.756,0.882c0,0.158-0.063,0.199-0.378,0.284c-0.167,0.053-0.283,0.094-0.514,0.22
		c-0.872,0.494-1.343,0.735-2.479,1.271c-0.063,0.179-0.073,0.199-0.157,0.472c-0.473,1.438-0.882,2.257-1.512,3.003
		c-0.516,0.598-1.04,1.061-1.627,1.407L76.225,47.891z"/>
	<path d="M86.115,40.677c1.008,0.252,1.617,0.494,2.027,0.787c0.242,0.168,0.355,0.399,0.355,0.714c0,0.346-0.113,0.588-0.293,0.588
		c-0.115,0-0.168-0.053-0.452-0.421c-0.515-0.682-0.892-1.029-1.711-1.543L86.115,40.677z M93.582,41.276
		c-0.526,0.987-1.166,1.816-2.207,2.824c-0.965,0.935-1.615,1.459-2.949,2.394c-0.494,0.346-0.547,0.388-0.62,0.483
		c-0.167,0.2-0.229,0.252-0.368,0.252c-0.429,0-1.227-1.008-1.227-1.544c0-0.063,0.01-0.105,0.053-0.21
		c0.209,0.316,0.229,0.336,0.377,0.462c0.157,0.147,0.304,0.22,0.42,0.22c0.178,0,0.504-0.136,1.02-0.44
		c1.174-0.683,1.584-0.977,2.509-1.732c1.29-1.05,1.922-1.69,2.824-2.804L93.582,41.276z"/>
	<path d="M98.275,39.396c0.219,0,0.451,0.053,0.775,0.179c0.441,0.168,0.693,0.378,0.693,0.577c0,0.073,0,0.073-0.063,0.231
		c-0.127,0.284-0.189,1.072-0.189,2.29c0.788,0.073,1.826,0.325,2.446,0.588c0.474,0.221,0.651,0.43,0.651,0.808
		c0,0.305-0.095,0.483-0.252,0.483c-0.105,0-0.115,0-0.388-0.252c-0.694-0.641-1.501-1.082-2.468-1.365
		c0.01,0.662,0.01,0.987,0.01,1.302c0,0.273,0,0.399,0,0.63c0,0.473,0,0.63,0,0.903c0,0.314,0,0.314,0.021,1.196
		c0.011,0.221,0.011,0.399,0.011,0.557c0,0.199-0.011,0.294-0.053,0.357c-0.032,0.053-0.116,0.094-0.188,0.094
		c-0.252,0-0.673-0.566-0.673-0.913c0-0.104,0.011-0.168,0.053-0.294c0.158-0.504,0.222-1.869,0.222-4.547
		c0-0.756-0.033-1.521-0.075-1.805c-0.063-0.473-0.293-0.735-0.797-0.935C98.139,39.407,98.18,39.396,98.275,39.396z"/>
	<path d="M10.557,67.001c2.269-0.673,3.718-1.533,4.915-2.92c1.239-1.407,1.869-3.129,1.869-5.061c0-2.037-0.819-3.654-2.373-4.641
		c-0.924-0.609-2.31-0.966-3.633-0.966c-0.252,0-0.4,0-0.735,0.042c0.504,0.735,0.65,1.134,0.65,1.743
		c0,1.638-1.175,4.704-2.771,7.266c-1.323,2.101-2.353,3.13-3.129,3.13c-0.357,0-0.693-0.168-0.924-0.441
		c-0.189-0.252-0.231-0.336-0.587-1.344c-0.189-0.545-0.315-0.797-0.924-1.974c-0.335-0.671-0.483-1.238-0.483-1.911
		c0-1.323,0.715-2.877,1.891-4.158c1.701-1.807,4.472-2.94,7.223-2.94c2.121,0,4.074,0.693,5.418,1.933
		c1.343,1.238,2.016,2.898,2.016,4.935c0,2.625-1.534,4.956-4.179,6.363c-1.217,0.651-2.31,0.987-4.094,1.302L10.557,67.001z
		 M3.649,60.47c0,1.008,0.315,2.037,0.839,2.771c0.294,0.378,0.567,0.609,0.798,0.609c0.461,0,1.469-1.134,2.499-2.772
		c1.554-2.478,2.667-5.187,2.667-6.489c0-0.314-0.063-0.524-0.294-1.049C6.504,54.191,3.649,57.236,3.649,60.47z"/>
	<path d="M24.249,66.014c-0.021,0.252-0.126,0.314-0.693,0.336c-0.167,0-0.272,0.021-0.335,0.021c-0.021,0-0.042,0-0.063,0
		c-0.189,0-0.272-0.083-0.294-0.272c0.042-2.667,0.085-5.271,0.085-9.766c0-2.373-0.022-3.381-0.105-5.417
		c0.65,0.399,0.861,0.525,1.491,1.008h2.625c0.335-0.399,0.441-0.525,0.797-0.923c0.483,0.398,0.631,0.524,1.113,0.923
		c0.168,0.126,0.252,0.21,0.252,0.294c0,0.146-0.252,0.335-0.734,0.567v4.011c0,1.995,0,4.809,0.041,8.42
		c-0.021,0.147-0.063,0.21-0.167,0.253c-0.085,0.042-0.694,0.104-0.904,0.104c-0.168,0-0.252-0.063-0.272-0.252v-1.176h-2.836
		V66.014z M27.085,52.406h-2.836v5.166h2.836V52.406z M24.249,58.055v5.607h2.836v-5.607H24.249z M38.13,60.155h0.504
		c0.483-0.588,0.652-0.756,1.135-1.324c0.693,0.63,0.902,0.819,1.532,1.45c0.105,0.083,0.148,0.146,0.148,0.209
		c0,0.084-0.127,0.147-0.253,0.147H38.13v3.276c0,0.252,0.022,1.995,0.042,2.73c-0.042,0.966-0.063,1.134-0.272,1.407
		c-0.294,0.378-0.756,0.567-2.017,0.819c-0.083-0.567-0.23-0.84-0.587-1.092c-0.335-0.231-0.756-0.336-2.205-0.524v-0.315
		c1.512,0.105,2.016,0.126,3.381,0.168c0.231,0,0.294-0.063,0.294-0.315v-6.153h-5.587c-1.154,0-1.323,0.021-1.995,0.167
		l-0.189-0.861c0.756,0.168,1.197,0.21,2.227,0.21h5.544V57.32h-5.922c-1.093,0-1.365,0.021-1.953,0.168l-0.148-0.798
		c0.652,0.126,0.882,0.146,2.101,0.146h2.73v-3.359H30.97c-0.798,0-1.134,0.042-1.575,0.168l-0.168-0.84
		c0.609,0.147,1.05,0.189,1.743,0.189h2.604V51.44c0-0.357-0.022-0.692-0.105-1.617c2.016,0.21,2.414,0.294,2.414,0.504
		c0,0.168-0.23,0.294-0.923,0.462v2.205h2.477l1.134-1.407c0.735,0.651,0.967,0.861,1.68,1.555c0.105,0.084,0.148,0.147,0.148,0.188
		c0,0.084-0.126,0.147-0.252,0.147H34.96v3.359h3.444l1.113-1.364c0.797,0.672,1.049,0.882,1.847,1.533
		c0.085,0.083,0.126,0.126,0.126,0.167c0,0.084-0.105,0.147-0.231,0.147H38.13V60.155z M30.738,61.52
		c0.819,0.314,1.575,0.756,2.499,1.407c0.609,0.441,0.882,0.819,0.882,1.239c0,0.671-0.335,1.386-0.63,1.386
		c-0.167,0-0.294-0.146-0.483-0.525c-0.524-1.155-1.26-2.142-2.457-3.318L30.738,61.52z"/>
	<path d="M50.773,56.438c-0.042,2.604-0.189,4.41-0.463,5.943c-0.252,1.47-0.693,3.065-1.217,4.389
		c-0.231,0.609-0.441,1.029-0.945,1.911l-0.315-0.126c0.734-1.848,1.091-3.444,1.365-6.09c0.209-1.994,0.272-3.78,0.272-8.483
		c0-0.609,0-0.882-0.042-1.617c0.715,0.399,0.945,0.525,1.68,0.966h4.956c0.315-0.378,0.42-0.482,0.756-0.818
		c0.526,0.356,0.672,0.482,1.093,0.818c0.105,0.105,0.146,0.189,0.146,0.252c0,0.147-0.146,0.273-0.567,0.483v0.903
		c0,0.189,0,0.335,0,0.378c0,0.272,0,0.608,0.022,1.281c-0.042,0.272-0.211,0.314-1.009,0.314c-0.209,0-0.272-0.042-0.293-0.21
		v-0.294H50.773z M48.546,50.936c0.715,0.146,1.134,0.21,1.554,0.21h5.502c0.441-0.567,0.567-0.735,1.028-1.239
		c0.715,0.567,0.924,0.756,1.617,1.407c0.042,0.042,0.085,0.126,0.085,0.146c0,0.063-0.085,0.169-0.126,0.169h-8.106
		c-0.441,0-1.028,0.063-1.449,0.146L48.546,50.936z M56.253,67.043c0.337-0.42,0.441-0.546,0.798-0.945
		c0.504,0.482,0.672,0.63,1.134,1.134c0.042,0.063,0.063,0.104,0.063,0.147c0,0.063-0.104,0.146-0.209,0.146h-5.522v1.029
		c-0.042,0.252-0.148,0.294-0.652,0.294c-0.083,0-0.167,0-0.209,0c-0.021,0-0.042,0-0.063,0c-0.189,0-0.274-0.063-0.274-0.252
		c0.063-2.542,0.105-4.012,0.105-4.41v-3.108c-0.252,0.315-0.378,0.462-0.819,0.925l-0.189-0.231
		c0.882-1.344,1.638-3.024,2.101-4.746c1.427,0.462,1.68,0.567,1.68,0.735c0,0.147-0.085,0.188-0.778,0.314
		c-0.42,0.672-0.504,0.819-0.861,1.386h1.617c0.526-0.84,0.756-1.364,1.03-2.33c1.386,0.462,1.575,0.545,1.575,0.714
		c0,0.146-0.231,0.23-0.756,0.272c-0.987,0.924-1.113,1.05-1.491,1.344h1.68c0.315-0.419,0.419-0.545,0.756-0.923
		c0.567,0.462,0.713,0.609,1.197,1.092c0.042,0.083,0.083,0.146,0.083,0.188c0,0.084-0.083,0.126-0.209,0.126h-2.562v1.827h0.713
		c0.337-0.441,0.441-0.567,0.798-0.966c0.483,0.525,0.652,0.672,1.113,1.176c0.042,0.063,0.063,0.104,0.063,0.147
		c0,0.063-0.105,0.126-0.252,0.126h-2.436v2.016h0.713c0.357-0.378,0.463-0.483,0.778-0.882c0.504,0.462,0.65,0.608,1.113,1.092
		c0.063,0.063,0.083,0.126,0.083,0.168c0,0.063-0.083,0.105-0.231,0.105h-2.457v2.289H56.253z M56.212,53.813h-5.418
		c0,1.197,0,1.554,0,2.142h5.418V53.813z M54.343,61.772v-1.827h-1.827v1.827H54.343z M54.343,64.271v-2.016h-1.827v2.016H54.343z
		 M54.343,64.754h-1.827v2.289h1.827V64.754z M56.212,68.849c1.26-0.651,2.142-1.261,3.17-2.205c0.4-0.378,0.463-0.441,1.302-1.429
		c0.357,0.147,0.652,0.253,0.841,0.336c0.839,0.315,1.028,0.42,1.028,0.546c0,0.168-0.189,0.209-0.924,0.23
		c-2.646,1.848-3.107,2.1-5.271,2.793L56.212,68.849z M63.646,51.629c-0.841,1.659-0.882,1.764-1.554,2.751h2.792
		c0.357-0.421,0.463-0.547,0.841-0.945c0.524,0.42,0.693,0.546,1.176,0.945c0.167,0.104,0.23,0.209,0.23,0.293
		c0,0.126,0,0.126-0.65,0.483c0,0.693,0,1.113,0,1.553c0,0.421,0.042,6.237,0.063,7.813c-0.042,0.294-0.168,0.336-0.924,0.336
		c-0.356,0-0.419-0.042-0.461-0.23v-0.525h-4.852v0.651c-0.063,0.188-0.189,0.23-0.734,0.23c-0.127,0-0.211,0.021-0.274,0.021
		c-0.021,0-0.042,0-0.042,0c-0.209,0-0.293-0.063-0.315-0.273l0.022-1.743l0.021-3.528c0-4.473,0-4.872-0.063-5.921
		c0.63,0.357,0.819,0.462,1.386,0.84h1.26c0.042-0.315,0.063-0.462,0.105-0.651c0.272-1.365,0.272-1.365,0.335-2.1H59.95
		c-0.378,0-0.841,0.063-1.219,0.146l-0.126-0.84c0.42,0.146,0.882,0.21,1.345,0.21h4.808c0.442-0.63,0.589-0.798,1.093-1.344
		c0.839,0.609,1.091,0.798,1.912,1.491c0.063,0.084,0.104,0.126,0.104,0.167c0,0.084-0.104,0.169-0.231,0.169H63.646z
		 M65.158,54.863h-4.852v2.395h4.852V54.863z M60.306,57.74v2.604h4.852V57.74H60.306z M60.306,60.827v2.793h4.852v-2.793H60.306z
		 M63.352,65.027c1.786,0.693,3.023,1.26,3.633,1.701c0.315,0.252,0.567,0.693,0.567,1.029c0,0.63-0.231,1.218-0.461,1.218
		c-0.168,0-0.211-0.063-0.652-0.672c-0.126-0.167-1.112-1.26-1.364-1.512c-0.126-0.126-0.735-0.63-1.849-1.533L63.352,65.027z"/>
	<path d="M92.227,55.304c0.336-0.419,0.441-0.545,0.799-0.945c0.67,0.525,0.881,0.693,1.531,1.281
		c0.189,0.147,0.274,0.252,0.274,0.356c0,0.147-0.252,0.21-1.261,0.253c-1.071,1.301-1.805,1.994-3.129,2.981
		c1.113,0.567,2.058,0.924,3.297,1.281c1.849,0.525,3.234,0.734,5.25,0.84v0.315c-0.861,0.167-1.092,0.378-1.617,1.428
		c-1.322-0.315-1.89-0.505-3.338-1.029c0.461,0.462,0.482,0.462,0.881,0.84c0.127,0.146,0.189,0.231,0.189,0.315
		c0,0.021-0.043,0.083-0.063,0.104c-0.043,0.021-0.127,0.084-0.232,0.126c-0.041,0.021-0.125,0.063-0.209,0.105
		c0,0.966,0,0.966,0.021,2.751c0.022,1.155,0.022,1.155,0.042,2.247c0,0.042,0.021,0.105,0.021,0.126
		c0,0.147-0.063,0.231-0.21,0.273c-0.21,0.063-0.567,0.105-0.861,0.105c-0.315,0-0.378-0.063-0.378-0.357c0,0,0-0.021,0-0.042v-0.84
		h-7.918v0.735c0,0.357-0.188,0.462-0.839,0.462c-0.462,0-0.609-0.084-0.609-0.357v-0.042c0.022-0.734,0.022-0.734,0.022-1.806
		c0.02-0.567,0.02-0.567,0.041-1.911v-2.226c-1.555,0.567-2.352,0.819-3.928,1.113l-0.126-0.294
		c3.193-1.071,6.259-2.583,8.716-4.305c-0.882-0.714-1.912-1.701-2.541-2.479c-0.504,0.525-1.071,1.029-1.722,1.555
		c-1.471,1.176-2.436,1.764-3.718,2.247l-0.146-0.231c1.973-1.512,2.897-2.31,3.928-3.486c1.174-1.281,1.847-2.289,2.268-3.339
		c2.058,0.421,2.227,0.462,2.227,0.651c0,0.21-0.295,0.336-1.094,0.462c-0.252,0.357-0.357,0.504-0.523,0.735H92.227z
		 M88.614,52.637v-1.449c0-0.483-0.021-0.777-0.063-1.386c1.701,0.168,1.975,0.21,2.185,0.273c0.169,0.063,0.272,0.147,0.272,0.273
		c0,0.23-0.272,0.378-0.902,0.504v1.785h5.88c0.421-0.483,0.546-0.651,0.967-1.155l1.91,1.386c0.126,0.105,0.188,0.189,0.188,0.273
		c0,0.063-0.105,0.147-0.188,0.167c0,0-0.421,0.084-1.26,0.21c-1.302,1.491-1.365,1.554-2.038,2.058l-0.209-0.126
		c0.398-1.008,0.504-1.365,0.735-2.331H82.714c-0.126,1.05-0.315,1.786-0.63,2.353c-0.274,0.482-0.924,0.986-1.282,0.986
		c-0.126,0-0.356-0.167-0.461-0.356c-0.105-0.147-0.168-0.546-0.168-0.882c0-0.273,0-0.294,0.504-0.631
		c0.294-0.209,0.756-0.756,0.987-1.175c0.398-0.756,0.587-1.323,0.713-2.226h0.378c0.022,0.336,0.042,0.567,0.042,0.756
		c0,0.189-0.021,0.378-0.042,0.693H88.614z M93.066,62.738c0.357-0.315,0.357-0.315,0.84-0.714
		c-2.037-0.777-3.088-1.302-4.389-2.163c-1.407,0.924-2.772,1.617-4.662,2.436c0.189,0.147,0.252,0.21,0.461,0.441H93.066z
		 M85.316,67.336h7.918v-4.115h-7.918V67.336z M86.871,55.787c-0.209,0.252-0.272,0.336-0.482,0.567
		c0.525,0.672,1.596,1.491,2.94,2.268c1.134-0.902,1.805-1.575,2.792-2.834H86.871z"/>
	<path d="M111.924,59.693c-0.377,1.323-0.965,3.612-1.217,4.641c-0.211,0.925-0.273,1.261-0.273,1.785
		c-0.021,0.672-0.041,0.757-0.146,0.924c-0.105,0.147-0.232,0.231-0.398,0.231c-0.357,0-0.652-0.294-0.904-0.945
		c-0.42-1.07-0.672-2.667-0.672-4.221c0-1.932,0.23-3.696,0.944-6.993c0.274-1.302,0.316-1.533,0.316-1.89
		c0-0.63-0.169-1.134-0.609-1.848c0.483,0.021,0.882,0.293,1.47,1.049c0.482,0.609,0.756,1.198,0.756,1.596
		c0,0.231,0,0.231-0.336,0.924c-1.008,2.1-1.597,4.599-1.597,6.846c0,1.071,0.085,1.743,0.337,2.604l0.882-2.1l1.134-2.709
		L111.924,59.693z M114.025,55.892c1.008,0.651,1.658,0.861,2.708,0.861c0.735,0,1.534-0.105,2.394-0.295c0-0.399,0-0.734,0-0.923
		c0-2.353-0.021-2.625-0.293-2.919c-0.252-0.272-0.715-0.42-1.386-0.482c0.293-0.273,0.462-0.336,1.008-0.336
		c0.462,0,1.028,0.084,1.427,0.189c0.609,0.189,0.924,0.441,0.924,0.756c0,0.147,0,0.168-0.188,0.651
		c-0.229,0.609-0.356,1.365-0.44,2.813c0.967-0.273,1.574-0.545,1.932-0.86c0.209-0.21,0.272-0.231,0.461-0.231
		c0.254,0,0.736,0.126,0.988,0.273c0.168,0.084,0.273,0.23,0.273,0.378c0,0.462-1.533,1.092-3.718,1.512
		c0,2.793,0.063,3.948,0.274,5.712c2.436,0.651,3.464,1.47,3.464,2.688c0,0.441-0.188,0.777-0.421,0.777
		c-0.166,0-0.314-0.104-0.733-0.525c-0.925-0.945-1.45-1.323-2.269-1.679c0.021,0.188,0.021,0.356,0.021,0.504
		c0,1.512-1.262,2.415-3.36,2.415c-1.827,0-3.108-0.882-3.108-2.142c0-1.449,1.555-2.373,3.947-2.373c0.4,0,0.693,0.021,1.282,0.063
		c0-0.189,0-0.315,0-0.357l-0.042-2.247l-0.021-2.688c-0.629,0.126-1.238,0.168-1.848,0.168c-1.533,0-2.414-0.379-3.465-1.47
		L114.025,55.892z M117.237,63.557c-1.658,0-2.688,0.546-2.688,1.47c0,0.735,0.819,1.239,2.059,1.239
		c1.156,0,1.975-0.336,2.311-0.987c0.209-0.378,0.271-0.693,0.271-1.47C118.603,63.641,118.016,63.557,117.237,63.557z"/>
</g>
<rect x="0.25" y="48.899" fill="none" stroke="#008CD6" stroke-width="0.5" width="42" height="21"/>
<line fill="none" stroke="#008CD6" stroke-width="0.5" x1="21.25" y1="69.899" x2="21.25" y2="48.899"/>
<rect x="47.499" y="48.899" fill="none" stroke="#008CD6" stroke-width="0.5" width="21" height="21"/>
<rect x="78.999" y="48.899" fill="none" stroke="#008CD6" stroke-width="0.5" width="21" height="21"/>
<rect x="105.249" y="48.899" fill="none" stroke="#008CD6" stroke-width="0.5" width="21" height="21"/>
<g>
	<rect x="42.25" y="38.399" fill="none" stroke="#008CD6" stroke-width="0.5" width="63" height="10.5"/>
	<line fill="none" stroke="#008CD6" stroke-width="0.5" x1="52.75" y1="48.899" x2="52.75" y2="38.399"/>
	<line fill="none" stroke="#008CD6" stroke-width="0.5" x1="63.25" y1="48.899" x2="63.25" y2="38.399"/>
	<line fill="none" stroke="#008CD6" stroke-width="0.5" x1="73.75" y1="48.899" x2="73.75" y2="38.399"/>
	<line fill="none" stroke="#008CD6" stroke-width="0.5" x1="84.25" y1="48.899" x2="84.25" y2="38.399"/>
	<line fill="none" stroke="#008CD6" stroke-width="0.5" x1="94.75" y1="48.899" x2="94.75" y2="38.399"/>
</g>
</svg>
