<?xml version="1.0" encoding="utf-8"?>
<!-- Generator: Adobe Illustrator 12.0.0, SVG Export Plug-In . SVG Version: 6.00 Build 51448)  -->
<!DOCTYPE svg PUBLIC "-//W3C//DTD SVG 1.1//EN" "http://www.w3.org/Graphics/SVG/1.1/DTD/svg11.dtd" [
	<!ENTITY ns_svg "http://www.w3.org/2000/svg">
	<!ENTITY ns_xlink "http://www.w3.org/1999/xlink">
]>
<svg  version="1.1" id="レイヤー_1" xmlns="&ns_svg;" xmlns:xlink="&ns_xlink;" width="105.5" height="202.577"
	 viewBox="0 0 105.5 202.577" overflow="visible" enable-background="new 0 0 105.5 202.577" xml:space="preserve">
<g>
	<path d="M22.217,140.301c1.029-0.809,1.942-1.837,2.583-2.909c0.325-0.556,0.43-0.808,0.43-1.04c0-0.168-0.136-0.336-0.525-0.598
		c0.116-0.032,0.168-0.042,0.231-0.042c0.179,0,0.546,0.147,0.861,0.357c0.357,0.231,0.504,0.399,0.504,0.567
		c0,0.084-0.032,0.147-0.126,0.231c-0.2,0.168-0.2,0.168-0.441,0.483c-0.903,1.187-1.323,1.617-2.205,2.3
		c-0.462,0.357-0.756,0.535-1.229,0.766L22.217,140.301z M27.845,135.691c1.103,0.651,2.1,1.543,2.761,2.446
		c0.326,0.441,0.441,0.735,0.441,1.113c0,0.441-0.168,0.777-0.399,0.777c-0.147,0-0.199-0.063-0.346-0.483
		c-0.515-1.407-1.344-2.604-2.573-3.728L27.845,135.691z M28.916,134.326c0.609,0.263,1.05,0.494,1.344,0.725
		c0.273,0.221,0.367,0.389,0.367,0.662c0,0.294-0.094,0.483-0.241,0.483c-0.116,0-0.168-0.063-0.357-0.368
		c-0.368-0.598-0.599-0.851-1.197-1.365L28.916,134.326z M29.945,133.738c0.609,0.2,1.029,0.389,1.333,0.599
		c0.283,0.189,0.388,0.336,0.388,0.567c0,0.336-0.094,0.536-0.252,0.536c-0.073,0-0.136-0.053-0.231-0.189
		c-0.357-0.578-0.662-0.893-1.323-1.386L29.945,133.738z"/>
	<path d="M75.284,141.372c1.008-0.63,2.047-1.48,2.824-2.299c0.63-0.662,1.386-1.648,2.006-2.614
		c0.336-0.515,0.514-0.861,0.714-1.354c-0.504,0.031-1.061,0.147-2.215,0.462c-0.504,0.136-0.546,0.147-0.882,0.283
		c-0.052,0.021-0.115,0.032-0.178,0.032c-0.231,0-0.452-0.189-0.683-0.599c-0.147-0.242-0.221-0.462-0.221-0.63
		c0-0.063,0.021-0.116,0.074-0.21c0.305,0.546,0.525,0.704,0.987,0.704c0.347,0,1.407-0.137,2.205-0.294
		c0.609-0.115,0.798-0.178,0.987-0.294c0.116-0.073,0.168-0.094,0.242-0.094c0.221,0,0.819,0.535,0.819,0.735
		c0,0.074-0.042,0.137-0.136,0.2c-0.221,0.147-0.221,0.147-0.599,0.714c-0.504,0.756-0.504,0.756-1.323,1.827
		c1.48,0.777,2.31,1.313,2.719,1.774c0.284,0.304,0.399,0.609,0.399,1.04c0,0.336-0.105,0.546-0.283,0.546
		c-0.074,0-0.158-0.053-0.242-0.168c-0.042-0.053-0.042-0.053-0.252-0.42c-0.525-0.882-1.428-1.817-2.499-2.573
		c-0.851,1.029-1.533,1.669-2.541,2.363c-0.662,0.462-1.113,0.714-1.837,1.029L75.284,141.372z"/>
	<path d="M11.707,158.98c0,1.008,0.021,2.457,0.084,3.738c-0.063,0.315-0.231,0.378-0.924,0.378c-0.504,0-0.609-0.063-0.651-0.294
		c0.063-1.134,0.126-2.688,0.126-3.675v-1.932c-1.239,1.281-2.268,2.1-3.927,3.108c-1.554,0.924-2.73,1.449-4.557,2.037
		l-0.147-0.273c2.247-1.029,4.179-2.31,5.964-3.969c0.735-0.693,1.134-1.134,1.806-1.995H4.692c-0.462,0-1.176,0.021-1.827,0.084
		l-0.126-0.714c0.777,0.105,1.197,0.147,1.743,0.147h1.281v-3.297H3.706c-0.693,0-1.26,0.021-1.974,0.105l-0.147-0.777
		c1.134,0.168,1.407,0.189,2.121,0.189h2.058v-3.024H4.482c-0.294,0-1.197,0.042-1.659,0.084l-0.147-0.672
		c1.218,0.084,1.554,0.105,1.806,0.105h5.859v-2.289c-2.478,0.189-4.263,0.273-6.132,0.273c-0.252,0-0.504,0-0.924,0l-0.084-0.357
		c4.473-0.378,6.237-0.609,9.03-1.197c2.142-0.441,3.381-0.798,4.179-1.197c1.281,0.861,1.848,1.302,1.848,1.512
		c0,0.105-0.105,0.189-0.231,0.189c-0.105,0-0.252-0.042-0.882-0.252c-2.877,0.567-3.549,0.693-5.439,0.903v2.415h5.376
		c0.462-0.588,0.63-0.756,1.134-1.344c0.756,0.63,1.008,0.84,1.806,1.575c0.042,0.063,0.063,0.105,0.063,0.126
		c0,0.063-0.084,0.126-0.21,0.126h-3.465v3.024h1.596c0.567-0.567,0.756-0.756,1.344-1.302c0.84,0.651,1.092,0.84,1.848,1.512
		c0.042,0.063,0.084,0.105,0.084,0.126c0,0.084-0.084,0.147-0.189,0.147h-4.683v3.297h0.84c0.504-0.588,0.672-0.756,1.218-1.281
		c0.735,0.609,0.945,0.798,1.638,1.491c0.042,0.063,0.084,0.126,0.084,0.147c0,0.063-0.105,0.126-0.21,0.126h-8.022
		c2.163,2.499,5.208,3.948,9.282,4.389l-0.021,0.231c-0.861,0.294-1.155,0.63-1.26,1.428c-1.176-0.21-2.079-0.567-3.528-1.386
		c-1.953-1.092-3.192-2.184-4.725-4.179V158.98z M10.342,148.816H7.149v3.024h3.192V148.816z M10.342,152.324H7.149v3.297h3.192
		V152.324z M15.045,151.84v-3.024h-3.339v3.024H15.045z M15.045,155.621v-3.297h-3.339v3.297H15.045z"/>
	<path d="M22.438,154.108c2.331-1.617,4.032-3.234,5.922-5.607c0.987-1.239,1.89-2.604,2.31-3.465
		c0.147-0.315,0.231-0.546,0.378-1.029c0.483,0.084,0.84,0.168,1.071,0.21c1.155,0.231,1.407,0.315,1.407,0.504
		c0,0.168-0.252,0.294-0.819,0.399c1.029,1.722,2.436,3.192,4.326,4.557c1.785,1.281,3.486,2.079,5.439,2.604l-0.042,0.294
		c-0.882,0.105-1.218,0.399-1.659,1.386c-1.953-1.008-3.087-1.827-4.62-3.423c-1.554-1.575-2.247-2.541-3.759-5.208
		c-1.491,2.373-2.814,3.948-4.746,5.691c-1.68,1.491-3.045,2.436-4.977,3.402L22.438,154.108z M27.625,162.382
		c0,0.189-0.021,0.252-0.126,0.294c-0.189,0.063-0.672,0.126-1.092,0.126c-0.231,0-0.294-0.063-0.294-0.294
		c0.042-3.276,0.063-4.305,0.063-5.166c0-1.659-0.021-2.436-0.063-3.234c0.777,0.441,1.008,0.588,1.68,1.071h8.484
		c0.336-0.462,0.462-0.609,0.861-1.071c0.588,0.441,0.777,0.588,1.344,1.071c0.168,0.147,0.21,0.21,0.21,0.294
		c0,0.126-0.189,0.273-0.693,0.441c0,3.066,0,3.066,0.084,6.321c0,0.042,0,0.063,0,0.084c0,0.168-0.042,0.231-0.189,0.273
		c-0.147,0.063-0.84,0.147-1.071,0.147c-0.21,0-0.315-0.084-0.315-0.252c0-0.021,0-0.063,0-0.105V161.5h-8.883V162.382z
		 M27.604,151.441c0.609,0.105,1.113,0.168,1.554,0.168h4.389c0.483-0.525,0.63-0.714,1.113-1.26
		c0.756,0.588,1.008,0.756,1.764,1.386c0.105,0.105,0.168,0.189,0.168,0.252c0,0.084-0.042,0.105-0.273,0.105h-7.161
		c-0.399,0-0.714,0.021-1.386,0.126L27.604,151.441z M27.625,161.018h8.883v-5.355h-8.883V161.018z"/>
	<path d="M57.76,146.969c0.378-0.483,0.483-0.63,0.903-1.05c0.588,0.462,0.756,0.588,1.281,1.029c0.147,0.147,0.21,0.231,0.21,0.336
		c0,0.147-0.168,0.294-0.693,0.546v3.822c0,7.287,0,7.56,0.147,10.899c-0.021,0.189-0.063,0.252-0.21,0.294
		c-0.147,0.063-0.819,0.147-1.155,0.147c-0.168,0-0.231-0.063-0.231-0.252v-1.533h-9.786v1.344c0,0.021,0,0.063,0,0.063
		c0,0.147-0.063,0.231-0.21,0.273c-0.105,0.021-0.714,0.063-0.945,0.063c-0.294,0-0.399-0.063-0.399-0.252v-0.042
		c0.063-2.541,0.105-5.838,0.105-8.106c0-5.124-0.021-7.56-0.084-8.778c0.798,0.483,1.05,0.651,1.827,1.197h2.289
		c0.504-1.134,0.861-2.352,1.029-3.57c2.415,0.63,2.478,0.651,2.478,0.861c0,0.168-0.189,0.252-0.966,0.42
		c-0.231,0.273-0.399,0.504-0.504,0.63c-0.777,1.008-0.966,1.239-1.407,1.659H57.76z M58.012,151.315v-3.864h-9.786v3.864H58.012z
		 M48.226,151.798v4.095h9.786v-4.095H48.226z M48.226,156.376v4.347h9.786v-4.347H48.226z"/>
	<path d="M65.761,156.439c0.042-1.239,0.084-3.066,0.084-4.62c0-0.588,0-0.588-0.084-2.457c0.672,0.357,0.882,0.462,1.533,0.819
		h2.373v-1.68h-3.381c-0.42,0-0.756,0.021-1.449,0.105l-0.147-0.735c0.483,0.084,1.218,0.147,1.596,0.147h3.381v-1.722
		c-1.554,0.231-2.835,0.357-4.536,0.462l-0.042-0.294c1.512-0.231,3.297-0.63,5.145-1.155c1.743-0.483,2.646-0.84,3.465-1.302
		c0.525,0.273,1.071,0.588,1.407,0.777c0.42,0.252,0.441,0.273,0.441,0.378s-0.147,0.189-0.378,0.189
		c-0.105,0-0.315-0.021-0.882-0.063c-1.239,0.336-2.058,0.525-3.381,0.777v1.953h2.478c0.399-0.483,0.525-0.609,0.966-1.071
		c0.714,0.546,0.945,0.714,1.617,1.26c0.063,0.063,0.105,0.126,0.105,0.168c0,0.084-0.105,0.126-0.273,0.126h-4.893v1.68h2.457
		c0.315-0.357,0.42-0.462,0.735-0.819c0.441,0.336,0.588,0.462,1.029,0.819c0.168,0.147,0.231,0.21,0.231,0.273
		c0,0.105-0.021,0.126-0.546,0.504c-0.021,2.31-0.021,2.31-0.021,2.94c0,0.546,0.021,1.134,0.042,2.226
		c0,0.294-0.231,0.399-0.903,0.399c-0.252,0-0.399-0.084-0.399-0.252c0-0.021,0-0.042,0-0.063v-0.252h-2.625v2.079h2.016
		c0.441-0.462,0.588-0.609,0.987-1.05c0.672,0.525,0.882,0.693,1.533,1.218c0.063,0.084,0.084,0.126,0.084,0.168
		c0,0.084-0.084,0.147-0.189,0.147h-4.431v1.68c1.554-0.168,2.394-0.273,4.053-0.504L75,159.946
		c-2.541,0.672-3.57,0.903-4.746,1.155c-3.675,0.735-3.675,0.735-4.431,0.903c-0.147,0.567-0.231,0.756-0.378,0.756
		c-0.21,0-0.378-0.462-0.777-2.079c1.344-0.042,2.856-0.147,4.998-0.357v-1.806h-3.402c-0.441,0-0.693,0.021-1.197,0.105
		l-0.147-0.714c0.504,0.084,0.861,0.126,1.449,0.126h3.297v-2.079h-2.52v0.399c0,0.189-0.042,0.252-0.21,0.294
		c-0.105,0.042-0.546,0.084-0.798,0.084c-0.294,0-0.378-0.063-0.378-0.252V156.439z M69.667,150.665h-2.52v2.121h2.52V150.665z
		 M69.667,153.269h-2.52v2.205h2.52V153.269z M73.531,150.665h-2.625v2.121h2.625V150.665z M73.531,153.269h-2.625v2.205h2.625
		V153.269z M81.721,149.552c0.336-0.378,0.441-0.483,0.777-0.861c0.546,0.357,0.693,0.483,1.176,0.861
		c0.168,0.147,0.21,0.21,0.21,0.315s-0.147,0.231-0.63,0.651c-0.189,5.124-0.483,8.316-0.924,9.975
		c-0.273,1.029-0.504,1.428-1.071,1.764c-0.462,0.294-0.882,0.441-1.806,0.588c-0.294-0.756-0.315-0.819-0.609-0.966
		c-0.378-0.21-0.882-0.357-1.995-0.567v-0.294c1.134,0.084,2.625,0.168,3.024,0.168c0.609,0,0.882-0.147,1.008-0.546
		c0.546-1.617,0.882-5.313,0.987-10.605h-2.394c-0.21,3.402-0.672,5.859-1.47,7.644c-0.735,1.68-1.932,3.108-3.507,4.2
		c-0.777,0.567-1.323,0.84-2.541,1.302l-0.168-0.252c1.785-0.987,2.814-1.848,3.822-3.192c1.596-2.184,2.268-4.746,2.541-9.702
		h-1.113c-0.378,0-0.693,0.021-1.344,0.126l-0.21-0.756c0.714,0.105,1.197,0.147,1.701,0.147h0.987
		c0.063-1.134,0.084-2.037,0.084-2.877c0-1.029-0.021-1.407-0.084-2.31c1.596,0.105,2.31,0.231,2.31,0.441c0,0.021,0,0.021,0,0.021
		c-0.021,0.189-0.126,0.252-0.861,0.588c-0.042,2.016-0.042,2.499-0.126,4.137H81.721z"/>
	<path d="M95.791,156.125c0,0.441,0,0.441,0,1.68c0,0.084,0,0.084,0,0.693h5.985c0.588-0.714,0.777-0.924,1.386-1.617
		c0.882,0.735,1.134,0.987,1.953,1.806c0.063,0.063,0.084,0.126,0.084,0.189c0,0.042-0.084,0.105-0.168,0.105h-9.219
		c0.042,2.877,0.042,2.877,0.063,3.864c0,0.168-0.042,0.231-0.147,0.273c-0.126,0.021-0.777,0.084-1.176,0.084
		c-0.21,0-0.273-0.042-0.273-0.21c0.021-0.714,0.063-2.058,0.084-4.011h-6.3c-0.903,0-1.575,0.063-2.058,0.168l-0.105-0.84
		c0.672,0.147,1.239,0.189,2.163,0.189h6.3c0-0.903,0-0.903,0.021-2.373h-4.242v0.777c0,0.294-0.189,0.336-1.176,0.336
		c-0.252,0-0.357-0.063-0.357-0.252c0.084-1.638,0.105-2.457,0.105-4.326c0-2.037-0.021-2.961-0.105-4.242
		c0.693,0.399,0.924,0.504,1.575,0.924h4.2v-2.226h-6.321c-0.672,0-1.155,0.042-1.554,0.168l-0.084-0.819
		c0.504,0.126,0.924,0.168,1.638,0.168h6.321c-0.021-1.722-0.021-1.722-0.126-2.73c0.483,0.042,0.861,0.063,1.092,0.084
		c1.05,0.063,1.323,0.147,1.323,0.357c0,0.189-0.189,0.294-0.861,0.483c-0.021,0.924-0.021,1.071-0.021,1.806h5.67
		c0.504-0.651,0.651-0.84,1.218-1.47c0.882,0.714,1.155,0.924,1.974,1.68c0.084,0.084,0.105,0.126,0.105,0.168
		c0,0.063-0.063,0.105-0.189,0.105h-8.778v2.226h4.368c0.357-0.399,0.462-0.525,0.861-0.924c0.546,0.378,0.714,0.504,1.302,0.924
		c0.147,0.126,0.21,0.189,0.21,0.273c0,0.168-0.168,0.294-0.84,0.609c0,0.588,0,1.008,0,1.26c0,2.058,0.021,3.591,0.105,5.103
		c0,0.147-0.021,0.21-0.084,0.252c-0.126,0.084-0.546,0.147-1.134,0.147c-0.21,0-0.273-0.042-0.294-0.189v-0.672H95.791z
		 M94.384,151.483c0-0.21,0-0.672,0-1.659h-4.242v2.562h4.242V151.483z M94.384,152.87h-4.242v2.772h4.242V152.87z M100.285,149.825
		h-4.494v2.562h4.494V149.825z M100.285,152.87h-4.494v2.772h4.494V152.87z"/>
</g>
<g>
	<path d="M22.217,179.676c1.029-0.809,1.942-1.837,2.583-2.909c0.325-0.556,0.43-0.808,0.43-1.04c0-0.168-0.136-0.336-0.525-0.598
		c0.116-0.032,0.168-0.042,0.231-0.042c0.179,0,0.546,0.147,0.861,0.357c0.357,0.231,0.504,0.399,0.504,0.567
		c0,0.084-0.032,0.147-0.126,0.231c-0.2,0.168-0.2,0.168-0.441,0.483c-0.903,1.187-1.323,1.617-2.205,2.3
		c-0.462,0.357-0.756,0.535-1.229,0.766L22.217,179.676z M27.845,175.066c1.103,0.651,2.1,1.543,2.761,2.446
		c0.326,0.441,0.441,0.735,0.441,1.113c0,0.441-0.168,0.777-0.399,0.777c-0.147,0-0.199-0.063-0.346-0.483
		c-0.515-1.407-1.344-2.604-2.573-3.728L27.845,175.066z M28.916,173.701c0.609,0.263,1.05,0.494,1.344,0.725
		c0.273,0.221,0.367,0.389,0.367,0.662c0,0.294-0.094,0.483-0.241,0.483c-0.116,0-0.168-0.063-0.357-0.368
		c-0.368-0.598-0.599-0.851-1.197-1.365L28.916,173.701z M29.945,173.113c0.609,0.2,1.029,0.389,1.333,0.599
		c0.283,0.189,0.388,0.336,0.388,0.567c0,0.336-0.094,0.536-0.252,0.536c-0.073,0-0.136-0.053-0.231-0.189
		c-0.357-0.578-0.662-0.893-1.323-1.386L29.945,173.113z"/>
	<path d="M75.284,180.747c1.008-0.63,2.047-1.48,2.824-2.299c0.63-0.662,1.386-1.648,2.006-2.614
		c0.336-0.515,0.514-0.861,0.714-1.354c-0.504,0.031-1.061,0.147-2.215,0.462c-0.504,0.136-0.546,0.147-0.882,0.283
		c-0.052,0.021-0.115,0.032-0.178,0.032c-0.231,0-0.452-0.189-0.683-0.599c-0.147-0.242-0.221-0.462-0.221-0.63
		c0-0.063,0.021-0.116,0.074-0.21c0.305,0.546,0.525,0.704,0.987,0.704c0.347,0,1.407-0.137,2.205-0.294
		c0.609-0.115,0.798-0.178,0.987-0.294c0.116-0.073,0.168-0.094,0.242-0.094c0.221,0,0.819,0.535,0.819,0.735
		c0,0.074-0.042,0.137-0.136,0.2c-0.221,0.147-0.221,0.147-0.599,0.714c-0.504,0.756-0.504,0.756-1.323,1.827
		c1.48,0.777,2.31,1.313,2.719,1.774c0.284,0.304,0.399,0.609,0.399,1.04c0,0.336-0.105,0.546-0.283,0.546
		c-0.074,0-0.158-0.053-0.242-0.168c-0.042-0.053-0.042-0.053-0.252-0.42c-0.525-0.882-1.428-1.817-2.499-2.573
		c-0.851,1.029-1.533,1.669-2.541,2.363c-0.662,0.462-1.113,0.714-1.837,1.029L75.284,180.747z"/>
	<path d="M11.707,198.355c0,1.008,0.021,2.457,0.084,3.738c-0.063,0.315-0.231,0.378-0.924,0.378c-0.504,0-0.609-0.063-0.651-0.294
		c0.063-1.134,0.126-2.688,0.126-3.675v-1.932c-1.239,1.281-2.268,2.1-3.927,3.108c-1.554,0.924-2.73,1.449-4.557,2.037
		l-0.147-0.273c2.247-1.029,4.179-2.31,5.964-3.969c0.735-0.693,1.134-1.134,1.806-1.995H4.692c-0.462,0-1.176,0.021-1.827,0.084
		l-0.126-0.714c0.777,0.105,1.197,0.147,1.743,0.147h1.281v-3.297H3.706c-0.693,0-1.26,0.021-1.974,0.105l-0.147-0.777
		c1.134,0.168,1.407,0.189,2.121,0.189h2.058v-3.024H4.482c-0.294,0-1.197,0.042-1.659,0.084l-0.147-0.672
		c1.218,0.084,1.554,0.105,1.806,0.105h5.859v-2.289c-2.478,0.189-4.263,0.273-6.132,0.273c-0.252,0-0.504,0-0.924,0l-0.084-0.357
		c4.473-0.378,6.237-0.609,9.03-1.197c2.142-0.441,3.381-0.798,4.179-1.197c1.281,0.861,1.848,1.302,1.848,1.512
		c0,0.105-0.105,0.189-0.231,0.189c-0.105,0-0.252-0.042-0.882-0.252c-2.877,0.567-3.549,0.693-5.439,0.903v2.415h5.376
		c0.462-0.588,0.63-0.756,1.134-1.344c0.756,0.63,1.008,0.84,1.806,1.575c0.042,0.063,0.063,0.105,0.063,0.126
		c0,0.063-0.084,0.126-0.21,0.126h-3.465v3.024h1.596c0.567-0.567,0.756-0.756,1.344-1.302c0.84,0.651,1.092,0.84,1.848,1.512
		c0.042,0.063,0.084,0.105,0.084,0.126c0,0.084-0.084,0.147-0.189,0.147h-4.683v3.297h0.84c0.504-0.588,0.672-0.756,1.218-1.281
		c0.735,0.609,0.945,0.798,1.638,1.491c0.042,0.063,0.084,0.126,0.084,0.147c0,0.063-0.105,0.126-0.21,0.126h-8.022
		c2.163,2.499,5.208,3.948,9.282,4.389l-0.021,0.231c-0.861,0.294-1.155,0.63-1.26,1.428c-1.176-0.21-2.079-0.567-3.528-1.386
		c-1.953-1.092-3.192-2.184-4.725-4.179V198.355z M10.342,188.191H7.149v3.024h3.192V188.191z M10.342,191.699H7.149v3.297h3.192
		V191.699z M15.045,191.215v-3.024h-3.339v3.024H15.045z M15.045,194.996v-3.297h-3.339v3.297H15.045z"/>
	<path d="M22.438,193.483c2.331-1.617,4.032-3.234,5.922-5.607c0.987-1.239,1.89-2.604,2.31-3.465
		c0.147-0.315,0.231-0.546,0.378-1.029c0.483,0.084,0.84,0.168,1.071,0.21c1.155,0.231,1.407,0.315,1.407,0.504
		c0,0.168-0.252,0.294-0.819,0.399c1.029,1.722,2.436,3.192,4.326,4.557c1.785,1.281,3.486,2.079,5.439,2.604l-0.042,0.294
		c-0.882,0.105-1.218,0.399-1.659,1.386c-1.953-1.008-3.087-1.827-4.62-3.423c-1.554-1.575-2.247-2.541-3.759-5.208
		c-1.491,2.373-2.814,3.948-4.746,5.691c-1.68,1.491-3.045,2.436-4.977,3.402L22.438,193.483z M27.625,201.757
		c0,0.189-0.021,0.252-0.126,0.294c-0.189,0.063-0.672,0.126-1.092,0.126c-0.231,0-0.294-0.063-0.294-0.294
		c0.042-3.276,0.063-4.305,0.063-5.166c0-1.659-0.021-2.436-0.063-3.234c0.777,0.441,1.008,0.588,1.68,1.071h8.484
		c0.336-0.462,0.462-0.609,0.861-1.071c0.588,0.441,0.777,0.588,1.344,1.071c0.168,0.147,0.21,0.21,0.21,0.294
		c0,0.126-0.189,0.273-0.693,0.441c0,3.066,0,3.066,0.084,6.321c0,0.042,0,0.063,0,0.084c0,0.168-0.042,0.231-0.189,0.273
		c-0.147,0.063-0.84,0.147-1.071,0.147c-0.21,0-0.315-0.084-0.315-0.252c0-0.021,0-0.063,0-0.105v-0.882h-8.883V201.757z
		 M27.604,190.816c0.609,0.105,1.113,0.168,1.554,0.168h4.389c0.483-0.525,0.63-0.714,1.113-1.26
		c0.756,0.588,1.008,0.756,1.764,1.386c0.105,0.105,0.168,0.189,0.168,0.252c0,0.084-0.042,0.105-0.273,0.105h-7.161
		c-0.399,0-0.714,0.021-1.386,0.126L27.604,190.816z M27.625,200.393h8.883v-5.355h-8.883V200.393z"/>
	<path d="M57.76,186.344c0.378-0.483,0.483-0.63,0.903-1.05c0.588,0.462,0.756,0.588,1.281,1.029c0.147,0.147,0.21,0.231,0.21,0.336
		c0,0.147-0.168,0.294-0.693,0.546v3.822c0,7.287,0,7.56,0.147,10.899c-0.021,0.189-0.063,0.252-0.21,0.294
		c-0.147,0.063-0.819,0.147-1.155,0.147c-0.168,0-0.231-0.063-0.231-0.252v-1.533h-9.786v1.344c0,0.021,0,0.063,0,0.063
		c0,0.147-0.063,0.231-0.21,0.273c-0.105,0.021-0.714,0.063-0.945,0.063c-0.294,0-0.399-0.063-0.399-0.252v-0.042
		c0.063-2.541,0.105-5.838,0.105-8.106c0-5.124-0.021-7.56-0.084-8.778c0.798,0.483,1.05,0.651,1.827,1.197h2.289
		c0.504-1.134,0.861-2.352,1.029-3.57c2.415,0.63,2.478,0.651,2.478,0.861c0,0.168-0.189,0.252-0.966,0.42
		c-0.231,0.273-0.399,0.504-0.504,0.63c-0.777,1.008-0.966,1.239-1.407,1.659H57.76z M58.012,190.69v-3.864h-9.786v3.864H58.012z
		 M48.226,191.173v4.095h9.786v-4.095H48.226z M48.226,195.751v4.347h9.786v-4.347H48.226z"/>
	<path d="M65.761,195.814c0.042-1.239,0.084-3.066,0.084-4.62c0-0.588,0-0.588-0.084-2.457c0.672,0.357,0.882,0.462,1.533,0.819
		h2.373v-1.68h-3.381c-0.42,0-0.756,0.021-1.449,0.105l-0.147-0.735c0.483,0.084,1.218,0.147,1.596,0.147h3.381v-1.722
		c-1.554,0.231-2.835,0.357-4.536,0.462l-0.042-0.294c1.512-0.231,3.297-0.63,5.145-1.155c1.743-0.483,2.646-0.84,3.465-1.302
		c0.525,0.273,1.071,0.588,1.407,0.777c0.42,0.252,0.441,0.273,0.441,0.378s-0.147,0.189-0.378,0.189
		c-0.105,0-0.315-0.021-0.882-0.063c-1.239,0.336-2.058,0.525-3.381,0.777v1.953h2.478c0.399-0.483,0.525-0.609,0.966-1.071
		c0.714,0.546,0.945,0.714,1.617,1.26c0.063,0.063,0.105,0.126,0.105,0.168c0,0.084-0.105,0.126-0.273,0.126h-4.893v1.68h2.457
		c0.315-0.357,0.42-0.462,0.735-0.819c0.441,0.336,0.588,0.462,1.029,0.819c0.168,0.147,0.231,0.21,0.231,0.273
		c0,0.105-0.021,0.126-0.546,0.504c-0.021,2.31-0.021,2.31-0.021,2.94c0,0.546,0.021,1.134,0.042,2.226
		c0,0.294-0.231,0.399-0.903,0.399c-0.252,0-0.399-0.084-0.399-0.252c0-0.021,0-0.042,0-0.063v-0.252h-2.625v2.079h2.016
		c0.441-0.462,0.588-0.609,0.987-1.05c0.672,0.525,0.882,0.693,1.533,1.218c0.063,0.084,0.084,0.126,0.084,0.168
		c0,0.084-0.084,0.147-0.189,0.147h-4.431v1.68c1.554-0.168,2.394-0.273,4.053-0.504L75,199.321
		c-2.541,0.672-3.57,0.903-4.746,1.155c-3.675,0.735-3.675,0.735-4.431,0.903c-0.147,0.567-0.231,0.756-0.378,0.756
		c-0.21,0-0.378-0.462-0.777-2.079c1.344-0.042,2.856-0.147,4.998-0.357v-1.806h-3.402c-0.441,0-0.693,0.021-1.197,0.105
		l-0.147-0.714c0.504,0.084,0.861,0.126,1.449,0.126h3.297v-2.079h-2.52v0.399c0,0.189-0.042,0.252-0.21,0.294
		c-0.105,0.042-0.546,0.084-0.798,0.084c-0.294,0-0.378-0.063-0.378-0.252V195.814z M69.667,190.04h-2.52v2.121h2.52V190.04z
		 M69.667,192.644h-2.52v2.205h2.52V192.644z M73.531,190.04h-2.625v2.121h2.625V190.04z M73.531,192.644h-2.625v2.205h2.625
		V192.644z M81.721,188.927c0.336-0.378,0.441-0.483,0.777-0.861c0.546,0.357,0.693,0.483,1.176,0.861
		c0.168,0.147,0.21,0.21,0.21,0.315s-0.147,0.231-0.63,0.651c-0.189,5.124-0.483,8.316-0.924,9.975
		c-0.273,1.029-0.504,1.428-1.071,1.764c-0.462,0.294-0.882,0.441-1.806,0.588c-0.294-0.756-0.315-0.819-0.609-0.966
		c-0.378-0.21-0.882-0.357-1.995-0.567v-0.294c1.134,0.084,2.625,0.168,3.024,0.168c0.609,0,0.882-0.147,1.008-0.546
		c0.546-1.617,0.882-5.313,0.987-10.605h-2.394c-0.21,3.402-0.672,5.859-1.47,7.644c-0.735,1.68-1.932,3.108-3.507,4.2
		c-0.777,0.567-1.323,0.84-2.541,1.302l-0.168-0.252c1.785-0.987,2.814-1.848,3.822-3.192c1.596-2.184,2.268-4.746,2.541-9.702
		h-1.113c-0.378,0-0.693,0.021-1.344,0.126l-0.21-0.756c0.714,0.105,1.197,0.147,1.701,0.147h0.987
		c0.063-1.134,0.084-2.037,0.084-2.877c0-1.029-0.021-1.407-0.084-2.31c1.596,0.105,2.31,0.231,2.31,0.441c0,0.021,0,0.021,0,0.021
		c-0.021,0.189-0.126,0.252-0.861,0.588c-0.042,2.016-0.042,2.499-0.126,4.137H81.721z"/>
	<path d="M95.791,195.5c0,0.441,0,0.441,0,1.68c0,0.084,0,0.084,0,0.693h5.985c0.588-0.714,0.777-0.924,1.386-1.617
		c0.882,0.735,1.134,0.987,1.953,1.806c0.063,0.063,0.084,0.126,0.084,0.189c0,0.042-0.084,0.105-0.168,0.105h-9.219
		c0.042,2.877,0.042,2.877,0.063,3.864c0,0.168-0.042,0.231-0.147,0.273c-0.126,0.021-0.777,0.084-1.176,0.084
		c-0.21,0-0.273-0.042-0.273-0.21c0.021-0.714,0.063-2.058,0.084-4.011h-6.3c-0.903,0-1.575,0.063-2.058,0.168l-0.105-0.84
		c0.672,0.147,1.239,0.189,2.163,0.189h6.3c0-0.903,0-0.903,0.021-2.373h-4.242v0.777c0,0.294-0.189,0.336-1.176,0.336
		c-0.252,0-0.357-0.063-0.357-0.252c0.084-1.638,0.105-2.457,0.105-4.326c0-2.037-0.021-2.961-0.105-4.242
		c0.693,0.399,0.924,0.504,1.575,0.924h4.2v-2.226h-6.321c-0.672,0-1.155,0.042-1.554,0.168l-0.084-0.819
		c0.504,0.126,0.924,0.168,1.638,0.168h6.321c-0.021-1.722-0.021-1.722-0.126-2.73c0.483,0.042,0.861,0.063,1.092,0.084
		c1.05,0.063,1.323,0.147,1.323,0.357c0,0.189-0.189,0.294-0.861,0.483c-0.021,0.924-0.021,1.071-0.021,1.806h5.67
		c0.504-0.651,0.651-0.84,1.218-1.47c0.882,0.714,1.155,0.924,1.974,1.68c0.084,0.084,0.105,0.126,0.105,0.168
		c0,0.063-0.063,0.105-0.189,0.105h-8.778v2.226h4.368c0.357-0.399,0.462-0.525,0.861-0.924c0.546,0.378,0.714,0.504,1.302,0.924
		c0.147,0.126,0.21,0.189,0.21,0.273c0,0.168-0.168,0.294-0.84,0.609c0,0.588,0,1.008,0,1.26c0,2.058,0.021,3.591,0.105,5.103
		c0,0.147-0.021,0.21-0.084,0.252c-0.126,0.084-0.546,0.147-1.134,0.147c-0.21,0-0.273-0.042-0.294-0.189V195.5H95.791z
		 M94.384,190.858c0-0.21,0-0.672,0-1.659h-4.242v2.562h4.242V190.858z M94.384,192.245h-4.242v2.772h4.242V192.245z M100.285,189.2
		h-4.494v2.562h4.494V189.2z M100.285,192.245h-4.494v2.772h4.494V192.245z"/>
</g>
<rect x="0.25" y="142.958" fill="none" stroke="#008CD6" stroke-width="0.5" width="105" height="21"/>
<line fill="none" stroke="#008CD6" stroke-width="0.5" x1="21.25" y1="163.958" x2="21.25" y2="142.958"/>
<line fill="none" stroke="#008CD6" stroke-width="0.5" x1="42.25" y1="163.958" x2="42.25" y2="142.958"/>
<line fill="none" stroke="#008CD6" stroke-width="0.5" x1="63.25" y1="163.958" x2="63.25" y2="142.958"/>
<line fill="none" stroke="#008CD6" stroke-width="0.5" x1="84.25" y1="163.958" x2="84.25" y2="142.958"/>
<polyline fill="none" stroke="#008CD6" stroke-width="0.5" points="21.25,142.958 21.25,132.458 31.75,132.458 31.75,142.958 "/>
<polyline fill="none" stroke="#008CD6" stroke-width="0.5" points="73.559,142.958 73.559,132.458 84.059,132.458 84.059,142.958 
	"/>
<g>
	<path fill="#008CD6" d="M5.701,0.12c0.312,0.048,0.54,0.06,0.996,0.06h0.756c0.408,0,0.6-0.012,0.996-0.06
		C8.376,0.852,8.34,1.464,8.34,2.112v5.832c0,0.564,0.024,0.912,0.096,1.356h-1.14c0.072-0.42,0.096-0.804,0.096-1.356V0.996H6.745
		c-0.384,0-0.696,0.024-1.044,0.072V0.12z"/>
	<path fill="#008CD6" d="M17.101,0.18l-4.32,10.98h-0.9l4.332-10.98H17.101z"/>
	<path fill="#008CD6" d="M19.368,9.3c-0.756,0-0.936,0.012-1.32,0.06c0.132-0.948,0.168-1.128,0.348-1.584
		c0.3-0.756,0.804-1.416,1.56-2.064c0.42-0.36,0.444-0.372,1.836-1.32c1.188-0.804,1.584-1.332,1.584-2.064
		c0-0.912-0.768-1.5-1.992-1.5c-0.792,0-1.38,0.264-1.74,0.78c-0.228,0.324-0.336,0.612-0.42,1.212l-1.008-0.168
		c0.18-0.864,0.36-1.284,0.756-1.728C19.512,0.312,20.328,0,21.384,0c1.812,0,2.976,0.912,2.976,2.328
		c0,0.612-0.24,1.188-0.708,1.704c-0.36,0.408-0.672,0.636-2.04,1.548c-0.948,0.636-1.332,0.972-1.728,1.476
		c-0.372,0.492-0.54,0.816-0.684,1.392h3.828c0.6,0,1.008-0.024,1.464-0.084v1.008C24.012,9.324,23.616,9.3,23.016,9.3H19.368z"/>
	<path fill="#008CD6" d="M30.708,7.38c0.084,0.444,0.18,0.66,0.42,0.876c0.3,0.276,0.78,0.42,1.392,0.42
		c1.044,0,1.704-0.444,1.704-1.152c0-0.336-0.12-0.588-0.372-0.744c-0.288-0.18-0.528-0.252-1.416-0.432
		C31.476,6.144,31.068,6,30.66,5.724c-0.42-0.288-0.648-0.732-0.648-1.26c0-0.432,0.18-0.84,0.516-1.164
		c0.42-0.408,1.068-0.624,1.872-0.624c0.816,0,1.452,0.192,1.884,0.576c0.312,0.264,0.48,0.54,0.636,1.092L33.972,4.5
		c-0.072-0.324-0.132-0.468-0.3-0.636c-0.276-0.3-0.708-0.456-1.248-0.456c-0.876,0-1.5,0.444-1.5,1.08
		c0,0.276,0.144,0.516,0.408,0.66c0.276,0.156,0.588,0.252,1.332,0.408c1.164,0.264,1.548,0.408,1.908,0.684
		c0.372,0.3,0.576,0.756,0.576,1.248c0,1.2-1.02,1.944-2.664,1.944c-1.092,0-1.932-0.324-2.376-0.936
		c-0.18-0.252-0.264-0.456-0.384-0.948L30.708,7.38z"/>
	<path fill="#008CD6" d="M37.668,0.18v1.068h-1.164V0.18H37.668z M37.62,2.832c-0.06,0.42-0.084,0.756-0.084,1.356v3.756
		c0,0.552,0.024,0.888,0.084,1.356h-1.08c0.06-0.516,0.084-0.852,0.084-1.356V4.188c0-0.576-0.024-0.936-0.084-1.356H37.62z"/>
	<path fill="#008CD6" d="M43.884,3.516C43.584,3.84,43.38,4.092,43.08,4.5L40.5,7.944c-0.024,0.024-0.204,0.252-0.456,0.564
		c0.588-0.024,0.624-0.024,0.828-0.024h1.896c0.624,0,0.96-0.024,1.356-0.084v0.984C43.692,9.324,43.38,9.3,42.768,9.3h-2.544
		c-0.744,0-0.996,0.012-1.332,0.036V8.544c0.264-0.276,0.504-0.552,0.816-0.972l2.64-3.528c0.132-0.18,0.216-0.276,0.36-0.432
		c-0.324,0.024-0.432,0.024-0.6,0.024h-1.632c-0.504,0-0.888,0.024-1.344,0.084V2.748c0.468,0.06,0.816,0.084,1.344,0.084h2.136
		c0.744,0,0.936,0,1.272-0.036V3.516z"/>
	<path fill="#008CD6" d="M45.959,6.204c0.036,0.804,0.156,1.248,0.48,1.68C46.824,8.412,47.412,8.7,48.132,8.7
		c0.972,0,1.644-0.48,1.98-1.404l0.84,0.336c-0.228,0.504-0.384,0.72-0.66,0.996c-0.564,0.552-1.296,0.84-2.172,0.84
		c-1.884,0-3.072-1.32-3.072-3.396c0-2.052,1.176-3.396,2.976-3.396c1.548,0,2.664,0.996,2.904,2.604
		c0.012,0.132,0.06,0.6,0.084,0.924H45.959z M50.052,5.448c-0.072-0.672-0.252-1.104-0.636-1.476c-0.372-0.36-0.84-0.54-1.416-0.54
		c-0.732,0-1.344,0.372-1.704,1.044c-0.168,0.3-0.228,0.516-0.3,0.972H50.052z"/>
	<path fill="#008CD6" d="M56.1,6.072c0-2.076,1.248-3.396,3.204-3.396s3.192,1.32,3.192,3.384c0,2.052-1.248,3.396-3.18,3.396
		C57.348,9.456,56.1,8.148,56.1,6.072z M57.024,6.048c0,1.632,0.876,2.628,2.28,2.628c1.404,0,2.268-0.996,2.268-2.616
		s-0.864-2.628-2.244-2.628C57.9,3.432,57.024,4.428,57.024,6.048z"/>
	<path fill="#008CD6" d="M64.272,3.6c-0.42,0-0.72,0.024-1.092,0.072V2.76c0.324,0.048,0.612,0.072,1.092,0.072h0.492V2.124
		c0-0.732,0.096-1.116,0.372-1.464c0.288-0.372,0.84-0.588,1.512-0.588c0.468,0,0.84,0.072,1.272,0.24l-0.252,0.804
		c-0.324-0.192-0.624-0.276-0.996-0.276c-0.384,0-0.66,0.108-0.816,0.324c-0.132,0.192-0.18,0.444-0.18,1.008v0.66h0.6
		c0.516,0,0.828-0.012,1.272-0.072v0.912C67.14,3.612,66.864,3.6,66.276,3.6h-0.6v4.356c0,0.564,0.024,0.9,0.084,1.344h-1.08
		c0.06-0.444,0.084-0.852,0.084-1.356V3.6H64.272z"/>
	<path fill="#008CD6" d="M72.9,9.3c0.06-0.456,0.084-0.804,0.084-1.38V1.536c0-0.504-0.024-0.888-0.084-1.356h1.056
		c-0.06,0.444-0.084,0.792-0.084,1.368v1.62c0,0.324-0.012,0.54-0.048,0.852c0.564-0.888,1.38-1.32,2.472-1.32
		c1.848,0,2.952,1.248,2.952,3.336c0,2.112-1.128,3.384-3,3.384c-0.756,0-1.308-0.192-1.86-0.648
		c-0.264-0.204-0.372-0.336-0.564-0.624c0.024,0.228,0.036,0.324,0.036,0.48V9.3H72.9z M76.224,3.468
		c-1.416,0-2.352,1.032-2.352,2.568c0,1.548,0.936,2.604,2.316,2.604c1.344,0,2.136-0.972,2.136-2.616
		C78.324,4.404,77.556,3.468,76.224,3.468z"/>
	<path fill="#008CD6" d="M84.924,8.448c-0.468,0.42-0.696,0.576-1.104,0.732c-0.408,0.156-0.84,0.24-1.248,0.24
		c-1.32,0-2.124-0.684-2.124-1.824c0-0.96,0.6-1.656,1.716-1.968c0.708-0.204,1.284-0.276,2.76-0.312V4.62
		c0-0.816-0.516-1.236-1.512-1.236c-0.66,0-1.152,0.168-1.488,0.516c-0.156,0.168-0.252,0.336-0.372,0.696l-0.936-0.204
		c0.216-0.552,0.372-0.804,0.672-1.068C81.78,2.868,82.5,2.64,83.4,2.64c1.584,0,2.4,0.672,2.4,1.968V7.98
		c0,0.54,0.024,0.84,0.096,1.32h-0.972V8.448z M84.924,6.024c-1.428,0.036-2.112,0.12-2.652,0.348
		c-0.612,0.252-0.912,0.66-0.912,1.236c0,0.66,0.492,1.08,1.272,1.08c0.696,0,1.452-0.336,1.92-0.852
		c0.276-0.3,0.372-0.552,0.372-1.032V6.024z"/>
	<path fill="#008CD6" d="M88.188,7.38c0.084,0.444,0.18,0.66,0.42,0.876c0.3,0.276,0.78,0.42,1.392,0.42
		c1.044,0,1.704-0.444,1.704-1.152c0-0.336-0.12-0.588-0.372-0.744c-0.288-0.18-0.528-0.252-1.416-0.432
		C88.956,6.144,88.548,6,88.14,5.724c-0.42-0.288-0.648-0.732-0.648-1.26c0-0.432,0.18-0.84,0.516-1.164
		c0.42-0.408,1.068-0.624,1.872-0.624c0.816,0,1.452,0.192,1.884,0.576c0.312,0.264,0.48,0.54,0.636,1.092L91.452,4.5
		c-0.072-0.324-0.132-0.468-0.3-0.636c-0.276-0.3-0.708-0.456-1.248-0.456c-0.876,0-1.5,0.444-1.5,1.08
		c0,0.276,0.144,0.516,0.408,0.66C89.088,5.304,89.4,5.4,90.144,5.556c1.164,0.264,1.548,0.408,1.908,0.684
		c0.372,0.3,0.576,0.756,0.576,1.248c0,1.2-1.02,1.944-2.664,1.944c-1.092,0-1.932-0.324-2.376-0.936
		c-0.18-0.252-0.264-0.456-0.384-0.948L88.188,7.38z"/>
	<path fill="#008CD6" d="M94.607,6.204c0.036,0.804,0.156,1.248,0.48,1.68C95.472,8.412,96.06,8.7,96.78,8.7
		c0.972,0,1.644-0.48,1.98-1.404l0.84,0.336c-0.228,0.504-0.384,0.72-0.66,0.996c-0.564,0.552-1.296,0.84-2.172,0.84
		c-1.884,0-3.072-1.32-3.072-3.396c0-2.052,1.176-3.396,2.976-3.396c1.548,0,2.664,0.996,2.904,2.604
		c0.012,0.132,0.06,0.6,0.084,0.924H94.607z M98.7,5.448c-0.072-0.672-0.252-1.104-0.636-1.476c-0.372-0.36-0.84-0.54-1.416-0.54
		c-0.732,0-1.344,0.372-1.704,1.044c-0.168,0.3-0.228,0.516-0.3,0.972H98.7z"/>
</g>
<g>
	<path d="M11.717,29.299c1.029-0.809,1.942-1.837,2.583-2.909c0.325-0.556,0.43-0.808,0.43-1.04c0-0.168-0.136-0.336-0.525-0.598
		c0.116-0.032,0.168-0.042,0.231-0.042c0.179,0,0.546,0.147,0.861,0.357c0.357,0.231,0.504,0.399,0.504,0.567
		c0,0.084-0.032,0.147-0.126,0.231c-0.2,0.168-0.2,0.168-0.441,0.483c-0.903,1.187-1.323,1.617-2.205,2.3
		c-0.462,0.357-0.756,0.535-1.229,0.767L11.717,29.299z M17.345,24.69c1.103,0.651,2.1,1.543,2.761,2.446
		c0.326,0.441,0.441,0.735,0.441,1.113c0,0.441-0.168,0.777-0.399,0.777c-0.147,0-0.199-0.063-0.346-0.483
		c-0.515-1.407-1.344-2.604-2.573-3.728L17.345,24.69z M18.416,23.325c0.609,0.263,1.05,0.494,1.344,0.725
		c0.273,0.221,0.367,0.389,0.367,0.662c0,0.294-0.094,0.483-0.241,0.483c-0.116,0-0.168-0.063-0.357-0.368
		c-0.368-0.598-0.599-0.851-1.197-1.365L18.416,23.325z M19.445,22.737c0.609,0.2,1.029,0.389,1.333,0.599
		c0.283,0.189,0.388,0.336,0.388,0.567c0,0.336-0.094,0.536-0.252,0.536c-0.073,0-0.136-0.053-0.231-0.189
		c-0.357-0.578-0.662-0.893-1.323-1.386L19.445,22.737z"/>
	<path d="M85.784,30.37c1.008-0.63,2.047-1.48,2.824-2.299c0.63-0.662,1.386-1.648,2.006-2.614c0.336-0.515,0.514-0.861,0.714-1.354
		c-0.504,0.031-1.061,0.147-2.215,0.462c-0.504,0.136-0.546,0.147-0.882,0.283c-0.052,0.021-0.115,0.032-0.178,0.032
		c-0.231,0-0.452-0.189-0.683-0.599c-0.147-0.241-0.221-0.462-0.221-0.63c0-0.063,0.021-0.116,0.074-0.21
		c0.305,0.546,0.525,0.704,0.987,0.704c0.347,0,1.407-0.137,2.205-0.294c0.609-0.115,0.798-0.178,0.987-0.294
		c0.116-0.073,0.168-0.094,0.242-0.094c0.221,0,0.819,0.535,0.819,0.735c0,0.074-0.042,0.137-0.136,0.2
		c-0.221,0.147-0.221,0.147-0.599,0.714c-0.504,0.756-0.504,0.756-1.323,1.827c1.48,0.777,2.31,1.313,2.719,1.774
		c0.284,0.304,0.399,0.609,0.399,1.04c0,0.336-0.105,0.546-0.283,0.546c-0.074,0-0.158-0.053-0.242-0.168
		c-0.042-0.053-0.042-0.053-0.252-0.42c-0.525-0.882-1.428-1.817-2.499-2.573c-0.851,1.029-1.533,1.669-2.541,2.363
		c-0.662,0.462-1.113,0.714-1.837,1.029L85.784,30.37z"/>
	<path d="M11.707,47.979c0,1.008,0.021,2.457,0.084,3.738c-0.063,0.315-0.231,0.378-0.924,0.378c-0.504,0-0.609-0.063-0.651-0.294
		c0.063-1.134,0.126-2.688,0.126-3.675v-1.932c-1.239,1.281-2.268,2.1-3.927,3.108c-1.554,0.924-2.73,1.449-4.557,2.037L1.71,51.066
		c2.247-1.029,4.179-2.31,5.964-3.969c0.735-0.693,1.134-1.134,1.806-1.995H4.692c-0.462,0-1.176,0.021-1.827,0.084L2.74,44.472
		c0.777,0.105,1.197,0.147,1.743,0.147h1.281v-3.297H3.706c-0.693,0-1.26,0.021-1.974,0.105L1.584,40.65
		c1.134,0.168,1.407,0.189,2.121,0.189h2.058v-3.024H4.482c-0.294,0-1.197,0.042-1.659,0.084l-0.147-0.672
		c1.218,0.084,1.554,0.105,1.806,0.105h5.859v-2.289c-2.478,0.189-4.263,0.273-6.132,0.273c-0.252,0-0.504,0-0.924,0l-0.084-0.357
		c4.473-0.378,6.237-0.609,9.03-1.197c2.142-0.441,3.381-0.798,4.179-1.197c1.281,0.861,1.848,1.302,1.848,1.512
		c0,0.105-0.105,0.189-0.231,0.189c-0.105,0-0.252-0.042-0.882-0.252c-2.877,0.567-3.549,0.693-5.439,0.903v2.415h5.376
		c0.462-0.588,0.63-0.756,1.134-1.344c0.756,0.63,1.008,0.84,1.806,1.575c0.042,0.063,0.063,0.105,0.063,0.126
		c0,0.063-0.084,0.126-0.21,0.126h-3.465v3.024h1.596c0.567-0.567,0.756-0.756,1.344-1.302c0.84,0.651,1.092,0.84,1.848,1.512
		c0.042,0.063,0.084,0.105,0.084,0.126c0,0.084-0.084,0.147-0.189,0.147h-4.683v3.297h0.84c0.504-0.588,0.672-0.756,1.218-1.281
		c0.735,0.609,0.945,0.798,1.638,1.491c0.042,0.063,0.084,0.126,0.084,0.147c0,0.063-0.105,0.126-0.21,0.126h-8.022
		c2.163,2.499,5.208,3.948,9.282,4.389l-0.021,0.231c-0.861,0.294-1.155,0.63-1.26,1.428c-1.176-0.21-2.079-0.567-3.528-1.386
		c-1.953-1.092-3.192-2.184-4.725-4.179V47.979z M10.342,37.815H7.149v3.024h3.192V37.815z M10.342,41.322H7.149v3.297h3.192V41.322
		z M15.045,40.839v-3.024h-3.339v3.024H15.045z M15.045,44.619v-3.297h-3.339v3.297H15.045z"/>
	<path d="M22.438,43.107c2.331-1.617,4.032-3.234,5.922-5.607c0.987-1.239,1.89-2.604,2.31-3.465
		c0.147-0.315,0.231-0.546,0.378-1.029c0.483,0.084,0.84,0.168,1.071,0.21c1.155,0.231,1.407,0.315,1.407,0.504
		c0,0.168-0.252,0.294-0.819,0.399c1.029,1.722,2.436,3.192,4.326,4.557c1.785,1.281,3.486,2.079,5.439,2.604l-0.042,0.294
		c-0.882,0.105-1.218,0.399-1.659,1.386c-1.953-1.008-3.087-1.827-4.62-3.423c-1.554-1.575-2.247-2.541-3.759-5.208
		c-1.491,2.373-2.814,3.948-4.746,5.691c-1.68,1.491-3.045,2.436-4.977,3.402L22.438,43.107z M27.625,51.381
		c0,0.189-0.021,0.252-0.126,0.294c-0.189,0.063-0.672,0.126-1.092,0.126c-0.231,0-0.294-0.063-0.294-0.294
		c0.042-3.276,0.063-4.305,0.063-5.166c0-1.659-0.021-2.436-0.063-3.234c0.777,0.441,1.008,0.588,1.68,1.071h8.484
		c0.336-0.462,0.462-0.609,0.861-1.071c0.588,0.441,0.777,0.588,1.344,1.071c0.168,0.147,0.21,0.21,0.21,0.294
		c0,0.126-0.189,0.273-0.693,0.441c0,3.066,0,3.066,0.084,6.321c0,0.042,0,0.063,0,0.084c0,0.168-0.042,0.231-0.189,0.273
		c-0.147,0.063-0.84,0.147-1.071,0.147c-0.21,0-0.315-0.084-0.315-0.252c0-0.021,0-0.063,0-0.105v-0.882h-8.883V51.381z
		 M27.604,40.44c0.609,0.105,1.113,0.168,1.554,0.168h4.389c0.483-0.525,0.63-0.714,1.113-1.26c0.756,0.588,1.008,0.756,1.764,1.386
		c0.105,0.105,0.168,0.189,0.168,0.252c0,0.084-0.042,0.105-0.273,0.105h-7.161c-0.399,0-0.714,0.021-1.386,0.126L27.604,40.44z
		 M27.625,50.016h8.883v-5.355h-8.883V50.016z"/>
	<path d="M57.76,35.967c0.378-0.483,0.483-0.63,0.903-1.05c0.588,0.462,0.756,0.588,1.281,1.029c0.147,0.147,0.21,0.231,0.21,0.336
		c0,0.147-0.168,0.294-0.693,0.546v3.822c0,7.287,0,7.56,0.147,10.899c-0.021,0.189-0.063,0.252-0.21,0.294
		c-0.147,0.063-0.819,0.147-1.155,0.147c-0.168,0-0.231-0.063-0.231-0.252v-1.533h-9.786v1.344c0,0.021,0,0.063,0,0.063
		c0,0.147-0.063,0.231-0.21,0.273c-0.105,0.021-0.714,0.063-0.945,0.063c-0.294,0-0.399-0.063-0.399-0.252v-0.042
		c0.063-2.541,0.105-5.838,0.105-8.106c0-5.124-0.021-7.56-0.084-8.778c0.798,0.483,1.05,0.651,1.827,1.197h2.289
		c0.504-1.134,0.861-2.352,1.029-3.57c2.415,0.63,2.478,0.651,2.478,0.861c0,0.168-0.189,0.252-0.966,0.42
		c-0.231,0.273-0.399,0.504-0.504,0.63c-0.777,1.008-0.966,1.239-1.407,1.659H57.76z M58.012,40.314V36.45h-9.786v3.864H58.012z
		 M48.226,40.797v4.095h9.786v-4.095H48.226z M48.226,45.375v4.347h9.786v-4.347H48.226z"/>
	<path d="M65.761,45.438c0.042-1.239,0.084-3.066,0.084-4.62c0-0.588,0-0.588-0.084-2.457c0.672,0.357,0.882,0.462,1.533,0.819
		h2.373V37.5h-3.381c-0.42,0-0.756,0.021-1.449,0.105l-0.147-0.735c0.483,0.084,1.218,0.147,1.596,0.147h3.381v-1.722
		c-1.554,0.231-2.835,0.357-4.536,0.462l-0.042-0.294c1.512-0.231,3.297-0.63,5.145-1.155c1.743-0.483,2.646-0.84,3.465-1.302
		c0.525,0.273,1.071,0.588,1.407,0.777c0.42,0.252,0.441,0.273,0.441,0.378s-0.147,0.189-0.378,0.189
		c-0.105,0-0.315-0.021-0.882-0.063c-1.239,0.336-2.058,0.525-3.381,0.777v1.953h2.478c0.399-0.483,0.525-0.609,0.966-1.071
		c0.714,0.546,0.945,0.714,1.617,1.26c0.063,0.063,0.105,0.126,0.105,0.168c0,0.084-0.105,0.126-0.273,0.126h-4.893v1.68h2.457
		c0.315-0.357,0.42-0.462,0.735-0.819c0.441,0.336,0.588,0.462,1.029,0.819c0.168,0.147,0.231,0.21,0.231,0.273
		c0,0.105-0.021,0.126-0.546,0.504c-0.021,2.31-0.021,2.31-0.021,2.94c0,0.546,0.021,1.134,0.042,2.226
		c0,0.294-0.231,0.399-0.903,0.399c-0.252,0-0.399-0.084-0.399-0.252c0-0.021,0-0.042,0-0.063v-0.252h-2.625v2.079h2.016
		c0.441-0.462,0.588-0.609,0.987-1.05c0.672,0.525,0.882,0.693,1.533,1.218c0.063,0.084,0.084,0.126,0.084,0.168
		c0,0.084-0.084,0.147-0.189,0.147h-4.431v1.68c1.554-0.168,2.394-0.273,4.053-0.504L75,48.945c-2.541,0.672-3.57,0.903-4.746,1.155
		c-3.675,0.735-3.675,0.735-4.431,0.903c-0.147,0.567-0.231,0.756-0.378,0.756c-0.21,0-0.378-0.462-0.777-2.079
		c1.344-0.042,2.856-0.147,4.998-0.357v-1.806h-3.402c-0.441,0-0.693,0.021-1.197,0.105l-0.147-0.714
		c0.504,0.084,0.861,0.126,1.449,0.126h3.297v-2.079h-2.52v0.399c0,0.189-0.042,0.252-0.21,0.294
		c-0.105,0.042-0.546,0.084-0.798,0.084c-0.294,0-0.378-0.063-0.378-0.252V45.438z M69.667,39.663h-2.52v2.121h2.52V39.663z
		 M69.667,42.267h-2.52v2.205h2.52V42.267z M73.531,39.663h-2.625v2.121h2.625V39.663z M73.531,42.267h-2.625v2.205h2.625V42.267z
		 M81.721,38.55c0.336-0.378,0.441-0.483,0.777-0.861c0.546,0.357,0.693,0.483,1.176,0.861c0.168,0.147,0.21,0.21,0.21,0.315
		s-0.147,0.231-0.63,0.651c-0.189,5.124-0.483,8.316-0.924,9.975c-0.273,1.029-0.504,1.428-1.071,1.764
		c-0.462,0.294-0.882,0.441-1.806,0.588c-0.294-0.756-0.315-0.819-0.609-0.966c-0.378-0.21-0.882-0.357-1.995-0.567v-0.294
		c1.134,0.084,2.625,0.168,3.024,0.168c0.609,0,0.882-0.147,1.008-0.546c0.546-1.617,0.882-5.313,0.987-10.605h-2.394
		c-0.21,3.402-0.672,5.859-1.47,7.644c-0.735,1.68-1.932,3.108-3.507,4.2c-0.777,0.567-1.323,0.84-2.541,1.302l-0.168-0.252
		c1.785-0.987,2.814-1.848,3.822-3.192c1.596-2.184,2.268-4.746,2.541-9.702h-1.113c-0.378,0-0.693,0.021-1.344,0.126l-0.21-0.756
		c0.714,0.105,1.197,0.147,1.701,0.147h0.987c0.063-1.134,0.084-2.037,0.084-2.877c0-1.029-0.021-1.407-0.084-2.31
		c1.596,0.105,2.31,0.231,2.31,0.441c0,0.021,0,0.021,0,0.021c-0.021,0.189-0.126,0.252-0.861,0.588
		c-0.042,2.016-0.042,2.499-0.126,4.137H81.721z"/>
	<path d="M95.791,45.123c0,0.441,0,0.441,0,1.68c0,0.084,0,0.084,0,0.693h5.985c0.588-0.714,0.777-0.924,1.386-1.617
		c0.882,0.735,1.134,0.987,1.953,1.806c0.063,0.063,0.084,0.126,0.084,0.189c0,0.042-0.084,0.105-0.168,0.105h-9.219
		c0.042,2.877,0.042,2.877,0.063,3.864c0,0.168-0.042,0.231-0.147,0.273c-0.126,0.021-0.777,0.084-1.176,0.084
		c-0.21,0-0.273-0.042-0.273-0.21c0.021-0.714,0.063-2.058,0.084-4.011h-6.3c-0.903,0-1.575,0.063-2.058,0.168l-0.105-0.84
		c0.672,0.147,1.239,0.189,2.163,0.189h6.3c0-0.903,0-0.903,0.021-2.373h-4.242V45.9c0,0.294-0.189,0.336-1.176,0.336
		c-0.252,0-0.357-0.063-0.357-0.252c0.084-1.638,0.105-2.457,0.105-4.326c0-2.037-0.021-2.961-0.105-4.242
		c0.693,0.399,0.924,0.504,1.575,0.924h4.2v-2.226h-6.321c-0.672,0-1.155,0.042-1.554,0.168l-0.084-0.819
		c0.504,0.126,0.924,0.168,1.638,0.168h6.321c-0.021-1.722-0.021-1.722-0.126-2.73c0.483,0.042,0.861,0.063,1.092,0.084
		c1.05,0.063,1.323,0.147,1.323,0.357c0,0.189-0.189,0.294-0.861,0.483c-0.021,0.924-0.021,1.071-0.021,1.806h5.67
		c0.504-0.651,0.651-0.84,1.218-1.47c0.882,0.714,1.155,0.924,1.974,1.68c0.084,0.084,0.105,0.126,0.105,0.168
		c0,0.063-0.063,0.105-0.189,0.105h-8.778v2.226h4.368c0.357-0.399,0.462-0.525,0.861-0.924c0.546,0.378,0.714,0.504,1.302,0.924
		c0.147,0.126,0.21,0.189,0.21,0.273c0,0.168-0.168,0.294-0.84,0.609c0,0.588,0,1.008,0,1.26c0,2.058,0.021,3.591,0.105,5.103
		c0,0.147-0.021,0.21-0.084,0.252c-0.126,0.084-0.546,0.147-1.134,0.147c-0.21,0-0.273-0.042-0.294-0.189v-0.672H95.791z
		 M94.384,40.482c0-0.21,0-0.672,0-1.659h-4.242v2.562h4.242V40.482z M94.384,41.868h-4.242v2.772h4.242V41.868z M100.285,38.823
		h-4.494v2.562h4.494V38.823z M100.285,41.868h-4.494v2.772h4.494V41.868z"/>
</g>
<g>
	<path d="M11.717,68.674c1.029-0.809,1.942-1.837,2.583-2.909c0.325-0.556,0.43-0.808,0.43-1.04c0-0.168-0.136-0.336-0.525-0.598
		c0.116-0.032,0.168-0.042,0.231-0.042c0.179,0,0.546,0.147,0.861,0.357c0.357,0.231,0.504,0.399,0.504,0.567
		c0,0.084-0.032,0.147-0.126,0.231c-0.2,0.168-0.2,0.168-0.441,0.483c-0.903,1.187-1.323,1.617-2.205,2.3
		c-0.462,0.357-0.756,0.535-1.229,0.767L11.717,68.674z M17.345,64.065c1.103,0.651,2.1,1.543,2.761,2.446
		c0.326,0.441,0.441,0.735,0.441,1.113c0,0.441-0.168,0.777-0.399,0.777c-0.147,0-0.199-0.063-0.346-0.483
		c-0.515-1.407-1.344-2.604-2.573-3.728L17.345,64.065z M18.416,62.7c0.609,0.263,1.05,0.494,1.344,0.725
		c0.273,0.221,0.367,0.389,0.367,0.662c0,0.294-0.094,0.483-0.241,0.483c-0.116,0-0.168-0.063-0.357-0.368
		c-0.368-0.598-0.599-0.851-1.197-1.365L18.416,62.7z M19.445,62.112c0.609,0.2,1.029,0.389,1.333,0.599
		c0.283,0.189,0.388,0.336,0.388,0.567c0,0.336-0.094,0.536-0.252,0.536c-0.073,0-0.136-0.053-0.231-0.189
		c-0.357-0.578-0.662-0.893-1.323-1.386L19.445,62.112z"/>
	<path d="M85.784,69.745c1.008-0.63,2.047-1.48,2.824-2.299c0.63-0.662,1.386-1.648,2.006-2.614
		c0.336-0.515,0.514-0.861,0.714-1.354c-0.504,0.031-1.061,0.147-2.215,0.462c-0.504,0.136-0.546,0.147-0.882,0.283
		c-0.052,0.021-0.115,0.032-0.178,0.032c-0.231,0-0.452-0.189-0.683-0.599c-0.147-0.241-0.221-0.462-0.221-0.63
		c0-0.063,0.021-0.116,0.074-0.21c0.305,0.546,0.525,0.704,0.987,0.704c0.347,0,1.407-0.137,2.205-0.294
		c0.609-0.115,0.798-0.178,0.987-0.294c0.116-0.073,0.168-0.094,0.242-0.094c0.221,0,0.819,0.535,0.819,0.735
		c0,0.074-0.042,0.137-0.136,0.2c-0.221,0.147-0.221,0.147-0.599,0.714c-0.504,0.756-0.504,0.756-1.323,1.827
		c1.48,0.777,2.31,1.313,2.719,1.774c0.284,0.304,0.399,0.609,0.399,1.04c0,0.336-0.105,0.546-0.283,0.546
		c-0.074,0-0.158-0.053-0.242-0.168c-0.042-0.053-0.042-0.053-0.252-0.42c-0.525-0.882-1.428-1.817-2.499-2.573
		c-0.851,1.029-1.533,1.669-2.541,2.363c-0.662,0.462-1.113,0.714-1.837,1.029L85.784,69.745z"/>
	<path d="M11.707,87.354c0,1.008,0.021,2.457,0.084,3.738c-0.063,0.315-0.231,0.378-0.924,0.378c-0.504,0-0.609-0.063-0.651-0.294
		c0.063-1.134,0.126-2.688,0.126-3.675v-1.932c-1.239,1.281-2.268,2.1-3.927,3.108c-1.554,0.924-2.73,1.449-4.557,2.037L1.71,90.441
		c2.247-1.029,4.179-2.31,5.964-3.969c0.735-0.693,1.134-1.134,1.806-1.995H4.692c-0.462,0-1.176,0.021-1.827,0.084L2.74,83.847
		c0.777,0.105,1.197,0.147,1.743,0.147h1.281v-3.297H3.706c-0.693,0-1.26,0.021-1.974,0.105l-0.147-0.777
		c1.134,0.168,1.407,0.189,2.121,0.189h2.058V77.19H4.482c-0.294,0-1.197,0.042-1.659,0.084l-0.147-0.672
		c1.218,0.084,1.554,0.105,1.806,0.105h5.859v-2.289c-2.478,0.189-4.263,0.273-6.132,0.273c-0.252,0-0.504,0-0.924,0l-0.084-0.357
		c4.473-0.378,6.237-0.609,9.03-1.197c2.142-0.441,3.381-0.798,4.179-1.197c1.281,0.861,1.848,1.302,1.848,1.512
		c0,0.105-0.105,0.189-0.231,0.189c-0.105,0-0.252-0.042-0.882-0.252c-2.877,0.567-3.549,0.693-5.439,0.903v2.415h5.376
		c0.462-0.588,0.63-0.756,1.134-1.344c0.756,0.63,1.008,0.84,1.806,1.575c0.042,0.063,0.063,0.105,0.063,0.126
		c0,0.063-0.084,0.126-0.21,0.126h-3.465v3.024h1.596c0.567-0.567,0.756-0.756,1.344-1.302c0.84,0.651,1.092,0.84,1.848,1.512
		c0.042,0.063,0.084,0.105,0.084,0.126c0,0.084-0.084,0.147-0.189,0.147h-4.683v3.297h0.84c0.504-0.588,0.672-0.756,1.218-1.281
		c0.735,0.609,0.945,0.798,1.638,1.491c0.042,0.063,0.084,0.126,0.084,0.147c0,0.063-0.105,0.126-0.21,0.126h-8.022
		c2.163,2.499,5.208,3.948,9.282,4.389l-0.021,0.231c-0.861,0.294-1.155,0.63-1.26,1.428c-1.176-0.21-2.079-0.567-3.528-1.386
		c-1.953-1.092-3.192-2.184-4.725-4.179V87.354z M10.342,77.19H7.149v3.024h3.192V77.19z M10.342,80.697H7.149v3.297h3.192V80.697z
		 M15.045,80.214V77.19h-3.339v3.024H15.045z M15.045,83.994v-3.297h-3.339v3.297H15.045z"/>
	<path d="M22.438,82.482c2.331-1.617,4.032-3.234,5.922-5.607c0.987-1.239,1.89-2.604,2.31-3.465
		c0.147-0.315,0.231-0.546,0.378-1.029c0.483,0.084,0.84,0.168,1.071,0.21c1.155,0.231,1.407,0.315,1.407,0.504
		c0,0.168-0.252,0.294-0.819,0.399c1.029,1.722,2.436,3.192,4.326,4.557c1.785,1.281,3.486,2.079,5.439,2.604l-0.042,0.294
		c-0.882,0.105-1.218,0.399-1.659,1.386c-1.953-1.008-3.087-1.827-4.62-3.423c-1.554-1.575-2.247-2.541-3.759-5.208
		c-1.491,2.373-2.814,3.948-4.746,5.691c-1.68,1.491-3.045,2.436-4.977,3.402L22.438,82.482z M27.625,90.756
		c0,0.189-0.021,0.252-0.126,0.294c-0.189,0.063-0.672,0.126-1.092,0.126c-0.231,0-0.294-0.063-0.294-0.294
		c0.042-3.276,0.063-4.305,0.063-5.166c0-1.659-0.021-2.436-0.063-3.234c0.777,0.441,1.008,0.588,1.68,1.071h8.484
		c0.336-0.462,0.462-0.609,0.861-1.071c0.588,0.441,0.777,0.588,1.344,1.071c0.168,0.147,0.21,0.21,0.21,0.294
		c0,0.126-0.189,0.273-0.693,0.441c0,3.066,0,3.066,0.084,6.321c0,0.042,0,0.063,0,0.084c0,0.168-0.042,0.231-0.189,0.273
		c-0.147,0.063-0.84,0.147-1.071,0.147c-0.21,0-0.315-0.084-0.315-0.252c0-0.021,0-0.063,0-0.105v-0.882h-8.883V90.756z
		 M27.604,79.815c0.609,0.105,1.113,0.168,1.554,0.168h4.389c0.483-0.525,0.63-0.714,1.113-1.26
		c0.756,0.588,1.008,0.756,1.764,1.386c0.105,0.105,0.168,0.189,0.168,0.252c0,0.084-0.042,0.105-0.273,0.105h-7.161
		c-0.399,0-0.714,0.021-1.386,0.126L27.604,79.815z M27.625,89.391h8.883v-5.355h-8.883V89.391z"/>
	<path d="M57.76,75.342c0.378-0.483,0.483-0.63,0.903-1.05c0.588,0.462,0.756,0.588,1.281,1.029c0.147,0.147,0.21,0.231,0.21,0.336
		c0,0.147-0.168,0.294-0.693,0.546v3.822c0,7.287,0,7.56,0.147,10.899c-0.021,0.189-0.063,0.252-0.21,0.294
		c-0.147,0.063-0.819,0.147-1.155,0.147c-0.168,0-0.231-0.063-0.231-0.252V89.58h-9.786v1.344c0,0.021,0,0.063,0,0.063
		c0,0.147-0.063,0.231-0.21,0.273c-0.105,0.021-0.714,0.063-0.945,0.063c-0.294,0-0.399-0.063-0.399-0.252v-0.042
		c0.063-2.541,0.105-5.838,0.105-8.106c0-5.124-0.021-7.56-0.084-8.778c0.798,0.483,1.05,0.651,1.827,1.197h2.289
		c0.504-1.134,0.861-2.352,1.029-3.57c2.415,0.63,2.478,0.651,2.478,0.861c0,0.168-0.189,0.252-0.966,0.42
		c-0.231,0.273-0.399,0.504-0.504,0.63c-0.777,1.008-0.966,1.239-1.407,1.659H57.76z M58.012,79.689v-3.864h-9.786v3.864H58.012z
		 M48.226,80.172v4.095h9.786v-4.095H48.226z M48.226,84.75v4.347h9.786V84.75H48.226z"/>
	<path d="M65.761,84.813c0.042-1.239,0.084-3.066,0.084-4.62c0-0.588,0-0.588-0.084-2.457c0.672,0.357,0.882,0.462,1.533,0.819
		h2.373v-1.68h-3.381c-0.42,0-0.756,0.021-1.449,0.105l-0.147-0.735c0.483,0.084,1.218,0.147,1.596,0.147h3.381V74.67
		c-1.554,0.231-2.835,0.357-4.536,0.462l-0.042-0.294c1.512-0.231,3.297-0.63,5.145-1.155c1.743-0.483,2.646-0.84,3.465-1.302
		c0.525,0.273,1.071,0.588,1.407,0.777c0.42,0.252,0.441,0.273,0.441,0.378s-0.147,0.189-0.378,0.189
		c-0.105,0-0.315-0.021-0.882-0.063c-1.239,0.336-2.058,0.525-3.381,0.777v1.953h2.478c0.399-0.483,0.525-0.609,0.966-1.071
		c0.714,0.546,0.945,0.714,1.617,1.26c0.063,0.063,0.105,0.126,0.105,0.168c0,0.084-0.105,0.126-0.273,0.126h-4.893v1.68h2.457
		c0.315-0.357,0.42-0.462,0.735-0.819c0.441,0.336,0.588,0.462,1.029,0.819c0.168,0.147,0.231,0.21,0.231,0.273
		c0,0.105-0.021,0.126-0.546,0.504c-0.021,2.31-0.021,2.31-0.021,2.94c0,0.546,0.021,1.134,0.042,2.226
		c0,0.294-0.231,0.399-0.903,0.399c-0.252,0-0.399-0.084-0.399-0.252c0-0.021,0-0.042,0-0.063V84.33h-2.625v2.079h2.016
		c0.441-0.462,0.588-0.609,0.987-1.05c0.672,0.525,0.882,0.693,1.533,1.218c0.063,0.084,0.084,0.126,0.084,0.168
		c0,0.084-0.084,0.147-0.189,0.147h-4.431v1.68c1.554-0.168,2.394-0.273,4.053-0.504L75,88.32c-2.541,0.672-3.57,0.903-4.746,1.155
		c-3.675,0.735-3.675,0.735-4.431,0.903c-0.147,0.567-0.231,0.756-0.378,0.756c-0.21,0-0.378-0.462-0.777-2.079
		c1.344-0.042,2.856-0.147,4.998-0.357v-1.806h-3.402c-0.441,0-0.693,0.021-1.197,0.105l-0.147-0.714
		c0.504,0.084,0.861,0.126,1.449,0.126h3.297V84.33h-2.52v0.399c0,0.189-0.042,0.252-0.21,0.294
		c-0.105,0.042-0.546,0.084-0.798,0.084c-0.294,0-0.378-0.063-0.378-0.252V84.813z M69.667,79.038h-2.52v2.121h2.52V79.038z
		 M69.667,81.642h-2.52v2.205h2.52V81.642z M73.531,79.038h-2.625v2.121h2.625V79.038z M73.531,81.642h-2.625v2.205h2.625V81.642z
		 M81.721,77.925c0.336-0.378,0.441-0.483,0.777-0.861c0.546,0.357,0.693,0.483,1.176,0.861c0.168,0.147,0.21,0.21,0.21,0.315
		s-0.147,0.231-0.63,0.651c-0.189,5.124-0.483,8.316-0.924,9.975c-0.273,1.029-0.504,1.428-1.071,1.764
		c-0.462,0.294-0.882,0.441-1.806,0.588c-0.294-0.756-0.315-0.819-0.609-0.966c-0.378-0.21-0.882-0.357-1.995-0.567v-0.294
		c1.134,0.084,2.625,0.168,3.024,0.168c0.609,0,0.882-0.147,1.008-0.546c0.546-1.617,0.882-5.313,0.987-10.605h-2.394
		c-0.21,3.402-0.672,5.859-1.47,7.644c-0.735,1.68-1.932,3.108-3.507,4.2c-0.777,0.567-1.323,0.84-2.541,1.302l-0.168-0.252
		c1.785-0.987,2.814-1.848,3.822-3.192c1.596-2.184,2.268-4.746,2.541-9.702h-1.113c-0.378,0-0.693,0.021-1.344,0.126l-0.21-0.756
		c0.714,0.105,1.197,0.147,1.701,0.147h0.987c0.063-1.134,0.084-2.037,0.084-2.877c0-1.029-0.021-1.407-0.084-2.31
		c1.596,0.105,2.31,0.231,2.31,0.441c0,0.021,0,0.021,0,0.021c-0.021,0.189-0.126,0.252-0.861,0.588
		c-0.042,2.016-0.042,2.499-0.126,4.137H81.721z"/>
	<path d="M95.791,84.498c0,0.441,0,0.441,0,1.68c0,0.084,0,0.084,0,0.693h5.985c0.588-0.714,0.777-0.924,1.386-1.617
		c0.882,0.735,1.134,0.987,1.953,1.806c0.063,0.063,0.084,0.126,0.084,0.189c0,0.042-0.084,0.105-0.168,0.105h-9.219
		c0.042,2.877,0.042,2.877,0.063,3.864c0,0.168-0.042,0.231-0.147,0.273c-0.126,0.021-0.777,0.084-1.176,0.084
		c-0.21,0-0.273-0.042-0.273-0.21c0.021-0.714,0.063-2.058,0.084-4.011h-6.3c-0.903,0-1.575,0.063-2.058,0.168l-0.105-0.84
		c0.672,0.147,1.239,0.189,2.163,0.189h6.3c0-0.903,0-0.903,0.021-2.373h-4.242v0.777c0,0.294-0.189,0.336-1.176,0.336
		c-0.252,0-0.357-0.063-0.357-0.252c0.084-1.638,0.105-2.457,0.105-4.326c0-2.037-0.021-2.961-0.105-4.242
		c0.693,0.399,0.924,0.504,1.575,0.924h4.2v-2.226h-6.321c-0.672,0-1.155,0.042-1.554,0.168l-0.084-0.819
		c0.504,0.126,0.924,0.168,1.638,0.168h6.321c-0.021-1.722-0.021-1.722-0.126-2.73c0.483,0.042,0.861,0.063,1.092,0.084
		c1.05,0.063,1.323,0.147,1.323,0.357c0,0.189-0.189,0.294-0.861,0.483c-0.021,0.924-0.021,1.071-0.021,1.806h5.67
		c0.504-0.651,0.651-0.84,1.218-1.47c0.882,0.714,1.155,0.924,1.974,1.68c0.084,0.084,0.105,0.126,0.105,0.168
		c0,0.063-0.063,0.105-0.189,0.105h-8.778v2.226h4.368c0.357-0.399,0.462-0.525,0.861-0.924c0.546,0.378,0.714,0.504,1.302,0.924
		c0.147,0.126,0.21,0.189,0.21,0.273c0,0.168-0.168,0.294-0.84,0.609c0,0.588,0,1.008,0,1.26c0,2.058,0.021,3.591,0.105,5.103
		c0,0.147-0.021,0.21-0.084,0.252c-0.126,0.084-0.546,0.147-1.134,0.147c-0.21,0-0.273-0.042-0.294-0.189v-0.672H95.791z
		 M94.384,79.857c0-0.21,0-0.672,0-1.659h-4.242v2.562h4.242V79.857z M94.384,81.243h-4.242v2.772h4.242V81.243z M100.285,78.198
		h-4.494v2.562h4.494V78.198z M100.285,81.243h-4.494v2.772h4.494V81.243z"/>
</g>
<rect x="0.25" y="31.957" fill="none" stroke="#008CD6" stroke-width="0.5" width="105" height="21"/>
<line fill="none" stroke="#008CD6" stroke-width="0.5" x1="21.25" y1="52.957" x2="21.25" y2="31.957"/>
<line fill="none" stroke="#008CD6" stroke-width="0.5" x1="42.25" y1="52.957" x2="42.25" y2="31.957"/>
<line fill="none" stroke="#008CD6" stroke-width="0.5" x1="63.25" y1="52.957" x2="63.25" y2="31.957"/>
<line fill="none" stroke="#008CD6" stroke-width="0.5" x1="84.25" y1="52.957" x2="84.25" y2="31.957"/>
<polyline fill="none" stroke="#008CD6" stroke-width="0.5" points="10.75,31.957 10.75,21.457 21.25,21.457 21.25,31.957 "/>
<polyline fill="none" stroke="#008CD6" stroke-width="0.5" points="84.059,31.957 84.059,21.457 94.559,21.457 94.559,31.957 "/>
<g>
	<line fill="none" stroke="#008CD6" stroke-width="0.5" x1="100.559" y1="12.082" x2="100.559" y2="28.582"/>
	<polyline fill="none" stroke="#008CD6" stroke-width="0.5" points="103.542,23.416 100.559,28.582 97.577,23.416 	"/>
</g>
<g>
	<line fill="none" stroke="#008CD6" stroke-width="0.5" x1="5.559" y1="12.082" x2="5.559" y2="28.582"/>
	<polyline fill="none" stroke="#008CD6" stroke-width="0.5" points="8.543,23.416 5.559,28.582 2.577,23.416 	"/>
</g>
<g>
	<line fill="#86B2DF" stroke="#86B2DF" stroke-width="3" x1="52.999" y1="128.016" x2="52.999" y2="109.137"/>
	<polygon fill="#86B2DF" stroke="#86B2DF" points="61.331,115.456 52.999,111.918 44.664,115.456 52.999,95.706 	"/>
</g>
</svg>
