<?xml version="1.0" encoding="utf-8"?>
<!-- Generator: Adobe Illustrator 12.0.0, SVG Export Plug-In . SVG Version: 6.00 Build 51448)  -->
<!DOCTYPE svg PUBLIC "-//W3C//DTD SVG 1.1//EN" "http://www.w3.org/Graphics/SVG/1.1/DTD/svg11.dtd" [
	<!ENTITY ns_svg "http://www.w3.org/2000/svg">
	<!ENTITY ns_xlink "http://www.w3.org/1999/xlink">
]>
<svg  version="1.1" id="レイヤー_1" xmlns="&ns_svg;" xmlns:xlink="&ns_xlink;" width="264.506" height="202.926"
	 viewBox="0 0 264.506 202.926" overflow="visible" enable-background="new 0 0 264.506 202.926" xml:space="preserve">
<g>
	<path d="M95.896,138.025c-0.126,1.585-0.756,2.961-1.354,2.961c-0.189,0-0.326-0.263-0.326-0.62c0-0.189,0.053-0.273,0.273-0.399
		c0.557-0.336,1.061-1.145,1.218-1.963L95.896,138.025z M94.688,136.03c0.472,0.546,0.682,0.651,1.218,0.651
		c0.441,0,1.071-0.063,1.879-0.178v-0.158c0-1.103-0.021-1.344-0.126-1.522c-0.126-0.21-0.294-0.315-0.756-0.43
		c0.126-0.105,0.21-0.137,0.357-0.137c0.284,0,0.777,0.126,1.071,0.263c0.252,0.115,0.346,0.231,0.346,0.43
		c0,0.063-0.01,0.105-0.073,0.221c-0.158,0.347-0.21,0.641-0.221,1.25c0.179-0.042,0.179-0.042,0.903-0.189
		c0.399-0.084,0.725-0.21,0.924-0.347c0.073-0.052,0.126-0.073,0.189-0.073c0.126,0,0.367,0.063,0.567,0.157
		c0.263,0.126,0.399,0.242,0.399,0.368c0,0.136-0.126,0.199-0.483,0.241c-0.546,0.053-1.963,0.252-2.52,0.347
		c-0.01,0.588-0.01,0.693-0.01,0.903c0,0.966,0.031,1.911,0.094,2.804c0.021,0.189,0.021,0.252,0.021,0.357
		c0,0.305-0.052,0.557-0.178,0.84c-0.105,0.252-0.242,0.378-0.42,0.378c-0.136,0-0.22-0.094-0.304-0.336
		c-0.116-0.315-0.221-0.409-1.103-0.945c-0.158-0.095-0.294-0.189-0.536-0.347l0.053-0.105c0.703,0.231,1.187,0.357,1.732,0.462
		c0.021-0.315,0.052-1.638,0.084-3.958c-0.546,0.073-1.354,0.136-1.701,0.136c-0.767,0-1.092-0.21-1.543-0.998L94.688,136.03z
		 M99.833,137.846c0.882,0.546,1.323,0.893,1.659,1.323c0.221,0.273,0.315,0.515,0.315,0.798c0,0.431-0.189,0.809-0.399,0.809
		c-0.126,0-0.147-0.021-0.325-0.557c-0.284-0.861-0.756-1.648-1.354-2.257L99.833,137.846z"/>
	<path d="M110.112,140.797c1.029-0.809,1.942-1.837,2.583-2.909c0.325-0.556,0.43-0.808,0.43-1.04c0-0.168-0.136-0.336-0.525-0.598
		c0.116-0.032,0.168-0.042,0.231-0.042c0.179,0,0.546,0.147,0.861,0.357c0.357,0.231,0.504,0.399,0.504,0.567
		c0,0.084-0.032,0.147-0.126,0.231c-0.2,0.168-0.2,0.168-0.441,0.483c-0.903,1.187-1.323,1.617-2.205,2.3
		c-0.462,0.357-0.756,0.535-1.229,0.766L110.112,140.797z M115.74,136.188c1.103,0.651,2.1,1.543,2.761,2.446
		c0.326,0.441,0.441,0.735,0.441,1.113c0,0.441-0.168,0.777-0.399,0.777c-0.147,0-0.199-0.063-0.346-0.483
		c-0.515-1.407-1.344-2.604-2.573-3.728L115.74,136.188z M116.811,134.822c0.609,0.263,1.05,0.494,1.344,0.725
		c0.273,0.221,0.367,0.389,0.367,0.662c0,0.294-0.094,0.483-0.241,0.483c-0.116,0-0.168-0.063-0.357-0.368
		c-0.368-0.598-0.599-0.851-1.197-1.365L116.811,134.822z M117.84,134.234c0.609,0.2,1.029,0.389,1.333,0.599
		c0.283,0.189,0.388,0.336,0.388,0.567c0,0.336-0.094,0.536-0.252,0.536c-0.073,0-0.136-0.053-0.231-0.189
		c-0.357-0.578-0.662-0.893-1.323-1.386L117.84,134.234z"/>
	<path d="M129.16,134.644c0.252,0,0.703,0.147,0.987,0.325c0.178,0.116,0.273,0.242,0.273,0.368c0,0.031-0.021,0.136-0.032,0.231
		c-0.052,0.242-0.094,1.061-0.094,1.806c0,0.136,0,0.378,0.01,0.798c0,0.137,0,0.242,0,0.357c0,0.336-0.01,0.452-0.031,0.567
		c-0.021,0.147-0.105,0.231-0.21,0.231c-0.137,0-0.273-0.126-0.399-0.357c-0.116-0.21-0.189-0.451-0.189-0.588
		c0-0.073,0.01-0.105,0.042-0.231c0.094-0.284,0.136-0.882,0.136-1.711c0-0.767-0.042-1.019-0.199-1.26
		c-0.126-0.21-0.221-0.273-0.62-0.451C128.96,134.654,129.002,134.644,129.16,134.644z M130.262,142.592
		c1.05-0.714,1.649-1.302,2.121-2.089c0.588-0.998,0.746-1.9,0.746-4.378c0-1.05-0.042-1.386-0.2-1.585
		c-0.136-0.168-0.378-0.294-0.756-0.378c0.147-0.126,0.231-0.157,0.431-0.157c0.252,0,0.746,0.136,1.071,0.294
		c0.263,0.126,0.378,0.263,0.378,0.42c0,0.074,0,0.074-0.063,0.252c-0.084,0.252-0.136,0.945-0.178,2.247
		c-0.053,1.522-0.116,2.005-0.336,2.625c-0.441,1.208-1.564,2.257-3.129,2.888L130.262,142.592z"/>
	<path d="M145.13,135.232c1.008,0.252,1.617,0.494,2.026,0.788c0.242,0.168,0.357,0.399,0.357,0.714
		c0,0.347-0.115,0.588-0.294,0.588c-0.116,0-0.168-0.052-0.452-0.42c-0.514-0.683-0.893-1.029-1.711-1.543L145.13,135.232z
		 M152.595,135.831c-0.525,0.987-1.166,1.816-2.205,2.824c-0.966,0.935-1.617,1.459-2.95,2.394c-0.494,0.347-0.546,0.389-0.62,0.483
		c-0.168,0.2-0.231,0.252-0.368,0.252c-0.43,0-1.229-1.008-1.229-1.543c0-0.063,0.011-0.105,0.053-0.21
		c0.21,0.315,0.231,0.336,0.378,0.462c0.157,0.147,0.305,0.221,0.42,0.221c0.179,0,0.504-0.137,1.019-0.441
		c1.176-0.683,1.585-0.977,2.509-1.732c1.292-1.05,1.922-1.691,2.825-2.804L152.595,135.831z"/>
	<path d="M161.73,138.823c0.756-0.63,1.459-1.449,2.205-2.562c0.431-0.64,0.693-1.187,0.693-1.417c0-0.136-0.042-0.22-0.199-0.357
		c-0.126-0.126-0.126-0.126-0.252-0.189c-0.116-0.063-0.116-0.063-0.189-0.105c0.095-0.042,0.137-0.053,0.2-0.053
		c0.221,0,0.578,0.116,0.861,0.284c0.336,0.189,0.494,0.368,0.494,0.536c0,0.126-0.01,0.136-0.567,0.945
		c0.136,0.042,0.199,0.053,0.283,0.053c0.2,0,0.704-0.084,1.25-0.221c0.441-0.105,0.609-0.158,0.83-0.284
		c0.084-0.052,0.116-0.063,0.179-0.063c0.252,0,0.851,0.546,0.851,0.777c0,0.084-0.042,0.147-0.158,0.262
		c-0.179,0.168-0.231,0.242-0.504,0.746c-0.924,1.743-1.816,2.877-3.098,3.958c-0.903,0.756-1.69,1.26-2.604,1.638l-0.073-0.147
		c0.84-0.525,1.47-1.029,2.32-1.88c1.271-1.271,2.257-2.688,2.867-4.158c0.105-0.231,0.168-0.452,0.168-0.536
		c0-0.042-0.032-0.073-0.095-0.073c-0.157,0-0.809,0.157-1.333,0.336c-0.189,0.063-0.252,0.073-0.346,0.073
		c-0.221,0-0.441-0.105-0.651-0.304c-0.809,1.155-1.869,2.163-3.024,2.877L161.73,138.823z M167.526,133.919
		c0.588,0.22,0.966,0.42,1.323,0.693c0.241,0.189,0.357,0.399,0.357,0.662c0,0.315-0.095,0.504-0.252,0.504
		c-0.105,0-0.147-0.042-0.315-0.336c-0.284-0.515-0.662-0.956-1.187-1.407L167.526,133.919z M168.451,133.311
		c0.63,0.157,1.061,0.346,1.407,0.588c0.21,0.147,0.305,0.336,0.305,0.599c0,0.294-0.074,0.451-0.221,0.451
		c-0.105,0-0.147-0.042-0.315-0.315c-0.305-0.462-0.651-0.798-1.25-1.208L168.451,133.311z"/>
	<path d="M100.967,161.871h5.103c0.546-0.735,0.714-0.945,1.323-1.617l2.058,1.806c0.063,0.084,0.105,0.147,0.105,0.189
		c0,0.063-0.063,0.105-0.168,0.105H93.239c-0.777,0-1.239,0.042-2.205,0.189l-0.21-0.882c0.987,0.126,1.995,0.21,2.562,0.21h6.069
		v-5.439h-4.998c-0.336,0-0.609,0.042-1.617,0.21l-0.168-0.861c0.651,0.084,1.533,0.168,1.932,0.168h10.038
		c0.504-0.693,0.672-0.882,1.197-1.533c0.882,0.735,1.155,0.966,2.058,1.722c0.063,0.063,0.084,0.105,0.084,0.147
		c0,0.084-0.084,0.147-0.168,0.147h-6.846V161.871z M98.867,147.948c-0.063,1.05-0.084,1.26-0.231,1.827
		c-0.756,2.961-3.255,4.662-7.476,5.082l-0.189-0.378c2.499-0.42,4.242-1.344,5.334-2.856c0.714-1.029,1.008-1.953,1.113-3.675
		h-3.864c-0.294,1.974-0.966,3.108-1.806,3.108c-0.168,0-0.294-0.084-0.42-0.315c-0.168-0.273-0.315-0.651-0.315-0.819
		c0-0.294,0.084-0.399,0.525-0.714c0.987-0.672,1.617-1.785,1.827-3.234h0.315c-0.021,0.693-0.021,0.945-0.084,1.491h5.754v-1.575
		c0-0.84-0.021-0.945-0.105-1.512c2.037,0.189,2.121,0.189,2.352,0.273c0.168,0.063,0.252,0.147,0.252,0.231
		c0,0.189-0.273,0.336-1.029,0.567v2.016h5.67c0.357-0.504,0.462-0.651,0.882-1.113c0.819,0.567,1.071,0.756,1.806,1.407
		c0.147,0.126,0.21,0.21,0.21,0.294c0,0.042-0.042,0.084-0.084,0.126c-0.084,0.063-0.294,0.126-0.546,0.168
		c-0.546,0.105-0.861,0.168-0.945,0.189c-0.672,0.714-1.113,1.092-2.121,1.869l-0.168-0.147c0.399-0.756,0.462-0.861,0.966-2.31
		h-3.654v3.906c0,0.336,0.042,0.399,0.315,0.462c0.126,0.021,1.512,0.063,2.331,0.063c0.798,0,1.638-0.063,1.827-0.126
		c0.21-0.063,0.21-0.063,0.525-0.777c0.231-0.546,0.399-1.008,0.735-2.1l0.315,0.021l-0.126,2.184c0,0.147,0,0.252,0,0.294
		c0,0.189,0.105,0.294,0.336,0.357c0.399,0.126,0.546,0.252,0.546,0.525c0,0.252-0.21,0.483-0.567,0.567
		c-0.441,0.105-1.764,0.189-3.066,0.189c-1.617,0-3.297-0.042-3.675-0.084c-0.651-0.084-0.882-0.378-0.882-1.092v-4.389H98.867z"/>
	<path d="M121.757,155.781c0,3.108,0,3.129,0.063,7.434c0,0.126-0.042,0.168-0.147,0.21c-0.168,0.063-0.756,0.126-1.134,0.126
		c-0.21,0-0.273-0.042-0.273-0.231c0.042-3.024,0.042-3.024,0.042-5.544v-1.995h-5.481v1.155c0,0.147-0.042,0.189-0.168,0.231
		c-0.147,0.042-0.735,0.105-1.05,0.105c-0.252,0-0.336-0.063-0.336-0.273c0.042-3.15,0.063-4.83,0.063-5.019
		c0-1.113,0-1.932-0.042-3.633c0.798,0.315,1.05,0.441,1.827,0.903h5.187c-0.021-3.864-0.021-3.864-0.126-4.788
		c0.483,0.042,0.861,0.084,1.092,0.084c1.155,0.105,1.407,0.168,1.407,0.378c0,0.189-0.126,0.252-0.945,0.546v3.78h5.838
		c0.336-0.399,0.441-0.525,0.756-0.924c0.63,0.399,0.798,0.525,1.365,0.924c0.147,0.126,0.231,0.21,0.231,0.315c0,0,0,0,0,0.021
		c-0.021,0.147-0.147,0.252-0.672,0.546c-0.021,0.966-0.021,1.659-0.021,2.184c0,1.617,0.021,2.709,0.084,4.494
		c0,0.147-0.042,0.189-0.168,0.252c-0.168,0.063-0.735,0.126-1.092,0.126c-0.21,0-0.273-0.063-0.273-0.252v-1.155H121.757z
		 M120.308,150.804v-1.071h-5.481v5.565h5.481V150.804z M127.784,149.732h-6.048c0,0.714,0,2.562,0.021,5.565h6.027V149.732z"/>
	<path d="M139.817,147.023c0.399-0.462,0.525-0.588,0.966-1.008c0.609,0.525,0.777,0.693,1.344,1.239
		c0.042,0.063,0.063,0.126,0.063,0.168s-0.063,0.084-0.21,0.084h-3.864v1.764h1.449c0.378-0.441,0.504-0.567,0.924-0.987
		c0.588,0.504,0.756,0.672,1.302,1.197c0.042,0.063,0.063,0.126,0.063,0.168c0,0.063-0.084,0.105-0.189,0.105h-3.549v1.932h1.659
		c0.42-0.441,0.567-0.588,0.987-1.008c0.651,0.504,0.84,0.672,1.428,1.197c0.084,0.084,0.105,0.147,0.105,0.189
		c0,0.063-0.063,0.105-0.21,0.105h-7.959c-0.609,0-0.861,0.021-1.218,0.105l-0.126-0.714c0.504,0.105,0.777,0.126,1.344,0.126h2.688
		v-1.932h-2.037c-0.441,0-0.588,0.021-1.05,0.084l-0.126-0.714c0.399,0.126,0.651,0.147,1.176,0.147h2.037v-1.764h-2.688
		c-0.336,0-0.63,0.021-0.882,0.084l-0.147-0.756c0.42,0.126,0.819,0.189,1.071,0.189h2.646v-0.336c0-0.966-0.021-1.428-0.084-2.352
		c2.142,0.315,2.331,0.357,2.331,0.546s-0.252,0.336-0.945,0.504v1.638H139.817z M135.428,158.847v1.722
		c0.021,1.869,0.021,1.869,0.021,2.562c0,0.126-0.042,0.189-0.168,0.231c-0.147,0.042-0.651,0.105-1.008,0.105
		c-0.231,0-0.294-0.042-0.294-0.21c0.105-3.36,0.147-5.376,0.147-8.526c0-0.903,0-1.134-0.021-1.869
		c0.672,0.378,0.903,0.483,1.617,0.861h3.738c0.336-0.273,0.441-0.378,0.756-0.693c0.462,0.336,0.588,0.441,1.029,0.798
		c0.147,0.105,0.21,0.189,0.21,0.273c0,0.126-0.105,0.231-0.546,0.483v4.956c0,0.147,0,0.294,0.042,1.932c0,0.126,0,0.21,0,0.273
		s0,0.126,0,0.126c0,0.924-0.294,1.134-2.079,1.449c-0.063-0.441-0.168-0.651-0.399-0.84c-0.21-0.189-0.441-0.273-1.701-0.525
		v-0.273c0.588,0.021,0.588,0.021,1.596,0.084c0.567,0.042,0.567,0.042,1.008,0.063c0.168,0,0.189-0.021,0.189-0.168v-2.814H135.428
		z M139.565,154.206h-4.137v1.827h4.137V154.206z M139.565,156.516h-4.137v1.848h4.137V156.516z M146.516,157.796
		c0.042,1.974,0.063,3.213,0.063,3.696c0.021,0.168,0.021,0.294,0.021,0.399c0,0.966-0.357,1.26-2.037,1.596
		c-0.063-0.966-0.105-0.987-2.793-1.68l0.021-0.252c2.205,0.21,2.205,0.21,3.129,0.252c0.252,0,0.315-0.042,0.315-0.252v-4.011
		h-2.163c-0.483,0-0.819,0.021-1.134,0.105l-0.126-0.714c0.483,0.105,0.735,0.126,1.302,0.126h2.121v-2.961h-2.415
		c-0.504,0-0.672,0.021-1.008,0.084l-0.126-0.672c0.483,0.084,0.63,0.105,1.134,0.105h2.415v-2.856h-1.407
		c-0.588,0-0.777,0.021-1.134,0.084l-0.126-0.693c0.462,0.084,0.819,0.126,1.26,0.126h2.331c0.735-1.386,0.903-1.743,1.323-2.961
		h-2.688c-0.861,1.155-1.617,2.037-2.982,3.402l-0.231-0.189c1.491-1.974,2.625-4.137,3.297-6.216
		c0.378,0.126,0.672,0.231,0.861,0.294c1.008,0.336,1.134,0.378,1.134,0.546s-0.21,0.252-0.903,0.315
		c-0.399,0.693-0.504,0.84-0.84,1.365h2.31c0.294-0.399,0.399-0.525,0.714-0.882c0.714,0.483,0.924,0.63,1.596,1.113
		c0.147,0.105,0.21,0.189,0.21,0.252c0,0.189-0.189,0.252-1.071,0.399c-0.315,0.378-0.567,0.693-0.735,0.882
		c-0.777,0.945-0.924,1.113-1.491,1.68h2.31c0.315-0.315,0.399-0.42,0.735-0.714c0.483,0.315,0.63,0.42,1.071,0.756
		c0.147,0.126,0.21,0.21,0.21,0.273c0,0.168-0.168,0.315-0.672,0.546v2.478h0.189c0.357-0.483,0.462-0.651,0.861-1.134
		c0.462,0.588,0.588,0.777,1.029,1.386c0.021,0.063,0.042,0.105,0.042,0.147s-0.063,0.084-0.147,0.084h-1.974
		c0.021,3.108,0.021,3.402,0.063,4.599c0,0.126-0.021,0.189-0.084,0.231c-0.084,0.042-0.504,0.105-0.903,0.105
		c-0.315,0-0.42-0.063-0.42-0.231c0-0.021,0-0.042,0-0.063v-1.197h-2.457V157.796z M148.973,153.618v-2.856h-2.457v2.856H148.973z
		 M148.973,157.062v-2.961h-2.457v2.961H148.973z"/>
	<path d="M162.875,161.892v-14.553c0-1.638,0-1.869-0.063-2.436c0.483,0.063,0.861,0.105,1.092,0.126
		c1.05,0.126,1.407,0.252,1.407,0.441c0,0.168-0.231,0.273-0.924,0.462v7.224h3.57c0.588-0.693,0.756-0.903,1.323-1.554
		c0.882,0.735,1.155,0.966,2.016,1.785c0.042,0.042,0.063,0.105,0.063,0.147c0,0.063-0.084,0.105-0.189,0.105h-6.783v8.253h4.767
		c0.63-0.735,0.819-0.966,1.491-1.701c0.903,0.777,1.176,1.029,2.079,1.869c0.042,0.063,0.063,0.126,0.063,0.189
		c0,0.084-0.105,0.126-0.252,0.126h-16.506c-1.134,0-1.512,0.021-2.058,0.084l-0.126-0.777c0.735,0.168,1.197,0.21,2.184,0.21h1.281
		v-10.521c-0.021-1.869-0.021-1.869-0.042-2.394c2.268,0.294,2.415,0.336,2.415,0.546c0,0.168-0.273,0.294-0.882,0.441v11.928
		H162.875z"/>
</g>
<g>
	<path d="M95.896,177.4c-0.126,1.585-0.756,2.961-1.354,2.961c-0.189,0-0.326-0.263-0.326-0.62c0-0.189,0.053-0.273,0.273-0.399
		c0.557-0.336,1.061-1.145,1.218-1.963L95.896,177.4z M94.688,175.405c0.472,0.546,0.682,0.651,1.218,0.651
		c0.441,0,1.071-0.063,1.879-0.178v-0.158c0-1.103-0.021-1.344-0.126-1.522c-0.126-0.21-0.294-0.315-0.756-0.43
		c0.126-0.105,0.21-0.137,0.357-0.137c0.284,0,0.777,0.126,1.071,0.263c0.252,0.115,0.346,0.231,0.346,0.43
		c0,0.063-0.01,0.105-0.073,0.221c-0.158,0.347-0.21,0.641-0.221,1.25c0.179-0.042,0.179-0.042,0.903-0.189
		c0.399-0.084,0.725-0.21,0.924-0.347c0.073-0.052,0.126-0.073,0.189-0.073c0.126,0,0.367,0.063,0.567,0.157
		c0.263,0.126,0.399,0.242,0.399,0.368c0,0.136-0.126,0.199-0.483,0.241c-0.546,0.053-1.963,0.252-2.52,0.347
		c-0.01,0.588-0.01,0.693-0.01,0.903c0,0.966,0.031,1.911,0.094,2.804c0.021,0.189,0.021,0.252,0.021,0.357
		c0,0.305-0.052,0.557-0.178,0.84c-0.105,0.252-0.242,0.378-0.42,0.378c-0.136,0-0.22-0.094-0.304-0.336
		c-0.116-0.315-0.221-0.409-1.103-0.945c-0.158-0.095-0.294-0.189-0.536-0.347l0.053-0.105c0.703,0.231,1.187,0.357,1.732,0.462
		c0.021-0.315,0.052-1.638,0.084-3.958c-0.546,0.073-1.354,0.136-1.701,0.136c-0.767,0-1.092-0.21-1.543-0.998L94.688,175.405z
		 M99.833,177.221c0.882,0.546,1.323,0.893,1.659,1.323c0.221,0.273,0.315,0.515,0.315,0.798c0,0.431-0.189,0.809-0.399,0.809
		c-0.126,0-0.147-0.021-0.325-0.557c-0.284-0.861-0.756-1.648-1.354-2.257L99.833,177.221z"/>
	<path d="M110.112,180.172c1.029-0.809,1.942-1.837,2.583-2.909c0.325-0.556,0.43-0.808,0.43-1.04c0-0.168-0.136-0.336-0.525-0.598
		c0.116-0.032,0.168-0.042,0.231-0.042c0.179,0,0.546,0.147,0.861,0.357c0.357,0.231,0.504,0.399,0.504,0.567
		c0,0.084-0.032,0.147-0.126,0.231c-0.2,0.168-0.2,0.168-0.441,0.483c-0.903,1.187-1.323,1.617-2.205,2.3
		c-0.462,0.357-0.756,0.535-1.229,0.766L110.112,180.172z M115.74,175.563c1.103,0.651,2.1,1.543,2.761,2.446
		c0.326,0.441,0.441,0.735,0.441,1.113c0,0.441-0.168,0.777-0.399,0.777c-0.147,0-0.199-0.063-0.346-0.483
		c-0.515-1.407-1.344-2.604-2.573-3.728L115.74,175.563z M116.811,174.197c0.609,0.263,1.05,0.494,1.344,0.725
		c0.273,0.221,0.367,0.389,0.367,0.662c0,0.294-0.094,0.483-0.241,0.483c-0.116,0-0.168-0.063-0.357-0.368
		c-0.368-0.598-0.599-0.851-1.197-1.365L116.811,174.197z M117.84,173.609c0.609,0.2,1.029,0.389,1.333,0.599
		c0.283,0.189,0.388,0.336,0.388,0.567c0,0.336-0.094,0.536-0.252,0.536c-0.073,0-0.136-0.053-0.231-0.189
		c-0.357-0.578-0.662-0.893-1.323-1.386L117.84,173.609z"/>
	<path d="M129.16,174.019c0.252,0,0.703,0.147,0.987,0.325c0.178,0.116,0.273,0.242,0.273,0.368c0,0.031-0.021,0.136-0.032,0.231
		c-0.052,0.242-0.094,1.061-0.094,1.806c0,0.136,0,0.378,0.01,0.798c0,0.137,0,0.242,0,0.357c0,0.336-0.01,0.452-0.031,0.567
		c-0.021,0.147-0.105,0.231-0.21,0.231c-0.137,0-0.273-0.126-0.399-0.357c-0.116-0.21-0.189-0.451-0.189-0.588
		c0-0.073,0.01-0.105,0.042-0.231c0.094-0.284,0.136-0.882,0.136-1.711c0-0.767-0.042-1.019-0.199-1.26
		c-0.126-0.21-0.221-0.273-0.62-0.451C128.96,174.029,129.002,174.019,129.16,174.019z M130.262,181.967
		c1.05-0.714,1.649-1.302,2.121-2.089c0.588-0.998,0.746-1.9,0.746-4.378c0-1.05-0.042-1.386-0.2-1.585
		c-0.136-0.168-0.378-0.294-0.756-0.378c0.147-0.126,0.231-0.157,0.431-0.157c0.252,0,0.746,0.136,1.071,0.294
		c0.263,0.126,0.378,0.263,0.378,0.42c0,0.074,0,0.074-0.063,0.252c-0.084,0.252-0.136,0.945-0.178,2.247
		c-0.053,1.522-0.116,2.005-0.336,2.625c-0.441,1.208-1.564,2.257-3.129,2.888L130.262,181.967z"/>
	<path d="M145.13,174.607c1.008,0.252,1.617,0.494,2.026,0.788c0.242,0.168,0.357,0.399,0.357,0.714
		c0,0.347-0.115,0.588-0.294,0.588c-0.116,0-0.168-0.052-0.452-0.42c-0.514-0.683-0.893-1.029-1.711-1.543L145.13,174.607z
		 M152.595,175.206c-0.525,0.987-1.166,1.816-2.205,2.824c-0.966,0.935-1.617,1.459-2.95,2.394c-0.494,0.347-0.546,0.389-0.62,0.483
		c-0.168,0.2-0.231,0.252-0.368,0.252c-0.43,0-1.229-1.008-1.229-1.543c0-0.063,0.011-0.105,0.053-0.21
		c0.21,0.315,0.231,0.336,0.378,0.462c0.157,0.147,0.305,0.221,0.42,0.221c0.179,0,0.504-0.137,1.019-0.441
		c1.176-0.683,1.585-0.977,2.509-1.732c1.292-1.05,1.922-1.691,2.825-2.804L152.595,175.206z"/>
	<path d="M161.73,178.198c0.756-0.63,1.459-1.449,2.205-2.562c0.431-0.64,0.693-1.187,0.693-1.417c0-0.136-0.042-0.22-0.199-0.357
		c-0.126-0.126-0.126-0.126-0.252-0.189c-0.116-0.063-0.116-0.063-0.189-0.105c0.095-0.042,0.137-0.053,0.2-0.053
		c0.221,0,0.578,0.116,0.861,0.284c0.336,0.189,0.494,0.368,0.494,0.536c0,0.126-0.01,0.136-0.567,0.945
		c0.136,0.042,0.199,0.053,0.283,0.053c0.2,0,0.704-0.084,1.25-0.221c0.441-0.105,0.609-0.158,0.83-0.284
		c0.084-0.052,0.116-0.063,0.179-0.063c0.252,0,0.851,0.546,0.851,0.777c0,0.084-0.042,0.147-0.158,0.262
		c-0.179,0.168-0.231,0.242-0.504,0.746c-0.924,1.743-1.816,2.877-3.098,3.958c-0.903,0.756-1.69,1.26-2.604,1.638l-0.073-0.147
		c0.84-0.525,1.47-1.029,2.32-1.88c1.271-1.271,2.257-2.688,2.867-4.158c0.105-0.231,0.168-0.452,0.168-0.536
		c0-0.042-0.032-0.073-0.095-0.073c-0.157,0-0.809,0.157-1.333,0.336c-0.189,0.063-0.252,0.073-0.346,0.073
		c-0.221,0-0.441-0.105-0.651-0.304c-0.809,1.155-1.869,2.163-3.024,2.877L161.73,178.198z M167.526,173.294
		c0.588,0.22,0.966,0.42,1.323,0.693c0.241,0.189,0.357,0.399,0.357,0.662c0,0.315-0.095,0.504-0.252,0.504
		c-0.105,0-0.147-0.042-0.315-0.336c-0.284-0.515-0.662-0.956-1.187-1.407L167.526,173.294z M168.451,172.686
		c0.63,0.157,1.061,0.346,1.407,0.588c0.21,0.147,0.305,0.336,0.305,0.599c0,0.294-0.074,0.451-0.221,0.451
		c-0.105,0-0.147-0.042-0.315-0.315c-0.305-0.462-0.651-0.798-1.25-1.208L168.451,172.686z"/>
	<path d="M100.967,201.246h5.103c0.546-0.735,0.714-0.945,1.323-1.617l2.058,1.806c0.063,0.084,0.105,0.147,0.105,0.189
		c0,0.063-0.063,0.105-0.168,0.105H93.239c-0.777,0-1.239,0.042-2.205,0.189l-0.21-0.882c0.987,0.126,1.995,0.21,2.562,0.21h6.069
		v-5.439h-4.998c-0.336,0-0.609,0.042-1.617,0.21l-0.168-0.861c0.651,0.084,1.533,0.168,1.932,0.168h10.038
		c0.504-0.693,0.672-0.882,1.197-1.533c0.882,0.735,1.155,0.966,2.058,1.722c0.063,0.063,0.084,0.105,0.084,0.147
		c0,0.084-0.084,0.147-0.168,0.147h-6.846V201.246z M98.867,187.323c-0.063,1.05-0.084,1.26-0.231,1.827
		c-0.756,2.961-3.255,4.662-7.476,5.082l-0.189-0.378c2.499-0.42,4.242-1.344,5.334-2.856c0.714-1.029,1.008-1.953,1.113-3.675
		h-3.864c-0.294,1.974-0.966,3.108-1.806,3.108c-0.168,0-0.294-0.084-0.42-0.315c-0.168-0.273-0.315-0.651-0.315-0.819
		c0-0.294,0.084-0.399,0.525-0.714c0.987-0.672,1.617-1.785,1.827-3.234h0.315c-0.021,0.693-0.021,0.945-0.084,1.491h5.754v-1.575
		c0-0.84-0.021-0.945-0.105-1.512c2.037,0.189,2.121,0.189,2.352,0.273c0.168,0.063,0.252,0.147,0.252,0.231
		c0,0.189-0.273,0.336-1.029,0.567v2.016h5.67c0.357-0.504,0.462-0.651,0.882-1.113c0.819,0.567,1.071,0.756,1.806,1.407
		c0.147,0.126,0.21,0.21,0.21,0.294c0,0.042-0.042,0.084-0.084,0.126c-0.084,0.063-0.294,0.126-0.546,0.168
		c-0.546,0.105-0.861,0.168-0.945,0.189c-0.672,0.714-1.113,1.092-2.121,1.869l-0.168-0.147c0.399-0.756,0.462-0.861,0.966-2.31
		h-3.654v3.906c0,0.336,0.042,0.399,0.315,0.462c0.126,0.021,1.512,0.063,2.331,0.063c0.798,0,1.638-0.063,1.827-0.126
		c0.21-0.063,0.21-0.063,0.525-0.777c0.231-0.546,0.399-1.008,0.735-2.1l0.315,0.021l-0.126,2.184c0,0.147,0,0.252,0,0.294
		c0,0.189,0.105,0.294,0.336,0.357c0.399,0.126,0.546,0.252,0.546,0.525c0,0.252-0.21,0.483-0.567,0.567
		c-0.441,0.105-1.764,0.189-3.066,0.189c-1.617,0-3.297-0.042-3.675-0.084c-0.651-0.084-0.882-0.378-0.882-1.092v-4.389H98.867z"/>
	<path d="M121.757,195.156c0,3.108,0,3.129,0.063,7.434c0,0.126-0.042,0.168-0.147,0.21c-0.168,0.063-0.756,0.126-1.134,0.126
		c-0.21,0-0.273-0.042-0.273-0.231c0.042-3.024,0.042-3.024,0.042-5.544v-1.995h-5.481v1.155c0,0.147-0.042,0.189-0.168,0.231
		c-0.147,0.042-0.735,0.105-1.05,0.105c-0.252,0-0.336-0.063-0.336-0.273c0.042-3.15,0.063-4.83,0.063-5.019
		c0-1.113,0-1.932-0.042-3.633c0.798,0.315,1.05,0.441,1.827,0.903h5.187c-0.021-3.864-0.021-3.864-0.126-4.788
		c0.483,0.042,0.861,0.084,1.092,0.084c1.155,0.105,1.407,0.168,1.407,0.378c0,0.189-0.126,0.252-0.945,0.546v3.78h5.838
		c0.336-0.399,0.441-0.525,0.756-0.924c0.63,0.399,0.798,0.525,1.365,0.924c0.147,0.126,0.231,0.21,0.231,0.315c0,0,0,0,0,0.021
		c-0.021,0.147-0.147,0.252-0.672,0.546c-0.021,0.966-0.021,1.659-0.021,2.184c0,1.617,0.021,2.709,0.084,4.494
		c0,0.147-0.042,0.189-0.168,0.252c-0.168,0.063-0.735,0.126-1.092,0.126c-0.21,0-0.273-0.063-0.273-0.252v-1.155H121.757z
		 M120.308,190.179v-1.071h-5.481v5.565h5.481V190.179z M127.784,189.107h-6.048c0,0.714,0,2.562,0.021,5.565h6.027V189.107z"/>
	<path d="M139.817,186.398c0.399-0.462,0.525-0.588,0.966-1.008c0.609,0.525,0.777,0.693,1.344,1.239
		c0.042,0.063,0.063,0.126,0.063,0.168s-0.063,0.084-0.21,0.084h-3.864v1.764h1.449c0.378-0.441,0.504-0.567,0.924-0.987
		c0.588,0.504,0.756,0.672,1.302,1.197c0.042,0.063,0.063,0.126,0.063,0.168c0,0.063-0.084,0.105-0.189,0.105h-3.549v1.932h1.659
		c0.42-0.441,0.567-0.588,0.987-1.008c0.651,0.504,0.84,0.672,1.428,1.197c0.084,0.084,0.105,0.147,0.105,0.189
		c0,0.063-0.063,0.105-0.21,0.105h-7.959c-0.609,0-0.861,0.021-1.218,0.105l-0.126-0.714c0.504,0.105,0.777,0.126,1.344,0.126h2.688
		v-1.932h-2.037c-0.441,0-0.588,0.021-1.05,0.084l-0.126-0.714c0.399,0.126,0.651,0.147,1.176,0.147h2.037v-1.764h-2.688
		c-0.336,0-0.63,0.021-0.882,0.084l-0.147-0.756c0.42,0.126,0.819,0.189,1.071,0.189h2.646v-0.336c0-0.966-0.021-1.428-0.084-2.352
		c2.142,0.315,2.331,0.357,2.331,0.546s-0.252,0.336-0.945,0.504v1.638H139.817z M135.428,198.222v1.722
		c0.021,1.869,0.021,1.869,0.021,2.562c0,0.126-0.042,0.189-0.168,0.231c-0.147,0.042-0.651,0.105-1.008,0.105
		c-0.231,0-0.294-0.042-0.294-0.21c0.105-3.36,0.147-5.376,0.147-8.526c0-0.903,0-1.134-0.021-1.869
		c0.672,0.378,0.903,0.483,1.617,0.861h3.738c0.336-0.273,0.441-0.378,0.756-0.693c0.462,0.336,0.588,0.441,1.029,0.798
		c0.147,0.105,0.21,0.189,0.21,0.273c0,0.126-0.105,0.231-0.546,0.483v4.956c0,0.147,0,0.294,0.042,1.932c0,0.126,0,0.21,0,0.273
		s0,0.126,0,0.126c0,0.924-0.294,1.134-2.079,1.449c-0.063-0.441-0.168-0.651-0.399-0.84c-0.21-0.189-0.441-0.273-1.701-0.525
		v-0.273c0.588,0.021,0.588,0.021,1.596,0.084c0.567,0.042,0.567,0.042,1.008,0.063c0.168,0,0.189-0.021,0.189-0.168v-2.814H135.428
		z M139.565,193.581h-4.137v1.827h4.137V193.581z M139.565,195.891h-4.137v1.848h4.137V195.891z M146.516,197.171
		c0.042,1.974,0.063,3.213,0.063,3.696c0.021,0.168,0.021,0.294,0.021,0.399c0,0.966-0.357,1.26-2.037,1.596
		c-0.063-0.966-0.105-0.987-2.793-1.68l0.021-0.252c2.205,0.21,2.205,0.21,3.129,0.252c0.252,0,0.315-0.042,0.315-0.252v-4.011
		h-2.163c-0.483,0-0.819,0.021-1.134,0.105l-0.126-0.714c0.483,0.105,0.735,0.126,1.302,0.126h2.121v-2.961h-2.415
		c-0.504,0-0.672,0.021-1.008,0.084l-0.126-0.672c0.483,0.084,0.63,0.105,1.134,0.105h2.415v-2.856h-1.407
		c-0.588,0-0.777,0.021-1.134,0.084l-0.126-0.693c0.462,0.084,0.819,0.126,1.26,0.126h2.331c0.735-1.386,0.903-1.743,1.323-2.961
		h-2.688c-0.861,1.155-1.617,2.037-2.982,3.402l-0.231-0.189c1.491-1.974,2.625-4.137,3.297-6.216
		c0.378,0.126,0.672,0.231,0.861,0.294c1.008,0.336,1.134,0.378,1.134,0.546s-0.21,0.252-0.903,0.315
		c-0.399,0.693-0.504,0.84-0.84,1.365h2.31c0.294-0.399,0.399-0.525,0.714-0.882c0.714,0.483,0.924,0.63,1.596,1.113
		c0.147,0.105,0.21,0.189,0.21,0.252c0,0.189-0.189,0.252-1.071,0.399c-0.315,0.378-0.567,0.693-0.735,0.882
		c-0.777,0.945-0.924,1.113-1.491,1.68h2.31c0.315-0.315,0.399-0.42,0.735-0.714c0.483,0.315,0.63,0.42,1.071,0.756
		c0.147,0.126,0.21,0.21,0.21,0.273c0,0.168-0.168,0.315-0.672,0.546v2.478h0.189c0.357-0.483,0.462-0.651,0.861-1.134
		c0.462,0.588,0.588,0.777,1.029,1.386c0.021,0.063,0.042,0.105,0.042,0.147s-0.063,0.084-0.147,0.084h-1.974
		c0.021,3.108,0.021,3.402,0.063,4.599c0,0.126-0.021,0.189-0.084,0.231c-0.084,0.042-0.504,0.105-0.903,0.105
		c-0.315,0-0.42-0.063-0.42-0.231c0-0.021,0-0.042,0-0.063v-1.197h-2.457V197.171z M148.973,192.993v-2.856h-2.457v2.856H148.973z
		 M148.973,196.437v-2.961h-2.457v2.961H148.973z"/>
	<path d="M162.875,201.267v-14.553c0-1.638,0-1.869-0.063-2.436c0.483,0.063,0.861,0.105,1.092,0.126
		c1.05,0.126,1.407,0.252,1.407,0.441c0,0.168-0.231,0.273-0.924,0.462v7.224h3.57c0.588-0.693,0.756-0.903,1.323-1.554
		c0.882,0.735,1.155,0.966,2.016,1.785c0.042,0.042,0.063,0.105,0.063,0.147c0,0.063-0.084,0.105-0.189,0.105h-6.783v8.253h4.767
		c0.63-0.735,0.819-0.966,1.491-1.701c0.903,0.777,1.176,1.029,2.079,1.869c0.042,0.063,0.063,0.126,0.063,0.189
		c0,0.084-0.105,0.126-0.252,0.126h-16.506c-1.134,0-1.512,0.021-2.058,0.084l-0.126-0.777c0.735,0.168,1.197,0.21,2.184,0.21h1.281
		v-10.521c-0.021-1.869-0.021-1.869-0.042-2.394c2.268,0.294,2.415,0.336,2.415,0.546c0,0.168-0.273,0.294-0.882,0.441v11.928
		H162.875z"/>
</g>
<rect x="89.195" y="143.455" fill="none" stroke="#008CD6" stroke-width="0.5" width="84" height="21"/>
<line fill="none" stroke="#008CD6" stroke-width="0.5" x1="110.195" y1="164.455" x2="110.195" y2="143.455"/>
<line fill="none" stroke="#008CD6" stroke-width="0.5" x1="131.195" y1="164.455" x2="131.195" y2="143.455"/>
<line fill="none" stroke="#008CD6" stroke-width="0.5" x1="152.195" y1="164.455" x2="152.195" y2="143.455"/>
<polyline fill="none" stroke="#008CD6" stroke-width="0.5" points="92.346,143.455 92.346,132.955 102.846,132.955 102.846,143.455 
	"/>
<polyline fill="none" stroke="#008CD6" stroke-width="0.5" points="109.146,143.455 109.146,132.955 119.646,132.955 
	119.646,143.455 "/>
<polyline fill="none" stroke="#008CD6" stroke-width="0.5" points="125.947,143.455 125.947,132.955 136.447,132.955 
	136.447,143.455 "/>
<polyline fill="none" stroke="#008CD6" stroke-width="0.5" points="142.747,143.455 142.747,132.955 153.247,132.955 
	153.247,143.455 "/>
<polyline fill="none" stroke="#008CD6" stroke-width="0.5" points="159.547,143.455 159.547,132.955 170.047,132.955 
	170.047,143.455 "/>
<g>
	<path d="M108.63,42.751c0.168,0.115,0.326,0.157,0.599,0.157c0.21,0,0.42-0.01,0.735-0.052c2.867-0.336,2.867-0.336,3.098-0.441
		c0.105-0.042,0.158-0.063,0.2-0.063c0.105,0,0.346,0.147,0.609,0.388c0.252,0.231,0.378,0.389,0.378,0.504
		c0,0.074-0.031,0.116-0.105,0.189c-0.189,0.189-0.231,0.357-0.746,3.139c0.042,0.042,0.074,0.063,0.084,0.084
		c0.294,0.242,0.368,0.347,0.368,0.494c0,0.105-0.084,0.168-0.242,0.168c-0.042,0-0.042,0-0.262-0.032
		c-0.305-0.042-0.588-0.063-0.914-0.063c-1.218,0-2.772,0.242-3.381,0.525c-0.063,0.031-0.158,0.052-0.21,0.052
		c-0.347,0-0.977-0.788-0.977-1.229c0-0.052,0.01-0.094,0.052-0.189c0.336,0.473,0.599,0.641,0.987,0.641
		c0.063,0,0.735-0.063,2.026-0.189c0.924-0.095,1.05-0.105,1.795-0.137c0.105-0.514,0.168-0.945,0.284-1.932
		c0.052-0.43,0.147-1.449,0.147-1.585c0-0.147-0.074-0.189-0.294-0.189c-0.147,0-1.071,0.084-1.407,0.126
		c-0.746,0.095-1.438,0.252-2.163,0.494c-0.063,0.021-0.126,0.032-0.189,0.032c-0.22,0-0.452-0.189-0.704-0.567
		c-0.157-0.241-0.262-0.483-0.262-0.63c0-0.042,0.01-0.094,0.052-0.189C108.326,42.478,108.452,42.614,108.63,42.751z
		 M113.376,40.767c0.714,0.304,1.134,0.556,1.396,0.819c0.2,0.189,0.263,0.325,0.263,0.567c0,0.294-0.105,0.504-0.263,0.504
		c-0.094,0-0.157-0.063-0.252-0.231c-0.347-0.662-0.672-1.061-1.218-1.543L113.376,40.767z M114.448,40.189
		c0.577,0.21,1.008,0.409,1.302,0.63c0.273,0.189,0.357,0.336,0.357,0.567c0,0.284-0.115,0.525-0.252,0.525
		c-0.073,0-0.136-0.052-0.22-0.21c-0.284-0.493-0.672-0.913-1.271-1.386L114.448,40.189z"/>
	<path d="M128.57,44.189c0.262,0.199,0.462,0.252,1.018,0.252c0.116,0,0.116,0,1.292-0.032c0.41-0.01,3.749-0.063,4.095-0.063
		c0.945,0,1.176,0.021,1.365,0.095c0.105,0.052,0.147,0.115,0.147,0.21c0,0.126-0.094,0.242-0.241,0.284
		c-0.284,0.094-0.536,0.105-2.52,0.126c-0.977,0.01-3.381,0.073-3.749,0.094c-0.494,0.032-0.588,0.042-0.756,0.137
		c-0.042,0.01-0.116,0.031-0.158,0.031c-0.157,0-0.325-0.115-0.504-0.346c-0.221-0.273-0.399-0.714-0.399-0.966
		c0-0.147,0.01-0.168,0.084-0.241C128.371,44.011,128.423,44.084,128.57,44.189z"/>
	<path d="M149.003,48.326c0.578-0.535,0.998-1.145,1.407-1.995c0.399-0.83,0.725-2.121,0.725-2.846c0-0.41-0.179-0.62-0.714-0.819
		c0.116-0.074,0.168-0.095,0.284-0.095c0.231,0,0.483,0.084,0.788,0.263c0.388,0.231,0.567,0.409,0.567,0.577
		c0,0.084-0.021,0.168-0.137,0.483c-0.01,0.042-0.01,0.042-0.105,0.367c-0.336,1.103-0.43,1.365-0.714,1.932
		c-0.504,0.998-1.092,1.669-1.984,2.247L149.003,48.326z M157.97,44.137c-0.326,0.557-0.599,0.903-1.145,1.48
		c-0.609,0.651-1.575,1.491-2.226,1.922c-0.2,0.136-0.504,0.378-0.599,0.472c-0.084,0.084-0.136,0.116-0.21,0.116
		c-0.241,0-0.63-0.546-0.63-0.872c0-0.021,0.021-0.126,0.073-0.326c0.063-0.241,0.095-1.176,0.095-2.845
		c0-2.384-0.042-2.52-0.809-2.688c0.105-0.126,0.179-0.158,0.336-0.158c0.252,0,0.578,0.116,0.924,0.326
		c0.304,0.189,0.43,0.336,0.43,0.483c0,0.053-0.01,0.095-0.084,0.284c-0.052,0.136-0.105,0.493-0.147,1.029
		c-0.042,0.441-0.136,2.761-0.136,3.161c0,0.136,0,0.252,0.021,0.483c1.218-0.473,2.761-1.638,3.969-2.972L157.97,44.137z"/>
	<path d="M106.457,69.526c-0.042,0.168-0.105,0.231-0.231,0.252c-0.21,0.042-0.714,0.084-1.008,0.084
		c-0.21,0-0.315-0.063-0.399-0.252c0.105-3.738,0.126-6.237,0.126-10.332c0-3.528-0.021-5.439-0.126-7.77
		c0.84,0.483,1.113,0.63,1.932,1.197h9.156c0.42-0.42,0.42-0.42,0.945-0.987c0.546,0.42,0.714,0.567,1.239,0.987
		c0.147,0.126,0.21,0.21,0.21,0.273c0,0.147-0.126,0.252-0.672,0.63c0,12.6,0,12.6,0.126,15.813
		c-0.042,0.189-0.084,0.252-0.189,0.315c-0.084,0.063-0.63,0.105-1.092,0.105c-0.189,0-0.252-0.063-0.315-0.252v-1.428h-9.702
		V69.526z M116.159,53.188h-9.702v4.368h9.702V53.188z M106.457,58.039v4.326h9.702v-4.326H106.457z M106.457,62.869v4.809h9.702
		v-4.809H106.457z"/>
	<path d="M128.969,55.141c0.336-0.378,0.42-0.504,0.756-0.882c0.462,0.357,0.609,0.483,1.092,0.882
		c0.147,0.147,0.21,0.21,0.21,0.294c0,0.126-0.126,0.21-0.714,0.504c-0.021,1.323-0.021,2.226-0.021,2.688
		c0,4.41,0.021,7.98,0.042,9.429c0,0.042,0,0.084,0,0.105c0,0.168-0.147,0.231-0.693,0.252c-0.168,0-0.273,0.021-0.336,0.021
		c-0.021,0-0.042,0-0.063,0c-0.189,0-0.273-0.063-0.273-0.21c0,0,0-0.042,0-0.063v-1.155h-3.738v1.764
		c-0.042,0.252-0.147,0.294-0.714,0.294c-0.042,0-0.126,0-0.273,0c-0.315,0-0.378-0.021-0.378-0.231
		c0.084-2.352,0.084-3.066,0.084-6.699c0-4.683-0.021-5.859-0.126-8.064c0.714,0.42,0.903,0.567,1.575,1.071h0.588
		c0.672-2.373,0.798-2.982,0.84-4.011c0.861,0.231,1.89,0.525,2.163,0.651c0.126,0.063,0.189,0.126,0.189,0.21
		c0,0.21-0.126,0.273-0.987,0.378c-0.63,1.26-0.945,1.743-1.764,2.772H128.969z M128.969,60.37v-4.746h-3.738v4.746H128.969z
		 M125.231,60.853v5.67h3.738v-5.67H125.231z M139.511,55.141c0.399-0.462,0.525-0.588,0.924-1.029
		c0.546,0.462,0.714,0.609,1.239,1.071c0.168,0.147,0.21,0.231,0.21,0.357c0,0.189-0.042,0.21-0.777,0.588
		c-0.105,4.872-0.126,5.334-0.462,7.959c-0.315,2.436-0.714,3.927-1.281,4.683c-0.399,0.525-0.693,0.651-2.457,0.966
		c-0.189-0.714-0.336-0.966-0.672-1.176c-0.189-0.126-0.546-0.231-1.092-0.315l-0.609-0.063c-0.21-0.021-0.399-0.042-0.588-0.084
		v-0.357c0.399,0.021,0.756,0.042,0.966,0.063c1.218,0.063,1.512,0.063,2.037,0.063c1.176,0,1.26-0.021,1.449-0.378
		c0.315-0.651,0.651-2.247,0.861-3.969c0.294-2.436,0.399-4.473,0.399-7.896h-5.691c-1.281,2.478-1.932,3.486-2.982,4.662
		l-0.273-0.168c1.008-1.659,1.617-3.024,2.289-5.019c0.546-1.68,0.84-2.877,0.945-4.095c0.945,0.21,1.974,0.483,2.226,0.588
		c0.147,0.042,0.21,0.126,0.21,0.21c0,0.168-0.168,0.252-0.966,0.441c-0.357,1.113-0.588,1.659-1.197,2.898H139.511z
		 M133.358,58.396c1.512,0.987,2.268,1.575,3.066,2.394c0.567,0.567,0.756,0.966,0.756,1.512c0,0.798-0.336,1.554-0.714,1.554
		c-0.168,0-0.315-0.147-0.441-0.483c-0.252-0.714-0.546-1.344-0.966-2.163c-0.588-1.155-0.966-1.68-1.869-2.604L133.358,58.396z"/>
	<path d="M148.226,57.64c0.42-0.546,0.546-0.735,0.966-1.26c0.777,0.735,0.777,0.735,1.512,1.428
		c0.063,0.084,0.105,0.147,0.105,0.189c0,0.063-0.084,0.126-0.189,0.126h-3.024v6.699c0.987-0.336,1.554-0.567,3.129-1.197
		l0.147,0.273c-1.092,0.735-1.554,0.987-2.961,1.743c-1.659,0.861-1.743,0.924-3.003,1.596c-0.042,0.21-0.063,0.378-0.084,0.483
		c-0.063,0.336-0.168,0.504-0.294,0.504c-0.189,0-0.189,0-0.819-2.226c0.735-0.147,0.735-0.147,2.541-0.735v-7.14h-1.197
		c-0.483,0-0.882,0.042-1.344,0.126l-0.147-0.756c0.399,0.105,0.924,0.147,1.491,0.147h1.197v-3.423c0-0.651-0.021-0.903-0.126-2.73
		c2.037,0.231,2.352,0.315,2.352,0.546c0,0.147-0.231,0.273-0.882,0.441v5.166H148.226z M155.366,57.451
		c-0.021-5.04-0.021-5.04-0.105-6.321c1.995,0.273,1.995,0.273,2.205,0.399c0.042,0.021,0.105,0.105,0.105,0.168
		c0,0.147-0.084,0.189-0.903,0.504v4.767l2.961-1.092c0.231-0.504,0.315-0.651,0.567-1.092c0.693,0.378,0.903,0.504,1.533,0.861
		c0.189,0.168,0.21,0.21,0.21,0.294c0,0.126-0.252,0.378-0.693,0.672c-0.126,3.78-0.252,5.544-0.504,6.72
		c-0.105,0.525-0.357,0.945-0.735,1.197c-0.315,0.21-0.609,0.294-1.344,0.42c-0.084-0.882-0.441-1.218-1.659-1.428v-0.336
		c0.777,0.084,1.344,0.126,1.743,0.126c0.609,0,0.714-0.147,0.861-1.344c0.189-1.533,0.252-2.919,0.252-5.67l-3.192,1.197v3.549
		c0,1.953,0.021,2.73,0.084,4.851c-0.021,0.273-0.273,0.357-1.029,0.357c-0.294,0-0.399-0.063-0.42-0.273
		c0.042-3.906,0.063-4.683,0.063-6.342v-1.659l-2.562,0.945v8.568c0,0.294,0.021,0.378,0.126,0.42
		c0.189,0.105,1.218,0.147,2.898,0.147c1.197,0,3.444-0.042,3.864-0.063c0.777-0.042,0.861-0.084,1.092-0.609
		c0.336-0.798,0.819-2.289,1.323-4.095l0.315,0.042l-0.315,3.696c-0.042,0.336-0.042,0.336-0.042,0.357
		c0,0.189,0.042,0.231,0.462,0.441c0.168,0.084,0.273,0.231,0.273,0.441c0,0.441-0.483,0.798-1.239,0.903
		c-0.63,0.084-0.63,0.084-3.444,0.126c-2.163,0.021-2.268,0.021-2.667,0.021c-3.57,0-3.948-0.126-4.011-1.407l0.042-4.662v-3.843
		l-0.777,0.294c-0.567,0.21-0.819,0.336-1.26,0.651l-0.42-0.651c0.567-0.105,0.672-0.147,1.512-0.462l0.945-0.336v-2.751
		c0-1.155-0.021-1.617-0.084-2.646c2.079,0.273,2.268,0.315,2.268,0.546c0,0.168-0.231,0.294-0.861,0.483v3.864L155.366,57.451z"/>
</g>
<g>
	<path d="M108.63,82.126c0.168,0.115,0.326,0.157,0.599,0.157c0.21,0,0.42-0.01,0.735-0.052c2.867-0.336,2.867-0.336,3.098-0.441
		c0.105-0.042,0.158-0.063,0.2-0.063c0.105,0,0.346,0.147,0.609,0.388c0.252,0.231,0.378,0.389,0.378,0.504
		c0,0.074-0.031,0.116-0.105,0.189c-0.189,0.189-0.231,0.357-0.746,3.139c0.042,0.042,0.074,0.063,0.084,0.084
		c0.294,0.242,0.368,0.347,0.368,0.494c0,0.105-0.084,0.168-0.242,0.168c-0.042,0-0.042,0-0.262-0.032
		c-0.305-0.042-0.588-0.063-0.914-0.063c-1.218,0-2.772,0.242-3.381,0.525c-0.063,0.031-0.158,0.052-0.21,0.052
		c-0.347,0-0.977-0.788-0.977-1.229c0-0.052,0.01-0.094,0.052-0.189c0.336,0.473,0.599,0.641,0.987,0.641
		c0.063,0,0.735-0.063,2.026-0.189c0.924-0.095,1.05-0.105,1.795-0.137c0.105-0.514,0.168-0.945,0.284-1.932
		c0.052-0.43,0.147-1.449,0.147-1.585c0-0.147-0.074-0.189-0.294-0.189c-0.147,0-1.071,0.084-1.407,0.126
		c-0.746,0.095-1.438,0.252-2.163,0.494c-0.063,0.021-0.126,0.032-0.189,0.032c-0.22,0-0.452-0.189-0.704-0.567
		c-0.157-0.241-0.262-0.483-0.262-0.63c0-0.042,0.01-0.094,0.052-0.189C108.326,81.853,108.452,81.989,108.63,82.126z
		 M113.376,80.142c0.714,0.304,1.134,0.556,1.396,0.819c0.2,0.189,0.263,0.325,0.263,0.567c0,0.294-0.105,0.504-0.263,0.504
		c-0.094,0-0.157-0.063-0.252-0.231c-0.347-0.662-0.672-1.061-1.218-1.543L113.376,80.142z M114.448,79.564
		c0.577,0.21,1.008,0.409,1.302,0.63c0.273,0.189,0.357,0.336,0.357,0.567c0,0.284-0.115,0.525-0.252,0.525
		c-0.073,0-0.136-0.052-0.22-0.21c-0.284-0.493-0.672-0.913-1.271-1.386L114.448,79.564z"/>
	<path d="M128.57,83.564c0.262,0.199,0.462,0.252,1.018,0.252c0.116,0,0.116,0,1.292-0.032c0.41-0.01,3.749-0.063,4.095-0.063
		c0.945,0,1.176,0.021,1.365,0.095c0.105,0.052,0.147,0.115,0.147,0.21c0,0.126-0.094,0.242-0.241,0.284
		c-0.284,0.094-0.536,0.105-2.52,0.126c-0.977,0.01-3.381,0.073-3.749,0.094c-0.494,0.032-0.588,0.042-0.756,0.137
		c-0.042,0.01-0.116,0.031-0.158,0.031c-0.157,0-0.325-0.115-0.504-0.346c-0.221-0.273-0.399-0.714-0.399-0.966
		c0-0.147,0.01-0.168,0.084-0.241C128.371,83.386,128.423,83.459,128.57,83.564z"/>
	<path d="M149.003,87.701c0.578-0.535,0.998-1.145,1.407-1.995c0.399-0.83,0.725-2.121,0.725-2.846c0-0.41-0.179-0.62-0.714-0.819
		c0.116-0.074,0.168-0.095,0.284-0.095c0.231,0,0.483,0.084,0.788,0.263c0.388,0.231,0.567,0.409,0.567,0.577
		c0,0.084-0.021,0.168-0.137,0.483c-0.01,0.042-0.01,0.042-0.105,0.367c-0.336,1.103-0.43,1.365-0.714,1.932
		c-0.504,0.998-1.092,1.669-1.984,2.247L149.003,87.701z M157.97,83.512c-0.326,0.557-0.599,0.903-1.145,1.48
		c-0.609,0.651-1.575,1.491-2.226,1.922c-0.2,0.136-0.504,0.378-0.599,0.472c-0.084,0.084-0.136,0.116-0.21,0.116
		c-0.241,0-0.63-0.546-0.63-0.872c0-0.021,0.021-0.126,0.073-0.326c0.063-0.241,0.095-1.176,0.095-2.845
		c0-2.384-0.042-2.52-0.809-2.688c0.105-0.126,0.179-0.158,0.336-0.158c0.252,0,0.578,0.116,0.924,0.326
		c0.304,0.189,0.43,0.336,0.43,0.483c0,0.053-0.01,0.095-0.084,0.284c-0.052,0.136-0.105,0.493-0.147,1.029
		c-0.042,0.441-0.136,2.761-0.136,3.161c0,0.136,0,0.252,0.021,0.483c1.218-0.473,2.761-1.638,3.969-2.972L157.97,83.512z"/>
	<path d="M106.457,108.901c-0.042,0.168-0.105,0.231-0.231,0.252c-0.21,0.042-0.714,0.084-1.008,0.084
		c-0.21,0-0.315-0.063-0.399-0.252c0.105-3.738,0.126-6.237,0.126-10.332c0-3.528-0.021-5.439-0.126-7.77
		c0.84,0.483,1.113,0.63,1.932,1.197h9.156c0.42-0.42,0.42-0.42,0.945-0.987c0.546,0.42,0.714,0.567,1.239,0.987
		c0.147,0.126,0.21,0.21,0.21,0.273c0,0.147-0.126,0.252-0.672,0.63c0,12.6,0,12.6,0.126,15.813
		c-0.042,0.189-0.084,0.252-0.189,0.315c-0.084,0.063-0.63,0.105-1.092,0.105c-0.189,0-0.252-0.063-0.315-0.252v-1.428h-9.702
		V108.901z M116.159,92.563h-9.702v4.368h9.702V92.563z M106.457,97.414v4.326h9.702v-4.326H106.457z M106.457,102.244v4.809h9.702
		v-4.809H106.457z"/>
	<path d="M128.969,94.516c0.336-0.378,0.42-0.504,0.756-0.882c0.462,0.357,0.609,0.483,1.092,0.882
		c0.147,0.147,0.21,0.21,0.21,0.294c0,0.126-0.126,0.21-0.714,0.504c-0.021,1.323-0.021,2.226-0.021,2.688
		c0,4.41,0.021,7.98,0.042,9.429c0,0.042,0,0.084,0,0.105c0,0.168-0.147,0.231-0.693,0.252c-0.168,0-0.273,0.021-0.336,0.021
		c-0.021,0-0.042,0-0.063,0c-0.189,0-0.273-0.063-0.273-0.21c0,0,0-0.042,0-0.063v-1.155h-3.738v1.764
		c-0.042,0.252-0.147,0.294-0.714,0.294c-0.042,0-0.126,0-0.273,0c-0.315,0-0.378-0.021-0.378-0.231
		c0.084-2.352,0.084-3.066,0.084-6.699c0-4.683-0.021-5.859-0.126-8.064c0.714,0.42,0.903,0.567,1.575,1.071h0.588
		c0.672-2.373,0.798-2.982,0.84-4.011c0.861,0.231,1.89,0.525,2.163,0.651c0.126,0.063,0.189,0.126,0.189,0.21
		c0,0.21-0.126,0.273-0.987,0.378c-0.63,1.26-0.945,1.743-1.764,2.772H128.969z M128.969,99.745v-4.746h-3.738v4.746H128.969z
		 M125.231,100.228v5.67h3.738v-5.67H125.231z M139.511,94.516c0.399-0.462,0.525-0.588,0.924-1.029
		c0.546,0.462,0.714,0.609,1.239,1.071c0.168,0.147,0.21,0.231,0.21,0.357c0,0.189-0.042,0.21-0.777,0.588
		c-0.105,4.872-0.126,5.334-0.462,7.959c-0.315,2.436-0.714,3.927-1.281,4.683c-0.399,0.525-0.693,0.651-2.457,0.966
		c-0.189-0.714-0.336-0.966-0.672-1.176c-0.189-0.126-0.546-0.231-1.092-0.315l-0.609-0.063c-0.21-0.021-0.399-0.042-0.588-0.084
		v-0.357c0.399,0.021,0.756,0.042,0.966,0.063c1.218,0.063,1.512,0.063,2.037,0.063c1.176,0,1.26-0.021,1.449-0.378
		c0.315-0.651,0.651-2.247,0.861-3.969c0.294-2.436,0.399-4.473,0.399-7.896h-5.691c-1.281,2.478-1.932,3.486-2.982,4.662
		l-0.273-0.168c1.008-1.659,1.617-3.024,2.289-5.019c0.546-1.68,0.84-2.877,0.945-4.095c0.945,0.21,1.974,0.483,2.226,0.588
		c0.147,0.042,0.21,0.126,0.21,0.21c0,0.168-0.168,0.252-0.966,0.441c-0.357,1.113-0.588,1.659-1.197,2.898H139.511z
		 M133.358,97.771c1.512,0.987,2.268,1.575,3.066,2.394c0.567,0.567,0.756,0.966,0.756,1.512c0,0.798-0.336,1.554-0.714,1.554
		c-0.168,0-0.315-0.147-0.441-0.483c-0.252-0.714-0.546-1.344-0.966-2.163c-0.588-1.155-0.966-1.68-1.869-2.604L133.358,97.771z"/>
	<path d="M148.226,97.015c0.42-0.546,0.546-0.735,0.966-1.26c0.777,0.735,0.777,0.735,1.512,1.428
		c0.063,0.084,0.105,0.147,0.105,0.189c0,0.063-0.084,0.126-0.189,0.126h-3.024v6.699c0.987-0.336,1.554-0.567,3.129-1.197
		l0.147,0.273c-1.092,0.735-1.554,0.987-2.961,1.743c-1.659,0.861-1.743,0.924-3.003,1.596c-0.042,0.21-0.063,0.378-0.084,0.483
		c-0.063,0.336-0.168,0.504-0.294,0.504c-0.189,0-0.189,0-0.819-2.226c0.735-0.147,0.735-0.147,2.541-0.735v-7.14h-1.197
		c-0.483,0-0.882,0.042-1.344,0.126l-0.147-0.756c0.399,0.105,0.924,0.147,1.491,0.147h1.197v-3.423c0-0.651-0.021-0.903-0.126-2.73
		c2.037,0.231,2.352,0.315,2.352,0.546c0,0.147-0.231,0.273-0.882,0.441v5.166H148.226z M155.366,96.826
		c-0.021-5.04-0.021-5.04-0.105-6.321c1.995,0.273,1.995,0.273,2.205,0.399c0.042,0.021,0.105,0.105,0.105,0.168
		c0,0.147-0.084,0.189-0.903,0.504v4.767l2.961-1.092c0.231-0.504,0.315-0.651,0.567-1.092c0.693,0.378,0.903,0.504,1.533,0.861
		c0.189,0.168,0.21,0.21,0.21,0.294c0,0.126-0.252,0.378-0.693,0.672c-0.126,3.78-0.252,5.544-0.504,6.72
		c-0.105,0.525-0.357,0.945-0.735,1.197c-0.315,0.21-0.609,0.294-1.344,0.42c-0.084-0.882-0.441-1.218-1.659-1.428v-0.336
		c0.777,0.084,1.344,0.126,1.743,0.126c0.609,0,0.714-0.147,0.861-1.344c0.189-1.533,0.252-2.919,0.252-5.67l-3.192,1.197v3.549
		c0,1.953,0.021,2.73,0.084,4.851c-0.021,0.273-0.273,0.357-1.029,0.357c-0.294,0-0.399-0.063-0.42-0.273
		c0.042-3.906,0.063-4.683,0.063-6.342v-1.659l-2.562,0.945v8.568c0,0.294,0.021,0.378,0.126,0.42
		c0.189,0.105,1.218,0.147,2.898,0.147c1.197,0,3.444-0.042,3.864-0.063c0.777-0.042,0.861-0.084,1.092-0.609
		c0.336-0.798,0.819-2.289,1.323-4.095l0.315,0.042l-0.315,3.696c-0.042,0.336-0.042,0.336-0.042,0.357
		c0,0.189,0.042,0.231,0.462,0.441c0.168,0.084,0.273,0.231,0.273,0.441c0,0.441-0.483,0.798-1.239,0.903
		c-0.63,0.084-0.63,0.084-3.444,0.126c-2.163,0.021-2.268,0.021-2.667,0.021c-3.57,0-3.948-0.126-4.011-1.407l0.042-4.662v-3.843
		l-0.777,0.294c-0.567,0.21-0.819,0.336-1.26,0.651l-0.42-0.651c0.567-0.105,0.672-0.147,1.512-0.462l0.945-0.336v-2.751
		c0-1.155-0.021-1.617-0.084-2.646c2.079,0.273,2.268,0.315,2.268,0.546c0,0.168-0.231,0.294-0.861,0.483v3.864L155.366,96.826z"/>
</g>
<rect x="100.313" y="49.955" fill="none" stroke="#008CD6" stroke-width="0.5" width="63" height="21"/>
<line fill="none" stroke="#008CD6" stroke-width="0.5" x1="121.313" y1="70.955" x2="121.313" y2="49.955"/>
<line fill="none" stroke="#008CD6" stroke-width="0.5" x1="142.313" y1="70.955" x2="142.313" y2="49.955"/>
<polyline fill="none" stroke="#008CD6" stroke-width="0.5" points="105.563,49.955 105.563,39.455 116.063,39.455 116.063,49.955 
	"/>
<polyline fill="none" stroke="#008CD6" stroke-width="0.5" points="126.563,49.955 126.563,39.455 137.063,39.455 137.063,49.955 
	"/>
<polyline fill="none" stroke="#008CD6" stroke-width="0.5" points="147.563,49.955 147.563,39.455 158.063,39.455 158.063,49.955 
	"/>
<g>
	<path fill="#008CD6" d="M90,0.12c0.312,0.048,0.54,0.06,0.996,0.06h0.756c0.408,0,0.6-0.012,0.996-0.06
		c-0.072,0.732-0.108,1.344-0.108,1.992v5.832c0,0.564,0.024,0.912,0.096,1.356h-1.14c0.072-0.42,0.096-0.804,0.096-1.356V0.996
		h-0.648c-0.384,0-0.696,0.024-1.044,0.072V0.12z"/>
	<path fill="#008CD6" d="M101.4,0.18l-4.32,10.98h-0.9l4.332-10.98H101.4z"/>
	<path fill="#008CD6" d="M103.667,9.3c-0.756,0-0.936,0.012-1.32,0.06c0.132-0.948,0.168-1.128,0.348-1.584
		c0.3-0.756,0.804-1.416,1.56-2.064c0.42-0.36,0.444-0.372,1.836-1.32c1.188-0.804,1.584-1.332,1.584-2.064
		c0-0.912-0.768-1.5-1.992-1.5c-0.792,0-1.38,0.264-1.74,0.78c-0.228,0.324-0.336,0.612-0.42,1.212l-1.008-0.168
		c0.18-0.864,0.36-1.284,0.756-1.728C103.812,0.312,104.627,0,105.684,0c1.812,0,2.976,0.912,2.976,2.328
		c0,0.612-0.24,1.188-0.708,1.704c-0.36,0.408-0.672,0.636-2.04,1.548c-0.948,0.636-1.332,0.972-1.728,1.476
		c-0.372,0.492-0.54,0.816-0.684,1.392h3.828c0.6,0,1.008-0.024,1.464-0.084v1.008c-0.48-0.048-0.876-0.072-1.476-0.072H103.667z"/>
	<path fill="#008CD6" d="M115.007,7.38c0.084,0.444,0.18,0.66,0.42,0.876c0.3,0.276,0.78,0.42,1.392,0.42
		c1.044,0,1.704-0.444,1.704-1.152c0-0.336-0.12-0.588-0.372-0.744c-0.288-0.18-0.528-0.252-1.416-0.432
		c-0.96-0.204-1.368-0.348-1.776-0.624c-0.42-0.288-0.648-0.732-0.648-1.26c0-0.432,0.18-0.84,0.516-1.164
		c0.42-0.408,1.068-0.624,1.872-0.624c0.816,0,1.452,0.192,1.884,0.576c0.312,0.264,0.48,0.54,0.636,1.092L118.271,4.5
		c-0.072-0.324-0.132-0.468-0.3-0.636c-0.276-0.3-0.708-0.456-1.248-0.456c-0.876,0-1.5,0.444-1.5,1.08
		c0,0.276,0.144,0.516,0.408,0.66c0.276,0.156,0.588,0.252,1.332,0.408c1.164,0.264,1.548,0.408,1.908,0.684
		c0.372,0.3,0.576,0.756,0.576,1.248c0,1.2-1.02,1.944-2.664,1.944c-1.092,0-1.932-0.324-2.376-0.936
		c-0.18-0.252-0.264-0.456-0.384-0.948L115.007,7.38z"/>
	<path fill="#008CD6" d="M121.967,0.18v1.068h-1.164V0.18H121.967z M121.919,2.832c-0.06,0.42-0.084,0.756-0.084,1.356v3.756
		c0,0.552,0.024,0.888,0.084,1.356h-1.08c0.06-0.516,0.084-0.852,0.084-1.356V4.188c0-0.576-0.024-0.936-0.084-1.356H121.919z"/>
	<path fill="#008CD6" d="M128.184,3.516c-0.3,0.324-0.504,0.576-0.804,0.984l-2.58,3.444c-0.024,0.024-0.204,0.252-0.456,0.564
		c0.588-0.024,0.624-0.024,0.828-0.024h1.896c0.624,0,0.96-0.024,1.356-0.084v0.984c-0.432-0.06-0.744-0.084-1.356-0.084h-2.544
		c-0.744,0-0.996,0.012-1.332,0.036V8.544c0.264-0.276,0.504-0.552,0.816-0.972l2.64-3.528c0.132-0.18,0.216-0.276,0.36-0.432
		c-0.324,0.024-0.432,0.024-0.6,0.024h-1.632c-0.504,0-0.888,0.024-1.344,0.084V2.748c0.468,0.06,0.816,0.084,1.344,0.084h2.136
		c0.744,0,0.936,0,1.272-0.036V3.516z"/>
	<path fill="#008CD6" d="M130.259,6.204c0.036,0.804,0.156,1.248,0.48,1.68c0.384,0.528,0.972,0.816,1.692,0.816
		c0.972,0,1.644-0.48,1.98-1.404l0.84,0.336c-0.228,0.504-0.384,0.72-0.66,0.996c-0.564,0.552-1.296,0.84-2.172,0.84
		c-1.884,0-3.072-1.32-3.072-3.396c0-2.052,1.176-3.396,2.976-3.396c1.548,0,2.664,0.996,2.904,2.604
		c0.012,0.132,0.06,0.6,0.084,0.924H130.259z M134.352,5.448c-0.072-0.672-0.252-1.104-0.636-1.476
		c-0.372-0.36-0.84-0.54-1.416-0.54c-0.732,0-1.344,0.372-1.704,1.044c-0.168,0.3-0.228,0.516-0.3,0.972H134.352z"/>
	<path fill="#008CD6" d="M140.4,6.072c0-2.076,1.248-3.396,3.204-3.396s3.192,1.32,3.192,3.384c0,2.052-1.248,3.396-3.18,3.396
		C141.647,9.456,140.4,8.148,140.4,6.072z M141.324,6.048c0,1.632,0.876,2.628,2.28,2.628c1.404,0,2.268-0.996,2.268-2.616
		s-0.864-2.628-2.244-2.628C142.2,3.432,141.324,4.428,141.324,6.048z"/>
	<path fill="#008CD6" d="M148.572,3.6c-0.42,0-0.72,0.024-1.092,0.072V2.76c0.324,0.048,0.612,0.072,1.092,0.072h0.492V2.124
		c0-0.732,0.096-1.116,0.372-1.464c0.288-0.372,0.84-0.588,1.512-0.588c0.468,0,0.84,0.072,1.272,0.24l-0.252,0.804
		c-0.324-0.192-0.624-0.276-0.996-0.276c-0.384,0-0.66,0.108-0.816,0.324c-0.132,0.192-0.18,0.444-0.18,1.008v0.66h0.6
		c0.516,0,0.828-0.012,1.272-0.072v0.912c-0.408-0.06-0.684-0.072-1.272-0.072h-0.6v4.356c0,0.564,0.024,0.9,0.084,1.344h-1.08
		c0.06-0.444,0.084-0.852,0.084-1.356V3.6H148.572z"/>
	<path fill="#008CD6" d="M157.2,9.3c0.06-0.456,0.084-0.804,0.084-1.38V1.536c0-0.504-0.024-0.888-0.084-1.356h1.056
		c-0.06,0.444-0.084,0.792-0.084,1.368v1.62c0,0.324-0.012,0.54-0.048,0.852c0.564-0.888,1.38-1.32,2.472-1.32
		c1.848,0,2.952,1.248,2.952,3.336c0,2.112-1.128,3.384-3,3.384c-0.756,0-1.308-0.192-1.86-0.648
		c-0.264-0.204-0.372-0.336-0.564-0.624c0.024,0.228,0.036,0.324,0.036,0.48V9.3H157.2z M160.524,3.468
		c-1.416,0-2.352,1.032-2.352,2.568c0,1.548,0.936,2.604,2.316,2.604c1.344,0,2.136-0.972,2.136-2.616
		C162.624,4.404,161.855,3.468,160.524,3.468z"/>
	<path fill="#008CD6" d="M169.224,8.448c-0.468,0.42-0.696,0.576-1.104,0.732c-0.408,0.156-0.84,0.24-1.248,0.24
		c-1.32,0-2.124-0.684-2.124-1.824c0-0.96,0.6-1.656,1.716-1.968c0.708-0.204,1.284-0.276,2.76-0.312V4.62
		c0-0.816-0.516-1.236-1.512-1.236c-0.66,0-1.152,0.168-1.488,0.516c-0.156,0.168-0.252,0.336-0.372,0.696l-0.936-0.204
		c0.216-0.552,0.372-0.804,0.672-1.068C166.08,2.868,166.8,2.64,167.7,2.64c1.584,0,2.4,0.672,2.4,1.968V7.98
		c0,0.54,0.024,0.84,0.096,1.32h-0.972V8.448z M169.224,6.024c-1.428,0.036-2.112,0.12-2.652,0.348
		c-0.612,0.252-0.912,0.66-0.912,1.236c0,0.66,0.492,1.08,1.272,1.08c0.696,0,1.452-0.336,1.92-0.852
		c0.276-0.3,0.372-0.552,0.372-1.032V6.024z"/>
	<path fill="#008CD6" d="M172.487,7.38c0.084,0.444,0.18,0.66,0.42,0.876c0.3,0.276,0.78,0.42,1.392,0.42
		c1.044,0,1.704-0.444,1.704-1.152c0-0.336-0.12-0.588-0.372-0.744c-0.288-0.18-0.528-0.252-1.416-0.432
		c-0.96-0.204-1.368-0.348-1.776-0.624c-0.42-0.288-0.648-0.732-0.648-1.26c0-0.432,0.18-0.84,0.516-1.164
		c0.42-0.408,1.068-0.624,1.872-0.624c0.816,0,1.452,0.192,1.884,0.576c0.312,0.264,0.48,0.54,0.636,1.092L175.751,4.5
		c-0.072-0.324-0.132-0.468-0.3-0.636c-0.276-0.3-0.708-0.456-1.248-0.456c-0.876,0-1.5,0.444-1.5,1.08
		c0,0.276,0.144,0.516,0.408,0.66c0.276,0.156,0.588,0.252,1.332,0.408c1.164,0.264,1.548,0.408,1.908,0.684
		c0.372,0.3,0.576,0.756,0.576,1.248c0,1.2-1.02,1.944-2.664,1.944c-1.092,0-1.932-0.324-2.376-0.936
		c-0.18-0.252-0.264-0.456-0.384-0.948L172.487,7.38z"/>
	<path fill="#008CD6" d="M178.907,6.204c0.036,0.804,0.156,1.248,0.48,1.68c0.384,0.528,0.972,0.816,1.692,0.816
		c0.972,0,1.644-0.48,1.98-1.404l0.84,0.336c-0.228,0.504-0.384,0.72-0.66,0.996c-0.564,0.552-1.296,0.84-2.172,0.84
		c-1.884,0-3.072-1.32-3.072-3.396c0-2.052,1.176-3.396,2.976-3.396c1.548,0,2.664,0.996,2.904,2.604
		c0.012,0.132,0.06,0.6,0.084,0.924H178.907z M183,5.448c-0.072-0.672-0.252-1.104-0.636-1.476c-0.372-0.36-0.84-0.54-1.416-0.54
		c-0.732,0-1.344,0.372-1.704,1.044c-0.168,0.3-0.228,0.516-0.3,0.972H183z"/>
</g>
<g>
	<path fill="#008CD6" d="M170.5,23.619c0.312,0.048,0.54,0.06,0.996,0.06h0.756c0.408,0,0.6-0.012,0.996-0.06
		c-0.072,0.732-0.108,1.344-0.108,1.992v5.832c0,0.564,0.024,0.912,0.096,1.356h-1.14c0.072-0.42,0.096-0.804,0.096-1.356v-6.948
		h-0.648c-0.384,0-0.696,0.024-1.044,0.072V23.619z"/>
	<path fill="#008CD6" d="M181.9,23.679l-4.32,10.98h-0.9l4.332-10.98H181.9z"/>
	<path fill="#008CD6" d="M182.512,29.619c0.252-0.288,0.528-0.624,0.78-0.924l3.036-3.792c0.408-0.504,0.624-0.804,0.9-1.224h0.9
		c-0.06,0.708-0.072,1.08-0.072,2.028v3.936h0.456c0.504,0,0.816-0.024,1.248-0.084v0.996c-0.444-0.06-0.744-0.084-1.26-0.084
		h-0.444v1.032c0,0.576,0.024,0.852,0.096,1.296h-1.092c0.072-0.42,0.096-0.756,0.096-1.296v-1.032h-3.216
		c-0.672,0-1.032,0.012-1.428,0.048V29.619z M187.168,26.607c0-0.636,0.012-1.02,0.072-1.632c-0.252,0.36-0.552,0.756-0.9,1.2
		l-2.76,3.48h3.588V26.607z"/>
	<path fill="#008CD6" d="M195.556,30.879c0.084,0.444,0.18,0.66,0.42,0.876c0.3,0.276,0.78,0.42,1.392,0.42
		c1.044,0,1.704-0.444,1.704-1.152c0-0.336-0.12-0.588-0.372-0.744c-0.288-0.18-0.527-0.252-1.416-0.432
		c-0.96-0.204-1.368-0.348-1.775-0.624c-0.421-0.288-0.648-0.732-0.648-1.26c0-0.432,0.18-0.84,0.516-1.164
		c0.42-0.408,1.068-0.624,1.872-0.624c0.816,0,1.452,0.192,1.885,0.576c0.312,0.264,0.479,0.54,0.636,1.092l-0.948,0.156
		c-0.072-0.324-0.132-0.468-0.3-0.636c-0.276-0.3-0.708-0.456-1.248-0.456c-0.876,0-1.5,0.444-1.5,1.08
		c0,0.276,0.144,0.516,0.408,0.66c0.275,0.156,0.588,0.252,1.332,0.408c1.164,0.264,1.548,0.408,1.907,0.684
		c0.372,0.3,0.576,0.756,0.576,1.248c0,1.2-1.02,1.944-2.664,1.944c-1.092,0-1.932-0.324-2.376-0.936
		c-0.18-0.252-0.264-0.456-0.384-0.948L195.556,30.879z"/>
	<path fill="#008CD6" d="M202.516,23.679v1.068h-1.164v-1.068H202.516z M202.468,26.331c-0.06,0.42-0.084,0.756-0.084,1.356v3.756
		c0,0.552,0.024,0.888,0.084,1.356h-1.08c0.06-0.516,0.084-0.852,0.084-1.356v-3.756c0-0.576-0.024-0.936-0.084-1.356H202.468z"/>
	<path fill="#008CD6" d="M208.732,27.015c-0.3,0.324-0.504,0.576-0.805,0.984l-2.579,3.444c-0.024,0.024-0.204,0.252-0.456,0.564
		c0.588-0.024,0.624-0.024,0.827-0.024h1.896c0.624,0,0.96-0.024,1.356-0.084v0.984c-0.433-0.06-0.744-0.084-1.356-0.084h-2.544
		c-0.744,0-0.996,0.012-1.332,0.036v-0.792c0.264-0.276,0.504-0.552,0.816-0.972l2.64-3.528c0.132-0.18,0.216-0.276,0.36-0.432
		c-0.324,0.024-0.433,0.024-0.601,0.024h-1.632c-0.504,0-0.888,0.024-1.344,0.084v-0.972c0.468,0.06,0.815,0.084,1.344,0.084h2.136
		c0.744,0,0.937,0,1.272-0.036V27.015z"/>
	<path fill="#008CD6" d="M210.807,29.703c0.036,0.804,0.156,1.248,0.48,1.68c0.384,0.528,0.972,0.816,1.691,0.816
		c0.973,0,1.645-0.48,1.98-1.404l0.84,0.336c-0.228,0.504-0.384,0.72-0.66,0.996c-0.563,0.552-1.296,0.84-2.172,0.84
		c-1.884,0-3.072-1.32-3.072-3.396c0-2.052,1.176-3.396,2.977-3.396c1.548,0,2.664,0.996,2.903,2.604
		c0.013,0.132,0.061,0.6,0.084,0.924H210.807z M214.899,28.947c-0.071-0.672-0.252-1.104-0.636-1.476
		c-0.372-0.36-0.84-0.54-1.416-0.54c-0.731,0-1.344,0.372-1.704,1.044c-0.168,0.3-0.228,0.516-0.3,0.972H214.899z"/>
	<path fill="#008CD6" d="M220.947,29.571c0-2.076,1.248-3.396,3.204-3.396s3.192,1.32,3.192,3.384c0,2.052-1.248,3.396-3.181,3.396
		C222.195,32.955,220.947,31.647,220.947,29.571z M221.871,29.547c0,1.632,0.876,2.628,2.28,2.628s2.269-0.996,2.269-2.616
		s-0.864-2.628-2.244-2.628C222.747,26.931,221.871,27.927,221.871,29.547z"/>
	<path fill="#008CD6" d="M229.119,27.099c-0.42,0-0.72,0.024-1.092,0.072v-0.912c0.324,0.048,0.612,0.072,1.092,0.072h0.492v-0.708
		c0-0.732,0.097-1.116,0.372-1.464c0.288-0.372,0.84-0.588,1.512-0.588c0.469,0,0.841,0.072,1.272,0.24l-0.252,0.804
		c-0.324-0.192-0.624-0.276-0.996-0.276c-0.384,0-0.66,0.108-0.816,0.324c-0.132,0.192-0.18,0.444-0.18,1.008v0.66h0.6
		c0.517,0,0.828-0.012,1.272-0.072v0.912c-0.408-0.06-0.684-0.072-1.272-0.072h-0.6v4.356c0,0.564,0.024,0.9,0.084,1.344h-1.08
		c0.061-0.444,0.084-0.852,0.084-1.356v-4.344H229.119z"/>
	<path fill="#008CD6" d="M237.747,32.799c0.061-0.456,0.084-0.804,0.084-1.38v-6.384c0-0.504-0.023-0.888-0.084-1.356h1.057
		c-0.061,0.444-0.084,0.792-0.084,1.368v1.62c0,0.324-0.012,0.54-0.048,0.852c0.563-0.888,1.38-1.32,2.472-1.32
		c1.848,0,2.952,1.248,2.952,3.336c0,2.112-1.128,3.384-3,3.384c-0.756,0-1.309-0.192-1.86-0.648
		c-0.264-0.204-0.372-0.336-0.563-0.624c0.023,0.228,0.036,0.324,0.036,0.48v0.672H237.747z M241.071,26.967
		c-1.416,0-2.352,1.032-2.352,2.568c0,1.548,0.936,2.604,2.315,2.604c1.345,0,2.137-0.972,2.137-2.616
		C243.171,27.903,242.403,26.967,241.071,26.967z"/>
	<path fill="#008CD6" d="M249.771,31.947c-0.468,0.42-0.696,0.576-1.104,0.732c-0.407,0.156-0.84,0.24-1.247,0.24
		c-1.32,0-2.124-0.684-2.124-1.824c0-0.96,0.6-1.656,1.716-1.968c0.708-0.204,1.284-0.276,2.76-0.312v-0.696
		c0-0.816-0.516-1.236-1.512-1.236c-0.66,0-1.152,0.168-1.488,0.516c-0.156,0.168-0.252,0.336-0.372,0.696l-0.936-0.204
		c0.216-0.552,0.372-0.804,0.672-1.068c0.492-0.456,1.212-0.684,2.111-0.684c1.584,0,2.4,0.672,2.4,1.968v3.372
		c0,0.54,0.024,0.84,0.096,1.32h-0.972V31.947z M249.771,29.523c-1.428,0.036-2.112,0.12-2.652,0.348
		c-0.611,0.252-0.912,0.66-0.912,1.236c0,0.66,0.492,1.08,1.272,1.08c0.696,0,1.452-0.336,1.92-0.852
		c0.276-0.3,0.372-0.552,0.372-1.032V29.523z"/>
	<path fill="#008CD6" d="M253.036,30.879c0.084,0.444,0.18,0.66,0.42,0.876c0.3,0.276,0.78,0.42,1.392,0.42
		c1.044,0,1.704-0.444,1.704-1.152c0-0.336-0.12-0.588-0.372-0.744c-0.288-0.18-0.527-0.252-1.416-0.432
		c-0.96-0.204-1.368-0.348-1.775-0.624c-0.421-0.288-0.648-0.732-0.648-1.26c0-0.432,0.18-0.84,0.516-1.164
		c0.42-0.408,1.068-0.624,1.872-0.624c0.816,0,1.452,0.192,1.885,0.576c0.312,0.264,0.479,0.54,0.636,1.092l-0.948,0.156
		c-0.072-0.324-0.132-0.468-0.3-0.636c-0.276-0.3-0.708-0.456-1.248-0.456c-0.876,0-1.5,0.444-1.5,1.08
		c0,0.276,0.144,0.516,0.408,0.66c0.275,0.156,0.588,0.252,1.332,0.408c1.164,0.264,1.548,0.408,1.907,0.684
		c0.372,0.3,0.576,0.756,0.576,1.248c0,1.2-1.02,1.944-2.664,1.944c-1.092,0-1.932-0.324-2.376-0.936
		c-0.18-0.252-0.264-0.456-0.384-0.948L253.036,30.879z"/>
	<path fill="#008CD6" d="M259.455,29.703c0.036,0.804,0.156,1.248,0.48,1.68c0.384,0.528,0.972,0.816,1.691,0.816
		c0.973,0,1.645-0.48,1.98-1.404l0.84,0.336c-0.228,0.504-0.384,0.72-0.66,0.996c-0.563,0.552-1.296,0.84-2.172,0.84
		c-1.884,0-3.072-1.32-3.072-3.396c0-2.052,1.176-3.396,2.977-3.396c1.548,0,2.664,0.996,2.903,2.604
		c0.013,0.132,0.061,0.6,0.084,0.924H259.455z M263.546,28.947c-0.071-0.672-0.252-1.104-0.636-1.476
		c-0.372-0.36-0.84-0.54-1.416-0.54c-0.731,0-1.344,0.372-1.704,1.044c-0.168,0.3-0.228,0.516-0.3,0.972H263.546z"/>
</g>
<g>
	<path fill="#008CD6" d="M0,23.619c0.312,0.048,0.54,0.06,0.996,0.06h0.756c0.408,0,0.6-0.012,0.996-0.06
		c-0.072,0.732-0.108,1.344-0.108,1.992v5.832c0,0.564,0.024,0.912,0.096,1.356h-1.14c0.072-0.42,0.096-0.804,0.096-1.356v-6.948
		H1.044c-0.384,0-0.696,0.024-1.044,0.072V23.619z"/>
	<path fill="#008CD6" d="M11.4,23.679l-4.32,10.98h-0.9l4.332-10.98H11.4z"/>
	<path fill="#008CD6" d="M12.012,29.619c0.252-0.288,0.528-0.624,0.78-0.924l3.036-3.792c0.408-0.504,0.624-0.804,0.9-1.224h0.9
		c-0.06,0.708-0.072,1.08-0.072,2.028v3.936h0.456c0.504,0,0.816-0.024,1.248-0.084v0.996c-0.444-0.06-0.744-0.084-1.26-0.084
		h-0.444v1.032c0,0.576,0.024,0.852,0.096,1.296H16.56c0.072-0.42,0.096-0.756,0.096-1.296v-1.032h-3.216
		c-0.672,0-1.032,0.012-1.428,0.048V29.619z M16.667,26.607c0-0.636,0.012-1.02,0.072-1.632c-0.252,0.36-0.552,0.756-0.9,1.2
		l-2.76,3.48h3.588V26.607z"/>
	<path fill="#008CD6" d="M25.056,30.879c0.084,0.444,0.18,0.66,0.42,0.876c0.3,0.276,0.78,0.42,1.392,0.42
		c1.044,0,1.704-0.444,1.704-1.152c0-0.336-0.12-0.588-0.372-0.744c-0.288-0.18-0.528-0.252-1.416-0.432
		c-0.96-0.204-1.368-0.348-1.776-0.624c-0.42-0.288-0.648-0.732-0.648-1.26c0-0.432,0.18-0.84,0.516-1.164
		c0.42-0.408,1.068-0.624,1.872-0.624c0.816,0,1.452,0.192,1.884,0.576c0.312,0.264,0.48,0.54,0.636,1.092l-0.948,0.156
		c-0.072-0.324-0.132-0.468-0.3-0.636c-0.276-0.3-0.708-0.456-1.248-0.456c-0.876,0-1.5,0.444-1.5,1.08
		c0,0.276,0.144,0.516,0.408,0.66c0.276,0.156,0.588,0.252,1.332,0.408c1.164,0.264,1.548,0.408,1.908,0.684
		c0.372,0.3,0.576,0.756,0.576,1.248c0,1.2-1.02,1.944-2.664,1.944c-1.092,0-1.932-0.324-2.376-0.936
		c-0.18-0.252-0.264-0.456-0.384-0.948L25.056,30.879z"/>
	<path fill="#008CD6" d="M32.016,23.679v1.068h-1.164v-1.068H32.016z M31.968,26.331c-0.06,0.42-0.084,0.756-0.084,1.356v3.756
		c0,0.552,0.024,0.888,0.084,1.356h-1.08c0.06-0.516,0.084-0.852,0.084-1.356v-3.756c0-0.576-0.024-0.936-0.084-1.356H31.968z"/>
	<path fill="#008CD6" d="M38.232,27.015c-0.3,0.324-0.504,0.576-0.804,0.984l-2.58,3.444c-0.024,0.024-0.204,0.252-0.456,0.564
		c0.588-0.024,0.624-0.024,0.828-0.024h1.896c0.624,0,0.96-0.024,1.356-0.084v0.984c-0.432-0.06-0.744-0.084-1.356-0.084h-2.544
		c-0.744,0-0.996,0.012-1.332,0.036v-0.792c0.264-0.276,0.504-0.552,0.816-0.972l2.64-3.528c0.132-0.18,0.216-0.276,0.36-0.432
		c-0.324,0.024-0.432,0.024-0.6,0.024h-1.632c-0.504,0-0.888,0.024-1.344,0.084v-0.972c0.468,0.06,0.816,0.084,1.344,0.084h2.136
		c0.744,0,0.936,0,1.272-0.036V27.015z"/>
	<path fill="#008CD6" d="M40.307,29.703c0.036,0.804,0.156,1.248,0.48,1.68c0.384,0.528,0.972,0.816,1.692,0.816
		c0.972,0,1.644-0.48,1.98-1.404l0.84,0.336c-0.228,0.504-0.384,0.72-0.66,0.996c-0.564,0.552-1.296,0.84-2.172,0.84
		c-1.884,0-3.072-1.32-3.072-3.396c0-2.052,1.176-3.396,2.976-3.396c1.548,0,2.664,0.996,2.904,2.604
		c0.012,0.132,0.06,0.6,0.084,0.924H40.307z M44.399,28.947c-0.072-0.672-0.252-1.104-0.636-1.476c-0.372-0.36-0.84-0.54-1.416-0.54
		c-0.732,0-1.344,0.372-1.704,1.044c-0.168,0.3-0.228,0.516-0.3,0.972H44.399z"/>
	<path fill="#008CD6" d="M50.448,29.571c0-2.076,1.248-3.396,3.204-3.396s3.192,1.32,3.192,3.384c0,2.052-1.248,3.396-3.18,3.396
		C51.695,32.955,50.448,31.647,50.448,29.571z M51.372,29.547c0,1.632,0.876,2.628,2.28,2.628c1.404,0,2.268-0.996,2.268-2.616
		s-0.864-2.628-2.244-2.628C52.248,26.931,51.372,27.927,51.372,29.547z"/>
	<path fill="#008CD6" d="M58.62,27.099c-0.42,0-0.72,0.024-1.092,0.072v-0.912c0.324,0.048,0.612,0.072,1.092,0.072h0.492v-0.708
		c0-0.732,0.096-1.116,0.372-1.464c0.288-0.372,0.84-0.588,1.512-0.588c0.468,0,0.84,0.072,1.272,0.24l-0.252,0.804
		c-0.324-0.192-0.624-0.276-0.996-0.276c-0.384,0-0.66,0.108-0.816,0.324c-0.132,0.192-0.18,0.444-0.18,1.008v0.66h0.6
		c0.516,0,0.828-0.012,1.272-0.072v0.912c-0.408-0.06-0.684-0.072-1.272-0.072h-0.6v4.356c0,0.564,0.024,0.9,0.084,1.344h-1.08
		c0.06-0.444,0.084-0.852,0.084-1.356v-4.344H58.62z"/>
	<path fill="#008CD6" d="M67.248,32.799c0.06-0.456,0.084-0.804,0.084-1.38v-6.384c0-0.504-0.024-0.888-0.084-1.356h1.056
		c-0.06,0.444-0.084,0.792-0.084,1.368v1.62c0,0.324-0.012,0.54-0.048,0.852c0.564-0.888,1.38-1.32,2.472-1.32
		c1.848,0,2.952,1.248,2.952,3.336c0,2.112-1.128,3.384-3,3.384c-0.756,0-1.308-0.192-1.86-0.648
		c-0.264-0.204-0.372-0.336-0.564-0.624c0.024,0.228,0.036,0.324,0.036,0.48v0.672H67.248z M70.572,26.967
		c-1.416,0-2.352,1.032-2.352,2.568c0,1.548,0.936,2.604,2.316,2.604c1.344,0,2.136-0.972,2.136-2.616
		C72.671,27.903,71.903,26.967,70.572,26.967z"/>
	<path fill="#008CD6" d="M79.271,31.947c-0.468,0.42-0.696,0.576-1.104,0.732c-0.408,0.156-0.84,0.24-1.248,0.24
		c-1.32,0-2.124-0.684-2.124-1.824c0-0.96,0.6-1.656,1.716-1.968c0.708-0.204,1.284-0.276,2.76-0.312v-0.696
		c0-0.816-0.516-1.236-1.512-1.236c-0.66,0-1.152,0.168-1.488,0.516c-0.156,0.168-0.252,0.336-0.372,0.696l-0.936-0.204
		c0.216-0.552,0.372-0.804,0.672-1.068c0.492-0.456,1.212-0.684,2.112-0.684c1.584,0,2.4,0.672,2.4,1.968v3.372
		c0,0.54,0.024,0.84,0.096,1.32h-0.972V31.947z M79.271,29.523c-1.428,0.036-2.112,0.12-2.652,0.348
		c-0.612,0.252-0.912,0.66-0.912,1.236c0,0.66,0.492,1.08,1.272,1.08c0.696,0,1.452-0.336,1.92-0.852
		c0.276-0.3,0.372-0.552,0.372-1.032V29.523z"/>
	<path fill="#008CD6" d="M82.535,30.879c0.084,0.444,0.18,0.66,0.42,0.876c0.3,0.276,0.78,0.42,1.392,0.42
		c1.044,0,1.704-0.444,1.704-1.152c0-0.336-0.12-0.588-0.372-0.744c-0.288-0.18-0.528-0.252-1.416-0.432
		c-0.96-0.204-1.368-0.348-1.776-0.624c-0.42-0.288-0.648-0.732-0.648-1.26c0-0.432,0.18-0.84,0.516-1.164
		c0.42-0.408,1.068-0.624,1.872-0.624c0.816,0,1.452,0.192,1.884,0.576c0.312,0.264,0.48,0.54,0.636,1.092l-0.948,0.156
		c-0.072-0.324-0.132-0.468-0.3-0.636c-0.276-0.3-0.708-0.456-1.248-0.456c-0.876,0-1.5,0.444-1.5,1.08
		c0,0.276,0.144,0.516,0.408,0.66c0.276,0.156,0.588,0.252,1.332,0.408c1.164,0.264,1.548,0.408,1.908,0.684
		c0.372,0.3,0.576,0.756,0.576,1.248c0,1.2-1.02,1.944-2.664,1.944c-1.092,0-1.932-0.324-2.376-0.936
		c-0.18-0.252-0.264-0.456-0.384-0.948L82.535,30.879z"/>
	<path fill="#008CD6" d="M88.955,29.703c0.036,0.804,0.156,1.248,0.48,1.68c0.384,0.528,0.972,0.816,1.692,0.816
		c0.972,0,1.644-0.48,1.98-1.404l0.84,0.336c-0.228,0.504-0.384,0.72-0.66,0.996c-0.564,0.552-1.296,0.84-2.172,0.84
		c-1.884,0-3.072-1.32-3.072-3.396c0-2.052,1.176-3.396,2.976-3.396c1.548,0,2.664,0.996,2.904,2.604
		c0.012,0.132,0.06,0.6,0.084,0.924H88.955z M93.047,28.947c-0.072-0.672-0.252-1.104-0.636-1.476c-0.372-0.36-0.84-0.54-1.416-0.54
		c-0.732,0-1.344,0.372-1.704,1.044c-0.168,0.3-0.228,0.516-0.3,0.972H93.047z"/>
</g>
<line fill="none" stroke="#008CD6" stroke-width="0.5" x1="120.813" y1="15.58" x2="120.813" y2="44.581"/>
<polyline fill="none" stroke="#008CD6" stroke-width="0.5" points="123.796,39.414 120.813,44.581 117.83,39.414 "/>
<line fill="none" stroke="#008CD6" stroke-width="0.5" x1="142.063" y1="15.58" x2="142.063" y2="44.581"/>
<polyline fill="none" stroke="#008CD6" stroke-width="0.5" points="145.047,39.414 142.063,44.581 139.081,39.414 "/>
<polyline fill="none" stroke="#008CD6" stroke-width="0.5" points="162.562,44.581 162.562,29.08 167.063,29.08 "/>
<polyline fill="none" stroke="#008CD6" stroke-width="0.5" points="165.546,39.414 162.562,44.581 159.58,39.414 "/>
<polyline fill="none" stroke="#008CD6" stroke-width="0.5" points="102.063,44.581 102.063,29.08 96.813,29.08 "/>
<polyline fill="none" stroke="#008CD6" stroke-width="0.5" points="105.046,39.414 102.063,44.581 99.08,39.414 "/>
</svg>
