<?xml version="1.0" encoding="utf-8"?>
<!-- Generator: Adobe Illustrator 12.0.0, SVG Export Plug-In . SVG Version: 6.00 Build 51448)  -->
<!DOCTYPE svg PUBLIC "-//W3C//DTD SVG 1.1//EN" "http://www.w3.org/Graphics/SVG/1.1/DTD/svg11.dtd" [
	<!ENTITY ns_svg "http://www.w3.org/2000/svg">
	<!ENTITY ns_xlink "http://www.w3.org/1999/xlink">
]>
<svg  version="1.1" id="レイヤー_1" xmlns="&ns_svg;" xmlns:xlink="&ns_xlink;" width="63.5" height="69.906"
	 viewBox="0 0 63.5 69.906" overflow="visible" enable-background="new 0 0 63.5 69.906" xml:space="preserve">
<g>
	<path d="M3.202,2.989c0.42,0.357,0.441,0.368,0.63,0.441c0.158,0.053,0.389,0.084,0.62,0.084c0.494,0,1.638-0.168,2.32-0.336
		c0.462-0.115,0.84-0.262,1.103-0.42C7.948,2.716,7.99,2.695,8.032,2.695c0.094,0,0.325,0.084,0.483,0.179
		C8.725,2.989,8.83,3.115,8.83,3.241c0,0.137-0.168,0.221-0.651,0.315C7.591,3.672,6.457,3.829,5.764,3.903
		c0.515,0.304,0.704,0.483,0.704,0.683c0,0.063-0.011,0.126-0.074,0.472C6.31,5.52,6.226,6.391,6.173,7.294
		c0.536-0.032,1.229-0.063,1.659-0.074C8.84,7.2,8.903,7.189,9.239,7.084C9.26,7.074,9.281,7.074,9.323,7.074
		c0.147,0,0.336,0.074,0.598,0.242c0.242,0.157,0.41,0.357,0.41,0.493c0,0.126-0.105,0.221-0.252,0.221
		c-0.063,0-0.084,0-0.756-0.126C8.756,7.798,7.759,7.714,7.076,7.714c-0.861,0-1.795,0.105-2.646,0.294
		c-0.62,0.136-0.83,0.21-1.354,0.441C2.971,8.502,2.855,8.533,2.771,8.533c-0.294,0-0.672-0.283-0.924-0.693
		C1.7,7.62,1.626,7.42,1.626,7.294c0-0.053,0.011-0.074,0.053-0.126c0.283,0.388,0.588,0.567,0.987,0.567
		c0.326,0,0.557-0.032,2.037-0.263C4.84,7.452,4.955,7.431,5.564,7.357C5.596,6.622,5.617,5.982,5.617,5.32
		c0-0.914-0.053-1.155-0.326-1.344C4.966,3.987,4.798,3.997,4.608,3.997c-0.693,0-1.018-0.189-1.543-0.903L3.202,2.989z"/>
	<path d="M14.08,3.43c0.179,0.126,0.326,0.168,0.599,0.168c0.21,0,0.42-0.01,0.735-0.052C18.28,3.21,18.28,3.21,18.521,3.105
		c0.095-0.042,0.158-0.063,0.2-0.063c0.105,0,0.346,0.147,0.609,0.388c0.252,0.221,0.378,0.389,0.378,0.504
		c0,0.074-0.031,0.116-0.105,0.189c-0.189,0.189-0.231,0.357-0.756,3.14c0.042,0.032,0.073,0.063,0.094,0.074
		c0.284,0.241,0.368,0.357,0.368,0.504c0,0.105-0.084,0.168-0.231,0.168c-0.063,0-0.063,0-0.273-0.032
		c-0.273-0.052-0.588-0.073-0.924-0.073c-1.218,0-2.782,0.252-3.381,0.536c-0.063,0.031-0.157,0.052-0.21,0.052
		c-0.346,0-0.977-0.798-0.977-1.229c0-0.052,0.011-0.094,0.053-0.189c0.336,0.462,0.598,0.641,0.977,0.641
		c0.105,0,0.357-0.021,0.546-0.042c0.346-0.032,0.84-0.084,1.491-0.147c0.914-0.095,0.924-0.095,1.796-0.147
		c0.105-0.504,0.168-0.935,0.283-1.922c0.053-0.43,0.147-1.449,0.147-1.585c0-0.147-0.073-0.189-0.294-0.189
		c-0.178,0-0.977,0.074-1.407,0.126c-0.756,0.105-1.417,0.252-2.163,0.494c-0.063,0.021-0.126,0.032-0.2,0.032
		c-0.21,0-0.441-0.189-0.693-0.567c-0.158-0.241-0.263-0.493-0.263-0.64c0-0.042,0.011-0.095,0.053-0.179
		C13.775,3.168,13.901,3.304,14.08,3.43z"/>
	<path d="M23.067,4.071c0.851,0.168,1.491,0.389,1.838,0.62c0.283,0.178,0.399,0.388,0.399,0.693c0,0.273-0.137,0.504-0.294,0.504
		c-0.105,0-0.168-0.042-0.326-0.241c-0.525-0.662-0.998-1.061-1.68-1.439L23.067,4.071z M31.194,3.819
		c-0.567,0.809-1.102,1.407-2.226,2.457c-0.872,0.819-2.016,1.627-3.644,2.593c-0.284,0.168-0.357,0.221-0.504,0.357
		C24.737,9.3,24.664,9.331,24.58,9.331c-0.21,0-0.441-0.199-0.746-0.619c-0.199-0.305-0.325-0.62-0.325-0.84
		c0-0.105,0.021-0.168,0.084-0.252c0.231,0.452,0.483,0.662,0.798,0.662c0.284,0,1.061-0.357,2.058-0.956
		c1.627-0.956,3.423-2.373,4.599-3.623L31.194,3.819z M24.223,2.202c1.68,0.399,2.215,0.725,2.215,1.344
		c0,0.294-0.126,0.525-0.283,0.525c-0.116,0-0.116,0-0.567-0.557c-0.399-0.472-0.882-0.872-1.438-1.166L24.223,2.202z"/>
	<path d="M33.284,9.163c1.008-0.63,2.047-1.48,2.824-2.299c0.63-0.662,1.386-1.648,2.006-2.614c0.336-0.515,0.514-0.861,0.714-1.354
		c-0.504,0.031-1.061,0.147-2.215,0.462c-0.504,0.136-0.546,0.147-0.882,0.283c-0.052,0.021-0.115,0.032-0.178,0.032
		c-0.231,0-0.452-0.189-0.683-0.599c-0.147-0.241-0.221-0.462-0.221-0.63c0-0.063,0.021-0.116,0.074-0.21
		c0.305,0.546,0.525,0.704,0.987,0.704c0.347,0,1.407-0.137,2.205-0.294c0.609-0.115,0.798-0.178,0.987-0.294
		c0.116-0.073,0.168-0.094,0.242-0.094c0.221,0,0.819,0.535,0.819,0.735c0,0.074-0.042,0.137-0.136,0.2
		c-0.221,0.147-0.221,0.147-0.599,0.714c-0.504,0.756-0.504,0.756-1.323,1.827c1.48,0.777,2.31,1.313,2.719,1.774
		c0.284,0.304,0.399,0.609,0.399,1.04c0,0.336-0.105,0.546-0.283,0.546c-0.074,0-0.158-0.053-0.242-0.168
		c-0.042-0.053-0.042-0.053-0.252-0.42c-0.525-0.882-1.428-1.817-2.499-2.573c-0.851,1.029-1.533,1.669-2.541,2.363
		c-0.662,0.462-1.113,0.714-1.837,1.029L33.284,9.163z"/>
	<path d="M45.884,9.877c0.693-0.777,1.134-1.501,1.512-2.478C47.69,6.633,47.9,5.751,47.9,5.257c0-0.252-0.063-0.368-0.262-0.515
		c-0.683,0.074-1.837,0.399-2.331,0.662c-0.179,0.084-0.221,0.105-0.336,0.105c-0.221,0-0.536-0.221-0.819-0.599
		c-0.105-0.136-0.21-0.367-0.21-0.462c0-0.052,0.011-0.084,0.042-0.199c0.252,0.357,0.504,0.504,0.882,0.504
		c0.283,0,0.346-0.011,1.795-0.263c0.641-0.105,1.827-0.252,3.234-0.389c0.21-0.021,0.599-0.105,0.819-0.178
		c0.168-0.053,0.168-0.053,0.263-0.053c0.147,0,0.347,0.053,0.557,0.158c0.283,0.136,0.493,0.336,0.493,0.483
		c0,0.126-0.115,0.21-0.294,0.21c-0.084,0-0.115,0-0.262-0.031c-0.42-0.084-1.113-0.137-1.69-0.137
		c-0.641,0-1.197,0.032-1.722,0.105c0.483,0.273,0.683,0.483,0.683,0.725c0,0.399-0.294,1.302-0.662,2.058
		C47.501,8.628,46.976,9.268,46,10.003L45.884,9.877z M45.685,1.771c0.441,0.42,0.767,0.567,1.25,0.567
		c0.704,0,1.638-0.221,2.215-0.515c0.116-0.063,0.21-0.084,0.315-0.084c0.273,0,0.714,0.347,0.714,0.557
		c0,0.126-0.126,0.189-0.546,0.283c-0.683,0.137-1.848,0.273-2.394,0.273c-0.788,0-1.197-0.231-1.701-0.976L45.685,1.771z"/>
	<path d="M59.628,4.984c1.585,1.323,2.457,2.415,2.457,3.097c0,0.42-0.231,0.851-0.451,0.851c-0.084,0-0.158-0.052-0.2-0.157
		c-0.031-0.074-0.031-0.074-0.158-0.504c-0.094-0.284-0.136-0.41-0.252-0.662c-0.829,0.21-2.352,0.535-3.917,0.819
		c-0.903,0.179-1.134,0.231-1.313,0.347c-0.094,0.063-0.168,0.084-0.241,0.084c-0.168,0-0.315-0.105-0.483-0.336
		c-0.294-0.41-0.462-0.777-0.462-1.04c0-0.095,0.011-0.158,0.074-0.284c0.263,0.557,0.473,0.714,0.956,0.714
		c0.042,0,0.105,0,0.262-0.021c0.294-0.588,0.903-1.995,1.344-3.129c0.504-1.302,0.725-2.016,0.725-2.31
		c0-0.273-0.2-0.493-0.62-0.672c0.105-0.063,0.168-0.084,0.284-0.084c0.241,0,0.598,0.137,0.913,0.347
		c0.326,0.21,0.494,0.409,0.494,0.567c0,0.105-0.01,0.126-0.157,0.315C58.789,3.042,58.61,3.378,58.4,3.798
		c-0.745,1.512-1.585,3.098-2.163,4.084c1.375-0.095,3.465-0.347,4.672-0.546c-0.158-0.347-0.305-0.62-0.63-1.145
		c-0.168-0.273-0.231-0.357-0.788-1.103L59.628,4.984z"/>
	<path d="M10.489,17.112v-3.003c0-0.819-0.042-1.491-0.126-2.121c1.89,0.147,2.457,0.252,2.457,0.483
		c0,0.168-0.168,0.273-0.861,0.609v4.032h4.011c0.483-0.693,0.63-0.903,1.155-1.575c0.966,0.735,1.26,0.966,2.163,1.764
		c0.063,0.084,0.105,0.126,0.105,0.168c0,0.084-0.084,0.126-0.252,0.126h-7.182v4.935h3.612c0.462-0.672,0.609-0.882,1.134-1.554
		c0.903,0.714,1.176,0.945,2.079,1.722c0.063,0.063,0.105,0.126,0.105,0.168c0,0.084-0.105,0.147-0.294,0.147h-6.636v5.922h4.998
		c0.609-0.693,0.777-0.903,1.323-1.638c1.008,0.756,1.323,1.008,2.331,1.827c0.063,0.042,0.105,0.126,0.105,0.147
		c0,0.084-0.126,0.147-0.252,0.147H4.104c-0.84,0-1.323,0.042-2.037,0.147l-0.21-0.819c0.798,0.147,1.26,0.189,2.226,0.189h6.405
		v-5.922H6.016c-0.63,0-1.239,0.042-1.68,0.126l-0.168-0.777c0.903,0.147,1.239,0.168,1.848,0.168h4.473v-4.935H5.848
		c-1.113,1.89-2.037,3.087-3.528,4.578l-0.252-0.21c1.344-1.848,2.163-3.423,3.066-5.796c0.504-1.323,0.714-2.058,0.882-2.982
		c1.995,0.63,2.394,0.798,2.394,1.008c0,0.189-0.231,0.273-0.945,0.336c-0.525,1.134-0.777,1.617-1.323,2.583H10.489z"/>
	<path d="M29.368,12.933c1.932,1.008,2.835,1.743,2.835,2.352c0,0.567-0.294,1.134-0.567,1.134c-0.126,0-0.21-0.084-0.315-0.315
		c-0.105-0.21-0.273-0.525-0.609-1.029c-2.583,0.462-3.339,0.567-6.804,0.945c-0.168,0.546-0.21,0.609-0.336,0.609
		c-0.084,0-0.168-0.084-0.21-0.231c-0.021-0.042-0.105-0.567-0.294-1.575c0.483,0.084,0.651,0.084,1.155,0.084
		c0.126,0,0.21,0,0.567,0c0.819-1.281,1.197-2.058,1.491-3.087c0.777,0.189,1.68,0.42,1.932,0.525
		c0.105,0.042,0.168,0.126,0.168,0.189c0,0.189-0.189,0.252-0.945,0.336c-0.252,0.252-0.441,0.441-0.567,0.567
		c-0.966,1.008-1.05,1.092-1.533,1.449c0.231,0,1.953-0.042,5.166-0.126c-0.42-0.63-0.693-0.924-1.344-1.596L29.368,12.933z
		 M26.155,25.806c-0.147,1.449-0.504,2.583-1.092,3.486c-0.42,0.651-0.987,1.113-1.365,1.113c-0.168,0-0.294-0.084-0.399-0.252
		c-0.126-0.231-0.231-0.567-0.231-0.84c0-0.441,0.126-0.609,0.567-0.819c0.399-0.168,0.987-0.672,1.365-1.113
		c0.399-0.462,0.588-0.798,0.819-1.575H26.155z M25.566,21.627v3.066c-0.021,0.189-0.147,0.231-0.819,0.231
		c-0.42,0-0.483-0.042-0.483-0.273c0.063-1.638,0.063-2.163,0.063-4.032c0-2.016-0.021-3.486-0.063-4.242
		c0.693,0.294,0.903,0.399,1.554,0.735h3.696c0.336-0.336,0.441-0.441,0.756-0.756c0.441,0.336,0.588,0.42,0.966,0.756
		c0.21,0.21,0.252,0.273,0.252,0.357c0,0.105-0.147,0.21-0.609,0.399v5.712c0,0.882-0.336,1.176-1.743,1.491
		c-0.126-0.903-0.252-1.008-2.226-1.449l0.021-0.252c1.344,0.147,1.617,0.168,2.499,0.21c0.21,0,0.231-0.021,0.231-0.21v-1.743
		H25.566z M29.662,19.086v-1.491h-4.095v1.491H29.662z M25.566,19.569v1.575h4.095v-1.575H25.566z M28.023,26.919
		c0-0.357,0-0.441-0.042-1.344c1.974,0.252,2.205,0.315,2.205,0.525c0,0.168-0.189,0.294-0.84,0.483v2.1
		c0,0.294,0.021,0.336,0.126,0.42c0.231,0.105,0.462,0.126,3.024,0.126c2.73,0,2.919-0.021,3.192-0.294
		c0.147-0.168,0.441-0.903,0.924-2.352l0.252,0.021l-0.063,1.806c-0.021,0.063-0.021,0.126-0.021,0.147c0,0.252,0,0.252,0.462,0.483
		c0.294,0.168,0.378,0.273,0.378,0.525c0,0.651-0.777,0.798-4.074,0.798c-0.252,0-0.651,0-1.113,0
		c-1.029-0.021-1.617-0.021-2.016-0.021h-0.525c-1.533,0-1.806-0.168-1.869-1.029c0-0.462,0-0.462,0-1.218V26.919z M31.005,25.281
		c1.68,0.441,2.373,0.672,2.709,0.945c0.252,0.189,0.399,0.567,0.399,0.966c0,0.42-0.231,0.84-0.462,0.84
		c-0.105,0-0.189-0.063-0.357-0.357c-0.21-0.315-0.672-0.861-1.008-1.176c-0.378-0.336-0.693-0.546-1.386-0.945L31.005,25.281z
		 M34.303,15.264c1.89-0.756,3.507-1.701,4.536-2.646c0.357,0.21,0.63,0.357,0.819,0.462c0.693,0.378,0.966,0.588,0.966,0.735
		c0,0.126-0.147,0.21-0.357,0.21c-0.105,0-0.336-0.021-0.756-0.063c-2.121,0.861-2.835,1.092-5.208,1.722v0.945
		c0,0.294,0.021,0.357,0.126,0.42c0.147,0.063,0.861,0.105,2.331,0.105c0.021,0,0.063,0,0.147,0c0.861,0,1.344-0.021,1.596-0.021
		h0.231c0.861,0,0.882-0.021,1.617-2.394l0.231,0.021v1.575c0,0.525,0.021,0.546,0.252,0.693c0.273,0.147,0.378,0.273,0.378,0.462
		c0,0.21-0.168,0.441-0.42,0.525c-0.399,0.168-1.113,0.21-4.053,0.21c-2.289,0-2.919-0.042-3.255-0.168
		c-0.315-0.126-0.441-0.399-0.462-0.987c0.021-1.533,0.021-1.554,0.021-1.869v-1.743c0-0.504-0.021-0.84-0.063-1.491
		c0.483,0.063,0.819,0.105,1.071,0.126c0.819,0.084,1.134,0.21,1.134,0.399c0,0.168-0.189,0.252-0.882,0.462V15.264z M34.303,21.774
		c1.113-0.378,1.302-0.462,1.869-0.714c0.987-0.462,1.806-0.987,2.541-1.596c0.546,0.294,1.197,0.672,1.491,0.882
		c0.126,0.084,0.168,0.147,0.168,0.231c0,0.105-0.189,0.189-0.462,0.189c-0.147,0-0.315,0-0.525-0.021
		c-1.869,0.735-3.045,1.071-5.082,1.449v1.176c0,0.294,0.021,0.42,0.105,0.462c0.126,0.084,0.882,0.126,2.163,0.126
		c1.407,0,2.373-0.021,2.583-0.063c0.231-0.042,0.357-0.189,0.567-0.609c0.147-0.315,0.168-0.357,0.714-2.079l0.252,0.042
		l-0.105,1.764c0,0.147-0.021,0.231-0.021,0.294c0,0.021,0,0.042,0,0.042c0,0.21,0.063,0.294,0.336,0.42
		c0.252,0.126,0.357,0.273,0.357,0.483c0,0.294-0.252,0.525-0.714,0.651c-0.336,0.105-1.512,0.147-4.326,0.147
		c-1.89,0-2.394-0.042-2.73-0.252c-0.336-0.189-0.441-0.483-0.462-1.176c0.021-1.197,0.021-1.281,0.021-1.659v-1.575
		c0-0.777,0-0.987-0.063-1.596c0.42,0.063,0.756,0.105,0.966,0.126c0.861,0.126,1.113,0.231,1.113,0.399
		c0,0.189-0.21,0.315-0.756,0.462V21.774z M37.978,25.932c2.415,1.344,2.541,1.428,3.045,1.932c0.294,0.273,0.441,0.609,0.441,0.945
		c0,0.315-0.189,0.861-0.399,1.134c-0.105,0.147-0.231,0.231-0.357,0.231c-0.189,0-0.252-0.084-0.546-0.714
		c-0.588-1.239-1.26-2.121-2.457-3.297L37.978,25.932z"/>
	<path d="M43.92,29.502c1.68-1.512,2.919-2.793,3.822-3.906c0.63-0.819,1.029-1.386,1.197-1.764
		c0.399,0.147,0.714,0.273,0.903,0.357c1.134,0.462,1.239,0.504,1.239,0.693c0,0.147-0.189,0.252-0.504,0.252c0,0-0.063,0-0.105,0
		c-0.126-0.021-0.294-0.021-0.546-0.021c-0.399,0.546-0.987,1.155-2.142,2.121c-1.302,1.092-2.205,1.701-3.696,2.52L43.92,29.502z
		 M44.761,14.529c3.402-0.378,5.355-0.735,9.03-1.659c2.541-0.63,3.654-0.987,4.452-1.47c0.336,0.252,0.588,0.462,0.756,0.588
		c0.777,0.588,1.008,0.84,1.008,1.029c0,0.084-0.105,0.168-0.21,0.168s-0.42-0.084-0.945-0.252
		c-1.785,0.504-3.045,0.777-5.754,1.197c0.945,0.399,1.281,0.588,1.281,0.777c0,0,0,0,0,0.021c-0.021,0.105-0.21,0.21-0.441,0.21
		c-0.105,0-0.252-0.021-0.525-0.063c-1.848,1.701-1.89,1.743-3.024,2.541c0.777,0.483,1.113,0.903,1.113,1.386
		c0,0.672-0.231,1.302-0.504,1.302c-0.147,0-0.21-0.063-0.567-0.609c-0.756-1.155-1.806-2.205-3.276-3.297l0.189-0.21
		c0.966,0.336,1.68,0.651,2.625,1.176c0.819-0.861,1.386-1.638,2.268-3.108c-3.339,0.462-4.935,0.609-7.434,0.63L44.761,14.529z
		 M52.468,22.635c-1.176,0.105-2.247,0.21-2.835,0.252c-2.184,0.21-2.583,0.252-3.612,0.315c-0.063,0.126-0.084,0.231-0.105,0.294
		c-0.168,0.525-0.231,0.651-0.42,0.651c-0.252,0-0.336-0.252-0.693-2.478c0.672,0.042,1.05,0.063,1.701,0.063
		c0.357,0,1.155-0.021,2.373-0.042c0.462-0.021,1.239-0.042,2.184-0.063c1.785-1.575,2.247-2.037,3.654-3.57
		c1.449-1.554,1.764-1.953,2.499-3.024c1.743,1.155,1.953,1.302,1.953,1.491c0,0.105-0.147,0.21-0.315,0.21
		c-0.084,0-0.546-0.063-0.84-0.105c-1.701,1.701-3.444,3.129-6.048,4.977c2.898-0.063,3.801-0.105,7.392-0.378
		c-0.588-0.714-0.966-1.071-1.89-1.827l0.231-0.231c1.827,1.008,2.583,1.533,3.822,2.583c0.609,0.525,0.735,0.777,0.735,1.428
		c0,0.693-0.252,1.239-0.567,1.239c-0.168,0-0.294-0.126-0.567-0.588c-0.546-0.945-0.903-1.491-1.386-2.121
		c-0.252,0.042-0.483,0.084-0.609,0.105c-0.84,0.147-0.84,0.147-1.974,0.273c-1.554,0.189-2.625,0.315-3.213,0.378v4.578
		c0,0.819,0.021,2.163,0.063,3.129c-0.042,0.273-0.231,0.357-0.882,0.357c-0.063,0-0.063,0-0.21,0c-0.315,0-0.441-0.063-0.504-0.315
		c0.021-0.525,0.021-1.092,0.042-1.722c0.021-1.239,0.021-1.302,0.021-1.554V22.635z M55.828,23.958
		c1.344,0.588,3.36,1.848,4.494,2.835c0.441,0.378,0.588,0.693,0.588,1.344c0,0.672-0.252,1.239-0.546,1.239
		c-0.147,0-0.252-0.084-0.399-0.315c-0.966-1.512-2.667-3.444-4.305-4.893L55.828,23.958z"/>
</g>
<g>
	<path d="M3.202,42.364c0.42,0.357,0.441,0.368,0.63,0.441c0.158,0.053,0.389,0.084,0.62,0.084c0.494,0,1.638-0.168,2.32-0.336
		c0.462-0.115,0.84-0.262,1.103-0.42c0.074-0.042,0.116-0.063,0.158-0.063c0.094,0,0.325,0.084,0.483,0.179
		c0.21,0.115,0.315,0.241,0.315,0.367c0,0.137-0.168,0.221-0.651,0.315c-0.588,0.116-1.722,0.273-2.415,0.347
		c0.515,0.304,0.704,0.483,0.704,0.683c0,0.063-0.011,0.126-0.074,0.472c-0.084,0.462-0.168,1.333-0.221,2.237
		c0.536-0.032,1.229-0.063,1.659-0.074c1.008-0.021,1.071-0.031,1.407-0.136c0.021-0.011,0.042-0.011,0.084-0.011
		c0.147,0,0.336,0.074,0.598,0.242c0.242,0.157,0.41,0.357,0.41,0.493c0,0.126-0.105,0.221-0.252,0.221
		c-0.063,0-0.084,0-0.756-0.126c-0.567-0.105-1.564-0.189-2.247-0.189c-0.861,0-1.795,0.105-2.646,0.294
		c-0.62,0.136-0.83,0.21-1.354,0.441c-0.105,0.053-0.221,0.084-0.305,0.084c-0.294,0-0.672-0.283-0.924-0.693
		c-0.147-0.221-0.221-0.42-0.221-0.546c0-0.053,0.011-0.074,0.053-0.126c0.283,0.388,0.588,0.567,0.987,0.567
		c0.326,0,0.557-0.032,2.037-0.263c0.137-0.021,0.252-0.042,0.861-0.115c0.032-0.735,0.053-1.375,0.053-2.037
		c0-0.914-0.053-1.155-0.326-1.344c-0.325,0.011-0.493,0.021-0.683,0.021c-0.693,0-1.018-0.189-1.543-0.903L3.202,42.364z"/>
	<path d="M14.08,42.805c0.179,0.126,0.326,0.168,0.599,0.168c0.21,0,0.42-0.01,0.735-0.052c2.867-0.336,2.867-0.336,3.108-0.441
		c0.095-0.042,0.158-0.063,0.2-0.063c0.105,0,0.346,0.147,0.609,0.388c0.252,0.221,0.378,0.389,0.378,0.504
		c0,0.074-0.031,0.116-0.105,0.189c-0.189,0.189-0.231,0.357-0.756,3.14c0.042,0.032,0.073,0.063,0.094,0.074
		c0.284,0.241,0.368,0.357,0.368,0.504c0,0.105-0.084,0.168-0.231,0.168c-0.063,0-0.063,0-0.273-0.032
		c-0.273-0.052-0.588-0.073-0.924-0.073c-1.218,0-2.782,0.252-3.381,0.536c-0.063,0.031-0.157,0.052-0.21,0.052
		c-0.346,0-0.977-0.798-0.977-1.229c0-0.052,0.011-0.094,0.053-0.189c0.336,0.462,0.598,0.641,0.977,0.641
		c0.105,0,0.357-0.021,0.546-0.042c0.346-0.032,0.84-0.084,1.491-0.147c0.914-0.095,0.924-0.095,1.796-0.147
		c0.105-0.504,0.168-0.935,0.283-1.922c0.053-0.43,0.147-1.449,0.147-1.585c0-0.147-0.073-0.189-0.294-0.189
		c-0.178,0-0.977,0.074-1.407,0.126c-0.756,0.105-1.417,0.252-2.163,0.494c-0.063,0.021-0.126,0.032-0.2,0.032
		c-0.21,0-0.441-0.189-0.693-0.567c-0.158-0.241-0.263-0.493-0.263-0.64c0-0.042,0.011-0.095,0.053-0.179
		C13.775,42.543,13.901,42.679,14.08,42.805z"/>
	<path d="M23.067,43.446c0.851,0.168,1.491,0.389,1.838,0.62c0.283,0.178,0.399,0.388,0.399,0.693c0,0.273-0.137,0.504-0.294,0.504
		c-0.105,0-0.168-0.042-0.326-0.241c-0.525-0.662-0.998-1.061-1.68-1.439L23.067,43.446z M31.194,43.194
		c-0.567,0.809-1.102,1.407-2.226,2.457c-0.872,0.819-2.016,1.627-3.644,2.593c-0.284,0.168-0.357,0.221-0.504,0.357
		c-0.084,0.074-0.158,0.105-0.242,0.105c-0.21,0-0.441-0.199-0.746-0.619c-0.199-0.305-0.325-0.62-0.325-0.84
		c0-0.105,0.021-0.168,0.084-0.252c0.231,0.452,0.483,0.662,0.798,0.662c0.284,0,1.061-0.357,2.058-0.956
		c1.627-0.956,3.423-2.373,4.599-3.623L31.194,43.194z M24.223,41.577c1.68,0.399,2.215,0.725,2.215,1.344
		c0,0.294-0.126,0.525-0.283,0.525c-0.116,0-0.116,0-0.567-0.557c-0.399-0.472-0.882-0.872-1.438-1.166L24.223,41.577z"/>
	<path d="M33.284,48.538c1.008-0.63,2.047-1.48,2.824-2.299c0.63-0.662,1.386-1.648,2.006-2.614
		c0.336-0.515,0.514-0.861,0.714-1.354c-0.504,0.031-1.061,0.147-2.215,0.462c-0.504,0.136-0.546,0.147-0.882,0.283
		c-0.052,0.021-0.115,0.032-0.178,0.032c-0.231,0-0.452-0.189-0.683-0.599c-0.147-0.241-0.221-0.462-0.221-0.63
		c0-0.063,0.021-0.116,0.074-0.21c0.305,0.546,0.525,0.704,0.987,0.704c0.347,0,1.407-0.137,2.205-0.294
		c0.609-0.115,0.798-0.178,0.987-0.294c0.116-0.073,0.168-0.094,0.242-0.094c0.221,0,0.819,0.535,0.819,0.735
		c0,0.074-0.042,0.137-0.136,0.2c-0.221,0.147-0.221,0.147-0.599,0.714c-0.504,0.756-0.504,0.756-1.323,1.827
		c1.48,0.777,2.31,1.313,2.719,1.774c0.284,0.304,0.399,0.609,0.399,1.04c0,0.336-0.105,0.546-0.283,0.546
		c-0.074,0-0.158-0.053-0.242-0.168c-0.042-0.053-0.042-0.053-0.252-0.42c-0.525-0.882-1.428-1.817-2.499-2.573
		c-0.851,1.029-1.533,1.669-2.541,2.363c-0.662,0.462-1.113,0.714-1.837,1.029L33.284,48.538z"/>
	<path d="M45.884,49.252c0.693-0.777,1.134-1.501,1.512-2.478c0.294-0.767,0.504-1.648,0.504-2.142c0-0.252-0.063-0.368-0.262-0.515
		c-0.683,0.074-1.837,0.399-2.331,0.662c-0.179,0.084-0.221,0.105-0.336,0.105c-0.221,0-0.536-0.221-0.819-0.599
		c-0.105-0.136-0.21-0.367-0.21-0.462c0-0.052,0.011-0.084,0.042-0.199c0.252,0.357,0.504,0.504,0.882,0.504
		c0.283,0,0.346-0.011,1.795-0.263c0.641-0.105,1.827-0.252,3.234-0.389c0.21-0.021,0.599-0.105,0.819-0.178
		c0.168-0.053,0.168-0.053,0.263-0.053c0.147,0,0.347,0.053,0.557,0.158c0.283,0.136,0.493,0.336,0.493,0.483
		c0,0.126-0.115,0.21-0.294,0.21c-0.084,0-0.115,0-0.262-0.031c-0.42-0.084-1.113-0.137-1.69-0.137
		c-0.641,0-1.197,0.032-1.722,0.105c0.483,0.273,0.683,0.483,0.683,0.725c0,0.399-0.294,1.302-0.662,2.058
		c-0.578,1.187-1.103,1.827-2.079,2.562L45.884,49.252z M45.685,41.146c0.441,0.42,0.767,0.567,1.25,0.567
		c0.704,0,1.638-0.221,2.215-0.515c0.116-0.063,0.21-0.084,0.315-0.084c0.273,0,0.714,0.347,0.714,0.557
		c0,0.126-0.126,0.189-0.546,0.283c-0.683,0.137-1.848,0.273-2.394,0.273c-0.788,0-1.197-0.231-1.701-0.976L45.685,41.146z"/>
	<path d="M59.628,44.359c1.585,1.323,2.457,2.415,2.457,3.097c0,0.42-0.231,0.851-0.451,0.851c-0.084,0-0.158-0.052-0.2-0.157
		c-0.031-0.074-0.031-0.074-0.158-0.504c-0.094-0.284-0.136-0.41-0.252-0.662c-0.829,0.21-2.352,0.535-3.917,0.819
		c-0.903,0.179-1.134,0.231-1.313,0.347c-0.094,0.063-0.168,0.084-0.241,0.084c-0.168,0-0.315-0.105-0.483-0.336
		c-0.294-0.41-0.462-0.777-0.462-1.04c0-0.095,0.011-0.158,0.074-0.284c0.263,0.557,0.473,0.714,0.956,0.714
		c0.042,0,0.105,0,0.262-0.021c0.294-0.588,0.903-1.995,1.344-3.129c0.504-1.302,0.725-2.016,0.725-2.31
		c0-0.273-0.2-0.493-0.62-0.672c0.105-0.063,0.168-0.084,0.284-0.084c0.241,0,0.598,0.137,0.913,0.347
		c0.326,0.21,0.494,0.409,0.494,0.567c0,0.105-0.01,0.126-0.157,0.315c-0.095,0.116-0.273,0.452-0.483,0.872
		c-0.745,1.512-1.585,3.098-2.163,4.084c1.375-0.095,3.465-0.347,4.672-0.546c-0.158-0.347-0.305-0.62-0.63-1.145
		c-0.168-0.273-0.231-0.357-0.788-1.103L59.628,44.359z"/>
	<path d="M10.489,56.487v-3.003c0-0.819-0.042-1.491-0.126-2.121c1.89,0.147,2.457,0.252,2.457,0.483
		c0,0.168-0.168,0.273-0.861,0.609v4.032h4.011c0.483-0.693,0.63-0.903,1.155-1.575c0.966,0.735,1.26,0.966,2.163,1.764
		c0.063,0.084,0.105,0.126,0.105,0.168c0,0.084-0.084,0.126-0.252,0.126h-7.182v4.935h3.612c0.462-0.672,0.609-0.882,1.134-1.554
		c0.903,0.714,1.176,0.945,2.079,1.722c0.063,0.063,0.105,0.126,0.105,0.168c0,0.084-0.105,0.147-0.294,0.147h-6.636v5.922h4.998
		c0.609-0.693,0.777-0.903,1.323-1.638c1.008,0.756,1.323,1.008,2.331,1.827c0.063,0.042,0.105,0.126,0.105,0.147
		c0,0.084-0.126,0.147-0.252,0.147H4.104c-0.84,0-1.323,0.042-2.037,0.147l-0.21-0.819c0.798,0.147,1.26,0.189,2.226,0.189h6.405
		v-5.922H6.016c-0.63,0-1.239,0.042-1.68,0.126l-0.168-0.777c0.903,0.147,1.239,0.168,1.848,0.168h4.473V56.97H5.848
		c-1.113,1.89-2.037,3.087-3.528,4.578l-0.252-0.21c1.344-1.848,2.163-3.423,3.066-5.796c0.504-1.323,0.714-2.058,0.882-2.982
		c1.995,0.63,2.394,0.798,2.394,1.008c0,0.189-0.231,0.273-0.945,0.336c-0.525,1.134-0.777,1.617-1.323,2.583H10.489z"/>
	<path d="M29.368,52.308c1.932,1.008,2.835,1.743,2.835,2.352c0,0.567-0.294,1.134-0.567,1.134c-0.126,0-0.21-0.084-0.315-0.315
		c-0.105-0.21-0.273-0.525-0.609-1.029c-2.583,0.462-3.339,0.567-6.804,0.945c-0.168,0.546-0.21,0.609-0.336,0.609
		c-0.084,0-0.168-0.084-0.21-0.231c-0.021-0.042-0.105-0.567-0.294-1.575c0.483,0.084,0.651,0.084,1.155,0.084
		c0.126,0,0.21,0,0.567,0c0.819-1.281,1.197-2.058,1.491-3.087c0.777,0.189,1.68,0.42,1.932,0.525
		c0.105,0.042,0.168,0.126,0.168,0.189c0,0.189-0.189,0.252-0.945,0.336c-0.252,0.252-0.441,0.441-0.567,0.567
		c-0.966,1.008-1.05,1.092-1.533,1.449c0.231,0,1.953-0.042,5.166-0.126c-0.42-0.63-0.693-0.924-1.344-1.596L29.368,52.308z
		 M26.155,65.181c-0.147,1.449-0.504,2.583-1.092,3.486c-0.42,0.651-0.987,1.113-1.365,1.113c-0.168,0-0.294-0.084-0.399-0.252
		c-0.126-0.231-0.231-0.567-0.231-0.84c0-0.441,0.126-0.609,0.567-0.819c0.399-0.168,0.987-0.672,1.365-1.113
		c0.399-0.462,0.588-0.798,0.819-1.575H26.155z M25.566,61.002v3.066c-0.021,0.189-0.147,0.231-0.819,0.231
		c-0.42,0-0.483-0.042-0.483-0.273c0.063-1.638,0.063-2.163,0.063-4.032c0-2.016-0.021-3.486-0.063-4.242
		c0.693,0.294,0.903,0.399,1.554,0.735h3.696c0.336-0.336,0.441-0.441,0.756-0.756c0.441,0.336,0.588,0.42,0.966,0.756
		c0.21,0.21,0.252,0.273,0.252,0.357c0,0.105-0.147,0.21-0.609,0.399v5.712c0,0.882-0.336,1.176-1.743,1.491
		c-0.126-0.903-0.252-1.008-2.226-1.449l0.021-0.252c1.344,0.147,1.617,0.168,2.499,0.21c0.21,0,0.231-0.021,0.231-0.21v-1.743
		H25.566z M29.662,58.461V56.97h-4.095v1.491H29.662z M25.566,58.944v1.575h4.095v-1.575H25.566z M28.023,66.294
		c0-0.357,0-0.441-0.042-1.344c1.974,0.252,2.205,0.315,2.205,0.525c0,0.168-0.189,0.294-0.84,0.483v2.1
		c0,0.294,0.021,0.336,0.126,0.42c0.231,0.105,0.462,0.126,3.024,0.126c2.73,0,2.919-0.021,3.192-0.294
		c0.147-0.168,0.441-0.903,0.924-2.352l0.252,0.021l-0.063,1.806c-0.021,0.063-0.021,0.126-0.021,0.147c0,0.252,0,0.252,0.462,0.483
		c0.294,0.168,0.378,0.273,0.378,0.525c0,0.651-0.777,0.798-4.074,0.798c-0.252,0-0.651,0-1.113,0
		c-1.029-0.021-1.617-0.021-2.016-0.021h-0.525c-1.533,0-1.806-0.168-1.869-1.029c0-0.462,0-0.462,0-1.218V66.294z M31.005,64.656
		c1.68,0.441,2.373,0.672,2.709,0.945c0.252,0.189,0.399,0.567,0.399,0.966c0,0.42-0.231,0.84-0.462,0.84
		c-0.105,0-0.189-0.063-0.357-0.357c-0.21-0.315-0.672-0.861-1.008-1.176c-0.378-0.336-0.693-0.546-1.386-0.945L31.005,64.656z
		 M34.303,54.639c1.89-0.756,3.507-1.701,4.536-2.646c0.357,0.21,0.63,0.357,0.819,0.462c0.693,0.378,0.966,0.588,0.966,0.735
		c0,0.126-0.147,0.21-0.357,0.21c-0.105,0-0.336-0.021-0.756-0.063c-2.121,0.861-2.835,1.092-5.208,1.722v0.945
		c0,0.294,0.021,0.357,0.126,0.42c0.147,0.063,0.861,0.105,2.331,0.105c0.021,0,0.063,0,0.147,0c0.861,0,1.344-0.021,1.596-0.021
		h0.231c0.861,0,0.882-0.021,1.617-2.394l0.231,0.021v1.575c0,0.525,0.021,0.546,0.252,0.693c0.273,0.147,0.378,0.273,0.378,0.462
		c0,0.21-0.168,0.441-0.42,0.525c-0.399,0.168-1.113,0.21-4.053,0.21c-2.289,0-2.919-0.042-3.255-0.168
		c-0.315-0.126-0.441-0.399-0.462-0.987c0.021-1.533,0.021-1.554,0.021-1.869v-1.743c0-0.504-0.021-0.84-0.063-1.491
		c0.483,0.063,0.819,0.105,1.071,0.126c0.819,0.084,1.134,0.21,1.134,0.399c0,0.168-0.189,0.252-0.882,0.462V54.639z M34.303,61.149
		c1.113-0.378,1.302-0.462,1.869-0.714c0.987-0.462,1.806-0.987,2.541-1.596c0.546,0.294,1.197,0.672,1.491,0.882
		c0.126,0.084,0.168,0.147,0.168,0.231c0,0.105-0.189,0.189-0.462,0.189c-0.147,0-0.315,0-0.525-0.021
		c-1.869,0.735-3.045,1.071-5.082,1.449v1.176c0,0.294,0.021,0.42,0.105,0.462c0.126,0.084,0.882,0.126,2.163,0.126
		c1.407,0,2.373-0.021,2.583-0.063c0.231-0.042,0.357-0.189,0.567-0.609c0.147-0.315,0.168-0.357,0.714-2.079l0.252,0.042
		l-0.105,1.764c0,0.147-0.021,0.231-0.021,0.294c0,0.021,0,0.042,0,0.042c0,0.21,0.063,0.294,0.336,0.42
		c0.252,0.126,0.357,0.273,0.357,0.483c0,0.294-0.252,0.525-0.714,0.651c-0.336,0.105-1.512,0.147-4.326,0.147
		c-1.89,0-2.394-0.042-2.73-0.252c-0.336-0.189-0.441-0.483-0.462-1.176c0.021-1.197,0.021-1.281,0.021-1.659v-1.575
		c0-0.777,0-0.987-0.063-1.596c0.42,0.063,0.756,0.105,0.966,0.126c0.861,0.126,1.113,0.231,1.113,0.399
		c0,0.189-0.21,0.315-0.756,0.462V61.149z M37.978,65.307c2.415,1.344,2.541,1.428,3.045,1.932c0.294,0.273,0.441,0.609,0.441,0.945
		c0,0.315-0.189,0.861-0.399,1.134c-0.105,0.147-0.231,0.231-0.357,0.231c-0.189,0-0.252-0.084-0.546-0.714
		c-0.588-1.239-1.26-2.121-2.457-3.297L37.978,65.307z"/>
	<path d="M43.92,68.877c1.68-1.512,2.919-2.793,3.822-3.906c0.63-0.819,1.029-1.386,1.197-1.764
		c0.399,0.147,0.714,0.273,0.903,0.357c1.134,0.462,1.239,0.504,1.239,0.693c0,0.147-0.189,0.252-0.504,0.252c0,0-0.063,0-0.105,0
		c-0.126-0.021-0.294-0.021-0.546-0.021c-0.399,0.546-0.987,1.155-2.142,2.121c-1.302,1.092-2.205,1.701-3.696,2.52L43.92,68.877z
		 M44.761,53.904c3.402-0.378,5.355-0.735,9.03-1.659c2.541-0.63,3.654-0.987,4.452-1.47c0.336,0.252,0.588,0.462,0.756,0.588
		c0.777,0.588,1.008,0.84,1.008,1.029c0,0.084-0.105,0.168-0.21,0.168s-0.42-0.084-0.945-0.252
		c-1.785,0.504-3.045,0.777-5.754,1.197c0.945,0.399,1.281,0.588,1.281,0.777c0,0,0,0,0,0.021c-0.021,0.105-0.21,0.21-0.441,0.21
		c-0.105,0-0.252-0.021-0.525-0.063c-1.848,1.701-1.89,1.743-3.024,2.541c0.777,0.483,1.113,0.903,1.113,1.386
		c0,0.672-0.231,1.302-0.504,1.302c-0.147,0-0.21-0.063-0.567-0.609c-0.756-1.155-1.806-2.205-3.276-3.297l0.189-0.21
		c0.966,0.336,1.68,0.651,2.625,1.176c0.819-0.861,1.386-1.638,2.268-3.108c-3.339,0.462-4.935,0.609-7.434,0.63L44.761,53.904z
		 M52.468,62.01c-1.176,0.105-2.247,0.21-2.835,0.252c-2.184,0.21-2.583,0.252-3.612,0.315c-0.063,0.126-0.084,0.231-0.105,0.294
		c-0.168,0.525-0.231,0.651-0.42,0.651c-0.252,0-0.336-0.252-0.693-2.478c0.672,0.042,1.05,0.063,1.701,0.063
		c0.357,0,1.155-0.021,2.373-0.042c0.462-0.021,1.239-0.042,2.184-0.063c1.785-1.575,2.247-2.037,3.654-3.57
		c1.449-1.554,1.764-1.953,2.499-3.024c1.743,1.155,1.953,1.302,1.953,1.491c0,0.105-0.147,0.21-0.315,0.21
		c-0.084,0-0.546-0.063-0.84-0.105c-1.701,1.701-3.444,3.129-6.048,4.977c2.898-0.063,3.801-0.105,7.392-0.378
		c-0.588-0.714-0.966-1.071-1.89-1.827l0.231-0.231c1.827,1.008,2.583,1.533,3.822,2.583c0.609,0.525,0.735,0.777,0.735,1.428
		c0,0.693-0.252,1.239-0.567,1.239c-0.168,0-0.294-0.126-0.567-0.588c-0.546-0.945-0.903-1.491-1.386-2.121
		c-0.252,0.042-0.483,0.084-0.609,0.105c-0.84,0.147-0.84,0.147-1.974,0.273c-1.554,0.189-2.625,0.315-3.213,0.378v4.578
		c0,0.819,0.021,2.163,0.063,3.129c-0.042,0.273-0.231,0.357-0.882,0.357c-0.063,0-0.063,0-0.21,0c-0.315,0-0.441-0.063-0.504-0.315
		c0.021-0.525,0.021-1.092,0.042-1.722c0.021-1.239,0.021-1.302,0.021-1.554V62.01z M55.828,63.333
		c1.344,0.588,3.36,1.848,4.494,2.835c0.441,0.378,0.588,0.693,0.588,1.344c0,0.672-0.252,1.239-0.546,1.239
		c-0.147,0-0.252-0.084-0.399-0.315c-0.966-1.512-2.667-3.444-4.305-4.893L55.828,63.333z"/>
</g>
<rect x="0.25" y="10.75" fill="none" stroke="#008CD6" stroke-width="0.5" width="63" height="21"/>
<line fill="none" stroke="#008CD6" stroke-width="0.5" x1="21.25" y1="31.75" x2="21.25" y2="10.75"/>
<line fill="none" stroke="#008CD6" stroke-width="0.5" x1="42.25" y1="31.75" x2="42.25" y2="10.75"/>
<g>
	<polyline fill="none" stroke="#008CD6" stroke-width="0.5" points="0.25,10.75 0.25,0.25 63.25,0.25 63.25,10.75 	"/>
	<line fill="none" stroke="#008CD6" stroke-width="0.5" x1="10.75" y1="10.75" x2="10.75" y2="0.25"/>
	<line fill="none" stroke="#008CD6" stroke-width="0.5" x1="21.25" y1="10.75" x2="21.25" y2="0.25"/>
	<line fill="none" stroke="#008CD6" stroke-width="0.5" x1="31.75" y1="10.75" x2="31.75" y2="0.25"/>
	<line fill="none" stroke="#008CD6" stroke-width="0.5" x1="42.25" y1="10.75" x2="42.25" y2="0.25"/>
	<line fill="none" stroke="#008CD6" stroke-width="0.5" x1="52.75" y1="10.75" x2="52.75" y2="0.25"/>
</g>
</svg>
