<?xml version="1.0" encoding="utf-8"?>
<!-- Generator: Adobe Illustrator 12.0.0, SVG Export Plug-In . SVG Version: 6.00 Build 51448)  -->
<!DOCTYPE svg PUBLIC "-//W3C//DTD SVG 1.1//EN" "http://www.w3.org/Graphics/SVG/1.1/DTD/svg11.dtd" [
	<!ENTITY ns_svg "http://www.w3.org/2000/svg">
	<!ENTITY ns_xlink "http://www.w3.org/1999/xlink">
]>
<svg  version="1.1" id="レイヤー_1" xmlns="&ns_svg;" xmlns:xlink="&ns_xlink;" width="124.521" height="164.081"
	 viewBox="0 0 124.521 164.081" overflow="visible" enable-background="new 0 0 124.521 164.081" xml:space="preserve">
<g>
	<path d="M4.905,30.013c0.966-0.242,1.659-0.504,2.32-0.882c1.229-0.693,1.932-1.722,1.932-2.824c0-1.05-0.777-1.764-1.922-1.764
		c-1.229,0-2.835,0.672-4.221,1.753c-0.168,0.137-0.273,0.179-0.399,0.179c-0.494,0-1.26-0.735-1.26-1.208
		c0-0.074,0.021-0.137,0.084-0.263c0.105,0.221,0.168,0.294,0.294,0.389c0.158,0.116,0.284,0.168,0.431,0.168
		c0.273,0,0.672-0.115,1.271-0.378c1.659-0.725,2.751-1.008,3.843-1.008c1.596,0,2.688,0.934,2.688,2.31
		c0,1.302-0.882,2.426-2.415,3.077c-0.798,0.336-1.564,0.515-2.594,0.609L4.905,30.013z"/>
	<path d="M14.061,26.926c-0.599,2.089-0.767,2.856-0.767,3.496c-0.01,0.294-0.084,0.431-0.252,0.431
		c-0.178,0-0.336-0.137-0.43-0.368c-0.231-0.546-0.378-1.459-0.378-2.383c0-0.42,0.032-0.924,0.095-1.365
		c0.073-0.609,0.073-0.609,0.441-2.163c0.105-0.462,0.158-0.798,0.158-1.008c0-0.252-0.105-0.514-0.315-0.819
		c0.231,0.011,0.367,0.105,0.619,0.41c0.294,0.346,0.473,0.724,0.473,1.008c0,0.147-0.021,0.21-0.158,0.462
		c-0.525,0.987-0.84,2.237-0.84,3.381c0,0.525,0.042,0.84,0.179,1.407l0.998-2.572L14.061,26.926z M15.29,23.607
		c0.357,0.147,0.651,0.2,1.124,0.2c0.83,0,1.743-0.2,2.341-0.515c0.074-0.042,0.158-0.073,0.189-0.073
		c0.252,0,0.588,0.21,0.588,0.367c0,0.105-0.105,0.2-0.347,0.273c-0.347,0.116-0.767,0.21-1.229,0.273
		c0.315,0.252,0.41,0.367,0.41,0.514c0,0.042-0.011,0.095-0.021,0.168c-0.032,0.189-0.042,0.336-0.063,1.26
		c0.399-0.147,0.546-0.231,0.85-0.504c0.042-0.032,0.105-0.074,0.137-0.074c0.042,0,0.179,0.042,0.252,0.074
		c0.137,0.084,0.221,0.178,0.221,0.273c0,0.094-0.074,0.21-0.2,0.294c-0.326,0.22-0.756,0.388-1.26,0.514
		c0.021,0.672,0.052,1.26,0.126,2.058c1.292,0.378,1.827,0.788,1.827,1.396c0,0.2-0.094,0.347-0.231,0.347
		c-0.084,0-0.157-0.042-0.273-0.158c-0.525-0.556-0.735-0.703-1.292-0.945c0,0.431-0.031,0.567-0.126,0.777
		c-0.21,0.41-0.767,0.641-1.543,0.641c-0.966,0-1.606-0.41-1.606-1.029c0-0.714,0.798-1.197,1.974-1.197
		c0.199,0,0.367,0.011,0.662,0.053v-1.176c0-0.031,0-0.399,0-0.683c-0.336,0.032-0.515,0.042-0.746,0.042
		c-0.578,0-0.998-0.116-1.281-0.357c-0.241-0.199-0.346-0.409-0.388-0.798l0.147-0.031c0.094,0.325,0.21,0.472,0.451,0.598
		c0.168,0.084,0.515,0.137,0.84,0.137c0.304,0,0.661-0.042,0.977-0.105c0-0.21,0.01-1.292,0.01-1.407
		c0-0.357-0.032-0.472-0.158-0.651c-0.325,0.021-0.483,0.032-0.703,0.032c-0.704,0-1.26-0.147-1.743-0.441L15.29,23.607z
		 M16.77,28.994c-0.798,0-1.344,0.304-1.344,0.735c0,0.357,0.399,0.578,1.029,0.578c0.557,0,0.966-0.147,1.155-0.41
		c0.084-0.115,0.137-0.273,0.158-0.462c0.01-0.063,0.021-0.252,0.021-0.305v-0.01C17.474,29.036,17.138,28.994,16.77,28.994z
		 M19.101,22.18c0.399,0.189,0.714,0.388,1.029,0.641c0.294,0.231,0.431,0.462,0.431,0.714c0,0.262-0.126,0.504-0.273,0.504
		c-0.063,0-0.116-0.042-0.179-0.105c-0.021-0.032-0.021-0.032-0.22-0.473c-0.179-0.378-0.504-0.808-0.882-1.166L19.101,22.18z
		 M20.015,21.781c0.399,0.147,0.704,0.315,1.029,0.535c0.336,0.242,0.462,0.42,0.462,0.672c0,0.294-0.105,0.504-0.262,0.504
		c-0.095,0-0.168-0.074-0.252-0.242c-0.263-0.578-0.599-1.008-1.061-1.365L20.015,21.781z"/>
	<path d="M26.346,31.073c0.767-0.62,1.113-0.966,1.491-1.491s0.63-1.019,0.935-1.816c-0.914-0.483-1.816-0.714-3.013-0.767
		c-0.641,1.166-0.914,1.606-1.271,2.079c-0.389,0.483-0.714,0.725-1.008,0.725c-0.441,0-0.809-0.504-0.809-1.113
		c0-0.535,0.263-1.071,0.714-1.449c0.462-0.389,1.155-0.63,1.995-0.693c0.147-0.252,0.168-0.325,0.746-1.648
		c0.336-0.798,0.378-0.914,0.546-1.48c-0.252,0.063-0.976,0.294-1.512,0.483c-0.168,0.053-0.252,0.074-0.347,0.074
		c-0.325,0-0.662-0.515-0.662-1.019c0-0.105,0.021-0.157,0.116-0.242c0.21,0.483,0.399,0.641,0.788,0.641
		c0.273,0,0.598-0.052,1.113-0.178c0.273-0.074,0.315-0.095,0.462-0.221c0.063-0.073,0.126-0.094,0.221-0.094
		c0.231,0,0.756,0.556,0.756,0.819c0,0.084-0.042,0.157-0.157,0.241c-0.242,0.2-0.336,0.347-1.061,1.785
		c-0.284,0.567-0.326,0.651-0.431,0.851c1.061,0.052,1.974,0.231,3.014,0.599c0.178-0.546,0.346-1.354,0.346-1.69
		c0-0.284-0.147-0.473-0.546-0.725c0.074-0.053,0.116-0.063,0.189-0.063c0.179,0,0.42,0.084,0.735,0.241
		c0.336,0.168,0.493,0.336,0.493,0.525c0,0.105-0.01,0.157-0.094,0.367C30.063,25.886,30,26.106,29.843,26.6
		c-0.053,0.189-0.095,0.315-0.242,0.798c1.26,0.63,1.596,0.935,1.596,1.491c0,0.21-0.105,0.378-0.242,0.378
		c-0.095,0-0.168-0.053-0.357-0.221c-0.336-0.336-0.683-0.609-1.25-0.987c-0.462,1.008-0.788,1.512-1.344,2.047
		c-0.472,0.452-0.903,0.756-1.575,1.082L26.346,31.073z M23.123,28.438c0,0.389,0.221,0.756,0.452,0.756
		c0.346,0,0.788-0.609,1.596-2.205C23.826,27.136,23.123,27.629,23.123,28.438z"/>
	<path d="M15.552,38.896v-1.512h-4.326c-0.777,0-0.945,0.021-1.47,0.126l-0.189-0.777c0.756,0.168,0.84,0.168,1.659,0.168h9.66
		c0.525-0.525,0.672-0.672,1.134-1.197c0.714,0.546,0.924,0.714,1.575,1.26c0.147,0.126,0.189,0.21,0.189,0.273
		c0,0.105-0.084,0.147-0.231,0.147h-6.678v1.512h6.762c0.462-0.378,0.588-0.504,1.008-0.903c0.63,0.525,0.819,0.672,1.428,1.176
		c0.21,0.168,0.252,0.231,0.252,0.294c0,0.21-0.336,0.294-1.26,0.294c-0.609,0.672-0.84,0.882-1.596,1.47l-0.147-0.168
		c0.063-0.273,0.063-0.273,0.252-0.798c0.147-0.399,0.147-0.399,0.231-0.882h-6.93v1.155c0,2.352,0,2.352,0.021,3.318
		c0,0.042,0,0.063,0,0.084c0,0.105-0.042,0.147-0.147,0.189c-0.231,0.063-0.693,0.126-0.945,0.126c-0.189,0-0.273-0.063-0.273-0.189
		c0.021-1.134,0.021-1.134,0.021-3.402v-1.281H9.105c-0.063,1.176-0.147,1.617-0.42,2.247c-0.273,0.651-0.819,1.218-1.176,1.218
		c-0.273,0-0.546-0.546-0.546-1.05c0-0.294,0.105-0.42,0.567-0.756c0.441-0.315,0.651-0.63,0.882-1.26
		c0.21-0.546,0.273-0.924,0.315-1.68h0.42c0,0.42,0,0.462-0.021,0.798H15.552z M18.492,34.591c0.021-0.21,0.021-0.315,0.021-0.399
		c0-0.819-0.021-1.155-0.042-1.449c1.785,0.147,1.785,0.147,1.953,0.21c0.063,0.042,0.126,0.105,0.126,0.168
		c0,0.147-0.21,0.273-0.798,0.441c0,0.525,0,0.609,0,1.029h2.541c0.588-0.63,0.777-0.819,1.323-1.386
		c0.882,0.63,1.134,0.819,1.995,1.491c0.105,0.105,0.147,0.189,0.147,0.231c0,0.084-0.084,0.147-0.21,0.147h-5.796
		c0,0.357,0,0.504,0.021,0.924c0,0.21-0.105,0.231-0.84,0.231c-0.399,0-0.462-0.021-0.462-0.21c0.021-0.462,0.021-0.651,0.021-0.945
		h-4.494c0,0.336,0,0.483,0.021,0.924c0,0.147-0.042,0.21-0.168,0.231c-0.084,0.021-0.609,0.063-0.777,0.063
		c-0.273,0-0.357-0.063-0.357-0.273c0.021-0.483,0.021-0.609,0.021-0.945H8.727c-0.735,0-0.966,0.021-1.386,0.105l-0.168-0.756
		c0.714,0.147,0.882,0.168,1.554,0.168h4.011c0-1.197-0.021-1.449-0.063-1.932c1.89,0.168,2.1,0.21,2.1,0.462
		c0,0.168-0.189,0.273-0.777,0.399c0,0.504,0,0.504,0,1.071H18.492z M12.927,42.844c0.378-0.357,0.504-0.462,0.861-0.819
		c0.546,0.42,0.714,0.546,1.218,0.987c0.063,0.063,0.126,0.147,0.126,0.189c0,0.063-0.084,0.126-0.168,0.126h-4.305
		c-0.714,0-0.798,0-1.197,0.105l-0.21-0.714c0.672,0.126,0.777,0.126,1.407,0.126H12.927z M21.537,45.049
		c0.357-0.42,0.462-0.546,0.798-0.924c0.588,0.336,0.756,0.441,1.302,0.777c0.189,0.126,0.252,0.21,0.252,0.315
		c0,0.168-0.063,0.231-0.798,0.672c-0.021,1.029-0.021,1.785-0.021,2.31c0,1.239,0.021,1.974,0.063,3.465l0.021,0.042
		c0,0.084-0.021,0.105-0.063,0.126c-0.147,0.063-0.588,0.126-0.945,0.126s-0.441-0.042-0.441-0.21v-0.777H10.953v0.777
		c0,0.273-0.105,0.315-0.777,0.315c-0.588,0-0.672-0.021-0.672-0.189c0.084-1.722,0.105-2.394,0.105-4.746
		c0-1.386,0-1.407-0.084-2.919c0.714,0.336,0.945,0.441,1.701,0.84H21.537z M12.948,40.849c0.378-0.357,0.504-0.483,0.84-0.798
		c0.588,0.441,0.756,0.588,1.302,1.029c0.063,0.084,0.084,0.126,0.084,0.168c0,0.063-0.063,0.084-0.21,0.084h-4.137
		c-0.525,0-0.63,0.021-1.071,0.126l-0.231-0.756c0.525,0.126,0.714,0.147,1.302,0.147H12.948z M15.552,47.611v-2.079h-4.599v2.079
		H15.552z M10.953,50.488h4.599v-2.394h-4.599V50.488z M21.705,45.532h-4.83v2.079h4.83V45.532z M16.875,48.094v2.394h4.83v-2.394
		H16.875z M21.726,39.967c0.588,0.483,0.756,0.63,1.302,1.113c0.063,0.063,0.084,0.105,0.084,0.126c0,0.063-0.105,0.126-0.21,0.126
		h-4.221c-0.525,0-0.672,0.021-1.05,0.105l-0.189-0.735c0.651,0.126,0.735,0.147,1.239,0.147h2.184L21.726,39.967z M21.201,42.844
		c0.357-0.441,0.462-0.567,0.819-0.924c0.651,0.462,0.84,0.63,1.449,1.134c0.063,0.063,0.084,0.126,0.084,0.168
		c0,0.063-0.084,0.105-0.168,0.105h-4.494c-0.63,0-0.714,0-1.26,0.105l-0.189-0.756c0.756,0.168,0.819,0.168,1.449,0.168H21.201z"/>
	<path d="M38.715,42.718c-0.042,0.189-0.357,1.512-0.945,3.948c-0.294,1.239-0.357,1.575-0.357,2.226
		c0,0.609-0.021,0.777-0.063,0.903c-0.084,0.231-0.273,0.357-0.504,0.357c-0.357,0-0.672-0.294-0.903-0.861
		c-0.462-1.092-0.735-2.793-0.735-4.473c0-0.63,0.063-1.407,0.168-2.247c0.147-1.218,0.147-1.218,0.735-3.969
		c0.21-0.987,0.294-1.512,0.294-1.953c0-0.693-0.168-1.218-0.588-1.974c0.462,0.021,0.84,0.294,1.407,1.029
		c0.525,0.651,0.777,1.197,0.777,1.659c0,0.336-0.021,0.42-0.441,1.26c-0.42,0.882-0.924,2.352-1.134,3.339
		c-0.189,0.798-0.273,1.701-0.273,2.604c0,1.155,0.105,1.89,0.399,2.772c0.357-0.735,0.525-1.155,0.756-1.785l1.113-2.94
		L38.715,42.718z M41.361,43.768c-0.042,0.42-0.063,0.609-0.063,0.882c0,2.31,1.323,3.255,4.578,3.255
		c0.609,0,1.218-0.042,1.785-0.147c0.441-0.063,0.441-0.063,1.113-0.336c0.126-0.042,0.231-0.063,0.315-0.063
		c0.546,0,1.323,0.735,1.323,1.239c0,0.252-0.168,0.42-0.462,0.525c-0.441,0.147-1.449,0.231-2.625,0.231
		c-2.625,0-4.494-0.441-5.439-1.281c-0.756-0.693-1.134-1.575-1.134-2.73c0-0.525,0.063-0.987,0.252-1.659L41.361,43.768z
		 M41.319,37.09c0.735,0.441,1.197,0.567,1.953,0.567c1.302,0,3.339-0.462,4.221-0.945c0.273-0.147,0.315-0.168,0.462-0.168
		c0.168,0,0.441,0.105,0.735,0.294c0.441,0.252,0.651,0.504,0.651,0.777s-0.147,0.399-0.588,0.483
		c-1.386,0.21-2.163,0.399-2.982,0.735c-0.651,0.273-1.869,0.945-2.709,1.491l-0.21-0.21c0.945-0.798,1.659-1.386,1.995-1.638
		c-0.441,0.021-0.672,0.042-0.861,0.042c-1.176,0-1.953-0.315-2.856-1.176L41.319,37.09z"/>
	<path d="M59.778,42.718c-0.378,1.323-0.966,3.612-1.218,4.641c-0.21,0.924-0.273,1.26-0.273,1.785
		c-0.021,0.672-0.042,0.756-0.147,0.924c-0.105,0.147-0.231,0.231-0.399,0.231c-0.357,0-0.651-0.294-0.903-0.945
		c-0.42-1.071-0.672-2.667-0.672-4.221c0-1.932,0.231-3.696,0.945-6.993c0.273-1.302,0.315-1.533,0.315-1.89
		c0-0.63-0.168-1.134-0.609-1.848c0.483,0.021,0.882,0.294,1.47,1.05c0.483,0.609,0.756,1.197,0.756,1.596
		c0,0.231,0,0.231-0.336,0.924c-1.008,2.1-1.596,4.599-1.596,6.846c0,1.071,0.084,1.743,0.336,2.604l0.882-2.1l1.134-2.709
		L59.778,42.718z M61.878,38.917c1.008,0.651,1.659,0.861,2.709,0.861c0.735,0,1.533-0.105,2.394-0.294c0-0.399,0-0.735,0-0.924
		c0-2.352-0.021-2.625-0.294-2.919c-0.252-0.273-0.714-0.42-1.386-0.483c0.294-0.273,0.462-0.336,1.008-0.336
		c0.462,0,1.029,0.084,1.428,0.189c0.609,0.189,0.924,0.441,0.924,0.756c0,0.147,0,0.168-0.189,0.651
		c-0.231,0.609-0.357,1.365-0.441,2.814c0.966-0.273,1.575-0.546,1.932-0.861c0.21-0.21,0.273-0.231,0.462-0.231
		c0.252,0,0.735,0.126,0.987,0.273c0.168,0.084,0.273,0.231,0.273,0.378c0,0.462-1.533,1.092-3.717,1.512
		c0,2.793,0.063,3.948,0.273,5.712c2.436,0.651,3.465,1.47,3.465,2.688c0,0.441-0.189,0.777-0.42,0.777
		c-0.168,0-0.315-0.105-0.735-0.525c-0.924-0.945-1.449-1.323-2.268-1.68c0.021,0.189,0.021,0.357,0.021,0.504
		c0,1.512-1.26,2.415-3.36,2.415c-1.827,0-3.108-0.882-3.108-2.142c0-1.449,1.554-2.373,3.948-2.373
		c0.399,0,0.693,0.021,1.281,0.063c0-0.189,0-0.315,0-0.357l-0.042-2.247l-0.021-2.688c-0.63,0.126-1.239,0.168-1.848,0.168
		c-1.533,0-2.415-0.378-3.465-1.47L61.878,38.917z M65.091,46.582c-1.659,0-2.688,0.546-2.688,1.47c0,0.735,0.819,1.239,2.058,1.239
		c1.155,0,1.974-0.336,2.31-0.987c0.21-0.378,0.273-0.693,0.273-1.47C66.456,46.666,65.868,46.582,65.091,46.582z"/>
	<path d="M79.014,42.466c0,0.798-0.63,1.428-1.428,1.428c-0.777,0-1.428-0.651-1.428-1.428s0.651-1.428,1.428-1.428
		C78.384,41.038,79.014,41.668,79.014,42.466z M86.007,42.466c0,0.798-0.63,1.428-1.428,1.428c-0.777,0-1.428-0.651-1.428-1.428
		s0.651-1.428,1.428-1.428C85.377,41.038,86.007,41.668,86.007,42.466z M93.021,42.466c0,0.798-0.63,1.428-1.428,1.428
		c-0.777,0-1.428-0.651-1.428-1.428s0.651-1.428,1.428-1.428C92.391,41.038,93.021,41.668,93.021,42.466z"/>
	<path d="M100.014,42.466c0,0.798-0.63,1.428-1.428,1.428c-0.777,0-1.428-0.651-1.428-1.428s0.651-1.428,1.428-1.428
		C99.384,41.038,100.014,41.668,100.014,42.466z M107.007,42.466c0,0.798-0.63,1.428-1.428,1.428c-0.777,0-1.428-0.651-1.428-1.428
		s0.651-1.428,1.428-1.428C106.377,41.038,107.007,41.668,107.007,42.466z M114.021,42.466c0,0.798-0.63,1.428-1.428,1.428
		c-0.777,0-1.428-0.651-1.428-1.428s0.651-1.428,1.428-1.428C113.391,41.038,114.021,41.668,114.021,42.466z"/>
	<path d="M16.098,66.889c0.525-0.651,0.672-0.84,1.197-1.407c0.861,0.693,1.134,0.924,1.995,1.638
		c0.042,0.063,0.063,0.126,0.063,0.147c0,0.084-0.063,0.105-0.21,0.105h-8.316c-0.252,0.882-0.462,1.47-0.819,2.289h5.396
		c0.483-0.588,0.63-0.777,1.113-1.344c0.84,0.672,1.092,0.882,1.932,1.575c0.042,0.063,0.084,0.105,0.084,0.147
		s-0.105,0.105-0.189,0.105h-5.523c0.651,1.281,0.882,1.638,1.533,2.415h3.171c0.546-0.651,0.714-0.861,1.218-1.449
		c0.882,0.693,1.134,0.924,1.974,1.659c0.042,0.063,0.084,0.126,0.084,0.168c0,0.063-0.084,0.105-0.189,0.105h-5.817
		c0.525,0.546,0.903,0.882,1.512,1.302c1.617,1.176,2.772,1.701,4.809,2.163l-0.021,0.399c-0.861,0.105-1.029,0.21-1.68,1.197
		c-1.785-0.966-2.793-1.785-4.263-3.444c-0.483-0.546-0.861-1.008-1.281-1.617H8.139c-0.42,0.609-0.819,1.113-1.365,1.722
		c0.483,0.273,0.588,0.336,1.155,0.672h6.258c0.231-0.273,0.231-0.273,0.462-0.546c0.546,0.441,0.714,0.567,1.239,1.029
		c0.063,0.063,0.105,0.126,0.105,0.168c0,0.084-0.042,0.126-0.294,0.357c0,2.688,0.063,5.166,0.168,6.762
		c0,0.168-0.042,0.21-0.168,0.252c-0.168,0.063-0.714,0.105-1.113,0.105c-0.189,0-0.252-0.042-0.252-0.231v-0.777H7.761v0.651
		C7.74,83.374,7.698,83.458,7.572,83.5s-0.693,0.105-1.029,0.105c-0.189,0-0.252-0.063-0.252-0.21
		c0.084-3.381,0.105-4.683,0.105-5.817c0-0.798,0-0.798-0.042-2.331c-1.617,1.68-2.814,2.562-5.061,3.696l-0.168-0.294
		c2.415-1.743,4.095-3.402,5.628-5.607H3.162c-0.819,0-1.113,0.021-1.617,0.105l-0.126-0.756c0.735,0.147,0.966,0.168,2.1,0.168
		h3.549c0.546-0.84,0.882-1.491,1.302-2.415H5.052c-0.588,0-0.84,0.021-1.407,0.084l-0.126-0.714
		c0.63,0.126,0.924,0.147,1.827,0.147H8.58c0.315-0.798,0.483-1.302,0.735-2.289H4.611c-0.504,0-1.071,0.042-1.659,0.105L2.805,66.7
		c0.777,0.168,1.113,0.189,2.058,0.189h4.578c0.252-1.071,0.315-1.596,0.378-2.604c2.331,0.399,2.478,0.42,2.478,0.651
		c0,0.189-0.126,0.252-0.987,0.483c-0.168,0.714-0.252,1.05-0.357,1.47H16.098z M14.334,75.919H7.761v2.646h6.573V75.919z
		 M7.761,79.048v3.024h6.573v-3.024H7.761z M9.798,70.144c-0.441,0.945-0.777,1.554-1.323,2.415h5.061
		c-0.462-0.756-0.651-1.134-1.155-2.415H9.798z"/>
	<path d="M28.215,74.218c-0.042,0.189-0.357,1.512-0.945,3.948c-0.294,1.239-0.357,1.575-0.357,2.226
		c0,0.609-0.021,0.777-0.063,0.903c-0.084,0.231-0.273,0.357-0.504,0.357c-0.357,0-0.672-0.294-0.903-0.861
		c-0.462-1.092-0.735-2.793-0.735-4.473c0-0.63,0.063-1.407,0.168-2.247c0.147-1.218,0.147-1.218,0.735-3.969
		c0.21-0.987,0.294-1.512,0.294-1.953c0-0.693-0.168-1.218-0.588-1.974c0.462,0.021,0.84,0.294,1.407,1.029
		c0.525,0.651,0.777,1.197,0.777,1.659c0,0.336-0.021,0.42-0.441,1.26c-0.42,0.882-0.924,2.352-1.134,3.339
		c-0.189,0.798-0.273,1.701-0.273,2.604c0,1.155,0.105,1.89,0.399,2.772c0.357-0.735,0.525-1.155,0.756-1.785l1.113-2.94
		L28.215,74.218z M30.861,75.268c-0.042,0.42-0.063,0.609-0.063,0.882c0,2.31,1.323,3.255,4.578,3.255
		c0.609,0,1.218-0.042,1.785-0.147c0.441-0.063,0.441-0.063,1.113-0.336c0.126-0.042,0.231-0.063,0.315-0.063
		c0.546,0,1.323,0.735,1.323,1.239c0,0.252-0.168,0.42-0.462,0.525c-0.441,0.147-1.449,0.231-2.625,0.231
		c-2.625,0-4.494-0.441-5.439-1.281c-0.756-0.693-1.134-1.575-1.134-2.73c0-0.525,0.063-0.987,0.252-1.659L30.861,75.268z
		 M30.819,68.59c0.735,0.441,1.197,0.567,1.953,0.567c1.302,0,3.339-0.462,4.221-0.945c0.273-0.147,0.315-0.168,0.462-0.168
		c0.168,0,0.441,0.105,0.735,0.294c0.441,0.252,0.651,0.504,0.651,0.777s-0.147,0.399-0.588,0.483
		c-1.386,0.21-2.163,0.399-2.982,0.735c-0.651,0.273-1.869,0.945-2.709,1.491l-0.21-0.21c0.945-0.798,1.659-1.386,1.995-1.638
		c-0.441,0.021-0.672,0.042-0.861,0.042c-1.176,0-1.953-0.315-2.856-1.176L30.819,68.59z"/>
	<path d="M45.267,68.737c1.008,0.945,1.596,1.218,2.646,1.218c0.546,0,1.113-0.084,1.911-0.252c0.525-1.365,0.756-2.247,0.756-2.982
		c0-0.693-0.336-1.113-1.344-1.617c0.231-0.126,0.336-0.147,0.504-0.147c0.42,0,1.071,0.189,1.68,0.483
		c0.714,0.357,0.987,0.588,0.987,0.882c0,0.168-0.042,0.294-0.21,0.546c-0.084,0.168-0.525,1.029-1.281,2.583
		c1.554-0.546,1.743-0.651,2.331-1.155c0.168-0.147,0.231-0.168,0.441-0.168c0.819,0,1.428,0.273,1.428,0.63
		c0,0.546-1.302,1.071-4.641,1.848c-0.189,0.42-0.546,1.281-1.113,2.541c-0.63,1.449-2.247,4.977-2.436,5.334
		c-0.315,0.567-0.504,0.756-0.756,0.756c-0.357,0-0.651-0.651-0.651-1.491c0-0.42,0.042-0.546,0.231-0.756
		c0.462-0.504,0.714-0.819,1.008-1.26c1.029-1.533,1.785-2.961,2.625-4.935c-0.462,0.063-0.651,0.084-0.987,0.084
		c-0.756,0-1.323-0.126-1.848-0.441c-0.63-0.357-1.113-0.861-1.533-1.533L45.267,68.737z M56.376,69.913
		c1.449,0.126,2.625,0.504,3.591,1.155c0.819,0.525,1.323,1.155,1.323,1.638c0,0.357-0.21,0.609-0.546,0.609
		c-0.168,0-0.294-0.042-0.483-0.168c-0.588-0.357-0.987-0.441-2.058-0.441c-1.68,0-2.205,0.462-2.205,1.911
		c0,0.567,0.105,1.47,0.42,3.612c1.281,0.378,2.373,0.882,2.982,1.365c0.567,0.441,0.84,0.987,0.84,1.659
		c0,0.42-0.168,0.714-0.42,0.714c-0.21,0-0.294-0.063-0.735-0.546c-0.756-0.819-1.449-1.323-2.541-1.848c0,0.168,0,0.315,0,0.399
		c0,0.84-0.168,1.323-0.588,1.785c-0.567,0.567-1.554,0.903-2.73,0.903c-1.89,0-3.192-0.903-3.192-2.226
		c0-1.47,1.596-2.499,3.927-2.499c0.483,0,0.714,0.021,1.26,0.105c-0.063-1.659-0.063-1.827-0.063-2.079
		c0-1.722,0.168-2.373,0.735-3.003c0.42-0.441,1.008-0.735,1.995-0.987c0.315-0.084,0.357-0.105,1.134-0.273
		c-0.567-0.609-1.218-0.945-2.709-1.449L56.376,69.913z M55.242,79.111c-0.651-0.189-1.134-0.252-1.806-0.252
		c-1.785,0-2.877,0.609-2.877,1.596c0,0.777,0.798,1.239,2.1,1.239c1.701,0,2.583-0.693,2.583-2.016V79.111z"/>
	<path d="M69.438,72.307c0.021-0.336,0.021-0.336,0.042-0.882c0.042-0.42,0.042-0.42,0.063-0.735
		c-0.63,0.42-1.743,1.176-2.121,1.449c-0.399,0.273-0.525,0.336-0.714,0.336c-0.546,0-1.554-1.239-1.554-1.911
		c0-0.042,0.021-0.21,0.063-0.357c0.462,0.672,0.924,1.008,1.365,1.008c0.42,0,1.785-0.567,3.024-1.26
		c0.105-0.882,0.147-1.47,0.147-2.226c0-1.218-0.189-1.575-1.197-2.331c0.126-0.084,0.168-0.105,0.273-0.105
		c0.336,0,0.798,0.21,1.344,0.567c0.672,0.462,1.092,0.987,1.092,1.386c0,0.231,0,0.231-0.21,0.861
		c-0.147,0.399-0.294,1.071-0.378,1.659c0.462,0.483,0.609,0.651,0.609,0.819c0,0.126-0.021,0.168-0.294,0.609
		c-0.252,0.462-0.462,0.861-0.672,1.365c-0.042,0.357-0.042,0.441-0.042,0.777c2.058-1.953,2.751-2.562,3.654-3.213
		c1.47-1.05,2.457-1.491,3.381-1.491c0.651,0,1.239,0.273,1.659,0.756c0.399,0.462,0.567,1.029,0.567,1.848
		c0,0.798-0.021,0.945-0.42,3.108c-0.252,1.365-0.378,2.583-0.378,3.444c0,0.84,0.147,1.281,0.525,1.554
		c0.294,0.21,0.672,0.315,1.071,0.315c1.05,0,2.52-0.546,3.906-1.491l0.168,0.252c-1.512,1.554-3.15,2.415-4.641,2.415
		c-1.596,0-2.457-1.029-2.457-2.94c0-0.756,0.189-2.1,0.525-3.738c0.483-2.247,0.525-2.541,0.525-3.318
		c0-1.029-0.462-1.617-1.281-1.617c-0.903,0-1.995,0.63-3.675,2.121c-1.092,0.966-2.079,1.995-3.192,3.318
		c-0.021,0.504-0.021,0.777-0.021,1.092c0,1.134,0.063,2.142,0.21,3.759c0.063,0.504,0.063,0.672,0.063,0.987
		c0,1.197-0.399,2.184-0.903,2.184c-0.231,0-0.399-0.168-0.504-0.567c-0.063-0.21-0.294-0.861-0.357-1.008
		c-0.231-0.42-0.903-1.281-1.848-2.289c-0.42,1.008-0.504,1.134-0.714,1.134c-0.189,0-0.357-0.168-0.483-0.483
		c-0.126-0.336-0.231-0.84-0.231-1.155c0-0.252,0.021-0.294,0.357-0.63c0.336-0.315,0.672-0.777,1.365-1.869L69.438,72.307z
		 M68.157,76.234c-0.483,0.924-0.714,1.386-1.113,2.226c1.239,1.029,1.617,1.323,2.226,1.701c0.042-0.798,0.042-0.798,0.063-3.927
		c0-1.029,0.021-1.512,0.084-2.373C69.123,74.47,69.102,74.47,68.157,76.234z"/>
	<path d="M89.514,73.966c0,0.798-0.63,1.428-1.428,1.428c-0.777,0-1.428-0.651-1.428-1.428s0.651-1.428,1.428-1.428
		C88.884,72.538,89.514,73.168,89.514,73.966z M96.507,73.966c0,0.798-0.63,1.428-1.428,1.428c-0.777,0-1.428-0.651-1.428-1.428
		s0.651-1.428,1.428-1.428C95.877,72.538,96.507,73.168,96.507,73.966z M103.521,73.966c0,0.798-0.63,1.428-1.428,1.428
		c-0.777,0-1.428-0.651-1.428-1.428s0.651-1.428,1.428-1.428C102.891,72.538,103.521,73.168,103.521,73.966z"/>
	<path d="M110.514,73.966c0,0.798-0.63,1.428-1.428,1.428c-0.777,0-1.428-0.651-1.428-1.428s0.651-1.428,1.428-1.428
		C109.884,72.538,110.514,73.168,110.514,73.966z M117.507,73.966c0,0.798-0.63,1.428-1.428,1.428c-0.777,0-1.428-0.651-1.428-1.428
		s0.651-1.428,1.428-1.428C116.877,72.538,117.507,73.168,117.507,73.966z M124.521,73.966c0,0.798-0.63,1.428-1.428,1.428
		c-0.777,0-1.429-0.651-1.429-1.428s0.651-1.428,1.429-1.428C123.891,72.538,124.521,73.168,124.521,73.966z"/>
</g>
<g>
	<path d="M3.78,110.488c0.966-0.242,1.659-0.504,2.32-0.882c1.229-0.693,1.932-1.722,1.932-2.824c0-1.05-0.777-1.764-1.922-1.764
		c-1.229,0-2.835,0.672-4.221,1.753c-0.168,0.137-0.273,0.179-0.399,0.179c-0.494,0-1.26-0.735-1.26-1.208
		c0-0.074,0.021-0.137,0.084-0.263c0.105,0.221,0.168,0.294,0.294,0.389c0.158,0.116,0.284,0.168,0.431,0.168
		c0.273,0,0.672-0.115,1.271-0.378c1.659-0.725,2.751-1.008,3.843-1.008c1.596,0,2.688,0.934,2.688,2.31
		c0,1.302-0.882,2.426-2.415,3.077c-0.798,0.336-1.564,0.515-2.594,0.609L3.78,110.488z"/>
	<path d="M12.936,107.401c-0.599,2.089-0.767,2.856-0.767,3.496c-0.01,0.294-0.084,0.431-0.252,0.431
		c-0.178,0-0.336-0.137-0.43-0.368c-0.231-0.546-0.378-1.459-0.378-2.383c0-0.42,0.032-0.924,0.095-1.365
		c0.073-0.609,0.073-0.609,0.441-2.163c0.105-0.462,0.158-0.798,0.158-1.008c0-0.252-0.105-0.514-0.315-0.819
		c0.231,0.011,0.367,0.105,0.619,0.41c0.294,0.346,0.473,0.724,0.473,1.008c0,0.147-0.021,0.21-0.158,0.462
		c-0.525,0.987-0.84,2.237-0.84,3.381c0,0.525,0.042,0.84,0.179,1.407l0.998-2.572L12.936,107.401z M14.165,104.083
		c0.357,0.147,0.651,0.2,1.124,0.2c0.83,0,1.743-0.2,2.341-0.515c0.074-0.042,0.158-0.073,0.189-0.073
		c0.252,0,0.588,0.21,0.588,0.367c0,0.105-0.105,0.2-0.347,0.273c-0.347,0.116-0.767,0.21-1.229,0.273
		c0.315,0.252,0.41,0.367,0.41,0.514c0,0.042-0.011,0.095-0.021,0.168c-0.032,0.189-0.042,0.336-0.063,1.26
		c0.399-0.147,0.546-0.231,0.85-0.504c0.042-0.032,0.105-0.074,0.137-0.074c0.042,0,0.179,0.042,0.252,0.074
		c0.137,0.084,0.221,0.178,0.221,0.273c0,0.094-0.074,0.21-0.2,0.294c-0.326,0.22-0.756,0.388-1.26,0.514
		c0.021,0.672,0.052,1.26,0.126,2.058c1.292,0.378,1.827,0.788,1.827,1.396c0,0.2-0.094,0.347-0.231,0.347
		c-0.084,0-0.157-0.042-0.273-0.158c-0.525-0.556-0.735-0.703-1.292-0.945c0,0.431-0.031,0.567-0.126,0.777
		c-0.21,0.41-0.767,0.641-1.543,0.641c-0.966,0-1.606-0.41-1.606-1.029c0-0.714,0.798-1.197,1.974-1.197
		c0.199,0,0.367,0.011,0.662,0.053v-1.176c0-0.031,0-0.399,0-0.683c-0.336,0.032-0.515,0.042-0.746,0.042
		c-0.578,0-0.998-0.116-1.281-0.357c-0.241-0.199-0.346-0.409-0.388-0.798l0.147-0.031c0.094,0.325,0.21,0.472,0.451,0.598
		c0.168,0.084,0.515,0.137,0.84,0.137c0.304,0,0.661-0.042,0.977-0.105c0-0.21,0.01-1.292,0.01-1.407
		c0-0.357-0.032-0.472-0.158-0.651c-0.325,0.021-0.483,0.032-0.703,0.032c-0.704,0-1.26-0.147-1.743-0.441L14.165,104.083z
		 M15.645,109.47c-0.798,0-1.344,0.304-1.344,0.735c0,0.357,0.399,0.578,1.029,0.578c0.557,0,0.966-0.147,1.155-0.41
		c0.084-0.115,0.137-0.273,0.158-0.462c0.01-0.063,0.021-0.252,0.021-0.305v-0.01C16.349,109.512,16.013,109.47,15.645,109.47z
		 M17.976,102.655c0.399,0.189,0.714,0.388,1.029,0.641c0.294,0.231,0.431,0.462,0.431,0.714c0,0.262-0.126,0.504-0.273,0.504
		c-0.063,0-0.116-0.042-0.179-0.105c-0.021-0.032-0.021-0.032-0.22-0.473c-0.179-0.378-0.504-0.808-0.882-1.166L17.976,102.655z
		 M18.89,102.256c0.399,0.147,0.704,0.315,1.029,0.535c0.336,0.242,0.462,0.42,0.462,0.672c0,0.294-0.105,0.504-0.262,0.504
		c-0.095,0-0.168-0.074-0.252-0.242c-0.263-0.578-0.599-1.008-1.061-1.365L18.89,102.256z"/>
	<path d="M25.221,111.549c0.767-0.62,1.113-0.966,1.491-1.491s0.63-1.019,0.935-1.816c-0.914-0.483-1.816-0.714-3.013-0.767
		c-0.641,1.166-0.914,1.606-1.271,2.079c-0.389,0.483-0.714,0.725-1.008,0.725c-0.441,0-0.809-0.504-0.809-1.113
		c0-0.535,0.263-1.071,0.714-1.449c0.462-0.389,1.155-0.63,1.995-0.693c0.147-0.252,0.168-0.325,0.746-1.648
		c0.336-0.798,0.378-0.914,0.546-1.48c-0.252,0.063-0.976,0.294-1.512,0.483c-0.168,0.053-0.252,0.074-0.347,0.074
		c-0.325,0-0.662-0.515-0.662-1.019c0-0.105,0.021-0.157,0.116-0.242c0.21,0.483,0.399,0.641,0.788,0.641
		c0.273,0,0.598-0.052,1.113-0.178c0.273-0.074,0.315-0.095,0.462-0.221c0.063-0.073,0.126-0.094,0.221-0.094
		c0.231,0,0.756,0.556,0.756,0.819c0,0.084-0.042,0.157-0.157,0.241c-0.242,0.2-0.336,0.347-1.061,1.785
		c-0.284,0.567-0.326,0.651-0.431,0.851c1.061,0.052,1.974,0.231,3.014,0.599c0.178-0.546,0.346-1.354,0.346-1.69
		c0-0.284-0.147-0.473-0.546-0.725c0.074-0.053,0.116-0.063,0.189-0.063c0.179,0,0.42,0.084,0.735,0.241
		c0.336,0.168,0.493,0.336,0.493,0.525c0,0.105-0.01,0.157-0.094,0.367c-0.032,0.074-0.095,0.294-0.252,0.788
		c-0.053,0.189-0.095,0.315-0.242,0.798c1.26,0.63,1.596,0.935,1.596,1.491c0,0.21-0.105,0.378-0.242,0.378
		c-0.095,0-0.168-0.053-0.357-0.221c-0.336-0.336-0.683-0.609-1.25-0.987c-0.462,1.008-0.788,1.512-1.344,2.047
		c-0.472,0.452-0.903,0.756-1.575,1.082L25.221,111.549z M21.998,108.913c0,0.389,0.221,0.756,0.452,0.756
		c0.346,0,0.788-0.609,1.596-2.205C22.701,107.611,21.998,108.104,21.998,108.913z"/>
	<path d="M15.74,119.372v-1.512h-4.326c-0.777,0-0.945,0.021-1.47,0.126l-0.189-0.777c0.756,0.168,0.84,0.168,1.659,0.168h9.66
		c0.525-0.525,0.672-0.672,1.134-1.197c0.714,0.546,0.924,0.714,1.575,1.26c0.147,0.126,0.189,0.21,0.189,0.273
		c0,0.105-0.084,0.147-0.231,0.147h-6.678v1.512h6.762c0.462-0.378,0.588-0.504,1.008-0.903c0.63,0.525,0.819,0.672,1.428,1.176
		c0.21,0.168,0.252,0.231,0.252,0.294c0,0.21-0.336,0.294-1.26,0.294c-0.609,0.672-0.84,0.882-1.596,1.47l-0.147-0.168
		c0.063-0.273,0.063-0.273,0.252-0.798c0.147-0.399,0.147-0.399,0.231-0.882h-6.93v1.155c0,2.352,0,2.352,0.021,3.318
		c0,0.042,0,0.063,0,0.084c0,0.105-0.042,0.147-0.147,0.189c-0.231,0.063-0.693,0.126-0.945,0.126c-0.189,0-0.273-0.063-0.273-0.189
		c0.021-1.134,0.021-1.134,0.021-3.402v-1.281H9.292c-0.063,1.176-0.147,1.617-0.42,2.247c-0.273,0.651-0.819,1.218-1.176,1.218
		c-0.273,0-0.546-0.546-0.546-1.05c0-0.294,0.105-0.42,0.567-0.756c0.441-0.315,0.651-0.63,0.882-1.26
		c0.21-0.546,0.273-0.924,0.315-1.68h0.42c0,0.42,0,0.462-0.021,0.798H15.74z M18.68,115.066c0.021-0.21,0.021-0.315,0.021-0.399
		c0-0.819-0.021-1.155-0.042-1.449c1.785,0.147,1.785,0.147,1.953,0.21c0.063,0.042,0.126,0.105,0.126,0.168
		c0,0.147-0.21,0.273-0.798,0.441c0,0.525,0,0.609,0,1.029h2.541c0.588-0.63,0.777-0.819,1.323-1.386
		c0.882,0.63,1.134,0.819,1.995,1.491c0.105,0.105,0.147,0.189,0.147,0.231c0,0.084-0.084,0.147-0.21,0.147h-5.796
		c0,0.357,0,0.504,0.021,0.924c0,0.21-0.105,0.231-0.84,0.231c-0.399,0-0.462-0.021-0.462-0.21c0.021-0.462,0.021-0.651,0.021-0.945
		h-4.494c0,0.336,0,0.483,0.021,0.924c0,0.147-0.042,0.21-0.168,0.231c-0.084,0.021-0.609,0.063-0.777,0.063
		c-0.273,0-0.357-0.063-0.357-0.273c0.021-0.483,0.021-0.609,0.021-0.945H8.915c-0.735,0-0.966,0.021-1.386,0.105l-0.168-0.756
		c0.714,0.147,0.882,0.168,1.554,0.168h4.011c0-1.197-0.021-1.449-0.063-1.932c1.89,0.168,2.1,0.21,2.1,0.462
		c0,0.168-0.189,0.273-0.777,0.399c0,0.504,0,0.504,0,1.071H18.68z M13.115,123.319c0.378-0.357,0.504-0.462,0.861-0.819
		c0.546,0.42,0.714,0.546,1.218,0.987c0.063,0.063,0.126,0.147,0.126,0.189c0,0.063-0.084,0.126-0.168,0.126h-4.305
		c-0.714,0-0.798,0-1.197,0.105l-0.21-0.714c0.672,0.126,0.777,0.126,1.407,0.126H13.115z M21.725,125.524
		c0.357-0.42,0.462-0.546,0.798-0.924c0.588,0.336,0.756,0.441,1.302,0.777c0.189,0.126,0.252,0.21,0.252,0.315
		c0,0.168-0.063,0.231-0.798,0.672c-0.021,1.029-0.021,1.785-0.021,2.31c0,1.239,0.021,1.974,0.063,3.465l0.021,0.042
		c0,0.084-0.021,0.105-0.063,0.126c-0.147,0.063-0.588,0.126-0.945,0.126s-0.441-0.042-0.441-0.21v-0.777H11.141v0.777
		c0,0.273-0.105,0.315-0.777,0.315c-0.588,0-0.672-0.021-0.672-0.189c0.084-1.722,0.105-2.394,0.105-4.746
		c0-1.386,0-1.407-0.084-2.919c0.714,0.336,0.945,0.441,1.701,0.84H21.725z M13.136,121.324c0.378-0.357,0.504-0.483,0.84-0.798
		c0.588,0.441,0.756,0.588,1.302,1.029c0.063,0.084,0.084,0.126,0.084,0.168c0,0.063-0.063,0.084-0.21,0.084h-4.137
		c-0.525,0-0.63,0.021-1.071,0.126l-0.231-0.756c0.525,0.126,0.714,0.147,1.302,0.147H13.136z M15.74,128.086v-2.079h-4.599v2.079
		H15.74z M11.141,130.963h4.599v-2.394h-4.599V130.963z M21.893,126.007h-4.83v2.079h4.83V126.007z M17.063,128.569v2.394h4.83
		v-2.394H17.063z M21.914,120.442c0.588,0.483,0.756,0.63,1.302,1.113c0.063,0.063,0.084,0.105,0.084,0.126
		c0,0.063-0.105,0.126-0.21,0.126h-4.221c-0.525,0-0.672,0.021-1.05,0.105l-0.189-0.735c0.651,0.126,0.735,0.147,1.239,0.147h2.184
		L21.914,120.442z M21.389,123.319c0.357-0.441,0.462-0.567,0.819-0.924c0.651,0.462,0.84,0.63,1.449,1.134
		c0.063,0.063,0.084,0.126,0.084,0.168c0,0.063-0.084,0.105-0.168,0.105h-4.494c-0.63,0-0.714,0-1.26,0.105l-0.189-0.756
		c0.756,0.168,0.819,0.168,1.449,0.168H21.389z"/>
	<path d="M38.902,123.193c-0.042,0.189-0.357,1.512-0.945,3.948c-0.294,1.239-0.357,1.575-0.357,2.226
		c0,0.609-0.021,0.777-0.063,0.903c-0.084,0.231-0.273,0.357-0.504,0.357c-0.357,0-0.672-0.294-0.903-0.861
		c-0.462-1.092-0.735-2.793-0.735-4.473c0-0.63,0.063-1.407,0.168-2.247c0.147-1.218,0.147-1.218,0.735-3.969
		c0.21-0.987,0.294-1.512,0.294-1.953c0-0.693-0.168-1.218-0.588-1.974c0.462,0.021,0.84,0.294,1.407,1.029
		c0.525,0.651,0.777,1.197,0.777,1.659c0,0.336-0.021,0.42-0.441,1.26c-0.42,0.882-0.924,2.352-1.134,3.339
		c-0.189,0.798-0.273,1.701-0.273,2.604c0,1.155,0.105,1.89,0.399,2.772c0.357-0.735,0.525-1.155,0.756-1.785l1.113-2.94
		L38.902,123.193z M41.548,124.243c-0.042,0.42-0.063,0.609-0.063,0.882c0,2.31,1.323,3.255,4.578,3.255
		c0.609,0,1.218-0.042,1.785-0.147c0.441-0.063,0.441-0.063,1.113-0.336c0.126-0.042,0.231-0.063,0.315-0.063
		c0.546,0,1.323,0.735,1.323,1.239c0,0.252-0.168,0.42-0.462,0.525c-0.441,0.147-1.449,0.231-2.625,0.231
		c-2.625,0-4.494-0.441-5.439-1.281c-0.756-0.693-1.134-1.575-1.134-2.73c0-0.525,0.063-0.987,0.252-1.659L41.548,124.243z
		 M41.506,117.565c0.735,0.441,1.197,0.567,1.953,0.567c1.302,0,3.339-0.462,4.221-0.945c0.273-0.147,0.315-0.168,0.462-0.168
		c0.168,0,0.441,0.105,0.735,0.294c0.441,0.252,0.651,0.504,0.651,0.777s-0.147,0.399-0.588,0.483
		c-1.386,0.21-2.163,0.399-2.982,0.735c-0.651,0.273-1.869,0.945-2.709,1.491l-0.21-0.21c0.945-0.798,1.659-1.386,1.995-1.638
		c-0.441,0.021-0.672,0.042-0.861,0.042c-1.176,0-1.953-0.315-2.856-1.176L41.506,117.565z"/>
	<path d="M59.965,123.193c-0.378,1.323-0.966,3.612-1.218,4.641c-0.21,0.924-0.273,1.26-0.273,1.785
		c-0.021,0.672-0.042,0.756-0.147,0.924c-0.105,0.147-0.231,0.231-0.399,0.231c-0.357,0-0.651-0.294-0.903-0.945
		c-0.42-1.071-0.672-2.667-0.672-4.221c0-1.932,0.231-3.696,0.945-6.993c0.273-1.302,0.315-1.533,0.315-1.89
		c0-0.63-0.168-1.134-0.609-1.848c0.483,0.021,0.882,0.294,1.47,1.05c0.483,0.609,0.756,1.197,0.756,1.596
		c0,0.231,0,0.231-0.336,0.924c-1.008,2.1-1.596,4.599-1.596,6.846c0,1.071,0.084,1.743,0.336,2.604l0.882-2.1l1.134-2.709
		L59.965,123.193z M62.065,119.393c1.008,0.651,1.659,0.861,2.709,0.861c0.735,0,1.533-0.105,2.394-0.294c0-0.399,0-0.735,0-0.924
		c0-2.352-0.021-2.625-0.294-2.919c-0.252-0.273-0.714-0.42-1.386-0.483c0.294-0.273,0.462-0.336,1.008-0.336
		c0.462,0,1.029,0.084,1.428,0.189c0.609,0.189,0.924,0.441,0.924,0.756c0,0.147,0,0.168-0.189,0.651
		c-0.231,0.609-0.357,1.365-0.441,2.814c0.966-0.273,1.575-0.546,1.932-0.861c0.21-0.21,0.273-0.231,0.462-0.231
		c0.252,0,0.735,0.126,0.987,0.273c0.168,0.084,0.273,0.231,0.273,0.378c0,0.462-1.533,1.092-3.717,1.512
		c0,2.793,0.063,3.948,0.273,5.712c2.436,0.651,3.465,1.47,3.465,2.688c0,0.441-0.189,0.777-0.42,0.777
		c-0.168,0-0.315-0.105-0.735-0.525c-0.924-0.945-1.449-1.323-2.268-1.68c0.021,0.189,0.021,0.357,0.021,0.504
		c0,1.512-1.26,2.415-3.36,2.415c-1.827,0-3.108-0.882-3.108-2.142c0-1.449,1.554-2.373,3.948-2.373
		c0.399,0,0.693,0.021,1.281,0.063c0-0.189,0-0.315,0-0.357l-0.042-2.247l-0.021-2.688c-0.63,0.126-1.239,0.168-1.848,0.168
		c-1.533,0-2.415-0.378-3.465-1.47L62.065,119.393z M65.278,127.058c-1.659,0-2.688,0.546-2.688,1.47
		c0,0.735,0.819,1.239,2.058,1.239c1.155,0,1.974-0.336,2.31-0.987c0.21-0.378,0.273-0.693,0.273-1.47
		C66.644,127.142,66.056,127.058,65.278,127.058z"/>
	<path d="M79.202,122.941c0,0.798-0.63,1.428-1.428,1.428c-0.777,0-1.428-0.651-1.428-1.428s0.651-1.428,1.428-1.428
		C78.572,121.514,79.202,122.144,79.202,122.941z M86.194,122.941c0,0.798-0.63,1.428-1.428,1.428c-0.777,0-1.428-0.651-1.428-1.428
		s0.651-1.428,1.428-1.428C85.564,121.514,86.194,122.144,86.194,122.941z M93.208,122.941c0,0.798-0.63,1.428-1.428,1.428
		c-0.777,0-1.428-0.651-1.428-1.428s0.651-1.428,1.428-1.428C92.579,121.514,93.208,122.144,93.208,122.941z"/>
	<path d="M100.202,122.941c0,0.798-0.63,1.428-1.428,1.428c-0.777,0-1.428-0.651-1.428-1.428s0.651-1.428,1.428-1.428
		C99.572,121.514,100.202,122.144,100.202,122.941z M107.194,122.941c0,0.798-0.63,1.428-1.428,1.428
		c-0.777,0-1.428-0.651-1.428-1.428s0.651-1.428,1.428-1.428C106.564,121.514,107.194,122.144,107.194,122.941z M114.208,122.941
		c0,0.798-0.63,1.428-1.428,1.428c-0.777,0-1.428-0.651-1.428-1.428s0.651-1.428,1.428-1.428
		C113.579,121.514,114.208,122.144,114.208,122.941z"/>
	<path d="M14.973,147.364c0.525-0.651,0.672-0.84,1.197-1.407c0.861,0.693,1.134,0.924,1.995,1.638
		c0.042,0.063,0.063,0.126,0.063,0.147c0,0.084-0.063,0.105-0.21,0.105H9.702c-0.252,0.882-0.462,1.47-0.819,2.289h5.396
		c0.483-0.588,0.63-0.777,1.113-1.344c0.84,0.672,1.092,0.882,1.932,1.575c0.042,0.063,0.084,0.105,0.084,0.147
		s-0.105,0.105-0.189,0.105h-5.523c0.651,1.281,0.882,1.638,1.533,2.415h3.171c0.546-0.651,0.714-0.861,1.218-1.449
		c0.882,0.693,1.134,0.924,1.974,1.659c0.042,0.063,0.084,0.126,0.084,0.168c0,0.063-0.084,0.105-0.189,0.105h-5.817
		c0.525,0.546,0.903,0.882,1.512,1.302c1.617,1.176,2.772,1.701,4.809,2.163l-0.021,0.399c-0.861,0.105-1.029,0.21-1.68,1.197
		c-1.785-0.966-2.793-1.785-4.263-3.444c-0.483-0.546-0.861-1.008-1.281-1.617H7.014c-0.42,0.609-0.819,1.113-1.365,1.722
		c0.483,0.273,0.588,0.336,1.155,0.672h6.258c0.231-0.273,0.231-0.273,0.462-0.546c0.546,0.441,0.714,0.567,1.239,1.029
		c0.063,0.063,0.105,0.126,0.105,0.168c0,0.084-0.042,0.126-0.294,0.357c0,2.688,0.063,5.166,0.168,6.762
		c0,0.168-0.042,0.21-0.168,0.252c-0.168,0.063-0.714,0.105-1.113,0.105c-0.189,0-0.252-0.042-0.252-0.231v-0.777H6.636v0.651
		c-0.021,0.168-0.063,0.252-0.189,0.294s-0.693,0.105-1.029,0.105c-0.189,0-0.252-0.063-0.252-0.21
		c0.084-3.381,0.105-4.683,0.105-5.817c0-0.798,0-0.798-0.042-2.331c-1.617,1.68-2.814,2.562-5.061,3.696L0,159.125
		c2.415-1.743,4.095-3.402,5.628-5.607H2.037c-0.819,0-1.113,0.021-1.617,0.105l-0.126-0.756c0.735,0.147,0.966,0.168,2.1,0.168
		h3.549c0.546-0.84,0.882-1.491,1.302-2.415H3.927c-0.588,0-0.84,0.021-1.407,0.084l-0.126-0.714
		c0.63,0.126,0.924,0.147,1.827,0.147h3.234c0.315-0.798,0.483-1.302,0.735-2.289H3.486c-0.504,0-1.071,0.042-1.659,0.105
		l-0.147-0.777c0.777,0.168,1.113,0.189,2.058,0.189h4.578c0.252-1.071,0.315-1.596,0.378-2.604c2.331,0.399,2.478,0.42,2.478,0.651
		c0,0.189-0.126,0.252-0.987,0.483c-0.168,0.714-0.252,1.05-0.357,1.47H14.973z M13.209,156.395H6.636v2.646h6.573V156.395z
		 M6.636,159.523v3.024h6.573v-3.024H6.636z M8.673,150.62c-0.441,0.945-0.777,1.554-1.323,2.415h5.061
		c-0.462-0.756-0.651-1.134-1.155-2.415H8.673z"/>
	<path d="M27.09,154.693c-0.042,0.189-0.357,1.512-0.945,3.948c-0.294,1.239-0.357,1.575-0.357,2.226
		c0,0.609-0.021,0.777-0.063,0.903c-0.084,0.231-0.273,0.357-0.504,0.357c-0.357,0-0.672-0.294-0.903-0.861
		c-0.462-1.092-0.735-2.793-0.735-4.473c0-0.63,0.063-1.407,0.168-2.247c0.147-1.218,0.147-1.218,0.735-3.969
		c0.21-0.987,0.294-1.512,0.294-1.953c0-0.693-0.168-1.218-0.588-1.974c0.462,0.021,0.84,0.294,1.407,1.029
		c0.525,0.651,0.777,1.197,0.777,1.659c0,0.336-0.021,0.42-0.441,1.26c-0.42,0.882-0.924,2.352-1.134,3.339
		c-0.189,0.798-0.273,1.701-0.273,2.604c0,1.155,0.105,1.89,0.399,2.772c0.357-0.735,0.525-1.155,0.756-1.785l1.113-2.94
		L27.09,154.693z M29.736,155.743c-0.042,0.42-0.063,0.609-0.063,0.882c0,2.31,1.323,3.255,4.578,3.255
		c0.609,0,1.218-0.042,1.785-0.147c0.441-0.063,0.441-0.063,1.113-0.336c0.126-0.042,0.231-0.063,0.315-0.063
		c0.546,0,1.323,0.735,1.323,1.239c0,0.252-0.168,0.42-0.462,0.525c-0.441,0.147-1.449,0.231-2.625,0.231
		c-2.625,0-4.494-0.441-5.439-1.281c-0.756-0.693-1.134-1.575-1.134-2.73c0-0.525,0.063-0.987,0.252-1.659L29.736,155.743z
		 M29.694,149.065c0.735,0.441,1.197,0.567,1.953,0.567c1.302,0,3.339-0.462,4.221-0.945c0.273-0.147,0.315-0.168,0.462-0.168
		c0.168,0,0.441,0.105,0.735,0.294c0.441,0.252,0.651,0.504,0.651,0.777s-0.147,0.399-0.588,0.483
		c-1.386,0.21-2.163,0.399-2.982,0.735c-0.651,0.273-1.869,0.945-2.709,1.491l-0.21-0.21c0.945-0.798,1.659-1.386,1.995-1.638
		c-0.441,0.021-0.672,0.042-0.861,0.042c-1.176,0-1.953-0.315-2.856-1.176L29.694,149.065z"/>
	<path d="M44.142,149.212c1.008,0.945,1.596,1.218,2.646,1.218c0.546,0,1.113-0.084,1.911-0.252
		c0.525-1.365,0.756-2.247,0.756-2.982c0-0.693-0.336-1.113-1.344-1.617c0.231-0.126,0.336-0.147,0.504-0.147
		c0.42,0,1.071,0.189,1.68,0.483c0.714,0.357,0.987,0.588,0.987,0.882c0,0.168-0.042,0.294-0.21,0.546
		c-0.084,0.168-0.525,1.029-1.281,2.583c1.554-0.546,1.743-0.651,2.331-1.155c0.168-0.147,0.231-0.168,0.441-0.168
		c0.819,0,1.428,0.273,1.428,0.63c0,0.546-1.302,1.071-4.641,1.848c-0.189,0.42-0.546,1.281-1.113,2.541
		c-0.63,1.449-2.247,4.977-2.436,5.334c-0.315,0.567-0.504,0.756-0.756,0.756c-0.357,0-0.651-0.651-0.651-1.491
		c0-0.42,0.042-0.546,0.231-0.756c0.462-0.504,0.714-0.819,1.008-1.26c1.029-1.533,1.785-2.961,2.625-4.935
		c-0.462,0.063-0.651,0.084-0.987,0.084c-0.756,0-1.323-0.126-1.848-0.441c-0.63-0.357-1.113-0.861-1.533-1.533L44.142,149.212z
		 M55.251,150.389c1.449,0.126,2.625,0.504,3.591,1.155c0.819,0.525,1.323,1.155,1.323,1.638c0,0.357-0.21,0.609-0.546,0.609
		c-0.168,0-0.294-0.042-0.483-0.168c-0.588-0.357-0.987-0.441-2.058-0.441c-1.68,0-2.205,0.462-2.205,1.911
		c0,0.567,0.105,1.47,0.42,3.612c1.281,0.378,2.373,0.882,2.982,1.365c0.567,0.441,0.84,0.987,0.84,1.659
		c0,0.42-0.168,0.714-0.42,0.714c-0.21,0-0.294-0.063-0.735-0.546c-0.756-0.819-1.449-1.323-2.541-1.848c0,0.168,0,0.315,0,0.399
		c0,0.84-0.168,1.323-0.588,1.785c-0.567,0.567-1.554,0.903-2.73,0.903c-1.89,0-3.192-0.903-3.192-2.226
		c0-1.47,1.596-2.499,3.927-2.499c0.483,0,0.714,0.021,1.26,0.105c-0.063-1.659-0.063-1.827-0.063-2.079
		c0-1.722,0.168-2.373,0.735-3.003c0.42-0.441,1.008-0.735,1.995-0.987c0.315-0.084,0.357-0.105,1.134-0.273
		c-0.567-0.609-1.218-0.945-2.709-1.449L55.251,150.389z M54.117,159.586c-0.651-0.189-1.134-0.252-1.806-0.252
		c-1.785,0-2.877,0.609-2.877,1.596c0,0.777,0.798,1.239,2.1,1.239c1.701,0,2.583-0.693,2.583-2.016V159.586z"/>
	<path d="M68.313,152.782c0.021-0.336,0.021-0.336,0.042-0.882c0.042-0.42,0.042-0.42,0.063-0.735
		c-0.63,0.42-1.743,1.176-2.121,1.449c-0.399,0.273-0.525,0.336-0.714,0.336c-0.546,0-1.554-1.239-1.554-1.911
		c0-0.042,0.021-0.21,0.063-0.357c0.462,0.672,0.924,1.008,1.365,1.008c0.42,0,1.785-0.567,3.024-1.26
		c0.105-0.882,0.147-1.47,0.147-2.226c0-1.218-0.189-1.575-1.197-2.331c0.126-0.084,0.168-0.105,0.273-0.105
		c0.336,0,0.798,0.21,1.344,0.567c0.672,0.462,1.092,0.987,1.092,1.386c0,0.231,0,0.231-0.21,0.861
		c-0.147,0.399-0.294,1.071-0.378,1.659c0.462,0.483,0.609,0.651,0.609,0.819c0,0.126-0.021,0.168-0.294,0.609
		c-0.252,0.462-0.462,0.861-0.672,1.365c-0.042,0.357-0.042,0.441-0.042,0.777c2.058-1.953,2.751-2.562,3.654-3.213
		c1.47-1.05,2.457-1.491,3.381-1.491c0.651,0,1.239,0.273,1.659,0.756c0.399,0.462,0.567,1.029,0.567,1.848
		c0,0.798-0.021,0.945-0.42,3.108c-0.252,1.365-0.378,2.583-0.378,3.444c0,0.84,0.147,1.281,0.525,1.554
		c0.294,0.21,0.672,0.315,1.071,0.315c1.05,0,2.52-0.546,3.906-1.491l0.168,0.252c-1.512,1.554-3.15,2.415-4.641,2.415
		c-1.596,0-2.457-1.029-2.457-2.94c0-0.756,0.189-2.1,0.525-3.738c0.483-2.247,0.525-2.541,0.525-3.318
		c0-1.029-0.462-1.617-1.281-1.617c-0.903,0-1.995,0.63-3.675,2.121c-1.092,0.966-2.079,1.995-3.192,3.318
		c-0.021,0.504-0.021,0.777-0.021,1.092c0,1.134,0.063,2.142,0.21,3.759c0.063,0.504,0.063,0.672,0.063,0.987
		c0,1.197-0.399,2.184-0.903,2.184c-0.231,0-0.399-0.168-0.504-0.567c-0.063-0.21-0.294-0.861-0.357-1.008
		c-0.231-0.42-0.903-1.281-1.848-2.289c-0.42,1.008-0.504,1.134-0.714,1.134c-0.189,0-0.357-0.168-0.483-0.483
		c-0.126-0.336-0.231-0.84-0.231-1.155c0-0.252,0.021-0.294,0.357-0.63c0.336-0.315,0.672-0.777,1.365-1.869L68.313,152.782z
		 M67.032,156.709c-0.483,0.924-0.714,1.386-1.113,2.226c1.239,1.029,1.617,1.323,2.226,1.701c0.042-0.798,0.042-0.798,0.063-3.927
		c0-1.029,0.021-1.512,0.084-2.373C67.998,154.945,67.977,154.945,67.032,156.709z"/>
	<path d="M88.389,154.441c0,0.798-0.63,1.428-1.428,1.428c-0.777,0-1.428-0.651-1.428-1.428s0.651-1.428,1.428-1.428
		C87.759,153.014,88.389,153.644,88.389,154.441z M95.382,154.441c0,0.798-0.63,1.428-1.428,1.428c-0.777,0-1.428-0.651-1.428-1.428
		s0.651-1.428,1.428-1.428C94.752,153.014,95.382,153.644,95.382,154.441z M102.396,154.441c0,0.798-0.63,1.428-1.428,1.428
		c-0.777,0-1.428-0.651-1.428-1.428s0.651-1.428,1.428-1.428C101.766,153.014,102.396,153.644,102.396,154.441z"/>
	<path d="M109.389,154.441c0,0.798-0.63,1.428-1.428,1.428c-0.777,0-1.428-0.651-1.428-1.428s0.651-1.428,1.428-1.428
		C108.759,153.014,109.389,153.644,109.389,154.441z M116.382,154.441c0,0.798-0.63,1.428-1.428,1.428
		c-0.777,0-1.428-0.651-1.428-1.428s0.651-1.428,1.428-1.428C115.752,153.014,116.382,153.644,116.382,154.441z M123.396,154.441
		c0,0.798-0.63,1.428-1.428,1.428c-0.777,0-1.429-0.651-1.429-1.428s0.651-1.428,1.429-1.428
		C122.766,153.014,123.396,153.644,123.396,154.441z"/>
</g>
<rect x="5.132" y="31.775" fill="none" stroke="#008CD6" stroke-width="0.5" width="21" height="21"/>
<rect x="52.882" y="31.775" fill="none" stroke="#008CD6" stroke-width="0.5" width="20.999" height="21"/>
<polyline fill="none" stroke="#008CD6" stroke-width="0.5" points="52.882,52.775 31.883,52.775 31.883,31.775 52.882,31.775 "/>
<g>
	<line fill="none" stroke="#008CD6" stroke-width="0.5" x1="0.477" y1="31.775" x2="0.477" y2="21.275"/>
	<line fill="none" stroke="#008CD6" stroke-width="0.5" x1="10.977" y1="21.275" x2="10.977" y2="31.775"/>
	<line fill="none" stroke="#000000" stroke-width="0.1768" x1="5.727" y1="31.775" x2="0.477" y2="31.775"/>
	<line fill="none" stroke="#008CD6" stroke-width="0.5" x1="21.477" y1="31.775" x2="21.477" y2="21.275"/>
	<polyline fill="none" stroke="#008CD6" stroke-width="0.5" points="0.477,31.775 0.477,21.275 31.975,21.275 31.975,31.775 	"/>
	<line fill="none" stroke="#000000" stroke-width="0.1768" x1="31.975" y1="31.775" x2="26.725" y2="31.775"/>
</g>
<g>
	<rect x="0.477" y="64.032" fill="none" stroke="#008CD6" stroke-width="0.5" width="84" height="21"/>
	<line fill="none" stroke="#008CD6" stroke-width="0.5" x1="21.477" y1="85.032" x2="21.477" y2="64.032"/>
	<line fill="none" stroke="#008CD6" stroke-width="0.5" x1="42.477" y1="85.032" x2="42.477" y2="64.032"/>
	<line fill="none" stroke="#008CD6" stroke-width="0.5" x1="63.477" y1="85.032" x2="63.477" y2="64.032"/>
</g>
<line fill="none" stroke="#008CD6" stroke-width="0.5" stroke-dasharray="2" x1="0.477" y1="11.363" x2="0.477" y2="85.775"/>
<g>
	<path fill="#008CD6" d="M3.309,9.12C2.757,9.12,2.421,9.132,2,9.156C2.073,8.7,2.097,8.316,2.097,7.728V1.416
		C2.097,0.792,2.073,0.42,2,0h1.128C3.057,0.444,3.033,0.756,3.033,1.416v6.852h3.78c0.6,0,0.924-0.024,1.392-0.084v1.02
		C7.821,9.144,7.485,9.12,6.813,9.12H3.309z"/>
	<path fill="#008CD6" d="M10.304,0v1.068H9.14V0H10.304z M10.256,2.652c-0.06,0.42-0.084,0.756-0.084,1.356v3.756
		c0,0.552,0.024,0.888,0.084,1.356h-1.08C9.236,8.604,9.26,8.268,9.26,7.764V4.008c0-0.576-0.024-0.936-0.084-1.356H10.256z"/>
	<path fill="#008CD6" d="M12.008,9.12c0.072-0.456,0.096-0.78,0.096-1.356V4.008c0-0.54-0.024-0.876-0.096-1.356h0.996v0.816
		c0,0.144,0,0.24-0.036,0.516C13.532,3,14.313,2.532,15.392,2.532c0.864,0,1.536,0.312,1.92,0.9c0.228,0.348,0.336,0.792,0.336,1.38
		v2.964c0,0.612,0.024,0.948,0.084,1.344h-1.08c0.06-0.468,0.084-0.828,0.084-1.356V4.968c0-1.08-0.516-1.656-1.464-1.656
		c-0.672,0-1.212,0.3-1.716,0.948c-0.312,0.408-0.456,0.708-0.552,1.188v2.316c0,0.528,0.024,0.888,0.084,1.356H12.008z"/>
	<path fill="#008CD6" d="M20.036,6.024c0.036,0.804,0.156,1.248,0.48,1.68C20.9,8.232,21.488,8.52,22.208,8.52
		c0.972,0,1.644-0.48,1.98-1.404l0.84,0.336c-0.228,0.504-0.384,0.72-0.66,0.996c-0.564,0.552-1.296,0.84-2.172,0.84
		c-1.884,0-3.072-1.32-3.072-3.396c0-2.052,1.176-3.396,2.976-3.396c1.548,0,2.664,0.996,2.904,2.604
		c0.012,0.132,0.06,0.6,0.084,0.924H20.036z M24.128,5.268c-0.072-0.672-0.252-1.104-0.636-1.476c-0.372-0.36-0.84-0.54-1.416-0.54
		c-0.732,0-1.344,0.372-1.704,1.044c-0.168,0.3-0.228,0.516-0.3,0.972H24.128z"/>
	<path fill="#008CD6" d="M31.112,7.2c0.084,0.444,0.18,0.66,0.42,0.876c0.3,0.276,0.78,0.42,1.392,0.42
		c1.044,0,1.704-0.444,1.704-1.152c0-0.336-0.12-0.588-0.372-0.744c-0.288-0.18-0.528-0.252-1.416-0.432
		c-0.96-0.204-1.368-0.348-1.776-0.624c-0.42-0.288-0.648-0.732-0.648-1.26c0-0.432,0.18-0.84,0.516-1.164
		c0.42-0.408,1.068-0.624,1.872-0.624c0.816,0,1.452,0.192,1.884,0.576c0.312,0.264,0.48,0.54,0.636,1.092L34.376,4.32
		c-0.072-0.324-0.132-0.468-0.3-0.636c-0.276-0.3-0.708-0.456-1.248-0.456c-0.876,0-1.5,0.444-1.5,1.08
		c0,0.276,0.144,0.516,0.408,0.66c0.276,0.156,0.588,0.252,1.332,0.408c1.164,0.264,1.548,0.408,1.908,0.684
		c0.372,0.3,0.576,0.756,0.576,1.248c0,1.2-1.02,1.944-2.664,1.944c-1.092,0-1.932-0.324-2.376-0.936
		c-0.18-0.252-0.264-0.456-0.384-0.948L31.112,7.2z"/>
	<path fill="#008CD6" d="M38.756,0.864c-0.06,0.384-0.084,0.816-0.084,1.332v0.456h0.576c0.552,0,0.804-0.012,1.224-0.072v0.912
		c-0.384-0.06-0.684-0.072-1.224-0.072h-0.576v4.176c0,0.348,0.048,0.528,0.156,0.636c0.132,0.132,0.336,0.204,0.588,0.204
		c0.312,0,0.552-0.072,0.948-0.312l0.264,0.84c-0.492,0.204-0.864,0.276-1.356,0.276c-0.528,0-0.936-0.132-1.176-0.372
		c-0.24-0.24-0.336-0.588-0.336-1.152V3.42h-0.48c-0.408,0-0.684,0.024-1.08,0.072V2.58c0.336,0.06,0.576,0.072,1.08,0.072h0.48
		V2.196c0-0.48-0.024-0.936-0.084-1.332H38.756z"/>
	<path fill="#008CD6" d="M45.896,8.268C45.429,8.688,45.201,8.844,44.792,9c-0.408,0.156-0.84,0.24-1.248,0.24
		c-1.32,0-2.124-0.684-2.124-1.824c0-0.96,0.6-1.656,1.716-1.968c0.708-0.204,1.284-0.276,2.76-0.312V4.44
		c0-0.816-0.516-1.236-1.512-1.236c-0.66,0-1.152,0.168-1.488,0.516c-0.156,0.168-0.252,0.336-0.372,0.696l-0.936-0.204
		c0.216-0.552,0.372-0.804,0.672-1.068c0.492-0.456,1.212-0.684,2.112-0.684c1.584,0,2.4,0.672,2.4,1.968V7.8
		c0,0.54,0.024,0.84,0.096,1.32h-0.972V8.268z M45.896,5.844c-1.428,0.036-2.112,0.12-2.652,0.348
		c-0.612,0.252-0.912,0.66-0.912,1.236c0,0.66,0.492,1.08,1.272,1.08c0.696,0,1.452-0.336,1.92-0.852
		c0.276-0.3,0.372-0.552,0.372-1.032V5.844z"/>
	<path fill="#008CD6" d="M52.413,3.576c-0.456-0.144-0.672-0.18-0.972-0.18c-0.612,0-1.116,0.252-1.476,0.732
		c-0.288,0.372-0.396,0.66-0.444,1.2v2.448c0,0.54,0.024,0.876,0.084,1.344h-1.08c0.06-0.552,0.084-0.864,0.084-1.356V4.008
		c0-0.6-0.024-0.924-0.084-1.356h0.996v0.684c0,0.096,0,0.276-0.012,0.36c0.228-0.372,0.408-0.564,0.66-0.732
		c0.456-0.3,0.864-0.42,1.44-0.42c0.36,0,0.564,0.024,1.068,0.108L52.413,3.576z"/>
	<path fill="#008CD6" d="M55.521,0.864c-0.06,0.384-0.084,0.816-0.084,1.332v0.456h0.576c0.552,0,0.804-0.012,1.224-0.072v0.912
		c-0.384-0.06-0.684-0.072-1.224-0.072h-0.576v4.176c0,0.348,0.048,0.528,0.156,0.636c0.132,0.132,0.336,0.204,0.588,0.204
		c0.312,0,0.552-0.072,0.948-0.312l0.264,0.84C56.9,9.168,56.528,9.24,56.037,9.24c-0.528,0-0.936-0.132-1.176-0.372
		c-0.24-0.24-0.336-0.588-0.336-1.152V3.42h-0.48c-0.408,0-0.684,0.024-1.08,0.072V2.58c0.336,0.06,0.576,0.072,1.08,0.072h0.48
		V2.196c0-0.48-0.024-0.936-0.084-1.332H55.521z"/>
</g>
</svg>
