<?xml version="1.0" encoding="utf-8"?>
<!-- Generator: Adobe Illustrator 12.0.0, SVG Export Plug-In . SVG Version: 6.00 Build 51448)  -->
<!DOCTYPE svg PUBLIC "-//W3C//DTD SVG 1.1//EN" "http://www.w3.org/Graphics/SVG/1.1/DTD/svg11.dtd" [
	<!ENTITY ns_svg "http://www.w3.org/2000/svg">
	<!ENTITY ns_xlink "http://www.w3.org/1999/xlink">
]>
<svg  version="1.1" id="レイヤー_1" xmlns="&ns_svg;" xmlns:xlink="&ns_xlink;" width="125.546" height="164.081"
	 viewBox="0 0 125.546 164.081" overflow="visible" enable-background="new 0 0 125.546 164.081" xml:space="preserve">
<g>
	<path d="M97.872,30.013c0.966-0.242,1.659-0.504,2.32-0.882c1.229-0.693,1.932-1.722,1.932-2.824c0-1.05-0.777-1.764-1.922-1.764
		c-1.228,0-2.835,0.672-4.221,1.753c-0.168,0.137-0.273,0.179-0.399,0.179c-0.494,0-1.26-0.735-1.26-1.208
		c0-0.074,0.021-0.137,0.084-0.263c0.105,0.221,0.168,0.294,0.294,0.389c0.158,0.116,0.284,0.168,0.431,0.168
		c0.273,0,0.672-0.115,1.271-0.378c1.659-0.725,2.751-1.008,3.843-1.008c1.596,0,2.688,0.934,2.688,2.31
		c0,1.302-0.882,2.426-2.415,3.077c-0.798,0.336-1.565,0.515-2.594,0.609L97.872,30.013z"/>
	<path d="M107.028,26.926c-0.599,2.089-0.767,2.856-0.767,3.496c-0.01,0.294-0.084,0.431-0.252,0.431
		c-0.178,0-0.336-0.137-0.43-0.368c-0.231-0.546-0.378-1.459-0.378-2.383c0-0.42,0.032-0.924,0.095-1.365
		c0.073-0.609,0.073-0.609,0.441-2.163c0.105-0.462,0.158-0.798,0.158-1.008c0-0.252-0.105-0.514-0.315-0.819
		c0.231,0.011,0.367,0.105,0.619,0.41c0.294,0.346,0.473,0.724,0.473,1.008c0,0.147-0.021,0.21-0.158,0.462
		c-0.525,0.987-0.84,2.237-0.84,3.381c0,0.525,0.042,0.84,0.179,1.407l0.998-2.572L107.028,26.926z M108.256,23.607
		c0.357,0.147,0.651,0.2,1.124,0.2c0.83,0,1.743-0.2,2.341-0.515c0.074-0.042,0.158-0.073,0.189-0.073
		c0.252,0,0.588,0.21,0.588,0.367c0,0.105-0.105,0.2-0.347,0.273c-0.347,0.116-0.767,0.21-1.229,0.273
		c0.315,0.252,0.41,0.367,0.41,0.514c0,0.042-0.011,0.095-0.021,0.168c-0.032,0.189-0.042,0.336-0.063,1.26
		c0.399-0.147,0.546-0.231,0.85-0.504c0.042-0.032,0.105-0.074,0.137-0.074c0.042,0,0.179,0.042,0.252,0.074
		c0.137,0.084,0.221,0.178,0.221,0.273c0,0.094-0.074,0.21-0.2,0.294c-0.325,0.22-0.756,0.388-1.26,0.514
		c0.021,0.672,0.052,1.26,0.126,2.058c1.292,0.378,1.827,0.788,1.827,1.396c0,0.2-0.094,0.347-0.231,0.347
		c-0.084,0-0.157-0.042-0.273-0.158c-0.525-0.556-0.735-0.703-1.292-0.945c0,0.431-0.031,0.567-0.126,0.777
		c-0.21,0.41-0.767,0.641-1.543,0.641c-0.966,0-1.606-0.41-1.606-1.029c0-0.714,0.798-1.197,1.974-1.197
		c0.199,0,0.367,0.011,0.661,0.053v-1.176c0-0.031,0-0.399,0-0.683c-0.336,0.032-0.514,0.042-0.745,0.042
		c-0.578,0-0.998-0.116-1.281-0.357c-0.241-0.199-0.346-0.409-0.388-0.798l0.147-0.031c0.094,0.325,0.21,0.472,0.451,0.598
		c0.168,0.084,0.515,0.137,0.84,0.137c0.304,0,0.661-0.042,0.976-0.105c0-0.21,0.011-1.292,0.011-1.407
		c0-0.357-0.032-0.472-0.158-0.651c-0.325,0.021-0.483,0.032-0.703,0.032c-0.704,0-1.26-0.147-1.743-0.441L108.256,23.607z
		 M109.737,28.994c-0.798,0-1.344,0.304-1.344,0.735c0,0.357,0.399,0.578,1.029,0.578c0.557,0,0.966-0.147,1.155-0.41
		c0.084-0.115,0.137-0.273,0.158-0.462c0.01-0.063,0.021-0.252,0.021-0.305v-0.01C110.44,29.036,110.104,28.994,109.737,28.994z
		 M112.068,22.18c0.399,0.189,0.714,0.388,1.029,0.641c0.294,0.231,0.431,0.462,0.431,0.714c0,0.262-0.126,0.504-0.273,0.504
		c-0.063,0-0.116-0.042-0.179-0.105c-0.021-0.032-0.021-0.032-0.22-0.473c-0.179-0.378-0.504-0.808-0.882-1.166L112.068,22.18z
		 M112.981,21.781c0.399,0.147,0.704,0.315,1.029,0.535c0.336,0.242,0.462,0.42,0.462,0.672c0,0.294-0.105,0.504-0.262,0.504
		c-0.095,0-0.168-0.074-0.252-0.242c-0.263-0.578-0.599-1.008-1.061-1.365L112.981,21.781z"/>
	<path d="M119.313,31.073c0.767-0.62,1.113-0.966,1.491-1.491s0.63-1.019,0.935-1.816c-0.913-0.483-1.816-0.714-3.013-0.767
		c-0.641,1.166-0.914,1.606-1.271,2.079c-0.389,0.483-0.714,0.725-1.008,0.725c-0.441,0-0.809-0.504-0.809-1.113
		c0-0.535,0.263-1.071,0.714-1.449c0.462-0.389,1.155-0.63,1.995-0.693c0.147-0.252,0.168-0.325,0.746-1.648
		c0.336-0.798,0.378-0.914,0.546-1.48c-0.252,0.063-0.977,0.294-1.512,0.483c-0.168,0.053-0.252,0.074-0.347,0.074
		c-0.325,0-0.662-0.515-0.662-1.019c0-0.105,0.021-0.157,0.116-0.242c0.21,0.483,0.399,0.641,0.788,0.641
		c0.273,0,0.599-0.052,1.113-0.178c0.272-0.074,0.314-0.095,0.462-0.221c0.063-0.073,0.126-0.094,0.22-0.094
		c0.231,0,0.757,0.556,0.757,0.819c0,0.084-0.042,0.157-0.158,0.241c-0.241,0.2-0.336,0.347-1.061,1.785
		c-0.283,0.567-0.325,0.651-0.43,0.851c1.06,0.052,1.974,0.231,3.013,0.599c0.179-0.546,0.347-1.354,0.347-1.69
		c0-0.284-0.146-0.473-0.546-0.725c0.073-0.053,0.115-0.063,0.189-0.063c0.178,0,0.42,0.084,0.734,0.241
		c0.336,0.168,0.494,0.336,0.494,0.525c0,0.105-0.011,0.157-0.095,0.367c-0.031,0.074-0.095,0.294-0.252,0.788
		c-0.053,0.189-0.095,0.315-0.242,0.798c1.261,0.63,1.597,0.935,1.597,1.491c0,0.21-0.105,0.378-0.242,0.378
		c-0.094,0-0.168-0.053-0.356-0.221c-0.336-0.336-0.683-0.609-1.25-0.987c-0.462,1.008-0.787,1.512-1.344,2.047
		c-0.473,0.452-0.902,0.756-1.575,1.082L119.313,31.073z M116.089,28.438c0,0.389,0.221,0.756,0.452,0.756
		c0.346,0,0.788-0.609,1.596-2.205C116.793,27.136,116.089,27.629,116.089,28.438z"/>
	<path d="M14.481,42.466c0,0.798-0.63,1.428-1.428,1.428c-0.777,0-1.428-0.651-1.428-1.428s0.651-1.428,1.428-1.428
		C13.851,41.038,14.481,41.668,14.481,42.466z M21.474,42.466c0,0.798-0.63,1.428-1.428,1.428c-0.777,0-1.428-0.651-1.428-1.428
		s0.651-1.428,1.428-1.428C20.844,41.038,21.474,41.668,21.474,42.466z M28.488,42.466c0,0.798-0.63,1.428-1.428,1.428
		c-0.777,0-1.428-0.651-1.428-1.428s0.651-1.428,1.428-1.428C27.858,41.038,28.488,41.668,28.488,42.466z"/>
	<path d="M35.481,42.466c0,0.798-0.63,1.428-1.428,1.428c-0.777,0-1.428-0.651-1.428-1.428s0.651-1.428,1.428-1.428
		C34.851,41.038,35.481,41.668,35.481,42.466z M42.474,42.466c0,0.798-0.63,1.428-1.428,1.428c-0.777,0-1.428-0.651-1.428-1.428
		s0.651-1.428,1.428-1.428C41.844,41.038,42.474,41.668,42.474,42.466z M49.488,42.466c0,0.798-0.63,1.428-1.428,1.428
		c-0.777,0-1.428-0.651-1.428-1.428s0.651-1.428,1.428-1.428C48.858,41.038,49.488,41.668,49.488,42.466z"/>
	<path d="M56.754,43.747c-0.042,0.462-0.063,0.651-0.063,0.945c0,2.499,1.575,3.675,4.956,3.675c1.659,0,3.402-0.294,4.641-0.756
		c0.126-0.063,0.252-0.084,0.357-0.084c0.315,0,0.798,0.189,1.155,0.42c0.294,0.231,0.462,0.483,0.462,0.735
		c0,0.315-0.231,0.546-0.672,0.651c-0.966,0.252-3.024,0.42-4.893,0.42c-2.352,0-3.843-0.294-4.893-1.008
		c-1.05-0.672-1.743-1.995-1.743-3.318c0-0.504,0.105-1.071,0.336-1.764L56.754,43.747z M57.405,35.452
		c1.071,0.714,1.806,0.924,3.213,0.924c1.386,0,3.15-0.252,4.368-0.63c0.147-0.042,0.315-0.084,0.378-0.084
		c0.546,0,1.26,0.63,1.26,1.092c0,0.357-0.126,0.42-1.533,0.735c-0.819,0.168-1.008,0.252-3.066,1.029
		c-0.504,0.189-0.504,0.189-1.722,0.714c-0.42,0.168-0.42,0.189-0.819,0.336l-0.147-0.315c0.651-0.378,0.987-0.588,1.533-0.882
		c1.428-0.777,1.428-0.777,1.764-0.987c-0.462,0.042-1.197,0.063-1.575,0.063c-0.777,0-1.743-0.231-2.394-0.567
		c-0.546-0.294-0.882-0.588-1.47-1.218L57.405,35.452z"/>
	<path d="M82.878,50.026c2.268-0.672,3.717-1.533,4.914-2.919c1.239-1.407,1.869-3.129,1.869-5.061c0-2.037-0.819-3.654-2.373-4.641
		c-0.924-0.609-2.31-0.966-3.633-0.966c-0.252,0-0.399,0-0.735,0.042c0.504,0.735,0.651,1.134,0.651,1.743
		c0,1.638-1.176,4.704-2.772,7.266c-1.323,2.1-2.352,3.129-3.129,3.129c-0.357,0-0.693-0.168-0.924-0.441
		c-0.189-0.252-0.231-0.336-0.588-1.344c-0.189-0.546-0.315-0.798-0.924-1.974c-0.336-0.672-0.483-1.239-0.483-1.911
		c0-1.323,0.714-2.877,1.89-4.158c1.701-1.806,4.473-2.94,7.224-2.94c2.121,0,4.074,0.693,5.418,1.932
		c1.344,1.239,2.016,2.898,2.016,4.935c0,2.625-1.533,4.956-4.179,6.363c-1.218,0.651-2.31,0.987-4.095,1.302L82.878,50.026z
		 M75.969,43.495c0,1.008,0.315,2.037,0.84,2.772c0.294,0.378,0.567,0.609,0.798,0.609c0.462,0,1.47-1.134,2.499-2.772
		c1.554-2.478,2.667-5.187,2.667-6.489c0-0.315-0.063-0.525-0.294-1.05C78.825,37.216,75.969,40.261,75.969,43.495z"/>
	<path d="M108.519,38.896v-1.512h-4.326c-0.777,0-0.945,0.021-1.47,0.126l-0.189-0.777c0.756,0.168,0.84,0.168,1.659,0.168h9.66
		c0.525-0.525,0.672-0.672,1.134-1.197c0.714,0.546,0.924,0.714,1.575,1.26c0.147,0.126,0.189,0.21,0.189,0.273
		c0,0.105-0.084,0.147-0.231,0.147h-6.678v1.512h6.762c0.462-0.378,0.588-0.504,1.008-0.903c0.63,0.525,0.819,0.672,1.428,1.176
		c0.21,0.168,0.252,0.231,0.252,0.294c0,0.21-0.336,0.294-1.26,0.294c-0.609,0.672-0.84,0.882-1.596,1.47l-0.147-0.168
		c0.063-0.273,0.063-0.273,0.252-0.798c0.147-0.399,0.147-0.399,0.231-0.882h-6.93v1.155c0,2.352,0,2.352,0.021,3.318
		c0,0.042,0,0.063,0,0.084c0,0.105-0.042,0.147-0.147,0.189c-0.231,0.063-0.693,0.126-0.945,0.126c-0.189,0-0.273-0.063-0.273-0.189
		c0.021-1.134,0.021-1.134,0.021-3.402v-1.281h-6.447c-0.063,1.176-0.147,1.617-0.42,2.247c-0.273,0.651-0.819,1.218-1.176,1.218
		c-0.273,0-0.546-0.546-0.546-1.05c0-0.294,0.105-0.42,0.567-0.756c0.441-0.315,0.651-0.63,0.882-1.26
		c0.21-0.546,0.273-0.924,0.315-1.68h0.42c0,0.42,0,0.462-0.021,0.798H108.519z M111.459,34.591c0.021-0.21,0.021-0.315,0.021-0.399
		c0-0.819-0.021-1.155-0.042-1.449c1.785,0.147,1.785,0.147,1.953,0.21c0.063,0.042,0.126,0.105,0.126,0.168
		c0,0.147-0.21,0.273-0.798,0.441c0,0.525,0,0.609,0,1.029h2.541c0.588-0.63,0.777-0.819,1.323-1.386
		c0.882,0.63,1.134,0.819,1.995,1.491c0.105,0.105,0.147,0.189,0.147,0.231c0,0.084-0.084,0.147-0.21,0.147h-5.796
		c0,0.357,0,0.504,0.021,0.924c0,0.21-0.105,0.231-0.84,0.231c-0.399,0-0.462-0.021-0.462-0.21c0.021-0.462,0.021-0.651,0.021-0.945
		h-4.494c0,0.336,0,0.483,0.021,0.924c0,0.147-0.042,0.21-0.168,0.231c-0.084,0.021-0.609,0.063-0.777,0.063
		c-0.273,0-0.357-0.063-0.357-0.273c0.021-0.483,0.021-0.609,0.021-0.945h-4.011c-0.735,0-0.966,0.021-1.386,0.105l-0.168-0.756
		c0.714,0.147,0.882,0.168,1.554,0.168h4.011c0-1.197-0.021-1.449-0.063-1.932c1.89,0.168,2.1,0.21,2.1,0.462
		c0,0.168-0.189,0.273-0.777,0.399c0,0.504,0,0.504,0,1.071H111.459z M105.894,42.844c0.378-0.357,0.504-0.462,0.861-0.819
		c0.546,0.42,0.714,0.546,1.218,0.987c0.063,0.063,0.126,0.147,0.126,0.189c0,0.063-0.084,0.126-0.168,0.126h-4.305
		c-0.714,0-0.798,0-1.197,0.105l-0.21-0.714c0.672,0.126,0.777,0.126,1.407,0.126H105.894z M114.504,45.049
		c0.357-0.42,0.462-0.546,0.798-0.924c0.588,0.336,0.756,0.441,1.302,0.777c0.189,0.126,0.252,0.21,0.252,0.315
		c0,0.168-0.063,0.231-0.798,0.672c-0.021,1.029-0.021,1.785-0.021,2.31c0,1.239,0.021,1.974,0.063,3.465l0.021,0.042
		c0,0.084-0.021,0.105-0.063,0.126c-0.147,0.063-0.588,0.126-0.945,0.126s-0.441-0.042-0.441-0.21v-0.777H103.92v0.777
		c0,0.273-0.105,0.315-0.777,0.315c-0.588,0-0.672-0.021-0.672-0.189c0.084-1.722,0.105-2.394,0.105-4.746
		c0-1.386,0-1.407-0.084-2.919c0.714,0.336,0.945,0.441,1.701,0.84H114.504z M105.915,40.849c0.378-0.357,0.504-0.483,0.84-0.798
		c0.588,0.441,0.756,0.588,1.302,1.029c0.063,0.084,0.084,0.126,0.084,0.168c0,0.063-0.063,0.084-0.21,0.084h-4.137
		c-0.525,0-0.63,0.021-1.071,0.126l-0.231-0.756c0.525,0.126,0.714,0.147,1.302,0.147H105.915z M108.519,47.611v-2.079h-4.599v2.079
		H108.519z M103.92,50.488h4.599v-2.394h-4.599V50.488z M114.672,45.532h-4.83v2.079h4.83V45.532z M109.842,48.094v2.394h4.83
		v-2.394H109.842z M114.693,39.967c0.588,0.483,0.756,0.63,1.302,1.113c0.063,0.063,0.084,0.105,0.084,0.126
		c0,0.063-0.105,0.126-0.21,0.126h-4.221c-0.525,0-0.672,0.021-1.05,0.105l-0.189-0.735c0.651,0.126,0.735,0.147,1.239,0.147h2.184
		L114.693,39.967z M114.168,42.844c0.357-0.441,0.462-0.567,0.819-0.924c0.651,0.462,0.84,0.63,1.449,1.134
		c0.063,0.063,0.084,0.126,0.084,0.168c0,0.063-0.084,0.105-0.168,0.105h-4.494c-0.63,0-0.714,0-1.26,0.105l-0.189-0.756
		c0.756,0.168,0.819,0.168,1.449,0.168H114.168z"/>
	<path d="M3.981,73.966c0,0.798-0.63,1.428-1.428,1.428c-0.777,0-1.428-0.651-1.428-1.428s0.651-1.428,1.428-1.428
		C3.351,72.538,3.981,73.168,3.981,73.966z M10.974,73.966c0,0.798-0.63,1.428-1.428,1.428c-0.777,0-1.428-0.651-1.428-1.428
		s0.651-1.428,1.428-1.428C10.344,72.538,10.974,73.168,10.974,73.966z M17.988,73.966c0,0.798-0.63,1.428-1.428,1.428
		c-0.777,0-1.428-0.651-1.428-1.428s0.651-1.428,1.428-1.428C17.358,72.538,17.988,73.168,17.988,73.966z"/>
	<path d="M24.981,73.966c0,0.798-0.63,1.428-1.428,1.428c-0.777,0-1.428-0.651-1.428-1.428s0.651-1.428,1.428-1.428
		C24.351,72.538,24.981,73.168,24.981,73.966z M31.974,73.966c0,0.798-0.63,1.428-1.428,1.428c-0.777,0-1.428-0.651-1.428-1.428
		s0.651-1.428,1.428-1.428C31.344,72.538,31.974,73.168,31.974,73.966z M38.988,73.966c0,0.798-0.63,1.428-1.428,1.428
		c-0.777,0-1.428-0.651-1.428-1.428s0.651-1.428,1.428-1.428C38.358,72.538,38.988,73.168,38.988,73.966z"/>
	<path d="M43.713,69.43c0.294,0.273,0.525,0.357,0.945,0.357c0.588,0,1.113-0.105,5.817-1.239c0.882-0.231,2.016-0.462,3.402-0.735
		c1.596-0.336,2.205-0.483,2.835-0.693c0.42-0.126,0.567-0.168,0.735-0.168c0.252,0,0.714,0.189,1.134,0.441
		c0.42,0.273,0.609,0.504,0.609,0.798c0,0.315-0.252,0.525-0.651,0.525c-0.084,0-0.231,0-0.378-0.021
		c-0.273-0.042-0.378-0.042-0.588-0.042c-3.591,0-7.056,3.423-7.056,6.951c0,1.932,0.966,3.381,2.772,4.158
		c0.714,0.294,1.512,0.483,2.142,0.504c0.42,0,0.588,0.063,0.882,0.336c0.399,0.378,0.63,0.756,0.63,1.008
		c0,0.336-0.315,0.588-0.756,0.588c-1.218,0-3.108-0.672-4.284-1.512c-1.596-1.134-2.436-2.772-2.436-4.704
		c0-1.701,0.84-3.591,2.289-5.124c0.84-0.924,1.659-1.491,3.423-2.415c-1.911,0.273-3.633,0.693-6.027,1.47
		c-1.323,0.42-2.688,0.987-3.36,1.344c-0.42,0.252-0.567,0.294-0.84,0.294c-0.504,0-1.134-0.483-1.617-1.239
		c-0.336-0.504-0.546-1.071-0.546-1.407c0-0.168,0.042-0.294,0.231-0.567C43.209,68.863,43.377,69.136,43.713,69.43z M55.83,70.627
		c0.777,0.336,1.554,0.756,2.1,1.155c0.567,0.441,0.819,0.819,0.819,1.302c0,0.588-0.231,1.029-0.525,1.029
		c-0.189,0-0.231-0.063-0.63-0.798c-0.42-0.777-1.134-1.68-1.953-2.436L55.83,70.627z M57.846,69.766
		c0.882,0.252,1.491,0.504,2.079,0.84c0.651,0.378,0.924,0.777,0.924,1.344s-0.21,1.008-0.504,1.008
		c-0.147,0-0.273-0.105-0.42-0.441c-0.462-0.945-1.176-1.743-2.226-2.52L57.846,69.766z"/>
	<path d="M65.952,67.75c0.819,0.945,1.533,1.239,2.94,1.239c0.399,0,0.651-0.021,1.218-0.105c0.126-0.945,0.231-1.974,0.231-2.331
		c0-0.756-0.336-1.092-1.365-1.407c0.231-0.189,0.336-0.231,0.609-0.231c0.462,0,1.26,0.21,1.827,0.483
		c0.525,0.273,0.777,0.525,0.777,0.861c0,0.189,0,0.189-0.273,0.546c-0.252,0.357-0.399,0.756-0.651,1.89
		c1.995-0.42,3.234-0.903,3.948-1.491c0.231-0.21,0.315-0.231,0.525-0.231c0.294,0,0.756,0.084,0.987,0.168
		c0.21,0.084,0.336,0.252,0.336,0.462c0,0.378-0.42,0.63-1.806,1.113c-1.05,0.357-2.667,0.735-4.221,0.987
		c-0.189,0.945-0.357,2.226-0.399,3.171c1.197-0.399,2.226-0.609,3.36-0.672c0-0.063,0-0.105,0-0.126
		c0-0.399-0.168-0.693-0.672-1.155c0.105-0.021,0.189-0.042,0.231-0.042c0.546,0,1.155,0.567,1.344,1.26
		c1.869,0.21,3.024,0.63,4.074,1.491c0.945,0.819,1.428,1.911,1.428,3.318c0,3.192-3.255,5.586-8.19,6.006l-0.063-0.336
		c4.263-1.05,6.636-3.234,6.636-6.153c0-1.281-0.546-2.331-1.533-2.982c-0.588-0.378-1.302-0.588-2.436-0.735
		c-0.315,1.071-0.651,1.785-1.323,2.877c-0.735,1.155-1.365,1.932-2.247,2.73c0.273,0.525,0.273,0.525,0.525,0.882
		C71.916,79.468,72,79.741,72,80.119c0,0.567-0.189,0.966-0.483,0.966c-0.357,0-0.714-0.567-1.218-1.848
		c-1.344,1.218-2.793,1.995-3.633,1.995c-0.504,0-0.735-0.231-1.008-0.966c-0.147-0.357-0.189-0.441-0.399-0.798
		c-0.315-0.504-0.399-0.798-0.399-1.26c0-1.092,0.651-2.184,1.974-3.297c0.777-0.63,1.596-1.134,2.835-1.68
		c0.021-0.315,0.021-0.315,0.126-1.554c0.021-0.357,0.063-0.693,0.189-1.869c-0.399,0.021-0.588,0.042-0.798,0.042
		c-1.659,0-2.646-0.546-3.507-1.932L65.952,67.75z M66.687,76.57c-0.441,0.672-0.651,1.323-0.651,1.974
		c0,0.777,0.315,1.281,0.798,1.281c0.672,0,1.974-0.714,3.129-1.701c-0.252-1.365-0.315-2.058-0.315-3.381c0-0.147,0-0.42,0-0.756
		C68.073,74.911,67.338,75.541,66.687,76.57z M70.593,74.239c0,1.134,0.105,2.184,0.294,3.066c1.638-1.701,2.394-2.814,3.003-4.536
		c-1.197,0.105-1.995,0.294-3.297,0.798C70.593,73.861,70.593,74.092,70.593,74.239z"/>
	<path d="M95.268,67.288c-0.819,0.252-2.793,1.029-4.242,1.659c-0.42,0.189-0.693,0.273-0.861,0.273
		c-0.378,0-0.798-0.294-1.197-0.882c-0.378-0.567-0.588-1.113-0.588-1.554c0-0.189,0.042-0.336,0.189-0.546
		c0.315,0.987,0.882,1.533,1.575,1.533c0.546,0,2.541-0.462,3.969-0.903c0.819-0.273,0.861-0.273,1.302-0.651
		c0.084-0.063,0.189-0.105,0.294-0.105c0.273,0,0.609,0.21,1.134,0.735c0.483,0.462,0.63,0.693,0.63,0.945
		c0,0.147-0.105,0.273-0.357,0.399c-0.609,0.315-0.819,0.483-1.743,1.407c-1.323,1.323-2.1,2.1-3.087,3.15
		c-2.016,2.163-2.016,2.163-2.457,2.604l0.042,0.042c2.247-1.407,3.948-1.995,5.712-1.995c2.688,0,4.494,1.575,4.494,3.927
		c0,3.003-2.793,5.229-6.594,5.229c-2.058,0-3.381-0.819-3.381-2.1c0-1.029,0.966-1.785,2.268-1.785
		c1.029,0,1.974,0.378,2.667,1.029c0.378,0.357,0.609,0.693,0.924,1.302c1.596-0.693,2.541-2.142,2.541-3.927
		c0-1.155-0.462-2.1-1.302-2.604c-0.441-0.252-1.26-0.42-2.079-0.42c-2.058,0-4.935,1.68-6.678,3.906
		c-0.357,0.441-0.504,0.567-0.714,0.567c-0.315,0-0.693-0.735-0.693-1.365c0-0.252,0.147-0.483,0.441-0.735
		c0.798-0.609,1.134-0.945,2.919-2.919c2.562-2.877,3.36-3.801,5.019-5.943c0.168-0.231,0.168-0.231,0.21-0.336
		c0,0-0.042-0.042-0.063-0.042c0,0-0.021,0-0.021,0.021c-0.021,0-0.021,0-0.063,0c0,0-0.042,0.021-0.105,0.042L95.268,67.288z
		 M92.034,79.342c-0.798,0-1.323,0.42-1.323,1.071c0,0.777,0.924,1.281,2.394,1.281c0.567,0,0.84-0.042,1.491-0.189
		C94.176,80.161,93.21,79.342,92.034,79.342z"/>
	<path d="M119.564,66.889c0.525-0.651,0.672-0.84,1.197-1.407c0.861,0.693,1.134,0.924,1.995,1.638
		c0.042,0.063,0.063,0.126,0.063,0.147c0,0.084-0.063,0.105-0.21,0.105h-8.315c-0.252,0.882-0.462,1.47-0.819,2.289h5.397
		c0.482-0.588,0.63-0.777,1.112-1.344c0.841,0.672,1.093,0.882,1.933,1.575c0.042,0.063,0.084,0.105,0.084,0.147
		s-0.105,0.105-0.189,0.105h-5.522c0.651,1.281,0.882,1.638,1.533,2.415h3.171c0.546-0.651,0.714-0.861,1.218-1.449
		c0.882,0.693,1.134,0.924,1.974,1.659c0.042,0.063,0.084,0.126,0.084,0.168c0,0.063-0.084,0.105-0.188,0.105h-5.817
		c0.525,0.546,0.903,0.882,1.512,1.302c1.617,1.176,2.772,1.701,4.81,2.163l-0.021,0.399c-0.86,0.105-1.028,0.21-1.68,1.197
		c-1.785-0.966-2.793-1.785-4.263-3.444c-0.483-0.546-0.861-1.008-1.281-1.617h-5.733c-0.42,0.609-0.819,1.113-1.365,1.722
		c0.483,0.273,0.588,0.336,1.155,0.672h6.258c0.231-0.273,0.231-0.273,0.462-0.546c0.546,0.441,0.714,0.567,1.239,1.029
		c0.063,0.063,0.105,0.126,0.105,0.168c0,0.084-0.042,0.126-0.294,0.357c0,2.688,0.063,5.166,0.168,6.762
		c0,0.168-0.042,0.21-0.168,0.252c-0.168,0.063-0.714,0.105-1.113,0.105c-0.189,0-0.252-0.042-0.252-0.231v-0.777h-6.573v0.651
		c-0.021,0.168-0.063,0.252-0.189,0.294s-0.693,0.105-1.029,0.105c-0.189,0-0.252-0.063-0.252-0.21
		c0.084-3.381,0.105-4.683,0.105-5.817c0-0.798,0-0.798-0.042-2.331c-1.617,1.68-2.814,2.562-5.061,3.696l-0.168-0.294
		c2.415-1.743,4.095-3.402,5.628-5.607h-3.591c-0.819,0-1.113,0.021-1.617,0.105l-0.126-0.756c0.735,0.147,0.966,0.168,2.1,0.168
		h3.549c0.546-0.84,0.882-1.491,1.302-2.415h-3.318c-0.588,0-0.84,0.021-1.407,0.084l-0.126-0.714
		c0.63,0.126,0.924,0.147,1.827,0.147h3.234c0.315-0.798,0.483-1.302,0.735-2.289h-4.704c-0.504,0-1.071,0.042-1.659,0.105
		l-0.147-0.777c0.777,0.168,1.113,0.189,2.058,0.189h4.578c0.252-1.071,0.315-1.596,0.378-2.604c2.331,0.399,2.478,0.42,2.478,0.651
		c0,0.189-0.126,0.252-0.987,0.483c-0.168,0.714-0.252,1.05-0.357,1.47H119.564z M117.801,75.919h-6.573v2.646h6.573V75.919z
		 M111.228,79.048v3.024h6.573v-3.024H111.228z M113.265,70.144c-0.441,0.945-0.777,1.554-1.323,2.415h5.061
		c-0.462-0.756-0.651-1.134-1.155-2.415H113.265z"/>
</g>
<g>
	<path d="M96.747,110.488c0.966-0.242,1.659-0.504,2.32-0.882c1.229-0.693,1.932-1.722,1.932-2.824c0-1.05-0.777-1.764-1.922-1.764
		c-1.228,0-2.835,0.672-4.221,1.753c-0.168,0.137-0.273,0.179-0.399,0.179c-0.494,0-1.26-0.735-1.26-1.208
		c0-0.074,0.021-0.137,0.084-0.263c0.105,0.221,0.168,0.294,0.294,0.389c0.158,0.116,0.284,0.168,0.431,0.168
		c0.273,0,0.672-0.115,1.271-0.378c1.659-0.725,2.751-1.008,3.843-1.008c1.596,0,2.688,0.934,2.688,2.31
		c0,1.302-0.882,2.426-2.415,3.077c-0.798,0.336-1.565,0.515-2.594,0.609L96.747,110.488z"/>
	<path d="M105.903,107.401c-0.599,2.089-0.767,2.856-0.767,3.496c-0.01,0.294-0.084,0.431-0.252,0.431
		c-0.178,0-0.336-0.137-0.43-0.368c-0.231-0.546-0.378-1.459-0.378-2.383c0-0.42,0.032-0.924,0.095-1.365
		c0.073-0.609,0.073-0.609,0.441-2.163c0.105-0.462,0.158-0.798,0.158-1.008c0-0.252-0.105-0.514-0.315-0.819
		c0.231,0.011,0.367,0.105,0.619,0.41c0.294,0.346,0.473,0.724,0.473,1.008c0,0.147-0.021,0.21-0.158,0.462
		c-0.525,0.987-0.84,2.237-0.84,3.381c0,0.525,0.042,0.84,0.179,1.407l0.998-2.572L105.903,107.401z M107.131,104.083
		c0.357,0.147,0.651,0.2,1.124,0.2c0.83,0,1.743-0.2,2.341-0.515c0.074-0.042,0.158-0.073,0.189-0.073
		c0.252,0,0.588,0.21,0.588,0.367c0,0.105-0.105,0.2-0.347,0.273c-0.347,0.116-0.767,0.21-1.229,0.273
		c0.315,0.252,0.41,0.367,0.41,0.514c0,0.042-0.011,0.095-0.021,0.168c-0.032,0.189-0.042,0.336-0.063,1.26
		c0.399-0.147,0.546-0.231,0.85-0.504c0.042-0.032,0.105-0.074,0.137-0.074c0.042,0,0.179,0.042,0.252,0.074
		c0.137,0.084,0.221,0.178,0.221,0.273c0,0.094-0.074,0.21-0.2,0.294c-0.325,0.22-0.756,0.388-1.26,0.514
		c0.021,0.672,0.052,1.26,0.126,2.058c1.292,0.378,1.827,0.788,1.827,1.396c0,0.2-0.094,0.347-0.231,0.347
		c-0.084,0-0.157-0.042-0.273-0.158c-0.525-0.556-0.735-0.703-1.292-0.945c0,0.431-0.031,0.567-0.126,0.777
		c-0.21,0.41-0.767,0.641-1.543,0.641c-0.966,0-1.606-0.41-1.606-1.029c0-0.714,0.798-1.197,1.974-1.197
		c0.199,0,0.367,0.011,0.661,0.053v-1.176c0-0.031,0-0.399,0-0.683c-0.336,0.032-0.514,0.042-0.745,0.042
		c-0.578,0-0.998-0.116-1.281-0.357c-0.241-0.199-0.346-0.409-0.388-0.798l0.147-0.031c0.094,0.325,0.21,0.472,0.451,0.598
		c0.168,0.084,0.515,0.137,0.84,0.137c0.304,0,0.661-0.042,0.976-0.105c0-0.21,0.011-1.292,0.011-1.407
		c0-0.357-0.032-0.472-0.158-0.651c-0.325,0.021-0.483,0.032-0.703,0.032c-0.704,0-1.26-0.147-1.743-0.441L107.131,104.083z
		 M108.612,109.47c-0.798,0-1.344,0.304-1.344,0.735c0,0.357,0.399,0.578,1.029,0.578c0.557,0,0.966-0.147,1.155-0.41
		c0.084-0.115,0.137-0.273,0.158-0.462c0.01-0.063,0.021-0.252,0.021-0.305v-0.01C109.315,109.512,108.979,109.47,108.612,109.47z
		 M110.943,102.655c0.399,0.189,0.714,0.388,1.029,0.641c0.294,0.231,0.431,0.462,0.431,0.714c0,0.262-0.126,0.504-0.273,0.504
		c-0.063,0-0.116-0.042-0.179-0.105c-0.021-0.032-0.021-0.032-0.22-0.473c-0.179-0.378-0.504-0.808-0.882-1.166L110.943,102.655z
		 M111.856,102.256c0.399,0.147,0.704,0.315,1.029,0.535c0.336,0.242,0.462,0.42,0.462,0.672c0,0.294-0.105,0.504-0.262,0.504
		c-0.095,0-0.168-0.074-0.252-0.242c-0.263-0.578-0.599-1.008-1.061-1.365L111.856,102.256z"/>
	<path d="M118.188,111.549c0.766-0.62,1.113-0.966,1.491-1.491s0.63-1.019,0.935-1.816c-0.913-0.483-1.816-0.714-3.013-0.767
		c-0.641,1.166-0.914,1.606-1.271,2.079c-0.389,0.483-0.714,0.725-1.008,0.725c-0.441,0-0.809-0.504-0.809-1.113
		c0-0.535,0.263-1.071,0.714-1.449c0.462-0.389,1.155-0.63,1.995-0.693c0.147-0.252,0.168-0.325,0.746-1.648
		c0.336-0.798,0.378-0.914,0.546-1.48c-0.252,0.063-0.976,0.294-1.512,0.483c-0.168,0.053-0.252,0.074-0.347,0.074
		c-0.325,0-0.662-0.515-0.662-1.019c0-0.105,0.021-0.157,0.116-0.242c0.21,0.483,0.399,0.641,0.788,0.641
		c0.273,0,0.599-0.052,1.113-0.178c0.273-0.074,0.315-0.095,0.462-0.221c0.063-0.073,0.126-0.094,0.221-0.094
		c0.231,0,0.756,0.556,0.756,0.819c0,0.084-0.042,0.157-0.158,0.241c-0.241,0.2-0.336,0.347-1.06,1.785
		c-0.284,0.567-0.326,0.651-0.431,0.851c1.061,0.052,1.974,0.231,3.013,0.599c0.179-0.546,0.347-1.354,0.347-1.69
		c0-0.284-0.146-0.473-0.546-0.725c0.073-0.053,0.115-0.063,0.189-0.063c0.178,0,0.42,0.084,0.734,0.241
		c0.336,0.168,0.494,0.336,0.494,0.525c0,0.105-0.011,0.157-0.095,0.367c-0.031,0.074-0.095,0.294-0.252,0.788
		c-0.053,0.189-0.095,0.315-0.242,0.798c1.261,0.63,1.597,0.935,1.597,1.491c0,0.21-0.105,0.378-0.242,0.378
		c-0.094,0-0.168-0.053-0.356-0.221c-0.336-0.336-0.683-0.609-1.25-0.987c-0.462,1.008-0.787,1.512-1.344,2.047
		c-0.473,0.452-0.902,0.756-1.575,1.082L118.188,111.549z M114.964,108.913c0,0.389,0.221,0.756,0.452,0.756
		c0.346,0,0.788-0.609,1.596-2.205C115.668,107.611,114.964,108.104,114.964,108.913z"/>
	<path d="M15.981,122.941c0,0.798-0.63,1.428-1.428,1.428c-0.777,0-1.428-0.651-1.428-1.428s0.651-1.428,1.428-1.428
		C15.351,121.514,15.981,122.144,15.981,122.941z M22.974,122.941c0,0.798-0.63,1.428-1.428,1.428c-0.777,0-1.428-0.651-1.428-1.428
		s0.651-1.428,1.428-1.428C22.344,121.514,22.974,122.144,22.974,122.941z M29.988,122.941c0,0.798-0.63,1.428-1.428,1.428
		c-0.777,0-1.428-0.651-1.428-1.428s0.651-1.428,1.428-1.428C29.358,121.514,29.988,122.144,29.988,122.941z"/>
	<path d="M36.981,122.941c0,0.798-0.63,1.428-1.428,1.428c-0.777,0-1.428-0.651-1.428-1.428s0.651-1.428,1.428-1.428
		C36.351,121.514,36.981,122.144,36.981,122.941z M43.974,122.941c0,0.798-0.63,1.428-1.428,1.428c-0.777,0-1.428-0.651-1.428-1.428
		s0.651-1.428,1.428-1.428C43.344,121.514,43.974,122.144,43.974,122.941z M50.988,122.941c0,0.798-0.63,1.428-1.428,1.428
		c-0.777,0-1.428-0.651-1.428-1.428s0.651-1.428,1.428-1.428C50.358,121.514,50.988,122.144,50.988,122.941z"/>
	<path d="M58.254,124.223c-0.042,0.462-0.063,0.651-0.063,0.945c0,2.499,1.575,3.675,4.956,3.675c1.659,0,3.402-0.294,4.641-0.756
		c0.126-0.063,0.252-0.084,0.357-0.084c0.315,0,0.798,0.189,1.155,0.42c0.294,0.231,0.462,0.483,0.462,0.735
		c0,0.315-0.231,0.546-0.672,0.651c-0.966,0.252-3.024,0.42-4.893,0.42c-2.352,0-3.843-0.294-4.893-1.008
		c-1.05-0.672-1.743-1.995-1.743-3.318c0-0.504,0.105-1.071,0.336-1.764L58.254,124.223z M58.905,115.927
		c1.071,0.714,1.806,0.924,3.213,0.924c1.386,0,3.15-0.252,4.368-0.63c0.147-0.042,0.315-0.084,0.378-0.084
		c0.546,0,1.26,0.63,1.26,1.092c0,0.357-0.126,0.42-1.533,0.735c-0.819,0.168-1.008,0.252-3.066,1.029
		c-0.504,0.189-0.504,0.189-1.722,0.714c-0.42,0.168-0.42,0.189-0.819,0.336l-0.147-0.315c0.651-0.378,0.987-0.588,1.533-0.882
		c1.428-0.777,1.428-0.777,1.764-0.987c-0.462,0.042-1.197,0.063-1.575,0.063c-0.777,0-1.743-0.231-2.394-0.567
		c-0.546-0.294-0.882-0.588-1.47-1.218L58.905,115.927z"/>
	<path d="M84.378,130.501c2.268-0.672,3.717-1.533,4.914-2.919c1.239-1.407,1.869-3.129,1.869-5.061
		c0-2.037-0.819-3.654-2.373-4.641c-0.924-0.609-2.31-0.966-3.633-0.966c-0.252,0-0.399,0-0.735,0.042
		c0.504,0.735,0.651,1.134,0.651,1.743c0,1.638-1.176,4.704-2.772,7.266c-1.323,2.1-2.352,3.129-3.129,3.129
		c-0.357,0-0.693-0.168-0.924-0.441c-0.189-0.252-0.231-0.336-0.588-1.344c-0.189-0.546-0.315-0.798-0.924-1.974
		c-0.336-0.672-0.483-1.239-0.483-1.911c0-1.323,0.714-2.877,1.89-4.158c1.701-1.806,4.473-2.94,7.224-2.94
		c2.121,0,4.074,0.693,5.418,1.932c1.344,1.239,2.016,2.898,2.016,4.935c0,2.625-1.533,4.956-4.179,6.363
		c-1.218,0.651-2.31,0.987-4.095,1.302L84.378,130.501z M77.469,123.97c0,1.008,0.315,2.037,0.84,2.772
		c0.294,0.378,0.567,0.609,0.798,0.609c0.462,0,1.47-1.134,2.499-2.772c1.554-2.478,2.667-5.187,2.667-6.489
		c0-0.315-0.063-0.525-0.294-1.05C80.325,117.691,77.469,120.736,77.469,123.97z"/>
	<path d="M110.019,119.372v-1.512h-4.326c-0.777,0-0.945,0.021-1.47,0.126l-0.189-0.777c0.756,0.168,0.84,0.168,1.659,0.168h9.66
		c0.525-0.525,0.672-0.672,1.134-1.197c0.714,0.546,0.924,0.714,1.575,1.26c0.147,0.126,0.189,0.21,0.189,0.273
		c0,0.105-0.084,0.147-0.231,0.147h-6.678v1.512h6.762c0.462-0.378,0.588-0.504,1.007-0.903c0.631,0.525,0.819,0.672,1.429,1.176
		c0.21,0.168,0.252,0.231,0.252,0.294c0,0.21-0.336,0.294-1.26,0.294c-0.609,0.672-0.84,0.882-1.596,1.47l-0.147-0.168
		c0.063-0.273,0.063-0.273,0.252-0.798c0.147-0.399,0.147-0.399,0.231-0.882h-6.93v1.155c0,2.352,0,2.352,0.021,3.318
		c0,0.042,0,0.063,0,0.084c0,0.105-0.042,0.147-0.147,0.189c-0.231,0.063-0.693,0.126-0.945,0.126c-0.189,0-0.273-0.063-0.273-0.189
		c0.021-1.134,0.021-1.134,0.021-3.402v-1.281h-6.447c-0.063,1.176-0.147,1.617-0.42,2.247c-0.273,0.651-0.819,1.218-1.176,1.218
		c-0.273,0-0.546-0.546-0.546-1.05c0-0.294,0.105-0.42,0.567-0.756c0.441-0.315,0.651-0.63,0.882-1.26
		c0.21-0.546,0.273-0.924,0.315-1.68h0.42c0,0.42,0,0.462-0.021,0.798H110.019z M112.959,115.066
		c0.021-0.21,0.021-0.315,0.021-0.399c0-0.819-0.021-1.155-0.042-1.449c1.785,0.147,1.785,0.147,1.953,0.21
		c0.063,0.042,0.126,0.105,0.126,0.168c0,0.147-0.21,0.273-0.798,0.441c0,0.525,0,0.609,0,1.029h2.541
		c0.588-0.63,0.777-0.819,1.323-1.386c0.882,0.63,1.134,0.819,1.995,1.491c0.104,0.105,0.146,0.189,0.146,0.231
		c0,0.084-0.084,0.147-0.21,0.147h-5.796c0,0.357,0,0.504,0.021,0.924c0,0.21-0.105,0.231-0.84,0.231
		c-0.399,0-0.462-0.021-0.462-0.21c0.021-0.462,0.021-0.651,0.021-0.945h-4.494c0,0.336,0,0.483,0.021,0.924
		c0,0.147-0.042,0.21-0.168,0.231c-0.084,0.021-0.609,0.063-0.777,0.063c-0.273,0-0.357-0.063-0.357-0.273
		c0.021-0.483,0.021-0.609,0.021-0.945h-4.011c-0.735,0-0.966,0.021-1.386,0.105l-0.168-0.756c0.714,0.147,0.882,0.168,1.554,0.168
		h4.011c0-1.197-0.021-1.449-0.063-1.932c1.89,0.168,2.1,0.21,2.1,0.462c0,0.168-0.189,0.273-0.777,0.399c0,0.504,0,0.504,0,1.071
		H112.959z M107.394,123.319c0.378-0.357,0.504-0.462,0.861-0.819c0.546,0.42,0.714,0.546,1.218,0.987
		c0.063,0.063,0.126,0.147,0.126,0.189c0,0.063-0.084,0.126-0.168,0.126h-4.305c-0.714,0-0.798,0-1.197,0.105l-0.21-0.714
		c0.672,0.126,0.777,0.126,1.407,0.126H107.394z M116.004,125.524c0.357-0.42,0.462-0.546,0.798-0.924
		c0.588,0.336,0.756,0.441,1.302,0.777c0.189,0.126,0.252,0.21,0.252,0.315c0,0.168-0.063,0.231-0.798,0.672
		c-0.021,1.029-0.021,1.785-0.021,2.31c0,1.239,0.021,1.974,0.063,3.465l0.021,0.042c0,0.084-0.021,0.105-0.063,0.126
		c-0.147,0.063-0.588,0.126-0.945,0.126s-0.441-0.042-0.441-0.21v-0.777H105.42v0.777c0,0.273-0.105,0.315-0.777,0.315
		c-0.588,0-0.672-0.021-0.672-0.189c0.084-1.722,0.105-2.394,0.105-4.746c0-1.386,0-1.407-0.084-2.919
		c0.714,0.336,0.945,0.441,1.701,0.84H116.004z M107.415,121.324c0.378-0.357,0.504-0.483,0.84-0.798
		c0.588,0.441,0.756,0.588,1.302,1.029c0.063,0.084,0.084,0.126,0.084,0.168c0,0.063-0.063,0.084-0.21,0.084h-4.137
		c-0.525,0-0.63,0.021-1.071,0.126l-0.231-0.756c0.525,0.126,0.714,0.147,1.302,0.147H107.415z M110.019,128.086v-2.079h-4.599
		v2.079H110.019z M105.42,130.963h4.599v-2.394h-4.599V130.963z M116.172,126.007h-4.83v2.079h4.83V126.007z M111.342,128.569v2.394
		h4.83v-2.394H111.342z M116.193,120.442c0.588,0.483,0.756,0.63,1.302,1.113c0.063,0.063,0.084,0.105,0.084,0.126
		c0,0.063-0.105,0.126-0.21,0.126h-4.221c-0.525,0-0.672,0.021-1.05,0.105l-0.189-0.735c0.651,0.126,0.735,0.147,1.239,0.147h2.184
		L116.193,120.442z M115.668,123.319c0.357-0.441,0.462-0.567,0.819-0.924c0.651,0.462,0.84,0.63,1.449,1.134
		c0.063,0.063,0.084,0.126,0.084,0.168c0,0.063-0.084,0.105-0.168,0.105h-4.494c-0.63,0-0.714,0-1.26,0.105l-0.189-0.756
		c0.756,0.168,0.819,0.168,1.449,0.168H115.668z"/>
	<path d="M2.856,154.441c0,0.798-0.63,1.428-1.428,1.428c-0.777,0-1.428-0.651-1.428-1.428s0.651-1.428,1.428-1.428
		C2.226,153.014,2.856,153.644,2.856,154.441z M9.849,154.441c0,0.798-0.63,1.428-1.428,1.428c-0.777,0-1.428-0.651-1.428-1.428
		s0.651-1.428,1.428-1.428C9.219,153.014,9.849,153.644,9.849,154.441z M16.863,154.441c0,0.798-0.63,1.428-1.428,1.428
		c-0.777,0-1.428-0.651-1.428-1.428s0.651-1.428,1.428-1.428C16.233,153.014,16.863,153.644,16.863,154.441z"/>
	<path d="M23.856,154.441c0,0.798-0.63,1.428-1.428,1.428c-0.777,0-1.428-0.651-1.428-1.428s0.651-1.428,1.428-1.428
		C23.226,153.014,23.856,153.644,23.856,154.441z M30.849,154.441c0,0.798-0.63,1.428-1.428,1.428c-0.777,0-1.428-0.651-1.428-1.428
		s0.651-1.428,1.428-1.428C30.219,153.014,30.849,153.644,30.849,154.441z M37.863,154.441c0,0.798-0.63,1.428-1.428,1.428
		c-0.777,0-1.428-0.651-1.428-1.428s0.651-1.428,1.428-1.428C37.233,153.014,37.863,153.644,37.863,154.441z"/>
	<path d="M42.588,149.905c0.294,0.273,0.525,0.357,0.945,0.357c0.588,0,1.113-0.105,5.817-1.239
		c0.882-0.231,2.016-0.462,3.402-0.735c1.596-0.336,2.205-0.483,2.835-0.693c0.42-0.126,0.567-0.168,0.735-0.168
		c0.252,0,0.714,0.189,1.134,0.441c0.42,0.273,0.609,0.504,0.609,0.798c0,0.315-0.252,0.525-0.651,0.525
		c-0.084,0-0.231,0-0.378-0.021c-0.273-0.042-0.378-0.042-0.588-0.042c-3.591,0-7.056,3.423-7.056,6.951
		c0,1.932,0.966,3.381,2.772,4.158c0.714,0.294,1.512,0.483,2.142,0.504c0.42,0,0.588,0.063,0.882,0.336
		c0.399,0.378,0.63,0.756,0.63,1.008c0,0.336-0.315,0.588-0.756,0.588c-1.218,0-3.108-0.672-4.284-1.512
		c-1.596-1.134-2.436-2.772-2.436-4.704c0-1.701,0.84-3.591,2.289-5.124c0.84-0.924,1.659-1.491,3.423-2.415
		c-1.911,0.273-3.633,0.693-6.027,1.47c-1.323,0.42-2.688,0.987-3.36,1.344c-0.42,0.252-0.567,0.294-0.84,0.294
		c-0.504,0-1.134-0.483-1.617-1.239c-0.336-0.504-0.546-1.071-0.546-1.407c0-0.168,0.042-0.294,0.231-0.567
		C42.084,149.338,42.252,149.611,42.588,149.905z M54.705,151.103c0.777,0.336,1.554,0.756,2.1,1.155
		c0.567,0.441,0.819,0.819,0.819,1.302c0,0.588-0.231,1.029-0.525,1.029c-0.189,0-0.231-0.063-0.63-0.798
		c-0.42-0.777-1.134-1.68-1.953-2.436L54.705,151.103z M56.721,150.241c0.882,0.252,1.491,0.504,2.079,0.84
		c0.651,0.378,0.924,0.777,0.924,1.344s-0.21,1.008-0.504,1.008c-0.147,0-0.273-0.105-0.42-0.441
		c-0.462-0.945-1.176-1.743-2.226-2.52L56.721,150.241z"/>
	<path d="M64.827,148.226c0.819,0.945,1.533,1.239,2.94,1.239c0.399,0,0.651-0.021,1.218-0.105c0.126-0.945,0.231-1.974,0.231-2.331
		c0-0.756-0.336-1.092-1.365-1.407c0.231-0.189,0.336-0.231,0.609-0.231c0.462,0,1.26,0.21,1.827,0.483
		c0.525,0.273,0.777,0.525,0.777,0.861c0,0.189,0,0.189-0.273,0.546c-0.252,0.357-0.399,0.756-0.651,1.89
		c1.995-0.42,3.234-0.903,3.948-1.491c0.231-0.21,0.315-0.231,0.525-0.231c0.294,0,0.756,0.084,0.987,0.168
		c0.21,0.084,0.336,0.252,0.336,0.462c0,0.378-0.42,0.63-1.806,1.113c-1.05,0.357-2.667,0.735-4.221,0.987
		c-0.189,0.945-0.357,2.226-0.399,3.171c1.197-0.399,2.226-0.609,3.36-0.672c0-0.063,0-0.105,0-0.126
		c0-0.399-0.168-0.693-0.672-1.155c0.105-0.021,0.189-0.042,0.231-0.042c0.546,0,1.155,0.567,1.344,1.26
		c1.869,0.21,3.024,0.63,4.074,1.491c0.945,0.819,1.428,1.911,1.428,3.318c0,3.192-3.255,5.586-8.19,6.006l-0.063-0.336
		c4.263-1.05,6.636-3.234,6.636-6.153c0-1.281-0.546-2.331-1.533-2.982c-0.588-0.378-1.302-0.588-2.436-0.735
		c-0.315,1.071-0.651,1.785-1.323,2.877c-0.735,1.155-1.365,1.932-2.247,2.73c0.273,0.525,0.273,0.525,0.525,0.882
		c0.147,0.231,0.231,0.504,0.231,0.882c0,0.567-0.189,0.966-0.483,0.966c-0.357,0-0.714-0.567-1.218-1.848
		c-1.344,1.218-2.793,1.995-3.633,1.995c-0.504,0-0.735-0.231-1.008-0.966c-0.147-0.357-0.189-0.441-0.399-0.798
		c-0.315-0.504-0.399-0.798-0.399-1.26c0-1.092,0.651-2.184,1.974-3.297c0.777-0.63,1.596-1.134,2.835-1.68
		c0.021-0.315,0.021-0.315,0.126-1.554c0.021-0.357,0.063-0.693,0.189-1.869c-0.399,0.021-0.588,0.042-0.798,0.042
		c-1.659,0-2.646-0.546-3.507-1.932L64.827,148.226z M65.562,157.045c-0.441,0.672-0.651,1.323-0.651,1.974
		c0,0.777,0.315,1.281,0.798,1.281c0.672,0,1.974-0.714,3.129-1.701c-0.252-1.365-0.315-2.058-0.315-3.381c0-0.147,0-0.42,0-0.756
		C66.948,155.386,66.213,156.017,65.562,157.045z M69.468,154.714c0,1.134,0.105,2.184,0.294,3.066
		c1.638-1.701,2.394-2.814,3.003-4.536c-1.197,0.105-1.995,0.294-3.297,0.798C69.468,154.336,69.468,154.567,69.468,154.714z"/>
	<path d="M94.143,147.764c-0.819,0.252-2.793,1.029-4.242,1.659c-0.42,0.189-0.693,0.273-0.861,0.273
		c-0.378,0-0.798-0.294-1.197-0.882c-0.378-0.567-0.588-1.113-0.588-1.554c0-0.189,0.042-0.336,0.189-0.546
		c0.315,0.987,0.882,1.533,1.575,1.533c0.546,0,2.541-0.462,3.969-0.903c0.819-0.273,0.861-0.273,1.302-0.651
		c0.084-0.063,0.189-0.105,0.294-0.105c0.273,0,0.609,0.21,1.134,0.735c0.483,0.462,0.63,0.693,0.63,0.945
		c0,0.147-0.105,0.273-0.357,0.399c-0.609,0.315-0.819,0.483-1.743,1.407c-1.323,1.323-2.1,2.1-3.087,3.15
		c-2.016,2.163-2.016,2.163-2.457,2.604l0.042,0.042c2.247-1.407,3.948-1.995,5.712-1.995c2.688,0,4.494,1.575,4.494,3.927
		c0,3.003-2.793,5.229-6.594,5.229c-2.058,0-3.381-0.819-3.381-2.1c0-1.029,0.966-1.785,2.268-1.785
		c1.029,0,1.974,0.378,2.667,1.029c0.378,0.357,0.609,0.693,0.924,1.302c1.596-0.693,2.541-2.142,2.541-3.927
		c0-1.155-0.462-2.1-1.302-2.604c-0.441-0.252-1.26-0.42-2.079-0.42c-2.058,0-4.935,1.68-6.678,3.906
		c-0.357,0.441-0.504,0.567-0.714,0.567c-0.315,0-0.693-0.735-0.693-1.365c0-0.252,0.147-0.483,0.441-0.735
		c0.798-0.609,1.134-0.945,2.919-2.919c2.562-2.877,3.36-3.801,5.019-5.943c0.168-0.231,0.168-0.231,0.21-0.336
		c0,0-0.042-0.042-0.063-0.042c0,0-0.021,0-0.021,0.021c-0.021,0-0.021,0-0.063,0c0,0-0.042,0.021-0.105,0.042L94.143,147.764z
		 M90.909,159.817c-0.798,0-1.323,0.42-1.323,1.071c0,0.777,0.924,1.281,2.394,1.281c0.567,0,0.84-0.042,1.491-0.189
		C93.051,160.636,92.085,159.817,90.909,159.817z"/>
	<path d="M118.44,147.364c0.525-0.651,0.671-0.84,1.197-1.407c0.861,0.693,1.134,0.924,1.995,1.638
		c0.042,0.063,0.063,0.126,0.063,0.147c0,0.084-0.063,0.105-0.21,0.105h-8.315c-0.252,0.882-0.462,1.47-0.819,2.289h5.397
		c0.483-0.588,0.63-0.777,1.113-1.344c0.84,0.672,1.092,0.882,1.932,1.575c0.042,0.063,0.084,0.105,0.084,0.147
		s-0.105,0.105-0.189,0.105h-5.522c0.651,1.281,0.882,1.638,1.533,2.415h3.171c0.546-0.651,0.714-0.861,1.218-1.449
		c0.882,0.693,1.134,0.924,1.974,1.659c0.042,0.063,0.084,0.126,0.084,0.168c0,0.063-0.084,0.105-0.188,0.105h-5.817
		c0.525,0.546,0.903,0.882,1.512,1.302c1.617,1.176,2.772,1.701,4.809,2.163l-0.021,0.399c-0.86,0.105-1.028,0.21-1.68,1.197
		c-1.785-0.966-2.793-1.785-4.263-3.444c-0.483-0.546-0.861-1.008-1.281-1.617h-5.733c-0.42,0.609-0.819,1.113-1.365,1.722
		c0.483,0.273,0.588,0.336,1.155,0.672h6.258c0.231-0.273,0.231-0.273,0.462-0.546c0.546,0.441,0.714,0.567,1.239,1.029
		c0.063,0.063,0.105,0.126,0.105,0.168c0,0.084-0.042,0.126-0.294,0.357c0,2.688,0.063,5.166,0.168,6.762
		c0,0.168-0.042,0.21-0.168,0.252c-0.168,0.063-0.714,0.105-1.113,0.105c-0.189,0-0.252-0.042-0.252-0.231v-0.777h-6.573v0.651
		c-0.021,0.168-0.063,0.252-0.189,0.294s-0.693,0.105-1.029,0.105c-0.189,0-0.252-0.063-0.252-0.21
		c0.084-3.381,0.105-4.683,0.105-5.817c0-0.798,0-0.798-0.042-2.331c-1.617,1.68-2.814,2.562-5.061,3.696l-0.168-0.294
		c2.415-1.743,4.095-3.402,5.628-5.607h-3.591c-0.819,0-1.113,0.021-1.617,0.105l-0.126-0.756c0.735,0.147,0.966,0.168,2.1,0.168
		h3.549c0.546-0.84,0.882-1.491,1.302-2.415h-3.318c-0.588,0-0.84,0.021-1.407,0.084l-0.126-0.714
		c0.63,0.126,0.924,0.147,1.827,0.147h3.234c0.315-0.798,0.483-1.302,0.735-2.289h-4.704c-0.504,0-1.071,0.042-1.659,0.105
		l-0.147-0.777c0.777,0.168,1.113,0.189,2.058,0.189h4.578c0.252-1.071,0.315-1.596,0.378-2.604c2.331,0.399,2.478,0.42,2.478,0.651
		c0,0.189-0.126,0.252-0.987,0.483c-0.168,0.714-0.252,1.05-0.357,1.47H118.44z M116.676,156.395h-6.573v2.646h6.573V156.395z
		 M110.103,159.523v3.024h6.573v-3.024H110.103z M112.14,150.62c-0.441,0.945-0.777,1.554-1.323,2.415h5.061
		c-0.462-0.756-0.651-1.134-1.155-2.415H112.14z"/>
</g>
<rect x="51.724" y="31.775" fill="none" stroke="#008CD6" stroke-width="0.5" width="42" height="21"/>
<rect x="98.974" y="31.775" fill="none" stroke="#008CD6" stroke-width="0.5" width="21" height="21"/>
<g>
	<line fill="none" stroke="#008CD6" stroke-width="0.5" x1="93.724" y1="31.775" x2="93.724" y2="21.275"/>
	<line fill="none" stroke="#008CD6" stroke-width="0.5" x1="104.224" y1="21.275" x2="104.224" y2="31.775"/>
	<line fill="none" stroke="#008CD6" stroke-width="0.5" x1="98.974" y1="31.775" x2="93.724" y2="31.775"/>
	<line fill="none" stroke="#008CD6" stroke-width="0.5" x1="114.724" y1="31.775" x2="114.724" y2="21.275"/>
	<polyline fill="none" stroke="#008CD6" stroke-width="0.5" points="93.724,31.775 93.724,21.275 125.223,21.275 125.223,31.775 	
		"/>
	<line fill="none" stroke="#008CD6" stroke-width="0.5" x1="125.223" y1="31.775" x2="119.973" y2="31.775"/>
</g>
<line fill="none" stroke="#008CD6" stroke-width="0.5" x1="72.724" y1="52.775" x2="72.724" y2="31.775"/>
<line fill="none" stroke="#008CD6" stroke-width="0.5" stroke-dasharray="2" x1="125.254" y1="11.363" x2="125.254" y2="85.775"/>
<g>
	<path fill="#008CD6" d="M77.341,9.12c-0.552,0-0.888,0.012-1.308,0.036c0.072-0.456,0.096-0.84,0.096-1.428V1.416
		c0-0.624-0.024-0.996-0.096-1.416h1.128c-0.072,0.444-0.096,0.756-0.096,1.416v6.852h3.78c0.6,0,0.924-0.024,1.392-0.084v1.02
		c-0.384-0.06-0.72-0.084-1.392-0.084H77.341z"/>
	<path fill="#008CD6" d="M84.337,0v1.068h-1.164V0H84.337z M84.289,2.652c-0.06,0.42-0.084,0.756-0.084,1.356v3.756
		c0,0.552,0.024,0.888,0.084,1.356h-1.08c0.06-0.516,0.084-0.852,0.084-1.356V4.008c0-0.576-0.024-0.936-0.084-1.356H84.289z"/>
	<path fill="#008CD6" d="M86.041,9.12c0.072-0.456,0.096-0.78,0.096-1.356V4.008c0-0.54-0.024-0.876-0.096-1.356h0.996v0.816
		c0,0.144,0,0.24-0.036,0.516C87.565,3,88.345,2.532,89.425,2.532c0.864,0,1.536,0.312,1.92,0.9c0.228,0.348,0.336,0.792,0.336,1.38
		v2.964c0,0.612,0.024,0.948,0.084,1.344h-1.08c0.06-0.468,0.084-0.828,0.084-1.356V4.968c0-1.08-0.516-1.656-1.464-1.656
		c-0.672,0-1.212,0.3-1.716,0.948c-0.312,0.408-0.456,0.708-0.552,1.188v2.316c0,0.528,0.024,0.888,0.084,1.356H86.041z"/>
	<path fill="#008CD6" d="M94.069,6.024c0.036,0.804,0.156,1.248,0.48,1.68c0.384,0.528,0.972,0.816,1.692,0.816
		c0.972,0,1.644-0.48,1.98-1.404l0.84,0.336c-0.228,0.504-0.384,0.72-0.66,0.996c-0.564,0.552-1.296,0.84-2.172,0.84
		c-1.884,0-3.072-1.32-3.072-3.396c0-2.052,1.176-3.396,2.976-3.396c1.548,0,2.664,0.996,2.904,2.604
		c0.012,0.132,0.06,0.6,0.084,0.924H94.069z M98.161,5.268c-0.072-0.672-0.252-1.104-0.636-1.476c-0.372-0.36-0.84-0.54-1.416-0.54
		c-0.732,0-1.344,0.372-1.704,1.044c-0.168,0.3-0.228,0.516-0.3,0.972H98.161z"/>
	<path fill="#008CD6" d="M105.121,6.024c0.036,0.804,0.156,1.248,0.48,1.68c0.384,0.528,0.972,0.816,1.692,0.816
		c0.972,0,1.644-0.48,1.98-1.404l0.84,0.336c-0.228,0.504-0.384,0.72-0.66,0.996c-0.564,0.552-1.296,0.84-2.172,0.84
		c-1.884,0-3.072-1.32-3.072-3.396c0-2.052,1.176-3.396,2.976-3.396c1.548,0,2.664,0.996,2.904,2.604
		c0.012,0.132,0.06,0.6,0.084,0.924H105.121z M109.213,5.268c-0.072-0.672-0.252-1.104-0.636-1.476
		c-0.372-0.36-0.84-0.54-1.416-0.54c-0.732,0-1.344,0.372-1.704,1.044c-0.168,0.3-0.228,0.516-0.3,0.972H109.213z"/>
	<path fill="#008CD6" d="M111.565,9.12c0.072-0.456,0.096-0.78,0.096-1.356V4.008c0-0.54-0.024-0.876-0.096-1.356h0.996v0.816
		c0,0.144,0,0.24-0.036,0.516c0.564-0.984,1.344-1.452,2.424-1.452c0.864,0,1.536,0.312,1.92,0.9
		c0.228,0.348,0.336,0.792,0.336,1.38v2.964c0,0.612,0.024,0.948,0.084,1.344h-1.08c0.06-0.468,0.084-0.828,0.084-1.356V4.968
		c0-1.08-0.516-1.656-1.464-1.656c-0.672,0-1.212,0.3-1.716,0.948c-0.312,0.408-0.456,0.708-0.552,1.188v2.316
		c0,0.528,0.024,0.888,0.084,1.356H111.565z"/>
	<path fill="#008CD6" d="M124.058,8.532c0-0.168,0.012-0.384,0.036-0.588c-0.564,0.876-1.345,1.296-2.437,1.296
		c-1.848,0-2.976-1.272-2.976-3.36c0-2.052,1.151-3.36,2.952-3.36c1.092,0,1.932,0.444,2.46,1.272l-0.013-0.18
		c-0.035-0.252-0.035-0.36-0.035-0.636V1.368c0-0.564-0.024-0.912-0.085-1.368h1.057c-0.061,0.48-0.084,0.828-0.084,1.356V7.74
		c0,0.6,0.023,0.912,0.084,1.38h-0.96V8.532z M119.629,5.856c0,0.792,0.181,1.476,0.492,1.872c0.372,0.468,0.937,0.72,1.608,0.72
		c1.404,0,2.304-1.02,2.304-2.604c0-0.792-0.24-1.488-0.672-1.908c-0.42-0.408-0.996-0.636-1.632-0.636
		C120.422,3.3,119.629,4.26,119.629,5.856z"/>
</g>
<g>
	<rect x="41.296" y="63.348" fill="none" stroke="#008CD6" stroke-width="0.5" width="84" height="21"/>
	<line fill="none" stroke="#008CD6" stroke-width="0.5" x1="62.296" y1="84.348" x2="62.296" y2="63.348"/>
	<line fill="none" stroke="#008CD6" stroke-width="0.5" x1="83.296" y1="84.348" x2="83.296" y2="63.348"/>
	<line fill="none" stroke="#008CD6" stroke-width="0.5" x1="104.296" y1="84.348" x2="104.296" y2="63.348"/>
</g>
</svg>
