<?xml version="1.0" encoding="utf-8"?>
<!-- Generator: Adobe Illustrator 12.0.0, SVG Export Plug-In . SVG Version: 6.00 Build 51448)  -->
<!DOCTYPE svg PUBLIC "-//W3C//DTD SVG 1.1//EN" "http://www.w3.org/Graphics/SVG/1.1/DTD/svg11.dtd" [
	<!ENTITY ns_svg "http://www.w3.org/2000/svg">
	<!ENTITY ns_xlink "http://www.w3.org/1999/xlink">
]>
<svg  version="1.1" id="レイヤー_1" xmlns="&ns_svg;" xmlns:xlink="&ns_xlink;" width="199.006" height="215.122"
	 viewBox="0 0 199.006 215.122" overflow="visible" enable-background="new 0 0 199.006 215.122" xml:space="preserve">
<g>
	<path d="M60.313,154.515c0.777-0.641,1.438-1.564,1.9-2.646c0.347-0.798,0.63-1.827,0.63-2.289c0-0.283-0.199-0.493-0.619-0.672
		c0.063-0.074,0.136-0.105,0.241-0.105c0.137,0,0.504,0.137,0.809,0.305c0.273,0.147,0.378,0.231,0.452,0.367
		c0.483-0.294,1.428-1.04,1.879-1.501c0.241-0.231,0.326-0.346,0.326-0.42c0-0.126-0.126-0.158-0.62-0.158
		c-0.693,0-2.489,0.284-3.623,0.578c-0.399,0.105-0.767,0.231-1.071,0.368c-0.063,0.031-0.168,0.052-0.242,0.052
		c-0.231,0-0.609-0.315-0.84-0.703c-0.116-0.2-0.2-0.441-0.2-0.567c0-0.073,0.021-0.147,0.074-0.241
		c0.189,0.43,0.525,0.63,1.039,0.63c0.378,0,0.567-0.021,2.531-0.273c0.094-0.011,0.326-0.042,0.725-0.084
		c1.627-0.189,1.711-0.21,1.932-0.315c0.063-0.021,0.084-0.032,0.137-0.032c0.116,0,0.305,0.105,0.557,0.305
		c0.451,0.346,0.756,0.704,0.756,0.882c0,0.158-0.063,0.2-0.378,0.284c-0.168,0.052-0.284,0.094-0.515,0.22
		c-0.872,0.494-1.344,0.735-2.478,1.271c-0.063,0.179-0.073,0.2-0.157,0.473c-0.473,1.438-0.882,2.257-1.512,3.003
		c-0.515,0.599-1.04,1.061-1.627,1.407L60.313,154.515z"/>
	<path d="M70.131,150.693c0.777-0.651,1.47-1.47,2.205-2.573c0.431-0.651,0.693-1.187,0.693-1.417c0-0.136-0.042-0.22-0.199-0.357
		c-0.137-0.116-0.137-0.116-0.252-0.189c-0.116-0.053-0.116-0.053-0.189-0.095c0.095-0.052,0.137-0.063,0.2-0.063
		c0.231,0,0.578,0.116,0.861,0.284c0.336,0.189,0.494,0.368,0.494,0.536c0,0.126-0.01,0.136-0.567,0.956
		c0.136,0.031,0.199,0.042,0.273,0.042c0.21,0,0.725-0.084,1.26-0.21c0.431-0.105,0.609-0.168,0.83-0.283
		c0.084-0.053,0.116-0.063,0.179-0.063c0.252,0,0.851,0.546,0.851,0.777c0,0.095-0.032,0.147-0.158,0.263
		c-0.178,0.157-0.231,0.241-0.504,0.746c-0.924,1.732-1.816,2.877-3.098,3.948c-0.903,0.767-1.69,1.26-2.604,1.638l-0.073-0.147
		c0.84-0.515,1.47-1.029,2.32-1.88c1.271-1.26,2.257-2.688,2.867-4.158c0.105-0.231,0.168-0.452,0.168-0.536
		c0-0.042-0.032-0.073-0.095-0.073c-0.157,0-0.819,0.168-1.333,0.336c-0.189,0.063-0.252,0.073-0.346,0.073
		c-0.221,0-0.441-0.105-0.651-0.304c-0.808,1.155-1.879,2.173-3.024,2.877L70.131,150.693z"/>
	<path d="M80.137,148.845c0.851,0.168,1.491,0.389,1.838,0.62c0.283,0.178,0.399,0.388,0.399,0.693c0,0.273-0.137,0.504-0.294,0.504
		c-0.105,0-0.168-0.042-0.326-0.241c-0.525-0.662-0.998-1.061-1.68-1.438L80.137,148.845z M88.264,148.593
		c-0.567,0.809-1.102,1.407-2.226,2.457c-0.872,0.819-2.016,1.627-3.644,2.593c-0.284,0.168-0.357,0.221-0.504,0.357
		c-0.084,0.074-0.158,0.105-0.242,0.105c-0.21,0-0.441-0.199-0.746-0.619c-0.199-0.305-0.325-0.62-0.325-0.84
		c0-0.105,0.021-0.168,0.084-0.252c0.231,0.452,0.483,0.662,0.798,0.662c0.284,0,1.061-0.357,2.058-0.956
		c1.627-0.956,3.423-2.373,4.599-3.623L88.264,148.593z M81.292,146.976c1.68,0.399,2.215,0.725,2.215,1.344
		c0,0.294-0.126,0.525-0.283,0.525c-0.116,0-0.116,0-0.567-0.557c-0.399-0.472-0.882-0.872-1.438-1.166L81.292,146.976z"/>
	<path d="M92.769,147.669c0.546,0,1.806-0.084,2.898-0.2c0.557-0.063,0.725-0.095,0.851-0.2c0.115-0.084,0.178-0.115,0.252-0.115
		c0.115,0,0.388,0.189,0.682,0.483c0.158,0.158,0.231,0.273,0.231,0.368c0,0.073-0.021,0.115-0.137,0.262
		c-0.084,0.116-0.115,0.231-0.273,1.271c-0.168,1.029-0.168,1.029-0.347,2.121c-0.063,0.347-0.105,0.599-0.126,0.767
		c0.389,0.252,0.515,0.388,0.515,0.588c0,0.095-0.084,0.158-0.231,0.158c-0.084,0-0.126,0-0.41-0.042
		c-0.136-0.021-0.546-0.032-0.956-0.032c-0.798,0-1.638,0.105-2.551,0.326c-0.273,0.063-0.357,0.094-0.536,0.168
		c-0.063,0.031-0.115,0.042-0.178,0.042c-0.231,0-0.441-0.147-0.672-0.473c-0.199-0.273-0.304-0.515-0.304-0.683
		c0-0.031,0.01-0.063,0.052-0.147c0.252,0.368,0.546,0.536,0.924,0.536c0.178,0,0.441-0.021,0.903-0.084
		c0.935-0.116,1.627-0.179,2.772-0.252c0.095-0.578,0.221-1.606,0.294-2.289c-1.344,0.073-2.971,0.294-3.633,0.504
		c-0.095,0.032-0.168,0.042-0.231,0.042c-0.126,0-0.273-0.073-0.389-0.189c-0.221-0.22-0.41-0.609-0.41-0.83
		c0-0.063,0.011-0.094,0.042-0.178c0.326,0.409,0.504,0.514,0.914,0.514c0.095,0,0.095,0,2.3-0.21
		c0.262-0.031,0.598-0.042,1.459-0.084c0.115-1.071,0.147-1.396,0.157-1.953c-0.725,0-1.428,0.073-2.877,0.273
		c-0.483,0.063-0.609,0.084-1.008,0.178c-0.105,0.032-0.179,0.042-0.231,0.042c-0.116,0-0.242-0.063-0.347-0.168
		c-0.263-0.283-0.462-0.662-0.462-0.903c0-0.063,0.01-0.116,0.063-0.21C92.002,147.501,92.286,147.669,92.769,147.669z"/>
	<path d="M101.705,147.302c1.008,0.252,1.617,0.494,2.026,0.788c0.242,0.168,0.357,0.399,0.357,0.714
		c0,0.347-0.115,0.588-0.294,0.588c-0.116,0-0.168-0.052-0.452-0.42c-0.514-0.683-0.893-1.029-1.711-1.543L101.705,147.302z
		 M109.17,147.9c-0.525,0.987-1.166,1.816-2.205,2.824c-0.966,0.935-1.617,1.459-2.95,2.394c-0.494,0.347-0.546,0.389-0.62,0.483
		c-0.168,0.2-0.231,0.252-0.368,0.252c-0.43,0-1.229-1.008-1.229-1.543c0-0.063,0.011-0.105,0.053-0.21
		c0.21,0.315,0.231,0.336,0.378,0.462c0.157,0.147,0.304,0.221,0.42,0.221c0.179,0,0.504-0.137,1.019-0.441
		c1.176-0.683,1.585-0.977,2.509-1.732c1.292-1.05,1.922-1.691,2.825-2.804L109.17,147.9z"/>
	<path d="M112.834,154.557c1.648-1.396,2.562-2.467,3.476-4.021c0.672-1.166,1.25-2.446,1.25-2.803c0-0.105-0.053-0.137-0.21-0.137
		c-0.2,0-1.187,0.179-1.943,0.357c-0.798,0.189-1.47,0.399-1.921,0.599c-0.168,0.073-0.283,0.105-0.388,0.105
		c-0.221,0-0.494-0.21-0.756-0.567c-0.178-0.242-0.273-0.483-0.273-0.662c0-0.063,0.011-0.116,0.074-0.21
		c0.168,0.388,0.525,0.609,0.977,0.609c0.357,0,1.144-0.115,2.992-0.431c0.924-0.157,0.998-0.178,1.218-0.294
		c0.126-0.073,0.126-0.073,0.21-0.073c0.157,0,0.451,0.189,0.766,0.483c0.221,0.21,0.326,0.378,0.326,0.515
		c0,0.084-0.031,0.147-0.147,0.273c-0.137,0.136-0.179,0.21-0.368,0.577c-0.85,1.712-1.911,3.192-3.024,4.242
		c-0.661,0.62-1.271,1.061-2.163,1.564L112.834,154.557z M120.583,146.63c0,0.588-0.473,1.061-1.05,1.061
		c-0.577,0-1.05-0.473-1.05-1.061c0-0.578,0.473-1.05,1.05-1.05C120.111,145.58,120.583,146.052,120.583,146.63z M118.798,146.63
		c0,0.409,0.326,0.745,0.735,0.745c0.41,0,0.735-0.336,0.735-0.745c0-0.41-0.326-0.735-0.735-0.735
		C119.124,145.895,118.798,146.22,118.798,146.63z"/>
	<path d="M122.537,147.627c0.304,0,0.567,0.105,1.187,0.472c0.378-0.01,1.648-0.126,3.276-0.294c0.914-0.105,1.029-0.126,1.218-0.21
		c0.095-0.053,0.126-0.063,0.179-0.063c0.126,0,0.315,0.126,0.546,0.357c0.242,0.242,0.347,0.399,0.347,0.525
		c0,0.074-0.021,0.116-0.084,0.2c-0.105,0.136-0.147,0.241-0.252,0.578c-0.105,0.346-0.157,0.577-0.441,1.774
		c-0.189,0.819-0.189,0.819-0.262,1.082c0.357,0.157,0.525,0.336,0.525,0.535c0,0.126-0.084,0.221-0.2,0.221
		c-0.073,0-0.073,0-0.514-0.074c-0.263-0.031-0.893-0.063-1.491-0.063c-0.819,0-1.501,0.042-2.415,0.158
		c0.011,0.263,0.011,0.273,0.011,0.389c0,0.283-0.053,0.378-0.231,0.378c-0.168,0-0.315-0.147-0.473-0.473
		c-0.095-0.189-0.147-0.368-0.147-0.483c0-0.053,0-0.074,0.042-0.21c0.021-0.095,0.031-0.41,0.031-0.84
		c0-1.228-0.157-2.667-0.336-3.139c-0.136-0.357-0.346-0.578-0.724-0.756C122.421,147.638,122.453,147.627,122.537,147.627z
		 M124.122,152.321c0.788-0.032,2.866-0.179,3.465-0.242c0.242-1.082,0.546-2.898,0.651-3.875c-0.136-0.01-0.189-0.01-0.283-0.01
		c-0.21,0-0.756,0.042-2.069,0.136c-1.134,0.095-1.491,0.137-2.037,0.221C123.901,149.622,124.027,151.375,124.122,152.321z"/>
	<path d="M133.005,150.893c0.756-0.63,1.459-1.449,2.205-2.562c0.431-0.64,0.693-1.187,0.693-1.417c0-0.136-0.042-0.22-0.199-0.357
		c-0.126-0.126-0.126-0.126-0.252-0.189c-0.116-0.063-0.116-0.063-0.189-0.105c0.095-0.042,0.137-0.053,0.2-0.053
		c0.221,0,0.578,0.116,0.861,0.284c0.336,0.189,0.494,0.368,0.494,0.536c0,0.126-0.01,0.136-0.567,0.945
		c0.136,0.042,0.199,0.053,0.283,0.053c0.2,0,0.704-0.084,1.25-0.221c0.441-0.105,0.609-0.158,0.83-0.284
		c0.084-0.052,0.116-0.063,0.179-0.063c0.252,0,0.851,0.546,0.851,0.777c0,0.084-0.042,0.147-0.158,0.262
		c-0.179,0.168-0.231,0.242-0.504,0.746c-0.924,1.743-1.816,2.877-3.098,3.958c-0.903,0.756-1.69,1.26-2.604,1.638l-0.073-0.147
		c0.84-0.525,1.47-1.029,2.32-1.88c1.271-1.271,2.257-2.688,2.867-4.158c0.105-0.231,0.168-0.452,0.168-0.536
		c0-0.042-0.032-0.073-0.095-0.073c-0.157,0-0.809,0.157-1.333,0.336c-0.189,0.063-0.252,0.073-0.346,0.073
		c-0.221,0-0.441-0.105-0.651-0.304c-0.809,1.155-1.869,2.163-3.024,2.877L133.005,150.893z M138.801,145.989
		c0.588,0.22,0.966,0.42,1.323,0.693c0.241,0.189,0.357,0.399,0.357,0.662c0,0.315-0.095,0.504-0.252,0.504
		c-0.105,0-0.147-0.042-0.315-0.336c-0.284-0.515-0.662-0.956-1.187-1.407L138.801,145.989z M139.725,145.38
		c0.63,0.157,1.061,0.346,1.407,0.588c0.21,0.147,0.305,0.336,0.305,0.599c0,0.294-0.074,0.451-0.221,0.451
		c-0.105,0-0.147-0.042-0.315-0.315c-0.305-0.462-0.651-0.798-1.25-1.208L139.725,145.38z"/>
	<path d="M145.069,154.547c1.04-0.798,1.701-1.449,2.394-2.342c0.851-1.082,1.48-2.226,1.764-3.203
		c-1.019,0.074-1.963,0.221-3.056,0.483c-0.662,0.157-0.872,0.22-1.092,0.325c-0.168,0.084-0.21,0.095-0.315,0.095
		c-0.368,0-0.966-0.756-0.966-1.218c0-0.073,0.011-0.105,0.063-0.178c0.242,0.42,0.525,0.609,0.914,0.609
		c0.41,0,2.184-0.221,3.549-0.452c0.567-0.094,0.651-0.115,0.861-0.241c0.073-0.042,0.126-0.063,0.168-0.063
		c0.094,0,0.252,0.105,0.493,0.315c0.294,0.273,0.42,0.441,0.42,0.578c0,0.084-0.053,0.168-0.158,0.262
		c-0.147,0.105-0.21,0.2-0.389,0.546c-1.134,2.142-2.824,3.843-4.557,4.61L145.069,154.547z M144.933,146.42
		c0.357,0.409,0.672,0.567,1.124,0.567c0.703,0,1.974-0.273,2.373-0.504c0.084-0.042,0.137-0.063,0.221-0.063
		c0.294,0,0.819,0.367,0.819,0.577c0,0.126-0.094,0.189-0.399,0.231c-1.25,0.189-2.11,0.273-2.677,0.273
		c-0.788,0-1.103-0.199-1.606-0.987L144.933,146.42z"/>
	<path d="M158.698,149.759c1.585,1.323,2.457,2.415,2.457,3.097c0,0.42-0.231,0.851-0.451,0.851c-0.084,0-0.158-0.052-0.2-0.157
		c-0.031-0.074-0.031-0.074-0.158-0.504c-0.094-0.284-0.136-0.41-0.252-0.662c-0.829,0.21-2.352,0.535-3.917,0.819
		c-0.903,0.179-1.134,0.231-1.313,0.347c-0.094,0.063-0.168,0.084-0.241,0.084c-0.168,0-0.315-0.105-0.483-0.336
		c-0.294-0.41-0.462-0.777-0.462-1.04c0-0.095,0.011-0.158,0.074-0.284c0.263,0.557,0.473,0.714,0.956,0.714
		c0.042,0,0.105,0,0.262-0.021c0.294-0.588,0.903-1.995,1.344-3.129c0.504-1.302,0.725-2.016,0.725-2.31
		c0-0.273-0.2-0.493-0.62-0.672c0.105-0.063,0.168-0.084,0.284-0.084c0.241,0,0.598,0.137,0.913,0.347
		c0.326,0.21,0.494,0.409,0.494,0.567c0,0.105-0.01,0.126-0.157,0.315c-0.095,0.116-0.273,0.452-0.483,0.872
		c-0.745,1.512-1.585,3.097-2.163,4.084c1.375-0.095,3.465-0.347,4.672-0.546c-0.158-0.347-0.305-0.62-0.63-1.145
		c-0.168-0.273-0.231-0.357-0.788-1.103L158.698,149.759z"/>
	<path d="M65.212,165.981c-1.407,1.386-1.932,1.785-3.234,2.583l-0.189-0.273c1.323-1.134,2.205-2.163,3.507-4.074
		c0.924-1.323,1.365-2.142,1.806-3.234c0.462,0.189,0.798,0.336,1.008,0.42c0.903,0.357,1.092,0.462,1.092,0.63
		c0,0.189-0.273,0.294-0.798,0.294c-0.021,0-0.084,0-0.147-0.021c-0.924,1.302-1.449,1.974-2.331,2.94
		c1.134,0.252,1.386,0.336,1.386,0.525c0,0.147-0.084,0.189-0.672,0.378v3.591c0,1.113,0,1.113,0.021,3.864c0,0.273,0,0.546,0,0.672
		c0,0.231,0,0.483,0,0.861c-0.021,0.168-0.063,0.189-0.252,0.231c-0.294,0.042-0.63,0.084-0.861,0.084
		c-0.357,0-0.462-0.042-0.462-0.189c0-0.021,0-0.063,0-0.105c0.042-0.546,0.084-2.247,0.126-5.103V165.981z M62.229,162.391
		c1.092-0.987,1.995-1.995,3.087-3.486c0.588-0.777,0.966-1.386,1.533-2.415c1.134,0.483,1.722,0.777,1.911,0.924
		c0.021,0.021,0.063,0.084,0.105,0.21c0,0.126-0.21,0.231-0.441,0.231c-0.126,0-0.294-0.021-0.483-0.021
		c-1.764,2.121-3.402,3.57-5.502,4.809L62.229,162.391z M70.482,163.902c-0.588,0-0.987,0.042-1.848,0.147l-0.168-0.84
		c0.903,0.189,1.197,0.21,2.016,0.21h7.812c0.546-0.672,0.714-0.861,1.26-1.491c0.84,0.693,1.071,0.924,1.848,1.68
		c0.063,0.084,0.084,0.126,0.084,0.147c0,0.084-0.105,0.147-0.189,0.147h-4.2v4.2c0,1.89,0,2.94,0.042,5.586
		c0,0.084,0,0.168,0,0.189c0,0.462-0.189,0.735-0.672,1.029c-0.441,0.252-0.924,0.399-1.953,0.588
		c-0.042-0.672-0.21-0.924-0.714-1.155c-0.21-0.084-0.546-0.168-1.155-0.252l-1.407-0.21v-0.357c1.617,0.105,2.247,0.147,3.99,0.189
		c0.294-0.021,0.357-0.063,0.357-0.294v-9.513H70.482z M69.391,157.938c0.735,0.147,1.302,0.21,2.1,0.21h5.523
		c0.483-0.63,0.63-0.819,1.134-1.407c0.84,0.63,1.092,0.84,1.932,1.575c0.042,0.063,0.063,0.105,0.063,0.147
		c0,0.084-0.126,0.168-0.252,0.168h-8.4c-0.756,0-1.134,0.021-1.953,0.147L69.391,157.938z"/>
	<path d="M89.362,169.005c0.042-1.239,0.084-3.066,0.084-4.62c0-0.588,0-0.588-0.084-2.457c0.672,0.357,0.882,0.462,1.533,0.819
		h2.373v-1.68h-3.381c-0.42,0-0.756,0.021-1.449,0.105l-0.147-0.735c0.483,0.084,1.218,0.147,1.596,0.147h3.381v-1.722
		c-1.554,0.231-2.835,0.357-4.536,0.462l-0.042-0.294c1.512-0.231,3.297-0.63,5.145-1.155c1.743-0.483,2.646-0.84,3.465-1.302
		c0.525,0.273,1.071,0.588,1.407,0.777c0.42,0.252,0.441,0.273,0.441,0.378s-0.147,0.189-0.378,0.189
		c-0.105,0-0.315-0.021-0.882-0.063c-1.239,0.336-2.058,0.525-3.381,0.777v1.953h2.478c0.399-0.483,0.525-0.609,0.966-1.071
		c0.714,0.546,0.945,0.714,1.617,1.26c0.063,0.063,0.105,0.126,0.105,0.168c0,0.084-0.105,0.126-0.273,0.126h-4.893v1.68h2.457
		c0.315-0.357,0.42-0.462,0.735-0.819c0.441,0.336,0.588,0.462,1.029,0.819c0.168,0.147,0.231,0.21,0.231,0.273
		c0,0.105-0.021,0.126-0.546,0.504c-0.021,2.31-0.021,2.31-0.021,2.94c0,0.546,0.021,1.134,0.042,2.226
		c0,0.294-0.231,0.399-0.903,0.399c-0.252,0-0.399-0.084-0.399-0.252c0-0.021,0-0.042,0-0.063v-0.252h-2.625v2.079h2.016
		c0.441-0.462,0.588-0.609,0.987-1.05c0.672,0.525,0.882,0.693,1.533,1.218c0.063,0.084,0.084,0.126,0.084,0.168
		c0,0.084-0.084,0.147-0.189,0.147h-4.431v1.68c1.554-0.168,2.394-0.273,4.053-0.504l0.042,0.252
		c-2.541,0.672-3.57,0.903-4.746,1.155c-3.675,0.735-3.675,0.735-4.431,0.903c-0.147,0.567-0.231,0.756-0.378,0.756
		c-0.21,0-0.378-0.462-0.777-2.079c1.344-0.042,2.856-0.147,4.998-0.357v-1.806h-3.402c-0.441,0-0.693,0.021-1.197,0.105
		l-0.147-0.714c0.504,0.084,0.861,0.126,1.449,0.126h3.297v-2.079h-2.52v0.399c0,0.189-0.042,0.252-0.21,0.294
		c-0.105,0.042-0.546,0.084-0.798,0.084c-0.294,0-0.378-0.063-0.378-0.252V169.005z M93.268,163.23h-2.52v2.121h2.52V163.23z
		 M93.268,165.834h-2.52v2.205h2.52V165.834z M97.132,163.23h-2.625v2.121h2.625V163.23z M97.132,165.834h-2.625v2.205h2.625
		V165.834z M105.322,162.118c0.336-0.378,0.441-0.483,0.777-0.861c0.546,0.357,0.693,0.483,1.176,0.861
		c0.168,0.147,0.21,0.21,0.21,0.315s-0.147,0.231-0.63,0.651c-0.189,5.124-0.483,8.316-0.924,9.975
		c-0.273,1.029-0.504,1.428-1.071,1.764c-0.462,0.294-0.882,0.441-1.806,0.588c-0.294-0.756-0.315-0.819-0.609-0.966
		c-0.378-0.21-0.882-0.357-1.995-0.567v-0.294c1.134,0.084,2.625,0.168,3.024,0.168c0.609,0,0.882-0.147,1.008-0.546
		c0.546-1.617,0.882-5.313,0.987-10.605h-2.394c-0.21,3.402-0.672,5.859-1.47,7.644c-0.735,1.68-1.932,3.108-3.507,4.2
		c-0.777,0.567-1.323,0.84-2.541,1.302l-0.168-0.252c1.785-0.987,2.814-1.848,3.822-3.192c1.596-2.184,2.268-4.746,2.541-9.702
		h-1.113c-0.378,0-0.693,0.021-1.344,0.126l-0.21-0.756c0.714,0.105,1.197,0.147,1.701,0.147h0.987
		c0.063-1.134,0.084-2.037,0.084-2.877c0-1.029-0.021-1.407-0.084-2.31c1.596,0.105,2.31,0.231,2.31,0.441c0,0.021,0,0.021,0,0.021
		c-0.021,0.189-0.126,0.252-0.861,0.588c-0.042,2.016-0.042,2.499-0.126,4.137H105.322z"/>
	<path d="M114.625,160.375c0.567,0.105,1.239,0.168,1.827,0.168h4.536c0.504-0.567,0.672-0.756,1.176-1.302
		c0.777,0.63,1.008,0.84,1.722,1.491c0.063,0.063,0.084,0.126,0.084,0.147c0,0.063-0.084,0.147-0.147,0.147h-7.476
		c-0.735,0-1.008,0.021-1.596,0.105L114.625,160.375z M115.507,163.188c0.672,0.126,1.092,0.168,1.638,0.168h2.709
		c0.462-0.504,0.588-0.672,1.05-1.155c0.714,0.525,0.924,0.714,1.575,1.323c0.063,0.063,0.084,0.147,0.084,0.189
		c0,0.063-0.084,0.126-0.168,0.126h-5.25c-0.63,0-0.903,0.021-1.512,0.063L115.507,163.188z M115.57,157.519
		c0.462,0.084,1.134,0.147,1.575,0.147h2.898c0.504-0.567,0.651-0.735,1.176-1.239c0.735,0.588,0.966,0.777,1.701,1.365
		c0.084,0.105,0.126,0.168,0.126,0.21c0,0.084-0.084,0.147-0.21,0.147h-5.691c-0.63,0-0.903,0.021-1.449,0.084L115.57,157.519z
		 M115.57,166.065c0.546,0.126,0.882,0.147,1.575,0.147h2.751c0.462-0.546,0.609-0.714,1.071-1.26
		c0.672,0.588,0.882,0.777,1.512,1.386c0.084,0.105,0.126,0.168,0.126,0.21c0,0.084-0.084,0.147-0.168,0.147h-5.292
		c-0.483,0-0.819,0.021-1.47,0.084L115.57,166.065z M117.124,175.032c0,0.336-0.189,0.399-1.092,0.399
		c-0.252,0-0.336-0.063-0.357-0.273c0.042-1.05,0.084-3.633,0.084-5.565c0-0.609-0.021-0.882-0.084-1.596
		c0.714,0.441,0.924,0.588,1.617,1.092h3.003c0.294-0.336,0.609-0.672,0.903-1.008l1.26,1.008c0.021,0.063,0.042,0.105,0.042,0.126
		c0.021,0.063,0.042,0.105,0.042,0.147c0,0.126-0.231,0.378-0.651,0.672c0,0.252,0,0.42,0,0.588c0,1.554,0.021,3.507,0.063,4.158
		c-0.021,0.189-0.063,0.273-0.231,0.315s-0.609,0.084-0.861,0.084c-0.231,0-0.336-0.084-0.357-0.273v-0.903h-3.381V175.032z
		 M117.124,173.521h3.381v-3.948h-3.381V173.521z M130.773,163.839c0.546-0.714,0.735-0.924,1.365-1.596
		c0.819,0.672,1.071,0.882,1.827,1.596c0.084,0.105,0.126,0.21,0.126,0.273c0,0.105-0.126,0.189-0.252,0.189h-5.187
		c0,5.859,0,6.657,0.126,10.731c-0.021,0.168-0.063,0.252-0.189,0.294c-0.147,0.063-0.672,0.126-1.071,0.126
		c-0.294,0-0.399-0.063-0.399-0.294c0.063-2.478,0.105-5.691,0.105-9.492c0-0.168,0-0.777-0.021-1.365h-2.583
		c-0.777,0-1.05,0.021-1.701,0.105l-0.126-0.756c0.567,0.126,1.197,0.189,1.827,0.189h2.583c-0.021-5.922-0.021-6.153-0.168-7.056
		c0.483,0.042,0.861,0.063,1.092,0.084c1.113,0.084,1.449,0.168,1.449,0.378c0,0.189-0.105,0.252-0.924,0.546
		c0,2.478,0,2.478,0,6.048H130.773z"/>
	<path d="M146.586,171.021v1.197c-0.021,0.168-0.063,0.231-0.21,0.252c-0.21,0.042-0.588,0.084-0.882,0.084
		s-0.378-0.063-0.378-0.273c0,0,0-0.042,0-0.063c0.063-2.499,0.063-2.499,0.063-9.429c0-0.903-0.021-1.218-0.063-2.016
		c0.735,0.357,0.966,0.483,1.659,0.882h2.625v-3.465h-6.048c-1.029,0-1.596,0.021-2.394,0.126l-0.105-0.798
		c0.882,0.168,1.176,0.189,2.499,0.189h12.915c0.588-0.735,0.756-0.945,1.365-1.659c0.924,0.735,1.197,0.987,2.079,1.806
		c0.063,0.063,0.105,0.147,0.105,0.189c0,0.084-0.105,0.147-0.273,0.147h-8.757v3.465h2.856c0.315-0.378,0.42-0.504,0.735-0.882
		c0.546,0.399,0.714,0.525,1.176,0.882c0.126,0.084,0.189,0.168,0.189,0.231c0,0.147-0.105,0.231-0.567,0.525
		c0,6.678,0,6.678,0.042,9.534c0,0.147-0.042,0.189-0.147,0.231c-0.126,0.063-0.588,0.126-0.966,0.126
		c-0.21,0-0.294-0.063-0.294-0.231v-1.05H146.586z M141.421,165.981c0-1.239,0-1.407,0-1.911c0-0.21,0-0.378,0-0.441
		c0-1.05-0.042-1.974-0.084-2.583c1.827,0.273,2.226,0.378,2.226,0.588c0,0.147-0.168,0.273-0.651,0.504v11.718h14.616v-11.214
		c0-0.441-0.021-0.819-0.063-1.701c2.247,0.336,2.331,0.357,2.331,0.567c0,0.168-0.147,0.273-0.756,0.567v7.287
		c0,2.793,0,3.486,0.084,5.733c0,0.021,0,0.042,0,0.063c0,0.126-0.042,0.189-0.147,0.252c-0.126,0.063-0.672,0.126-1.092,0.126
		c-0.252,0-0.357-0.084-0.357-0.315v-0.882h-14.616v0.882c0,0.021,0,0.042,0,0.042c0,0.231-0.336,0.336-1.092,0.336
		c-0.378,0-0.441-0.042-0.462-0.273c0.063-3.969,0.063-4.011,0.063-7.455V165.981z M149.401,162.139h-2.814v3.78h2.814V162.139z
		 M149.401,166.38h-2.814v4.2h2.814V166.38z M153.811,162.139h-3.024v3.78h3.024V162.139z M153.811,166.38h-3.024v4.2h3.024V166.38z
		"/>
</g>
<g>
	<path d="M60.313,193.89c0.777-0.641,1.438-1.564,1.9-2.646c0.347-0.798,0.63-1.827,0.63-2.289c0-0.283-0.199-0.493-0.619-0.672
		c0.063-0.074,0.136-0.105,0.241-0.105c0.137,0,0.504,0.137,0.809,0.305c0.273,0.147,0.378,0.231,0.452,0.367
		c0.483-0.294,1.428-1.04,1.879-1.501c0.241-0.231,0.326-0.346,0.326-0.42c0-0.126-0.126-0.158-0.62-0.158
		c-0.693,0-2.489,0.284-3.623,0.578c-0.399,0.105-0.767,0.231-1.071,0.368c-0.063,0.031-0.168,0.052-0.242,0.052
		c-0.231,0-0.609-0.315-0.84-0.703c-0.116-0.2-0.2-0.441-0.2-0.567c0-0.073,0.021-0.147,0.074-0.241
		c0.189,0.43,0.525,0.63,1.039,0.63c0.378,0,0.567-0.021,2.531-0.273c0.094-0.011,0.326-0.042,0.725-0.084
		c1.627-0.189,1.711-0.21,1.932-0.315c0.063-0.021,0.084-0.032,0.137-0.032c0.116,0,0.305,0.105,0.557,0.305
		c0.451,0.346,0.756,0.704,0.756,0.882c0,0.158-0.063,0.2-0.378,0.284c-0.168,0.052-0.284,0.094-0.515,0.22
		c-0.872,0.494-1.344,0.735-2.478,1.271c-0.063,0.179-0.073,0.2-0.157,0.473c-0.473,1.438-0.882,2.257-1.512,3.003
		c-0.515,0.599-1.04,1.061-1.627,1.407L60.313,193.89z"/>
	<path d="M70.131,190.068c0.777-0.651,1.47-1.47,2.205-2.573c0.431-0.651,0.693-1.187,0.693-1.417c0-0.136-0.042-0.22-0.199-0.357
		c-0.137-0.116-0.137-0.116-0.252-0.189c-0.116-0.053-0.116-0.053-0.189-0.095c0.095-0.052,0.137-0.063,0.2-0.063
		c0.231,0,0.578,0.116,0.861,0.284c0.336,0.189,0.494,0.368,0.494,0.536c0,0.126-0.01,0.136-0.567,0.956
		c0.136,0.031,0.199,0.042,0.273,0.042c0.21,0,0.725-0.084,1.26-0.21c0.431-0.105,0.609-0.168,0.83-0.283
		c0.084-0.053,0.116-0.063,0.179-0.063c0.252,0,0.851,0.546,0.851,0.777c0,0.095-0.032,0.147-0.158,0.263
		c-0.178,0.157-0.231,0.241-0.504,0.746c-0.924,1.732-1.816,2.877-3.098,3.948c-0.903,0.767-1.69,1.26-2.604,1.638l-0.073-0.147
		c0.84-0.515,1.47-1.029,2.32-1.88c1.271-1.26,2.257-2.688,2.867-4.158c0.105-0.231,0.168-0.452,0.168-0.536
		c0-0.042-0.032-0.073-0.095-0.073c-0.157,0-0.819,0.168-1.333,0.336c-0.189,0.063-0.252,0.073-0.346,0.073
		c-0.221,0-0.441-0.105-0.651-0.304c-0.808,1.155-1.879,2.173-3.024,2.877L70.131,190.068z"/>
	<path d="M80.137,188.22c0.851,0.168,1.491,0.389,1.838,0.62c0.283,0.178,0.399,0.388,0.399,0.693c0,0.273-0.137,0.504-0.294,0.504
		c-0.105,0-0.168-0.042-0.326-0.241c-0.525-0.662-0.998-1.061-1.68-1.438L80.137,188.22z M88.264,187.968
		c-0.567,0.809-1.102,1.407-2.226,2.457c-0.872,0.819-2.016,1.627-3.644,2.593c-0.284,0.168-0.357,0.221-0.504,0.357
		c-0.084,0.074-0.158,0.105-0.242,0.105c-0.21,0-0.441-0.199-0.746-0.619c-0.199-0.305-0.325-0.62-0.325-0.84
		c0-0.105,0.021-0.168,0.084-0.252c0.231,0.452,0.483,0.662,0.798,0.662c0.284,0,1.061-0.357,2.058-0.956
		c1.627-0.956,3.423-2.373,4.599-3.623L88.264,187.968z M81.292,186.351c1.68,0.399,2.215,0.725,2.215,1.344
		c0,0.294-0.126,0.525-0.283,0.525c-0.116,0-0.116,0-0.567-0.557c-0.399-0.472-0.882-0.872-1.438-1.166L81.292,186.351z"/>
	<path d="M92.769,187.044c0.546,0,1.806-0.084,2.898-0.2c0.557-0.063,0.725-0.095,0.851-0.2c0.115-0.084,0.178-0.115,0.252-0.115
		c0.115,0,0.388,0.189,0.682,0.483c0.158,0.158,0.231,0.273,0.231,0.368c0,0.073-0.021,0.115-0.137,0.262
		c-0.084,0.116-0.115,0.231-0.273,1.271c-0.168,1.029-0.168,1.029-0.347,2.121c-0.063,0.347-0.105,0.599-0.126,0.767
		c0.389,0.252,0.515,0.388,0.515,0.588c0,0.095-0.084,0.158-0.231,0.158c-0.084,0-0.126,0-0.41-0.042
		c-0.136-0.021-0.546-0.032-0.956-0.032c-0.798,0-1.638,0.105-2.551,0.326c-0.273,0.063-0.357,0.094-0.536,0.168
		c-0.063,0.031-0.115,0.042-0.178,0.042c-0.231,0-0.441-0.147-0.672-0.473c-0.199-0.273-0.304-0.515-0.304-0.683
		c0-0.031,0.01-0.063,0.052-0.147c0.252,0.368,0.546,0.536,0.924,0.536c0.178,0,0.441-0.021,0.903-0.084
		c0.935-0.116,1.627-0.179,2.772-0.252c0.095-0.578,0.221-1.606,0.294-2.289c-1.344,0.073-2.971,0.294-3.633,0.504
		c-0.095,0.032-0.168,0.042-0.231,0.042c-0.126,0-0.273-0.073-0.389-0.189c-0.221-0.22-0.41-0.609-0.41-0.83
		c0-0.063,0.011-0.094,0.042-0.178c0.326,0.409,0.504,0.514,0.914,0.514c0.095,0,0.095,0,2.3-0.21
		c0.262-0.031,0.598-0.042,1.459-0.084c0.115-1.071,0.147-1.396,0.157-1.953c-0.725,0-1.428,0.073-2.877,0.273
		c-0.483,0.063-0.609,0.084-1.008,0.178c-0.105,0.032-0.179,0.042-0.231,0.042c-0.116,0-0.242-0.063-0.347-0.168
		c-0.263-0.283-0.462-0.662-0.462-0.903c0-0.063,0.01-0.116,0.063-0.21C92.002,186.876,92.286,187.044,92.769,187.044z"/>
	<path d="M101.705,186.677c1.008,0.252,1.617,0.494,2.026,0.788c0.242,0.168,0.357,0.399,0.357,0.714
		c0,0.347-0.115,0.588-0.294,0.588c-0.116,0-0.168-0.052-0.452-0.42c-0.514-0.683-0.893-1.029-1.711-1.543L101.705,186.677z
		 M109.17,187.275c-0.525,0.987-1.166,1.816-2.205,2.824c-0.966,0.935-1.617,1.459-2.95,2.394c-0.494,0.347-0.546,0.389-0.62,0.483
		c-0.168,0.2-0.231,0.252-0.368,0.252c-0.43,0-1.229-1.008-1.229-1.543c0-0.063,0.011-0.105,0.053-0.21
		c0.21,0.315,0.231,0.336,0.378,0.462c0.157,0.147,0.304,0.221,0.42,0.221c0.179,0,0.504-0.137,1.019-0.441
		c1.176-0.683,1.585-0.977,2.509-1.732c1.292-1.05,1.922-1.691,2.825-2.804L109.17,187.275z"/>
	<path d="M112.834,193.932c1.648-1.396,2.562-2.467,3.476-4.021c0.672-1.166,1.25-2.446,1.25-2.803c0-0.105-0.053-0.137-0.21-0.137
		c-0.2,0-1.187,0.179-1.943,0.357c-0.798,0.189-1.47,0.399-1.921,0.599c-0.168,0.073-0.283,0.105-0.388,0.105
		c-0.221,0-0.494-0.21-0.756-0.567c-0.178-0.242-0.273-0.483-0.273-0.662c0-0.063,0.011-0.116,0.074-0.21
		c0.168,0.388,0.525,0.609,0.977,0.609c0.357,0,1.144-0.115,2.992-0.431c0.924-0.157,0.998-0.178,1.218-0.294
		c0.126-0.073,0.126-0.073,0.21-0.073c0.157,0,0.451,0.189,0.766,0.483c0.221,0.21,0.326,0.378,0.326,0.515
		c0,0.084-0.031,0.147-0.147,0.273c-0.137,0.136-0.179,0.21-0.368,0.577c-0.85,1.712-1.911,3.192-3.024,4.242
		c-0.661,0.62-1.271,1.061-2.163,1.564L112.834,193.932z M120.583,186.005c0,0.588-0.473,1.061-1.05,1.061
		c-0.577,0-1.05-0.473-1.05-1.061c0-0.578,0.473-1.05,1.05-1.05C120.111,184.955,120.583,185.427,120.583,186.005z M118.798,186.005
		c0,0.409,0.326,0.745,0.735,0.745c0.41,0,0.735-0.336,0.735-0.745c0-0.41-0.326-0.735-0.735-0.735
		C119.124,185.27,118.798,185.595,118.798,186.005z"/>
	<path d="M122.537,187.002c0.304,0,0.567,0.105,1.187,0.472c0.378-0.01,1.648-0.126,3.276-0.294c0.914-0.105,1.029-0.126,1.218-0.21
		c0.095-0.053,0.126-0.063,0.179-0.063c0.126,0,0.315,0.126,0.546,0.357c0.242,0.242,0.347,0.399,0.347,0.525
		c0,0.074-0.021,0.116-0.084,0.2c-0.105,0.136-0.147,0.241-0.252,0.578c-0.105,0.346-0.157,0.577-0.441,1.774
		c-0.189,0.819-0.189,0.819-0.262,1.082c0.357,0.157,0.525,0.336,0.525,0.535c0,0.126-0.084,0.221-0.2,0.221
		c-0.073,0-0.073,0-0.514-0.074c-0.263-0.031-0.893-0.063-1.491-0.063c-0.819,0-1.501,0.042-2.415,0.158
		c0.011,0.263,0.011,0.273,0.011,0.389c0,0.283-0.053,0.378-0.231,0.378c-0.168,0-0.315-0.147-0.473-0.473
		c-0.095-0.189-0.147-0.368-0.147-0.483c0-0.053,0-0.074,0.042-0.21c0.021-0.095,0.031-0.41,0.031-0.84
		c0-1.228-0.157-2.667-0.336-3.139c-0.136-0.357-0.346-0.578-0.724-0.756C122.421,187.013,122.453,187.002,122.537,187.002z
		 M124.122,191.696c0.788-0.032,2.866-0.179,3.465-0.242c0.242-1.082,0.546-2.898,0.651-3.875c-0.136-0.01-0.189-0.01-0.283-0.01
		c-0.21,0-0.756,0.042-2.069,0.136c-1.134,0.095-1.491,0.137-2.037,0.221C123.901,188.997,124.027,190.75,124.122,191.696z"/>
	<path d="M133.005,190.268c0.756-0.63,1.459-1.449,2.205-2.562c0.431-0.64,0.693-1.187,0.693-1.417c0-0.136-0.042-0.22-0.199-0.357
		c-0.126-0.126-0.126-0.126-0.252-0.189c-0.116-0.063-0.116-0.063-0.189-0.105c0.095-0.042,0.137-0.053,0.2-0.053
		c0.221,0,0.578,0.116,0.861,0.284c0.336,0.189,0.494,0.368,0.494,0.536c0,0.126-0.01,0.136-0.567,0.945
		c0.136,0.042,0.199,0.053,0.283,0.053c0.2,0,0.704-0.084,1.25-0.221c0.441-0.105,0.609-0.158,0.83-0.284
		c0.084-0.052,0.116-0.063,0.179-0.063c0.252,0,0.851,0.546,0.851,0.777c0,0.084-0.042,0.147-0.158,0.262
		c-0.179,0.168-0.231,0.242-0.504,0.746c-0.924,1.743-1.816,2.877-3.098,3.958c-0.903,0.756-1.69,1.26-2.604,1.638l-0.073-0.147
		c0.84-0.525,1.47-1.029,2.32-1.88c1.271-1.271,2.257-2.688,2.867-4.158c0.105-0.231,0.168-0.452,0.168-0.536
		c0-0.042-0.032-0.073-0.095-0.073c-0.157,0-0.809,0.157-1.333,0.336c-0.189,0.063-0.252,0.073-0.346,0.073
		c-0.221,0-0.441-0.105-0.651-0.304c-0.809,1.155-1.869,2.163-3.024,2.877L133.005,190.268z M138.801,185.364
		c0.588,0.22,0.966,0.42,1.323,0.693c0.241,0.189,0.357,0.399,0.357,0.662c0,0.315-0.095,0.504-0.252,0.504
		c-0.105,0-0.147-0.042-0.315-0.336c-0.284-0.515-0.662-0.956-1.187-1.407L138.801,185.364z M139.725,184.755
		c0.63,0.157,1.061,0.346,1.407,0.588c0.21,0.147,0.305,0.336,0.305,0.599c0,0.294-0.074,0.451-0.221,0.451
		c-0.105,0-0.147-0.042-0.315-0.315c-0.305-0.462-0.651-0.798-1.25-1.208L139.725,184.755z"/>
	<path d="M145.069,193.922c1.04-0.798,1.701-1.449,2.394-2.342c0.851-1.082,1.48-2.226,1.764-3.203
		c-1.019,0.074-1.963,0.221-3.056,0.483c-0.662,0.157-0.872,0.22-1.092,0.325c-0.168,0.084-0.21,0.095-0.315,0.095
		c-0.368,0-0.966-0.756-0.966-1.218c0-0.073,0.011-0.105,0.063-0.178c0.242,0.42,0.525,0.609,0.914,0.609
		c0.41,0,2.184-0.221,3.549-0.452c0.567-0.094,0.651-0.115,0.861-0.241c0.073-0.042,0.126-0.063,0.168-0.063
		c0.094,0,0.252,0.105,0.493,0.315c0.294,0.273,0.42,0.441,0.42,0.578c0,0.084-0.053,0.168-0.158,0.262
		c-0.147,0.105-0.21,0.2-0.389,0.546c-1.134,2.142-2.824,3.843-4.557,4.61L145.069,193.922z M144.933,185.795
		c0.357,0.409,0.672,0.567,1.124,0.567c0.703,0,1.974-0.273,2.373-0.504c0.084-0.042,0.137-0.063,0.221-0.063
		c0.294,0,0.819,0.367,0.819,0.577c0,0.126-0.094,0.189-0.399,0.231c-1.25,0.189-2.11,0.273-2.677,0.273
		c-0.788,0-1.103-0.199-1.606-0.987L144.933,185.795z"/>
	<path d="M158.698,189.134c1.585,1.323,2.457,2.415,2.457,3.097c0,0.42-0.231,0.851-0.451,0.851c-0.084,0-0.158-0.052-0.2-0.157
		c-0.031-0.074-0.031-0.074-0.158-0.504c-0.094-0.284-0.136-0.41-0.252-0.662c-0.829,0.21-2.352,0.535-3.917,0.819
		c-0.903,0.179-1.134,0.231-1.313,0.347c-0.094,0.063-0.168,0.084-0.241,0.084c-0.168,0-0.315-0.105-0.483-0.336
		c-0.294-0.41-0.462-0.777-0.462-1.04c0-0.095,0.011-0.158,0.074-0.284c0.263,0.557,0.473,0.714,0.956,0.714
		c0.042,0,0.105,0,0.262-0.021c0.294-0.588,0.903-1.995,1.344-3.129c0.504-1.302,0.725-2.016,0.725-2.31
		c0-0.273-0.2-0.493-0.62-0.672c0.105-0.063,0.168-0.084,0.284-0.084c0.241,0,0.598,0.137,0.913,0.347
		c0.326,0.21,0.494,0.409,0.494,0.567c0,0.105-0.01,0.126-0.157,0.315c-0.095,0.116-0.273,0.452-0.483,0.872
		c-0.745,1.512-1.585,3.097-2.163,4.084c1.375-0.095,3.465-0.347,4.672-0.546c-0.158-0.347-0.305-0.62-0.63-1.145
		c-0.168-0.273-0.231-0.357-0.788-1.103L158.698,189.134z"/>
	<path d="M65.212,205.356c-1.407,1.386-1.932,1.785-3.234,2.583l-0.189-0.273c1.323-1.134,2.205-2.163,3.507-4.074
		c0.924-1.323,1.365-2.142,1.806-3.234c0.462,0.189,0.798,0.336,1.008,0.42c0.903,0.357,1.092,0.462,1.092,0.63
		c0,0.189-0.273,0.294-0.798,0.294c-0.021,0-0.084,0-0.147-0.021c-0.924,1.302-1.449,1.974-2.331,2.94
		c1.134,0.252,1.386,0.336,1.386,0.525c0,0.147-0.084,0.189-0.672,0.378v3.591c0,1.113,0,1.113,0.021,3.864c0,0.273,0,0.546,0,0.672
		c0,0.231,0,0.483,0,0.861c-0.021,0.168-0.063,0.189-0.252,0.231c-0.294,0.042-0.63,0.084-0.861,0.084
		c-0.357,0-0.462-0.042-0.462-0.189c0-0.021,0-0.063,0-0.105c0.042-0.546,0.084-2.247,0.126-5.103V205.356z M62.229,201.766
		c1.092-0.987,1.995-1.995,3.087-3.486c0.588-0.777,0.966-1.386,1.533-2.415c1.134,0.483,1.722,0.777,1.911,0.924
		c0.021,0.021,0.063,0.084,0.105,0.21c0,0.126-0.21,0.231-0.441,0.231c-0.126,0-0.294-0.021-0.483-0.021
		c-1.764,2.121-3.402,3.57-5.502,4.809L62.229,201.766z M70.482,203.277c-0.588,0-0.987,0.042-1.848,0.147l-0.168-0.84
		c0.903,0.189,1.197,0.21,2.016,0.21h7.812c0.546-0.672,0.714-0.861,1.26-1.491c0.84,0.693,1.071,0.924,1.848,1.68
		c0.063,0.084,0.084,0.126,0.084,0.147c0,0.084-0.105,0.147-0.189,0.147h-4.2v4.2c0,1.89,0,2.94,0.042,5.586
		c0,0.084,0,0.168,0,0.189c0,0.462-0.189,0.735-0.672,1.029c-0.441,0.252-0.924,0.399-1.953,0.588
		c-0.042-0.672-0.21-0.924-0.714-1.155c-0.21-0.084-0.546-0.168-1.155-0.252l-1.407-0.21v-0.357c1.617,0.105,2.247,0.147,3.99,0.189
		c0.294-0.021,0.357-0.063,0.357-0.294v-9.513H70.482z M69.391,197.313c0.735,0.147,1.302,0.21,2.1,0.21h5.523
		c0.483-0.63,0.63-0.819,1.134-1.407c0.84,0.63,1.092,0.84,1.932,1.575c0.042,0.063,0.063,0.105,0.063,0.147
		c0,0.084-0.126,0.168-0.252,0.168h-8.4c-0.756,0-1.134,0.021-1.953,0.147L69.391,197.313z"/>
	<path d="M89.362,208.38c0.042-1.239,0.084-3.066,0.084-4.62c0-0.588,0-0.588-0.084-2.457c0.672,0.357,0.882,0.462,1.533,0.819
		h2.373v-1.68h-3.381c-0.42,0-0.756,0.021-1.449,0.105l-0.147-0.735c0.483,0.084,1.218,0.147,1.596,0.147h3.381v-1.722
		c-1.554,0.231-2.835,0.357-4.536,0.462l-0.042-0.294c1.512-0.231,3.297-0.63,5.145-1.155c1.743-0.483,2.646-0.84,3.465-1.302
		c0.525,0.273,1.071,0.588,1.407,0.777c0.42,0.252,0.441,0.273,0.441,0.378s-0.147,0.189-0.378,0.189
		c-0.105,0-0.315-0.021-0.882-0.063c-1.239,0.336-2.058,0.525-3.381,0.777v1.953h2.478c0.399-0.483,0.525-0.609,0.966-1.071
		c0.714,0.546,0.945,0.714,1.617,1.26c0.063,0.063,0.105,0.126,0.105,0.168c0,0.084-0.105,0.126-0.273,0.126h-4.893v1.68h2.457
		c0.315-0.357,0.42-0.462,0.735-0.819c0.441,0.336,0.588,0.462,1.029,0.819c0.168,0.147,0.231,0.21,0.231,0.273
		c0,0.105-0.021,0.126-0.546,0.504c-0.021,2.31-0.021,2.31-0.021,2.94c0,0.546,0.021,1.134,0.042,2.226
		c0,0.294-0.231,0.399-0.903,0.399c-0.252,0-0.399-0.084-0.399-0.252c0-0.021,0-0.042,0-0.063v-0.252h-2.625v2.079h2.016
		c0.441-0.462,0.588-0.609,0.987-1.05c0.672,0.525,0.882,0.693,1.533,1.218c0.063,0.084,0.084,0.126,0.084,0.168
		c0,0.084-0.084,0.147-0.189,0.147h-4.431v1.68c1.554-0.168,2.394-0.273,4.053-0.504l0.042,0.252
		c-2.541,0.672-3.57,0.903-4.746,1.155c-3.675,0.735-3.675,0.735-4.431,0.903c-0.147,0.567-0.231,0.756-0.378,0.756
		c-0.21,0-0.378-0.462-0.777-2.079c1.344-0.042,2.856-0.147,4.998-0.357v-1.806h-3.402c-0.441,0-0.693,0.021-1.197,0.105
		l-0.147-0.714c0.504,0.084,0.861,0.126,1.449,0.126h3.297v-2.079h-2.52v0.399c0,0.189-0.042,0.252-0.21,0.294
		c-0.105,0.042-0.546,0.084-0.798,0.084c-0.294,0-0.378-0.063-0.378-0.252V208.38z M93.268,202.605h-2.52v2.121h2.52V202.605z
		 M93.268,205.209h-2.52v2.205h2.52V205.209z M97.132,202.605h-2.625v2.121h2.625V202.605z M97.132,205.209h-2.625v2.205h2.625
		V205.209z M105.322,201.493c0.336-0.378,0.441-0.483,0.777-0.861c0.546,0.357,0.693,0.483,1.176,0.861
		c0.168,0.147,0.21,0.21,0.21,0.315s-0.147,0.231-0.63,0.651c-0.189,5.124-0.483,8.316-0.924,9.975
		c-0.273,1.029-0.504,1.428-1.071,1.764c-0.462,0.294-0.882,0.441-1.806,0.588c-0.294-0.756-0.315-0.819-0.609-0.966
		c-0.378-0.21-0.882-0.357-1.995-0.567v-0.294c1.134,0.084,2.625,0.168,3.024,0.168c0.609,0,0.882-0.147,1.008-0.546
		c0.546-1.617,0.882-5.313,0.987-10.605h-2.394c-0.21,3.402-0.672,5.859-1.47,7.644c-0.735,1.68-1.932,3.108-3.507,4.2
		c-0.777,0.567-1.323,0.84-2.541,1.302l-0.168-0.252c1.785-0.987,2.814-1.848,3.822-3.192c1.596-2.184,2.268-4.746,2.541-9.702
		h-1.113c-0.378,0-0.693,0.021-1.344,0.126l-0.21-0.756c0.714,0.105,1.197,0.147,1.701,0.147h0.987
		c0.063-1.134,0.084-2.037,0.084-2.877c0-1.029-0.021-1.407-0.084-2.31c1.596,0.105,2.31,0.231,2.31,0.441c0,0.021,0,0.021,0,0.021
		c-0.021,0.189-0.126,0.252-0.861,0.588c-0.042,2.016-0.042,2.499-0.126,4.137H105.322z"/>
	<path d="M114.625,199.75c0.567,0.105,1.239,0.168,1.827,0.168h4.536c0.504-0.567,0.672-0.756,1.176-1.302
		c0.777,0.63,1.008,0.84,1.722,1.491c0.063,0.063,0.084,0.126,0.084,0.147c0,0.063-0.084,0.147-0.147,0.147h-7.476
		c-0.735,0-1.008,0.021-1.596,0.105L114.625,199.75z M115.507,202.563c0.672,0.126,1.092,0.168,1.638,0.168h2.709
		c0.462-0.504,0.588-0.672,1.05-1.155c0.714,0.525,0.924,0.714,1.575,1.323c0.063,0.063,0.084,0.147,0.084,0.189
		c0,0.063-0.084,0.126-0.168,0.126h-5.25c-0.63,0-0.903,0.021-1.512,0.063L115.507,202.563z M115.57,196.894
		c0.462,0.084,1.134,0.147,1.575,0.147h2.898c0.504-0.567,0.651-0.735,1.176-1.239c0.735,0.588,0.966,0.777,1.701,1.365
		c0.084,0.105,0.126,0.168,0.126,0.21c0,0.084-0.084,0.147-0.21,0.147h-5.691c-0.63,0-0.903,0.021-1.449,0.084L115.57,196.894z
		 M115.57,205.44c0.546,0.126,0.882,0.147,1.575,0.147h2.751c0.462-0.546,0.609-0.714,1.071-1.26
		c0.672,0.588,0.882,0.777,1.512,1.386c0.084,0.105,0.126,0.168,0.126,0.21c0,0.084-0.084,0.147-0.168,0.147h-5.292
		c-0.483,0-0.819,0.021-1.47,0.084L115.57,205.44z M117.124,214.407c0,0.336-0.189,0.399-1.092,0.399
		c-0.252,0-0.336-0.063-0.357-0.273c0.042-1.05,0.084-3.633,0.084-5.565c0-0.609-0.021-0.882-0.084-1.596
		c0.714,0.441,0.924,0.588,1.617,1.092h3.003c0.294-0.336,0.609-0.672,0.903-1.008l1.26,1.008c0.021,0.063,0.042,0.105,0.042,0.126
		c0.021,0.063,0.042,0.105,0.042,0.147c0,0.126-0.231,0.378-0.651,0.672c0,0.252,0,0.42,0,0.588c0,1.554,0.021,3.507,0.063,4.158
		c-0.021,0.189-0.063,0.273-0.231,0.315s-0.609,0.084-0.861,0.084c-0.231,0-0.336-0.084-0.357-0.273v-0.903h-3.381V214.407z
		 M117.124,212.896h3.381v-3.948h-3.381V212.896z M130.773,203.214c0.546-0.714,0.735-0.924,1.365-1.596
		c0.819,0.672,1.071,0.882,1.827,1.596c0.084,0.105,0.126,0.21,0.126,0.273c0,0.105-0.126,0.189-0.252,0.189h-5.187
		c0,5.859,0,6.657,0.126,10.731c-0.021,0.168-0.063,0.252-0.189,0.294c-0.147,0.063-0.672,0.126-1.071,0.126
		c-0.294,0-0.399-0.063-0.399-0.294c0.063-2.478,0.105-5.691,0.105-9.492c0-0.168,0-0.777-0.021-1.365h-2.583
		c-0.777,0-1.05,0.021-1.701,0.105l-0.126-0.756c0.567,0.126,1.197,0.189,1.827,0.189h2.583c-0.021-5.922-0.021-6.153-0.168-7.056
		c0.483,0.042,0.861,0.063,1.092,0.084c1.113,0.084,1.449,0.168,1.449,0.378c0,0.189-0.105,0.252-0.924,0.546
		c0,2.478,0,2.478,0,6.048H130.773z"/>
	<path d="M146.586,210.396v1.197c-0.021,0.168-0.063,0.231-0.21,0.252c-0.21,0.042-0.588,0.084-0.882,0.084
		s-0.378-0.063-0.378-0.273c0,0,0-0.042,0-0.063c0.063-2.499,0.063-2.499,0.063-9.429c0-0.903-0.021-1.218-0.063-2.016
		c0.735,0.357,0.966,0.483,1.659,0.882h2.625v-3.465h-6.048c-1.029,0-1.596,0.021-2.394,0.126l-0.105-0.798
		c0.882,0.168,1.176,0.189,2.499,0.189h12.915c0.588-0.735,0.756-0.945,1.365-1.659c0.924,0.735,1.197,0.987,2.079,1.806
		c0.063,0.063,0.105,0.147,0.105,0.189c0,0.084-0.105,0.147-0.273,0.147h-8.757v3.465h2.856c0.315-0.378,0.42-0.504,0.735-0.882
		c0.546,0.399,0.714,0.525,1.176,0.882c0.126,0.084,0.189,0.168,0.189,0.231c0,0.147-0.105,0.231-0.567,0.525
		c0,6.678,0,6.678,0.042,9.534c0,0.147-0.042,0.189-0.147,0.231c-0.126,0.063-0.588,0.126-0.966,0.126
		c-0.21,0-0.294-0.063-0.294-0.231v-1.05H146.586z M141.421,205.356c0-1.239,0-1.407,0-1.911c0-0.21,0-0.378,0-0.441
		c0-1.05-0.042-1.974-0.084-2.583c1.827,0.273,2.226,0.378,2.226,0.588c0,0.147-0.168,0.273-0.651,0.504v11.718h14.616v-11.214
		c0-0.441-0.021-0.819-0.063-1.701c2.247,0.336,2.331,0.357,2.331,0.567c0,0.168-0.147,0.273-0.756,0.567v7.287
		c0,2.793,0,3.486,0.084,5.733c0,0.021,0,0.042,0,0.063c0,0.126-0.042,0.189-0.147,0.252c-0.126,0.063-0.672,0.126-1.092,0.126
		c-0.252,0-0.357-0.084-0.357-0.315v-0.882h-14.616v0.882c0,0.021,0,0.042,0,0.042c0,0.231-0.336,0.336-1.092,0.336
		c-0.378,0-0.441-0.042-0.462-0.273c0.063-3.969,0.063-4.011,0.063-7.455V205.356z M149.401,201.514h-2.814v3.78h2.814V201.514z
		 M149.401,205.755h-2.814v4.2h2.814V205.755z M153.811,201.514h-3.024v3.78h3.024V201.514z M153.811,205.755h-3.024v4.2h3.024
		V205.755z"/>
</g>
<rect x="59.945" y="155.525" fill="none" stroke="#008CD6" stroke-width="0.5" width="21" height="21"/>
<rect x="86.195" y="155.525" fill="none" stroke="#008CD6" stroke-width="0.5" width="21" height="21"/>
<rect x="112.445" y="155.525" fill="none" stroke="#008CD6" stroke-width="0.5" width="21" height="21"/>
<rect x="138.695" y="155.525" fill="none" stroke="#008CD6" stroke-width="0.5" width="21" height="21"/>
<rect x="57.32" y="145.025" fill="none" stroke="#008CD6" stroke-width="0.5" width="105" height="10.5"/>
<line fill="none" stroke="#008CD6" stroke-width="0.5" x1="67.82" y1="155.525" x2="67.82" y2="145.025"/>
<line fill="none" stroke="#008CD6" stroke-width="0.5" x1="78.32" y1="155.525" x2="78.32" y2="145.025"/>
<line fill="none" stroke="#008CD6" stroke-width="0.5" x1="88.82" y1="155.525" x2="88.82" y2="145.025"/>
<line fill="none" stroke="#008CD6" stroke-width="0.5" x1="99.32" y1="155.525" x2="99.32" y2="145.025"/>
<line fill="none" stroke="#008CD6" stroke-width="0.5" x1="109.82" y1="155.525" x2="109.82" y2="145.025"/>
<line fill="none" stroke="#008CD6" stroke-width="0.5" x1="120.32" y1="155.525" x2="120.32" y2="145.025"/>
<line fill="none" stroke="#008CD6" stroke-width="0.5" x1="130.82" y1="155.525" x2="130.82" y2="145.025"/>
<line fill="none" stroke="#008CD6" stroke-width="0.5" x1="141.32" y1="155.525" x2="141.32" y2="145.025"/>
<line fill="none" stroke="#008CD6" stroke-width="0.5" x1="151.82" y1="155.525" x2="151.82" y2="145.025"/>
<g>
	<path d="M69.624,4.694c0.777-0.651,1.47-1.47,2.205-2.573c0.431-0.651,0.693-1.187,0.693-1.417c0-0.136-0.042-0.22-0.199-0.357
		c-0.137-0.116-0.137-0.116-0.252-0.189c-0.116-0.053-0.116-0.053-0.189-0.095C71.976,0.011,72.018,0,72.081,0
		c0.231,0,0.578,0.116,0.861,0.284c0.336,0.189,0.494,0.368,0.494,0.536c0,0.126-0.01,0.136-0.567,0.956
		c0.136,0.031,0.199,0.042,0.273,0.042c0.21,0,0.725-0.084,1.26-0.21c0.431-0.105,0.609-0.168,0.83-0.284
		c0.084-0.053,0.116-0.063,0.179-0.063c0.252,0,0.851,0.546,0.851,0.777c0,0.095-0.032,0.147-0.158,0.263
		c-0.178,0.157-0.231,0.241-0.504,0.746c-0.924,1.732-1.816,2.877-3.098,3.948c-0.903,0.767-1.69,1.26-2.604,1.638l-0.073-0.147
		c0.84-0.515,1.47-1.029,2.32-1.88c1.271-1.26,2.257-2.688,2.867-4.158c0.105-0.231,0.168-0.452,0.168-0.536
		c0-0.042-0.032-0.073-0.095-0.073c-0.157,0-0.819,0.168-1.333,0.336c-0.189,0.063-0.252,0.073-0.346,0.073
		c-0.221,0-0.441-0.105-0.651-0.304c-0.808,1.155-1.879,2.173-3.024,2.877L69.624,4.694z"/>
	<path d="M81.563,8.547c1.04-0.798,1.701-1.449,2.394-2.342c0.851-1.082,1.48-2.226,1.764-3.202
		c-1.019,0.073-1.963,0.22-3.056,0.483c-0.662,0.157-0.872,0.22-1.092,0.325c-0.168,0.084-0.21,0.095-0.315,0.095
		c-0.368,0-0.966-0.756-0.966-1.218c0-0.073,0.011-0.105,0.063-0.178c0.242,0.42,0.525,0.609,0.914,0.609
		c0.41,0,2.184-0.221,3.549-0.452c0.567-0.094,0.651-0.115,0.861-0.241c0.073-0.042,0.126-0.063,0.168-0.063
		c0.094,0,0.252,0.105,0.493,0.315c0.294,0.273,0.42,0.441,0.42,0.578c0,0.084-0.053,0.168-0.158,0.262
		c-0.147,0.105-0.21,0.2-0.389,0.546c-1.134,2.142-2.824,3.843-4.557,4.61L81.563,8.547z M81.426,0.42
		c0.357,0.409,0.672,0.567,1.124,0.567c0.703,0,1.974-0.273,2.373-0.504c0.084-0.042,0.137-0.063,0.221-0.063
		c0.294,0,0.819,0.367,0.819,0.577c0,0.126-0.094,0.189-0.399,0.231c-1.25,0.189-2.11,0.273-2.677,0.273
		c-0.788,0-1.103-0.199-1.606-0.987L81.426,0.42z"/>
	<path d="M89.826,5.838c1.313-0.704,2.719-1.764,3.948-2.982c1.04-1.018,1.711-1.869,1.711-2.173c0-0.199-0.168-0.368-0.588-0.599
		c0.116-0.042,0.137-0.042,0.21-0.042c0.305,0,0.567,0.095,0.903,0.315c0.357,0.241,0.546,0.483,0.546,0.682
		c0,0.095-0.011,0.116-0.42,0.462c-0.105,0.084-0.105,0.084-0.851,0.798c-0.735,0.704-0.798,0.756-1.25,1.134
		c0.41,0.305,0.588,0.462,0.641,0.588c0.042,0.105,0.063,0.599,0.073,1.543c0.011,0.735,0.032,1.407,0.053,2.006
		c0,0.231,0.01,0.535,0.01,0.598c0,0.368-0.073,0.525-0.241,0.525c-0.242,0-0.714-0.578-0.714-0.882c0-0.073,0-0.073,0.063-0.273
		c0.095-0.262,0.189-1.564,0.189-2.583c0-0.514-0.021-0.83-0.063-0.998c-0.031-0.105-0.073-0.157-0.231-0.325
		c-0.735,0.588-1.491,1.124-2.016,1.438c-0.588,0.346-1.344,0.714-1.89,0.914L89.826,5.838z"/>
	<path d="M101.807,8.516c0.777-0.641,1.438-1.564,1.9-2.646c0.347-0.798,0.63-1.827,0.63-2.289c0-0.283-0.199-0.493-0.619-0.672
		c0.063-0.074,0.136-0.105,0.241-0.105c0.137,0,0.504,0.136,0.809,0.305c0.273,0.147,0.378,0.231,0.452,0.367
		c0.483-0.294,1.428-1.04,1.879-1.501c0.241-0.231,0.326-0.347,0.326-0.42c0-0.126-0.126-0.158-0.62-0.158
		c-0.693,0-2.489,0.284-3.623,0.578c-0.399,0.105-0.767,0.231-1.071,0.368c-0.063,0.031-0.168,0.052-0.242,0.052
		c-0.231,0-0.609-0.315-0.84-0.703c-0.116-0.2-0.2-0.441-0.2-0.567c0-0.073,0.021-0.147,0.074-0.241
		c0.189,0.43,0.525,0.63,1.039,0.63c0.378,0,0.567-0.021,2.531-0.273c0.094-0.011,0.326-0.042,0.725-0.084
		c1.627-0.189,1.711-0.21,1.932-0.315c0.063-0.021,0.084-0.032,0.137-0.032c0.116,0,0.305,0.105,0.557,0.305
		c0.451,0.346,0.756,0.704,0.756,0.882c0,0.158-0.063,0.2-0.378,0.284c-0.168,0.052-0.284,0.094-0.515,0.22
		c-0.872,0.494-1.344,0.735-2.478,1.271c-0.063,0.179-0.073,0.2-0.157,0.473c-0.473,1.438-0.882,2.257-1.512,3.003
		c-0.515,0.599-1.04,1.061-1.627,1.407L101.807,8.516z"/>
	<path d="M111.698,1.302c1.008,0.252,1.617,0.494,2.026,0.788c0.242,0.168,0.357,0.399,0.357,0.714c0,0.347-0.115,0.588-0.294,0.588
		c-0.116,0-0.168-0.052-0.452-0.42c-0.514-0.683-0.893-1.029-1.711-1.543L111.698,1.302z M119.163,1.901
		c-0.525,0.987-1.166,1.816-2.205,2.824c-0.966,0.935-1.617,1.459-2.95,2.394c-0.494,0.347-0.546,0.389-0.62,0.483
		c-0.168,0.2-0.231,0.252-0.368,0.252c-0.43,0-1.229-1.008-1.229-1.543c0-0.063,0.011-0.105,0.053-0.21
		c0.21,0.315,0.231,0.336,0.378,0.462c0.157,0.147,0.304,0.221,0.42,0.221c0.179,0,0.504-0.137,1.019-0.441
		c1.176-0.683,1.585-0.977,2.509-1.732c1.292-1.05,1.922-1.691,2.825-2.804L119.163,1.901z"/>
	<path d="M123.856,0.021c0.221,0,0.452,0.053,0.777,0.179c0.441,0.168,0.693,0.378,0.693,0.578c0,0.073,0,0.073-0.063,0.231
		c-0.126,0.283-0.189,1.071-0.189,2.289c0.788,0.073,1.827,0.325,2.446,0.588c0.473,0.22,0.651,0.431,0.651,0.809
		c0,0.304-0.094,0.483-0.252,0.483c-0.105,0-0.115,0-0.388-0.252c-0.693-0.641-1.501-1.082-2.468-1.365
		c0.011,0.662,0.011,0.987,0.011,1.302c0,0.273,0,0.399,0,0.63c0,0.473,0,0.63,0,0.903c0,0.315,0,0.315,0.021,1.197
		c0.01,0.22,0.01,0.399,0.01,0.556c0,0.2-0.01,0.294-0.052,0.357c-0.032,0.052-0.116,0.094-0.189,0.094
		c-0.252,0-0.672-0.567-0.672-0.914c0-0.105,0.011-0.168,0.053-0.294c0.158-0.504,0.221-1.869,0.221-4.546
		c0-0.756-0.032-1.522-0.074-1.806c-0.063-0.472-0.294-0.735-0.798-0.935C123.72,0.032,123.762,0.021,123.856,0.021z"/>
	<path d="M76.354,17.063c-0.042,2.604-0.189,4.41-0.462,5.943c-0.252,1.47-0.693,3.066-1.218,4.389
		c-0.231,0.609-0.441,1.029-0.945,1.911l-0.315-0.126c0.735-1.848,1.092-3.444,1.365-6.09c0.21-1.995,0.273-3.78,0.273-8.484
		c0-0.609,0-0.882-0.042-1.617c0.714,0.399,0.945,0.525,1.68,0.966h4.956c0.315-0.378,0.42-0.483,0.756-0.819
		c0.525,0.357,0.672,0.483,1.092,0.819c0.105,0.105,0.147,0.189,0.147,0.252c0,0.147-0.147,0.273-0.567,0.483v0.903
		c0,0.189,0,0.336,0,0.378c0,0.273,0,0.609,0.021,1.281c-0.042,0.273-0.21,0.315-1.008,0.315c-0.21,0-0.273-0.042-0.294-0.21v-0.294
		H76.354z M74.128,11.561c0.714,0.147,1.134,0.21,1.554,0.21h5.502c0.441-0.567,0.567-0.735,1.029-1.239
		c0.714,0.567,0.924,0.756,1.617,1.407c0.042,0.042,0.084,0.126,0.084,0.147c0,0.063-0.084,0.168-0.126,0.168h-8.106
		c-0.441,0-1.029,0.063-1.449,0.147L74.128,11.561z M81.835,27.668c0.336-0.42,0.441-0.546,0.798-0.945
		c0.504,0.483,0.672,0.63,1.134,1.134c0.042,0.063,0.063,0.105,0.063,0.147c0,0.063-0.105,0.147-0.21,0.147h-5.523v1.029
		c-0.042,0.252-0.147,0.294-0.651,0.294c-0.084,0-0.168,0-0.21,0c-0.021,0-0.042,0-0.063,0c-0.189,0-0.273-0.063-0.273-0.252
		c0.063-2.541,0.105-4.011,0.105-4.41v-3.108c-0.252,0.315-0.378,0.462-0.819,0.924l-0.189-0.231c0.882-1.344,1.638-3.024,2.1-4.746
		c1.428,0.462,1.68,0.567,1.68,0.735c0,0.147-0.084,0.189-0.777,0.315c-0.42,0.672-0.504,0.819-0.861,1.386h1.617
		c0.525-0.84,0.756-1.365,1.029-2.331c1.386,0.462,1.575,0.546,1.575,0.714c0,0.147-0.231,0.231-0.756,0.273
		c-0.987,0.924-1.113,1.05-1.491,1.344h1.68c0.315-0.42,0.42-0.546,0.756-0.924c0.567,0.462,0.714,0.609,1.197,1.092
		c0.042,0.084,0.084,0.147,0.084,0.189c0,0.084-0.084,0.126-0.21,0.126h-2.562v1.827h0.714c0.336-0.441,0.441-0.567,0.798-0.966
		c0.483,0.525,0.651,0.672,1.113,1.176c0.042,0.063,0.063,0.105,0.063,0.147c0,0.063-0.105,0.126-0.252,0.126h-2.436v2.016h0.714
		c0.357-0.378,0.462-0.483,0.777-0.882c0.504,0.462,0.651,0.609,1.113,1.092c0.063,0.063,0.084,0.126,0.084,0.168
		c0,0.063-0.084,0.105-0.231,0.105h-2.457v2.289H81.835z M81.793,14.438h-5.418c0,1.197,0,1.554,0,2.142h5.418V14.438z
		 M79.925,22.397V20.57h-1.827v1.827H79.925z M79.925,24.896V22.88h-1.827v2.016H79.925z M79.925,25.379h-1.827v2.289h1.827V25.379z
		 M81.793,29.474c1.26-0.651,2.142-1.26,3.171-2.205c0.399-0.378,0.462-0.441,1.302-1.428c0.357,0.147,0.651,0.252,0.84,0.336
		c0.84,0.315,1.029,0.42,1.029,0.546c0,0.168-0.189,0.21-0.924,0.231c-2.646,1.848-3.108,2.1-5.271,2.793L81.793,29.474z
		 M89.228,12.254c-0.84,1.659-0.882,1.764-1.554,2.751h2.793c0.357-0.42,0.462-0.546,0.84-0.945c0.525,0.42,0.693,0.546,1.176,0.945
		c0.168,0.105,0.231,0.21,0.231,0.294c0,0.126,0,0.126-0.651,0.483c0,0.693,0,1.113,0,1.554c0,0.42,0.042,6.237,0.063,7.812
		c-0.042,0.294-0.168,0.336-0.924,0.336c-0.357,0-0.42-0.042-0.462-0.231v-0.525h-4.851v0.651c-0.063,0.189-0.189,0.231-0.735,0.231
		c-0.126,0-0.21,0.021-0.273,0.021c-0.021,0-0.042,0-0.042,0c-0.21,0-0.294-0.063-0.315-0.273l0.021-1.743l0.021-3.528
		c0-4.473,0-4.872-0.063-5.922c0.63,0.357,0.819,0.462,1.386,0.84h1.26c0.042-0.315,0.063-0.462,0.105-0.651
		c0.273-1.365,0.273-1.365,0.336-2.1h-2.058c-0.378,0-0.84,0.063-1.218,0.147l-0.126-0.84c0.42,0.147,0.882,0.21,1.344,0.21h4.809
		c0.441-0.63,0.588-0.798,1.092-1.344c0.84,0.609,1.092,0.798,1.911,1.491c0.063,0.084,0.105,0.126,0.105,0.168
		c0,0.084-0.105,0.168-0.231,0.168H89.228z M90.74,15.488h-4.851v2.394h4.851V15.488z M85.889,18.365v2.604h4.851v-2.604H85.889z
		 M85.889,21.452v2.793h4.851v-2.793H85.889z M88.934,25.652c1.785,0.693,3.024,1.26,3.633,1.701
		c0.315,0.252,0.567,0.693,0.567,1.029c0,0.63-0.231,1.218-0.462,1.218c-0.168,0-0.21-0.063-0.651-0.672
		c-0.126-0.168-1.113-1.26-1.365-1.512c-0.126-0.126-0.735-0.63-1.848-1.533L88.934,25.652z"/>
	<path d="M117.809,15.929c0.336-0.42,0.441-0.546,0.798-0.945c0.672,0.525,0.882,0.693,1.533,1.281
		c0.189,0.147,0.273,0.252,0.273,0.357c0,0.147-0.252,0.21-1.26,0.252c-1.071,1.302-1.806,1.995-3.129,2.982
		c1.113,0.567,2.058,0.924,3.297,1.281c1.848,0.525,3.234,0.735,5.25,0.84v0.315c-0.861,0.168-1.092,0.378-1.617,1.428
		c-1.323-0.315-1.89-0.504-3.339-1.029c0.462,0.462,0.483,0.462,0.882,0.84c0.126,0.147,0.189,0.231,0.189,0.315
		c0,0.021-0.042,0.084-0.063,0.105c-0.042,0.021-0.126,0.084-0.231,0.126c-0.042,0.021-0.126,0.063-0.21,0.105
		c0,0.966,0,0.966,0.021,2.751c0.021,1.155,0.021,1.155,0.042,2.247c0,0.042,0.021,0.105,0.021,0.126
		c0,0.147-0.063,0.231-0.21,0.273c-0.21,0.063-0.567,0.105-0.861,0.105c-0.315,0-0.378-0.063-0.378-0.357c0,0,0-0.021,0-0.042v-0.84
		h-7.917v0.735c0,0.357-0.189,0.462-0.84,0.462c-0.462,0-0.609-0.084-0.609-0.357v-0.042c0.021-0.735,0.021-0.735,0.021-1.806
		c0.021-0.567,0.021-0.567,0.042-1.911V23.3c-1.554,0.567-2.352,0.819-3.927,1.113l-0.126-0.294
		c3.192-1.071,6.258-2.583,8.715-4.305c-0.882-0.714-1.911-1.701-2.541-2.478c-0.504,0.525-1.071,1.029-1.722,1.554
		c-1.47,1.176-2.436,1.764-3.717,2.247l-0.147-0.231c1.974-1.512,2.898-2.31,3.927-3.486c1.176-1.281,1.848-2.289,2.268-3.339
		c2.058,0.42,2.226,0.462,2.226,0.651c0,0.21-0.294,0.336-1.092,0.462c-0.252,0.357-0.357,0.504-0.525,0.735H117.809z
		 M114.197,13.262v-1.449c0-0.483-0.021-0.777-0.063-1.386c1.701,0.168,1.974,0.21,2.184,0.273c0.168,0.063,0.273,0.147,0.273,0.273
		c0,0.231-0.273,0.378-0.903,0.504v1.785h5.88c0.42-0.483,0.546-0.651,0.966-1.155l1.911,1.386c0.126,0.105,0.189,0.189,0.189,0.273
		c0,0.063-0.105,0.147-0.189,0.168c0,0-0.42,0.084-1.26,0.21c-1.302,1.491-1.365,1.554-2.037,2.058l-0.21-0.126
		c0.399-1.008,0.504-1.365,0.735-2.331h-13.377c-0.126,1.05-0.315,1.785-0.63,2.352c-0.273,0.483-0.924,0.987-1.281,0.987
		c-0.126,0-0.357-0.168-0.462-0.357c-0.105-0.147-0.168-0.546-0.168-0.882c0-0.273,0-0.294,0.504-0.63
		c0.294-0.21,0.756-0.756,0.987-1.176c0.399-0.756,0.588-1.323,0.714-2.226h0.378c0.021,0.336,0.042,0.567,0.042,0.756
		s-0.021,0.378-0.042,0.693H114.197z M118.648,23.363c0.357-0.315,0.357-0.315,0.84-0.714c-2.037-0.777-3.087-1.302-4.389-2.163
		c-1.407,0.924-2.772,1.617-4.662,2.436c0.189,0.147,0.252,0.21,0.462,0.441H118.648z M110.899,27.962h7.917v-4.116h-7.917V27.962z
		 M112.454,16.412c-0.21,0.252-0.273,0.336-0.483,0.567c0.525,0.672,1.596,1.491,2.94,2.268c1.134-0.903,1.806-1.575,2.793-2.835
		H112.454z"/>
</g>
<g>
	<path d="M69.624,44.069c0.777-0.651,1.47-1.47,2.205-2.573c0.431-0.651,0.693-1.187,0.693-1.417c0-0.136-0.042-0.22-0.199-0.357
		c-0.137-0.116-0.137-0.116-0.252-0.189c-0.116-0.053-0.116-0.053-0.189-0.095c0.095-0.052,0.137-0.063,0.2-0.063
		c0.231,0,0.578,0.116,0.861,0.284c0.336,0.189,0.494,0.368,0.494,0.536c0,0.126-0.01,0.136-0.567,0.956
		c0.136,0.031,0.199,0.042,0.273,0.042c0.21,0,0.725-0.084,1.26-0.21c0.431-0.105,0.609-0.168,0.83-0.284
		c0.084-0.053,0.116-0.063,0.179-0.063c0.252,0,0.851,0.546,0.851,0.777c0,0.095-0.032,0.147-0.158,0.263
		c-0.178,0.157-0.231,0.241-0.504,0.746c-0.924,1.732-1.816,2.877-3.098,3.948c-0.903,0.767-1.69,1.26-2.604,1.638l-0.073-0.147
		c0.84-0.515,1.47-1.029,2.32-1.88c1.271-1.26,2.257-2.688,2.867-4.158c0.105-0.231,0.168-0.452,0.168-0.536
		c0-0.042-0.032-0.073-0.095-0.073c-0.157,0-0.819,0.168-1.333,0.336c-0.189,0.063-0.252,0.073-0.346,0.073
		c-0.221,0-0.441-0.105-0.651-0.304c-0.808,1.155-1.879,2.173-3.024,2.877L69.624,44.069z"/>
	<path d="M81.563,47.922c1.04-0.798,1.701-1.449,2.394-2.342c0.851-1.082,1.48-2.226,1.764-3.202
		c-1.019,0.073-1.963,0.22-3.056,0.483c-0.662,0.157-0.872,0.22-1.092,0.325c-0.168,0.084-0.21,0.095-0.315,0.095
		c-0.368,0-0.966-0.756-0.966-1.218c0-0.073,0.011-0.105,0.063-0.178c0.242,0.42,0.525,0.609,0.914,0.609
		c0.41,0,2.184-0.221,3.549-0.452c0.567-0.094,0.651-0.115,0.861-0.241c0.073-0.042,0.126-0.063,0.168-0.063
		c0.094,0,0.252,0.105,0.493,0.315c0.294,0.273,0.42,0.441,0.42,0.578c0,0.084-0.053,0.168-0.158,0.262
		c-0.147,0.105-0.21,0.2-0.389,0.546c-1.134,2.142-2.824,3.843-4.557,4.61L81.563,47.922z M81.426,39.795
		c0.357,0.409,0.672,0.567,1.124,0.567c0.703,0,1.974-0.273,2.373-0.504c0.084-0.042,0.137-0.063,0.221-0.063
		c0.294,0,0.819,0.367,0.819,0.577c0,0.126-0.094,0.189-0.399,0.231c-1.25,0.189-2.11,0.273-2.677,0.273
		c-0.788,0-1.103-0.199-1.606-0.987L81.426,39.795z"/>
	<path d="M89.826,45.213c1.313-0.704,2.719-1.764,3.948-2.982c1.04-1.018,1.711-1.869,1.711-2.173c0-0.199-0.168-0.368-0.588-0.599
		c0.116-0.042,0.137-0.042,0.21-0.042c0.305,0,0.567,0.095,0.903,0.315c0.357,0.241,0.546,0.483,0.546,0.682
		c0,0.095-0.011,0.116-0.42,0.462c-0.105,0.084-0.105,0.084-0.851,0.798c-0.735,0.704-0.798,0.756-1.25,1.134
		c0.41,0.305,0.588,0.462,0.641,0.588c0.042,0.105,0.063,0.599,0.073,1.543c0.011,0.735,0.032,1.407,0.053,2.006
		c0,0.231,0.01,0.535,0.01,0.598c0,0.368-0.073,0.525-0.241,0.525c-0.242,0-0.714-0.578-0.714-0.882c0-0.073,0-0.073,0.063-0.273
		c0.095-0.262,0.189-1.564,0.189-2.583c0-0.514-0.021-0.83-0.063-0.998c-0.031-0.105-0.073-0.157-0.231-0.325
		c-0.735,0.588-1.491,1.124-2.016,1.438c-0.588,0.346-1.344,0.714-1.89,0.914L89.826,45.213z"/>
	<path d="M101.807,47.891c0.777-0.641,1.438-1.564,1.9-2.646c0.347-0.798,0.63-1.827,0.63-2.289c0-0.283-0.199-0.493-0.619-0.672
		c0.063-0.074,0.136-0.105,0.241-0.105c0.137,0,0.504,0.136,0.809,0.305c0.273,0.147,0.378,0.231,0.452,0.367
		c0.483-0.294,1.428-1.04,1.879-1.501c0.241-0.231,0.326-0.347,0.326-0.42c0-0.126-0.126-0.158-0.62-0.158
		c-0.693,0-2.489,0.284-3.623,0.578c-0.399,0.105-0.767,0.231-1.071,0.368c-0.063,0.031-0.168,0.052-0.242,0.052
		c-0.231,0-0.609-0.315-0.84-0.703c-0.116-0.2-0.2-0.441-0.2-0.567c0-0.073,0.021-0.147,0.074-0.241
		c0.189,0.43,0.525,0.63,1.039,0.63c0.378,0,0.567-0.021,2.531-0.273c0.094-0.011,0.326-0.042,0.725-0.084
		c1.627-0.189,1.711-0.21,1.932-0.315c0.063-0.021,0.084-0.032,0.137-0.032c0.116,0,0.305,0.105,0.557,0.305
		c0.451,0.346,0.756,0.704,0.756,0.882c0,0.158-0.063,0.2-0.378,0.284c-0.168,0.052-0.284,0.094-0.515,0.22
		c-0.872,0.494-1.344,0.735-2.478,1.271c-0.063,0.179-0.073,0.2-0.157,0.473c-0.473,1.438-0.882,2.257-1.512,3.003
		c-0.515,0.599-1.04,1.061-1.627,1.407L101.807,47.891z"/>
	<path d="M111.698,40.677c1.008,0.252,1.617,0.494,2.026,0.788c0.242,0.168,0.357,0.399,0.357,0.714
		c0,0.347-0.115,0.588-0.294,0.588c-0.116,0-0.168-0.052-0.452-0.42c-0.514-0.683-0.893-1.029-1.711-1.543L111.698,40.677z
		 M119.163,41.276c-0.525,0.987-1.166,1.816-2.205,2.824c-0.966,0.935-1.617,1.459-2.95,2.394c-0.494,0.347-0.546,0.389-0.62,0.483
		c-0.168,0.2-0.231,0.252-0.368,0.252c-0.43,0-1.229-1.008-1.229-1.543c0-0.063,0.011-0.105,0.053-0.21
		c0.21,0.315,0.231,0.336,0.378,0.462c0.157,0.147,0.304,0.221,0.42,0.221c0.179,0,0.504-0.137,1.019-0.441
		c1.176-0.683,1.585-0.977,2.509-1.732c1.292-1.05,1.922-1.691,2.825-2.804L119.163,41.276z"/>
	<path d="M123.856,39.396c0.221,0,0.452,0.053,0.777,0.179c0.441,0.168,0.693,0.378,0.693,0.578c0,0.073,0,0.073-0.063,0.231
		c-0.126,0.283-0.189,1.071-0.189,2.289c0.788,0.073,1.827,0.325,2.446,0.588c0.473,0.22,0.651,0.431,0.651,0.809
		c0,0.304-0.094,0.483-0.252,0.483c-0.105,0-0.115,0-0.388-0.252c-0.693-0.641-1.501-1.082-2.468-1.365
		c0.011,0.662,0.011,0.987,0.011,1.302c0,0.273,0,0.399,0,0.63c0,0.473,0,0.63,0,0.903c0,0.315,0,0.315,0.021,1.197
		c0.01,0.22,0.01,0.399,0.01,0.556c0,0.2-0.01,0.294-0.052,0.357c-0.032,0.052-0.116,0.094-0.189,0.094
		c-0.252,0-0.672-0.567-0.672-0.914c0-0.105,0.011-0.168,0.053-0.294c0.158-0.504,0.221-1.869,0.221-4.546
		c0-0.756-0.032-1.522-0.074-1.806c-0.063-0.472-0.294-0.735-0.798-0.935C123.72,39.407,123.762,39.396,123.856,39.396z"/>
	<path d="M76.354,56.438c-0.042,2.604-0.189,4.41-0.462,5.943c-0.252,1.47-0.693,3.066-1.218,4.389
		c-0.231,0.609-0.441,1.029-0.945,1.911l-0.315-0.126c0.735-1.848,1.092-3.444,1.365-6.09c0.21-1.995,0.273-3.78,0.273-8.484
		c0-0.609,0-0.882-0.042-1.617c0.714,0.399,0.945,0.525,1.68,0.966h4.956c0.315-0.378,0.42-0.483,0.756-0.819
		c0.525,0.357,0.672,0.483,1.092,0.819c0.105,0.105,0.147,0.189,0.147,0.252c0,0.147-0.147,0.273-0.567,0.483v0.903
		c0,0.189,0,0.336,0,0.378c0,0.273,0,0.609,0.021,1.281c-0.042,0.273-0.21,0.315-1.008,0.315c-0.21,0-0.273-0.042-0.294-0.21v-0.294
		H76.354z M74.128,50.936c0.714,0.147,1.134,0.21,1.554,0.21h5.502c0.441-0.567,0.567-0.735,1.029-1.239
		c0.714,0.567,0.924,0.756,1.617,1.407c0.042,0.042,0.084,0.126,0.084,0.147c0,0.063-0.084,0.168-0.126,0.168h-8.106
		c-0.441,0-1.029,0.063-1.449,0.147L74.128,50.936z M81.835,67.043c0.336-0.42,0.441-0.546,0.798-0.945
		c0.504,0.483,0.672,0.63,1.134,1.134c0.042,0.063,0.063,0.105,0.063,0.147c0,0.063-0.105,0.147-0.21,0.147h-5.523v1.029
		c-0.042,0.252-0.147,0.294-0.651,0.294c-0.084,0-0.168,0-0.21,0c-0.021,0-0.042,0-0.063,0c-0.189,0-0.273-0.063-0.273-0.252
		c0.063-2.541,0.105-4.011,0.105-4.41v-3.108c-0.252,0.315-0.378,0.462-0.819,0.924l-0.189-0.231c0.882-1.344,1.638-3.024,2.1-4.746
		c1.428,0.462,1.68,0.567,1.68,0.735c0,0.147-0.084,0.189-0.777,0.315c-0.42,0.672-0.504,0.819-0.861,1.386h1.617
		c0.525-0.84,0.756-1.365,1.029-2.331c1.386,0.462,1.575,0.546,1.575,0.714c0,0.147-0.231,0.231-0.756,0.273
		c-0.987,0.924-1.113,1.05-1.491,1.344h1.68c0.315-0.42,0.42-0.546,0.756-0.924c0.567,0.462,0.714,0.609,1.197,1.092
		c0.042,0.084,0.084,0.147,0.084,0.189c0,0.084-0.084,0.126-0.21,0.126h-2.562v1.827h0.714c0.336-0.441,0.441-0.567,0.798-0.966
		c0.483,0.525,0.651,0.672,1.113,1.176c0.042,0.063,0.063,0.105,0.063,0.147c0,0.063-0.105,0.126-0.252,0.126h-2.436v2.016h0.714
		c0.357-0.378,0.462-0.483,0.777-0.882c0.504,0.462,0.651,0.609,1.113,1.092c0.063,0.063,0.084,0.126,0.084,0.168
		c0,0.063-0.084,0.105-0.231,0.105h-2.457v2.289H81.835z M81.793,53.813h-5.418c0,1.197,0,1.554,0,2.142h5.418V53.813z
		 M79.925,61.772v-1.827h-1.827v1.827H79.925z M79.925,64.271v-2.016h-1.827v2.016H79.925z M79.925,64.754h-1.827v2.289h1.827
		V64.754z M81.793,68.849c1.26-0.651,2.142-1.26,3.171-2.205c0.399-0.378,0.462-0.441,1.302-1.428
		c0.357,0.147,0.651,0.252,0.84,0.336c0.84,0.315,1.029,0.42,1.029,0.546c0,0.168-0.189,0.21-0.924,0.231
		c-2.646,1.848-3.108,2.1-5.271,2.793L81.793,68.849z M89.228,51.629c-0.84,1.659-0.882,1.764-1.554,2.751h2.793
		c0.357-0.42,0.462-0.546,0.84-0.945c0.525,0.42,0.693,0.546,1.176,0.945c0.168,0.105,0.231,0.21,0.231,0.294
		c0,0.126,0,0.126-0.651,0.483c0,0.693,0,1.113,0,1.554c0,0.42,0.042,6.237,0.063,7.812c-0.042,0.294-0.168,0.336-0.924,0.336
		c-0.357,0-0.42-0.042-0.462-0.231v-0.525h-4.851v0.651c-0.063,0.189-0.189,0.231-0.735,0.231c-0.126,0-0.21,0.021-0.273,0.021
		c-0.021,0-0.042,0-0.042,0c-0.21,0-0.294-0.063-0.315-0.273l0.021-1.743l0.021-3.528c0-4.473,0-4.872-0.063-5.922
		c0.63,0.357,0.819,0.462,1.386,0.84h1.26c0.042-0.315,0.063-0.462,0.105-0.651c0.273-1.365,0.273-1.365,0.336-2.1h-2.058
		c-0.378,0-0.84,0.063-1.218,0.147l-0.126-0.84c0.42,0.147,0.882,0.21,1.344,0.21h4.809c0.441-0.63,0.588-0.798,1.092-1.344
		c0.84,0.609,1.092,0.798,1.911,1.491c0.063,0.084,0.105,0.126,0.105,0.168c0,0.084-0.105,0.168-0.231,0.168H89.228z M90.74,54.863
		h-4.851v2.394h4.851V54.863z M85.889,57.74v2.604h4.851V57.74H85.889z M85.889,60.827v2.793h4.851v-2.793H85.889z M88.934,65.027
		c1.785,0.693,3.024,1.26,3.633,1.701c0.315,0.252,0.567,0.693,0.567,1.029c0,0.63-0.231,1.218-0.462,1.218
		c-0.168,0-0.21-0.063-0.651-0.672c-0.126-0.168-1.113-1.26-1.365-1.512c-0.126-0.126-0.735-0.63-1.848-1.533L88.934,65.027z"/>
	<path d="M117.809,55.304c0.336-0.42,0.441-0.546,0.798-0.945c0.672,0.525,0.882,0.693,1.533,1.281
		c0.189,0.147,0.273,0.252,0.273,0.357c0,0.147-0.252,0.21-1.26,0.252c-1.071,1.302-1.806,1.995-3.129,2.982
		c1.113,0.567,2.058,0.924,3.297,1.281c1.848,0.525,3.234,0.735,5.25,0.84v0.315c-0.861,0.168-1.092,0.378-1.617,1.428
		c-1.323-0.315-1.89-0.504-3.339-1.029c0.462,0.462,0.483,0.462,0.882,0.84c0.126,0.147,0.189,0.231,0.189,0.315
		c0,0.021-0.042,0.084-0.063,0.105c-0.042,0.021-0.126,0.084-0.231,0.126c-0.042,0.021-0.126,0.063-0.21,0.105
		c0,0.966,0,0.966,0.021,2.751c0.021,1.155,0.021,1.155,0.042,2.247c0,0.042,0.021,0.105,0.021,0.126
		c0,0.147-0.063,0.231-0.21,0.273c-0.21,0.063-0.567,0.105-0.861,0.105c-0.315,0-0.378-0.063-0.378-0.357c0,0,0-0.021,0-0.042v-0.84
		h-7.917v0.735c0,0.357-0.189,0.462-0.84,0.462c-0.462,0-0.609-0.084-0.609-0.357v-0.042c0.021-0.735,0.021-0.735,0.021-1.806
		c0.021-0.567,0.021-0.567,0.042-1.911v-2.226c-1.554,0.567-2.352,0.819-3.927,1.113l-0.126-0.294
		c3.192-1.071,6.258-2.583,8.715-4.305c-0.882-0.714-1.911-1.701-2.541-2.478c-0.504,0.525-1.071,1.029-1.722,1.554
		c-1.47,1.176-2.436,1.764-3.717,2.247l-0.147-0.231c1.974-1.512,2.898-2.31,3.927-3.486c1.176-1.281,1.848-2.289,2.268-3.339
		c2.058,0.42,2.226,0.462,2.226,0.651c0,0.21-0.294,0.336-1.092,0.462c-0.252,0.357-0.357,0.504-0.525,0.735H117.809z
		 M114.197,52.637v-1.449c0-0.483-0.021-0.777-0.063-1.386c1.701,0.168,1.974,0.21,2.184,0.273c0.168,0.063,0.273,0.147,0.273,0.273
		c0,0.231-0.273,0.378-0.903,0.504v1.785h5.88c0.42-0.483,0.546-0.651,0.966-1.155l1.911,1.386c0.126,0.105,0.189,0.189,0.189,0.273
		c0,0.063-0.105,0.147-0.189,0.168c0,0-0.42,0.084-1.26,0.21c-1.302,1.491-1.365,1.554-2.037,2.058l-0.21-0.126
		c0.399-1.008,0.504-1.365,0.735-2.331h-13.377c-0.126,1.05-0.315,1.785-0.63,2.352c-0.273,0.483-0.924,0.987-1.281,0.987
		c-0.126,0-0.357-0.168-0.462-0.357c-0.105-0.147-0.168-0.546-0.168-0.882c0-0.273,0-0.294,0.504-0.63
		c0.294-0.21,0.756-0.756,0.987-1.176c0.399-0.756,0.588-1.323,0.714-2.226h0.378c0.021,0.336,0.042,0.567,0.042,0.756
		s-0.021,0.378-0.042,0.693H114.197z M118.648,62.738c0.357-0.315,0.357-0.315,0.84-0.714c-2.037-0.777-3.087-1.302-4.389-2.163
		c-1.407,0.924-2.772,1.617-4.662,2.436c0.189,0.147,0.252,0.21,0.462,0.441H118.648z M110.899,67.337h7.917v-4.116h-7.917V67.337z
		 M112.454,55.787c-0.21,0.252-0.273,0.336-0.483,0.567c0.525,0.672,1.596,1.491,2.94,2.268c1.134-0.903,1.806-1.575,2.793-2.835
		H112.454z"/>
</g>
<rect x="72.551" y="48.9" fill="none" stroke="#008CD6" stroke-width="0.5" width="21" height="21"/>
<rect x="104.051" y="48.9" fill="none" stroke="#008CD6" stroke-width="0.5" width="21" height="21"/>
<rect x="67.301" y="38.4" fill="none" stroke="#008CD6" stroke-width="0.5" width="63" height="10.5"/>
<line fill="none" stroke="#008CD6" stroke-width="0.5" x1="77.801" y1="48.9" x2="77.801" y2="38.4"/>
<line fill="none" stroke="#008CD6" stroke-width="0.5" x1="88.301" y1="48.9" x2="88.301" y2="38.4"/>
<line fill="none" stroke="#008CD6" stroke-width="0.5" x1="98.801" y1="48.9" x2="98.801" y2="38.4"/>
<line fill="none" stroke="#008CD6" stroke-width="0.5" x1="109.301" y1="48.9" x2="109.301" y2="38.4"/>
<line fill="none" stroke="#008CD6" stroke-width="0.5" x1="119.801" y1="48.9" x2="119.801" y2="38.4"/>
<g>
	<path fill="#008CD6" d="M0,76.502c0.312,0.048,0.54,0.06,0.996,0.06h0.756c0.408,0,0.6-0.012,0.996-0.06
		c-0.072,0.732-0.108,1.344-0.108,1.992v5.832c0,0.564,0.024,0.912,0.096,1.356h-1.14c0.072-0.42,0.096-0.804,0.096-1.356v-6.948
		H1.044c-0.384,0-0.696,0.024-1.044,0.072V76.502z"/>
	<path fill="#008CD6" d="M11.4,76.562l-4.32,10.98h-0.9l4.332-10.98H11.4z"/>
	<path fill="#008CD6" d="M12.012,82.502c0.252-0.288,0.528-0.624,0.78-0.924l3.036-3.792c0.408-0.504,0.624-0.804,0.9-1.224h0.9
		c-0.06,0.708-0.072,1.08-0.072,2.028v3.936h0.456c0.504,0,0.816-0.024,1.248-0.084v0.996c-0.444-0.06-0.744-0.084-1.26-0.084
		h-0.444v1.032c0,0.576,0.024,0.852,0.096,1.296H16.56c0.072-0.42,0.096-0.756,0.096-1.296v-1.032h-3.216
		c-0.672,0-1.032,0.012-1.428,0.048V82.502z M16.667,79.49c0-0.636,0.012-1.02,0.072-1.632c-0.252,0.36-0.552,0.756-0.9,1.2
		l-2.76,3.48h3.588V79.49z"/>
	<path fill="#008CD6" d="M25.056,83.762c0.084,0.444,0.18,0.66,0.42,0.876c0.3,0.276,0.78,0.42,1.392,0.42
		c1.044,0,1.704-0.444,1.704-1.152c0-0.336-0.12-0.588-0.372-0.744c-0.288-0.18-0.528-0.252-1.416-0.432
		c-0.96-0.204-1.368-0.348-1.776-0.624c-0.42-0.288-0.648-0.732-0.648-1.26c0-0.432,0.18-0.84,0.516-1.164
		c0.42-0.408,1.068-0.624,1.872-0.624c0.816,0,1.452,0.192,1.884,0.576c0.312,0.264,0.48,0.54,0.636,1.092l-0.948,0.156
		c-0.072-0.324-0.132-0.468-0.3-0.636c-0.276-0.3-0.708-0.456-1.248-0.456c-0.876,0-1.5,0.444-1.5,1.08
		c0,0.276,0.144,0.516,0.408,0.66c0.276,0.156,0.588,0.252,1.332,0.408c1.164,0.264,1.548,0.408,1.908,0.684
		c0.372,0.3,0.576,0.756,0.576,1.248c0,1.2-1.02,1.944-2.664,1.944c-1.092,0-1.932-0.324-2.376-0.936
		c-0.18-0.252-0.264-0.456-0.384-0.948L25.056,83.762z"/>
	<path fill="#008CD6" d="M32.016,76.562v1.068h-1.164v-1.068H32.016z M31.968,79.214c-0.06,0.42-0.084,0.756-0.084,1.356v3.756
		c0,0.552,0.024,0.888,0.084,1.356h-1.08c0.06-0.516,0.084-0.852,0.084-1.356V80.57c0-0.576-0.024-0.936-0.084-1.356H31.968z"/>
	<path fill="#008CD6" d="M38.232,79.898c-0.3,0.324-0.504,0.576-0.804,0.984l-2.58,3.444c-0.024,0.024-0.204,0.252-0.456,0.564
		c0.588-0.024,0.624-0.024,0.828-0.024h1.896c0.624,0,0.96-0.024,1.356-0.084v0.984c-0.432-0.06-0.744-0.084-1.356-0.084h-2.544
		c-0.744,0-0.996,0.012-1.332,0.036v-0.792c0.264-0.276,0.504-0.552,0.816-0.972l2.64-3.528c0.132-0.18,0.216-0.276,0.36-0.432
		c-0.324,0.024-0.432,0.024-0.6,0.024h-1.632c-0.504,0-0.888,0.024-1.344,0.084V79.13c0.468,0.06,0.816,0.084,1.344,0.084h2.136
		c0.744,0,0.936,0,1.272-0.036V79.898z"/>
	<path fill="#008CD6" d="M40.307,82.586c0.036,0.804,0.156,1.248,0.48,1.68c0.384,0.528,0.972,0.816,1.692,0.816
		c0.972,0,1.644-0.48,1.98-1.404l0.84,0.336c-0.228,0.504-0.384,0.72-0.66,0.996c-0.564,0.552-1.296,0.84-2.172,0.84
		c-1.884,0-3.072-1.32-3.072-3.396c0-2.052,1.176-3.396,2.976-3.396c1.548,0,2.664,0.996,2.904,2.604
		c0.012,0.132,0.06,0.6,0.084,0.924H40.307z M44.399,81.83c-0.072-0.672-0.252-1.104-0.636-1.476c-0.372-0.36-0.84-0.54-1.416-0.54
		c-0.732,0-1.344,0.372-1.704,1.044c-0.168,0.3-0.228,0.516-0.3,0.972H44.399z"/>
	<path fill="#008CD6" d="M50.448,82.454c0-2.076,1.248-3.396,3.204-3.396s3.192,1.32,3.192,3.384c0,2.052-1.248,3.396-3.18,3.396
		C51.695,85.838,50.448,84.53,50.448,82.454z M51.372,82.43c0,1.632,0.876,2.628,2.28,2.628c1.404,0,2.268-0.996,2.268-2.616
		s-0.864-2.628-2.244-2.628C52.248,79.814,51.372,80.81,51.372,82.43z"/>
	<path fill="#008CD6" d="M58.62,79.982c-0.42,0-0.72,0.024-1.092,0.072v-0.912c0.324,0.048,0.612,0.072,1.092,0.072h0.492v-0.708
		c0-0.732,0.096-1.116,0.372-1.464c0.288-0.372,0.84-0.588,1.512-0.588c0.468,0,0.84,0.072,1.272,0.24l-0.252,0.804
		c-0.324-0.192-0.624-0.276-0.996-0.276c-0.384,0-0.66,0.108-0.816,0.324c-0.132,0.192-0.18,0.444-0.18,1.008v0.66h0.6
		c0.516,0,0.828-0.012,1.272-0.072v0.912c-0.408-0.06-0.684-0.072-1.272-0.072h-0.6v4.356c0,0.564,0.024,0.9,0.084,1.344h-1.08
		c0.06-0.444,0.084-0.852,0.084-1.356v-4.344H58.62z"/>
	<path fill="#008CD6" d="M67.248,85.682c0.06-0.456,0.084-0.804,0.084-1.38v-6.384c0-0.504-0.024-0.888-0.084-1.356h1.056
		c-0.06,0.444-0.084,0.792-0.084,1.368v1.62c0,0.324-0.012,0.54-0.048,0.852c0.564-0.888,1.38-1.32,2.472-1.32
		c1.848,0,2.952,1.248,2.952,3.336c0,2.112-1.128,3.384-3,3.384c-0.756,0-1.308-0.192-1.86-0.648
		c-0.264-0.204-0.372-0.336-0.564-0.624c0.024,0.228,0.036,0.324,0.036,0.48v0.672H67.248z M70.572,79.85
		c-1.416,0-2.352,1.032-2.352,2.568c0,1.548,0.936,2.604,2.316,2.604c1.344,0,2.136-0.972,2.136-2.616
		C72.671,80.786,71.903,79.85,70.572,79.85z"/>
	<path fill="#008CD6" d="M79.271,84.83c-0.468,0.42-0.696,0.576-1.104,0.732c-0.408,0.156-0.84,0.24-1.248,0.24
		c-1.32,0-2.124-0.684-2.124-1.824c0-0.96,0.6-1.656,1.716-1.968c0.708-0.204,1.284-0.276,2.76-0.312v-0.696
		c0-0.816-0.516-1.236-1.512-1.236c-0.66,0-1.152,0.168-1.488,0.516c-0.156,0.168-0.252,0.336-0.372,0.696l-0.936-0.204
		c0.216-0.552,0.372-0.804,0.672-1.068c0.492-0.456,1.212-0.684,2.112-0.684c1.584,0,2.4,0.672,2.4,1.968v3.372
		c0,0.54,0.024,0.84,0.096,1.32h-0.972V84.83z M79.271,82.406c-1.428,0.036-2.112,0.12-2.652,0.348
		c-0.612,0.252-0.912,0.66-0.912,1.236c0,0.66,0.492,1.08,1.272,1.08c0.696,0,1.452-0.336,1.92-0.852
		c0.276-0.3,0.372-0.552,0.372-1.032V82.406z"/>
	<path fill="#008CD6" d="M82.535,83.762c0.084,0.444,0.18,0.66,0.42,0.876c0.3,0.276,0.78,0.42,1.392,0.42
		c1.044,0,1.704-0.444,1.704-1.152c0-0.336-0.12-0.588-0.372-0.744c-0.288-0.18-0.528-0.252-1.416-0.432
		c-0.96-0.204-1.368-0.348-1.776-0.624c-0.42-0.288-0.648-0.732-0.648-1.26c0-0.432,0.18-0.84,0.516-1.164
		c0.42-0.408,1.068-0.624,1.872-0.624c0.816,0,1.452,0.192,1.884,0.576c0.312,0.264,0.48,0.54,0.636,1.092l-0.948,0.156
		c-0.072-0.324-0.132-0.468-0.3-0.636c-0.276-0.3-0.708-0.456-1.248-0.456c-0.876,0-1.5,0.444-1.5,1.08
		c0,0.276,0.144,0.516,0.408,0.66c0.276,0.156,0.588,0.252,1.332,0.408c1.164,0.264,1.548,0.408,1.908,0.684
		c0.372,0.3,0.576,0.756,0.576,1.248c0,1.2-1.02,1.944-2.664,1.944c-1.092,0-1.932-0.324-2.376-0.936
		c-0.18-0.252-0.264-0.456-0.384-0.948L82.535,83.762z"/>
	<path fill="#008CD6" d="M88.955,82.586c0.036,0.804,0.156,1.248,0.48,1.68c0.384,0.528,0.972,0.816,1.692,0.816
		c0.972,0,1.644-0.48,1.98-1.404l0.84,0.336c-0.228,0.504-0.384,0.72-0.66,0.996c-0.564,0.552-1.296,0.84-2.172,0.84
		c-1.884,0-3.072-1.32-3.072-3.396c0-2.052,1.176-3.396,2.976-3.396c1.548,0,2.664,0.996,2.904,2.604
		c0.012,0.132,0.06,0.6,0.084,0.924H88.955z M93.047,81.83c-0.072-0.672-0.252-1.104-0.636-1.476c-0.372-0.36-0.84-0.54-1.416-0.54
		c-0.732,0-1.344,0.372-1.704,1.044c-0.168,0.3-0.228,0.516-0.3,0.972H93.047z"/>
</g>
<g>
	<path fill="#008CD6" d="M105,76.502c0.312,0.048,0.54,0.06,0.996,0.06h0.756c0.408,0,0.6-0.012,0.996-0.06
		c-0.072,0.732-0.108,1.344-0.108,1.992v5.832c0,0.564,0.024,0.912,0.096,1.356h-1.14c0.072-0.42,0.096-0.804,0.096-1.356v-6.948
		h-0.648c-0.384,0-0.696,0.024-1.044,0.072V76.502z"/>
	<path fill="#008CD6" d="M116.4,76.562l-4.32,10.98h-0.9l4.332-10.98H116.4z"/>
	<path fill="#008CD6" d="M117.012,82.502c0.252-0.288,0.528-0.624,0.78-0.924l3.036-3.792c0.408-0.504,0.624-0.804,0.9-1.224h0.9
		c-0.06,0.708-0.072,1.08-0.072,2.028v3.936h0.456c0.504,0,0.816-0.024,1.248-0.084v0.996c-0.444-0.06-0.744-0.084-1.26-0.084
		h-0.444v1.032c0,0.576,0.024,0.852,0.096,1.296h-1.092c0.072-0.42,0.096-0.756,0.096-1.296v-1.032h-3.216
		c-0.672,0-1.032,0.012-1.428,0.048V82.502z M121.667,79.49c0-0.636,0.012-1.02,0.072-1.632c-0.252,0.36-0.552,0.756-0.9,1.2
		l-2.76,3.48h3.588V79.49z"/>
	<path fill="#008CD6" d="M130.056,83.762c0.084,0.444,0.18,0.66,0.42,0.876c0.3,0.276,0.78,0.42,1.392,0.42
		c1.044,0,1.704-0.444,1.704-1.152c0-0.336-0.12-0.588-0.372-0.744c-0.288-0.18-0.528-0.252-1.416-0.432
		c-0.96-0.204-1.368-0.348-1.776-0.624c-0.42-0.288-0.648-0.732-0.648-1.26c0-0.432,0.18-0.84,0.516-1.164
		c0.42-0.408,1.068-0.624,1.872-0.624c0.816,0,1.452,0.192,1.884,0.576c0.312,0.264,0.48,0.54,0.636,1.092l-0.948,0.156
		c-0.072-0.324-0.132-0.468-0.3-0.636c-0.276-0.3-0.708-0.456-1.248-0.456c-0.876,0-1.5,0.444-1.5,1.08
		c0,0.276,0.144,0.516,0.408,0.66c0.276,0.156,0.588,0.252,1.332,0.408c1.164,0.264,1.548,0.408,1.908,0.684
		c0.372,0.3,0.576,0.756,0.576,1.248c0,1.2-1.02,1.944-2.664,1.944c-1.092,0-1.932-0.324-2.376-0.936
		c-0.18-0.252-0.264-0.456-0.384-0.948L130.056,83.762z"/>
	<path fill="#008CD6" d="M137.016,76.562v1.068h-1.164v-1.068H137.016z M136.968,79.214c-0.06,0.42-0.084,0.756-0.084,1.356v3.756
		c0,0.552,0.024,0.888,0.084,1.356h-1.08c0.06-0.516,0.084-0.852,0.084-1.356V80.57c0-0.576-0.024-0.936-0.084-1.356H136.968z"/>
	<path fill="#008CD6" d="M143.232,79.898c-0.3,0.324-0.504,0.576-0.804,0.984l-2.58,3.444c-0.024,0.024-0.204,0.252-0.456,0.564
		c0.588-0.024,0.624-0.024,0.828-0.024h1.896c0.624,0,0.96-0.024,1.356-0.084v0.984c-0.432-0.06-0.744-0.084-1.356-0.084h-2.544
		c-0.744,0-0.996,0.012-1.332,0.036v-0.792c0.264-0.276,0.504-0.552,0.816-0.972l2.64-3.528c0.132-0.18,0.216-0.276,0.36-0.432
		c-0.324,0.024-0.432,0.024-0.6,0.024h-1.632c-0.504,0-0.888,0.024-1.344,0.084V79.13c0.468,0.06,0.816,0.084,1.344,0.084h2.136
		c0.744,0,0.936,0,1.272-0.036V79.898z"/>
	<path fill="#008CD6" d="M145.307,82.586c0.036,0.804,0.156,1.248,0.48,1.68c0.384,0.528,0.972,0.816,1.692,0.816
		c0.972,0,1.644-0.48,1.98-1.404l0.84,0.336c-0.228,0.504-0.384,0.72-0.66,0.996c-0.564,0.552-1.296,0.84-2.172,0.84
		c-1.884,0-3.072-1.32-3.072-3.396c0-2.052,1.176-3.396,2.976-3.396c1.548,0,2.664,0.996,2.904,2.604
		c0.012,0.132,0.06,0.6,0.084,0.924H145.307z M149.399,81.83c-0.072-0.672-0.252-1.104-0.636-1.476
		c-0.372-0.36-0.84-0.54-1.416-0.54c-0.732,0-1.344,0.372-1.704,1.044c-0.168,0.3-0.228,0.516-0.3,0.972H149.399z"/>
	<path fill="#008CD6" d="M155.448,82.454c0-2.076,1.248-3.396,3.204-3.396s3.192,1.32,3.192,3.384c0,2.052-1.248,3.396-3.18,3.396
		C156.695,85.838,155.448,84.53,155.448,82.454z M156.372,82.43c0,1.632,0.876,2.628,2.28,2.628c1.404,0,2.268-0.996,2.268-2.616
		s-0.864-2.628-2.244-2.628C157.248,79.814,156.372,80.81,156.372,82.43z"/>
	<path fill="#008CD6" d="M163.619,79.982c-0.42,0-0.72,0.024-1.092,0.072v-0.912c0.324,0.048,0.612,0.072,1.092,0.072h0.492v-0.708
		c0-0.732,0.097-1.116,0.372-1.464c0.288-0.372,0.84-0.588,1.512-0.588c0.469,0,0.841,0.072,1.272,0.24l-0.252,0.804
		c-0.324-0.192-0.624-0.276-0.996-0.276c-0.384,0-0.66,0.108-0.816,0.324c-0.132,0.192-0.18,0.444-0.18,1.008v0.66h0.6
		c0.517,0,0.828-0.012,1.272-0.072v0.912c-0.408-0.06-0.684-0.072-1.272-0.072h-0.6v4.356c0,0.564,0.024,0.9,0.084,1.344h-1.08
		c0.061-0.444,0.084-0.852,0.084-1.356v-4.344H163.619z"/>
	<path fill="#008CD6" d="M172.247,85.682c0.061-0.456,0.084-0.804,0.084-1.38v-6.384c0-0.504-0.023-0.888-0.084-1.356h1.057
		c-0.061,0.444-0.084,0.792-0.084,1.368v1.62c0,0.324-0.012,0.54-0.048,0.852c0.563-0.888,1.38-1.32,2.472-1.32
		c1.848,0,2.952,1.248,2.952,3.336c0,2.112-1.128,3.384-3,3.384c-0.756,0-1.309-0.192-1.86-0.648
		c-0.264-0.204-0.372-0.336-0.563-0.624c0.023,0.228,0.036,0.324,0.036,0.48v0.672H172.247z M175.571,79.85
		c-1.416,0-2.352,1.032-2.352,2.568c0,1.548,0.936,2.604,2.315,2.604c1.345,0,2.137-0.972,2.137-2.616
		C177.671,80.786,176.903,79.85,175.571,79.85z"/>
	<path fill="#008CD6" d="M184.271,84.83c-0.468,0.42-0.696,0.576-1.104,0.732c-0.407,0.156-0.84,0.24-1.247,0.24
		c-1.32,0-2.124-0.684-2.124-1.824c0-0.96,0.6-1.656,1.716-1.968c0.708-0.204,1.284-0.276,2.76-0.312v-0.696
		c0-0.816-0.516-1.236-1.512-1.236c-0.66,0-1.152,0.168-1.488,0.516c-0.156,0.168-0.252,0.336-0.372,0.696l-0.936-0.204
		c0.216-0.552,0.372-0.804,0.672-1.068c0.492-0.456,1.212-0.684,2.111-0.684c1.584,0,2.4,0.672,2.4,1.968v3.372
		c0,0.54,0.024,0.84,0.096,1.32h-0.972V84.83z M184.271,82.406c-1.428,0.036-2.112,0.12-2.652,0.348
		c-0.611,0.252-0.912,0.66-0.912,1.236c0,0.66,0.492,1.08,1.272,1.08c0.696,0,1.452-0.336,1.92-0.852
		c0.276-0.3,0.372-0.552,0.372-1.032V82.406z"/>
	<path fill="#008CD6" d="M187.536,83.762c0.084,0.444,0.18,0.66,0.42,0.876c0.3,0.276,0.78,0.42,1.392,0.42
		c1.044,0,1.704-0.444,1.704-1.152c0-0.336-0.12-0.588-0.372-0.744c-0.288-0.18-0.527-0.252-1.416-0.432
		c-0.96-0.204-1.368-0.348-1.775-0.624c-0.421-0.288-0.648-0.732-0.648-1.26c0-0.432,0.18-0.84,0.516-1.164
		c0.42-0.408,1.068-0.624,1.872-0.624c0.816,0,1.452,0.192,1.885,0.576c0.312,0.264,0.479,0.54,0.636,1.092l-0.948,0.156
		c-0.072-0.324-0.132-0.468-0.3-0.636c-0.276-0.3-0.708-0.456-1.248-0.456c-0.876,0-1.5,0.444-1.5,1.08
		c0,0.276,0.144,0.516,0.408,0.66c0.275,0.156,0.588,0.252,1.332,0.408c1.164,0.264,1.548,0.408,1.907,0.684
		c0.372,0.3,0.576,0.756,0.576,1.248c0,1.2-1.02,1.944-2.664,1.944c-1.092,0-1.932-0.324-2.376-0.936
		c-0.18-0.252-0.264-0.456-0.384-0.948L187.536,83.762z"/>
	<path fill="#008CD6" d="M193.955,82.586c0.036,0.804,0.156,1.248,0.48,1.68c0.384,0.528,0.972,0.816,1.691,0.816
		c0.973,0,1.645-0.48,1.98-1.404l0.84,0.336c-0.228,0.504-0.384,0.72-0.66,0.996c-0.563,0.552-1.296,0.84-2.172,0.84
		c-1.884,0-3.072-1.32-3.072-3.396c0-2.052,1.176-3.396,2.977-3.396c1.548,0,2.664,0.996,2.903,2.604
		c0.013,0.132,0.061,0.6,0.084,0.924H193.955z M198.046,81.83c-0.071-0.672-0.252-1.104-0.636-1.476
		c-0.372-0.36-0.84-0.54-1.416-0.54c-0.731,0-1.344,0.372-1.704,1.044c-0.168,0.3-0.228,0.516-0.3,0.972H198.046z"/>
</g>
<line fill="none" stroke="#008CD6" stroke-width="0.5" x1="128.563" y1="73.65" x2="128.563" y2="55.023"/>
<polyline fill="none" stroke="#008CD6" stroke-width="0.5" points="125.58,60.19 128.563,55.023 131.546,60.19 "/>
<line fill="none" stroke="#008CD6" stroke-width="0.5" x1="98.563" y1="105.9" x2="98.563" y2="55.023"/>
<polyline fill="none" stroke="#008CD6" stroke-width="0.5" points="95.58,60.19 98.563,55.023 101.546,60.19 "/>
<line fill="none" stroke="#008CD6" stroke-width="0.5" x1="68.938" y1="73.65" x2="68.938" y2="55.023"/>
<polyline fill="none" stroke="#008CD6" stroke-width="0.5" points="65.955,60.19 68.938,55.023 71.921,60.19 "/>
<g>
	<path fill="#008CD6" d="M58.547,106.938c0.312,0.048,0.54,0.06,0.996,0.06h0.756c0.408,0,0.6-0.012,0.996-0.06
		c-0.072,0.732-0.108,1.344-0.108,1.992v5.832c0,0.564,0.024,0.912,0.096,1.356h-1.14c0.072-0.42,0.096-0.804,0.096-1.356v-6.948
		h-0.648c-0.384,0-0.696,0.024-1.044,0.072V106.938z"/>
	<path fill="#008CD6" d="M69.947,106.999l-4.32,10.98h-0.9l4.332-10.98H69.947z"/>
	<path fill="#008CD6" d="M72.214,116.119c-0.756,0-0.936,0.012-1.32,0.06c0.132-0.948,0.168-1.128,0.348-1.584
		c0.3-0.756,0.804-1.416,1.56-2.064c0.42-0.36,0.444-0.372,1.836-1.32c1.188-0.804,1.584-1.332,1.584-2.064
		c0-0.912-0.768-1.5-1.992-1.5c-0.792,0-1.38,0.264-1.74,0.78c-0.228,0.324-0.336,0.612-0.42,1.212l-1.008-0.168
		c0.18-0.864,0.36-1.284,0.756-1.728c0.54-0.612,1.356-0.924,2.412-0.924c1.812,0,2.976,0.912,2.976,2.328
		c0,0.612-0.24,1.188-0.708,1.704c-0.36,0.408-0.672,0.636-2.04,1.548c-0.948,0.636-1.332,0.972-1.728,1.476
		c-0.372,0.492-0.54,0.816-0.684,1.392h3.828c0.6,0,1.008-0.024,1.464-0.084v1.008c-0.48-0.048-0.876-0.072-1.476-0.072H72.214z"/>
	<path fill="#008CD6" d="M83.554,114.198c0.084,0.444,0.18,0.66,0.42,0.876c0.3,0.276,0.78,0.42,1.392,0.42
		c1.044,0,1.704-0.444,1.704-1.152c0-0.336-0.12-0.588-0.372-0.744c-0.288-0.18-0.528-0.252-1.416-0.432
		c-0.96-0.204-1.368-0.348-1.776-0.624c-0.42-0.288-0.648-0.732-0.648-1.26c0-0.432,0.18-0.84,0.516-1.164
		c0.42-0.408,1.068-0.624,1.872-0.624c0.816,0,1.452,0.192,1.884,0.576c0.312,0.264,0.48,0.54,0.636,1.092l-0.948,0.156
		c-0.072-0.324-0.132-0.468-0.3-0.636c-0.276-0.3-0.708-0.456-1.248-0.456c-0.876,0-1.5,0.444-1.5,1.08
		c0,0.276,0.144,0.516,0.408,0.66c0.276,0.156,0.588,0.252,1.332,0.408c1.164,0.264,1.548,0.408,1.908,0.684
		c0.372,0.3,0.576,0.756,0.576,1.248c0,1.2-1.02,1.944-2.664,1.944c-1.092,0-1.932-0.324-2.376-0.936
		c-0.18-0.252-0.264-0.456-0.384-0.948L83.554,114.198z"/>
	<path fill="#008CD6" d="M90.514,106.999v1.068H89.35v-1.068H90.514z M90.466,109.65c-0.06,0.42-0.084,0.756-0.084,1.356v3.756
		c0,0.552,0.024,0.888,0.084,1.356h-1.08c0.06-0.516,0.084-0.852,0.084-1.356v-3.756c0-0.576-0.024-0.936-0.084-1.356H90.466z"/>
	<path fill="#008CD6" d="M96.73,110.334c-0.3,0.324-0.504,0.576-0.804,0.984l-2.58,3.444c-0.024,0.024-0.204,0.252-0.456,0.564
		c0.588-0.024,0.624-0.024,0.828-0.024h1.896c0.624,0,0.96-0.024,1.356-0.084v0.984c-0.432-0.06-0.744-0.084-1.356-0.084H93.07
		c-0.744,0-0.996,0.012-1.332,0.036v-0.792c0.264-0.276,0.504-0.552,0.816-0.972l2.64-3.528c0.132-0.18,0.216-0.276,0.36-0.432
		c-0.324,0.024-0.432,0.024-0.6,0.024h-1.632c-0.504,0-0.888,0.024-1.344,0.084v-0.972c0.468,0.06,0.816,0.084,1.344,0.084h2.136
		c0.744,0,0.936,0,1.272-0.036V110.334z"/>
	<path fill="#008CD6" d="M98.806,113.022c0.036,0.804,0.156,1.248,0.48,1.68c0.384,0.528,0.972,0.816,1.692,0.816
		c0.972,0,1.644-0.48,1.98-1.404l0.84,0.336c-0.228,0.504-0.384,0.72-0.66,0.996c-0.564,0.552-1.296,0.84-2.172,0.84
		c-1.884,0-3.072-1.32-3.072-3.396c0-2.052,1.176-3.396,2.976-3.396c1.548,0,2.664,0.996,2.904,2.604
		c0.012,0.132,0.06,0.6,0.084,0.924H98.806z M102.898,112.267c-0.072-0.672-0.252-1.104-0.636-1.476
		c-0.372-0.36-0.84-0.54-1.416-0.54c-0.732,0-1.344,0.372-1.704,1.044c-0.168,0.3-0.228,0.516-0.3,0.972H102.898z"/>
	<path fill="#008CD6" d="M108.947,112.891c0-2.076,1.248-3.396,3.204-3.396s3.192,1.32,3.192,3.384c0,2.052-1.248,3.396-3.18,3.396
		C110.194,116.274,108.947,114.966,108.947,112.891z M109.871,112.866c0,1.632,0.876,2.628,2.28,2.628
		c1.404,0,2.268-0.996,2.268-2.616s-0.864-2.628-2.244-2.628C110.747,110.25,109.871,111.247,109.871,112.866z"/>
	<path fill="#008CD6" d="M117.119,110.418c-0.42,0-0.72,0.024-1.092,0.072v-0.912c0.324,0.048,0.612,0.072,1.092,0.072h0.492v-0.708
		c0-0.732,0.096-1.116,0.372-1.464c0.288-0.372,0.84-0.588,1.512-0.588c0.468,0,0.84,0.072,1.272,0.24l-0.252,0.804
		c-0.324-0.192-0.624-0.276-0.996-0.276c-0.384,0-0.66,0.108-0.816,0.324c-0.132,0.192-0.18,0.444-0.18,1.008v0.66h0.6
		c0.516,0,0.828-0.012,1.272-0.072v0.912c-0.408-0.06-0.684-0.072-1.272-0.072h-0.6v4.356c0,0.564,0.024,0.9,0.084,1.344h-1.08
		c0.06-0.444,0.084-0.852,0.084-1.356v-4.344H117.119z"/>
	<path fill="#008CD6" d="M125.747,116.119c0.06-0.456,0.084-0.804,0.084-1.38v-6.384c0-0.504-0.024-0.888-0.084-1.356h1.056
		c-0.06,0.444-0.084,0.792-0.084,1.368v1.62c0,0.324-0.012,0.54-0.048,0.852c0.564-0.888,1.38-1.32,2.472-1.32
		c1.848,0,2.952,1.248,2.952,3.336c0,2.112-1.128,3.384-3,3.384c-0.756,0-1.308-0.192-1.86-0.648
		c-0.264-0.204-0.372-0.336-0.564-0.624c0.024,0.228,0.036,0.324,0.036,0.48v0.672H125.747z M129.071,110.287
		c-1.416,0-2.352,1.032-2.352,2.568c0,1.548,0.936,2.604,2.316,2.604c1.344,0,2.136-0.972,2.136-2.616
		C131.17,111.222,130.402,110.287,129.071,110.287z"/>
	<path fill="#008CD6" d="M137.771,115.267c-0.468,0.42-0.696,0.576-1.104,0.732c-0.408,0.156-0.84,0.24-1.248,0.24
		c-1.32,0-2.124-0.684-2.124-1.824c0-0.96,0.6-1.656,1.716-1.968c0.708-0.204,1.284-0.276,2.76-0.312v-0.696
		c0-0.816-0.516-1.236-1.512-1.236c-0.66,0-1.152,0.168-1.488,0.516c-0.156,0.168-0.252,0.336-0.372,0.696l-0.936-0.204
		c0.216-0.552,0.372-0.804,0.672-1.068c0.492-0.456,1.212-0.684,2.112-0.684c1.584,0,2.4,0.672,2.4,1.968v3.372
		c0,0.54,0.024,0.84,0.096,1.32h-0.972V115.267z M137.771,112.842c-1.428,0.036-2.112,0.12-2.652,0.348
		c-0.612,0.252-0.912,0.66-0.912,1.236c0,0.66,0.492,1.08,1.272,1.08c0.696,0,1.452-0.336,1.92-0.852
		c0.276-0.3,0.372-0.552,0.372-1.032V112.842z"/>
	<path fill="#008CD6" d="M141.034,114.198c0.084,0.444,0.18,0.66,0.42,0.876c0.3,0.276,0.78,0.42,1.392,0.42
		c1.044,0,1.704-0.444,1.704-1.152c0-0.336-0.12-0.588-0.372-0.744c-0.288-0.18-0.528-0.252-1.416-0.432
		c-0.96-0.204-1.368-0.348-1.776-0.624c-0.42-0.288-0.648-0.732-0.648-1.26c0-0.432,0.18-0.84,0.516-1.164
		c0.42-0.408,1.068-0.624,1.872-0.624c0.816,0,1.452,0.192,1.884,0.576c0.312,0.264,0.48,0.54,0.636,1.092l-0.948,0.156
		c-0.072-0.324-0.132-0.468-0.3-0.636c-0.276-0.3-0.708-0.456-1.248-0.456c-0.876,0-1.5,0.444-1.5,1.08
		c0,0.276,0.144,0.516,0.408,0.66c0.276,0.156,0.588,0.252,1.332,0.408c1.164,0.264,1.548,0.408,1.908,0.684
		c0.372,0.3,0.576,0.756,0.576,1.248c0,1.2-1.02,1.944-2.664,1.944c-1.092,0-1.932-0.324-2.376-0.936
		c-0.18-0.252-0.264-0.456-0.384-0.948L141.034,114.198z"/>
	<path fill="#008CD6" d="M147.454,113.022c0.036,0.804,0.156,1.248,0.48,1.68c0.384,0.528,0.972,0.816,1.692,0.816
		c0.972,0,1.644-0.48,1.98-1.404l0.84,0.336c-0.228,0.504-0.384,0.72-0.66,0.996c-0.564,0.552-1.296,0.84-2.172,0.84
		c-1.884,0-3.072-1.32-3.072-3.396c0-2.052,1.176-3.396,2.976-3.396c1.548,0,2.664,0.996,2.904,2.604
		c0.012,0.132,0.06,0.6,0.084,0.924H147.454z M151.546,112.267c-0.072-0.672-0.252-1.104-0.636-1.476
		c-0.372-0.36-0.84-0.54-1.416-0.54c-0.732,0-1.344,0.372-1.704,1.044c-0.168,0.3-0.228,0.516-0.3,0.972H151.546z"/>
</g>
</svg>
