<?xml version="1.0" encoding="utf-8"?>
<!-- Generator: Adobe Illustrator 12.0.0, SVG Export Plug-In . SVG Version: 6.00 Build 51448)  -->
<!DOCTYPE svg PUBLIC "-//W3C//DTD SVG 1.1//EN" "http://www.w3.org/Graphics/SVG/1.1/DTD/svg11.dtd" [
	<!ENTITY ns_svg "http://www.w3.org/2000/svg">
	<!ENTITY ns_xlink "http://www.w3.org/1999/xlink">
]>
<svg  version="1.1" id="レイヤー_1" xmlns="&ns_svg;" xmlns:xlink="&ns_xlink;" width="103.887" height="159.819"
	 viewBox="0 0 103.887 159.819" overflow="visible" enable-background="new 0 0 103.887 159.819" xml:space="preserve">
<g>
	<path d="M16.034,133.685c0.399-0.62,0.987-0.935,1.722-0.935c1.344,0,2.153,0.998,2.153,2.646c0,0.819-0.21,1.564-0.588,2.089
		c-0.378,0.515-1.018,0.809-1.732,0.809c-0.62,0-0.977-0.158-1.554-0.683v1.533c0,0.977,0.052,1.04,0.808,1.071v0.242h-2.425v-0.242
		c0.714-0.021,0.767-0.094,0.767-1.071v-5.072c0-0.787-0.126-0.945-0.725-0.945v-0.231l1.575-0.116V133.685z M17.503,138.01
		c0.956,0,1.428-0.84,1.428-2.499c0-1.659-0.441-2.467-1.333-2.467c-0.483,0-0.945,0.263-1.197,0.683
		c-0.273,0.451-0.409,1.05-0.409,1.837C15.992,137.191,16.506,138.01,17.503,138.01z"/>
	<path d="M21.945,135.238c0.01,0.725,0.073,1.145,0.241,1.575c0.305,0.777,0.819,1.155,1.575,1.155c0.745,0,1.313-0.388,1.732-1.187
		l0.241,0.137c-0.472,0.966-1.187,1.417-2.215,1.417c-1.501,0-2.53-1.113-2.53-2.72c0-1.701,1.008-2.866,2.488-2.866
		c0.956,0,1.68,0.483,2.005,1.333c0.105,0.283,0.147,0.536,0.168,1.155H21.945z M24.738,134.955c-0.011-0.557-0.063-0.861-0.2-1.166
		c-0.231-0.515-0.588-0.777-1.082-0.777c-0.504,0-0.924,0.284-1.208,0.819c-0.157,0.304-0.22,0.577-0.283,1.124H24.738z"/>
	<path d="M28.035,132.781c0.021,0.525,0.032,0.662,0.032,0.882c0,0.073,0,0.189,0,0.336c0.346-0.798,0.914-1.25,1.533-1.25
		c0.452,0,0.798,0.283,0.798,0.651c0,0.263-0.221,0.431-0.557,0.431c-0.231,0-0.326-0.063-0.389-0.263
		c-0.063-0.231-0.126-0.294-0.294-0.294c-0.273,0-0.567,0.231-0.788,0.63c-0.189,0.347-0.283,0.777-0.283,1.333v1.648
		c0,0.987,0.052,1.061,0.756,1.082v0.231h-2.404v-0.231c0.703-0.021,0.766-0.105,0.766-1.082v-2.814
		c0-0.787-0.126-0.945-0.724-0.945v-0.231L28.035,132.781z"/>
	<path d="M31.006,136.541h0.325c0.042,0.493,0.116,0.746,0.294,0.977c0.273,0.378,0.662,0.567,1.145,0.567
		c0.714,0,1.145-0.368,1.145-0.987c0-0.241-0.094-0.472-0.252-0.609c-0.189-0.157-0.22-0.168-1.176-0.588
		c-1.134-0.494-1.48-0.872-1.48-1.585c0-0.368,0.105-0.725,0.283-0.966c0.284-0.378,0.777-0.599,1.302-0.599
		c0.273,0,0.409,0.021,0.977,0.126c0.084,0.01,0.157,0.021,0.22,0.021c0.126,0,0.294-0.021,0.504-0.074l-0.052,1.659h-0.347
		c-0.021-0.935-0.483-1.491-1.25-1.491c-0.651,0-1.071,0.368-1.071,0.935c0,0.242,0.094,0.431,0.284,0.567
		c0.199,0.147,0.399,0.252,1.092,0.546c0.704,0.294,0.966,0.451,1.208,0.714c0.22,0.242,0.347,0.588,0.347,0.998
		c0,0.966-0.641,1.585-1.628,1.585c-0.294,0-0.43-0.021-1.05-0.126c-0.147-0.021-0.273-0.032-0.389-0.032
		c-0.115,0-0.262,0.011-0.472,0.042L31.006,136.541z"/>
	<path d="M36.34,133.454c0.441-0.452,1.103-0.704,1.827-0.704c1.533,0,2.541,1.082,2.541,2.73c0,1.753-1.008,2.856-2.604,2.856
		c-1.522,0-2.53-1.082-2.53-2.709C35.574,134.755,35.857,133.947,36.34,133.454z M38.136,138.084c1.029,0,1.596-0.893,1.596-2.51
		c0-1.638-0.588-2.583-1.617-2.583c-1.008,0-1.564,0.893-1.564,2.499C36.55,137.139,37.127,138.084,38.136,138.084z"/>
	<path d="M43.155,133.863c0.462-0.809,0.977-1.113,1.848-1.113c0.662,0,1.092,0.199,1.375,0.651c0.2,0.305,0.273,0.672,0.273,1.313
		v2.173c0,0.987,0.052,1.061,0.766,1.082v0.231h-2.383v-0.231c0.347-0.01,0.536-0.052,0.62-0.157
		c0.063-0.084,0.094-0.168,0.105-0.347c0.01-0.115,0.031-0.504,0.031-0.578v-2.11c0-0.525-0.052-0.893-0.168-1.134
		c-0.168-0.368-0.483-0.557-0.924-0.557c-0.494,0-0.893,0.231-1.187,0.704c-0.221,0.346-0.357,0.851-0.357,1.281v1.816
		c0,0.987,0.052,1.061,0.766,1.082v0.231h-2.394v-0.231c0.703-0.021,0.766-0.105,0.766-1.082v-2.814
		c0-0.787-0.126-0.945-0.724-0.945v-0.231l1.585-0.116V133.863z"/>
	<path d="M53.056,138.178c-0.409,0.063-0.871,0.105-1.081,0.105c-0.315,0-0.399-0.168-0.441-0.871
		c-0.168,0.189-0.304,0.304-0.514,0.451c-0.462,0.336-0.83,0.452-1.365,0.452c-0.462,0-0.809-0.105-1.071-0.326
		c-0.284-0.252-0.462-0.672-0.462-1.113c0-0.83,0.525-1.365,1.543-1.596c0.546-0.126,1.103-0.199,1.869-0.252v-0.662
		c0-0.483-0.042-0.735-0.147-0.955c-0.136-0.273-0.43-0.41-0.861-0.41c-0.693,0-1.05,0.315-1.092,0.966
		c-0.011,0.221-0.032,0.294-0.116,0.357c-0.073,0.053-0.21,0.084-0.368,0.084c-0.357,0-0.514-0.094-0.514-0.315
		c0-0.378,0.273-0.756,0.714-1.008c0.399-0.221,0.914-0.336,1.533-0.336c0.672,0,1.155,0.157,1.407,0.462
		c0.21,0.263,0.305,0.609,0.305,1.187c0,0.031,0,0.031-0.021,1.061l-0.011,0.998l-0.01,0.483c0,0.441,0.052,0.819,0.115,0.903
		s0.189,0.116,0.588,0.116V138.178z M51.533,135.27c-0.934,0.084-1.344,0.168-1.764,0.378c-0.462,0.221-0.704,0.641-0.704,1.197
		c0,0.662,0.357,1.113,0.882,1.113c0.536,0,1.082-0.315,1.344-0.767c0.168-0.294,0.241-0.735,0.241-1.428V135.27z"/>
	<path d="M53.781,137.968c0.693-0.021,0.745-0.105,0.745-1.082v-5.113c0-0.515-0.042-0.767-0.157-0.861
		c-0.074-0.063-0.231-0.084-0.588-0.095v-0.231l1.68-0.084c-0.042,0.704-0.063,1.543-0.063,2.1v4.284
		c0,0.977,0.053,1.061,0.756,1.082v0.231h-2.373V137.968z"/>
	<path d="M58.558,132.781c-0.032,0.609-0.063,1.522-0.063,1.964v2.142c0,0.977,0.052,1.061,0.756,1.082v0.231h-2.394v-0.231
		c0.725-0.021,0.777-0.105,0.777-1.082v-2.803c0-0.525-0.042-0.767-0.157-0.861c-0.084-0.073-0.252-0.094-0.62-0.094v-0.231
		L58.558,132.781z M58.033,130.555c0.325,0,0.588,0.263,0.588,0.588c0,0.336-0.263,0.598-0.588,0.598
		c-0.336,0-0.599-0.262-0.599-0.598C57.435,130.818,57.697,130.555,58.033,130.555z"/>
	<path d="M62.244,133.159c-1.145,0-1.501,0.284-1.732,1.375l-0.294-0.031l0.168-1.606h3.759v0.305l-3.139,4.735h0.976
		c1.302,0,1.785-0.378,2.048-1.627l0.294,0.031l-0.221,1.858h-4.084v-0.262l3.161-4.778H62.244z"/>
	<path d="M70.15,138.178c-0.41,0.063-0.872,0.105-1.082,0.105c-0.315,0-0.399-0.168-0.441-0.871
		c-0.168,0.189-0.304,0.304-0.514,0.451c-0.462,0.336-0.83,0.452-1.365,0.452c-0.462,0-0.809-0.105-1.071-0.326
		c-0.284-0.252-0.462-0.672-0.462-1.113c0-0.83,0.525-1.365,1.543-1.596c0.546-0.126,1.103-0.199,1.869-0.252v-0.662
		c0-0.483-0.042-0.735-0.147-0.955c-0.136-0.273-0.43-0.41-0.861-0.41c-0.693,0-1.05,0.315-1.092,0.966
		c-0.011,0.221-0.032,0.294-0.116,0.357c-0.073,0.053-0.21,0.084-0.368,0.084c-0.357,0-0.514-0.094-0.514-0.315
		c0-0.378,0.273-0.756,0.714-1.008c0.399-0.221,0.914-0.336,1.533-0.336c0.672,0,1.155,0.157,1.407,0.462
		c0.21,0.263,0.305,0.609,0.305,1.187c0,0.031,0,0.031-0.021,1.061l-0.011,0.998l-0.01,0.483c0,0.441,0.052,0.819,0.115,0.903
		s0.189,0.116,0.588,0.116V138.178z M68.627,135.27c-0.934,0.084-1.344,0.168-1.764,0.378c-0.462,0.221-0.704,0.641-0.704,1.197
		c0,0.662,0.357,1.113,0.882,1.113c0.536,0,1.082-0.315,1.344-0.767c0.168-0.294,0.241-0.735,0.241-1.428V135.27z"/>
	<path d="M72.439,136.708c0,0.62,0.031,0.893,0.136,1.04s0.273,0.22,0.515,0.22c0.231,0,0.431-0.052,0.662-0.189l0.094,0.273
		c-0.346,0.179-0.683,0.263-1.061,0.263c-0.514,0-0.903-0.179-1.082-0.515c-0.115-0.21-0.147-0.441-0.147-1.218v-3.402h-0.661
		v-0.241c0.619-0.053,0.934-0.462,1.092-1.449l0.483-0.136c-0.021,0.451-0.031,0.851-0.031,1.543h1.26v0.283h-1.26V136.708z"/>
	<path d="M76.072,132.781c-0.032,0.609-0.063,1.522-0.063,1.964v2.142c0,0.977,0.052,1.061,0.756,1.082v0.231h-2.394v-0.231
		c0.725-0.021,0.777-0.105,0.777-1.082v-2.803c0-0.525-0.042-0.767-0.157-0.861c-0.084-0.073-0.252-0.094-0.62-0.094v-0.231
		L76.072,132.781z M75.547,130.555c0.325,0,0.588,0.263,0.588,0.588c0,0.336-0.263,0.598-0.588,0.598
		c-0.336,0-0.599-0.262-0.599-0.598C74.949,130.818,75.211,130.555,75.547,130.555z"/>
	<path d="M78.372,133.454c0.441-0.452,1.103-0.704,1.827-0.704c1.533,0,2.541,1.082,2.541,2.73c0,1.753-1.008,2.856-2.604,2.856
		c-1.522,0-2.53-1.082-2.53-2.709C77.605,134.755,77.889,133.947,78.372,133.454z M80.167,138.084c1.029,0,1.596-0.893,1.596-2.51
		c0-1.638-0.588-2.583-1.617-2.583c-1.008,0-1.564,0.893-1.564,2.499C78.582,137.139,79.159,138.084,80.167,138.084z"/>
	<path d="M85.187,133.863c0.462-0.809,0.977-1.113,1.848-1.113c0.662,0,1.092,0.199,1.375,0.651c0.2,0.305,0.273,0.672,0.273,1.313
		v2.173c0,0.987,0.053,1.061,0.767,1.082v0.231h-2.383v-0.231c0.347-0.01,0.536-0.052,0.62-0.157
		c0.063-0.084,0.094-0.168,0.105-0.347c0.01-0.115,0.031-0.504,0.031-0.578v-2.11c0-0.525-0.052-0.893-0.168-1.134
		c-0.168-0.368-0.483-0.557-0.924-0.557c-0.494,0-0.893,0.231-1.187,0.704c-0.221,0.346-0.357,0.851-0.357,1.281v1.816
		c0,0.987,0.052,1.061,0.767,1.082v0.231h-2.394v-0.231c0.703-0.021,0.766-0.105,0.766-1.082v-2.814
		c0-0.787-0.126-0.945-0.724-0.945v-0.231l1.585-0.116V133.863z"/>
	<path d="M16.778,151.125c1.512-2.604,1.974-3.612,2.73-5.754c0.672-1.974,1.071-3.444,1.26-4.662
		c0.798,0.21,1.722,0.462,1.995,0.567c0.168,0.063,0.252,0.147,0.252,0.252c0,0.21-0.273,0.336-0.84,0.399
		c-1.155,2.982-1.491,3.78-2.163,5.019c1.26,0.273,1.659,0.42,1.659,0.609c0,0.168-0.21,0.294-0.714,0.462v6.594
		c0,0.147,0.021,2.709,0.042,4.851c-0.021,0.126-0.063,0.189-0.189,0.231c-0.147,0.042-0.714,0.105-0.966,0.105
		s-0.357-0.105-0.357-0.357c0.063-2.058,0.105-4.914,0.105-7.35v-4.347c-0.693,1.155-1.218,1.911-2.52,3.57L16.778,151.125z
		 M24.716,159.21c0,0.168-0.021,0.231-0.105,0.273c-0.126,0.105-0.609,0.189-1.029,0.189c-0.231,0-0.336-0.063-0.336-0.189
		c0,0,0-0.021,0-0.042c0.063-3.213,0.084-6.3,0.084-9.891c0-2.772-0.042-5.754-0.084-7.917c0.714,0.336,0.945,0.441,1.596,0.819
		h8.736c0.357-0.42,0.462-0.546,0.84-0.966c0.588,0.42,0.777,0.546,1.281,0.924c0.189,0.147,0.273,0.231,0.273,0.294
		c0,0.126-0.231,0.315-0.735,0.63c-0.021,3.759-0.021,3.759-0.021,4.599c0,0.819,0,0.903,0.021,3.612l0.042,5.208
		c0,0.882,0,1.029,0.063,2.352c0,0.126-0.021,0.189-0.063,0.231c-0.084,0.147-0.609,0.273-1.134,0.273
		c-0.21,0-0.315-0.084-0.315-0.252c0-0.021,0-0.042,0-0.063v-1.092h-9.114V159.21z M24.716,157.719h9.114v-14.784h-9.114V157.719z
		 M31.101,146.736c0.42-0.525,0.546-0.693,1.008-1.176c0.63,0.588,0.819,0.756,1.407,1.365c0.063,0.063,0.105,0.126,0.105,0.168
		c0,0.084-0.084,0.126-0.252,0.126H29.84v3.171h1.134c0.294-0.336,0.378-0.42,0.693-0.735c0.462,0.315,0.609,0.399,1.029,0.735
		c0.189,0.147,0.273,0.252,0.273,0.336c0,0.147-0.084,0.21-0.525,0.483c0,2.604,0,2.604,0.042,4.704
		c-0.021,0.168-0.063,0.231-0.231,0.273c-0.189,0.042-0.63,0.105-0.84,0.105s-0.294-0.084-0.315-0.294v-0.84h-3.57v0.756
		c0,0.021,0,0.042,0,0.063c0,0.126-0.042,0.189-0.147,0.252c-0.084,0.042-0.693,0.105-0.945,0.105c-0.168,0-0.252-0.063-0.252-0.252
		c0.042-1.029,0.063-1.722,0.063-4.2c0-0.294-0.021-0.777-0.063-2.226c0.588,0.294,0.777,0.399,1.344,0.735h1.05v-3.171h-1.701
		c-0.798,0-0.945,0.021-1.596,0.126l-0.189-0.798c0.714,0.126,1.218,0.189,1.785,0.189h1.701v-1.533
		c0-0.714-0.021-0.966-0.126-1.554c1.869,0.21,2.1,0.252,2.1,0.483c-0.021,0.168-0.147,0.252-0.714,0.483v2.121H31.101z
		 M27.53,154.674h3.57v-3.801h-3.57V154.674z"/>
	<path d="M42.461,159.147c1.932-1.365,2.94-2.31,4.011-3.717c1.911-2.499,3.171-5.313,3.801-8.526
		c0.315-1.575,0.483-3.171,0.483-4.494c0-0.42-0.021-0.651-0.063-1.218c2.289,0.294,2.541,0.357,2.541,0.567
		c0,0.168-0.084,0.21-0.903,0.546c-0.021,0.294-0.021,0.462-0.021,0.651c0,3.066,1.155,6.678,2.961,9.261
		c1.134,1.617,2.604,3.024,4.263,4.053c0.798,0.504,1.26,0.735,2.394,1.155l-0.021,0.252c-0.063,0-0.126,0-0.147,0
		c-0.483,0-0.819,0.126-1.071,0.42c-0.21,0.231-0.315,0.42-0.609,1.05c-2.121-1.344-3.696-2.961-5.019-5.082
		c-0.966-1.554-1.869-3.78-2.436-5.859c-0.252-0.924-0.357-1.575-0.504-3.045c-0.609,3.906-1.596,6.573-3.36,9.093
		c-1.617,2.289-3.339,3.738-6.132,5.166L42.461,159.147z"/>
	<path d="M67.115,151.44c0.882-0.966,1.365-1.596,2.184-2.919c1.911-3.003,3.129-5.67,3.654-7.896
		c1.764,0.588,2.289,0.798,2.289,0.966c0,0.189-0.21,0.294-0.987,0.483c-0.987,2.163-1.785,3.591-2.877,5.082
		c0.168,0.021,0.273,0.042,0.357,0.042c0.84,0.126,1.176,0.231,1.176,0.42c0,0.126-0.294,0.315-0.714,0.462v7.77l0.021,2.079
		l0.021,1.428c-0.042,0.231-0.084,0.315-0.273,0.378c-0.105,0.042-0.609,0.084-0.903,0.084c-0.315,0-0.483-0.105-0.483-0.315
		c0-0.021,0-0.084,0-0.105c0.063-1.197,0.147-4.683,0.147-5.397v-5.964c-1.26,1.617-2.121,2.562-3.381,3.654L67.115,151.44z
		 M78.119,150.327c2.163-1.638,4.536-4.368,5.691-6.573c1.617,0.903,2.163,1.281,2.163,1.449c0,0.189-0.21,0.252-0.714,0.252
		c-0.042,0-0.189,0-0.315,0c-2.268,2.079-2.541,2.31-3.78,3.297c-1.491,1.176-2.331,1.764-3.045,2.163v6.426
		c0,0.336,0.042,0.441,0.189,0.504c0.231,0.105,1.218,0.189,2.31,0.189c0.399,0,2.289-0.042,2.646-0.042
		c0.672-0.042,0.735-0.084,0.924-0.588c0.231-0.588,0.714-2.268,1.386-4.914h0.336l-0.399,4.578
		c-0.021,0.084-0.021,0.168-0.021,0.231c0,0.231,0.084,0.315,0.63,0.483c0.273,0.084,0.399,0.252,0.399,0.546
		c0,0.798-1.05,1.071-4.116,1.071c-2.751,0-4.389-0.084-4.872-0.231c-0.693-0.189-0.903-0.546-0.924-1.449c0-0.882,0-1.302,0-1.722
		v-13.461c0-0.588,0-0.945-0.042-1.701c2.331,0.336,2.436,0.357,2.436,0.567c0,0.168-0.231,0.315-0.882,0.567V150.327z"/>
</g>
<g>
	<path d="M35.485,93.511c0,0.977,0.063,1.061,0.83,1.082v0.231h-2.446v-0.231c0.703-0.021,0.756-0.105,0.756-1.082v-3.706h-0.809
		v-0.284h0.809c-0.011-0.41-0.021-0.788-0.021-0.977c0-0.473,0.105-0.756,0.389-1.019c0.283-0.262,0.745-0.42,1.239-0.42
		c0.746,0,1.323,0.336,1.323,0.777c0,0.21-0.2,0.336-0.515,0.336c-0.158,0-0.284-0.042-0.347-0.094
		c-0.063-0.063-0.063-0.063-0.115-0.347c-0.053-0.325-0.189-0.451-0.494-0.451c-0.41,0-0.62,0.336-0.62,1.018
		c0,0.158,0,0.263,0.011,0.767c0,0.105,0.01,0.242,0.01,0.41h1.396v0.284h-1.396V93.511z"/>
	<path d="M38.887,89.406c0.021,0.525,0.032,0.662,0.032,0.882c0,0.073,0,0.189,0,0.336c0.346-0.798,0.914-1.25,1.533-1.25
		c0.452,0,0.798,0.283,0.798,0.651c0,0.263-0.221,0.431-0.557,0.431c-0.231,0-0.326-0.063-0.389-0.263
		c-0.063-0.231-0.126-0.294-0.294-0.294c-0.273,0-0.567,0.231-0.788,0.63c-0.189,0.347-0.283,0.777-0.283,1.333v1.648
		c0,0.987,0.052,1.061,0.756,1.082v0.231h-2.404v-0.231c0.703-0.021,0.766-0.105,0.766-1.082v-2.814
		c0-0.787-0.126-0.945-0.724-0.945v-0.231L38.887,89.406z"/>
	<path d="M42.52,90.078c0.441-0.452,1.103-0.704,1.827-0.704c1.533,0,2.541,1.082,2.541,2.73c0,1.753-1.008,2.856-2.604,2.856
		c-1.522,0-2.53-1.082-2.53-2.709C41.753,91.38,42.037,90.571,42.52,90.078z M44.315,94.708c1.029,0,1.596-0.893,1.596-2.51
		c0-1.638-0.588-2.583-1.617-2.583c-1.008,0-1.564,0.893-1.564,2.499C42.73,93.763,43.307,94.708,44.315,94.708z"/>
	<path d="M49.334,90.487c0.462-0.809,0.977-1.113,1.848-1.113c0.662,0,1.092,0.199,1.375,0.651c0.2,0.305,0.273,0.672,0.273,1.313
		v2.173c0,0.987,0.052,1.061,0.766,1.082v0.231h-2.383v-0.231c0.347-0.01,0.536-0.052,0.62-0.157
		c0.063-0.084,0.094-0.168,0.105-0.347c0.01-0.115,0.031-0.504,0.031-0.578v-2.11c0-0.525-0.052-0.893-0.168-1.134
		c-0.168-0.368-0.483-0.557-0.924-0.557c-0.494,0-0.893,0.231-1.187,0.704c-0.221,0.346-0.357,0.851-0.357,1.281v1.816
		c0,0.987,0.052,1.061,0.766,1.082v0.231h-2.394v-0.231c0.703-0.021,0.766-0.105,0.766-1.082v-2.814
		c0-0.787-0.126-0.945-0.724-0.945v-0.231l1.585-0.116V90.487z"/>
	<path d="M55.802,93.333c0,0.62,0.031,0.893,0.136,1.04s0.273,0.22,0.515,0.22c0.231,0,0.431-0.052,0.662-0.189l0.094,0.273
		c-0.346,0.179-0.683,0.263-1.061,0.263c-0.514,0-0.903-0.179-1.082-0.515c-0.115-0.21-0.147-0.441-0.147-1.218v-3.402h-0.661
		v-0.242c0.619-0.053,0.935-0.462,1.092-1.449l0.483-0.136c-0.021,0.451-0.031,0.851-0.031,1.543h1.26v0.284h-1.26V93.333z"/>
	<path d="M59.435,89.406c-0.032,0.609-0.063,1.522-0.063,1.964v2.142c0,0.977,0.052,1.061,0.756,1.082v0.231h-2.394v-0.231
		c0.725-0.021,0.777-0.105,0.777-1.082v-2.803c0-0.525-0.042-0.767-0.157-0.861c-0.084-0.074-0.252-0.095-0.62-0.095v-0.231
		L59.435,89.406z M58.91,87.18c0.325,0,0.588,0.262,0.588,0.588c0,0.336-0.263,0.598-0.588,0.598c-0.336,0-0.599-0.262-0.599-0.598
		C58.312,87.442,58.574,87.18,58.91,87.18z"/>
	<path d="M61.945,91.863c0.01,0.725,0.073,1.145,0.241,1.575c0.305,0.777,0.819,1.155,1.575,1.155c0.746,0,1.313-0.388,1.732-1.187
		l0.241,0.137c-0.472,0.966-1.186,1.417-2.215,1.417c-1.501,0-2.53-1.113-2.53-2.72c0-1.701,1.008-2.866,2.488-2.866
		c0.956,0,1.68,0.483,2.005,1.333c0.105,0.283,0.147,0.536,0.168,1.155H61.945z M64.738,91.58c-0.011-0.557-0.063-0.861-0.2-1.166
		c-0.231-0.515-0.588-0.777-1.082-0.777c-0.504,0-0.924,0.284-1.208,0.819c-0.157,0.304-0.22,0.577-0.283,1.124H64.738z"/>
	<path d="M68.034,89.406c0.021,0.525,0.032,0.662,0.032,0.882c0,0.073,0,0.189,0,0.336c0.346-0.798,0.914-1.25,1.533-1.25
		c0.452,0,0.798,0.283,0.798,0.651c0,0.263-0.221,0.431-0.557,0.431c-0.231,0-0.326-0.063-0.389-0.263
		c-0.063-0.231-0.126-0.294-0.294-0.294c-0.273,0-0.567,0.231-0.788,0.63c-0.189,0.347-0.283,0.777-0.283,1.333v1.648
		c0,0.987,0.052,1.061,0.756,1.082v0.231h-2.404v-0.231c0.703-0.021,0.766-0.105,0.766-1.082v-2.814
		c0-0.787-0.126-0.945-0.724-0.945v-0.231L68.034,89.406z"/>
	<path d="M14.385,101.429c0.525-0.651,0.693-0.861,1.26-1.491c0.84,0.714,1.092,0.945,1.869,1.701
		c0.063,0.063,0.105,0.105,0.105,0.147c0,0.084-0.063,0.126-0.21,0.126h-6.867v4.074h5.502c0.588-0.672,0.777-0.882,1.365-1.491
		c0.861,0.714,1.113,0.945,1.932,1.701c0.063,0.084,0.105,0.126,0.105,0.168c0,0.063-0.063,0.105-0.21,0.105h-8.421
		c0.735,1.344,1.491,2.331,2.709,3.486c1.827,1.722,3.759,2.73,6.405,3.36l-0.042,0.252c-0.924,0.168-1.197,0.441-1.575,1.491
		c-1.785-0.903-3.129-1.932-4.599-3.465c-1.386-1.428-2.289-2.793-3.171-4.683v4.221c0.042,3.885,0.042,3.885,0.063,4.977
		c0,0.042,0,0.063,0,0.084c0,0.231-0.357,0.336-1.218,0.336c-0.231,0-0.294-0.042-0.315-0.252c0.021-1.029,0.021-1.029,0.042-2.478
		c0-0.735,0-0.735,0.042-2.499v-3.57c-1.428,1.89-2.604,3.171-4.305,4.578c-1.638,1.365-2.751,2.058-4.662,2.94L0,114.953
		c2.268-1.407,3.507-2.478,5.565-4.746c1.323-1.491,1.911-2.289,2.73-3.738H2.31c-0.525,0-0.903,0.021-1.617,0.126l-0.189-0.819
		c0.693,0.147,1.26,0.21,2.163,0.21h6.489v-4.074H4.053c-0.567,0-0.945,0.021-1.722,0.126l-0.168-0.819
		c0.735,0.168,1.281,0.21,2.247,0.21h4.746v-1.407c0-1.47-0.021-1.785-0.168-2.688c0.462,0.063,0.861,0.126,1.071,0.147
		c1.071,0.147,1.344,0.252,1.344,0.462c0,0.168-0.105,0.231-0.861,0.462v3.024H14.385z"/>
	<path d="M23.604,103.718v12.558c-0.021,0.294-0.21,0.357-1.113,0.357c-0.252,0-0.357-0.063-0.357-0.252
		c0.105-2.751,0.126-5.733,0.126-13.65c0-2.31-0.021-3.654-0.063-5.418c0.735,0.336,0.966,0.462,1.659,0.903h4.137
		c0.336-0.441,0.441-0.567,0.756-1.008c0.546,0.378,0.714,0.483,1.218,0.882c0.147,0.126,0.189,0.21,0.189,0.294
		c0,0.147-0.147,0.252-0.672,0.546c0,0.462,0,0.693,0,1.05c0,0.756,0,1.344,0.063,4.452c0,0.168-0.042,0.21-0.21,0.252
		c-0.105,0.042-0.567,0.084-0.819,0.084s-0.357-0.084-0.357-0.252c0,0,0-0.021,0-0.042v-0.756H23.604z M28.161,98.699h-4.557v1.974
		h4.557V98.699z M28.161,101.156h-4.557v2.079h4.557V101.156z M33.558,109.808h1.155c0.42-0.546,0.567-0.693,0.987-1.197
		c0.672,0.609,0.903,0.819,1.596,1.47c0.021,0.042,0.042,0.084,0.042,0.126s-0.063,0.084-0.126,0.084h-3.654v1.071
		c0,1.596,0,2.163,0.063,4.116c0,0.021,0,0.042,0,0.063c0,0.231-0.315,0.336-1.029,0.336c-0.231,0-0.357-0.084-0.357-0.252
		c0,0,0-0.042,0-0.063c0.021-0.609,0.021-1.995,0.042-4.116v-1.155h-2.961c-0.21,1.722-0.525,2.604-1.281,3.57
		c-0.84,1.05-1.743,1.701-3.276,2.352l-0.21-0.252c1.47-0.924,2.352-1.827,2.961-3.087c0.336-0.693,0.441-1.155,0.567-2.583h-1.449
		c-0.693,0-1.218,0.042-1.701,0.126l-0.189-0.777c0.546,0.126,1.029,0.168,1.89,0.168h1.491c0.042-0.735,0.063-1.386,0.063-1.995
		c0-0.483,0-0.588-0.021-1.071h-1.197c-0.735,0-1.008,0.021-1.554,0.105l-0.189-0.777c0.567,0.147,0.987,0.189,1.743,0.189h7.098
		c0.441-0.525,0.567-0.693,0.966-1.218c0.735,0.609,0.966,0.819,1.659,1.449c0.042,0.063,0.063,0.105,0.063,0.147
		s-0.084,0.105-0.147,0.105h-3.045V109.808z M29.442,106.742c0,0.546,0,0.756,0,0.966c0,0.756-0.021,1.239-0.084,2.1h2.919v-3.066
		H29.442z M33.558,103.718v0.693c-0.021,0.168-0.063,0.231-0.189,0.273c-0.147,0.021-0.546,0.063-0.861,0.063
		c-0.273,0-0.357-0.063-0.357-0.273c0.063-1.512,0.063-1.932,0.063-3.549c0-2.163-0.021-2.667-0.084-3.612
		c0.693,0.378,0.903,0.483,1.533,0.903h4.2c0.378-0.441,0.483-0.588,0.861-1.029c0.525,0.378,0.672,0.483,1.218,0.84
		c0.189,0.147,0.273,0.231,0.273,0.315c0,0.126-0.105,0.231-0.588,0.567v9.765l0.042,6.3c-0.042,0.546-0.189,0.798-0.735,1.113
		c-0.399,0.231-0.819,0.357-1.743,0.504c-0.105-0.966-0.441-1.155-2.478-1.491v-0.315c2.079,0.063,2.121,0.063,2.499,0.063
		c0.147,0,0.399,0,0.693,0c0.231-0.021,0.231-0.042,0.231-0.462v-10.668H33.558z M38.136,98.699h-4.578v1.974h4.578V98.699z
		 M38.136,101.156h-4.578v2.079h4.578V101.156z"/>
	<path d="M47.607,101.996c0.441-0.546,0.588-0.714,1.029-1.197c0.693,0.546,0.903,0.735,1.596,1.407
		c0.021,0.042,0.042,0.105,0.042,0.147c0,0.063-0.084,0.126-0.21,0.126h-3.15v4.2c1.26-0.42,1.659-0.567,3.318-1.26l0.126,0.294
		c-1.554,0.945-2.037,1.218-3.444,1.89v3.969c0,0.105,0,1.533,0.021,3.024c0,0.567-0.063,0.777-0.294,1.071
		c-0.336,0.378-0.756,0.588-1.743,0.84c-0.084-0.525-0.231-0.798-0.588-1.029c-0.273-0.21-0.609-0.294-1.68-0.42l0.021-0.315
		c0.483,0.021,0.483,0.021,1.344,0.063c0.588,0.021,0.588,0.021,1.176,0.042c0.315,0,0.378-0.042,0.378-0.336v-6.321
		c-0.252,0.126-0.84,0.399-1.827,0.819c-0.063,0.798-0.126,0.987-0.315,0.987c-0.063,0-0.147-0.063-0.231-0.21
		c-0.021-0.042-0.231-0.672-0.651-1.89c0.903-0.126,1.743-0.336,3.024-0.777v-4.641h-1.428c-0.609,0-0.84,0.021-1.218,0.105
		l-0.147-0.756c0.567,0.126,0.903,0.168,1.449,0.168h1.344v-2.31c0-1.155-0.021-1.68-0.084-2.394
		c2.079,0.273,2.331,0.336,2.331,0.546c0,0.168-0.231,0.273-0.882,0.441v3.717H47.607z M51.492,108.085
		c-1.05,1.806-2.079,3.045-3.717,4.452l-0.252-0.273c1.092-1.218,1.722-2.1,2.52-3.612c1.26-2.331,2.142-5.397,2.562-8.82h-1.974
		c-0.672,0-0.882,0.021-1.533,0.126l-0.147-0.777c0.714,0.126,1.029,0.168,1.68,0.168h7.581c0.567-0.672,0.735-0.882,1.302-1.512
		c0.84,0.693,1.092,0.924,1.869,1.68c0.042,0.063,0.063,0.126,0.063,0.168c0,0.063-0.105,0.147-0.21,0.147h-6.972
		c-0.084,0.336-0.084,0.336-0.21,1.05c-0.399,1.953-1.05,4.053-1.785,5.67c0.252,0.147,0.357,0.21,0.672,0.42h5.397
		c0.378-0.399,0.483-0.525,0.84-0.903c0.567,0.378,0.735,0.504,1.26,0.903c0.168,0.147,0.252,0.231,0.252,0.294
		c0,0.126-0.21,0.294-0.735,0.588c-0.021,1.239-0.021,1.869-0.021,2.352c0,2.394,0.021,4.368,0.042,5.712
		c0,0.147-0.021,0.189-0.126,0.231c-0.21,0.084-0.672,0.147-1.05,0.147c-0.189,0-0.252-0.042-0.273-0.21v-1.239h-5.67v1.239
		c0,0.126-0.021,0.168-0.063,0.21c-0.126,0.084-0.483,0.147-0.861,0.147c-0.399,0-0.483-0.042-0.483-0.231c0,0,0-0.021,0-0.042
		c0.042-1.533,0.042-2.205,0.042-3.234V108.085z M52.857,114.365h5.67v-6.909h-5.67V114.365z"/>
	<path d="M63.084,106.931c2.058-1.827,3.087-2.982,4.326-4.914c1.05-1.596,1.638-2.793,2.163-4.473
		c0.441,0.168,0.819,0.294,1.05,0.357c1.071,0.378,1.26,0.462,1.26,0.609c0,0.189-0.231,0.273-1.008,0.378
		c-1.26,2.31-2.142,3.57-3.507,4.998c-1.239,1.323-2.289,2.163-4.095,3.297L63.084,106.931z M72.324,106.217
		c-0.315,2.331-0.777,3.864-1.596,5.355c-0.861,1.533-2.205,2.814-4.137,3.885c-0.777,0.42-1.302,0.651-2.436,1.05l-0.147-0.294
		c2.898-1.596,4.599-3.318,5.649-5.67c0.567-1.281,0.819-2.289,1.092-4.326h-2.667c-0.525,0-1.155,0.063-1.68,0.147l-0.147-0.798
		c0.756,0.126,1.155,0.168,1.806,0.168h8.946c0.378-0.357,0.504-0.462,0.882-0.798c0.609,0.378,0.777,0.504,1.302,0.924
		c0.168,0.147,0.231,0.231,0.231,0.315c0,0.168-0.147,0.273-0.735,0.567c-0.21,4.431-0.588,7.182-1.113,8.274
		c-0.42,0.882-1.176,1.155-3.654,1.218c-0.042-0.567-0.21-0.84-0.672-1.071c-0.357-0.168-0.84-0.294-2.499-0.588l0.021-0.378
		c3.087,0.357,3.969,0.441,4.683,0.441c0.819,0,1.05-0.336,1.323-1.974c0.231-1.47,0.399-3.78,0.462-6.447H72.324z M74.928,97.628
		c0,0.231,0.021,0.357,0.084,0.525c0.357,1.113,1.848,3.024,3.213,4.095c1.449,1.155,2.709,1.806,4.746,2.436l0.021,0.273
		c-0.861,0.21-1.197,0.504-1.701,1.449c-1.785-1.176-2.856-2.079-3.99-3.381c-1.008-1.176-1.491-1.953-2.541-4.095
		c-0.252-0.504-0.399-0.735-0.672-0.966L74.928,97.628z"/>
	<path d="M90.006,109.388h1.785c0.483-0.567,0.609-0.714,1.071-1.239c0.714,0.609,0.924,0.798,1.575,1.449
		c0.063,0.063,0.084,0.126,0.084,0.168c0,0.063-0.063,0.105-0.168,0.105h-4.347v2.856c1.554-0.231,2.499-0.42,4.368-0.903
		l0.105,0.294c-1.47,0.63-2.415,0.945-4.935,1.659c-2.331,0.651-2.919,0.819-4.137,1.113c-0.147,0.651-0.21,0.756-0.357,0.756
		c-0.21,0-0.399-0.588-0.756-2.268c0.63-0.021,0.63-0.021,4.431-0.504v-3.003H86.31c-0.567,0-1.029,0.042-1.407,0.126l-0.084-0.798
		c0.567,0.147,0.861,0.189,1.491,0.189h2.415v-2.94h-2.184v0.882c-0.021,0.147-0.063,0.21-0.189,0.231
		c-0.084,0.021-0.672,0.063-0.819,0.063c-0.231,0-0.336-0.084-0.336-0.294c0.042-1.575,0.063-2.772,0.063-5.901
		c0-0.735-0.021-1.995-0.063-3.78c0.672,0.378,0.882,0.504,1.533,0.945h5.397c0.294-0.42,0.378-0.546,0.693-0.945
		c0.567,0.378,0.714,0.504,1.239,0.903c0.189,0.147,0.273,0.252,0.273,0.336c0,0.147-0.273,0.357-0.735,0.567
		c0,4.053,0,6.09,0.042,7.56c0,0.231-0.231,0.294-1.029,0.294c-0.189,0-0.273-0.042-0.273-0.21v-0.651h-2.331V109.388z
		 M88.725,99.077h-2.184v3.171h2.184V99.077z M88.725,102.73h-2.184v3.234h2.184V102.73z M92.337,102.248v-3.171h-2.331v3.171
		H92.337z M90.006,105.965h2.331v-3.234h-2.331V105.965z M101.43,104.642c0.399-0.441,0.546-0.567,0.987-0.987
		c0.546,0.504,0.714,0.672,1.239,1.197c0.063,0.084,0.126,0.168,0.168,0.21s0.063,0.105,0.063,0.126
		c0,0.189-0.315,0.315-0.945,0.441c-1.05,1.344-1.47,1.827-2.688,3.066l-0.231-0.168c0.693-1.239,0.945-1.764,1.638-3.402h-2.478
		v7.161c0,0.294,0,0.441,0.021,2.478c-0.042,0.63-0.168,0.861-0.567,1.092s-0.882,0.399-1.827,0.567
		c-0.105-0.84-0.147-0.945-0.546-1.134c-0.441-0.21-1.176-0.357-2.856-0.609l0.021-0.378c1.323,0.105,1.323,0.105,3.927,0.231
		c0.063,0.021,0.126,0.021,0.168,0.021c0.147,0,0.273-0.105,0.273-0.252v-9.177h-2.226c-0.609,0-1.029,0.042-1.47,0.147
		l-0.084-0.798c0.483,0.126,0.84,0.168,1.554,0.168h3.36c-0.147-0.084-0.168-0.126-0.273-0.378
		c-0.168-0.483-0.609-1.281-0.924-1.701c-0.546-0.798-1.029-1.281-1.932-1.974l0.21-0.231c1.596,0.903,2.037,1.197,2.751,1.785
		c0.945-1.281,1.239-1.743,1.974-3.066h-4.263c-0.798,0-1.239,0.042-1.596,0.168l-0.084-0.84c0.441,0.147,0.861,0.189,1.68,0.189
		h4.263c0.378-0.42,0.504-0.546,0.924-0.945c0.609,0.525,0.777,0.693,1.344,1.26c0.189,0.168,0.231,0.231,0.231,0.315
		c0,0.168-0.357,0.273-1.029,0.315c-1.722,1.638-2.079,1.953-3.15,2.856c0.609,0.567,0.693,0.672,0.693,1.008
		c0,0.252-0.084,0.504-0.252,0.798c-0.168,0.252-0.252,0.315-0.504,0.441H101.43z"/>
</g>
<g>
	<path d="M14.28,51.104c0.966-0.242,1.659-0.504,2.32-0.882c1.229-0.693,1.932-1.722,1.932-2.824c0-1.05-0.777-1.764-1.922-1.764
		c-1.228,0-2.835,0.672-4.221,1.753c-0.168,0.137-0.273,0.179-0.399,0.179c-0.494,0-1.26-0.735-1.26-1.208
		c0-0.074,0.021-0.137,0.084-0.263c0.105,0.221,0.168,0.294,0.294,0.389c0.158,0.116,0.284,0.168,0.431,0.168
		c0.273,0,0.672-0.115,1.271-0.378c1.659-0.725,2.751-1.008,3.843-1.008c1.596,0,2.688,0.934,2.688,2.31
		c0,1.302-0.882,2.426-2.415,3.077c-0.798,0.336-1.565,0.515-2.594,0.609L14.28,51.104z"/>
	<path d="M22.774,44.404c0.41,0.305,0.662,0.578,0.809,0.861c0.095,0.189,0.21,0.577,0.326,1.102
		c0.725-0.388,1.26-0.546,2.194-0.661c0.137-0.515,0.2-0.924,0.2-1.229c0-0.263-0.116-0.347-0.494-0.347c-0.053,0-0.116,0-0.2,0
		l-0.031-0.115c0.283-0.126,0.504-0.179,0.672-0.179c0.399,0,0.83,0.336,0.83,0.641c0,0.189-0.158,0.788-0.315,1.218
		c1.743,0.074,2.94,1.197,2.94,2.772c0,1.166-0.672,2.163-1.911,2.814c-0.641,0.336-1.229,0.504-2.058,0.609l-0.042-0.147
		c0.903-0.273,1.48-0.577,2.037-1.05c0.756-0.662,1.155-1.491,1.155-2.404c0-0.809-0.326-1.48-0.903-1.89
		c-0.378-0.263-0.745-0.378-1.313-0.41c-0.43,1.166-1.103,2.426-1.764,3.276c0.147,0.22,0.199,0.294,0.378,0.525
		c0.304,0.378,0.325,0.42,0.325,0.546s-0.115,0.231-0.252,0.231c-0.241,0-0.567-0.284-0.903-0.767
		c-0.158,0.221-0.399,0.452-0.809,0.777c-0.346,0.262-0.588,0.378-0.84,0.378c-0.242,0-0.357-0.137-0.462-0.536
		c-0.095-0.336-0.137-0.431-0.315-0.683c-0.179-0.241-0.242-0.42-0.242-0.641c0-0.829,0.599-1.722,1.648-2.446
		c-0.189-1.197-0.305-1.533-0.798-2.142L22.774,44.404z M22.732,48.017c-0.231,0.388-0.357,0.84-0.357,1.239
		c0,0.473,0.294,1.008,0.546,1.008c0.242,0,0.767-0.367,1.271-0.903c-0.294-0.683-0.43-1.166-0.651-2.268
		C23.131,47.449,22.932,47.67,22.732,48.017z M24.633,48.814c0.588-0.83,1.06-1.774,1.375-2.793
		c-0.903,0.136-1.386,0.315-2.027,0.756C24.297,48.006,24.381,48.269,24.633,48.814z"/>
	<path d="M32.907,44.698c0.409,0.473,0.767,0.62,1.47,0.62c0.2,0,0.326-0.01,0.609-0.052c0.063-0.473,0.115-0.987,0.115-1.166
		c0-0.378-0.168-0.546-0.683-0.704c0.116-0.095,0.168-0.116,0.305-0.116c0.231,0,0.63,0.105,0.914,0.242
		c0.262,0.136,0.388,0.262,0.388,0.431c0,0.094,0,0.094-0.136,0.273c-0.126,0.178-0.2,0.378-0.326,0.945
		c0.998-0.21,1.617-0.452,1.974-0.746c0.115-0.105,0.158-0.115,0.263-0.115c0.147,0,0.378,0.042,0.493,0.084
		c0.105,0.042,0.168,0.126,0.168,0.231c0,0.189-0.21,0.315-0.903,0.557c-0.525,0.178-1.333,0.367-2.11,0.493
		c-0.095,0.473-0.179,1.113-0.2,1.585c0.599-0.199,1.113-0.304,1.68-0.336c0-0.031,0-0.052,0-0.063c0-0.199-0.084-0.346-0.336-0.578
		c0.052-0.01,0.094-0.021,0.115-0.021c0.273,0,0.578,0.284,0.672,0.63c0.935,0.105,1.512,0.315,2.037,0.745
		c0.473,0.41,0.714,0.956,0.714,1.659c0,1.596-1.627,2.793-4.095,3.003l-0.032-0.168c2.132-0.525,3.318-1.617,3.318-3.077
		c0-0.64-0.273-1.165-0.767-1.491c-0.294-0.189-0.651-0.294-1.218-0.368c-0.157,0.536-0.325,0.893-0.661,1.438
		c-0.368,0.578-0.683,0.966-1.124,1.365c0.136,0.262,0.136,0.262,0.262,0.441c0.074,0.116,0.116,0.252,0.116,0.441
		c0,0.284-0.095,0.483-0.242,0.483c-0.178,0-0.357-0.283-0.609-0.924c-0.672,0.609-1.396,0.998-1.816,0.998
		c-0.252,0-0.368-0.116-0.504-0.483c-0.074-0.179-0.095-0.221-0.2-0.399c-0.157-0.252-0.199-0.399-0.199-0.63
		c0-0.546,0.325-1.092,0.987-1.648c0.389-0.315,0.798-0.567,1.417-0.84c0.01-0.158,0.01-0.158,0.063-0.777
		c0.01-0.179,0.031-0.347,0.094-0.935c-0.199,0.01-0.294,0.021-0.399,0.021c-0.83,0-1.323-0.273-1.753-0.966L32.907,44.698z
		 M33.274,49.108c-0.22,0.336-0.325,0.662-0.325,0.987c0,0.389,0.157,0.641,0.399,0.641c0.336,0,0.987-0.357,1.564-0.851
		c-0.126-0.682-0.158-1.029-0.158-1.69c0-0.073,0-0.21,0-0.378C33.968,48.279,33.6,48.594,33.274,49.108z M35.228,47.943
		c0,0.567,0.053,1.092,0.147,1.533c0.819-0.851,1.197-1.407,1.501-2.268c-0.599,0.052-0.998,0.147-1.648,0.399
		C35.228,47.754,35.228,47.87,35.228,47.943z"/>
	<path d="M47.072,51.502c1.89-0.662,2.919-1.785,2.919-3.171c0-1.029-0.651-1.732-1.596-1.732c-0.935,0-2.131,0.546-3.245,1.48
		c0.011,0.85,0.063,2.005,0.116,2.415c0.031,0.262,0.031,0.304,0.031,0.409c0,0.347-0.084,0.714-0.21,0.977
		c-0.063,0.137-0.157,0.21-0.262,0.21c-0.084,0-0.179-0.052-0.221-0.136c-0.01-0.042-0.01-0.042-0.105-0.294
		c-0.094-0.283-0.147-0.367-0.368-0.63c-0.283-0.336-0.472-0.525-0.798-0.809c-0.052,0.095-0.084,0.158-0.105,0.21
		c-0.147,0.284-0.22,0.378-0.304,0.378c-0.147,0-0.315-0.399-0.315-0.746c0-0.137,0.042-0.221,0.2-0.389
		c0.158-0.157,0.294-0.315,0.452-0.515c0.304-0.388,1.292-1.785,1.554-2.215c0.021-0.378,0.032-0.63,0.042-0.767
		c-0.462,0.263-0.462,0.263-1.029,0.662c-0.2,0.147-0.326,0.2-0.431,0.2c-0.178,0-0.388-0.137-0.557-0.357
		c-0.157-0.2-0.262-0.441-0.262-0.578c0-0.042,0.021-0.095,0.052-0.179c0.179,0.336,0.399,0.504,0.641,0.504
		c0.221,0,0.987-0.305,1.627-0.662c0.021-0.2,0.053-0.819,0.053-1.05c0-0.661-0.074-0.808-0.62-1.208
		c0.074-0.042,0.116-0.052,0.158-0.052c0.21,0,0.577,0.157,0.861,0.368c0.263,0.189,0.389,0.346,0.389,0.493
		c0,0.084,0,0.084-0.126,0.42c-0.105,0.273-0.168,0.515-0.21,0.872c0.252,0.21,0.378,0.368,0.378,0.473c0,0.073,0,0.073-0.179,0.273
		c-0.105,0.136-0.221,0.326-0.378,0.693c-0.021,0.147-0.021,0.189-0.032,0.347c0.609-0.336,0.756-0.41,1.082-0.567
		c0.746-0.368,1.47-0.546,2.142-0.546c1.375,0,2.383,0.924,2.383,2.184c0,1.04-0.598,1.921-1.732,2.552
		c-0.598,0.325-1.145,0.504-1.942,0.64L47.072,51.502z M44.047,49.014c-0.514,0.861-0.514,0.861-0.609,1.029
		c0.473,0.346,0.483,0.357,1.26,0.84c0-0.672,0.042-2.236,0.073-3.119C44.152,48.835,44.142,48.856,44.047,49.014z"/>
	<path d="M56.521,48.143c0.987,0.556,1.354,0.745,1.459,0.745c0.179,0,0.326-0.693,0.473-2.121c-1.029,0.126-1.911,0.325-2.825,0.63
		c-0.031,0.515-0.042,0.83-0.042,1.271c0,1.354,0.105,1.795,0.504,2.068c0.273,0.2,0.672,0.273,1.407,0.273
		c0.599,0,1.313-0.105,1.785-0.252c0.199-0.073,0.21-0.073,0.273-0.073c0.273,0,0.693,0.325,0.693,0.535
		c0,0.126-0.063,0.21-0.189,0.252c-0.231,0.095-1.145,0.179-1.858,0.179c-1.554,0-2.205-0.21-2.667-0.861
		c-0.231-0.315-0.347-0.788-0.41-1.638c-0.021-0.315-0.031-0.662-0.052-1.564c-0.578,0.178-1.092,0.389-1.428,0.578
		c-0.136,0.073-0.189,0.094-0.273,0.094c-0.41,0-1.071-0.672-1.071-1.082c0-0.042,0.01-0.094,0.021-0.157
		c0.241,0.346,0.525,0.504,0.903,0.504c0.336,0,0.63-0.063,1.848-0.399c-0.011-0.536-0.053-1.197-0.105-1.428
		c-0.063-0.336-0.294-0.546-0.83-0.756c0.105-0.074,0.157-0.095,0.273-0.095c0.252,0,0.672,0.126,1.008,0.294
		c0.252,0.116,0.389,0.294,0.389,0.494c0,0.063,0,0.063-0.053,0.263c-0.021,0.084-0.042,0.262-0.052,0.399
		c-0.042,0.557-0.042,0.557-0.063,0.683c1.292-0.315,1.659-0.389,2.856-0.609c0.031-0.378,0.052-1.008,0.052-1.491
		c0-0.441-0.084-0.651-0.346-0.861c-0.179-0.147-0.315-0.21-0.536-0.273c0.105-0.094,0.147-0.115,0.284-0.115
		c0.273,0,0.651,0.105,1.029,0.284c0.273,0.136,0.42,0.294,0.42,0.483c0,0.094,0,0.094-0.094,0.336
		c-0.084,0.241-0.168,0.714-0.263,1.533c0.147-0.021,0.147-0.021,0.62-0.115c0.199-0.042,0.42-0.095,0.693-0.189
		c0.21-0.074,0.252-0.084,0.326-0.084c0.147,0,0.441,0.105,0.714,0.262c0.231,0.126,0.294,0.189,0.294,0.305s-0.115,0.21-0.263,0.21
		c-0.052,0-0.136,0-0.231-0.01c-0.115-0.011-0.745-0.032-0.871-0.032c-0.137,0-0.578,0.032-1.333,0.095
		c-0.105,1.113-0.21,1.848-0.305,2.163c-0.158,0.515-0.473,0.851-0.788,0.851c-0.136,0-0.199-0.052-0.262-0.262
		c-0.042-0.137-0.158-0.284-0.368-0.483c-0.063-0.052-0.063-0.052-0.504-0.441c-0.137-0.115-0.147-0.115-0.326-0.283L56.521,48.143z
		"/>
	<path d="M63.567,45.644c0.431,0.441,0.704,0.577,1.155,0.577c0.409,0,0.851-0.063,1.333-0.199c0.21-0.683,0.357-1.417,0.357-1.774
		c0-0.326-0.158-0.462-0.746-0.662c0.137-0.074,0.189-0.095,0.326-0.095c0.241,0,0.588,0.074,0.903,0.2
		c0.315,0.116,0.473,0.263,0.473,0.42c0,0.074,0,0.074-0.126,0.252c-0.137,0.2-0.368,0.756-0.63,1.501
		c0.588-0.21,0.966-0.409,1.218-0.64c0.168-0.158,0.21-0.179,0.294-0.179c0.137,0,0.389,0.052,0.557,0.116
		c0.115,0.042,0.168,0.105,0.168,0.189c0,0.178-0.168,0.315-0.609,0.514c-0.473,0.21-1.176,0.441-1.838,0.609
		c-0.126,0.357-0.126,0.357-0.441,1.333c-0.21,0.63-0.21,0.63-0.787,2.342c-0.42,1.25-0.557,1.512-0.777,1.512
		c-0.105,0-0.178-0.063-0.241-0.21c-0.084-0.168-0.147-0.43-0.147-0.609c0-0.168,0.01-0.199,0.231-0.515
		c0.525-0.766,0.935-1.68,1.648-3.759c-0.399,0.074-0.704,0.105-1.008,0.105c-0.64,0-1.05-0.273-1.438-0.945L63.567,45.644z
		 M67.756,49.266c-0.01,0.157-0.01,0.283-0.01,0.325c0,0.599,0.284,1.05,0.798,1.271c0.284,0.126,0.714,0.2,1.124,0.2
		c0.431,0,0.672-0.032,1.008-0.158c0.073-0.031,0.136-0.042,0.178-0.042c0.116,0,0.357,0.116,0.536,0.252
		c0.126,0.105,0.189,0.2,0.189,0.294c0,0.231-0.41,0.347-1.239,0.347c-0.808,0-1.48-0.116-1.942-0.336
		c-0.567-0.273-0.893-0.819-0.893-1.522c0-0.231,0.021-0.41,0.095-0.662L67.756,49.266z M68.04,47.323
		c0.756-0.451,1.617-0.703,2.436-0.703c0.221,0,0.494,0.073,0.662,0.189c0.105,0.063,0.168,0.178,0.168,0.294
		c0,0.168-0.095,0.231-0.399,0.241c-0.389,0.021-0.515,0.053-0.809,0.21c-0.21,0.116-0.221,0.116-0.578,0.357
		c-0.199,0.126-0.199,0.126-0.368,0.22l-0.063-0.094c0.126-0.126,0.126-0.126,0.504-0.473c0.094-0.084,0.189-0.168,0.514-0.494
		c-0.693,0-1.25,0.116-2.005,0.389L68.04,47.323z"/>
	<path d="M75.201,44.835c0.252,0.378,0.42,0.557,0.725,0.756c0.367,0.231,0.682,0.347,1.229,0.452
		c0.294-1.459,0.325-1.617,0.325-1.869c0-0.357-0.147-0.578-0.567-0.872c0.084-0.031,0.116-0.042,0.179-0.042
		c0.189,0,0.462,0.116,0.777,0.326c0.336,0.231,0.546,0.525,0.546,0.756c0,0.095-0.031,0.179-0.137,0.305
		c-0.178,0.252-0.294,0.536-0.577,1.459c0.22,0.063,0.315,0.115,0.42,0.231c0.084,0.095,0.147,0.242,0.147,0.347
		c0,0.136-0.126,0.22-0.336,0.22c-0.105,0-0.242-0.021-0.41-0.052c-0.21,0.703-0.336,1.323-0.42,1.942
		c0.252,0.052,0.431,0.073,0.536,0.073c0.031,0,0.052,0,0.084-0.01c0.063-0.011,0.105-0.011,0.115-0.011
		c0.273,0,0.63,0.326,0.63,0.567c0,0.147-0.137,0.241-0.357,0.241c-0.294,0-0.735-0.073-1.113-0.189
		c-0.021,0.252-0.032,0.378-0.032,0.515c0,1.071,0.599,1.669,1.659,1.669c0.714,0,1.333-0.273,1.659-0.714
		c0.231-0.315,0.346-0.672,0.346-1.071c0-0.872-0.588-1.858-1.585-2.625l0.116-0.136c1.554,0.956,2.215,1.827,2.215,2.898
		c0,1.271-1.092,2.236-2.551,2.236c-0.546,0-1.071-0.157-1.428-0.43c-0.546-0.41-0.809-1.04-0.809-1.953
		c0-0.126,0.011-0.263,0.021-0.525c-0.409-0.189-0.619-0.315-0.84-0.536c-0.284-0.294-0.462-0.683-0.462-1.04
		c0-0.242,0.115-0.504,0.325-0.725c0.252-0.252,0.515-0.399,1.019-0.556c-0.42-0.158-0.714-0.347-1.019-0.651
		c-0.22-0.231-0.346-0.441-0.546-0.924L75.201,44.835z M75.821,47.176c-0.158,0.168-0.231,0.326-0.231,0.525
		c0,0.441,0.357,0.767,1.082,0.987c0.053-0.525,0.147-1.124,0.315-1.911C76.377,46.809,76.073,46.924,75.821,47.176z"/>
	<path d="M88.62,51.586c1.134-0.336,1.858-0.767,2.457-1.459c0.62-0.704,0.935-1.564,0.935-2.531c0-1.018-0.41-1.827-1.187-2.32
		c-0.462-0.305-1.155-0.483-1.816-0.483c-0.126,0-0.2,0-0.368,0.021c0.252,0.368,0.326,0.567,0.326,0.872
		c0,0.819-0.588,2.352-1.386,3.633c-0.662,1.05-1.176,1.564-1.564,1.564c-0.179,0-0.347-0.084-0.462-0.22
		c-0.095-0.126-0.116-0.168-0.294-0.672c-0.095-0.273-0.158-0.399-0.462-0.987c-0.168-0.336-0.241-0.62-0.241-0.956
		c0-0.662,0.357-1.438,0.945-2.079c0.851-0.903,2.237-1.47,3.612-1.47c1.06,0,2.037,0.346,2.709,0.966
		c0.672,0.62,1.008,1.449,1.008,2.468c0,1.313-0.767,2.478-2.089,3.181c-0.609,0.326-1.155,0.494-2.048,0.651L88.62,51.586z
		 M85.166,48.321c0,0.504,0.158,1.019,0.42,1.386c0.147,0.189,0.284,0.304,0.399,0.304c0.231,0,0.735-0.567,1.25-1.386
		c0.777-1.239,1.333-2.594,1.333-3.245c0-0.157-0.031-0.262-0.147-0.525C86.594,45.182,85.166,46.704,85.166,48.321z"/>
	<path d="M15.341,61.813c0.798-1.239,1.974-1.869,3.444-1.869c2.688,0,4.305,1.995,4.305,5.292c0,1.638-0.42,3.129-1.176,4.179
		c-0.756,1.029-2.037,1.617-3.465,1.617c-1.239,0-1.953-0.315-3.108-1.365v3.066c0,1.953,0.105,2.079,1.617,2.142v0.483h-4.851
		v-0.483c1.428-0.042,1.533-0.189,1.533-2.142V62.591c0-1.575-0.252-1.89-1.449-1.89v-0.462l3.15-0.231V61.813z M18.281,70.466
		c1.911,0,2.856-1.68,2.856-4.998s-0.882-4.935-2.667-4.935c-0.966,0-1.89,0.525-2.394,1.365c-0.546,0.903-0.819,2.1-0.819,3.675
		C15.257,68.828,16.287,70.466,18.281,70.466z"/>
	<path d="M34.997,70.802c-0.819,0.126-1.743,0.21-2.163,0.21c-0.63,0-0.798-0.336-0.882-1.743c-0.336,0.378-0.609,0.609-1.029,0.903
		c-0.924,0.672-1.659,0.903-2.73,0.903c-0.924,0-1.617-0.21-2.142-0.651c-0.567-0.504-0.924-1.344-0.924-2.226
		c0-1.659,1.05-2.73,3.087-3.192c1.092-0.252,2.205-0.399,3.738-0.504v-1.323c0-0.966-0.084-1.47-0.294-1.911
		c-0.273-0.546-0.861-0.819-1.722-0.819c-1.386,0-2.1,0.63-2.184,1.932c-0.021,0.441-0.063,0.588-0.231,0.714
		c-0.147,0.105-0.42,0.168-0.735,0.168c-0.714,0-1.029-0.189-1.029-0.63c0-0.756,0.546-1.512,1.428-2.016
		c0.798-0.441,1.827-0.672,3.066-0.672c1.344,0,2.31,0.315,2.814,0.924c0.42,0.525,0.609,1.218,0.609,2.373
		c0,0.063,0,0.063-0.042,2.121l-0.021,1.995l-0.021,0.966c0,0.882,0.105,1.638,0.231,1.806c0.126,0.168,0.378,0.231,1.176,0.231
		V70.802z M31.952,64.985c-1.869,0.168-2.688,0.336-3.528,0.756c-0.924,0.441-1.407,1.281-1.407,2.394
		c0,1.323,0.714,2.226,1.764,2.226c1.071,0,2.163-0.63,2.688-1.533c0.336-0.588,0.483-1.47,0.483-2.856V64.985z"/>
	<path d="M46.085,68.156c-0.861,1.953-2.31,2.961-4.326,2.961c-2.961,0-5.019-2.226-5.019-5.439c0-3.423,2.079-5.733,5.145-5.733
		c1.218,0,2.352,0.399,3.108,1.071c0.546,0.504,0.903,1.134,0.903,1.659c0,0.399-0.399,0.651-1.05,0.651
		c-0.294,0-0.567-0.084-0.714-0.21c-0.126-0.126-0.126-0.168-0.168-0.714c-0.126-1.155-0.987-1.932-2.205-1.932
		c-1.911,0-3.045,1.764-3.045,4.788c0,3.192,1.323,5.145,3.507,5.145c1.512,0,2.667-0.861,3.381-2.541L46.085,68.156z"/>
	<path d="M50.453,68.219c0,1.953,0.105,2.121,1.512,2.163v0.462h-4.683v-0.462c1.386-0.042,1.491-0.21,1.491-2.163V57.992
		c0-1.785-0.084-1.89-1.491-1.911v-0.462l3.297-0.168c-0.084,1.407-0.126,3.108-0.126,4.2v6.657l3.297-3.612
		c0.483-0.525,0.735-0.987,0.735-1.302c0-0.441-0.399-0.651-1.323-0.693v-0.462h4.641v0.462c-0.609,0.063-0.945,0.189-1.407,0.462
		c-0.714,0.441-0.798,0.504-2.058,1.869l-1.092,1.176l2.94,4.62c0.714,1.134,1.071,1.407,1.995,1.554v0.462h-2.856
		c-0.21-0.441-0.882-1.638-1.092-2.016l-2.142-3.486l-1.638,1.827V68.219z"/>
	<path d="M69.122,70.802c-0.819,0.126-1.743,0.21-2.163,0.21c-0.63,0-0.798-0.336-0.882-1.743c-0.336,0.378-0.609,0.609-1.029,0.903
		c-0.924,0.672-1.659,0.903-2.73,0.903c-0.924,0-1.617-0.21-2.142-0.651c-0.567-0.504-0.924-1.344-0.924-2.226
		c0-1.659,1.05-2.73,3.087-3.192c1.092-0.252,2.205-0.399,3.738-0.504v-1.323c0-0.966-0.084-1.47-0.294-1.911
		c-0.273-0.546-0.861-0.819-1.722-0.819c-1.386,0-2.1,0.63-2.184,1.932c-0.021,0.441-0.063,0.588-0.231,0.714
		c-0.147,0.105-0.42,0.168-0.735,0.168c-0.714,0-1.029-0.189-1.029-0.63c0-0.756,0.546-1.512,1.428-2.016
		c0.798-0.441,1.827-0.672,3.066-0.672c1.344,0,2.31,0.315,2.814,0.924c0.42,0.525,0.609,1.218,0.609,2.373
		c0,0.063,0,0.063-0.042,2.121l-0.021,1.995l-0.021,0.966c0,0.882,0.105,1.638,0.231,1.806c0.126,0.168,0.378,0.231,1.176,0.231
		V70.802z M66.077,64.985c-1.869,0.168-2.688,0.336-3.528,0.756c-0.924,0.441-1.407,1.281-1.407,2.394
		c0,1.323,0.714,2.226,1.764,2.226c1.071,0,2.163-0.63,2.688-1.533c0.336-0.588,0.483-1.47,0.483-2.856V64.985z"/>
	<path d="M78.277,60.953c0.819,0.84,1.197,1.722,1.197,2.814c0,2.226-1.638,3.654-4.158,3.654c-0.63,0-1.071-0.063-1.848-0.252
		c-0.777,0.42-1.092,0.777-1.092,1.26c0,0.798,0.546,1.05,2.31,1.05c0.294,0,0.462,0,0.987,0c0.168,0,0.399,0,0.483,0
		c1.428,0,2.1,0.063,2.688,0.21c1.155,0.336,1.743,1.092,1.743,2.268c0,1.029-0.63,2.079-1.575,2.604
		c-0.945,0.546-2.142,0.798-3.717,0.798c-1.407,0-2.457-0.21-3.255-0.651c-0.777-0.42-1.134-1.071-1.134-2.037
		c0-0.882,0.168-1.092,1.47-1.932c-0.903-0.42-1.323-1.008-1.323-1.848c0-0.588,0.189-0.861,1.008-1.428l0.819-0.546
		c-0.588-0.399-0.819-0.609-1.05-0.903c-0.441-0.546-0.672-1.323-0.672-2.163c0-1.428,0.609-2.667,1.638-3.276
		c0.714-0.42,1.596-0.63,2.583-0.63c0.441,0,0.819,0.042,1.407,0.147c0.672,0.105,0.84,0.126,1.323,0.126
		c0.525,0,1.155-0.021,2.289-0.063v0.798H78.277z M72.292,72.481c0,1.554,1.113,2.373,3.255,2.373c2.247,0,3.633-0.924,3.633-2.394
		c0-0.882-0.483-1.344-1.617-1.533c-0.441-0.063-1.05-0.084-2.394-0.084c-0.735,0-1.995,0.021-2.016,0.042
		C72.565,71.096,72.292,71.6,72.292,72.481z M73.405,65.951c0.357,0.63,1.071,1.008,1.911,1.008c1.533,0,2.352-1.113,2.352-3.192
		c0-2.205-0.798-3.339-2.352-3.339c-1.575,0-2.394,1.071-2.394,3.171C72.922,64.543,73.09,65.384,73.405,65.951z"/>
	<path d="M83.926,64.922c0.021,1.449,0.147,2.289,0.483,3.15c0.609,1.554,1.638,2.31,3.15,2.31c1.491,0,2.625-0.777,3.465-2.373
		l0.483,0.273c-0.945,1.932-2.373,2.835-4.431,2.835c-3.003,0-5.061-2.226-5.061-5.439c0-3.402,2.016-5.733,4.977-5.733
		c1.911,0,3.36,0.966,4.011,2.667c0.21,0.567,0.294,1.071,0.336,2.31H83.926z M89.512,64.354c-0.021-1.113-0.126-1.722-0.399-2.331
		c-0.462-1.029-1.176-1.554-2.163-1.554c-1.008,0-1.848,0.567-2.415,1.638c-0.315,0.609-0.441,1.155-0.567,2.247H89.512z"/>
</g>
<g>
	<path d="M8.904,2.32c0.378,0,1.166-0.084,2.016-0.22c0.294-0.042,0.336-0.063,0.557-0.21c0.136-0.084,0.199-0.116,0.273-0.116
		c0.115,0,0.273,0.084,0.546,0.305c0.284,0.22,0.399,0.378,0.399,0.514c0,0.074-0.031,0.147-0.126,0.252
		c-0.105,0.116-0.157,0.21-0.231,0.452c-0.063,0.2-0.315,1.176-0.462,1.785c-0.147,0.556-0.179,0.714-0.263,1.04
		c1.281-0.042,1.795-0.095,2.121-0.21C13.86,5.87,13.871,5.87,13.923,5.87c0.137,0,0.378,0.115,0.609,0.283
		c0.242,0.179,0.347,0.326,0.347,0.483c0,0.126-0.105,0.21-0.284,0.21c-0.031,0-0.094-0.01-0.367-0.063
		c-0.725-0.136-1.533-0.21-2.468-0.21c-1.313,0-3.423,0.368-4.126,0.714C7.486,7.36,7.413,7.381,7.308,7.381
		c-0.221,0-0.483-0.189-0.704-0.525C6.384,6.552,6.279,6.321,6.279,6.143c0-0.042,0.011-0.105,0.042-0.168
		c0.315,0.451,0.567,0.598,0.998,0.598c0.231,0,0.305-0.01,1.459-0.168c1.008-0.147,1.197-0.168,2.205-0.252
		c0.095-0.42,0.147-0.735,0.263-1.449c0.084-0.483,0.147-0.872,0.199-1.166c0.053-0.305,0.095-0.546,0.105-0.683
		c0.011-0.116,0.021-0.2,0.021-0.231c0.011-0.063,0.021-0.105,0.021-0.147c0-0.032-0.021-0.053-0.042-0.053h-0.01
		c-0.021,0.011-0.074,0.011-0.137,0.021c-0.42,0.042-1.701,0.347-2.32,0.546C8.925,3.045,8.841,3.066,8.768,3.066
		c-0.168,0-0.347-0.137-0.557-0.431C8.043,2.383,7.927,2.1,7.927,1.911c0-0.095,0.021-0.168,0.084-0.305
		C8.253,2.142,8.474,2.32,8.904,2.32z"/>
	<path d="M28.108,1.029c0.284,0,0.767,0.137,1.061,0.294c0.242,0.137,0.357,0.273,0.357,0.441c0,0.063-0.01,0.126-0.052,0.231
		c-0.147,0.336-0.221,0.777-0.294,1.711c0.147,0.115,0.252,0.147,0.493,0.147c0.41,0,1.239-0.158,2.027-0.399
		c0.472-0.137,0.745-0.263,1.029-0.452c0.053-0.042,0.179-0.084,0.231-0.084c0.305,0,0.809,0.326,0.809,0.525
		c0,0.158-0.137,0.242-0.504,0.326c-1.344,0.304-2.541,0.483-3.266,0.483c-0.326,0-0.62-0.095-0.84-0.273
		c-0.053,1.134-0.063,1.554-0.063,1.795c0,1.271,0.283,1.564,1.47,1.564c0.945,0,1.858-0.126,2.478-0.357
		c0.137-0.042,0.221-0.063,0.315-0.063c0.263,0,0.714,0.357,0.714,0.578c0,0.147-0.105,0.231-0.367,0.283
		c-0.452,0.095-1.564,0.179-2.415,0.179c-1.354,0-1.995-0.2-2.383-0.746c-0.21-0.294-0.315-0.641-0.357-1.218
		c-0.01-0.252-0.021-0.725-0.021-1.522c0-0.126,0-0.242,0-0.494c0.011-0.473,0.011-0.767,0.011-0.945
		c0-0.924-0.032-1.218-0.126-1.417c-0.116-0.22-0.326-0.367-0.714-0.493C27.825,1.04,27.877,1.029,28.108,1.029z M32.813,0.756
		c0.735,0.284,1.197,0.525,1.491,0.798c0.178,0.158,0.241,0.315,0.241,0.599c0,0.273-0.084,0.452-0.22,0.452
		c-0.084,0-0.168-0.074-0.252-0.231c-0.304-0.546-0.703-0.987-1.344-1.491L32.813,0.756z M33.726,0
		c0.683,0.21,1.113,0.41,1.428,0.641C35.427,0.84,35.5,0.966,35.5,1.208c0,0.304-0.105,0.515-0.242,0.515
		c-0.094,0-0.136-0.032-0.294-0.294c-0.262-0.43-0.619-0.777-1.313-1.313L33.726,0z"/>
	<path d="M48.447,2.499c0.378,0.252,0.693,0.357,1.082,0.357c0.409,0,1.102-0.158,1.806-0.399c-0.21-0.914-0.367-1.375-0.536-1.617
		c-0.168-0.241-0.346-0.325-0.85-0.367c0.168-0.158,0.283-0.2,0.609-0.2c0.263,0,0.609,0.042,0.851,0.105
		c0.262,0.074,0.409,0.2,0.409,0.368c0,0.021,0,0.063-0.01,0.105c-0.032,0.157-0.042,0.21-0.042,0.325
		c0,0.294,0.031,0.536,0.126,1.103c0.945-0.336,1.302-0.504,1.585-0.714c0.137-0.116,0.168-0.126,0.263-0.126
		c0.157,0,0.325,0.042,0.493,0.105c0.158,0.063,0.231,0.147,0.231,0.242c0,0.157-0.136,0.241-0.588,0.388
		c-1.187,0.389-1.292,0.42-1.89,0.599c0.095,0.536,0.221,1.124,0.357,1.669c0.567-0.147,1.271-0.357,1.606-0.494
		c0.294-0.105,0.325-0.115,0.672-0.304c0.105-0.063,0.136-0.074,0.21-0.074c0.42,0,0.935,0.252,0.935,0.452
		c0,0.073-0.042,0.136-0.116,0.168c-0.094,0.031-0.115,0.031-0.735,0.105c-0.504,0.052-1.522,0.284-2.467,0.557
		c0.346,1.396,0.598,2.373,0.756,2.94c0.094,0.346,0.115,0.472,0.115,0.619c0,0.242-0.084,0.357-0.241,0.357
		c-0.252,0-0.777-0.578-0.777-0.861c0-0.01,0-0.01,0.021-0.147c0-0.063,0.01-0.21,0.01-0.262c0-0.378-0.094-0.987-0.399-2.478
		C51.146,5.25,50.222,5.617,49.76,5.88c-0.221,0.126-0.357,0.179-0.462,0.179c-0.388,0-1.113-0.63-1.113-0.956
		c0-0.042,0.011-0.063,0.032-0.126c0.241,0.252,0.525,0.388,0.787,0.388c0.326,0,0.494-0.042,1.943-0.493
		c0.094-0.032,0.283-0.095,0.892-0.273c-0.126-0.567-0.294-1.323-0.388-1.68c-1.103,0.305-1.333,0.357-1.732,0.357
		c-0.483,0-0.966-0.231-1.354-0.651L48.447,2.499z"/>
	<path d="M69.279,8.715c0.998-0.651,1.365-0.924,1.963-1.459c0.756-0.683,1.271-1.239,1.764-1.9
		c-0.168-0.032-0.231-0.084-0.452-0.42c-0.441-0.662-0.788-1.04-1.459-1.564c-0.746,0.735-1.302,1.187-1.942,1.564l-0.116-0.158
		c0.746-0.641,1.375-1.313,2.026-2.173c0.662-0.882,1.04-1.554,1.04-1.827c0-0.241-0.178-0.409-0.672-0.63
		c0.105-0.042,0.147-0.053,0.231-0.053c0.221,0,0.62,0.126,0.935,0.305c0.294,0.158,0.431,0.305,0.431,0.441
		c0,0.147-0.095,0.305-0.494,0.809C72.66,1.68,72.723,1.69,72.828,1.69c0.242,0,0.609-0.063,1.396-0.231
		c0.546-0.116,0.641-0.147,0.83-0.284c0.052-0.031,0.115-0.052,0.168-0.052c0.136,0,0.315,0.105,0.588,0.357
		c0.179,0.168,0.284,0.326,0.284,0.431c0,0.073-0.042,0.126-0.147,0.21c-0.126,0.105-0.168,0.168-0.347,0.483
		c-1.082,2.016-2.184,3.434-3.549,4.578c-0.893,0.735-1.785,1.302-2.688,1.69L69.279,8.715z M74.288,1.837
		c-0.851,0.21-0.851,0.21-0.966,0.252c-0.179,0.063-0.231,0.074-0.326,0.074c-0.179,0-0.368-0.084-0.63-0.284
		c-0.399,0.536-0.672,0.861-1.113,1.323c0.777,0.336,0.777,0.336,1.008,0.472c0.462,0.252,0.704,0.483,0.914,0.819
		c0.094,0.168,0.115,0.252,0.136,0.472c0.746-0.998,1.438-2.257,1.785-3.276C74.833,1.711,74.645,1.753,74.288,1.837z"/>
	<path d="M89.114,8.053c1.008-0.63,2.047-1.48,2.824-2.299c0.63-0.662,1.386-1.648,2.006-2.614c0.336-0.515,0.514-0.861,0.714-1.354
		c-0.504,0.031-1.061,0.147-2.215,0.462c-0.504,0.136-0.546,0.147-0.882,0.283c-0.052,0.021-0.115,0.032-0.178,0.032
		c-0.231,0-0.452-0.189-0.683-0.599c-0.147-0.241-0.221-0.462-0.221-0.63c0-0.063,0.021-0.116,0.074-0.21
		c0.305,0.546,0.525,0.704,0.987,0.704c0.347,0,1.407-0.137,2.205-0.294c0.609-0.115,0.798-0.178,0.987-0.294
		c0.116-0.073,0.168-0.094,0.242-0.094c0.221,0,0.819,0.535,0.819,0.735c0,0.074-0.042,0.137-0.136,0.2
		c-0.221,0.147-0.221,0.147-0.599,0.714c-0.504,0.756-0.504,0.756-1.323,1.827c1.48,0.777,2.31,1.313,2.719,1.774
		c0.284,0.304,0.399,0.609,0.399,1.04c0,0.336-0.105,0.546-0.283,0.546c-0.074,0-0.158-0.053-0.242-0.168
		c-0.042-0.053-0.042-0.053-0.252-0.42c-0.525-0.882-1.428-1.817-2.499-2.573c-0.851,1.029-1.533,1.669-2.541,2.363
		c-0.662,0.462-1.113,0.714-1.837,1.029L89.114,8.053z"/>
	<path d="M9.02,27.615c-0.063-0.504-0.105-1.134-0.105-2.163C8.096,26.88,6.731,27.72,5.177,27.72c-1.344,0-2.373-0.651-2.793-1.764
		c-0.21-0.567-0.294-1.428-0.294-3.255v-3.465c0-1.092-0.084-1.533-0.315-1.722c-0.126-0.126-0.315-0.168-0.714-0.189
		c-0.273,0-0.273,0-0.378,0v-0.462l3.255-0.21c-0.105,1.953-0.126,2.457-0.126,3.906v1.827c0,2.121,0.042,2.688,0.294,3.423
		c0.252,0.777,0.84,1.176,1.701,1.176c1.155,0,2.184-0.756,2.73-2.037c0.315-0.714,0.378-1.176,0.378-2.478v-3.234
		c0-1.113-0.063-1.512-0.315-1.701c-0.126-0.126-0.336-0.189-0.714-0.21H7.508v-0.462l3.255-0.21
		c-0.063,1.575-0.105,2.961-0.105,3.906v3.969c0,2.1,0.189,2.478,1.281,2.478h0.147v0.462L9.02,27.615z"/>
	<path d="M15.131,27.51h-0.567c0.063-0.819,0.063-0.966,0.063-3.759v-9.135c0-1.785-0.084-1.89-1.533-1.911v-0.462l3.381-0.168
		c-0.084,1.407-0.126,3.108-0.126,4.2v2.352c0.819-1.407,1.89-2.058,3.402-2.058c2.73,0,4.473,2.1,4.473,5.397
		c0,3.57-1.806,5.796-4.725,5.796c-1.365,0-2.373-0.441-3.528-1.554L15.131,27.51z M16.916,25.83
		c0.462,0.903,1.386,1.449,2.436,1.449c1.932,0,2.919-1.722,2.919-5.061c0-3.36-0.945-5.082-2.793-5.082
		c-2.016,0-3.213,1.932-3.213,5.229C16.265,23.877,16.475,25.011,16.916,25.83z"/>
	<path d="M29.411,16.632c-0.063,1.218-0.126,3.045-0.126,3.927v4.284c0,1.953,0.105,2.121,1.512,2.163v0.462h-4.788v-0.462
		c1.449-0.042,1.554-0.21,1.554-2.163v-5.607c0-1.05-0.084-1.533-0.315-1.722c-0.168-0.147-0.504-0.189-1.239-0.189v-0.462
		L29.411,16.632z M28.361,12.18c0.651,0,1.176,0.525,1.176,1.176c0,0.672-0.525,1.197-1.176,1.197c-0.672,0-1.197-0.525-1.197-1.197
		C27.164,12.705,27.689,12.18,28.361,12.18z"/>
	<path d="M40.289,25.746c-0.735,1.218-1.974,1.911-3.423,1.911c-2.667,0-4.347-2.058-4.347-5.376c0-3.549,1.743-5.712,4.599-5.712
		c1.407,0,2.52,0.462,3.612,1.533l0.756-1.302h0.588c-0.042,1.302-0.063,2.31-0.063,3.864v8.694c0,1.953,0.105,2.079,1.512,2.142
		v0.483h-4.851V31.5c1.512-0.063,1.617-0.189,1.617-2.142V25.746z M39.764,18.522c-0.462-0.861-1.386-1.386-2.457-1.386
		c-1.932,0-2.835,1.596-2.835,5.019c0,2.037,0.378,3.465,1.155,4.263c0.378,0.399,0.945,0.609,1.617,0.609
		c1.029,0,1.953-0.609,2.478-1.596c0.462-0.882,0.672-1.995,0.672-3.549C40.394,20.349,40.205,19.32,39.764,18.522z"/>
	<path d="M52.741,27.615c-0.063-0.504-0.105-1.134-0.105-2.163c-0.819,1.428-2.184,2.268-3.738,2.268
		c-1.344,0-2.373-0.651-2.793-1.764c-0.21-0.567-0.294-1.428-0.294-3.255v-3.465c0-1.092-0.084-1.533-0.315-1.722
		c-0.126-0.126-0.315-0.168-0.714-0.189c-0.273,0-0.273,0-0.378,0v-0.462l3.255-0.21c-0.105,1.953-0.126,2.457-0.126,3.906v1.827
		c0,2.121,0.042,2.688,0.294,3.423c0.252,0.777,0.84,1.176,1.701,1.176c1.155,0,2.184-0.756,2.73-2.037
		c0.315-0.714,0.378-1.176,0.378-2.478v-3.234c0-1.113-0.063-1.512-0.315-1.701c-0.126-0.126-0.336-0.189-0.714-0.21h-0.378v-0.462
		l3.255-0.21c-0.063,1.575-0.105,2.961-0.105,3.906v3.969c0,2.1,0.189,2.478,1.281,2.478h0.147v0.462L52.741,27.615z"/>
	<path d="M60.511,16.632c-0.063,1.218-0.126,3.045-0.126,3.927v4.284c0,1.953,0.105,2.121,1.512,2.163v0.462h-4.788v-0.462
		c1.449-0.042,1.554-0.21,1.554-2.163v-5.607c0-1.05-0.084-1.533-0.315-1.722c-0.168-0.147-0.504-0.189-1.239-0.189v-0.462
		L60.511,16.632z M59.461,12.18c0.651,0,1.176,0.525,1.176,1.176c0,0.672-0.525,1.197-1.176,1.197c-0.672,0-1.197-0.525-1.197-1.197
		C58.264,12.705,58.789,12.18,59.461,12.18z"/>
	<path d="M66.496,24.486c0,1.239,0.063,1.785,0.273,2.079c0.21,0.294,0.546,0.441,1.029,0.441c0.462,0,0.861-0.105,1.323-0.378
		l0.189,0.546c-0.693,0.357-1.365,0.525-2.121,0.525c-1.029,0-1.806-0.357-2.163-1.029c-0.231-0.42-0.294-0.882-0.294-2.436V17.43
		h-1.323v-0.483c1.239-0.105,1.869-0.924,2.184-2.898l0.966-0.273c-0.042,0.903-0.063,1.701-0.063,3.087h2.52v0.567h-2.52V24.486z"
		/>
	<path d="M72.166,17.976c0.882-0.903,2.205-1.407,3.654-1.407c3.066,0,5.082,2.163,5.082,5.46c0,3.507-2.016,5.712-5.208,5.712
		c-3.045,0-5.061-2.163-5.061-5.418C70.633,20.58,71.2,18.963,72.166,17.976z M75.757,27.237c2.058,0,3.192-1.785,3.192-5.019
		c0-3.276-1.176-5.166-3.234-5.166c-2.016,0-3.129,1.785-3.129,4.998C72.586,25.347,73.741,27.237,75.757,27.237z"/>
	<path d="M90.688,27.615c-0.063-0.504-0.105-1.134-0.105-2.163c-0.819,1.428-2.184,2.268-3.738,2.268
		c-1.344,0-2.373-0.651-2.793-1.764c-0.21-0.567-0.294-1.428-0.294-3.255v-3.465c0-1.092-0.084-1.533-0.315-1.722
		c-0.126-0.126-0.315-0.168-0.714-0.189c-0.273,0-0.273,0-0.378,0v-0.462l3.255-0.21c-0.105,1.953-0.126,2.457-0.126,3.906v1.827
		c0,2.121,0.042,2.688,0.294,3.423c0.252,0.777,0.84,1.176,1.701,1.176c1.155,0,2.184-0.756,2.73-2.037
		c0.315-0.714,0.378-1.176,0.378-2.478v-3.234c0-1.113-0.063-1.512-0.315-1.701c-0.126-0.126-0.336-0.189-0.714-0.21h-0.378v-0.462
		l3.255-0.21c-0.063,1.575-0.105,2.961-0.105,3.906v3.969c0,2.1,0.189,2.478,1.281,2.478h0.147v0.462L90.688,27.615z"/>
	<path d="M95.538,24.15h0.651c0.084,0.987,0.231,1.491,0.588,1.953c0.546,0.756,1.323,1.134,2.289,1.134
		c1.428,0,2.289-0.735,2.289-1.974c0-0.483-0.189-0.945-0.504-1.218c-0.378-0.315-0.441-0.336-2.352-1.176
		c-2.268-0.987-2.961-1.743-2.961-3.171c0-0.735,0.21-1.449,0.567-1.932c0.567-0.756,1.554-1.197,2.604-1.197
		c0.546,0,0.819,0.042,1.953,0.252c0.168,0.021,0.315,0.042,0.441,0.042c0.252,0,0.588-0.042,1.008-0.147l-0.105,3.318h-0.693
		c-0.042-1.869-0.966-2.982-2.499-2.982c-1.302,0-2.142,0.735-2.142,1.869c0,0.483,0.189,0.861,0.567,1.134
		c0.399,0.294,0.798,0.504,2.184,1.092c1.407,0.588,1.932,0.903,2.415,1.428c0.441,0.483,0.693,1.176,0.693,1.995
		c0,1.932-1.281,3.171-3.255,3.171c-0.588,0-0.861-0.042-2.1-0.252c-0.294-0.042-0.546-0.063-0.777-0.063s-0.525,0.021-0.945,0.084
		L95.538,24.15z"/>
</g>
</svg>
