<?xml version="1.0" encoding="utf-8"?>
<!-- Generator: Adobe Illustrator 12.0.0, SVG Export Plug-In . SVG Version: 6.00 Build 51448)  -->
<!DOCTYPE svg PUBLIC "-//W3C//DTD SVG 1.1//EN" "http://www.w3.org/Graphics/SVG/1.1/DTD/svg11.dtd" [
	<!ENTITY ns_svg "http://www.w3.org/2000/svg">
	<!ENTITY ns_xlink "http://www.w3.org/1999/xlink">
]>
<svg  version="1.1" id="レイヤー_1" xmlns="&ns_svg;" xmlns:xlink="&ns_xlink;" width="63.5" height="70.368"
	 viewBox="0 0 63.5 70.368" overflow="visible" enable-background="new 0 0 63.5 70.368" xml:space="preserve">
<g>
	<path d="M5.102,1.32c0.252,0,0.536,0.042,0.84,0.126C6.299,1.54,6.467,1.688,6.467,1.897c0,0.084,0,0.084-0.084,0.294
		c-0.116,0.325-0.21,0.977-0.21,1.512c0,0.042,0,0.116,0,0.2c0.105,0.094,0.158,0.115,0.284,0.115c0.399,0,1.208-0.315,1.596-0.619
		c0.115-0.084,0.168-0.116,0.231-0.116c0.094,0,0.304,0.063,0.451,0.137c0.168,0.094,0.221,0.157,0.221,0.252
		c0,0.157-0.136,0.241-0.62,0.42c-0.567,0.21-1.071,0.326-1.459,0.326c-0.304,0-0.472-0.063-0.704-0.263c0,0.2,0,0.368,0,0.462
		c0,0.83,0.053,2.058,0.116,2.741c0.819,0.136,1.596,0.409,2.215,0.766c0.452,0.252,0.651,0.536,0.651,0.903
		c0,0.252-0.074,0.399-0.21,0.399c-0.074,0-0.137-0.042-0.252-0.137C7.801,8.533,7.307,8.25,6.331,7.956
		c0.021,0.494,0.021,0.494,0.021,0.683c0,0.515-0.242,0.851-0.746,1.04C5.354,9.772,4.913,9.835,4.535,9.835
		c-1.103,0-1.795-0.441-1.795-1.145c0-0.504,0.357-0.903,1.019-1.155c0.409-0.157,0.976-0.252,1.522-0.252
		c0.084,0,0.22,0,0.399,0.011C5.617,3.073,5.617,3.073,5.533,2.37C5.459,1.761,5.302,1.593,4.619,1.478
		C4.787,1.351,4.871,1.32,5.102,1.32z M4.871,7.777c-1.082,0-1.858,0.367-1.858,0.893c0,0.42,0.431,0.661,1.176,0.661
		c0.609,0,1.113-0.168,1.313-0.43c0.137-0.168,0.168-0.389,0.168-1.103C5.333,7.777,5.207,7.777,4.871,7.777z"/>
	<path d="M15.791,10.245c0.62-0.504,1.029-0.935,1.386-1.512c0.546-0.893,0.893-2.111,0.893-3.192c0-1.04-0.378-1.68-0.998-1.68
		c-0.557,0-1.292,0.452-2.016,1.239c-0.2,0.2-0.263,0.242-0.431,0.242c-0.22,0-0.472-0.168-0.693-0.473
		c-0.179-0.241-0.284-0.514-0.284-0.704c0-0.136,0.042-0.231,0.168-0.388c0.095,0.462,0.305,0.725,0.578,0.725
		c0.147,0,0.42-0.116,0.966-0.41c0.892-0.483,1.239-0.599,1.774-0.599c0.483,0,0.998,0.273,1.302,0.704
		c0.252,0.368,0.399,0.914,0.399,1.543c0,1.239-0.472,2.468-1.302,3.392c-0.515,0.567-1.05,0.966-1.648,1.229L15.791,10.245z
		 M15.213,0.7c0.515,0.431,1.229,0.672,1.964,0.672h0.241c0.21,0,0.357,0.074,0.567,0.252c0.147,0.126,0.221,0.252,0.221,0.357
		c0,0.147-0.147,0.231-0.431,0.231c-0.441,0.01-0.441,0.01-2.614,0.64l-0.053-0.147c0.788-0.357,1.512-0.682,1.775-0.777
		c-0.861-0.178-1.375-0.504-1.775-1.145L15.213,0.7z"/>
	<path fill="#ED6E46" d="M28.423,2.097c0.325,0.389,0.504,0.494,0.892,0.494c0.63,0,1.417-0.273,1.995-0.683
		c0.042-0.031,0.095-0.052,0.147-0.052c0.21,0,0.588,0.315,0.588,0.504c0,0.094-0.042,0.126-0.346,0.283
		c-0.431,0.21-0.945,0.651-1.333,1.145C29.609,4.722,29.21,5.761,29.21,6.78c0,1.417,0.788,2.299,2.037,2.299
		c0.956,0,1.795-0.525,2.278-1.417C33.872,7,34.051,6.118,34.051,5.005c0-1.103-0.105-1.974-0.347-2.846
		c-0.032-0.105-0.053-0.22-0.053-0.252c0-0.105,0.084-0.189,0.2-0.189h0.011c0.157,0.011,0.378,0.126,0.504,0.263
		c0.126,0.115,0.147,0.168,0.157,0.388c0.042,0.483,0.41,1.564,0.84,2.415c0.294,0.599,0.546,0.977,0.84,1.271
		c0.199,0.2,0.305,0.515,0.305,0.872c0,0.242-0.095,0.41-0.242,0.41c-0.242,0-0.525-0.368-0.945-1.218
		c-0.431-0.882-0.714-1.648-1.124-3.013l-0.032,0.01c0.21,1.491,0.242,1.869,0.242,2.636c0,1.396-0.305,2.404-0.935,3.118
		c-0.504,0.578-1.26,0.903-2.058,0.903c-1.564,0-2.593-1.176-2.593-2.972c0-0.662,0.147-1.407,0.42-2.068
		c0.252-0.63,0.536-1.103,1.071-1.785c-0.357,0.063-0.599,0.095-0.809,0.095c-0.588,0-0.955-0.252-1.229-0.84L28.423,2.097z"/>
	<path d="M56.804,7.641c-1.008,1.365-2.384,2.174-3.686,2.174c-0.798,0-1.417-0.326-1.743-0.893
		c-0.21-0.368-0.294-0.882-0.294-1.774c0-0.578,0.032-1.575,0.084-2.531c0.063-1.134,0.074-1.428,0.074-1.806
		c0-0.903-0.105-1.081-0.851-1.396c0.115-0.084,0.178-0.105,0.294-0.105c0.242,0,0.62,0.095,0.945,0.242
		c0.399,0.189,0.609,0.399,0.609,0.62c0,0.073-0.011,0.136-0.095,0.378c-0.2,0.63-0.546,3.812-0.546,5.04
		c0,0.64,0.126,1.019,0.42,1.26c0.231,0.179,0.567,0.284,0.935,0.284c0.714,0,1.596-0.252,2.394-0.672
		c0.483-0.252,0.787-0.473,1.333-0.935L56.804,7.641z"/>
	<path d="M11.875,19.8h4.032c0.462-0.609,0.609-0.777,1.113-1.323c0.798,0.63,1.05,0.84,1.827,1.554
		c0.042,0.042,0.084,0.105,0.084,0.147c0,0.063-0.105,0.105-0.252,0.105h-6.804v3.843h5.859c0.546-0.651,0.714-0.84,1.281-1.428
		c0.819,0.693,1.05,0.924,1.827,1.659c0.042,0.042,0.063,0.105,0.063,0.126c0,0.063-0.105,0.126-0.21,0.126h-8.82v1.113
		c0,2.499,0.021,4.032,0.042,4.599c-0.042,0.168-0.084,0.21-0.252,0.252c-0.126,0.042-0.798,0.105-1.029,0.105
		s-0.315-0.063-0.315-0.252c0.042-1.491,0.063-3.024,0.063-4.704v-1.113h-6.3c-0.714,0-1.575,0.042-2.121,0.105l-0.147-0.798
		c0.882,0.147,1.596,0.21,2.415,0.21h6.153v-3.843H5.827c-0.441,0-1.197,0.042-1.89,0.126l-0.126-0.777
		c0.798,0.126,1.365,0.168,2.1,0.168h4.473v-3.465H4.882c-0.483,0-1.155,0.042-1.89,0.147l-0.105-0.861
		c0.63,0.126,1.512,0.231,1.995,0.231h3.255c-0.231-0.21-0.231-0.231-0.441-0.84c-0.168-0.567-0.567-1.323-0.966-1.974
		c-0.231-0.336-0.441-0.567-0.903-1.029l0.189-0.252c1.008,0.504,1.596,0.903,2.352,1.575c0.588,0.546,0.84,0.924,0.84,1.302
		c0,0.399-0.231,0.861-0.588,1.218h3.906c1.26-1.974,1.575-2.604,2.079-4.095c1.911,0.588,2.331,0.756,2.331,0.987
		s-0.21,0.294-1.029,0.294c-1.302,1.449-1.659,1.806-2.835,2.814h4.032c0.483-0.651,0.63-0.84,1.155-1.449
		c0.84,0.672,1.092,0.882,1.848,1.617c0.042,0.063,0.084,0.126,0.084,0.168c0,0.084-0.126,0.147-0.294,0.147h-8.022V19.8z"/>
	<path fill="#ED6E46" d="M24.391,30.258c2.898-0.945,4.431-1.68,6.153-2.94c0.609-0.441,1.113-0.861,1.596-1.302
		c-1.827-1.89-2.898-3.633-3.591-5.796h-1.638c-0.105,2.562-0.462,4.284-1.176,6.048c-0.735,1.785-1.512,2.898-3.045,4.368
		l-0.231-0.21c1.323-1.743,1.953-3.087,2.457-5.145c0.42-1.785,0.609-3.885,0.609-7.035c0-2.037-0.021-3.024-0.105-4.326
		c0.798,0.504,1.05,0.651,1.827,1.197h4.368v-0.651c-0.021-1.596-0.063-2.562-0.084-2.898c1.995,0.231,2.541,0.357,2.541,0.567
		c0,0.168-0.315,0.336-0.987,0.483v2.499h4.956c0.42-0.462,0.546-0.609,0.987-1.05c0.819,0.588,1.071,0.777,1.869,1.47
		c0.084,0.084,0.105,0.147,0.105,0.189c0,0.021-0.042,0.105-0.084,0.126c-0.084,0.063-0.294,0.105-0.525,0.147l-0.399,0.042
		c-0.126,0.021-0.273,0.042-0.399,0.063c-1.008,0.966-1.365,1.302-2.247,2.058l-0.189-0.189c0.483-1.05,0.651-1.449,0.966-2.373
		h-5.04v4.137h3.024c0.378-0.441,0.504-0.567,0.903-1.008c0.63,0.588,0.819,0.756,1.386,1.344c0.084,0.084,0.105,0.126,0.105,0.189
		c0,0.126-0.021,0.147-0.945,0.399c-1.155,2.331-2.163,3.822-3.696,5.397c2.31,1.449,4.641,2.184,7.917,2.457l-0.021,0.294
		c-0.987,0.189-1.218,0.42-1.554,1.533c-3.213-0.924-5.292-1.932-7.182-3.507c-0.798,0.693-1.533,1.197-2.499,1.722
		c-1.701,0.903-3.234,1.407-6.048,1.995L24.391,30.258z M31.615,15.6h-4.641c0,0.168-0.021,1.554-0.042,4.137h4.683V15.6z
		 M28.99,20.22c0.966,2.226,2.037,3.654,3.843,5.103c1.512-1.638,2.415-3.045,3.276-5.103H28.99z"/>
	<path d="M43.438,30.069c0.735-2.247,1.155-4.557,1.218-6.741c1.575,0.273,1.869,0.357,1.869,0.546c0,0.147-0.147,0.231-0.609,0.357
		c-0.609,2.625-1.071,3.885-2.163,5.985L43.438,30.069z M43.836,15.012c0.693,0.357,0.945,0.504,1.365,0.756
		c0.399-0.63,0.504-0.798,0.84-1.575c0.567-1.26,0.714-1.722,0.861-2.625c1.701,0.546,2.205,0.777,2.205,0.966
		c0,0.168-0.21,0.252-0.819,0.336c-0.84,1.218-1.029,1.428-2.709,3.129c0.861,0.567,1.197,0.987,1.197,1.533
		c0,0.462-0.315,1.113-0.525,1.113c-0.126,0-0.231-0.126-0.378-0.399c-0.504-1.029-0.966-1.701-2.121-3.003L43.836,15.012z
		 M46.987,21.459c-1.092,0.231-1.365,0.273-2.289,0.441c-0.126,0.693-0.189,0.84-0.357,0.84c-0.084,0-0.147-0.063-0.189-0.168
		c0-0.042-0.147-0.693-0.399-1.911c0.378,0.021,0.63,0.042,0.798,0.042s0.378,0,0.693-0.021c0.189-0.021,0.189-0.021,0.609-0.042
		c0.672-0.987,0.924-1.365,1.596-2.625c1.176-2.163,1.533-2.898,1.869-3.906c1.596,0.609,2.184,0.882,2.184,1.05
		c0,0.189-0.231,0.252-1.008,0.273c-0.588,0.882-1.008,1.428-3.024,4.011c-0.567,0.714-0.567,0.714-0.966,1.155
		c0.21,0,0.21,0,0.588-0.021c0.462-0.042,0.924-0.084,2.667-0.315c-0.252-0.546-0.399-0.756-0.903-1.491l0.273-0.21
		c0.756,0.567,1.386,1.176,1.932,1.827c0.336,0.42,0.441,0.672,0.441,1.008c0,0.588-0.399,1.302-0.714,1.302
		c-0.147,0-0.252-0.168-0.357-0.546c-0.063-0.189-0.21-0.651-0.483-1.428c-0.798,0.252-0.903,0.273-1.659,0.462v4.767
		c0,2.268,0,2.268,0.042,4.599c0,0.042,0,0.084,0,0.105c0,0.105-0.042,0.168-0.147,0.21c-0.126,0.063-0.756,0.126-1.071,0.126
		c-0.147,0-0.21-0.063-0.21-0.21c0,0,0-0.021,0-0.042c0.084-1.68,0.084-1.68,0.084-4.62V21.459z M49.17,23.013
		c1.197,1.386,1.911,2.625,1.911,3.318c0,0.546-0.546,1.386-0.903,1.386c-0.168,0-0.252-0.189-0.315-0.714
		c-0.021-0.357-0.147-1.197-0.252-1.764c-0.126-0.819-0.273-1.281-0.63-2.079L49.17,23.013z M59.376,19.443
		c0.567-0.693,0.756-0.903,1.323-1.554c0.861,0.672,1.113,0.903,1.911,1.68c0.042,0.084,0.084,0.147,0.084,0.189
		c0,0.084-0.084,0.126-0.21,0.126l-4.368,0.105c0.105,1.617,0.294,2.646,0.651,3.843c0.546,1.785,1.071,2.751,2.121,3.906
		c0.504-0.735,0.588-0.882,1.008-1.743c0.126-0.231,0.231-0.462,0.336-0.693c0.105-0.231,0.273-0.546,0.483-1.008l0.252,0.105
		l-0.735,3.234c-0.084,0.315-0.147,0.777-0.147,0.987c0,0.231,0.021,0.273,0.315,0.735c0.105,0.168,0.147,0.273,0.147,0.441
		c0,0.357-0.252,0.672-0.504,0.672c-0.63,0-1.554-0.693-2.352-1.806c-1.218-1.659-2.121-3.759-2.541-5.922
		c-0.147-0.756-0.231-1.491-0.336-2.73l-3.234,0.084v8.064c1.281-0.315,1.407-0.357,4.053-1.113l0.126,0.252
		c-1.785,0.903-2.982,1.449-6.321,2.856c-0.042,0.567-0.147,0.84-0.357,0.84c-0.084,0-0.126-0.063-0.189-0.189
		c-0.147-0.336-0.441-1.26-0.651-2.016c0.651-0.021,0.945-0.063,1.995-0.315V16.566c0.042-1.512,0.042-1.512,0.042-1.575
		c0-0.168,0-0.441-0.021-0.903c0-0.168-0.021-0.42-0.021-0.756c0.693,0.399,0.882,0.525,1.47,0.966
		c2.478-0.567,4.452-1.407,6.3-2.667c0.42,0.273,0.756,0.462,0.966,0.588c0.756,0.441,0.966,0.609,0.966,0.756
		s-0.189,0.252-0.42,0.252s-0.525-0.021-0.819-0.084c-1.113,0.357-1.428,0.441-2.73,0.756c-0.021,0.882-0.021,1.113-0.021,1.785
		c0,1.197,0.042,2.457,0.126,3.801L59.376,19.443z M56.772,19.506c-0.105-1.512-0.147-3.066-0.147-4.746v-0.567
		c-0.399,0.084-0.693,0.147-0.882,0.189c-0.987,0.231-1.176,0.273-2.163,0.42v4.788L56.772,19.506z"/>
</g>
<g>
	<path d="M5.102,40.695c0.252,0,0.536,0.042,0.84,0.126c0.357,0.094,0.525,0.242,0.525,0.452c0,0.084,0,0.084-0.084,0.294
		c-0.116,0.325-0.21,0.977-0.21,1.512c0,0.042,0,0.116,0,0.2c0.105,0.094,0.158,0.115,0.284,0.115c0.399,0,1.208-0.315,1.596-0.619
		c0.115-0.084,0.168-0.116,0.231-0.116c0.094,0,0.304,0.063,0.451,0.137c0.168,0.094,0.221,0.157,0.221,0.252
		c0,0.157-0.136,0.241-0.62,0.42c-0.567,0.21-1.071,0.326-1.459,0.326c-0.304,0-0.472-0.063-0.704-0.263c0,0.2,0,0.368,0,0.462
		c0,0.83,0.053,2.058,0.116,2.741c0.819,0.136,1.596,0.409,2.215,0.766c0.452,0.252,0.651,0.536,0.651,0.903
		c0,0.252-0.074,0.399-0.21,0.399c-0.074,0-0.137-0.042-0.252-0.137c-0.892-0.756-1.386-1.039-2.362-1.333
		c0.021,0.494,0.021,0.494,0.021,0.683c0,0.515-0.242,0.851-0.746,1.04c-0.252,0.095-0.693,0.158-1.071,0.158
		c-1.103,0-1.795-0.441-1.795-1.145c0-0.504,0.357-0.903,1.019-1.155c0.409-0.157,0.976-0.252,1.522-0.252
		c0.084,0,0.22,0,0.399,0.011c-0.063-4.221-0.063-4.221-0.147-4.925c-0.074-0.609-0.231-0.777-0.914-0.892
		C4.787,40.726,4.871,40.695,5.102,40.695z M4.871,47.152c-1.082,0-1.858,0.367-1.858,0.893c0,0.42,0.431,0.661,1.176,0.661
		c0.609,0,1.113-0.168,1.313-0.43c0.137-0.168,0.168-0.389,0.168-1.103C5.333,47.152,5.207,47.152,4.871,47.152z"/>
	<path d="M15.791,49.62c0.62-0.504,1.029-0.935,1.386-1.512c0.546-0.893,0.893-2.111,0.893-3.192c0-1.04-0.378-1.68-0.998-1.68
		c-0.557,0-1.292,0.452-2.016,1.239c-0.2,0.2-0.263,0.242-0.431,0.242c-0.22,0-0.472-0.168-0.693-0.473
		c-0.179-0.241-0.284-0.514-0.284-0.704c0-0.136,0.042-0.231,0.168-0.388c0.095,0.462,0.305,0.725,0.578,0.725
		c0.147,0,0.42-0.116,0.966-0.41c0.892-0.483,1.239-0.599,1.774-0.599c0.483,0,0.998,0.273,1.302,0.704
		c0.252,0.368,0.399,0.914,0.399,1.543c0,1.239-0.472,2.468-1.302,3.392c-0.515,0.567-1.05,0.966-1.648,1.229L15.791,49.62z
		 M15.213,40.075c0.515,0.431,1.229,0.672,1.964,0.672h0.241c0.21,0,0.357,0.074,0.567,0.252c0.147,0.126,0.221,0.252,0.221,0.357
		c0,0.147-0.147,0.231-0.431,0.231c-0.441,0.01-0.441,0.01-2.614,0.64l-0.053-0.147c0.788-0.357,1.512-0.682,1.775-0.777
		c-0.861-0.178-1.375-0.504-1.775-1.145L15.213,40.075z"/>
	<path d="M28.423,41.472c0.325,0.389,0.504,0.494,0.892,0.494c0.63,0,1.417-0.273,1.995-0.683c0.042-0.031,0.095-0.052,0.147-0.052
		c0.21,0,0.588,0.315,0.588,0.504c0,0.094-0.042,0.126-0.346,0.283c-0.431,0.21-0.945,0.651-1.333,1.145
		c-0.756,0.935-1.155,1.974-1.155,2.993c0,1.417,0.788,2.299,2.037,2.299c0.956,0,1.795-0.525,2.278-1.417
		c0.347-0.661,0.525-1.543,0.525-2.656c0-1.103-0.105-1.974-0.347-2.846c-0.032-0.105-0.053-0.22-0.053-0.252
		c0-0.105,0.084-0.189,0.2-0.189h0.011c0.157,0.011,0.378,0.126,0.504,0.263c0.126,0.115,0.147,0.168,0.157,0.388
		c0.042,0.483,0.41,1.564,0.84,2.415c0.294,0.599,0.546,0.977,0.84,1.271c0.199,0.2,0.305,0.515,0.305,0.872
		c0,0.242-0.095,0.41-0.242,0.41c-0.242,0-0.525-0.368-0.945-1.218c-0.431-0.882-0.714-1.648-1.124-3.013l-0.032,0.01
		c0.21,1.491,0.242,1.869,0.242,2.636c0,1.396-0.305,2.404-0.935,3.118c-0.504,0.578-1.26,0.903-2.058,0.903
		c-1.564,0-2.593-1.176-2.593-2.972c0-0.662,0.147-1.407,0.42-2.068c0.252-0.63,0.536-1.103,1.071-1.785
		c-0.357,0.063-0.599,0.095-0.809,0.095c-0.588,0-0.955-0.252-1.229-0.84L28.423,41.472z"/>
	<path d="M56.804,47.016c-1.008,1.365-2.384,2.174-3.686,2.174c-0.798,0-1.417-0.326-1.743-0.893
		c-0.21-0.368-0.294-0.882-0.294-1.774c0-0.578,0.032-1.575,0.084-2.531c0.063-1.134,0.074-1.428,0.074-1.806
		c0-0.903-0.105-1.081-0.851-1.396c0.115-0.084,0.178-0.105,0.294-0.105c0.242,0,0.62,0.095,0.945,0.242
		c0.399,0.189,0.609,0.399,0.609,0.62c0,0.073-0.011,0.136-0.095,0.378c-0.2,0.63-0.546,3.812-0.546,5.04
		c0,0.64,0.126,1.019,0.42,1.26c0.231,0.179,0.567,0.284,0.935,0.284c0.714,0,1.596-0.252,2.394-0.672
		c0.483-0.252,0.787-0.473,1.333-0.935L56.804,47.016z"/>
	<path d="M11.875,59.175h4.032c0.462-0.609,0.609-0.777,1.113-1.323c0.798,0.63,1.05,0.84,1.827,1.554
		c0.042,0.042,0.084,0.105,0.084,0.147c0,0.063-0.105,0.105-0.252,0.105h-6.804v3.843h5.859c0.546-0.651,0.714-0.84,1.281-1.428
		c0.819,0.693,1.05,0.924,1.827,1.659c0.042,0.042,0.063,0.105,0.063,0.126c0,0.063-0.105,0.126-0.21,0.126h-8.82v1.113
		c0,2.499,0.021,4.032,0.042,4.599c-0.042,0.168-0.084,0.21-0.252,0.252c-0.126,0.042-0.798,0.105-1.029,0.105
		s-0.315-0.063-0.315-0.252c0.042-1.491,0.063-3.024,0.063-4.704v-1.113h-6.3c-0.714,0-1.575,0.042-2.121,0.105l-0.147-0.798
		c0.882,0.147,1.596,0.21,2.415,0.21h6.153v-3.843H5.827c-0.441,0-1.197,0.042-1.89,0.126l-0.126-0.777
		c0.798,0.126,1.365,0.168,2.1,0.168h4.473V55.71H4.882c-0.483,0-1.155,0.042-1.89,0.147l-0.105-0.861
		c0.63,0.126,1.512,0.231,1.995,0.231h3.255c-0.231-0.21-0.231-0.231-0.441-0.84c-0.168-0.567-0.567-1.323-0.966-1.974
		c-0.231-0.336-0.441-0.567-0.903-1.029l0.189-0.252c1.008,0.504,1.596,0.903,2.352,1.575c0.588,0.546,0.84,0.924,0.84,1.302
		c0,0.399-0.231,0.861-0.588,1.218h3.906c1.26-1.974,1.575-2.604,2.079-4.095c1.911,0.588,2.331,0.756,2.331,0.987
		s-0.21,0.294-1.029,0.294c-1.302,1.449-1.659,1.806-2.835,2.814h4.032c0.483-0.651,0.63-0.84,1.155-1.449
		c0.84,0.672,1.092,0.882,1.848,1.617c0.042,0.063,0.084,0.126,0.084,0.168c0,0.084-0.126,0.147-0.294,0.147h-8.022V59.175z"/>
	<path d="M24.391,69.633c2.898-0.945,4.431-1.68,6.153-2.94c0.609-0.441,1.113-0.861,1.596-1.302
		c-1.827-1.89-2.898-3.633-3.591-5.796h-1.638c-0.105,2.562-0.462,4.284-1.176,6.048c-0.735,1.785-1.512,2.898-3.045,4.368
		l-0.231-0.21c1.323-1.743,1.953-3.087,2.457-5.145c0.42-1.785,0.609-3.885,0.609-7.035c0-2.037-0.021-3.024-0.105-4.326
		c0.798,0.504,1.05,0.651,1.827,1.197h4.368v-0.651c-0.021-1.596-0.063-2.562-0.084-2.898c1.995,0.231,2.541,0.357,2.541,0.567
		c0,0.168-0.315,0.336-0.987,0.483v2.499h4.956c0.42-0.462,0.546-0.609,0.987-1.05c0.819,0.588,1.071,0.777,1.869,1.47
		c0.084,0.084,0.105,0.147,0.105,0.189c0,0.021-0.042,0.105-0.084,0.126c-0.084,0.063-0.294,0.105-0.525,0.147l-0.399,0.042
		c-0.126,0.021-0.273,0.042-0.399,0.063c-1.008,0.966-1.365,1.302-2.247,2.058l-0.189-0.189c0.483-1.05,0.651-1.449,0.966-2.373
		h-5.04v4.137h3.024c0.378-0.441,0.504-0.567,0.903-1.008c0.63,0.588,0.819,0.756,1.386,1.344c0.084,0.084,0.105,0.126,0.105,0.189
		c0,0.126-0.021,0.147-0.945,0.399c-1.155,2.331-2.163,3.822-3.696,5.397c2.31,1.449,4.641,2.184,7.917,2.457l-0.021,0.294
		c-0.987,0.189-1.218,0.42-1.554,1.533c-3.213-0.924-5.292-1.932-7.182-3.507c-0.798,0.693-1.533,1.197-2.499,1.722
		c-1.701,0.903-3.234,1.407-6.048,1.995L24.391,69.633z M31.615,54.975h-4.641c0,0.168-0.021,1.554-0.042,4.137h4.683V54.975z
		 M28.99,59.595c0.966,2.226,2.037,3.654,3.843,5.103c1.512-1.638,2.415-3.045,3.276-5.103H28.99z"/>
	<path d="M43.438,69.444c0.735-2.247,1.155-4.557,1.218-6.741c1.575,0.273,1.869,0.357,1.869,0.546c0,0.147-0.147,0.231-0.609,0.357
		c-0.609,2.625-1.071,3.885-2.163,5.985L43.438,69.444z M43.836,54.387c0.693,0.357,0.945,0.504,1.365,0.756
		c0.399-0.63,0.504-0.798,0.84-1.575c0.567-1.26,0.714-1.722,0.861-2.625c1.701,0.546,2.205,0.777,2.205,0.966
		c0,0.168-0.21,0.252-0.819,0.336c-0.84,1.218-1.029,1.428-2.709,3.129c0.861,0.567,1.197,0.987,1.197,1.533
		c0,0.462-0.315,1.113-0.525,1.113c-0.126,0-0.231-0.126-0.378-0.399c-0.504-1.029-0.966-1.701-2.121-3.003L43.836,54.387z
		 M46.987,60.834c-1.092,0.231-1.365,0.273-2.289,0.441c-0.126,0.693-0.189,0.84-0.357,0.84c-0.084,0-0.147-0.063-0.189-0.168
		c0-0.042-0.147-0.693-0.399-1.911c0.378,0.021,0.63,0.042,0.798,0.042s0.378,0,0.693-0.021c0.189-0.021,0.189-0.021,0.609-0.042
		c0.672-0.987,0.924-1.365,1.596-2.625c1.176-2.163,1.533-2.898,1.869-3.906c1.596,0.609,2.184,0.882,2.184,1.05
		c0,0.189-0.231,0.252-1.008,0.273c-0.588,0.882-1.008,1.428-3.024,4.011c-0.567,0.714-0.567,0.714-0.966,1.155
		c0.21,0,0.21,0,0.588-0.021c0.462-0.042,0.924-0.084,2.667-0.315c-0.252-0.546-0.399-0.756-0.903-1.491l0.273-0.21
		c0.756,0.567,1.386,1.176,1.932,1.827c0.336,0.42,0.441,0.672,0.441,1.008c0,0.588-0.399,1.302-0.714,1.302
		c-0.147,0-0.252-0.168-0.357-0.546c-0.063-0.189-0.21-0.651-0.483-1.428c-0.798,0.252-0.903,0.273-1.659,0.462v4.767
		c0,2.268,0,2.268,0.042,4.599c0,0.042,0,0.084,0,0.105c0,0.105-0.042,0.168-0.147,0.21c-0.126,0.063-0.756,0.126-1.071,0.126
		c-0.147,0-0.21-0.063-0.21-0.21c0,0,0-0.021,0-0.042c0.084-1.68,0.084-1.68,0.084-4.62V60.834z M49.17,62.388
		c1.197,1.386,1.911,2.625,1.911,3.318c0,0.546-0.546,1.386-0.903,1.386c-0.168,0-0.252-0.189-0.315-0.714
		c-0.021-0.357-0.147-1.197-0.252-1.764c-0.126-0.819-0.273-1.281-0.63-2.079L49.17,62.388z M59.376,58.818
		c0.567-0.693,0.756-0.903,1.323-1.554c0.861,0.672,1.113,0.903,1.911,1.68c0.042,0.084,0.084,0.147,0.084,0.189
		c0,0.084-0.084,0.126-0.21,0.126l-4.368,0.105c0.105,1.617,0.294,2.646,0.651,3.843c0.546,1.785,1.071,2.751,2.121,3.906
		c0.504-0.735,0.588-0.882,1.008-1.743c0.126-0.231,0.231-0.462,0.336-0.693c0.105-0.231,0.273-0.546,0.483-1.008l0.252,0.105
		l-0.735,3.234c-0.084,0.315-0.147,0.777-0.147,0.987c0,0.231,0.021,0.273,0.315,0.735c0.105,0.168,0.147,0.273,0.147,0.441
		c0,0.357-0.252,0.672-0.504,0.672c-0.63,0-1.554-0.693-2.352-1.806c-1.218-1.659-2.121-3.759-2.541-5.922
		c-0.147-0.756-0.231-1.491-0.336-2.73l-3.234,0.084v8.064c1.281-0.315,1.407-0.357,4.053-1.113l0.126,0.252
		c-1.785,0.903-2.982,1.449-6.321,2.856c-0.042,0.567-0.147,0.84-0.357,0.84c-0.084,0-0.126-0.063-0.189-0.189
		c-0.147-0.336-0.441-1.26-0.651-2.016c0.651-0.021,0.945-0.063,1.995-0.315V55.941c0.042-1.512,0.042-1.512,0.042-1.575
		c0-0.168,0-0.441-0.021-0.903c0-0.168-0.021-0.42-0.021-0.756c0.693,0.399,0.882,0.525,1.47,0.966
		c2.478-0.567,4.452-1.407,6.3-2.667c0.42,0.273,0.756,0.462,0.966,0.588c0.756,0.441,0.966,0.609,0.966,0.756
		s-0.189,0.252-0.42,0.252s-0.525-0.021-0.819-0.084c-1.113,0.357-1.428,0.441-2.73,0.756c-0.021,0.882-0.021,1.113-0.021,1.785
		c0,1.197,0.042,2.457,0.126,3.801L59.376,58.818z M56.772,58.881c-0.105-1.512-0.147-3.066-0.147-4.746v-0.567
		c-0.399,0.084-0.693,0.147-0.882,0.189c-0.987,0.231-1.176,0.273-2.163,0.42v4.788L56.772,58.881z"/>
</g>
<rect x="0.25" y="10.75" fill="none" stroke="#008CD6" stroke-width="0.5" width="63" height="21"/>
<line fill="none" stroke="#008CD6" stroke-width="0.5" x1="21.25" y1="31.75" x2="21.25" y2="10.75"/>
<line fill="none" stroke="#008CD6" stroke-width="0.5" x1="42.25" y1="31.75" x2="42.25" y2="10.75"/>
<polyline fill="none" stroke="#008CD6" stroke-width="0.5" points="0.25,10.75 0.25,0.25 21.25,0.25 21.25,10.75 "/>
<line fill="none" stroke="#008CD6" stroke-width="0.5" x1="10.75" y1="10.75" x2="10.75" y2="0.25"/>
<polyline fill="none" stroke="#008CD6" stroke-width="0.5" points="26.5,10.75 26.5,0.25 37,0.25 37,10.75 "/>
<polyline fill="none" stroke="#008CD6" stroke-width="0.5" points="47.5,10.75 47.5,0.25 58,0.25 58,10.75 "/>
</svg>
