<?xml version="1.0" encoding="utf-8"?>
<!-- Generator: Adobe Illustrator 12.0.0, SVG Export Plug-In . SVG Version: 6.00 Build 51448)  -->
<!DOCTYPE svg PUBLIC "-//W3C//DTD SVG 1.1//EN" "http://www.w3.org/Graphics/SVG/1.1/DTD/svg11.dtd" [
	<!ENTITY ns_svg "http://www.w3.org/2000/svg">
	<!ENTITY ns_xlink "http://www.w3.org/1999/xlink">
]>
<svg  version="1.1" id="レイヤー_1" xmlns="&ns_svg;" xmlns:xlink="&ns_xlink;" width="63.5" height="157.221"
	 viewBox="0 0 63.5 157.221" overflow="visible" enable-background="new 0 0 63.5 157.221" xml:space="preserve">
<g>
	<path d="M7.747,2.569c0.252,0.378,0.42,0.557,0.725,0.756C8.838,3.556,9.153,3.672,9.7,3.777c0.294-1.459,0.325-1.617,0.325-1.869
		c0-0.357-0.147-0.578-0.567-0.872c0.084-0.031,0.115-0.042,0.179-0.042c0.189,0,0.462,0.116,0.777,0.326
		c0.336,0.231,0.546,0.525,0.546,0.756c0,0.095-0.032,0.179-0.137,0.305c-0.178,0.252-0.294,0.536-0.577,1.459
		c0.22,0.063,0.315,0.115,0.42,0.231c0.084,0.094,0.147,0.242,0.147,0.347c0,0.136-0.126,0.22-0.336,0.22
		c-0.105,0-0.242-0.021-0.41-0.052c-0.21,0.703-0.336,1.323-0.42,1.942c0.252,0.052,0.431,0.073,0.536,0.073
		c0.031,0,0.052,0,0.084-0.01C10.33,6.58,10.372,6.58,10.382,6.58c0.273,0,0.63,0.326,0.63,0.567c0,0.147-0.137,0.241-0.357,0.241
		c-0.294,0-0.735-0.073-1.113-0.189C9.521,7.452,9.51,7.578,9.51,7.714c0,1.071,0.599,1.669,1.659,1.669
		c0.714,0,1.333-0.273,1.659-0.714c0.231-0.315,0.346-0.672,0.346-1.071c0-0.872-0.588-1.858-1.585-2.625l0.116-0.136
		c1.554,0.956,2.215,1.827,2.215,2.898c0,1.271-1.092,2.236-2.551,2.236c-0.546,0-1.071-0.157-1.428-0.431
		C9.395,9.132,9.132,8.502,9.132,7.588c0-0.126,0.011-0.263,0.021-0.525c-0.409-0.189-0.619-0.315-0.84-0.536
		C8.03,6.234,7.852,5.845,7.852,5.488c0-0.242,0.115-0.504,0.325-0.725c0.252-0.252,0.515-0.399,1.019-0.557
		C8.775,4.05,8.481,3.861,8.177,3.556c-0.22-0.231-0.346-0.441-0.546-0.924L7.747,2.569z M8.366,4.911
		C8.208,5.079,8.135,5.236,8.135,5.436c0,0.441,0.357,0.767,1.082,0.987c0.053-0.525,0.147-1.124,0.315-1.911
		C8.922,4.543,8.618,4.659,8.366,4.911z"/>
	<path d="M25.702,5.94c-0.221,0.956-0.546,1.69-1.029,2.341c-0.578,0.777-1.375,1.25-2.1,1.25c-0.325,0-0.672-0.116-0.903-0.305
		c-0.294-0.241-0.389-0.556-0.462-1.417c-0.063-0.672-0.105-0.924-0.189-1.134c-0.116-0.336-0.368-0.504-0.714-0.504
		c-0.903,0-1.848,1.05-2.447,2.719c-0.189,0.536-0.22,0.588-0.378,0.588c-0.105,0-0.21-0.105-0.284-0.283
		c-0.073-0.2-0.136-0.452-0.136-0.578s0.031-0.199,0.147-0.357c0.431-0.588,1.103-1.785,2.1-3.759
		c0.661-1.292,0.966-2.048,0.966-2.363c0-0.336-0.168-0.514-0.714-0.777c0.115-0.063,0.199-0.095,0.294-0.095
		c0.242,0,0.662,0.179,1.071,0.473c0.263,0.179,0.357,0.305,0.357,0.462c0,0.147-0.021,0.189-0.189,0.399
		c-0.147,0.179-0.493,0.735-0.934,1.491C20,4.354,19.748,4.795,19.38,5.415c-0.43,0.725-0.535,0.903-0.851,1.47h0.021
		c0.683-0.704,1.26-1.029,1.817-1.029c0.525,0,0.945,0.252,1.187,0.703C21.701,6.843,21.732,7,21.89,7.977
		c0.094,0.567,0.315,0.819,0.714,0.819c1.05,0,2.268-1.208,2.93-2.898L25.702,5.94z"/>
	<path fill="#ED6E46" d="M35.309,7.641c-1.008,1.365-2.384,2.174-3.686,2.174c-0.798,0-1.417-0.326-1.743-0.893
		c-0.21-0.368-0.294-0.882-0.294-1.774c0-0.578,0.032-1.575,0.084-2.531c0.063-1.134,0.074-1.428,0.074-1.806
		c0-0.903-0.105-1.081-0.851-1.396c0.115-0.084,0.178-0.105,0.294-0.105c0.242,0,0.62,0.095,0.945,0.242
		c0.399,0.189,0.609,0.399,0.609,0.62c0,0.073-0.011,0.136-0.095,0.378c-0.2,0.63-0.546,3.812-0.546,5.04
		c0,0.64,0.126,1.019,0.42,1.26c0.231,0.179,0.567,0.284,0.935,0.284c0.714,0,1.596-0.252,2.394-0.672
		c0.483-0.252,0.787-0.473,1.333-0.935L35.309,7.641z"/>
	<path fill="#ED6E46" d="M41.357,1.32c0.252,0,0.536,0.042,0.84,0.126c0.357,0.094,0.525,0.242,0.525,0.452
		c0,0.084,0,0.084-0.084,0.294c-0.116,0.325-0.21,0.977-0.21,1.512c0,0.042,0,0.116,0,0.2c0.105,0.094,0.158,0.115,0.284,0.115
		c0.399,0,1.208-0.315,1.596-0.619c0.115-0.084,0.168-0.116,0.231-0.116c0.094,0,0.304,0.063,0.451,0.137
		c0.168,0.094,0.221,0.157,0.221,0.252c0,0.157-0.136,0.241-0.62,0.42c-0.567,0.21-1.071,0.326-1.459,0.326
		c-0.304,0-0.472-0.063-0.704-0.263c0,0.2,0,0.368,0,0.462c0,0.83,0.053,2.058,0.116,2.741c0.819,0.136,1.596,0.409,2.215,0.766
		c0.452,0.252,0.651,0.536,0.651,0.903c0,0.252-0.074,0.399-0.21,0.399c-0.074,0-0.137-0.042-0.252-0.137
		c-0.892-0.756-1.386-1.039-2.362-1.333c0.021,0.494,0.021,0.494,0.021,0.683c0,0.515-0.242,0.851-0.746,1.04
		c-0.252,0.095-0.693,0.158-1.071,0.158c-1.103,0-1.795-0.441-1.795-1.145c0-0.504,0.357-0.903,1.019-1.155
		c0.409-0.157,0.976-0.252,1.522-0.252c0.084,0,0.22,0,0.399,0.011c-0.063-4.221-0.063-4.221-0.147-4.925
		c-0.074-0.609-0.231-0.777-0.914-0.892C41.042,1.351,41.126,1.32,41.357,1.32z M41.126,7.777c-1.082,0-1.858,0.367-1.858,0.893
		c0,0.42,0.431,0.661,1.176,0.661c0.609,0,1.113-0.168,1.313-0.43c0.137-0.168,0.168-0.389,0.168-1.103
		C41.588,7.777,41.462,7.777,41.126,7.777z"/>
	<path fill="#ED6E46" d="M52.046,10.245c0.62-0.504,1.029-0.935,1.386-1.512c0.546-0.893,0.893-2.111,0.893-3.192
		c0-1.04-0.378-1.68-0.998-1.68c-0.557,0-1.292,0.452-2.016,1.239c-0.2,0.2-0.263,0.242-0.431,0.242
		c-0.22,0-0.472-0.168-0.693-0.473c-0.179-0.241-0.284-0.514-0.284-0.704c0-0.136,0.042-0.231,0.168-0.388
		c0.095,0.462,0.305,0.725,0.578,0.725c0.147,0,0.42-0.116,0.966-0.41c0.892-0.483,1.239-0.599,1.774-0.599
		c0.483,0,0.998,0.273,1.302,0.704c0.252,0.368,0.399,0.914,0.399,1.543c0,1.239-0.472,2.468-1.302,3.392
		c-0.515,0.567-1.05,0.966-1.648,1.229L52.046,10.245z M51.468,0.7c0.515,0.431,1.229,0.672,1.964,0.672h0.241
		c0.21,0,0.357,0.074,0.567,0.252c0.147,0.126,0.221,0.252,0.221,0.357c0,0.147-0.147,0.231-0.431,0.231
		c-0.441,0.01-0.441,0.01-2.614,0.64l-0.053-0.147c0.788-0.357,1.512-0.682,1.775-0.777c-0.861-0.178-1.375-0.504-1.775-1.145
		L51.468,0.7z"/>
	<path d="M9.747,29.88c0.42-1.26,0.609-2.058,0.987-4.137c0.189-0.987,0.252-1.617,0.336-2.73c1.722,0.42,1.974,0.504,1.974,0.714
		c0,0.189-0.21,0.294-0.735,0.378c-0.357,1.302-0.588,2.037-0.924,3.087c-0.462,1.344-0.693,1.827-1.365,2.835L9.747,29.88z
		 M12.057,16.104c0.735,0.546,0.966,0.84,0.966,1.26c0,0.546-0.357,1.239-0.651,1.239c-0.147,0-0.252-0.126-0.378-0.441
		c-0.315-0.798-1.26-2.247-2.079-3.129l0.105-0.273c0.693,0.378,0.882,0.504,1.617,1.029c1.008-1.848,1.449-2.982,1.638-4.116
		c1.869,0.546,2.247,0.693,2.247,0.882s-0.252,0.273-0.987,0.315c-0.84,1.197-0.861,1.239-2.583,3.15L12.057,16.104z M13.38,21.459
		c-0.945,0.21-1.386,0.294-2.499,0.462c-0.105,0.504-0.21,0.714-0.378,0.714c-0.189,0-0.252-0.273-0.483-1.911
		c0.483,0.021,0.714,0.021,0.924,0.021c0.294,0,0.63-0.021,0.987-0.042c0.735-0.945,1.05-1.428,1.764-2.688
		c1.155-2.016,1.638-2.961,1.995-4.032c2.226,0.798,2.226,0.798,2.226,0.987c0,0.21-0.21,0.252-1.071,0.273
		c-1.134,1.722-2.31,3.234-4.263,5.439c2.142-0.126,2.688-0.168,3.675-0.294c-0.21-0.546-0.399-0.924-0.924-1.953l0.273-0.126
		c0.651,0.588,0.819,0.777,1.533,1.596c0.609,0.714,0.798,1.05,0.798,1.386c0,0.231-0.189,0.735-0.399,1.008
		c-0.147,0.189-0.294,0.294-0.462,0.294s-0.231-0.105-0.357-0.714c-0.084-0.357-0.147-0.63-0.315-1.113
		c-0.672,0.168-0.693,0.189-1.68,0.42v4.851c0,2.541,0,2.541,0.021,4.536c0,0.168-0.042,0.231-0.189,0.294
		c-0.126,0.042-0.567,0.084-0.945,0.084c-0.231,0-0.315-0.063-0.315-0.252c0.042-1.029,0.042-1.029,0.084-4.557V21.459z
		 M26.358,16.482c-0.336,2.478-0.546,3.465-1.029,4.872c-0.483,1.47-1.113,2.688-1.974,3.843c1.743,1.722,3.213,2.562,5.985,3.465
		l-0.063,0.273c-0.777,0.168-1.008,0.399-1.386,1.407c-1.491-0.756-2.1-1.176-3.297-2.184c-0.882-0.735-1.491-1.302-2.058-1.974
		c-0.798,0.882-1.617,1.638-2.52,2.289c-1.176,0.861-2.121,1.344-4.599,2.31l-0.105-0.294c2.415-1.386,3.297-1.995,4.452-3.045
		c0.756-0.693,1.386-1.365,2.058-2.226c-0.945-1.407-1.659-3.108-2.058-4.851c-0.252-1.113-0.294-1.491-0.483-3.885H18.63
		c-0.651,0-0.987,0.021-1.659,0.147l-0.126-0.819c0.588,0.147,0.945,0.189,1.701,0.189h3.108V14.13c0-0.903-0.021-1.365-0.105-2.331
		c0.504,0.084,0.882,0.147,1.113,0.168c1.176,0.147,1.386,0.21,1.386,0.42c0,0.189-0.273,0.336-0.924,0.504v3.108h2.709
		c0.609-0.693,0.798-0.882,1.386-1.512c0.861,0.693,1.113,0.924,1.911,1.659c0.042,0.084,0.084,0.147,0.084,0.21
		c0,0.084-0.105,0.126-0.294,0.126H26.358z M15.879,23.013c0.504,0.651,0.693,0.945,1.26,1.806c0.441,0.693,0.588,1.05,0.588,1.386
		c0,0.84-0.483,1.701-0.945,1.701c-0.189,0-0.252-0.126-0.315-0.735c-0.147-1.386-0.336-2.268-0.882-4.158H15.879z M19.722,16.482
		c0.126,1.596,0.273,2.415,0.714,3.78c0.504,1.68,1.155,2.898,2.058,4.011c0.735-1.176,1.239-2.268,1.68-3.759
		c0.441-1.491,0.588-2.289,0.672-4.032H19.722z"/>
	<path fill="#ED6E46" d="M46.182,26.856h5.88c0.525-0.693,0.693-0.903,1.218-1.554c0.84,0.735,1.092,0.945,1.869,1.701
		c0.063,0.084,0.084,0.147,0.084,0.189c0,0.063-0.084,0.147-0.168,0.147h-8.883v0.546l0.042,2.583c0,0.021,0,0.105,0,0.231
		c-0.042,0.357-0.231,0.42-1.344,0.42c-0.21,0-0.273-0.042-0.294-0.21l0.063-3.024v-0.546h-6.867c-0.483,0-1.071,0.063-1.449,0.147
		l-0.21-0.819c0.462,0.105,1.176,0.189,1.659,0.189h6.867v-1.974h-3.801v0.672c-0.042,0.21-0.168,0.273-0.672,0.273
		c-0.042,0-0.084,0-0.126,0s-0.063,0-0.084,0c-0.063,0-0.126,0-0.294,0c-0.273,0-0.399-0.063-0.399-0.231c0,0,0-0.021,0-0.042
		c0.126-1.68,0.147-2.478,0.147-4.305c0-1.722,0-1.911-0.063-2.625c0.714,0.315,0.924,0.441,1.617,0.84h9.114
		c0.294-0.378,0.399-0.504,0.777-0.819c0.63,0.399,0.819,0.525,1.386,1.008c0.084,0.063,0.126,0.126,0.126,0.168
		c0,0.147-0.126,0.252-0.777,0.567l0.021,5.04c0,0.021,0,0.042,0,0.042c0,0.126-0.21,0.189-0.693,0.21
		c-0.189,0-0.336,0.021-0.378,0.021c-0.021,0-0.042,0-0.063,0c-0.231,0-0.315-0.063-0.315-0.273v-0.546h-3.99V26.856z M51.054,13.71
		c0.483-0.651,0.651-0.84,1.218-1.47c0.798,0.651,1.029,0.882,1.806,1.617c0.042,0.063,0.084,0.105,0.084,0.147
		c0,0.084-0.105,0.189-0.231,0.189h-5.187c0.546,0.231,0.735,0.315,0.966,0.441c0.273,0.147,0.462,0.231,0.483,0.252
		c0.189,0.084,0.252,0.147,0.252,0.231c0,0.189-0.126,0.252-0.84,0.315l-1.848,1.974h4.221l1.176-1.428
		c0.819,0.651,1.05,0.861,1.806,1.554c0.063,0.063,0.084,0.126,0.084,0.168c0,0.105-0.105,0.189-0.189,0.189H37.782
		c-0.294,0-0.336,0-0.756,0.063c-0.252,0.042-0.252,0.042-0.525,0.063l-0.168-0.777c0.357,0.084,1.155,0.168,1.449,0.168h4.662
		c-0.189-0.168-0.21-0.21-0.609-1.386c-0.147-0.441-0.378-0.924-0.819-1.659l0.189-0.168h-2.562c-0.336,0-0.651,0.021-1.302,0.126
		l-0.189-0.756c0.357,0.063,1.176,0.147,1.491,0.147h6.048v-1.071c0-0.147-0.063-0.714-0.105-1.008
		c1.533,0.084,2.457,0.273,2.457,0.525c0,0.147-0.21,0.273-0.882,0.483v1.071H51.054z M50.172,19.947h-9.324v1.89h9.324V19.947z
		 M40.848,22.32v2.079h9.324V22.32H40.848z M41.373,14.193c0.357,0.252,1.26,1.008,1.491,1.218c0.231,0.231,0.462,0.63,0.462,0.819
		s-0.105,0.483-0.252,0.777c-0.105,0.189-0.189,0.273-0.42,0.399h4.494c0.483-0.735,1.134-2.373,1.302-3.213H41.373z"/>
</g>
<g>
	<path d="M7.747,41.944c0.252,0.378,0.42,0.557,0.725,0.756c0.367,0.231,0.682,0.347,1.229,0.452
		c0.294-1.459,0.325-1.617,0.325-1.869c0-0.357-0.147-0.578-0.567-0.872c0.084-0.031,0.115-0.042,0.179-0.042
		c0.189,0,0.462,0.116,0.777,0.326c0.336,0.231,0.546,0.525,0.546,0.756c0,0.095-0.032,0.179-0.137,0.305
		c-0.178,0.252-0.294,0.536-0.577,1.459c0.22,0.063,0.315,0.115,0.42,0.231c0.084,0.094,0.147,0.242,0.147,0.347
		c0,0.136-0.126,0.22-0.336,0.22c-0.105,0-0.242-0.021-0.41-0.052c-0.21,0.703-0.336,1.323-0.42,1.942
		c0.252,0.052,0.431,0.073,0.536,0.073c0.031,0,0.052,0,0.084-0.01c0.063-0.011,0.105-0.011,0.115-0.011
		c0.273,0,0.63,0.326,0.63,0.567c0,0.147-0.137,0.241-0.357,0.241c-0.294,0-0.735-0.073-1.113-0.189
		c-0.021,0.252-0.032,0.378-0.032,0.515c0,1.071,0.599,1.669,1.659,1.669c0.714,0,1.333-0.273,1.659-0.714
		c0.231-0.315,0.346-0.672,0.346-1.071c0-0.872-0.588-1.858-1.585-2.625l0.116-0.136c1.554,0.956,2.215,1.827,2.215,2.898
		c0,1.271-1.092,2.236-2.551,2.236c-0.546,0-1.071-0.157-1.428-0.431c-0.546-0.409-0.809-1.039-0.809-1.953
		c0-0.126,0.011-0.263,0.021-0.525c-0.409-0.189-0.619-0.315-0.84-0.536c-0.284-0.294-0.462-0.683-0.462-1.04
		c0-0.242,0.115-0.504,0.325-0.725c0.252-0.252,0.515-0.399,1.019-0.557c-0.42-0.157-0.714-0.346-1.019-0.651
		c-0.22-0.231-0.346-0.441-0.546-0.924L7.747,41.944z M8.366,44.286c-0.158,0.168-0.231,0.326-0.231,0.525
		c0,0.441,0.357,0.767,1.082,0.987c0.053-0.525,0.147-1.124,0.315-1.911C8.922,43.918,8.618,44.034,8.366,44.286z"/>
	<path d="M25.702,45.315c-0.221,0.956-0.546,1.69-1.029,2.341c-0.578,0.777-1.375,1.25-2.1,1.25c-0.325,0-0.672-0.116-0.903-0.305
		c-0.294-0.241-0.389-0.556-0.462-1.417c-0.063-0.672-0.105-0.924-0.189-1.134c-0.116-0.336-0.368-0.504-0.714-0.504
		c-0.903,0-1.848,1.05-2.447,2.719c-0.189,0.536-0.22,0.588-0.378,0.588c-0.105,0-0.21-0.105-0.284-0.283
		c-0.073-0.2-0.136-0.452-0.136-0.578s0.031-0.199,0.147-0.357c0.431-0.588,1.103-1.785,2.1-3.759
		c0.661-1.292,0.966-2.048,0.966-2.363c0-0.336-0.168-0.514-0.714-0.777c0.115-0.063,0.199-0.095,0.294-0.095
		c0.242,0,0.662,0.179,1.071,0.473c0.263,0.179,0.357,0.305,0.357,0.462c0,0.147-0.021,0.189-0.189,0.399
		c-0.147,0.179-0.493,0.735-0.934,1.491C20,43.729,19.748,44.17,19.38,44.79c-0.43,0.725-0.535,0.903-0.851,1.47h0.021
		c0.683-0.704,1.26-1.029,1.817-1.029c0.525,0,0.945,0.252,1.187,0.703c0.147,0.284,0.178,0.441,0.336,1.417
		c0.094,0.567,0.315,0.819,0.714,0.819c1.05,0,2.268-1.208,2.93-2.898L25.702,45.315z"/>
	<path d="M35.309,47.016c-1.008,1.365-2.384,2.174-3.686,2.174c-0.798,0-1.417-0.326-1.743-0.893
		c-0.21-0.368-0.294-0.882-0.294-1.774c0-0.578,0.032-1.575,0.084-2.531c0.063-1.134,0.074-1.428,0.074-1.806
		c0-0.903-0.105-1.081-0.851-1.396c0.115-0.084,0.178-0.105,0.294-0.105c0.242,0,0.62,0.095,0.945,0.242
		c0.399,0.189,0.609,0.399,0.609,0.62c0,0.073-0.011,0.136-0.095,0.378c-0.2,0.63-0.546,3.812-0.546,5.04
		c0,0.64,0.126,1.019,0.42,1.26c0.231,0.179,0.567,0.284,0.935,0.284c0.714,0,1.596-0.252,2.394-0.672
		c0.483-0.252,0.787-0.473,1.333-0.935L35.309,47.016z"/>
	<path d="M41.357,40.695c0.252,0,0.536,0.042,0.84,0.126c0.357,0.094,0.525,0.242,0.525,0.452c0,0.084,0,0.084-0.084,0.294
		c-0.116,0.325-0.21,0.977-0.21,1.512c0,0.042,0,0.116,0,0.2c0.105,0.094,0.158,0.115,0.284,0.115c0.399,0,1.208-0.315,1.596-0.619
		c0.115-0.084,0.168-0.116,0.231-0.116c0.094,0,0.304,0.063,0.451,0.137c0.168,0.094,0.221,0.157,0.221,0.252
		c0,0.157-0.136,0.241-0.62,0.42c-0.567,0.21-1.071,0.326-1.459,0.326c-0.304,0-0.472-0.063-0.704-0.263c0,0.2,0,0.368,0,0.462
		c0,0.83,0.053,2.058,0.116,2.741c0.819,0.136,1.596,0.409,2.215,0.766c0.452,0.252,0.651,0.536,0.651,0.903
		c0,0.252-0.074,0.399-0.21,0.399c-0.074,0-0.137-0.042-0.252-0.137c-0.892-0.756-1.386-1.039-2.362-1.333
		c0.021,0.494,0.021,0.494,0.021,0.683c0,0.515-0.242,0.851-0.746,1.04c-0.252,0.095-0.693,0.158-1.071,0.158
		c-1.103,0-1.795-0.441-1.795-1.145c0-0.504,0.357-0.903,1.019-1.155c0.409-0.157,0.976-0.252,1.522-0.252
		c0.084,0,0.22,0,0.399,0.011c-0.063-4.221-0.063-4.221-0.147-4.925c-0.074-0.609-0.231-0.777-0.914-0.892
		C41.042,40.726,41.126,40.695,41.357,40.695z M41.126,47.152c-1.082,0-1.858,0.367-1.858,0.893c0,0.42,0.431,0.661,1.176,0.661
		c0.609,0,1.113-0.168,1.313-0.43c0.137-0.168,0.168-0.389,0.168-1.103C41.588,47.152,41.462,47.152,41.126,47.152z"/>
	<path d="M52.046,49.62c0.62-0.504,1.029-0.935,1.386-1.512c0.546-0.893,0.893-2.111,0.893-3.192c0-1.04-0.378-1.68-0.998-1.68
		c-0.557,0-1.292,0.452-2.016,1.239c-0.2,0.2-0.263,0.242-0.431,0.242c-0.22,0-0.472-0.168-0.693-0.473
		c-0.179-0.241-0.284-0.514-0.284-0.704c0-0.136,0.042-0.231,0.168-0.388c0.095,0.462,0.305,0.725,0.578,0.725
		c0.147,0,0.42-0.116,0.966-0.41c0.892-0.483,1.239-0.599,1.774-0.599c0.483,0,0.998,0.273,1.302,0.704
		c0.252,0.368,0.399,0.914,0.399,1.543c0,1.239-0.472,2.468-1.302,3.392c-0.515,0.567-1.05,0.966-1.648,1.229L52.046,49.62z
		 M51.468,40.075c0.515,0.431,1.229,0.672,1.964,0.672h0.241c0.21,0,0.357,0.074,0.567,0.252c0.147,0.126,0.221,0.252,0.221,0.357
		c0,0.147-0.147,0.231-0.431,0.231c-0.441,0.01-0.441,0.01-2.614,0.64l-0.053-0.147c0.788-0.357,1.512-0.682,1.775-0.777
		c-0.861-0.178-1.375-0.504-1.775-1.145L51.468,40.075z"/>
	<path d="M9.747,69.255c0.42-1.26,0.609-2.058,0.987-4.137c0.189-0.987,0.252-1.617,0.336-2.73c1.722,0.42,1.974,0.504,1.974,0.714
		c0,0.189-0.21,0.294-0.735,0.378c-0.357,1.302-0.588,2.037-0.924,3.087c-0.462,1.344-0.693,1.827-1.365,2.835L9.747,69.255z
		 M12.057,55.479c0.735,0.546,0.966,0.84,0.966,1.26c0,0.546-0.357,1.239-0.651,1.239c-0.147,0-0.252-0.126-0.378-0.441
		c-0.315-0.798-1.26-2.247-2.079-3.129l0.105-0.273c0.693,0.378,0.882,0.504,1.617,1.029c1.008-1.848,1.449-2.982,1.638-4.116
		c1.869,0.546,2.247,0.693,2.247,0.882s-0.252,0.273-0.987,0.315c-0.84,1.197-0.861,1.239-2.583,3.15L12.057,55.479z M13.38,60.834
		c-0.945,0.21-1.386,0.294-2.499,0.462c-0.105,0.504-0.21,0.714-0.378,0.714c-0.189,0-0.252-0.273-0.483-1.911
		c0.483,0.021,0.714,0.021,0.924,0.021c0.294,0,0.63-0.021,0.987-0.042c0.735-0.945,1.05-1.428,1.764-2.688
		c1.155-2.016,1.638-2.961,1.995-4.032c2.226,0.798,2.226,0.798,2.226,0.987c0,0.21-0.21,0.252-1.071,0.273
		c-1.134,1.722-2.31,3.234-4.263,5.439c2.142-0.126,2.688-0.168,3.675-0.294c-0.21-0.546-0.399-0.924-0.924-1.953l0.273-0.126
		c0.651,0.588,0.819,0.777,1.533,1.596c0.609,0.714,0.798,1.05,0.798,1.386c0,0.231-0.189,0.735-0.399,1.008
		c-0.147,0.189-0.294,0.294-0.462,0.294s-0.231-0.105-0.357-0.714c-0.084-0.357-0.147-0.63-0.315-1.113
		c-0.672,0.168-0.693,0.189-1.68,0.42v4.851c0,2.541,0,2.541,0.021,4.536c0,0.168-0.042,0.231-0.189,0.294
		c-0.126,0.042-0.567,0.084-0.945,0.084c-0.231,0-0.315-0.063-0.315-0.252c0.042-1.029,0.042-1.029,0.084-4.557V60.834z
		 M26.358,55.857c-0.336,2.478-0.546,3.465-1.029,4.872c-0.483,1.47-1.113,2.688-1.974,3.843c1.743,1.722,3.213,2.562,5.985,3.465
		l-0.063,0.273c-0.777,0.168-1.008,0.399-1.386,1.407c-1.491-0.756-2.1-1.176-3.297-2.184c-0.882-0.735-1.491-1.302-2.058-1.974
		c-0.798,0.882-1.617,1.638-2.52,2.289c-1.176,0.861-2.121,1.344-4.599,2.31l-0.105-0.294c2.415-1.386,3.297-1.995,4.452-3.045
		c0.756-0.693,1.386-1.365,2.058-2.226c-0.945-1.407-1.659-3.108-2.058-4.851c-0.252-1.113-0.294-1.491-0.483-3.885H18.63
		c-0.651,0-0.987,0.021-1.659,0.147l-0.126-0.819c0.588,0.147,0.945,0.189,1.701,0.189h3.108v-1.869
		c0-0.903-0.021-1.365-0.105-2.331c0.504,0.084,0.882,0.147,1.113,0.168c1.176,0.147,1.386,0.21,1.386,0.42
		c0,0.189-0.273,0.336-0.924,0.504v3.108h2.709c0.609-0.693,0.798-0.882,1.386-1.512c0.861,0.693,1.113,0.924,1.911,1.659
		c0.042,0.084,0.084,0.147,0.084,0.21c0,0.084-0.105,0.126-0.294,0.126H26.358z M15.879,62.388c0.504,0.651,0.693,0.945,1.26,1.806
		c0.441,0.693,0.588,1.05,0.588,1.386c0,0.84-0.483,1.701-0.945,1.701c-0.189,0-0.252-0.126-0.315-0.735
		c-0.147-1.386-0.336-2.268-0.882-4.158H15.879z M19.722,55.857c0.126,1.596,0.273,2.415,0.714,3.78
		c0.504,1.68,1.155,2.898,2.058,4.011c0.735-1.176,1.239-2.268,1.68-3.759c0.441-1.491,0.588-2.289,0.672-4.032H19.722z"/>
	<path d="M46.182,66.231h5.88c0.525-0.693,0.693-0.903,1.218-1.554c0.84,0.735,1.092,0.945,1.869,1.701
		c0.063,0.084,0.084,0.147,0.084,0.189c0,0.063-0.084,0.147-0.168,0.147h-8.883v0.546l0.042,2.583c0,0.021,0,0.105,0,0.231
		c-0.042,0.357-0.231,0.42-1.344,0.42c-0.21,0-0.273-0.042-0.294-0.21l0.063-3.024v-0.546h-6.867c-0.483,0-1.071,0.063-1.449,0.147
		l-0.21-0.819c0.462,0.105,1.176,0.189,1.659,0.189h6.867v-1.974h-3.801v0.672c-0.042,0.21-0.168,0.273-0.672,0.273
		c-0.042,0-0.084,0-0.126,0s-0.063,0-0.084,0c-0.063,0-0.126,0-0.294,0c-0.273,0-0.399-0.063-0.399-0.231c0,0,0-0.021,0-0.042
		c0.126-1.68,0.147-2.478,0.147-4.305c0-1.722,0-1.911-0.063-2.625c0.714,0.315,0.924,0.441,1.617,0.84h9.114
		c0.294-0.378,0.399-0.504,0.777-0.819c0.63,0.399,0.819,0.525,1.386,1.008c0.084,0.063,0.126,0.126,0.126,0.168
		c0,0.147-0.126,0.252-0.777,0.567l0.021,5.04c0,0.021,0,0.042,0,0.042c0,0.126-0.21,0.189-0.693,0.21
		c-0.189,0-0.336,0.021-0.378,0.021c-0.021,0-0.042,0-0.063,0c-0.231,0-0.315-0.063-0.315-0.273v-0.546h-3.99V66.231z
		 M51.054,53.085c0.483-0.651,0.651-0.84,1.218-1.47c0.798,0.651,1.029,0.882,1.806,1.617c0.042,0.063,0.084,0.105,0.084,0.147
		c0,0.084-0.105,0.189-0.231,0.189h-5.187c0.546,0.231,0.735,0.315,0.966,0.441c0.273,0.147,0.462,0.231,0.483,0.252
		c0.189,0.084,0.252,0.147,0.252,0.231c0,0.189-0.126,0.252-0.84,0.315l-1.848,1.974h4.221l1.176-1.428
		c0.819,0.651,1.05,0.861,1.806,1.554c0.063,0.063,0.084,0.126,0.084,0.168c0,0.105-0.105,0.189-0.189,0.189H37.782
		c-0.294,0-0.336,0-0.756,0.063c-0.252,0.042-0.252,0.042-0.525,0.063l-0.168-0.777c0.357,0.084,1.155,0.168,1.449,0.168h4.662
		c-0.189-0.168-0.21-0.21-0.609-1.386c-0.147-0.441-0.378-0.924-0.819-1.659l0.189-0.168h-2.562c-0.336,0-0.651,0.021-1.302,0.126
		l-0.189-0.756c0.357,0.063,1.176,0.147,1.491,0.147h6.048v-1.071c0-0.147-0.063-0.714-0.105-1.008
		c1.533,0.084,2.457,0.273,2.457,0.525c0,0.147-0.21,0.273-0.882,0.483v1.071H51.054z M50.172,59.322h-9.324v1.89h9.324V59.322z
		 M40.848,61.695v2.079h9.324v-2.079H40.848z M41.373,53.568c0.357,0.252,1.26,1.008,1.491,1.218
		c0.231,0.231,0.462,0.63,0.462,0.819s-0.105,0.483-0.252,0.777c-0.105,0.189-0.189,0.273-0.42,0.399h4.494
		c0.483-0.735,1.134-2.373,1.302-3.213H41.373z"/>
</g>
<rect x="8.125" y="10.75" fill="none" stroke="#008CD6" stroke-width="0.5" width="21" height="21"/>
<rect x="35.031" y="10.75" fill="none" stroke="#008CD6" stroke-width="0.5" width="21" height="21"/>
<rect x="5.797" y="0.25" fill="none" stroke="#008CD6" stroke-width="0.5" width="52.5" height="10.5"/>
<line fill="none" stroke="#008CD6" stroke-width="0.5" x1="16.297" y1="10.75" x2="16.297" y2="0.25"/>
<line fill="none" stroke="#008CD6" stroke-width="0.5" x1="26.797" y1="10.75" x2="26.797" y2="0.25"/>
<line fill="none" stroke="#008CD6" stroke-width="0.5" x1="37.297" y1="10.75" x2="37.297" y2="0.25"/>
<line fill="none" stroke="#008CD6" stroke-width="0.5" x1="47.797" y1="10.75" x2="47.797" y2="0.25"/>
<g>
	<path d="M1.688,89.947c0.473,0.473,0.725,0.578,1.407,0.578c0.252,0,0.472-0.021,0.745-0.063c0.032-0.158,0.032-0.158,0.158-0.756
		c0.063-0.304,0.136-0.745,0.136-0.871c0-0.336-0.241-0.504-0.787-0.546c0.189-0.157,0.304-0.199,0.525-0.199
		c0.315,0,0.714,0.094,0.987,0.231c0.2,0.094,0.315,0.231,0.315,0.368c0,0.094-0.021,0.136-0.157,0.315
		c-0.168,0.21-0.368,0.651-0.641,1.396c0.819-0.137,1.533-0.41,1.858-0.693c0.084-0.084,0.116-0.094,0.2-0.094
		c0.136,0,0.336,0.042,0.493,0.094c0.158,0.063,0.231,0.137,0.231,0.242c0,0.168-0.168,0.305-0.588,0.462
		c-0.672,0.263-1.428,0.431-2.352,0.536c-0.273,1.061-0.43,2.089-0.451,2.887c1.145-0.609,2.289-0.955,3.16-0.955
		c1.187,0,1.974,0.609,1.974,1.522c0,0.84-0.599,1.543-1.68,1.984c-0.84,0.336-1.817,0.504-3.066,0.494l-0.01-0.147
		c1.103-0.189,1.239-0.21,1.638-0.336c1.491-0.451,2.299-1.218,2.299-2.184c0-0.641-0.42-1.008-1.155-1.008
		c-0.724,0-1.543,0.315-2.331,0.903c-0.315,0.241-0.462,0.399-0.609,0.64c-0.052,0.084-0.136,0.137-0.231,0.137
		c-0.273,0-0.619-0.462-0.619-0.819c0-0.179,0.346-2.027,0.588-3.108c-0.2,0.021-0.305,0.032-0.441,0.032
		c-0.851,0-1.313-0.252-1.743-0.956L1.688,89.947z"/>
	<path d="M14.823,97.066c0.819-0.651,1.134-1.029,1.544-1.869c-0.483-0.147-0.861-0.399-1.218-0.809
		c-0.462-0.557-0.714-1.386-0.714-2.373c0-0.073,0-0.199,0.01-0.388c-0.84,0.934-1.375,2.079-1.375,2.919c0,0.073,0,0.136,0,0.189
		c0.011,0.073,0.011,0.136,0.011,0.168c0,0.168-0.116,0.294-0.263,0.294c-0.357,0-0.619-0.882-0.619-2.121
		c0-0.535,0.031-1.008,0.126-1.764c0.052-0.483,0.063-0.63,0.063-0.83c0-0.347-0.147-0.693-0.399-0.956
		c0.221,0,0.347,0.063,0.609,0.273c0.336,0.294,0.567,0.641,0.567,0.872c0,0.105-0.011,0.147-0.126,0.388
		c-0.231,0.504-0.399,1.354-0.399,2.048c0,0.189,0.01,0.304,0.052,0.556c0.62-1.229,0.977-1.743,1.774-2.509
		c0.137-1.071,0.347-1.669,0.746-2.163c0.231-0.294,0.546-0.452,0.882-0.452c0.294,0,0.63,0.147,0.84,0.368
		c0.241,0.252,0.357,0.462,0.525,0.945c0.063,0,0.126,0,0.147,0c0.588,0,1.145,0.179,1.638,0.525c0.672,0.462,1.04,1.208,1.04,2.058
		c0,1.628-1.313,2.888-3.014,2.888c-0.074,0-0.168,0-0.326-0.01c-0.64,0.976-1.166,1.47-2.026,1.879L14.823,97.066z M14.76,91.271
		c-0.01,0.252-0.021,0.399-0.021,0.514c0,0.977,0.305,1.848,0.819,2.321c0.315,0.294,0.588,0.451,1.019,0.577
		c0.283-0.914,0.42-1.932,0.42-3.15c0-0.599-0.021-0.935-0.105-1.365C16,90.357,15.412,90.661,14.76,91.271z M16.85,89.916
		c-0.189-0.798-0.441-1.134-0.851-1.134c-0.588,0-1.019,0.735-1.208,2.089C15.464,90.357,16.063,90.073,16.85,89.916z
		 M17.722,91.869c0,1.134-0.168,2.037-0.525,2.898c1.386,0,2.373-1.04,2.373-2.488c0-0.83-0.315-1.501-0.882-1.869
		c-0.347-0.22-0.651-0.315-1.166-0.325C17.669,90.819,17.722,91.271,17.722,91.869z"/>
	<path d="M25.796,97.245c0.62-0.504,1.029-0.935,1.386-1.512c0.546-0.893,0.893-2.111,0.893-3.192c0-1.04-0.378-1.68-0.998-1.68
		c-0.557,0-1.292,0.452-2.016,1.239c-0.2,0.2-0.263,0.242-0.431,0.242c-0.22,0-0.472-0.168-0.693-0.473
		c-0.179-0.241-0.284-0.514-0.284-0.704c0-0.136,0.042-0.231,0.168-0.388c0.095,0.462,0.305,0.725,0.578,0.725
		c0.147,0,0.42-0.116,0.966-0.41c0.892-0.483,1.239-0.599,1.774-0.599c0.483,0,0.998,0.273,1.302,0.704
		c0.252,0.368,0.399,0.914,0.399,1.543c0,1.239-0.472,2.468-1.302,3.392c-0.515,0.567-1.05,0.966-1.648,1.229L25.796,97.245z
		 M25.218,87.7c0.515,0.431,1.229,0.672,1.964,0.672h0.241c0.21,0,0.357,0.074,0.567,0.252c0.147,0.126,0.221,0.252,0.221,0.357
		c0,0.147-0.147,0.231-0.431,0.231c-0.441,0.01-0.441,0.01-2.614,0.64l-0.053-0.147c0.788-0.357,1.512-0.682,1.775-0.777
		c-0.861-0.178-1.375-0.504-1.775-1.145L25.218,87.7z"/>
	<path fill="#ED6E46" d="M40.559,94.641c-1.008,1.365-2.384,2.174-3.686,2.174c-0.798,0-1.417-0.326-1.743-0.893
		c-0.21-0.368-0.294-0.882-0.294-1.774c0-0.578,0.032-1.575,0.084-2.531c0.063-1.134,0.074-1.428,0.074-1.806
		c0-0.903-0.105-1.081-0.851-1.396c0.115-0.084,0.178-0.105,0.294-0.105c0.242,0,0.62,0.095,0.945,0.242
		c0.399,0.189,0.609,0.399,0.609,0.62c0,0.073-0.011,0.136-0.095,0.378c-0.2,0.63-0.546,3.812-0.546,5.04
		c0,0.64,0.126,1.019,0.42,1.26c0.231,0.179,0.567,0.284,0.935,0.284c0.714,0,1.596-0.252,2.394-0.672
		c0.483-0.252,0.787-0.473,1.333-0.935L40.559,94.641z"/>
	<path fill="#ED6E46" d="M47.521,88.068c1.092,0.525,1.522,0.956,1.522,1.522c0,0.252-0.116,0.399-0.315,0.399
		c-0.063,0-0.084-0.01-0.326-0.105c-0.283-0.105-0.682-0.189-1.145-0.242c-0.714-0.084-1.386-0.136-1.627-0.136
		c-0.241,0-0.399,0.115-0.399,0.294c0,0.147,0.221,0.672,0.693,1.638c0.578-0.315,1.239-0.62,1.838-0.851
		c0.766-0.294,1.375-0.42,2.016-0.42c1.271,0,2.174,0.682,2.174,1.659c0,0.41-0.21,0.882-0.536,1.197
		c-0.378,0.367-0.956,0.567-1.669,0.567c-0.851,0-1.732-0.294-2.384-0.788l0.074-0.157c0.546,0.273,1.229,0.441,1.837,0.441
		c0.704,0,1.26-0.2,1.575-0.567c0.22-0.252,0.336-0.567,0.336-0.903c0-0.725-0.546-1.134-1.512-1.134
		c-0.567,0-1.082,0.147-1.984,0.577c-0.494,0.242-0.977,0.504-1.554,0.851c0.504,1.019,0.819,1.722,1.176,2.615
		c0.41,1.04,0.515,1.375,0.515,1.722c0,0.452-0.2,0.788-0.483,0.788c-0.052,0-0.115-0.042-0.168-0.105
		c-0.063-0.073-0.094-0.178-0.136-0.462c-0.2-1.313-0.63-2.741-1.302-4.326c-0.598,0.399-0.956,0.651-1.082,0.735
		c-0.157,0.115-0.199,0.147-0.283,0.21c-0.137,0.115-0.231,0.157-0.368,0.157c-0.462,0-1.113-0.672-1.113-1.145
		c0-0.042,0.01-0.094,0.042-0.178c0.241,0.357,0.493,0.546,0.735,0.546c0.294,0,0.924-0.284,1.837-0.809
		c-0.262-0.588-0.514-1.029-0.725-1.292c-0.189-0.252-0.22-0.315-0.22-0.451c0-0.347,0.409-0.714,0.788-0.714
		c0.126,0,0.136,0,0.325,0.053c0.063,0.021,0.126,0.021,0.273,0.031c0.042,0,0.368,0,0.84,0.011c0.262,0.01,0.472,0.01,0.787,0.01
		c0.609,0,0.693-0.021,0.693-0.136c0-0.21-0.368-0.62-0.851-0.966L47.521,88.068z"/>
	<path fill="#ED6E46" d="M57.937,88.026c0.294,0,0.872,0.273,1.166,0.557c0.168,0.168,0.231,0.273,0.231,0.42
		c0,0.136-0.053,0.199-0.609,0.651c-0.567,0.473-1.596,1.438-1.932,1.816c-0.368,0.41-0.504,0.651-0.504,0.851
		c0,0.147,0.105,0.336,0.315,0.546c0.147,0.158,0.147,0.158,0.735,0.693c1.145,1.061,1.68,1.649,1.932,2.142
		c0.115,0.221,0.157,0.41,0.157,0.693c0,0.399-0.136,0.63-0.357,0.63c-0.136,0-0.178-0.053-0.357-0.431
		c-0.189-0.41-0.514-0.966-0.882-1.48c-0.389-0.557-0.441-0.62-1.533-1.9c-0.283-0.347-0.399-0.599-0.399-0.882
		c0-0.336,0.168-0.619,0.809-1.407c1.271-1.543,1.585-1.984,1.585-2.236c0-0.179-0.136-0.336-0.578-0.62
		C57.79,88.036,57.842,88.026,57.937,88.026z"/>
	<path d="M5.651,103.797c2.583,0.861,3.465,1.449,3.465,2.268c0,0.651-0.273,1.26-0.588,1.26c-0.168,0-0.252-0.084-0.588-0.651
		c-0.147-0.252-0.609-0.84-1.008-1.323c-0.483-0.567-0.777-0.819-1.428-1.302L5.651,103.797z M5.819,111.252
		c0.651,0.168,1.26,0.294,1.407,0.294c0.315,0,0.441-0.168,0.924-1.218c1.008-2.205,2.331-5.355,3.339-8.022l0.357,0.147
		l-3.129,9.324c-0.147,0.42-0.273,0.924-0.273,1.071c0,0.21,0,0.21,0.189,1.05c0.189,0.777,0.273,1.323,0.273,1.743
		c0,0.546-0.147,0.966-0.441,1.302c-0.294,0.336-0.693,0.546-1.029,0.546c-0.273,0-0.462-0.252-0.462-0.63
		c0-0.231,0-0.294,0.273-2.184c0.063-0.399,0.084-0.798,0.105-1.197c0-0.147,0-0.147,0-0.315c0-0.021,0-0.042,0-0.063
		c0-0.651-0.357-0.987-1.638-1.533L5.819,111.252z M6.87,99.114c2.835,0.987,3.465,1.407,3.465,2.373
		c0,0.651-0.273,1.239-0.588,1.239c-0.189,0-0.315-0.126-0.504-0.504c-0.483-0.966-1.113-1.68-2.541-2.877L6.87,99.114z
		 M16.424,103.965h-2.877c-0.63,0-1.05,0.042-1.554,0.147l-0.147-0.819c0.672,0.147,1.05,0.189,1.701,0.189h7.56
		c0.525-0.63,0.693-0.84,1.218-1.449c0.84,0.651,1.092,0.861,1.869,1.554c0.105,0.105,0.147,0.189,0.147,0.252
		c0,0.084-0.105,0.126-0.294,0.126h-6.174v5.208h2.709c0.525-0.651,0.693-0.861,1.26-1.47c0.882,0.672,1.134,0.903,1.911,1.638
		c0.084,0.084,0.126,0.147,0.126,0.21c0,0.063-0.084,0.105-0.252,0.105h-5.754v6.51h3.57c0.588-0.672,0.756-0.882,1.344-1.575
		c0.861,0.735,1.134,0.966,1.974,1.722c0.063,0.084,0.105,0.147,0.105,0.21c0,0.084-0.084,0.126-0.252,0.126H12.057
		c-0.693,0-1.113,0.042-1.743,0.147l-0.168-0.819c0.609,0.126,1.176,0.189,1.911,0.189h4.368v-6.51h-3.045
		c-0.588,0-0.924,0.042-1.512,0.147l-0.147-0.84c0.672,0.168,1.029,0.21,1.659,0.21h3.045V103.965z M14.619,98.82
		c1.281,0.462,2.226,0.903,3.045,1.365c0.819,0.483,1.092,0.84,1.092,1.449c0,0.63-0.357,1.302-0.672,1.302
		c-0.189,0-0.294-0.105-0.567-0.546c-0.168-0.273-0.84-1.197-1.176-1.575c-0.378-0.42-0.756-0.777-1.869-1.764L14.619,98.82z"/>
	<path fill="#ED6E46" d="M43.998,106.485c0.399-0.525,0.546-0.693,0.966-1.176c0.672,0.567,0.882,0.756,1.533,1.407
		c0.063,0.084,0.105,0.126,0.105,0.147c0,0.063-0.063,0.105-0.126,0.105h-4.074v1.344c0.798,0.357,1.449,0.693,2.037,1.029
		c0.735,0.441,0.966,0.735,0.966,1.26c0,0.567-0.315,1.239-0.567,1.239c-0.168,0-0.273-0.126-0.567-0.672
		c-0.525-1.008-1.029-1.638-1.869-2.394c0,2.436,0.021,3.885,0.105,8.736c-0.042,0.21-0.168,0.273-0.693,0.294
		c-0.126,0-0.273,0-0.441,0.021c-0.021,0-0.042,0-0.063,0c-0.126,0-0.168-0.042-0.168-0.168c0.042-1.911,0.042-1.911,0.063-6.195
		l0.021-2.499c-0.756,1.617-1.134,2.268-1.932,3.402c-0.84,1.134-1.344,1.701-2.457,2.709l-0.189-0.147
		c2.037-2.793,3.087-4.788,4.179-7.958h-2.394c-0.462,0-0.714,0.021-1.071,0.126l-0.126-0.735c0.441,0.105,0.651,0.126,1.197,0.126
		h2.772v-5.166c-1.323,0.294-2.1,0.399-3.801,0.525l-0.063-0.294c2.079-0.483,3.045-0.777,4.515-1.386
		c1.302-0.546,1.806-0.798,2.541-1.302c0.357,0.21,0.609,0.378,0.798,0.483c0.756,0.441,0.945,0.588,0.945,0.756
		c0,0.105-0.126,0.168-0.273,0.168c-0.273,0-0.567-0.042-0.903-0.105c-1.197,0.462-1.638,0.609-2.583,0.882v5.439H43.998z
		 M38.139,102.264c1.281,1.071,2.058,2.016,2.058,2.541c0,0.441-0.483,1.155-0.777,1.155c-0.126,0-0.21-0.105-0.252-0.315
		c-0.378-1.512-0.567-2.016-1.218-3.255L38.139,102.264z M43.011,105.96c0.756-2.058,1.302-3.78,1.449-4.641
		c1.827,0.609,1.911,0.63,1.911,0.819c0,0.168-0.189,0.231-0.777,0.315c-0.315,0.483-0.315,0.483-1.197,1.911
		c-0.315,0.504-0.609,0.924-1.176,1.659L43.011,105.96z M48.303,106.968c-0.126,2.835-0.483,4.494-1.344,6.468
		c-0.882,2.016-1.743,3.129-3.465,4.41l-0.21-0.189c1.365-1.512,1.932-2.373,2.499-3.864c0.903-2.352,1.218-4.473,1.218-8.295
		c0-2.877-0.042-4.641-0.126-6.09c0.735,0.378,0.945,0.504,1.701,0.945h4.956c0.294-0.42,0.399-0.546,0.735-0.945
		c0.588,0.399,0.756,0.525,1.302,0.945c0.126,0.105,0.189,0.168,0.189,0.231c0,0.126-0.126,0.21-0.735,0.525
		c0.042,4.977,0.042,4.977,0.105,6.636c-0.021,0.126-0.042,0.168-0.105,0.21s-0.693,0.084-1.197,0.084
		c-0.126,0-0.189-0.063-0.189-0.189v-0.882H50.57c0.315,1.722,0.588,2.541,1.302,3.864c0.735,1.428,1.638,2.583,2.688,3.486
		c0.609,0.525,1.113,0.84,2.226,1.428l-0.021,0.21c-0.882,0.084-1.386,0.399-1.89,1.155c-2.079-2.016-2.982-3.465-3.864-6.09
		c-0.399-1.218-0.651-2.247-0.987-4.053H48.303z M53.637,106.485v-5.649h-5.271c-0.042,4.662-0.042,5.061-0.042,5.649H53.637z"/>
</g>
<g>
	<path d="M1.688,129.322c0.473,0.473,0.725,0.578,1.407,0.578c0.252,0,0.472-0.021,0.745-0.063c0.032-0.158,0.032-0.158,0.158-0.756
		c0.063-0.304,0.136-0.745,0.136-0.871c0-0.336-0.241-0.504-0.787-0.546c0.189-0.157,0.304-0.199,0.525-0.199
		c0.315,0,0.714,0.094,0.987,0.231c0.2,0.094,0.315,0.231,0.315,0.368c0,0.094-0.021,0.136-0.157,0.315
		c-0.168,0.21-0.368,0.651-0.641,1.396c0.819-0.137,1.533-0.41,1.858-0.693c0.084-0.084,0.116-0.094,0.2-0.094
		c0.136,0,0.336,0.042,0.493,0.094c0.158,0.063,0.231,0.137,0.231,0.242c0,0.168-0.168,0.305-0.588,0.462
		c-0.672,0.263-1.428,0.431-2.352,0.536c-0.273,1.061-0.43,2.089-0.451,2.887c1.145-0.609,2.289-0.955,3.16-0.955
		c1.187,0,1.974,0.609,1.974,1.522c0,0.84-0.599,1.543-1.68,1.984c-0.84,0.336-1.817,0.504-3.066,0.494l-0.01-0.147
		c1.103-0.189,1.239-0.21,1.638-0.336c1.491-0.451,2.299-1.218,2.299-2.184c0-0.641-0.42-1.008-1.155-1.008
		c-0.724,0-1.543,0.315-2.331,0.903c-0.315,0.241-0.462,0.399-0.609,0.64c-0.052,0.084-0.136,0.137-0.231,0.137
		c-0.273,0-0.619-0.462-0.619-0.819c0-0.179,0.346-2.027,0.588-3.108c-0.2,0.021-0.305,0.032-0.441,0.032
		c-0.851,0-1.313-0.252-1.743-0.956L1.688,129.322z"/>
	<path d="M14.823,136.441c0.819-0.651,1.134-1.029,1.544-1.869c-0.483-0.147-0.861-0.399-1.218-0.809
		c-0.462-0.557-0.714-1.386-0.714-2.373c0-0.073,0-0.199,0.01-0.388c-0.84,0.934-1.375,2.079-1.375,2.919c0,0.073,0,0.136,0,0.189
		c0.011,0.073,0.011,0.136,0.011,0.168c0,0.168-0.116,0.294-0.263,0.294c-0.357,0-0.619-0.882-0.619-2.121
		c0-0.535,0.031-1.008,0.126-1.764c0.052-0.483,0.063-0.63,0.063-0.83c0-0.347-0.147-0.693-0.399-0.956
		c0.221,0,0.347,0.063,0.609,0.273c0.336,0.294,0.567,0.641,0.567,0.872c0,0.105-0.011,0.147-0.126,0.388
		c-0.231,0.504-0.399,1.354-0.399,2.048c0,0.189,0.01,0.304,0.052,0.556c0.62-1.229,0.977-1.743,1.774-2.509
		c0.137-1.071,0.347-1.669,0.746-2.163c0.231-0.294,0.546-0.452,0.882-0.452c0.294,0,0.63,0.147,0.84,0.368
		c0.241,0.252,0.357,0.462,0.525,0.945c0.063,0,0.126,0,0.147,0c0.588,0,1.145,0.179,1.638,0.525c0.672,0.462,1.04,1.208,1.04,2.058
		c0,1.628-1.313,2.888-3.014,2.888c-0.074,0-0.168,0-0.326-0.01c-0.64,0.976-1.166,1.47-2.026,1.879L14.823,136.441z M14.76,130.646
		c-0.01,0.252-0.021,0.399-0.021,0.514c0,0.977,0.305,1.848,0.819,2.321c0.315,0.294,0.588,0.451,1.019,0.577
		c0.283-0.914,0.42-1.932,0.42-3.15c0-0.599-0.021-0.935-0.105-1.365C16,129.732,15.412,130.036,14.76,130.646z M16.85,129.291
		c-0.189-0.798-0.441-1.134-0.851-1.134c-0.588,0-1.019,0.735-1.208,2.089C15.464,129.732,16.063,129.448,16.85,129.291z
		 M17.722,131.244c0,1.134-0.168,2.037-0.525,2.898c1.386,0,2.373-1.04,2.373-2.488c0-0.83-0.315-1.501-0.882-1.869
		c-0.347-0.22-0.651-0.315-1.166-0.325C17.669,130.194,17.722,130.646,17.722,131.244z"/>
	<path d="M25.796,136.62c0.62-0.504,1.029-0.935,1.386-1.512c0.546-0.893,0.893-2.111,0.893-3.192c0-1.04-0.378-1.68-0.998-1.68
		c-0.557,0-1.292,0.452-2.016,1.239c-0.2,0.2-0.263,0.242-0.431,0.242c-0.22,0-0.472-0.168-0.693-0.473
		c-0.179-0.241-0.284-0.514-0.284-0.704c0-0.136,0.042-0.231,0.168-0.388c0.095,0.462,0.305,0.725,0.578,0.725
		c0.147,0,0.42-0.116,0.966-0.41c0.892-0.483,1.239-0.599,1.774-0.599c0.483,0,0.998,0.273,1.302,0.704
		c0.252,0.368,0.399,0.914,0.399,1.543c0,1.239-0.472,2.468-1.302,3.392c-0.515,0.567-1.05,0.966-1.648,1.229L25.796,136.62z
		 M25.218,127.075c0.515,0.431,1.229,0.672,1.964,0.672h0.241c0.21,0,0.357,0.074,0.567,0.252c0.147,0.126,0.221,0.252,0.221,0.357
		c0,0.147-0.147,0.231-0.431,0.231c-0.441,0.01-0.441,0.01-2.614,0.64l-0.053-0.147c0.788-0.357,1.512-0.682,1.775-0.777
		c-0.861-0.178-1.375-0.504-1.775-1.145L25.218,127.075z"/>
	<path d="M40.559,134.016c-1.008,1.365-2.384,2.174-3.686,2.174c-0.798,0-1.417-0.326-1.743-0.893
		c-0.21-0.368-0.294-0.882-0.294-1.774c0-0.578,0.032-1.575,0.084-2.531c0.063-1.134,0.074-1.428,0.074-1.806
		c0-0.903-0.105-1.081-0.851-1.396c0.115-0.084,0.178-0.105,0.294-0.105c0.242,0,0.62,0.095,0.945,0.242
		c0.399,0.189,0.609,0.399,0.609,0.62c0,0.073-0.011,0.136-0.095,0.378c-0.2,0.63-0.546,3.812-0.546,5.04
		c0,0.64,0.126,1.019,0.42,1.26c0.231,0.179,0.567,0.284,0.935,0.284c0.714,0,1.596-0.252,2.394-0.672
		c0.483-0.252,0.787-0.473,1.333-0.935L40.559,134.016z"/>
	<path d="M47.521,127.443c1.092,0.525,1.522,0.956,1.522,1.522c0,0.252-0.116,0.399-0.315,0.399c-0.063,0-0.084-0.01-0.326-0.105
		c-0.283-0.105-0.682-0.189-1.145-0.242c-0.714-0.084-1.386-0.136-1.627-0.136c-0.241,0-0.399,0.115-0.399,0.294
		c0,0.147,0.221,0.672,0.693,1.638c0.578-0.315,1.239-0.62,1.838-0.851c0.766-0.294,1.375-0.42,2.016-0.42
		c1.271,0,2.174,0.682,2.174,1.659c0,0.41-0.21,0.882-0.536,1.197c-0.378,0.367-0.956,0.567-1.669,0.567
		c-0.851,0-1.732-0.294-2.384-0.788l0.074-0.157c0.546,0.273,1.229,0.441,1.837,0.441c0.704,0,1.26-0.2,1.575-0.567
		c0.22-0.252,0.336-0.567,0.336-0.903c0-0.725-0.546-1.134-1.512-1.134c-0.567,0-1.082,0.147-1.984,0.577
		c-0.494,0.242-0.977,0.504-1.554,0.851c0.504,1.019,0.819,1.722,1.176,2.615c0.41,1.04,0.515,1.375,0.515,1.722
		c0,0.452-0.2,0.788-0.483,0.788c-0.052,0-0.115-0.042-0.168-0.105c-0.063-0.073-0.094-0.178-0.136-0.462
		c-0.2-1.313-0.63-2.741-1.302-4.326c-0.598,0.399-0.956,0.651-1.082,0.735c-0.157,0.115-0.199,0.147-0.283,0.21
		c-0.137,0.115-0.231,0.157-0.368,0.157c-0.462,0-1.113-0.672-1.113-1.145c0-0.042,0.01-0.094,0.042-0.178
		c0.241,0.357,0.493,0.546,0.735,0.546c0.294,0,0.924-0.284,1.837-0.809c-0.262-0.588-0.514-1.029-0.725-1.292
		c-0.189-0.252-0.22-0.315-0.22-0.451c0-0.347,0.409-0.714,0.788-0.714c0.126,0,0.136,0,0.325,0.053
		c0.063,0.021,0.126,0.021,0.273,0.031c0.042,0,0.368,0,0.84,0.011c0.262,0.01,0.472,0.01,0.787,0.01
		c0.609,0,0.693-0.021,0.693-0.136c0-0.21-0.368-0.62-0.851-0.966L47.521,127.443z"/>
	<path d="M57.937,127.401c0.294,0,0.872,0.273,1.166,0.557c0.168,0.168,0.231,0.273,0.231,0.42c0,0.136-0.053,0.199-0.609,0.651
		c-0.567,0.473-1.596,1.438-1.932,1.816c-0.368,0.41-0.504,0.651-0.504,0.851c0,0.147,0.105,0.336,0.315,0.546
		c0.147,0.158,0.147,0.158,0.735,0.693c1.145,1.061,1.68,1.649,1.932,2.142c0.115,0.221,0.157,0.41,0.157,0.693
		c0,0.399-0.136,0.63-0.357,0.63c-0.136,0-0.178-0.053-0.357-0.431c-0.189-0.41-0.514-0.966-0.882-1.48
		c-0.389-0.557-0.441-0.62-1.533-1.9c-0.283-0.347-0.399-0.599-0.399-0.882c0-0.336,0.168-0.619,0.809-1.407
		c1.271-1.543,1.585-1.984,1.585-2.236c0-0.179-0.136-0.336-0.578-0.62C57.79,127.411,57.842,127.401,57.937,127.401z"/>
	<path d="M6.528,143.172c2.583,0.861,3.465,1.449,3.465,2.268c0,0.651-0.273,1.26-0.588,1.26c-0.168,0-0.252-0.084-0.588-0.651
		c-0.147-0.252-0.609-0.84-1.008-1.323c-0.483-0.567-0.777-0.819-1.428-1.302L6.528,143.172z M6.696,150.627
		c0.651,0.168,1.26,0.294,1.407,0.294c0.315,0,0.441-0.168,0.924-1.218c1.008-2.205,2.331-5.355,3.339-8.022l0.357,0.147
		l-3.129,9.324c-0.147,0.42-0.273,0.924-0.273,1.071c0,0.21,0,0.21,0.189,1.05c0.189,0.777,0.273,1.323,0.273,1.743
		c0,0.546-0.147,0.966-0.441,1.302c-0.294,0.336-0.693,0.546-1.029,0.546c-0.273,0-0.462-0.252-0.462-0.63
		c0-0.231,0-0.294,0.273-2.184c0.063-0.399,0.084-0.798,0.105-1.197c0-0.147,0-0.147,0-0.315c0-0.021,0-0.042,0-0.063
		c0-0.651-0.357-0.987-1.638-1.533L6.696,150.627z M7.747,138.489c2.835,0.987,3.465,1.407,3.465,2.373
		c0,0.651-0.273,1.239-0.588,1.239c-0.189,0-0.315-0.126-0.504-0.504c-0.483-0.966-1.113-1.68-2.541-2.877L7.747,138.489z
		 M17.301,143.34h-2.877c-0.63,0-1.05,0.042-1.554,0.147l-0.147-0.819c0.672,0.147,1.05,0.189,1.701,0.189h7.56
		c0.525-0.63,0.693-0.84,1.218-1.449c0.84,0.651,1.092,0.861,1.869,1.554c0.105,0.105,0.147,0.189,0.147,0.252
		c0,0.084-0.105,0.126-0.294,0.126H18.75v5.208h2.709c0.525-0.651,0.693-0.861,1.26-1.47c0.882,0.672,1.134,0.903,1.911,1.638
		c0.084,0.084,0.126,0.147,0.126,0.21c0,0.063-0.084,0.105-0.252,0.105H18.75v6.51h3.57c0.588-0.672,0.756-0.882,1.344-1.575
		c0.861,0.735,1.134,0.966,1.974,1.722c0.063,0.084,0.105,0.147,0.105,0.21c0,0.084-0.084,0.126-0.252,0.126H12.934
		c-0.693,0-1.113,0.042-1.743,0.147l-0.168-0.819c0.609,0.126,1.176,0.189,1.911,0.189h4.368v-6.51h-3.045
		c-0.588,0-0.924,0.042-1.512,0.147l-0.147-0.84c0.672,0.168,1.029,0.21,1.659,0.21h3.045V143.34z M15.496,138.195
		c1.281,0.462,2.226,0.903,3.045,1.365c0.819,0.483,1.092,0.84,1.092,1.449c0,0.63-0.357,1.302-0.672,1.302
		c-0.189,0-0.294-0.105-0.567-0.546c-0.168-0.273-0.84-1.197-1.176-1.575c-0.378-0.42-0.756-0.777-1.869-1.764L15.496,138.195z"/>
	<path d="M44.875,145.86c0.399-0.525,0.546-0.693,0.966-1.176c0.672,0.567,0.882,0.756,1.533,1.407
		c0.063,0.084,0.105,0.126,0.105,0.147c0,0.063-0.063,0.105-0.126,0.105h-4.074v1.344c0.798,0.357,1.449,0.693,2.037,1.029
		c0.735,0.441,0.966,0.735,0.966,1.26c0,0.567-0.315,1.239-0.567,1.239c-0.168,0-0.273-0.126-0.567-0.672
		c-0.525-1.008-1.029-1.638-1.869-2.394c0,2.436,0.021,3.885,0.105,8.736c-0.042,0.21-0.168,0.273-0.693,0.294
		c-0.126,0-0.273,0-0.441,0.021c-0.021,0-0.042,0-0.063,0c-0.126,0-0.168-0.042-0.168-0.168c0.042-1.911,0.042-1.911,0.063-6.195
		l0.021-2.499c-0.756,1.617-1.134,2.268-1.932,3.402c-0.84,1.134-1.344,1.701-2.457,2.709l-0.189-0.147
		c2.037-2.793,3.087-4.788,4.179-7.958H39.31c-0.462,0-0.714,0.021-1.071,0.126l-0.126-0.735c0.441,0.105,0.651,0.126,1.197,0.126
		h2.772v-5.166c-1.323,0.294-2.1,0.399-3.801,0.525l-0.063-0.294c2.079-0.483,3.045-0.777,4.515-1.386
		c1.302-0.546,1.806-0.798,2.541-1.302c0.357,0.21,0.609,0.378,0.798,0.483c0.756,0.441,0.945,0.588,0.945,0.756
		c0,0.105-0.126,0.168-0.273,0.168c-0.273,0-0.567-0.042-0.903-0.105c-1.197,0.462-1.638,0.609-2.583,0.882v5.439H44.875z
		 M39.016,141.639c1.281,1.071,2.058,2.016,2.058,2.541c0,0.441-0.483,1.155-0.777,1.155c-0.126,0-0.21-0.105-0.252-0.315
		c-0.378-1.512-0.567-2.016-1.218-3.255L39.016,141.639z M43.888,145.335c0.756-2.058,1.302-3.78,1.449-4.641
		c1.827,0.609,1.911,0.63,1.911,0.819c0,0.168-0.189,0.231-0.777,0.315c-0.315,0.483-0.315,0.483-1.197,1.911
		c-0.315,0.504-0.609,0.924-1.176,1.659L43.888,145.335z M49.18,146.343c-0.126,2.835-0.483,4.494-1.344,6.468
		c-0.882,2.016-1.743,3.129-3.465,4.41l-0.21-0.189c1.365-1.512,1.932-2.373,2.499-3.864c0.903-2.352,1.218-4.473,1.218-8.295
		c0-2.877-0.042-4.641-0.126-6.09c0.735,0.378,0.945,0.504,1.701,0.945h4.956c0.294-0.42,0.399-0.546,0.735-0.945
		c0.588,0.399,0.756,0.525,1.302,0.945c0.126,0.105,0.189,0.168,0.189,0.231c0,0.126-0.126,0.21-0.735,0.525
		c0.042,4.977,0.042,4.977,0.105,6.636c-0.021,0.126-0.042,0.168-0.105,0.21s-0.693,0.084-1.197,0.084
		c-0.126,0-0.189-0.063-0.189-0.189v-0.882h-3.066c0.315,1.722,0.588,2.541,1.302,3.864c0.735,1.428,1.638,2.583,2.688,3.486
		c0.609,0.525,1.113,0.84,2.226,1.428l-0.021,0.21c-0.882,0.084-1.386,0.399-1.89,1.155c-2.079-2.016-2.982-3.465-3.864-6.09
		c-0.399-1.218-0.651-2.247-0.987-4.053H49.18z M54.514,145.86v-5.649h-5.271c-0.042,4.662-0.042,5.061-0.042,5.649H54.514z"/>
</g>
<rect x="37" y="97.75" fill="none" stroke="#008CD6" stroke-width="0.5" width="21" height="21"/>
<rect x="5.5" y="97.75" fill="none" stroke="#008CD6" stroke-width="0.5" width="21" height="21"/>
<rect x="0.25" y="87.25" fill="none" stroke="#008CD6" stroke-width="0.5" width="63" height="10.5"/>
<line fill="none" stroke="#008CD6" stroke-width="0.5" x1="10.75" y1="97.75" x2="10.75" y2="87.25"/>
<line fill="none" stroke="#008CD6" stroke-width="0.5" x1="21.25" y1="97.75" x2="21.25" y2="87.25"/>
<line fill="none" stroke="#008CD6" stroke-width="0.5" x1="31.75" y1="97.75" x2="31.75" y2="87.25"/>
<line fill="none" stroke="#008CD6" stroke-width="0.5" x1="42.25" y1="97.75" x2="42.25" y2="87.25"/>
<line fill="none" stroke="#008CD6" stroke-width="0.5" x1="52.75" y1="97.75" x2="52.75" y2="87.25"/>
</svg>
