<?xml version="1.0" encoding="utf-8"?>
<!-- Generator: Adobe Illustrator 12.0.0, SVG Export Plug-In . SVG Version: 6.00 Build 51448)  -->
<!DOCTYPE svg PUBLIC "-//W3C//DTD SVG 1.1//EN" "http://www.w3.org/Graphics/SVG/1.1/DTD/svg11.dtd" [
	<!ENTITY ns_svg "http://www.w3.org/2000/svg">
	<!ENTITY ns_xlink "http://www.w3.org/1999/xlink">
]>
<svg  version="1.1" id="レイヤー_1" xmlns="&ns_svg;" xmlns:xlink="&ns_xlink;" width="126.503" height="93.66"
	 viewBox="0 0 126.503 93.66" overflow="visible" enable-background="new 0 0 126.503 93.66" xml:space="preserve">
<g>
	<path d="M21.919,8.084c1.04-0.819,1.942-1.848,2.583-2.919c0.325-0.556,0.43-0.809,0.43-1.04c0-0.168-0.136-0.325-0.525-0.598
		c0.116-0.032,0.168-0.042,0.231-0.042c0.189,0,0.557,0.147,0.861,0.357c0.367,0.241,0.514,0.399,0.514,0.567
		c0,0.084-0.031,0.147-0.126,0.231c-0.199,0.168-0.21,0.168-0.441,0.483c-0.882,1.155-1.323,1.627-2.215,2.3
		C22.77,7.78,22.476,7.969,22.003,8.2L21.919,8.084z M27.547,3.464c1.103,0.661,2.1,1.543,2.761,2.446
		c0.326,0.452,0.441,0.746,0.441,1.124c0,0.431-0.168,0.767-0.399,0.767c-0.147,0-0.189-0.063-0.346-0.483
		c-0.515-1.407-1.354-2.615-2.573-3.717L27.547,3.464z"/>
	<path d="M32.965,7.213c1.313-0.704,2.719-1.764,3.948-2.982c1.04-1.018,1.711-1.869,1.711-2.173c0-0.199-0.168-0.368-0.588-0.599
		c0.116-0.042,0.137-0.042,0.21-0.042c0.305,0,0.567,0.095,0.903,0.315c0.357,0.241,0.546,0.483,0.546,0.682
		c0,0.095-0.011,0.116-0.42,0.462c-0.105,0.084-0.105,0.084-0.851,0.798c-0.735,0.704-0.798,0.756-1.25,1.134
		c0.41,0.305,0.588,0.462,0.641,0.588c0.042,0.105,0.063,0.599,0.073,1.543c0.011,0.735,0.032,1.407,0.053,2.006
		c0,0.231,0.01,0.535,0.01,0.598c0,0.368-0.073,0.525-0.241,0.525c-0.242,0-0.714-0.578-0.714-0.882c0-0.073,0-0.073,0.063-0.273
		c0.095-0.262,0.189-1.564,0.189-2.583c0-0.514-0.021-0.83-0.063-0.998c-0.031-0.105-0.073-0.157-0.231-0.325
		c-0.735,0.588-1.491,1.124-2.016,1.438c-0.588,0.346-1.344,0.714-1.89,0.914L32.965,7.213z"/>
	<path d="M47.056,7.297c0,0.598,0,1.827,0.011,2.1c0,0.095,0,0.158,0,0.189c0,0.315-0.074,0.452-0.231,0.452
		c-0.116,0-0.231-0.094-0.378-0.283c-0.157-0.242-0.273-0.515-0.273-0.683c0-0.095,0.011-0.158,0.084-0.389
		c0.116-0.389,0.179-1.701,0.179-3.612c0-2.163-0.032-2.73-0.168-2.993c-0.126-0.231-0.305-0.378-0.672-0.536
		c0.105-0.063,0.168-0.084,0.273-0.084c0.241,0,0.64,0.137,1.019,0.357c0.294,0.168,0.399,0.283,0.399,0.441
		c0,0.063-0.011,0.084-0.063,0.189c-0.137,0.283-0.179,0.714-0.179,2.289c1.145,0.136,2.163,0.409,2.678,0.714
		c0.315,0.178,0.43,0.368,0.43,0.693c0,0.263-0.094,0.462-0.231,0.462c-0.084,0-0.147-0.031-0.409-0.262
		c-0.777-0.651-1.522-1.061-2.468-1.344v0.242V7.297z M49.041,1.784c1.344,0.567,1.806,0.935,1.806,1.417
		c0,0.294-0.126,0.546-0.283,0.546c-0.116,0-0.126-0.01-0.389-0.451c-0.284-0.504-0.662-0.924-1.229-1.386L49.041,1.784z
		 M49.996,1.039c0.746,0.263,1.103,0.431,1.449,0.693c0.241,0.178,0.336,0.346,0.336,0.588c0,0.273-0.105,0.493-0.242,0.493
		c-0.126,0-0.147-0.031-0.388-0.388c-0.315-0.483-0.704-0.861-1.239-1.26L49.996,1.039z"/>
	<path d="M62.145,4.85c-0.577,0.809-0.913,1.197-1.564,1.785c-0.945,0.861-1.953,1.543-3.171,2.142
		c-0.588,0.304-0.599,0.304-0.788,0.504c-0.084,0.094-0.157,0.136-0.241,0.136c-0.21,0-0.693-0.619-0.693-0.903
		c0-0.052,0-0.052,0.052-0.189c0.074-0.231,0.084-0.473,0.084-1.606c0-2.32-0.052-3.339-0.189-3.728
		c-0.095-0.263-0.263-0.389-0.725-0.546c0.126-0.084,0.2-0.105,0.326-0.105c0.22,0,0.546,0.094,0.84,0.252
		c0.41,0.22,0.62,0.431,0.62,0.641c0,0.063,0,0.063-0.053,0.22c-0.052,0.168-0.105,0.557-0.136,1.04
		c-0.053,0.641-0.116,2.552-0.116,3.329c0,0.105,0,0.294,0,0.525c1.512-0.557,2.447-1.04,3.581-1.858
		c0.798-0.578,1.522-1.208,2.037-1.764L62.145,4.85z"/>
	<path d="M64.465,7.213c1.313-0.704,2.719-1.764,3.948-2.982c1.04-1.018,1.711-1.869,1.711-2.173c0-0.199-0.168-0.368-0.588-0.599
		c0.116-0.042,0.137-0.042,0.21-0.042c0.305,0,0.567,0.095,0.903,0.315c0.357,0.241,0.546,0.483,0.546,0.682
		c0,0.095-0.011,0.116-0.42,0.462c-0.105,0.084-0.105,0.084-0.851,0.798c-0.735,0.704-0.798,0.756-1.25,1.134
		c0.41,0.305,0.588,0.462,0.641,0.588c0.042,0.105,0.063,0.599,0.073,1.543c0.011,0.735,0.032,1.407,0.053,2.006
		c0,0.231,0.01,0.535,0.01,0.598c0,0.368-0.073,0.525-0.241,0.525c-0.242,0-0.714-0.578-0.714-0.882c0-0.073,0-0.073,0.063-0.273
		c0.095-0.262,0.189-1.564,0.189-2.583c0-0.514-0.021-0.83-0.063-0.998c-0.031-0.105-0.073-0.157-0.231-0.325
		c-0.735,0.588-1.491,1.124-2.016,1.438c-0.588,0.346-1.344,0.714-1.89,0.914L64.465,7.213z"/>
	<path d="M75.837,2.677c1.008,0.252,1.617,0.494,2.026,0.788c0.242,0.168,0.357,0.399,0.357,0.714c0,0.347-0.115,0.588-0.294,0.588
		c-0.116,0-0.168-0.052-0.452-0.42c-0.514-0.683-0.893-1.029-1.711-1.543L75.837,2.677z M83.302,3.275
		c-0.525,0.987-1.166,1.816-2.205,2.824c-0.966,0.935-1.617,1.459-2.95,2.394c-0.494,0.347-0.546,0.389-0.62,0.483
		c-0.168,0.2-0.231,0.252-0.368,0.252c-0.43,0-1.229-1.008-1.229-1.543c0-0.063,0.011-0.105,0.053-0.21
		c0.21,0.315,0.231,0.336,0.378,0.462c0.157,0.147,0.304,0.221,0.42,0.221c0.179,0,0.504-0.137,1.019-0.441
		c1.176-0.683,1.585-0.977,2.509-1.732c1.292-1.05,1.922-1.691,2.825-2.804L83.302,3.275z"/>
	<path d="M85.717,4.399c0.872,0.178,1.491,0.388,1.837,0.619c0.284,0.179,0.399,0.389,0.399,0.693c0,0.273-0.136,0.504-0.294,0.504
		c-0.105,0-0.168-0.042-0.325-0.242c-0.525-0.662-0.998-1.061-1.68-1.438L85.717,4.399z M93.823,4.136
		c-0.305,0.462-0.851,1.092-1.564,1.795c-1.113,1.071-2.236,1.942-3.979,3.056c-0.452,0.294-0.672,0.451-0.809,0.577
		c-0.084,0.074-0.157,0.105-0.241,0.105c-0.21,0-0.452-0.199-0.746-0.63c-0.189-0.283-0.326-0.609-0.326-0.809
		c0-0.094,0.032-0.168,0.095-0.241c0.199,0.399,0.493,0.651,0.787,0.651c0.231,0,0.924-0.347,2.016-1.029
		c1.921-1.176,3.486-2.394,4.641-3.57L93.823,4.136z M86.872,2.54c1.68,0.399,2.216,0.725,2.216,1.333
		c0,0.294-0.126,0.525-0.284,0.525c-0.115,0-0.115,0-0.567-0.557c-0.399-0.473-0.882-0.861-1.438-1.155L86.872,2.54z M91.177,1.7
		c1.124,0.494,1.627,0.914,1.627,1.354c0,0.2-0.063,0.42-0.147,0.504c-0.021,0.032-0.074,0.053-0.126,0.053
		c-0.116,0-0.147-0.032-0.294-0.315c-0.347-0.641-0.609-0.977-1.145-1.491L91.177,1.7z M92.154,1.028
		c1.176,0.388,1.701,0.777,1.701,1.25c0,0.304-0.105,0.535-0.252,0.535c-0.094,0-0.157-0.063-0.273-0.262
		c-0.304-0.536-0.661-0.935-1.25-1.407L92.154,1.028z"/>
	<path d="M101.173,5.995c0.84-0.914,1.103-1.229,1.575-1.89c0.242-0.346,0.315-0.462,0.315-0.525c0-0.042-0.042-0.084-0.095-0.084
		s-0.284,0.053-0.777,0.189c-0.935,0.242-1.627,0.473-2.52,0.809c0.315,1.344,0.788,3.161,1.271,4.83
		c0.042,0.136,0.063,0.241,0.063,0.315c0,0.158-0.105,0.284-0.242,0.284c-0.294,0-0.872-0.651-0.872-0.966
		c0-0.01,0-0.01,0.011-0.136c0-0.021,0-0.032,0-0.21c0-0.567-0.389-2.541-0.767-3.938c-1.187,0.441-1.491,0.577-1.785,0.819
		c-0.084,0.063-0.199,0.105-0.273,0.105c-0.399,0-1.155-0.83-1.155-1.26c0-0.063,0.01-0.105,0.042-0.189
		c0.252,0.378,0.525,0.557,0.861,0.557c0.326,0,0.956-0.147,2.174-0.515c-0.284-1.134-0.41-1.491-0.62-1.795
		c-0.179-0.252-0.441-0.378-0.872-0.42c0.137-0.157,0.294-0.21,0.599-0.21c0.325,0,0.808,0.105,1.082,0.231
		c0.189,0.095,0.283,0.21,0.283,0.357c0,0.053,0,0.074-0.031,0.168c-0.021,0.074-0.032,0.179-0.032,0.284
		c0,0.252,0.053,0.609,0.168,1.218c1.008-0.294,2.447-0.745,2.814-0.892c0.179-0.063,0.231-0.084,0.357-0.179
		c0.084-0.042,0.137-0.063,0.221-0.063c0.357,0,1.25,0.735,1.25,1.029c0,0.116-0.095,0.2-0.347,0.284
		c-0.199,0.063-0.241,0.094-0.504,0.326c-0.683,0.598-1.606,1.292-2.11,1.575L101.173,5.995z"/>
	<path d="M10.779,29c2.268-0.672,3.717-1.533,4.914-2.919c1.239-1.407,1.869-3.129,1.869-5.061c0-2.037-0.819-3.654-2.373-4.641
		c-0.924-0.609-2.31-0.966-3.633-0.966c-0.252,0-0.399,0-0.735,0.042c0.504,0.735,0.651,1.134,0.651,1.743
		c0,1.638-1.176,4.704-2.772,7.266c-1.323,2.1-2.352,3.129-3.129,3.129c-0.357,0-0.693-0.168-0.924-0.441
		c-0.189-0.252-0.231-0.336-0.588-1.344c-0.189-0.546-0.315-0.798-0.924-1.974c-0.336-0.672-0.483-1.239-0.483-1.911
		c0-1.323,0.714-2.877,1.89-4.158c1.701-1.806,4.473-2.94,7.224-2.94c2.121,0,4.074,0.693,5.418,1.932
		c1.344,1.239,2.016,2.898,2.016,4.935c0,2.625-1.533,4.956-4.179,6.363c-1.218,0.651-2.31,0.987-4.095,1.302L10.779,29z
		 M3.87,22.469c0,1.008,0.315,2.037,0.84,2.772c0.294,0.378,0.567,0.609,0.798,0.609c0.462,0,1.47-1.134,2.499-2.772
		c1.554-2.478,2.667-5.187,2.667-6.489c0-0.315-0.063-0.525-0.294-1.05C6.726,16.19,3.87,19.235,3.87,22.469z"/>
	<path d="M29.105,18.794c0.231,0,0.399-0.021,0.525-0.042c0.294-0.021,0.819-0.063,1.554-0.168v-5.145c0-0.924,0-0.966-0.021-1.491
		c2.142,0.378,2.247,0.42,2.247,0.609s-0.147,0.252-0.966,0.441v1.974h1.638c0.378-0.525,0.504-0.672,0.903-1.155
		c0.588,0.567,0.756,0.735,1.26,1.281c0.105,0.105,0.147,0.168,0.147,0.21c0,0.084-0.084,0.147-0.189,0.147h-3.759v2.982
		l0.525-0.063c1.449-0.21,2.415-0.336,2.919-0.399v0.252c-1.68,0.546-4.074,1.092-8.484,1.974C27.215,20.916,27.173,21,27.005,21
		c-0.21,0-0.315-0.294-0.756-2.037c1.218-0.021,1.218-0.021,1.638-0.063v-3.78c0-0.441-0.021-0.777-0.126-1.491
		c0.42,0.084,0.735,0.126,0.924,0.147c1.092,0.147,1.302,0.231,1.302,0.42c0,0.168-0.042,0.189-0.882,0.462V18.794z M26.795,30.428
		c1.428-0.945,2.037-1.428,3.171-2.478c0.945-0.882,1.113-1.071,1.512-1.575c1.827,0.84,1.974,0.924,1.974,1.092
		c0,0.126-0.168,0.21-0.378,0.21c0,0-0.042,0-0.063,0c-0.126,0-0.315-0.021-0.567-0.021c-3.234,2.121-3.507,2.268-5.502,3.045
		L26.795,30.428z M34.691,25.262c-4.893,0.462-4.893,0.462-6.51,0.525c-0.252,0.756-0.273,0.798-0.42,0.798
		c-0.231,0-0.336-0.378-0.588-2.142c0.777,0.042,2.184,0.063,4.011,0.063c0.672,0,0.672,0,3.129-0.084
		c1.764-1.722,3.066-3.087,4.053-4.347c1.617,0.693,1.806,0.798,1.806,0.945c0,0.189-0.231,0.252-0.882,0.252
		c-1.218,1.092-2.919,2.31-4.326,3.129c2.373-0.084,2.373-0.084,6.027-0.294c-0.756-0.63-1.071-0.861-1.869-1.365l0.168-0.252
		c1.491,0.483,2.772,1.092,3.885,1.785c0.525,0.336,0.714,0.693,0.714,1.344c0,0.567-0.147,0.903-0.399,0.903
		c-0.21,0-0.399-0.168-1.302-1.26c-0.21-0.231-0.42-0.441-0.798-0.798c-3.255,0.462-3.255,0.462-5.313,0.672v2.52
		c0,0.777,0.021,1.932,0.084,3.087c-0.021,0.168-0.042,0.189-0.21,0.231c-0.315,0.063-0.588,0.084-0.84,0.084
		c-0.357,0-0.441-0.042-0.483-0.21c0.042-1.89,0.063-2.961,0.063-3.192V25.262z M30.113,20.769c1.365,0.525,1.596,0.609,2.289,0.924
		c0.084-0.105,0.168-0.21,0.21-0.273c1.008-1.26,1.113-1.428,1.638-2.352c1.47,0.63,1.722,0.756,1.722,0.882
		c0,0.168-0.252,0.273-0.63,0.273c-0.063,0-0.126,0-0.252,0c-0.21,0.147-0.378,0.294-0.483,0.378
		c-1.281,0.945-1.281,0.945-1.806,1.302c0.903,0.504,1.155,0.798,1.155,1.407c0,0.252-0.126,0.693-0.252,0.882
		c-0.042,0.063-0.168,0.126-0.252,0.126c-0.168,0-0.189-0.021-0.693-0.714c-0.588-0.84-1.764-1.932-2.751-2.604L30.113,20.769z
		 M38.261,16.043c0.588-0.294,1.155-0.63,1.932-1.113c1.386-0.882,1.89-1.239,2.394-1.764c1.68,0.924,1.89,1.05,1.89,1.197
		c0,0.105-0.189,0.21-0.399,0.21c-0.084,0-0.336-0.021-0.714-0.084c-2.373,1.05-3.801,1.596-5.103,1.974v1.68
		c0,0.21,0.021,0.252,0.126,0.294c0.168,0.084,0.777,0.105,2.289,0.105c0.84,0,2.016-0.063,2.226-0.105
		c0.168-0.042,0.168-0.042,0.462-0.672c0.063-0.126,0.315-0.903,0.777-2.31l0.231,0.084l-0.126,2.415v0.189
		c0,0.21,0.042,0.231,0.42,0.336c0.231,0.042,0.42,0.252,0.42,0.42c0,0.588-0.987,0.735-5.145,0.735c-1.302,0-2.1-0.063-2.478-0.168
		c-0.294-0.105-0.441-0.294-0.504-0.714c0.021-1.722,0.021-1.722,0.021-2.352v-2.73c0-1.281,0-1.281-0.021-1.743
		c0.462,0.063,0.777,0.126,1.008,0.147c0.924,0.147,1.218,0.231,1.218,0.42c0,0.147-0.105,0.189-0.924,0.441V16.043z M37.862,26.187
		c1.596,0.483,3.339,1.302,4.242,1.953c0.483,0.357,0.714,0.84,0.714,1.533c0,0.441-0.21,0.819-0.483,0.819
		c-0.126,0-0.252-0.105-0.483-0.399c-0.924-1.218-2.541-2.646-4.095-3.675L37.862,26.187z"/>
	<path d="M56.244,26.187c0,0.231,0.042,1.743,0.105,4.578c0,0.294-0.189,0.378-0.777,0.378c-0.189,0-0.336,0-0.42,0.021h-0.021
		c-0.168,0-0.252-0.105-0.273-0.273c0.105-3.045,0.126-4.368,0.126-7.098c0-4.158-0.063-9.429-0.126-11.844
		c0.693,0.399,0.882,0.525,1.491,0.987h2.373c0.378-0.441,0.504-0.567,0.945-0.987c0.567,0.483,0.756,0.63,1.26,1.113
		c0.168,0.168,0.21,0.231,0.21,0.315c0,0.126-0.21,0.231-0.756,0.378c-1.008,1.722-1.197,2.016-1.323,2.226l-1.386,2.226
		c0.966,0.882,1.344,1.281,1.764,1.89c0.525,0.756,0.798,1.68,0.798,2.751c0,0.945-0.21,1.764-0.63,2.373
		c-0.462,0.651-1.008,0.945-2.121,1.092c-0.063-0.777-0.399-1.092-1.239-1.218V26.187z M56.265,24.758
		c0.861,0.084,1.281,0.105,1.638,0.105c0.525,0,0.651-0.042,0.798-0.294c0.189-0.336,0.315-0.966,0.315-1.701
		c0-1.764-0.525-3.003-1.932-4.494c0.756-1.806,1.365-3.528,1.743-4.956h-2.562V24.758z M69.81,23.457
		c-0.651,1.491-1.071,2.247-1.785,3.192c-0.903,1.239-2.205,2.499-3.507,3.381c-0.588,0.42-1.029,0.651-2.037,1.092l-0.189-0.252
		c1.239-0.735,1.827-1.218,2.814-2.289c1.491-1.596,2.373-2.961,3.339-5.124h-1.701c-0.672,1.323-1.05,1.911-1.974,2.961
		c-1.554,1.764-2.856,2.73-4.935,3.612l-0.21-0.231c1.932-1.239,2.646-1.869,3.948-3.507c1.071-1.323,1.365-1.806,1.764-2.835
		h-1.554c-0.546,0.735-1.05,1.323-1.743,1.995c-1.281,1.26-2.079,1.848-3.444,2.541l-0.147-0.315
		c0.903-0.609,1.344-1.008,2.247-2.037c1.218-1.386,1.995-2.583,2.772-4.284h-2.1c-0.21,0-0.483,0.021-0.987,0.042l-0.168-0.735
		c0.525,0.126,1.449,0.21,1.995,0.21h8.148c0.504-0.651,0.672-0.84,1.176-1.428c0.819,0.672,1.05,0.903,1.785,1.617
		c0.063,0.063,0.105,0.126,0.105,0.168c0,0.084-0.063,0.126-0.21,0.126h-8.232c-0.399,0.861-0.483,1.029-0.861,1.617h6.657
		c0.315-0.378,0.42-0.504,0.756-0.861c0.525,0.378,0.672,0.483,1.113,0.861c0.147,0.147,0.21,0.231,0.21,0.294
		c0,0.21-0.231,0.42-0.714,0.63c-0.378,3.381-0.504,3.969-1.008,5.271c-0.483,1.218-1.05,1.596-2.625,1.743
		c-0.105-0.525-0.231-0.777-0.567-1.008c-0.168-0.105-0.399-0.189-0.84-0.294l-0.483-0.105c-0.147-0.042-0.315-0.084-0.462-0.126
		v-0.315c1.365,0.126,2.31,0.189,3.108,0.189c0.399,0,0.567-0.21,0.861-1.155c0.357-1.155,0.609-2.835,0.651-4.641H69.81z
		 M63.552,19.55c-0.021,0.231-0.147,0.273-0.714,0.294c-0.168,0-0.273,0.021-0.336,0.021c-0.021,0-0.042,0-0.063,0
		c-0.231,0-0.315-0.084-0.315-0.315c0.042-1.323,0.063-2.268,0.063-5.355c0-0.525-0.021-1.281-0.063-2.247
		c0.756,0.378,0.987,0.525,1.617,0.987h4.935c0.336-0.441,0.441-0.567,0.798-0.987c0.588,0.378,0.756,0.504,1.281,0.903
		c0.126,0.126,0.168,0.189,0.168,0.252c0,0.126-0.105,0.21-0.63,0.546c0,0.609,0,1.155,0,1.47c0.021,2.751,0.021,2.751,0.063,4.137
		c0,0.042,0,0.063,0,0.084c0,0.231-0.147,0.273-1.134,0.273c-0.189,0-0.273-0.063-0.294-0.231v-0.525h-5.376V19.55z M68.928,13.418
		h-5.376v2.1h5.376V13.418z M63.552,16.001v2.373h5.376v-2.373H63.552z"/>
	<path d="M81.829,25.22c1.575-1.701,2.541-2.961,3.423-4.41c0.819-1.386,1.407-2.646,1.701-3.654c0.756,0.252,1.869,0.651,2.1,0.756
		c0.084,0.042,0.168,0.126,0.168,0.189c0,0.168-0.294,0.273-0.84,0.273c-0.021,0-0.084,0-0.147-0.021
		c-0.756,1.218-1.113,1.722-1.869,2.688c1.323,0.252,1.617,0.357,1.617,0.525c0,0.189-0.168,0.273-0.819,0.441v3.465
		c0,1.554,0,1.554,0,4.998c-0.063,0.252-0.189,0.294-0.777,0.315c-0.168,0-0.273,0.021-0.336,0.021c-0.042,0-0.063,0-0.063,0
		c-0.231,0-0.336-0.084-0.336-0.273c0.084-4.347,0.084-4.347,0.084-5.061V21.86c-1.428,1.743-2.268,2.52-3.717,3.612L81.829,25.22z
		 M93.274,14.426v-1.323c0-0.588,0-0.714-0.042-1.239c2.247,0.315,2.247,0.315,2.247,0.504s-0.252,0.315-0.84,0.441
		c0,0.651,0,1.197,0,1.617h2.793c0.588-0.651,0.798-0.861,1.365-1.491c0.882,0.714,1.155,0.945,2.016,1.701
		c0.042,0.042,0.063,0.084,0.063,0.126c0,0.084-0.105,0.147-0.189,0.147h-6.048c0,1.113,0,1.113,0.021,1.911
		c-0.021,0.147-0.063,0.231-0.147,0.273c-0.168,0.063-0.546,0.105-0.903,0.105c-0.252,0-0.336-0.063-0.357-0.273
		c0.021-0.903,0.021-0.903,0.021-2.016h-4.221c0,1.176,0,1.176,0,1.911c-0.042,0.231-0.168,0.273-0.714,0.294
		c-0.105,0-0.21,0.021-0.294,0.021c-0.021,0-0.042,0-0.042,0c-0.231,0-0.336-0.084-0.357-0.273c0.042-0.777,0.042-0.777,0.042-1.953
		h-3.696c-0.672,0-1.26,0.063-1.764,0.168l-0.126-0.861c0.861,0.168,1.176,0.21,1.89,0.21h3.696c0-0.168,0-0.21,0-0.315
		c0-0.924-0.021-1.806-0.063-2.289c2.289,0.273,2.289,0.273,2.289,0.483c0,0.189-0.063,0.21-0.861,0.504v1.617H93.274z
		 M93.085,23.834c0.84-0.63,1.386-1.113,2.268-2.037c1.386-1.449,2.1-2.373,2.583-3.318c1.995,1.134,2.016,1.155,2.016,1.323
		c0,0.105-0.168,0.21-0.357,0.21s-0.378-0.021-0.609-0.042c-2.016,1.932-3.906,3.318-5.901,4.347v4.494
		c0,0.105,0.126,0.168,0.336,0.189c0.294,0.042,2.373,0.105,2.898,0.105c0.714,0,1.827-0.063,2.016-0.126
		c0.231-0.063,0.294-0.168,0.525-0.777c0.336-0.903,0.609-1.785,1.071-3.486h0.273l-0.273,3.36
		c-0.021,0.336-0.021,0.504-0.021,0.525c0,0.147,0.042,0.189,0.336,0.294c0.336,0.126,0.462,0.273,0.462,0.525
		c0,0.357-0.252,0.588-0.819,0.714c-0.462,0.084-2.121,0.168-3.801,0.168c-2.583,0-3.402-0.063-3.864-0.315
		c-0.399-0.21-0.546-0.525-0.567-1.197c0.021-3.444,0.021-3.444,0.021-3.906v-5.376c0-0.63-0.042-1.575-0.105-2.121
		c2.142,0.315,2.352,0.357,2.352,0.525c0,0.189-0.294,0.336-0.84,0.462V23.834z"/>
	<path d="M108.722,15.582c1.008,0.798,1.491,0.987,2.625,0.987c0.672,0,1.281-0.084,2.247-0.273c0.462-0.903,0.735-1.68,0.735-2.142
		c0-0.567-0.399-0.903-1.491-1.176c0.357-0.189,0.546-0.231,0.945-0.231c0.483,0,1.092,0.126,1.638,0.357
		c0.525,0.21,0.756,0.441,0.756,0.693c0,0.147-0.084,0.294-0.336,0.609c-0.189,0.252-0.441,0.63-0.609,0.861
		c-0.378,0.609-0.378,0.609-0.525,0.819c1.764-0.504,2.331-0.756,3.024-1.344c0.126-0.105,0.252-0.147,0.399-0.147
		c0.819,0,1.407,0.294,1.407,0.693c0,0.252-0.273,0.462-0.903,0.672c-1.869,0.609-2.877,0.861-4.578,1.197
		c-0.378,0.525-0.63,0.903-1.113,1.638c-0.567,0.882-0.735,1.113-1.134,1.68c1.176-0.609,1.911-0.84,2.709-0.84
		c1.239,0,2.163,0.84,2.352,2.1c0.357-0.168,0.357-0.168,2.058-1.029c2.079-1.05,2.583-1.386,2.583-1.764
		c0-0.357-0.356-0.735-0.966-0.987c0.231-0.105,0.336-0.126,0.483-0.126c0.924,0,2.373,1.281,2.373,2.121
		c0,0.378-0.168,0.525-0.756,0.651c-1.261,0.294-3.99,1.344-5.628,2.163c0.021,0.672,0.021,0.798,0.021,1.701
		c0,0.945-0.063,1.596-0.168,1.806c-0.105,0.231-0.336,0.399-0.588,0.399c-0.399,0-0.672-0.273-0.672-0.63
		c0-0.105,0-0.21,0.021-0.357c0.084-0.609,0.126-1.323,0.147-2.247c-1.302,0.714-1.911,1.134-2.457,1.659
		c-0.693,0.672-1.029,1.323-1.029,1.953c0,1.134,1.155,1.68,3.507,1.68c1.47,0,2.94-0.21,4.221-0.588
		c0.147-0.042,0.294-0.063,0.399-0.063c0.651,0,1.471,0.588,1.471,1.05c0,0.273-0.231,0.483-0.651,0.567
		c-0.861,0.168-2.457,0.294-3.759,0.294c-1.974,0-3.423-0.21-4.263-0.609c-1.071-0.504-1.554-1.197-1.554-2.226
		c0-0.987,0.483-1.89,1.512-2.877c0.546-0.525,1.218-1.008,2.604-1.869c-0.021-0.882-0.084-1.218-0.294-1.659
		c-0.189-0.378-0.609-0.63-1.071-0.63c-1.386,0-3.045,1.113-4.557,3.045c-0.399,0.546-0.567,0.672-0.777,0.672
		c-0.336,0-0.567-0.441-0.567-1.113c0-0.441,0.021-0.462,0.609-0.945c1.491-1.176,2.415-2.268,3.906-4.515
		c-0.693,0.105-0.966,0.126-1.407,0.126c-1.428,0-2.163-0.378-3.129-1.617L108.722,15.582z"/>
	<path d="M31.275,34.082c0.409,0.473,0.766,0.62,1.47,0.62c0.2,0,0.326-0.01,0.609-0.052c0.063-0.473,0.116-0.987,0.116-1.166
		c0-0.378-0.168-0.546-0.683-0.704c0.116-0.095,0.168-0.116,0.305-0.116c0.231,0,0.63,0.105,0.914,0.242
		c0.262,0.136,0.388,0.263,0.388,0.431c0,0.094,0,0.094-0.136,0.273c-0.126,0.178-0.2,0.378-0.326,0.945
		c0.998-0.21,1.617-0.452,1.974-0.746c0.115-0.105,0.157-0.115,0.263-0.115c0.147,0,0.378,0.042,0.493,0.084
		c0.105,0.042,0.168,0.126,0.168,0.231c0,0.189-0.21,0.315-0.903,0.557c-0.525,0.178-1.333,0.367-2.11,0.493
		c-0.095,0.473-0.179,1.113-0.2,1.585c0.599-0.199,1.113-0.304,1.68-0.336c0-0.031,0-0.052,0-0.063c0-0.199-0.084-0.346-0.336-0.578
		c0.052-0.01,0.094-0.021,0.115-0.021c0.273,0,0.578,0.284,0.672,0.63c0.935,0.105,1.512,0.315,2.037,0.745
		c0.473,0.41,0.714,0.956,0.714,1.659c0,1.596-1.627,2.793-4.095,3.003l-0.032-0.168c2.132-0.525,3.318-1.617,3.318-3.077
		c0-0.64-0.273-1.165-0.767-1.491c-0.294-0.189-0.651-0.294-1.218-0.368c-0.157,0.536-0.325,0.893-0.661,1.438
		c-0.368,0.578-0.683,0.966-1.124,1.365c0.136,0.262,0.136,0.262,0.262,0.441c0.074,0.116,0.116,0.252,0.116,0.441
		c0,0.284-0.095,0.483-0.242,0.483c-0.178,0-0.357-0.283-0.609-0.924c-0.672,0.609-1.396,0.998-1.816,0.998
		c-0.252,0-0.368-0.116-0.504-0.483c-0.074-0.179-0.095-0.221-0.2-0.399c-0.157-0.252-0.2-0.399-0.2-0.63
		c0-0.546,0.326-1.092,0.987-1.648c0.389-0.315,0.798-0.567,1.417-0.84c0.01-0.158,0.01-0.158,0.063-0.777
		c0.01-0.179,0.031-0.347,0.094-0.935c-0.199,0.01-0.294,0.021-0.399,0.021c-0.829,0-1.323-0.273-1.753-0.966L31.275,34.082z
		 M31.642,38.492c-0.22,0.336-0.325,0.662-0.325,0.987c0,0.389,0.157,0.641,0.399,0.641c0.336,0,0.987-0.357,1.564-0.851
		c-0.126-0.682-0.158-1.029-0.158-1.69c0-0.073,0-0.21,0-0.378C32.335,37.663,31.968,37.978,31.642,38.492z M33.595,37.327
		c0,0.567,0.053,1.092,0.147,1.533c0.819-0.851,1.197-1.407,1.501-2.268c-0.599,0.052-0.998,0.147-1.648,0.399
		C33.595,37.138,33.595,37.253,33.595,37.327z"/>
	<path d="M56.982,39.416c-1.008,1.365-2.384,2.174-3.686,2.174c-0.798,0-1.417-0.326-1.743-0.893
		c-0.21-0.368-0.294-0.882-0.294-1.774c0-0.578,0.031-1.575,0.084-2.531c0.063-1.134,0.074-1.428,0.074-1.806
		c0-0.903-0.105-1.082-0.851-1.397c0.115-0.084,0.178-0.105,0.294-0.105c0.241,0,0.62,0.095,0.945,0.242
		c0.399,0.189,0.609,0.399,0.609,0.62c0,0.073-0.01,0.136-0.094,0.378c-0.2,0.63-0.546,3.812-0.546,5.04
		c0,0.641,0.126,1.019,0.42,1.26c0.231,0.179,0.567,0.284,0.935,0.284c0.714,0,1.596-0.252,2.394-0.672
		c0.483-0.252,0.787-0.473,1.333-0.935L56.982,39.416z M54.42,33.988c0.567,0.199,1.008,0.462,1.354,0.788
		c0.178,0.178,0.262,0.357,0.262,0.598c0,0.273-0.115,0.462-0.273,0.462c-0.084,0-0.115-0.032-0.294-0.357
		c-0.347-0.588-0.672-0.997-1.134-1.386L54.42,33.988z M55.354,33.253c0.662,0.22,1.05,0.409,1.407,0.703
		c0.189,0.158,0.252,0.284,0.252,0.525c0,0.304-0.094,0.504-0.241,0.504c-0.095,0-0.137-0.053-0.273-0.294
		c-0.283-0.483-0.661-0.893-1.218-1.323L55.354,33.253z"/>
	<path d="M74.437,33.662c0.42,0.168,0.998,0.326,1.187,0.326c0.042,0,0.063,0,0.105-0.011c0.032,0,0.053,0,0.063,0
		c0.263,0,0.41,0.116,0.41,0.326c0,0.157-0.178,0.315-0.578,0.546c-0.378,0.2-0.514,0.263-1.533,0.651
		c0.546,0.777,1.124,1.68,1.438,2.268c0.168,0.305,0.231,0.525,0.231,0.788c0,0.41-0.074,0.557-0.284,0.557
		c-0.115,0-0.178-0.032-0.325-0.179c-0.21-0.199-0.473-0.388-0.704-0.494c-0.536-0.252-1.229-0.399-1.9-0.399
		c-1.208,0-1.964,0.473-1.964,1.229c0,0.452,0.305,0.84,0.819,1.061c0.367,0.147,0.893,0.231,1.459,0.231
		c0.399,0,0.641-0.021,0.914-0.073c0.052-0.011,0.094-0.021,0.126-0.021c0.273,0,0.651,0.336,0.651,0.567
		c0,0.263-0.179,0.326-0.914,0.326c-0.788,0-1.512-0.095-2.058-0.284c-0.945-0.315-1.501-0.956-1.501-1.711
		c0-1.05,1.04-1.68,2.762-1.68c0.704,0,1.491,0.105,2.058,0.273c-0.231-0.724-0.672-1.512-1.26-2.331
		c-0.756,0.231-1.438,0.347-2.131,0.347c-0.798,0-1.396-0.284-1.932-0.924l0.116-0.105c0.567,0.42,1.019,0.577,1.68,0.577
		c0.557,0,1.239-0.115,1.943-0.325c-0.441-0.578-1.04-1.134-1.46-1.365c-0.325-0.178-0.399-0.262-0.399-0.409
		c0-0.242,0.263-0.389,0.714-0.389c0.378,0,0.756,0.063,1.229,0.221l-0.053,0.157c-0.242-0.031-0.399-0.042-0.473-0.042
		c-0.22,0-0.325,0.042-0.325,0.116c0,0.052,0.105,0.189,0.43,0.556c0.116,0.137,0.389,0.473,0.809,1.008
		c0.137-0.063,0.137-0.063,0.662-0.273c0.242-0.105,0.441-0.2,0.767-0.389c-0.273-0.221-0.284-0.231-0.851-0.609L74.437,33.662z"/>
	<path d="M91.849,37.001c-0.767,1.764-0.987,2.384-0.987,2.804c0,0.084,0,0.084,0.063,0.357c0.01,0.053,0.021,0.116,0.021,0.168
		c0,0.147-0.105,0.263-0.231,0.263c-0.294,0-0.83-0.41-1.155-0.893c-0.357-0.515-0.609-1.26-0.714-2.1
		c-0.063-0.462-0.073-0.725-0.073-1.848c-0.011-0.976-0.084-1.218-0.536-1.806c0.031,0,0.052,0,0.094,0
		c0.168,0,0.473,0.199,0.788,0.514c0.315,0.305,0.473,0.588,0.473,0.83c0,0.063-0.011,0.147-0.032,0.273
		c-0.126,0.641-0.189,1.134-0.189,1.564c0,0.567,0.084,1.092,0.242,1.523c0.158,0.43,0.284,0.619,0.546,0.819
		c0.116-0.168,0.116-0.168,0.347-0.557c0.336-0.567,0.336-0.567,0.882-1.48c0.168-0.273,0.168-0.273,0.305-0.504L91.849,37.001z
		 M94.086,35.101c1.323,0.294,2.373,1.69,2.373,3.14c0,0.504-0.21,0.83-0.525,0.83c-0.105,0-0.168-0.021-0.315-0.116
		c-0.136-0.094-0.336-0.126-0.788-0.126c-0.241,0-0.441,0-0.798,0.021l-0.031-0.157c0.85-0.231,1.323-0.368,1.417-0.399
		c0.21-0.073,0.241-0.115,0.241-0.315c0-0.388-0.147-0.998-0.325-1.375c-0.284-0.609-0.704-1.05-1.302-1.375L94.086,35.101z"/>
</g>
<g>
	<path d="M21.919,60.06c1.04-0.819,1.942-1.848,2.583-2.919c0.325-0.556,0.43-0.809,0.43-1.04c0-0.168-0.136-0.325-0.525-0.598
		c0.116-0.032,0.168-0.042,0.231-0.042c0.189,0,0.557,0.147,0.861,0.357c0.367,0.241,0.514,0.399,0.514,0.567
		c0,0.084-0.031,0.147-0.126,0.231c-0.199,0.168-0.21,0.168-0.441,0.483c-0.882,1.155-1.323,1.627-2.215,2.3
		c-0.462,0.357-0.756,0.546-1.229,0.777L21.919,60.06z M27.547,55.44c1.103,0.661,2.1,1.543,2.761,2.446
		c0.326,0.452,0.441,0.746,0.441,1.124c0,0.431-0.168,0.767-0.399,0.767c-0.147,0-0.189-0.063-0.346-0.483
		c-0.515-1.407-1.354-2.615-2.573-3.717L27.547,55.44z"/>
	<path d="M32.965,59.188c1.313-0.704,2.719-1.764,3.948-2.982c1.04-1.018,1.711-1.869,1.711-2.173c0-0.199-0.168-0.368-0.588-0.599
		c0.116-0.042,0.137-0.042,0.21-0.042c0.305,0,0.567,0.095,0.903,0.315c0.357,0.241,0.546,0.483,0.546,0.682
		c0,0.095-0.011,0.116-0.42,0.462c-0.105,0.084-0.105,0.084-0.851,0.798c-0.735,0.704-0.798,0.756-1.25,1.134
		c0.41,0.305,0.588,0.462,0.641,0.588c0.042,0.105,0.063,0.599,0.073,1.543c0.011,0.735,0.032,1.407,0.053,2.006
		c0,0.231,0.01,0.535,0.01,0.598c0,0.368-0.073,0.525-0.241,0.525c-0.242,0-0.714-0.578-0.714-0.882c0-0.073,0-0.073,0.063-0.273
		c0.095-0.262,0.189-1.564,0.189-2.583c0-0.514-0.021-0.83-0.063-0.998c-0.031-0.105-0.073-0.157-0.231-0.325
		c-0.735,0.588-1.491,1.124-2.016,1.438c-0.588,0.346-1.344,0.714-1.89,0.914L32.965,59.188z"/>
	<path d="M47.056,59.272c0,0.598,0,1.827,0.011,2.1c0,0.095,0,0.158,0,0.189c0,0.315-0.074,0.452-0.231,0.452
		c-0.116,0-0.231-0.094-0.378-0.283c-0.157-0.242-0.273-0.515-0.273-0.683c0-0.095,0.011-0.158,0.084-0.389
		c0.116-0.389,0.179-1.701,0.179-3.612c0-2.163-0.032-2.73-0.168-2.993c-0.126-0.231-0.305-0.378-0.672-0.536
		c0.105-0.063,0.168-0.084,0.273-0.084c0.241,0,0.64,0.137,1.019,0.357c0.294,0.168,0.399,0.283,0.399,0.441
		c0,0.063-0.011,0.084-0.063,0.189c-0.137,0.283-0.179,0.714-0.179,2.289c1.145,0.136,2.163,0.409,2.678,0.714
		c0.315,0.178,0.43,0.368,0.43,0.693c0,0.263-0.094,0.462-0.231,0.462c-0.084,0-0.147-0.031-0.409-0.262
		c-0.777-0.651-1.522-1.061-2.468-1.344v0.242V59.272z M49.041,53.76c1.344,0.567,1.806,0.935,1.806,1.417
		c0,0.294-0.126,0.546-0.283,0.546c-0.116,0-0.126-0.01-0.389-0.451c-0.284-0.504-0.662-0.924-1.229-1.386L49.041,53.76z
		 M49.996,53.014c0.746,0.263,1.103,0.431,1.449,0.693c0.241,0.178,0.336,0.346,0.336,0.588c0,0.273-0.105,0.493-0.242,0.493
		c-0.126,0-0.147-0.031-0.388-0.388c-0.315-0.483-0.704-0.861-1.239-1.26L49.996,53.014z"/>
	<path d="M62.145,56.826c-0.577,0.809-0.913,1.197-1.564,1.785c-0.945,0.861-1.953,1.543-3.171,2.142
		c-0.588,0.304-0.599,0.304-0.788,0.504c-0.084,0.094-0.157,0.136-0.241,0.136c-0.21,0-0.693-0.619-0.693-0.903
		c0-0.052,0-0.052,0.052-0.189c0.074-0.231,0.084-0.473,0.084-1.606c0-2.32-0.052-3.339-0.189-3.728
		c-0.095-0.263-0.263-0.389-0.725-0.546c0.126-0.084,0.2-0.105,0.326-0.105c0.22,0,0.546,0.094,0.84,0.252
		c0.41,0.22,0.62,0.431,0.62,0.641c0,0.063,0,0.063-0.053,0.22c-0.052,0.168-0.105,0.557-0.136,1.04
		c-0.053,0.641-0.116,2.552-0.116,3.329c0,0.105,0,0.294,0,0.525c1.512-0.557,2.447-1.04,3.581-1.858
		c0.798-0.578,1.522-1.208,2.037-1.764L62.145,56.826z"/>
	<path d="M64.465,59.188c1.313-0.704,2.719-1.764,3.948-2.982c1.04-1.018,1.711-1.869,1.711-2.173c0-0.199-0.168-0.368-0.588-0.599
		c0.116-0.042,0.137-0.042,0.21-0.042c0.305,0,0.567,0.095,0.903,0.315c0.357,0.241,0.546,0.483,0.546,0.682
		c0,0.095-0.011,0.116-0.42,0.462c-0.105,0.084-0.105,0.084-0.851,0.798c-0.735,0.704-0.798,0.756-1.25,1.134
		c0.41,0.305,0.588,0.462,0.641,0.588c0.042,0.105,0.063,0.599,0.073,1.543c0.011,0.735,0.032,1.407,0.053,2.006
		c0,0.231,0.01,0.535,0.01,0.598c0,0.368-0.073,0.525-0.241,0.525c-0.242,0-0.714-0.578-0.714-0.882c0-0.073,0-0.073,0.063-0.273
		c0.095-0.262,0.189-1.564,0.189-2.583c0-0.514-0.021-0.83-0.063-0.998c-0.031-0.105-0.073-0.157-0.231-0.325
		c-0.735,0.588-1.491,1.124-2.016,1.438c-0.588,0.346-1.344,0.714-1.89,0.914L64.465,59.188z"/>
	<path d="M75.837,54.652c1.008,0.252,1.617,0.494,2.026,0.788c0.242,0.168,0.357,0.399,0.357,0.714c0,0.347-0.115,0.588-0.294,0.588
		c-0.116,0-0.168-0.052-0.452-0.42c-0.514-0.683-0.893-1.029-1.711-1.543L75.837,54.652z M83.302,55.251
		c-0.525,0.987-1.166,1.816-2.205,2.824c-0.966,0.935-1.617,1.459-2.95,2.394c-0.494,0.347-0.546,0.389-0.62,0.483
		c-0.168,0.2-0.231,0.252-0.368,0.252c-0.43,0-1.229-1.008-1.229-1.543c0-0.063,0.011-0.105,0.053-0.21
		c0.21,0.315,0.231,0.336,0.378,0.462c0.157,0.147,0.304,0.221,0.42,0.221c0.179,0,0.504-0.137,1.019-0.441
		c1.176-0.683,1.585-0.977,2.509-1.732c1.292-1.05,1.922-1.691,2.825-2.804L83.302,55.251z"/>
	<path d="M85.717,56.375c0.872,0.178,1.491,0.388,1.837,0.619c0.284,0.179,0.399,0.389,0.399,0.693c0,0.273-0.136,0.504-0.294,0.504
		c-0.105,0-0.168-0.042-0.325-0.242c-0.525-0.662-0.998-1.061-1.68-1.438L85.717,56.375z M93.823,56.112
		c-0.305,0.462-0.851,1.092-1.564,1.795c-1.113,1.071-2.236,1.942-3.979,3.056c-0.452,0.294-0.672,0.451-0.809,0.577
		c-0.084,0.074-0.157,0.105-0.241,0.105c-0.21,0-0.452-0.199-0.746-0.63c-0.189-0.283-0.326-0.609-0.326-0.809
		c0-0.094,0.032-0.168,0.095-0.241c0.199,0.399,0.493,0.651,0.787,0.651c0.231,0,0.924-0.347,2.016-1.029
		c1.921-1.176,3.486-2.394,4.641-3.57L93.823,56.112z M86.872,54.516c1.68,0.399,2.216,0.725,2.216,1.333
		c0,0.294-0.126,0.525-0.284,0.525c-0.115,0-0.115,0-0.567-0.557c-0.399-0.473-0.882-0.861-1.438-1.155L86.872,54.516z
		 M91.177,53.676c1.124,0.494,1.627,0.914,1.627,1.354c0,0.2-0.063,0.42-0.147,0.504c-0.021,0.032-0.074,0.053-0.126,0.053
		c-0.116,0-0.147-0.032-0.294-0.315c-0.347-0.641-0.609-0.977-1.145-1.491L91.177,53.676z M92.154,53.004
		c1.176,0.388,1.701,0.777,1.701,1.25c0,0.304-0.105,0.535-0.252,0.535c-0.094,0-0.157-0.063-0.273-0.262
		c-0.304-0.536-0.661-0.935-1.25-1.407L92.154,53.004z"/>
	<path d="M101.173,57.97c0.84-0.914,1.103-1.229,1.575-1.89c0.242-0.346,0.315-0.462,0.315-0.525c0-0.042-0.042-0.084-0.095-0.084
		s-0.284,0.053-0.777,0.189c-0.935,0.242-1.627,0.473-2.52,0.809c0.315,1.344,0.788,3.161,1.271,4.83
		c0.042,0.136,0.063,0.241,0.063,0.315c0,0.158-0.105,0.284-0.242,0.284c-0.294,0-0.872-0.651-0.872-0.966
		c0-0.01,0-0.01,0.011-0.136c0-0.021,0-0.032,0-0.21c0-0.567-0.389-2.541-0.767-3.938c-1.187,0.441-1.491,0.577-1.785,0.819
		c-0.084,0.063-0.199,0.105-0.273,0.105c-0.399,0-1.155-0.83-1.155-1.26c0-0.063,0.01-0.105,0.042-0.189
		c0.252,0.378,0.525,0.557,0.861,0.557c0.326,0,0.956-0.147,2.174-0.515c-0.284-1.134-0.41-1.491-0.62-1.795
		c-0.179-0.252-0.441-0.378-0.872-0.42c0.137-0.157,0.294-0.21,0.599-0.21c0.325,0,0.808,0.105,1.082,0.231
		c0.189,0.095,0.283,0.21,0.283,0.357c0,0.053,0,0.074-0.031,0.168c-0.021,0.074-0.032,0.179-0.032,0.284
		c0,0.252,0.053,0.609,0.168,1.218c1.008-0.294,2.447-0.745,2.814-0.892c0.179-0.063,0.231-0.084,0.357-0.179
		c0.084-0.042,0.137-0.063,0.221-0.063c0.357,0,1.25,0.735,1.25,1.029c0,0.116-0.095,0.2-0.347,0.284
		c-0.199,0.063-0.241,0.094-0.504,0.326c-0.683,0.598-1.606,1.292-2.11,1.575L101.173,57.97z"/>
	<path d="M10.779,80.976c2.268-0.672,3.717-1.533,4.914-2.919c1.239-1.407,1.869-3.129,1.869-5.061c0-2.037-0.819-3.654-2.373-4.641
		c-0.924-0.609-2.31-0.966-3.633-0.966c-0.252,0-0.399,0-0.735,0.042c0.504,0.735,0.651,1.134,0.651,1.743
		c0,1.638-1.176,4.704-2.772,7.266c-1.323,2.1-2.352,3.129-3.129,3.129c-0.357,0-0.693-0.168-0.924-0.441
		c-0.189-0.252-0.231-0.336-0.588-1.344c-0.189-0.546-0.315-0.798-0.924-1.974c-0.336-0.672-0.483-1.239-0.483-1.911
		c0-1.323,0.714-2.877,1.89-4.158c1.701-1.806,4.473-2.94,7.224-2.94c2.121,0,4.074,0.693,5.418,1.932
		c1.344,1.239,2.016,2.898,2.016,4.935c0,2.625-1.533,4.956-4.179,6.363c-1.218,0.651-2.31,0.987-4.095,1.302L10.779,80.976z
		 M3.87,74.445c0,1.008,0.315,2.037,0.84,2.772c0.294,0.378,0.567,0.609,0.798,0.609c0.462,0,1.47-1.134,2.499-2.772
		c1.554-2.478,2.667-5.187,2.667-6.489c0-0.315-0.063-0.525-0.294-1.05C6.726,68.166,3.87,71.211,3.87,74.445z"/>
	<path d="M29.105,70.77c0.231,0,0.399-0.021,0.525-0.042c0.294-0.021,0.819-0.063,1.554-0.168v-5.145c0-0.924,0-0.966-0.021-1.491
		c2.142,0.378,2.247,0.42,2.247,0.609s-0.147,0.252-0.966,0.441v1.974h1.638c0.378-0.525,0.504-0.672,0.903-1.155
		c0.588,0.567,0.756,0.735,1.26,1.281c0.105,0.105,0.147,0.168,0.147,0.21c0,0.084-0.084,0.147-0.189,0.147h-3.759v2.982
		l0.525-0.063c1.449-0.21,2.415-0.336,2.919-0.399v0.252c-1.68,0.546-4.074,1.092-8.484,1.974c-0.189,0.714-0.231,0.798-0.399,0.798
		c-0.21,0-0.315-0.294-0.756-2.037c1.218-0.021,1.218-0.021,1.638-0.063v-3.78c0-0.441-0.021-0.777-0.126-1.491
		c0.42,0.084,0.735,0.126,0.924,0.147c1.092,0.147,1.302,0.231,1.302,0.42c0,0.168-0.042,0.189-0.882,0.462V70.77z M26.795,82.404
		c1.428-0.945,2.037-1.428,3.171-2.478c0.945-0.882,1.113-1.071,1.512-1.575c1.827,0.84,1.974,0.924,1.974,1.092
		c0,0.126-0.168,0.21-0.378,0.21c0,0-0.042,0-0.063,0c-0.126,0-0.315-0.021-0.567-0.021c-3.234,2.121-3.507,2.268-5.502,3.045
		L26.795,82.404z M34.691,77.238c-4.893,0.462-4.893,0.462-6.51,0.525c-0.252,0.756-0.273,0.798-0.42,0.798
		c-0.231,0-0.336-0.378-0.588-2.142c0.777,0.042,2.184,0.063,4.011,0.063c0.672,0,0.672,0,3.129-0.084
		c1.764-1.722,3.066-3.087,4.053-4.347c1.617,0.693,1.806,0.798,1.806,0.945c0,0.189-0.231,0.252-0.882,0.252
		c-1.218,1.092-2.919,2.31-4.326,3.129c2.373-0.084,2.373-0.084,6.027-0.294c-0.756-0.63-1.071-0.861-1.869-1.365l0.168-0.252
		c1.491,0.483,2.772,1.092,3.885,1.785c0.525,0.336,0.714,0.693,0.714,1.344c0,0.567-0.147,0.903-0.399,0.903
		c-0.21,0-0.399-0.168-1.302-1.26c-0.21-0.231-0.42-0.441-0.798-0.798c-3.255,0.462-3.255,0.462-5.313,0.672v2.52
		c0,0.777,0.021,1.932,0.084,3.087c-0.021,0.168-0.042,0.189-0.21,0.231c-0.315,0.063-0.588,0.084-0.84,0.084
		c-0.357,0-0.441-0.042-0.483-0.21c0.042-1.89,0.063-2.961,0.063-3.192V77.238z M30.113,72.744c1.365,0.525,1.596,0.609,2.289,0.924
		c0.084-0.105,0.168-0.21,0.21-0.273c1.008-1.26,1.113-1.428,1.638-2.352c1.47,0.63,1.722,0.756,1.722,0.882
		c0,0.168-0.252,0.273-0.63,0.273c-0.063,0-0.126,0-0.252,0c-0.21,0.147-0.378,0.294-0.483,0.378
		c-1.281,0.945-1.281,0.945-1.806,1.302c0.903,0.504,1.155,0.798,1.155,1.407c0,0.252-0.126,0.693-0.252,0.882
		c-0.042,0.063-0.168,0.126-0.252,0.126c-0.168,0-0.189-0.021-0.693-0.714c-0.588-0.84-1.764-1.932-2.751-2.604L30.113,72.744z
		 M38.261,68.019c0.588-0.294,1.155-0.63,1.932-1.113c1.386-0.882,1.89-1.239,2.394-1.764c1.68,0.924,1.89,1.05,1.89,1.197
		c0,0.105-0.189,0.21-0.399,0.21c-0.084,0-0.336-0.021-0.714-0.084c-2.373,1.05-3.801,1.596-5.103,1.974v1.68
		c0,0.21,0.021,0.252,0.126,0.294c0.168,0.084,0.777,0.105,2.289,0.105c0.84,0,2.016-0.063,2.226-0.105
		c0.168-0.042,0.168-0.042,0.462-0.672c0.063-0.126,0.315-0.903,0.777-2.31l0.231,0.084l-0.126,2.415v0.189
		c0,0.21,0.042,0.231,0.42,0.336c0.231,0.042,0.42,0.252,0.42,0.42c0,0.588-0.987,0.735-5.145,0.735c-1.302,0-2.1-0.063-2.478-0.168
		c-0.294-0.105-0.441-0.294-0.504-0.714c0.021-1.722,0.021-1.722,0.021-2.352v-2.73c0-1.281,0-1.281-0.021-1.743
		c0.462,0.063,0.777,0.126,1.008,0.147c0.924,0.147,1.218,0.231,1.218,0.42c0,0.147-0.105,0.189-0.924,0.441V68.019z M37.862,78.162
		c1.596,0.483,3.339,1.302,4.242,1.953c0.483,0.357,0.714,0.84,0.714,1.533c0,0.441-0.21,0.819-0.483,0.819
		c-0.126,0-0.252-0.105-0.483-0.399c-0.924-1.218-2.541-2.646-4.095-3.675L37.862,78.162z"/>
	<path d="M56.244,78.162c0,0.231,0.042,1.743,0.105,4.578c0,0.294-0.189,0.378-0.777,0.378c-0.189,0-0.336,0-0.42,0.021h-0.021
		c-0.168,0-0.252-0.105-0.273-0.273c0.105-3.045,0.126-4.368,0.126-7.098c0-4.158-0.063-9.429-0.126-11.844
		c0.693,0.399,0.882,0.525,1.491,0.987h2.373c0.378-0.441,0.504-0.567,0.945-0.987c0.567,0.483,0.756,0.63,1.26,1.113
		c0.168,0.168,0.21,0.231,0.21,0.315c0,0.126-0.21,0.231-0.756,0.378c-1.008,1.722-1.197,2.016-1.323,2.226l-1.386,2.226
		c0.966,0.882,1.344,1.281,1.764,1.89c0.525,0.756,0.798,1.68,0.798,2.751c0,0.945-0.21,1.764-0.63,2.373
		c-0.462,0.651-1.008,0.945-2.121,1.092c-0.063-0.777-0.399-1.092-1.239-1.218V78.162z M56.265,76.734
		c0.861,0.084,1.281,0.105,1.638,0.105c0.525,0,0.651-0.042,0.798-0.294c0.189-0.336,0.315-0.966,0.315-1.701
		c0-1.764-0.525-3.003-1.932-4.494c0.756-1.806,1.365-3.528,1.743-4.956h-2.562V76.734z M69.81,75.432
		c-0.651,1.491-1.071,2.247-1.785,3.192c-0.903,1.239-2.205,2.499-3.507,3.381c-0.588,0.42-1.029,0.651-2.037,1.092l-0.189-0.252
		c1.239-0.735,1.827-1.218,2.814-2.289c1.491-1.596,2.373-2.961,3.339-5.124h-1.701c-0.672,1.323-1.05,1.911-1.974,2.961
		c-1.554,1.764-2.856,2.73-4.935,3.612l-0.21-0.231c1.932-1.239,2.646-1.869,3.948-3.507c1.071-1.323,1.365-1.806,1.764-2.835
		h-1.554c-0.546,0.735-1.05,1.323-1.743,1.995c-1.281,1.26-2.079,1.848-3.444,2.541l-0.147-0.315
		c0.903-0.609,1.344-1.008,2.247-2.037c1.218-1.386,1.995-2.583,2.772-4.284h-2.1c-0.21,0-0.483,0.021-0.987,0.042l-0.168-0.735
		c0.525,0.126,1.449,0.21,1.995,0.21h8.148c0.504-0.651,0.672-0.84,1.176-1.428c0.819,0.672,1.05,0.903,1.785,1.617
		c0.063,0.063,0.105,0.126,0.105,0.168c0,0.084-0.063,0.126-0.21,0.126h-8.232c-0.399,0.861-0.483,1.029-0.861,1.617h6.657
		c0.315-0.378,0.42-0.504,0.756-0.861c0.525,0.378,0.672,0.483,1.113,0.861c0.147,0.147,0.21,0.231,0.21,0.294
		c0,0.21-0.231,0.42-0.714,0.63c-0.378,3.381-0.504,3.969-1.008,5.271c-0.483,1.218-1.05,1.596-2.625,1.743
		c-0.105-0.525-0.231-0.777-0.567-1.008c-0.168-0.105-0.399-0.189-0.84-0.294l-0.483-0.105c-0.147-0.042-0.315-0.084-0.462-0.126
		v-0.315c1.365,0.126,2.31,0.189,3.108,0.189c0.399,0,0.567-0.21,0.861-1.155c0.357-1.155,0.609-2.835,0.651-4.641H69.81z
		 M63.552,71.526c-0.021,0.231-0.147,0.273-0.714,0.294c-0.168,0-0.273,0.021-0.336,0.021c-0.021,0-0.042,0-0.063,0
		c-0.231,0-0.315-0.084-0.315-0.315c0.042-1.323,0.063-2.268,0.063-5.355c0-0.525-0.021-1.281-0.063-2.247
		c0.756,0.378,0.987,0.525,1.617,0.987h4.935c0.336-0.441,0.441-0.567,0.798-0.987c0.588,0.378,0.756,0.504,1.281,0.903
		c0.126,0.126,0.168,0.189,0.168,0.252c0,0.126-0.105,0.21-0.63,0.546c0,0.609,0,1.155,0,1.47c0.021,2.751,0.021,2.751,0.063,4.137
		c0,0.042,0,0.063,0,0.084c0,0.231-0.147,0.273-1.134,0.273c-0.189,0-0.273-0.063-0.294-0.231v-0.525h-5.376V71.526z M68.928,65.394
		h-5.376v2.1h5.376V65.394z M63.552,67.977v2.373h5.376v-2.373H63.552z"/>
	<path d="M81.829,77.196c1.575-1.701,2.541-2.961,3.423-4.41c0.819-1.386,1.407-2.646,1.701-3.654
		c0.756,0.252,1.869,0.651,2.1,0.756c0.084,0.042,0.168,0.126,0.168,0.189c0,0.168-0.294,0.273-0.84,0.273
		c-0.021,0-0.084,0-0.147-0.021c-0.756,1.218-1.113,1.722-1.869,2.688c1.323,0.252,1.617,0.357,1.617,0.525
		c0,0.189-0.168,0.273-0.819,0.441v3.465c0,1.554,0,1.554,0,4.998c-0.063,0.252-0.189,0.294-0.777,0.315
		c-0.168,0-0.273,0.021-0.336,0.021c-0.042,0-0.063,0-0.063,0c-0.231,0-0.336-0.084-0.336-0.273
		c0.084-4.347,0.084-4.347,0.084-5.061v-3.612c-1.428,1.743-2.268,2.52-3.717,3.612L81.829,77.196z M93.274,66.402v-1.323
		c0-0.588,0-0.714-0.042-1.239c2.247,0.315,2.247,0.315,2.247,0.504s-0.252,0.315-0.84,0.441c0,0.651,0,1.197,0,1.617h2.793
		c0.588-0.651,0.798-0.861,1.365-1.491c0.882,0.714,1.155,0.945,2.016,1.701c0.042,0.042,0.063,0.084,0.063,0.126
		c0,0.084-0.105,0.147-0.189,0.147h-6.048c0,1.113,0,1.113,0.021,1.911c-0.021,0.147-0.063,0.231-0.147,0.273
		c-0.168,0.063-0.546,0.105-0.903,0.105c-0.252,0-0.336-0.063-0.357-0.273c0.021-0.903,0.021-0.903,0.021-2.016h-4.221
		c0,1.176,0,1.176,0,1.911c-0.042,0.231-0.168,0.273-0.714,0.294c-0.105,0-0.21,0.021-0.294,0.021c-0.021,0-0.042,0-0.042,0
		c-0.231,0-0.336-0.084-0.357-0.273c0.042-0.777,0.042-0.777,0.042-1.953h-3.696c-0.672,0-1.26,0.063-1.764,0.168l-0.126-0.861
		c0.861,0.168,1.176,0.21,1.89,0.21h3.696c0-0.168,0-0.21,0-0.315c0-0.924-0.021-1.806-0.063-2.289
		c2.289,0.273,2.289,0.273,2.289,0.483c0,0.189-0.063,0.21-0.861,0.504v1.617H93.274z M93.085,75.81
		c0.84-0.63,1.386-1.113,2.268-2.037c1.386-1.449,2.1-2.373,2.583-3.318c1.995,1.134,2.016,1.155,2.016,1.323
		c0,0.105-0.168,0.21-0.357,0.21s-0.378-0.021-0.609-0.042c-2.016,1.932-3.906,3.318-5.901,4.347v4.494
		c0,0.105,0.126,0.168,0.336,0.189c0.294,0.042,2.373,0.105,2.898,0.105c0.714,0,1.827-0.063,2.016-0.126
		c0.231-0.063,0.294-0.168,0.525-0.777c0.336-0.903,0.609-1.785,1.071-3.486h0.273l-0.273,3.36
		c-0.021,0.336-0.021,0.504-0.021,0.525c0,0.147,0.042,0.189,0.336,0.294c0.336,0.126,0.462,0.273,0.462,0.525
		c0,0.357-0.252,0.588-0.819,0.714c-0.462,0.084-2.121,0.168-3.801,0.168c-2.583,0-3.402-0.063-3.864-0.315
		c-0.399-0.21-0.546-0.525-0.567-1.197c0.021-3.444,0.021-3.444,0.021-3.906v-5.376c0-0.63-0.042-1.575-0.105-2.121
		c2.142,0.315,2.352,0.357,2.352,0.525c0,0.189-0.294,0.336-0.84,0.462V75.81z"/>
	<path d="M108.722,67.557c1.008,0.798,1.491,0.987,2.625,0.987c0.672,0,1.281-0.084,2.247-0.273c0.462-0.903,0.735-1.68,0.735-2.142
		c0-0.567-0.399-0.903-1.491-1.176c0.357-0.189,0.546-0.231,0.945-0.231c0.483,0,1.092,0.126,1.638,0.357
		c0.525,0.21,0.756,0.441,0.756,0.693c0,0.147-0.084,0.294-0.336,0.609c-0.189,0.252-0.441,0.63-0.609,0.861
		c-0.378,0.609-0.378,0.609-0.525,0.819c1.764-0.504,2.331-0.756,3.024-1.344c0.126-0.105,0.252-0.147,0.399-0.147
		c0.819,0,1.407,0.294,1.407,0.693c0,0.252-0.273,0.462-0.903,0.672c-1.869,0.609-2.877,0.861-4.578,1.197
		c-0.378,0.525-0.63,0.903-1.113,1.638c-0.567,0.882-0.735,1.113-1.134,1.68c1.176-0.609,1.911-0.84,2.709-0.84
		c1.239,0,2.163,0.84,2.352,2.1c0.357-0.168,0.357-0.168,2.058-1.029c2.079-1.05,2.583-1.386,2.583-1.764
		c0-0.357-0.356-0.735-0.966-0.987c0.231-0.105,0.336-0.126,0.483-0.126c0.924,0,2.373,1.281,2.373,2.121
		c0,0.378-0.168,0.525-0.756,0.651c-1.261,0.294-3.99,1.344-5.628,2.163c0.021,0.672,0.021,0.798,0.021,1.701
		c0,0.945-0.063,1.596-0.168,1.806c-0.105,0.231-0.336,0.399-0.588,0.399c-0.399,0-0.672-0.273-0.672-0.63
		c0-0.105,0-0.21,0.021-0.357c0.084-0.609,0.126-1.323,0.147-2.247c-1.302,0.714-1.911,1.134-2.457,1.659
		c-0.693,0.672-1.029,1.323-1.029,1.953c0,1.134,1.155,1.68,3.507,1.68c1.47,0,2.94-0.21,4.221-0.588
		c0.147-0.042,0.294-0.063,0.399-0.063c0.651,0,1.471,0.588,1.471,1.05c0,0.273-0.231,0.483-0.651,0.567
		c-0.861,0.168-2.457,0.294-3.759,0.294c-1.974,0-3.423-0.21-4.263-0.609c-1.071-0.504-1.554-1.197-1.554-2.226
		c0-0.987,0.483-1.89,1.512-2.877c0.546-0.525,1.218-1.008,2.604-1.869c-0.021-0.882-0.084-1.218-0.294-1.659
		c-0.189-0.378-0.609-0.63-1.071-0.63c-1.386,0-3.045,1.113-4.557,3.045c-0.399,0.546-0.567,0.672-0.777,0.672
		c-0.336,0-0.567-0.441-0.567-1.113c0-0.441,0.021-0.462,0.609-0.945c1.491-1.176,2.415-2.268,3.906-4.515
		c-0.693,0.105-0.966,0.126-1.407,0.126c-1.428,0-2.163-0.378-3.129-1.617L108.722,67.557z"/>
	<path d="M31.275,86.058c0.409,0.473,0.766,0.62,1.47,0.62c0.2,0,0.326-0.01,0.609-0.052c0.063-0.473,0.116-0.987,0.116-1.166
		c0-0.378-0.168-0.546-0.683-0.704c0.116-0.095,0.168-0.116,0.305-0.116c0.231,0,0.63,0.105,0.914,0.242
		c0.262,0.136,0.388,0.263,0.388,0.431c0,0.094,0,0.094-0.136,0.273c-0.126,0.178-0.2,0.378-0.326,0.945
		c0.998-0.21,1.617-0.452,1.974-0.746c0.115-0.105,0.157-0.115,0.263-0.115c0.147,0,0.378,0.042,0.493,0.084
		c0.105,0.042,0.168,0.126,0.168,0.231c0,0.189-0.21,0.315-0.903,0.557c-0.525,0.178-1.333,0.367-2.11,0.493
		c-0.095,0.473-0.179,1.113-0.2,1.585c0.599-0.199,1.113-0.304,1.68-0.336c0-0.031,0-0.052,0-0.063c0-0.199-0.084-0.346-0.336-0.578
		c0.052-0.01,0.094-0.021,0.115-0.021c0.273,0,0.578,0.284,0.672,0.63c0.935,0.105,1.512,0.315,2.037,0.745
		c0.473,0.41,0.714,0.956,0.714,1.659c0,1.596-1.627,2.793-4.095,3.003l-0.032-0.168c2.132-0.525,3.318-1.617,3.318-3.077
		c0-0.64-0.273-1.165-0.767-1.491c-0.294-0.189-0.651-0.294-1.218-0.368c-0.157,0.536-0.325,0.893-0.661,1.438
		c-0.368,0.578-0.683,0.966-1.124,1.365c0.136,0.262,0.136,0.262,0.262,0.441c0.074,0.116,0.116,0.252,0.116,0.441
		c0,0.284-0.095,0.483-0.242,0.483c-0.178,0-0.357-0.283-0.609-0.924c-0.672,0.609-1.396,0.998-1.816,0.998
		c-0.252,0-0.368-0.116-0.504-0.483c-0.074-0.179-0.095-0.221-0.2-0.399c-0.157-0.252-0.2-0.399-0.2-0.63
		c0-0.546,0.326-1.092,0.987-1.648c0.389-0.315,0.798-0.567,1.417-0.84c0.01-0.158,0.01-0.158,0.063-0.777
		c0.01-0.179,0.031-0.347,0.094-0.935c-0.199,0.01-0.294,0.021-0.399,0.021c-0.829,0-1.323-0.273-1.753-0.966L31.275,86.058z
		 M31.642,90.468c-0.22,0.336-0.325,0.662-0.325,0.987c0,0.389,0.157,0.641,0.399,0.641c0.336,0,0.987-0.357,1.564-0.851
		c-0.126-0.682-0.158-1.029-0.158-1.69c0-0.073,0-0.21,0-0.378C32.335,89.638,31.968,89.953,31.642,90.468z M33.595,89.302
		c0,0.567,0.053,1.092,0.147,1.533c0.819-0.851,1.197-1.407,1.501-2.268c-0.599,0.052-0.998,0.147-1.648,0.399
		C33.595,89.113,33.595,89.229,33.595,89.302z"/>
	<path d="M56.982,91.392c-1.008,1.365-2.384,2.174-3.686,2.174c-0.798,0-1.417-0.326-1.743-0.893
		c-0.21-0.368-0.294-0.882-0.294-1.774c0-0.578,0.031-1.575,0.084-2.531c0.063-1.134,0.074-1.428,0.074-1.806
		c0-0.903-0.105-1.082-0.851-1.397c0.115-0.084,0.178-0.105,0.294-0.105c0.241,0,0.62,0.095,0.945,0.242
		c0.399,0.189,0.609,0.399,0.609,0.62c0,0.073-0.01,0.136-0.094,0.378c-0.2,0.63-0.546,3.812-0.546,5.04
		c0,0.641,0.126,1.019,0.42,1.26c0.231,0.179,0.567,0.284,0.935,0.284c0.714,0,1.596-0.252,2.394-0.672
		c0.483-0.252,0.787-0.473,1.333-0.935L56.982,91.392z M54.42,85.963c0.567,0.199,1.008,0.462,1.354,0.788
		c0.178,0.178,0.262,0.357,0.262,0.598c0,0.273-0.115,0.462-0.273,0.462c-0.084,0-0.115-0.032-0.294-0.357
		c-0.347-0.588-0.672-0.997-1.134-1.386L54.42,85.963z M55.354,85.229c0.662,0.22,1.05,0.409,1.407,0.703
		c0.189,0.158,0.252,0.284,0.252,0.525c0,0.304-0.094,0.504-0.241,0.504c-0.095,0-0.137-0.053-0.273-0.294
		c-0.283-0.483-0.661-0.893-1.218-1.323L55.354,85.229z"/>
	<path d="M74.437,85.638c0.42,0.168,0.998,0.326,1.187,0.326c0.042,0,0.063,0,0.105-0.011c0.032,0,0.053,0,0.063,0
		c0.263,0,0.41,0.116,0.41,0.326c0,0.157-0.178,0.315-0.578,0.546c-0.378,0.2-0.514,0.263-1.533,0.651
		c0.546,0.777,1.124,1.68,1.438,2.268c0.168,0.305,0.231,0.525,0.231,0.788c0,0.41-0.074,0.557-0.284,0.557
		c-0.115,0-0.178-0.032-0.325-0.179c-0.21-0.199-0.473-0.388-0.704-0.494c-0.536-0.252-1.229-0.399-1.9-0.399
		c-1.208,0-1.964,0.473-1.964,1.229c0,0.452,0.305,0.84,0.819,1.061c0.367,0.147,0.893,0.231,1.459,0.231
		c0.399,0,0.641-0.021,0.914-0.073c0.052-0.011,0.094-0.021,0.126-0.021c0.273,0,0.651,0.336,0.651,0.567
		c0,0.263-0.179,0.326-0.914,0.326c-0.788,0-1.512-0.095-2.058-0.284c-0.945-0.315-1.501-0.956-1.501-1.711
		c0-1.05,1.04-1.68,2.762-1.68c0.704,0,1.491,0.105,2.058,0.273c-0.231-0.724-0.672-1.512-1.26-2.331
		c-0.756,0.231-1.438,0.347-2.131,0.347c-0.798,0-1.396-0.284-1.932-0.924l0.116-0.105c0.567,0.42,1.019,0.577,1.68,0.577
		c0.557,0,1.239-0.115,1.943-0.325c-0.441-0.578-1.04-1.134-1.46-1.365c-0.325-0.178-0.399-0.262-0.399-0.409
		c0-0.242,0.263-0.389,0.714-0.389c0.378,0,0.756,0.063,1.229,0.221l-0.053,0.157c-0.242-0.031-0.399-0.042-0.473-0.042
		c-0.22,0-0.325,0.042-0.325,0.116c0,0.052,0.105,0.189,0.43,0.556c0.116,0.137,0.389,0.473,0.809,1.008
		c0.137-0.063,0.137-0.063,0.662-0.273c0.242-0.105,0.441-0.2,0.767-0.389c-0.273-0.221-0.284-0.231-0.851-0.609L74.437,85.638z"/>
	<path d="M91.849,88.977c-0.767,1.764-0.987,2.384-0.987,2.804c0,0.084,0,0.084,0.063,0.357c0.01,0.053,0.021,0.116,0.021,0.168
		c0,0.147-0.105,0.263-0.231,0.263c-0.294,0-0.83-0.41-1.155-0.893c-0.357-0.515-0.609-1.26-0.714-2.1
		c-0.063-0.462-0.073-0.725-0.073-1.848c-0.011-0.976-0.084-1.218-0.536-1.806c0.031,0,0.052,0,0.094,0
		c0.168,0,0.473,0.199,0.788,0.514c0.315,0.305,0.473,0.588,0.473,0.83c0,0.063-0.011,0.147-0.032,0.273
		c-0.126,0.641-0.189,1.134-0.189,1.564c0,0.567,0.084,1.092,0.242,1.523c0.158,0.43,0.284,0.619,0.546,0.819
		c0.116-0.168,0.116-0.168,0.347-0.557c0.336-0.567,0.336-0.567,0.882-1.48c0.168-0.273,0.168-0.273,0.305-0.504L91.849,88.977z
		 M94.086,87.076c1.323,0.294,2.373,1.69,2.373,3.14c0,0.504-0.21,0.83-0.525,0.83c-0.105,0-0.168-0.021-0.315-0.116
		c-0.136-0.094-0.336-0.126-0.788-0.126c-0.241,0-0.441,0-0.798,0.021l-0.031-0.157c0.85-0.231,1.323-0.368,1.417-0.399
		c0.21-0.073,0.241-0.115,0.241-0.315c0-0.388-0.147-0.998-0.325-1.375c-0.284-0.609-0.704-1.05-1.302-1.375L94.086,87.076z"/>
</g>
<rect x="0.25" y="10.75" fill="none" stroke="#008CD6" stroke-width="0.5" width="126.003" height="21"/>
<line fill="none" stroke="#008CD6" stroke-width="0.5" x1="21.25" y1="31.75" x2="21.25" y2="10.75"/>
<line fill="none" stroke="#008CD6" stroke-width="0.5" x1="24.75" y1="31.75" x2="24.75" y2="10.75"/>
<line fill="none" stroke="#008CD6" stroke-width="0.5" x1="45.75" y1="31.75" x2="45.75" y2="10.75"/>
<line fill="none" stroke="#008CD6" stroke-width="0.5" x1="52.749" y1="31.75" x2="52.749" y2="10.75"/>
<line fill="none" stroke="#008CD6" stroke-width="0.5" x1="73.749" y1="31.75" x2="73.749" y2="10.75"/>
<line fill="none" stroke="#008CD6" stroke-width="0.5" x1="80.748" y1="31.75" x2="80.748" y2="10.75"/>
<line fill="none" stroke="#008CD6" stroke-width="0.5" x1="101.748" y1="31.75" x2="101.748" y2="10.75"/>
<line fill="none" stroke="#008CD6" stroke-width="0.5" x1="105.247" y1="31.75" x2="105.247" y2="10.75"/>
<g>
	<polyline fill="none" stroke="#008CD6" stroke-width="0.5" points="21.263,10.75 21.263,0.25 105.247,0.25 105.247,10.75 	"/>
	<line fill="none" stroke="#008CD6" stroke-width="0.5" x1="31.763" y1="10.75" x2="31.763" y2="0.25"/>
	<line fill="none" stroke="#008CD6" stroke-width="0.5" x1="42.263" y1="10.75" x2="42.263" y2="0.25"/>
	<line fill="none" stroke="#008CD6" stroke-width="0.5" x1="52.762" y1="10.75" x2="52.762" y2="0.25"/>
	<line fill="none" stroke="#008CD6" stroke-width="0.5" x1="63.262" y1="10.75" x2="63.262" y2="0.25"/>
	<line fill="none" stroke="#008CD6" stroke-width="0.5" x1="73.762" y1="10.75" x2="73.762" y2="0.25"/>
	<line fill="none" stroke="#008CD6" stroke-width="0.5" x1="84.262" y1="10.75" x2="84.262" y2="0.25"/>
	<line fill="none" stroke="#008CD6" stroke-width="0.5" x1="94.762" y1="10.75" x2="94.762" y2="0.25"/>
</g>
<g>
	<polyline fill="none" stroke="#008CD6" stroke-width="0.5" points="39.656,31.875 39.656,42.375 29.155,42.375 29.155,31.875 	"/>
</g>
<g>
	<polyline fill="none" stroke="#008CD6" stroke-width="0.5" points="58.85,31.875 58.85,42.375 48.348,42.375 48.348,31.875 	"/>
</g>
<g>
	<polyline fill="none" stroke="#008CD6" stroke-width="0.5" points="78.043,31.875 78.043,42.375 67.541,42.375 67.541,31.875 	"/>
</g>
<g>
	<polyline fill="none" stroke="#008CD6" stroke-width="0.5" points="97.236,31.875 97.236,42.375 86.735,42.375 86.735,31.875 	"/>
</g>
</svg>
