<?xml version="1.0" encoding="utf-8"?>
<!-- Generator: Adobe Illustrator 12.0.0, SVG Export Plug-In . SVG Version: 6.00 Build 51448)  -->
<!DOCTYPE svg PUBLIC "-//W3C//DTD SVG 1.1//EN" "http://www.w3.org/Graphics/SVG/1.1/DTD/svg11.dtd" [
	<!ENTITY ns_svg "http://www.w3.org/2000/svg">
	<!ENTITY ns_xlink "http://www.w3.org/1999/xlink">
]>
<svg  version="1.1" id="レイヤー_1" xmlns="&ns_svg;" xmlns:xlink="&ns_xlink;" width="140.5" height="126.732"
	 viewBox="0 0 70.25 63.366" overflow="visible" enable-background="new 0 0 70.25 63.366" xml:space="preserve">
<g>
	<path d="M24.771,1.52c0.729,0.35,1.016,0.637,1.016,1.015c0,0.168-0.077,0.266-0.21,0.266c-0.042,0-0.057-0.007-0.218-0.07
		c-0.188-0.07-0.455-0.126-0.763-0.161c-0.476-0.056-0.924-0.091-1.085-0.091s-0.266,0.077-0.266,0.196
		c0,0.098,0.146,0.448,0.462,1.092c0.385-0.21,0.826-0.413,1.225-0.567c0.511-0.196,0.917-0.28,1.344-0.28
		c0.848,0,1.449,0.455,1.449,1.106c0,0.273-0.14,0.588-0.356,0.798c-0.252,0.245-0.638,0.378-1.113,0.378
		c-0.567,0-1.155-0.196-1.589-0.525l0.049-0.105c0.364,0.182,0.819,0.294,1.225,0.294c0.47,0,0.841-0.133,1.051-0.378
		c0.146-0.168,0.224-0.378,0.224-0.602c0-0.483-0.364-0.756-1.008-0.756c-0.378,0-0.722,0.098-1.323,0.385
		c-0.329,0.161-0.651,0.336-1.036,0.567c0.336,0.679,0.546,1.148,0.784,1.743c0.272,0.693,0.343,0.917,0.343,1.148
		c0,0.301-0.133,0.525-0.322,0.525c-0.034,0-0.076-0.028-0.111-0.07c-0.042-0.049-0.063-0.119-0.091-0.308
		c-0.134-0.875-0.42-1.827-0.868-2.884c-0.399,0.266-0.638,0.434-0.722,0.49c-0.104,0.077-0.133,0.098-0.188,0.14
		c-0.091,0.077-0.154,0.105-0.245,0.105c-0.308,0-0.742-0.448-0.742-0.763c0-0.028,0.007-0.063,0.028-0.119
		c0.161,0.238,0.329,0.364,0.49,0.364c0.195,0,0.615-0.189,1.225-0.539c-0.175-0.392-0.343-0.686-0.483-0.861
		c-0.126-0.168-0.146-0.21-0.146-0.301c0-0.231,0.272-0.476,0.525-0.476c0.084,0,0.091,0,0.217,0.035
		c0.042,0.014,0.084,0.014,0.182,0.021c0.028,0,0.245,0,0.561,0.007c0.175,0.007,0.314,0.007,0.524,0.007
		c0.406,0,0.462-0.014,0.462-0.091c0-0.14-0.245-0.413-0.566-0.644L24.771,1.52z"/>
	<path d="M48.13,5.902c-0.672,0.91-1.589,1.449-2.457,1.449c-0.532,0-0.945-0.217-1.162-0.595c-0.14-0.245-0.196-0.588-0.196-1.183
		c0-0.385,0.021-1.05,0.057-1.687c0.042-0.756,0.049-0.952,0.049-1.204c0-0.602-0.07-0.721-0.567-0.931
		c0.077-0.056,0.119-0.07,0.196-0.07c0.161,0,0.413,0.063,0.63,0.161c0.266,0.126,0.406,0.266,0.406,0.413
		c0,0.049-0.007,0.091-0.063,0.252c-0.133,0.42-0.363,2.541-0.363,3.36c0,0.427,0.084,0.679,0.279,0.84
		c0.154,0.119,0.378,0.189,0.623,0.189c0.477,0,1.064-0.168,1.597-0.448c0.321-0.168,0.524-0.315,0.889-0.623L48.13,5.902z"/>
	<path d="M7.145,20.042c1.513-0.448,2.479-1.022,3.276-1.946c0.826-0.938,1.246-2.086,1.246-3.374c0-1.358-0.546-2.436-1.582-3.094
		c-0.616-0.406-1.54-0.644-2.422-0.644c-0.168,0-0.267,0-0.49,0.028c0.336,0.49,0.434,0.756,0.434,1.162
		c0,1.092-0.783,3.136-1.848,4.844c-0.882,1.4-1.568,2.086-2.086,2.086c-0.238,0-0.462-0.112-0.616-0.294
		c-0.126-0.168-0.154-0.224-0.392-0.896c-0.126-0.364-0.21-0.532-0.616-1.316c-0.224-0.448-0.322-0.826-0.322-1.274
		c0-0.882,0.477-1.918,1.261-2.772c1.134-1.204,2.981-1.96,4.815-1.96c1.414,0,2.716,0.462,3.612,1.288
		c0.896,0.826,1.344,1.932,1.344,3.29c0,1.75-1.022,3.304-2.786,4.242c-0.812,0.434-1.54,0.658-2.729,0.868L7.145,20.042z
		 M2.539,15.688c0,0.672,0.21,1.358,0.56,1.848c0.196,0.252,0.378,0.406,0.532,0.406c0.308,0,0.979-0.756,1.666-1.848
		c1.036-1.652,1.778-3.458,1.778-4.326c0-0.21-0.042-0.35-0.196-0.7C4.442,11.502,2.539,13.532,2.539,15.688z"/>
	<path d="M21.564,11.937H25.4c0.378-0.462,0.49-0.602,0.868-1.022c0.603,0.462,0.784,0.602,1.358,1.092
		c0.069,0.07,0.098,0.112,0.098,0.154c0,0.056-0.07,0.098-0.154,0.098h-5.768c0.7,0.644,1.036,0.924,1.568,1.246
		c0.644,0.406,1.609,0.826,2.534,1.106c0.56,0.182,1.035,0.28,2.044,0.42v0.168c-0.603,0.154-0.841,0.378-1.064,0.966
		c-1.484-0.532-2.254-0.952-3.332-1.806c-0.686-0.532-1.162-1.008-1.988-1.946v1.204c0,0.462,0,0.588,0.028,1.568
		c0,0.112-0.042,0.154-0.126,0.182c-0.084,0.028-0.406,0.07-0.616,0.07c-0.153,0-0.224-0.056-0.224-0.182
		c0.014-0.588,0.014-0.588,0.028-1.61l0.014-0.812c-1.134,1.134-1.806,1.666-3.08,2.464c-1.232,0.77-1.778,1.022-2.786,1.33
		l-0.084-0.154c1.456-0.714,2.366-1.344,3.444-2.338c0.615-0.574,0.756-0.728,1.75-1.876h-3.822c-0.252,0-0.56,0.042-0.798,0.098
		l-0.126-0.56c0.308,0.098,0.616,0.14,0.952,0.14h4.536v-1.442c-1.303,0.126-2.618,0.21-3.402,0.21
		c-0.322,0-0.672-0.014-1.316-0.056v-0.182c1.387-0.07,3.402-0.336,5.026-0.644c0.966-0.196,2.282-0.518,3.052-0.77
		c0.28-0.098,0.448-0.168,0.84-0.35c0.98,0.658,1.232,0.868,1.232,1.008c0,0.07-0.084,0.126-0.182,0.126
		c-0.099,0-0.351-0.07-0.589-0.14c-1.638,0.392-2.323,0.518-3.752,0.7V11.937z M23.86,15.968c0.267-0.294,0.267-0.294,0.505-0.546
		c0.405,0.28,0.518,0.364,0.882,0.644c0.084,0.07,0.126,0.112,0.126,0.168c0,0.098-0.099,0.168-0.406,0.308v2.268
		c0,1.05,0,1.456,0.042,2.324c0,0.21-0.154,0.266-0.77,0.266c-0.141,0-0.196-0.042-0.211-0.14v-0.588h-5.46v0.49
		c0,0.112-0.027,0.154-0.14,0.196c-0.07,0.014-0.378,0.056-0.546,0.056c-0.196,0-0.28-0.056-0.28-0.196
		c0.042-1.218,0.057-2.548,0.057-3.906c0-0.77,0-1.022-0.042-1.89c0.489,0.224,0.644,0.294,1.147,0.546H23.86z M24.028,16.29h-5.46
		v1.708h5.46V16.29z M18.568,18.32v2.03h5.46v-2.03H18.568z"/>
	<path d="M28.929,21.26c1.078-0.518,1.75-0.952,2.758-1.722c0.729-0.574,0.924-0.756,1.177-1.12
		c1.231,0.546,1.441,0.658,1.441,0.812c0,0.084-0.098,0.154-0.238,0.154c-0.056,0-0.279-0.028-0.504-0.056
		c-1.903,1.218-2.212,1.358-4.55,2.114L28.929,21.26z M28.999,17.578c0.308,0.07,0.588,0.112,0.868,0.112h9.729
		c0.378-0.462,0.49-0.588,0.868-0.994c0.616,0.462,0.798,0.602,1.344,1.078c0.057,0.056,0.112,0.126,0.112,0.154
		c0,0.042-0.042,0.084-0.098,0.084H29.867c-0.42,0.028-0.673,0.056-0.771,0.07L28.999,17.578z M32.499,16.766
		c0,0.168-0.099,0.21-0.519,0.224c-0.111,0-0.195,0-0.237,0.014c-0.015,0-0.028,0-0.028,0c-0.14,0-0.21-0.07-0.21-0.196
		c0,0,0-0.028,0-0.042c0.056-3.206,0.056-3.206,0.056-3.92c0-1.12,0-1.12-0.056-3.906c0.504,0.252,0.658,0.336,1.105,0.658h5.208
		c0.225-0.294,0.294-0.392,0.547-0.658c0.363,0.266,0.476,0.35,0.812,0.602c0.112,0.098,0.182,0.182,0.182,0.238
		c0,0.098-0.126,0.196-0.489,0.392c0,2.436,0.027,5.236,0.069,6.496c0,0.014,0,0.042,0,0.042c0,0.154-0.111,0.21-0.518,0.224
		c-0.14,0-0.238,0.014-0.28,0.014c-0.014,0-0.028,0-0.042,0c-0.112,0-0.168-0.042-0.168-0.126c0-0.014,0-0.028,0-0.056v-0.448
		h-5.432V16.766z M37.931,9.92h-5.432v1.764h5.432V9.92z M32.499,12.006v1.764h5.432v-1.764H32.499z M32.499,14.078v1.918h5.432
		v-1.918H32.499z M36.489,18.446c1.344,0.364,2.38,0.756,3.275,1.218c0.561,0.308,0.714,0.532,0.714,1.064
		c0,0.336-0.111,0.574-0.279,0.574c-0.154,0-0.337-0.126-0.687-0.476c-0.812-0.798-1.778-1.484-3.107-2.212L36.489,18.446z"/>
	<path d="M46.821,10.914c0.195-0.238,0.266-0.322,0.489-0.56c0.364,0.266,0.462,0.35,0.771,0.602
		c0.069,0.084,0.098,0.126,0.098,0.168c0,0.07-0.056,0.126-0.378,0.35v1.246l0.014,1.442c0,0.042,0,0.154,0,0.336
		c-0.014,0.182-0.084,0.224-0.476,0.224c-0.098,0-0.182,0-0.238,0.014c-0.014,0-0.027,0-0.027,0c-0.126,0-0.168-0.042-0.168-0.154
		v-0.448h-2.45v2.128h2.338c0.238-0.252,0.322-0.336,0.574-0.602c0.35,0.28,0.447,0.364,0.756,0.602
		c0.084,0.084,0.098,0.112,0.098,0.14s-0.028,0.098-0.07,0.126c0,0.014-0.126,0.098-0.35,0.28v1.372c0,0.84,0,0.994,0.028,2.38
		c0,0.014,0,0.042,0,0.056c0,0.14-0.126,0.21-0.448,0.21c-0.126,0-0.224,0.014-0.252,0.014c-0.014,0-0.028,0-0.042,0
		c-0.126,0-0.182-0.042-0.182-0.126c0-0.014,0-0.028,0-0.028v-0.742h-2.45v0.98c-0.015,0.154-0.084,0.182-0.477,0.196
		c-0.084,0.014-0.14,0.014-0.195,0.014c-0.015,0-0.042,0-0.042,0c-0.154,0-0.21-0.028-0.225-0.154
		c0.015-1.414,0.028-4.158,0.028-8.918c0-0.266-0.014-0.742-0.028-1.82c0.462,0.28,0.603,0.364,1.064,0.672h0.406
		c0.084-0.336,0.084-0.336,0.126-0.49c0.279-1.064,0.321-1.302,0.378-1.89c1.344,0.322,1.596,0.406,1.596,0.546
		c0,0.126-0.042,0.14-0.63,0.322c-0.252,0.364-0.267,0.392-0.813,1.078c-0.084,0.112-0.084,0.112-0.336,0.434H46.821z
		 M46.905,13.813v-2.576h-2.45v2.576H46.905z M44.455,19.622h2.45v-3.038h-2.45V19.622z M52.267,12.398h1.61
		c0.252-0.266,0.336-0.35,0.602-0.63c0.406,0.308,0.546,0.406,0.826,0.644c0.084,0.084,0.112,0.126,0.112,0.168
		c0,0.112-0.141,0.238-0.448,0.434v3.472c0,0.112,0,0.392,0.028,1.974c0,0.518-0.084,0.714-0.406,0.91
		c-0.266,0.168-0.518,0.252-0.994,0.336c-0.056-0.63-0.266-0.826-1.147-1.05V18.46c0.224,0.014,0.224,0.014,0.825,0.056
		c0.351,0.028,0.351,0.028,0.532,0.028c0.183,0,0.225-0.042,0.225-0.168V12.72h-1.765v2.842c0,1.414,0.015,3.794,0.042,5.558
		c0,0.014,0,0.042,0,0.042c0,0.168-0.111,0.224-0.504,0.238c-0.126,0-0.21,0-0.266,0.014c-0.015,0-0.028,0-0.042,0
		c-0.112,0-0.154-0.028-0.168-0.126c0-0.882,0-0.882,0.014-2.394c0.028-1.652,0.028-2.002,0.028-3.276V12.72h-1.54v2.744
		l0.042,3.962c-0.015,0.098-0.042,0.14-0.141,0.154c-0.056,0.014-0.447,0.042-0.63,0.042c-0.153,0-0.21-0.042-0.21-0.14
		c0,0,0-0.028,0-0.042c0.057-3.542,0.057-3.598,0.057-4.172c0-0.868-0.015-1.47-0.042-2.842c-0.015-0.336-0.015-0.336-0.015-0.644
		c0.448,0.252,0.574,0.336,1.022,0.616h1.456v-2.338h-2.101c-0.363,0-0.518,0.014-0.826,0.098l-0.14-0.546
		c0.309,0.084,0.658,0.126,0.952,0.126h4.354c0.351-0.434,0.463-0.574,0.841-0.98c0.573,0.448,0.741,0.588,1.231,1.036
		c0.057,0.07,0.099,0.14,0.099,0.168c0,0.056-0.057,0.098-0.169,0.098h-3.346V12.398z"/>
	<path d="M58.44,11.096c0.673,0.532,0.994,0.658,1.75,0.658c0.448,0,0.854-0.056,1.498-0.182c0.309-0.602,0.49-1.12,0.49-1.428
		c0-0.378-0.266-0.602-0.994-0.784c0.238-0.126,0.364-0.154,0.63-0.154c0.322,0,0.729,0.084,1.093,0.238
		c0.35,0.14,0.504,0.294,0.504,0.462c0,0.098-0.057,0.196-0.225,0.406c-0.126,0.168-0.294,0.42-0.405,0.574
		c-0.253,0.406-0.253,0.406-0.351,0.546c1.176-0.336,1.554-0.504,2.017-0.896c0.084-0.07,0.168-0.098,0.266-0.098
		c0.546,0,0.938,0.196,0.938,0.462c0,0.168-0.182,0.308-0.602,0.448c-1.246,0.406-1.918,0.574-3.052,0.798
		c-0.252,0.35-0.42,0.602-0.742,1.092c-0.378,0.588-0.49,0.742-0.756,1.12c0.784-0.406,1.273-0.56,1.806-0.56
		c0.826,0,1.442,0.56,1.568,1.4c0.237-0.112,0.237-0.112,1.372-0.686c1.386-0.7,1.722-0.924,1.722-1.176
		c0-0.238-0.238-0.49-0.644-0.658c0.153-0.07,0.224-0.084,0.321-0.084c0.616,0,1.582,0.854,1.582,1.414
		c0,0.252-0.111,0.35-0.504,0.434c-0.84,0.196-2.66,0.896-3.752,1.442c0.014,0.448,0.014,0.532,0.014,1.134
		c0,0.63-0.042,1.064-0.111,1.204c-0.07,0.154-0.225,0.266-0.393,0.266c-0.266,0-0.447-0.182-0.447-0.42c0-0.07,0-0.14,0.014-0.238
		c0.056-0.406,0.084-0.882,0.098-1.498c-0.868,0.476-1.273,0.756-1.638,1.106c-0.462,0.448-0.686,0.882-0.686,1.302
		c0,0.756,0.77,1.12,2.338,1.12c0.979,0,1.96-0.14,2.813-0.392c0.098-0.028,0.196-0.042,0.267-0.042c0.434,0,0.979,0.392,0.979,0.7
		c0,0.182-0.154,0.322-0.434,0.378c-0.574,0.112-1.639,0.196-2.507,0.196c-1.315,0-2.281-0.14-2.842-0.406
		c-0.714-0.336-1.036-0.798-1.036-1.484c0-0.658,0.322-1.26,1.009-1.918c0.363-0.35,0.812-0.672,1.735-1.246
		c-0.014-0.588-0.056-0.812-0.195-1.106c-0.126-0.252-0.406-0.42-0.715-0.42c-0.924,0-2.029,0.742-3.037,2.03
		c-0.267,0.364-0.379,0.448-0.519,0.448c-0.224,0-0.378-0.294-0.378-0.742c0-0.294,0.014-0.308,0.406-0.63
		c0.994-0.784,1.609-1.512,2.604-3.01c-0.462,0.07-0.644,0.084-0.938,0.084c-0.952,0-1.442-0.252-2.086-1.078L58.44,11.096z"/>
	<path d="M17.743,25.929c-0.015,0.154-0.021,0.217-0.021,0.315c0,0.833,0.525,1.225,1.652,1.225c0.553,0,1.134-0.098,1.547-0.252
		c0.042-0.021,0.084-0.028,0.119-0.028c0.104,0,0.266,0.063,0.385,0.14c0.098,0.077,0.154,0.161,0.154,0.245
		c0,0.105-0.077,0.182-0.225,0.217c-0.321,0.084-1.008,0.14-1.631,0.14c-0.784,0-1.281-0.098-1.631-0.336
		c-0.35-0.224-0.581-0.665-0.581-1.106c0-0.168,0.035-0.357,0.112-0.588L17.743,25.929z M17.96,23.164
		c0.356,0.238,0.602,0.308,1.071,0.308c0.462,0,1.05-0.084,1.456-0.21c0.049-0.014,0.104-0.028,0.126-0.028
		c0.182,0,0.42,0.21,0.42,0.364c0,0.119-0.042,0.14-0.512,0.245c-0.272,0.056-0.336,0.084-1.021,0.343
		c-0.168,0.063-0.168,0.063-0.574,0.238c-0.14,0.056-0.14,0.063-0.273,0.112l-0.049-0.105c0.218-0.126,0.329-0.196,0.512-0.294
		c0.476-0.259,0.476-0.259,0.588-0.329c-0.154,0.014-0.399,0.021-0.525,0.021c-0.259,0-0.581-0.077-0.798-0.189
		c-0.182-0.098-0.294-0.196-0.49-0.406L17.96,23.164z"/>
	<path d="M29.538,28.638c0.413-0.336,0.686-0.623,0.924-1.008c0.364-0.595,0.595-1.407,0.595-2.128c0-0.693-0.252-1.12-0.665-1.12
		c-0.371,0-0.86,0.301-1.344,0.826c-0.133,0.133-0.175,0.161-0.287,0.161c-0.146,0-0.314-0.112-0.462-0.315
		c-0.119-0.161-0.189-0.343-0.189-0.469c0-0.091,0.028-0.154,0.112-0.259c0.063,0.308,0.203,0.483,0.385,0.483
		c0.099,0,0.28-0.077,0.645-0.273c0.595-0.322,0.826-0.399,1.183-0.399c0.322,0,0.665,0.182,0.868,0.469
		c0.168,0.245,0.266,0.609,0.266,1.029c0,0.826-0.314,1.645-0.867,2.261c-0.344,0.378-0.7,0.644-1.1,0.819L29.538,28.638z
		 M29.152,22.275c0.344,0.287,0.819,0.448,1.31,0.448h0.161c0.14,0,0.237,0.049,0.378,0.168c0.098,0.084,0.146,0.168,0.146,0.238
		c0,0.098-0.098,0.154-0.287,0.154c-0.294,0.007-0.294,0.007-1.742,0.427l-0.035-0.098c0.524-0.238,1.008-0.455,1.183-0.518
		c-0.574-0.119-0.917-0.336-1.183-0.763L29.152,22.275z"/>
	<path d="M40.185,22.597c0.196,0,0.581,0.182,0.777,0.371c0.112,0.105,0.154,0.175,0.154,0.273s-0.035,0.14-0.406,0.441
		c-0.378,0.315-1.064,0.959-1.288,1.211c-0.245,0.273-0.336,0.427-0.336,0.567c0,0.098,0.07,0.217,0.21,0.357
		c0.098,0.105,0.098,0.105,0.49,0.469c0.763,0.7,1.12,1.092,1.288,1.428c0.076,0.14,0.104,0.266,0.104,0.455
		c0,0.266-0.091,0.42-0.238,0.42c-0.091,0-0.118-0.035-0.237-0.287c-0.126-0.273-0.344-0.644-0.588-0.987
		c-0.26-0.371-0.294-0.413-1.022-1.267c-0.188-0.231-0.266-0.399-0.266-0.588c0-0.224,0.111-0.413,0.539-0.938
		c0.847-1.022,1.057-1.323,1.057-1.491c0-0.119-0.091-0.217-0.385-0.413C40.087,22.604,40.122,22.597,40.185,22.597z M41.662,22.954
		c0.301,0.126,0.531,0.259,0.749,0.434c0.203,0.161,0.287,0.294,0.287,0.462c0,0.196-0.07,0.343-0.168,0.343
		c-0.057,0-0.099-0.042-0.161-0.161c-0.154-0.315-0.504-0.77-0.756-1.001L41.662,22.954z M42.285,22.506
		c0.434,0.161,0.707,0.294,0.875,0.434c0.146,0.119,0.188,0.196,0.188,0.357c0,0.189-0.063,0.315-0.154,0.315
		c-0.049,0-0.098-0.042-0.153-0.126c-0.225-0.322-0.238-0.336-0.448-0.56c-0.161-0.161-0.238-0.231-0.364-0.336L42.285,22.506z"/>
	<path d="M53.38,26.902c-0.672,0.91-1.589,1.449-2.457,1.449c-0.532,0-0.945-0.217-1.162-0.595c-0.14-0.245-0.196-0.588-0.196-1.183
		c0-0.385,0.021-1.05,0.057-1.687c0.042-0.756,0.049-0.952,0.049-1.204c0-0.602-0.07-0.721-0.567-0.931
		c0.077-0.056,0.119-0.07,0.196-0.07c0.161,0,0.413,0.063,0.63,0.161c0.266,0.126,0.406,0.266,0.406,0.413
		c0,0.049-0.007,0.091-0.063,0.252c-0.133,0.42-0.363,2.541-0.363,3.36c0,0.427,0.084,0.679,0.279,0.84
		c0.154,0.119,0.378,0.189,0.623,0.189c0.477,0,1.064-0.168,1.597-0.448c0.321-0.168,0.524-0.315,0.889-0.623L53.38,26.902z"/>
</g>
<g>
	<path d="M24.771,36.17c0.729,0.35,1.016,0.637,1.016,1.015c0,0.168-0.077,0.266-0.21,0.266c-0.042,0-0.057-0.007-0.218-0.07
		c-0.188-0.07-0.455-0.126-0.763-0.161c-0.476-0.056-0.924-0.091-1.085-0.091s-0.266,0.077-0.266,0.196
		c0,0.098,0.146,0.448,0.462,1.092c0.385-0.21,0.826-0.413,1.225-0.567c0.511-0.196,0.917-0.28,1.344-0.28
		c0.848,0,1.449,0.455,1.449,1.106c0,0.273-0.14,0.588-0.356,0.798c-0.252,0.245-0.638,0.378-1.113,0.378
		c-0.567,0-1.155-0.196-1.589-0.525l0.049-0.105c0.364,0.182,0.819,0.294,1.225,0.294c0.47,0,0.841-0.133,1.051-0.378
		c0.146-0.168,0.224-0.378,0.224-0.602c0-0.483-0.364-0.756-1.008-0.756c-0.378,0-0.722,0.098-1.323,0.385
		c-0.329,0.161-0.651,0.336-1.036,0.567c0.336,0.679,0.546,1.148,0.784,1.743c0.272,0.693,0.343,0.917,0.343,1.148
		c0,0.301-0.133,0.525-0.322,0.525c-0.034,0-0.076-0.028-0.111-0.07c-0.042-0.049-0.063-0.119-0.091-0.308
		c-0.134-0.875-0.42-1.827-0.868-2.884c-0.399,0.266-0.638,0.434-0.722,0.49c-0.104,0.077-0.133,0.098-0.188,0.14
		c-0.091,0.077-0.154,0.105-0.245,0.105c-0.308,0-0.742-0.448-0.742-0.763c0-0.028,0.007-0.063,0.028-0.119
		c0.161,0.238,0.329,0.364,0.49,0.364c0.195,0,0.615-0.189,1.225-0.539c-0.175-0.392-0.343-0.686-0.483-0.861
		c-0.126-0.168-0.146-0.21-0.146-0.301c0-0.231,0.272-0.476,0.525-0.476c0.084,0,0.091,0,0.217,0.035
		c0.042,0.014,0.084,0.014,0.182,0.021c0.028,0,0.245,0,0.561,0.007c0.175,0.007,0.314,0.007,0.524,0.007
		c0.406,0,0.462-0.014,0.462-0.091c0-0.14-0.245-0.413-0.566-0.644L24.771,36.17z"/>
	<path d="M48.13,40.553c-0.672,0.91-1.589,1.449-2.457,1.449c-0.532,0-0.945-0.217-1.162-0.595c-0.14-0.245-0.196-0.588-0.196-1.183
		c0-0.385,0.021-1.05,0.057-1.687c0.042-0.756,0.049-0.952,0.049-1.204c0-0.602-0.07-0.721-0.567-0.931
		c0.077-0.056,0.119-0.07,0.196-0.07c0.161,0,0.413,0.063,0.63,0.161c0.266,0.126,0.406,0.266,0.406,0.413
		c0,0.049-0.007,0.091-0.063,0.252c-0.133,0.42-0.363,2.541-0.363,3.36c0,0.427,0.084,0.679,0.279,0.84
		c0.154,0.119,0.378,0.189,0.623,0.189c0.477,0,1.064-0.168,1.597-0.448c0.321-0.168,0.524-0.315,0.889-0.623L48.13,40.553z"/>
	<path d="M7.145,54.693c1.513-0.448,2.479-1.022,3.276-1.946c0.826-0.938,1.246-2.086,1.246-3.374c0-1.358-0.546-2.436-1.582-3.094
		c-0.616-0.406-1.54-0.644-2.422-0.644c-0.168,0-0.267,0-0.49,0.028c0.336,0.49,0.434,0.756,0.434,1.162
		c0,1.092-0.783,3.136-1.848,4.844c-0.882,1.4-1.568,2.086-2.086,2.086c-0.238,0-0.462-0.112-0.616-0.294
		c-0.126-0.168-0.154-0.224-0.392-0.896c-0.126-0.364-0.21-0.532-0.616-1.316c-0.224-0.448-0.322-0.826-0.322-1.274
		c0-0.882,0.477-1.918,1.261-2.772c1.134-1.204,2.981-1.96,4.815-1.96c1.414,0,2.716,0.462,3.612,1.288
		c0.896,0.826,1.344,1.932,1.344,3.29c0,1.75-1.022,3.304-2.786,4.242c-0.812,0.434-1.54,0.658-2.729,0.868L7.145,54.693z
		 M2.539,50.339c0,0.672,0.21,1.358,0.56,1.848c0.196,0.252,0.378,0.406,0.532,0.406c0.308,0,0.979-0.756,1.666-1.848
		c1.036-1.652,1.778-3.458,1.778-4.326c0-0.21-0.042-0.35-0.196-0.7C4.442,46.153,2.539,48.183,2.539,50.339z"/>
	<path d="M21.564,46.587H25.4c0.378-0.462,0.49-0.602,0.868-1.022c0.603,0.462,0.784,0.602,1.358,1.092
		c0.069,0.07,0.098,0.112,0.098,0.154c0,0.056-0.07,0.098-0.154,0.098h-5.768c0.7,0.644,1.036,0.924,1.568,1.246
		c0.644,0.406,1.609,0.826,2.534,1.106c0.56,0.182,1.035,0.28,2.044,0.42v0.168c-0.603,0.154-0.841,0.378-1.064,0.966
		c-1.484-0.532-2.254-0.952-3.332-1.806c-0.686-0.532-1.162-1.008-1.988-1.946v1.204c0,0.462,0,0.588,0.028,1.568
		c0,0.112-0.042,0.154-0.126,0.182c-0.084,0.028-0.406,0.07-0.616,0.07c-0.153,0-0.224-0.056-0.224-0.182
		c0.014-0.588,0.014-0.588,0.028-1.61l0.014-0.812c-1.134,1.134-1.806,1.666-3.08,2.464c-1.232,0.77-1.778,1.022-2.786,1.33
		l-0.084-0.154c1.456-0.714,2.366-1.344,3.444-2.338c0.615-0.574,0.756-0.728,1.75-1.876h-3.822c-0.252,0-0.56,0.042-0.798,0.098
		l-0.126-0.56c0.308,0.098,0.616,0.14,0.952,0.14h4.536v-1.442c-1.303,0.126-2.618,0.21-3.402,0.21
		c-0.322,0-0.672-0.014-1.316-0.056v-0.182c1.387-0.07,3.402-0.336,5.026-0.644c0.966-0.196,2.282-0.518,3.052-0.77
		c0.28-0.098,0.448-0.168,0.84-0.35c0.98,0.658,1.232,0.868,1.232,1.008c0,0.07-0.084,0.126-0.182,0.126
		c-0.099,0-0.351-0.07-0.589-0.14c-1.638,0.392-2.323,0.518-3.752,0.7V46.587z M23.86,50.619c0.267-0.294,0.267-0.294,0.505-0.546
		c0.405,0.28,0.518,0.364,0.882,0.644c0.084,0.07,0.126,0.112,0.126,0.168c0,0.098-0.099,0.168-0.406,0.308v2.268
		c0,1.05,0,1.456,0.042,2.324c0,0.21-0.154,0.266-0.77,0.266c-0.141,0-0.196-0.042-0.211-0.14v-0.588h-5.46v0.49
		c0,0.112-0.027,0.154-0.14,0.196c-0.07,0.014-0.378,0.056-0.546,0.056c-0.196,0-0.28-0.056-0.28-0.196
		c0.042-1.218,0.057-2.548,0.057-3.906c0-0.77,0-1.022-0.042-1.89c0.489,0.224,0.644,0.294,1.147,0.546H23.86z M24.028,50.94h-5.46
		v1.708h5.46V50.94z M18.568,52.971V55h5.46v-2.03H18.568z"/>
	<path d="M28.929,55.911c1.078-0.518,1.75-0.952,2.758-1.722c0.729-0.574,0.924-0.756,1.177-1.12
		c1.231,0.546,1.441,0.658,1.441,0.812c0,0.084-0.098,0.154-0.238,0.154c-0.056,0-0.279-0.028-0.504-0.056
		c-1.903,1.218-2.212,1.358-4.55,2.114L28.929,55.911z M28.999,52.229c0.308,0.07,0.588,0.112,0.868,0.112h9.729
		c0.378-0.462,0.49-0.588,0.868-0.994c0.616,0.462,0.798,0.602,1.344,1.078c0.057,0.056,0.112,0.126,0.112,0.154
		c0,0.042-0.042,0.084-0.098,0.084H29.867c-0.42,0.028-0.673,0.056-0.771,0.07L28.999,52.229z M32.499,51.417
		c0,0.168-0.099,0.21-0.519,0.224c-0.111,0-0.195,0-0.237,0.014c-0.015,0-0.028,0-0.028,0c-0.14,0-0.21-0.07-0.21-0.196
		c0,0,0-0.028,0-0.042c0.056-3.206,0.056-3.206,0.056-3.92c0-1.12,0-1.12-0.056-3.906c0.504,0.252,0.658,0.336,1.105,0.658h5.208
		c0.225-0.294,0.294-0.392,0.547-0.658c0.363,0.266,0.476,0.35,0.812,0.602c0.112,0.098,0.182,0.182,0.182,0.238
		c0,0.098-0.126,0.196-0.489,0.392c0,2.436,0.027,5.236,0.069,6.496c0,0.014,0,0.042,0,0.042c0,0.154-0.111,0.21-0.518,0.224
		c-0.14,0-0.238,0.014-0.28,0.014c-0.014,0-0.028,0-0.042,0c-0.112,0-0.168-0.042-0.168-0.126c0-0.014,0-0.028,0-0.056v-0.448
		h-5.432V51.417z M37.931,44.571h-5.432v1.764h5.432V44.571z M32.499,46.657v1.764h5.432v-1.764H32.499z M32.499,48.729v1.918h5.432
		v-1.918H32.499z M36.489,53.097c1.344,0.364,2.38,0.756,3.275,1.218c0.561,0.308,0.714,0.532,0.714,1.064
		c0,0.336-0.111,0.574-0.279,0.574c-0.154,0-0.337-0.126-0.687-0.476c-0.812-0.798-1.778-1.484-3.107-2.212L36.489,53.097z"/>
	<path d="M46.821,45.564c0.195-0.238,0.266-0.322,0.489-0.56c0.364,0.266,0.462,0.35,0.771,0.602
		c0.069,0.084,0.098,0.126,0.098,0.168c0,0.07-0.056,0.126-0.378,0.35v1.246l0.014,1.442c0,0.042,0,0.154,0,0.336
		c-0.014,0.182-0.084,0.224-0.476,0.224c-0.098,0-0.182,0-0.238,0.014c-0.014,0-0.027,0-0.027,0c-0.126,0-0.168-0.042-0.168-0.154
		v-0.448h-2.45v2.128h2.338c0.238-0.252,0.322-0.336,0.574-0.602c0.35,0.28,0.447,0.364,0.756,0.602
		c0.084,0.084,0.098,0.112,0.098,0.14s-0.028,0.098-0.07,0.126c0,0.014-0.126,0.098-0.35,0.28v1.372c0,0.84,0,0.994,0.028,2.38
		c0,0.014,0,0.042,0,0.056c0,0.14-0.126,0.21-0.448,0.21c-0.126,0-0.224,0.014-0.252,0.014c-0.014,0-0.028,0-0.042,0
		c-0.126,0-0.182-0.042-0.182-0.126c0-0.014,0-0.028,0-0.028v-0.742h-2.45v0.98c-0.015,0.154-0.084,0.182-0.477,0.196
		c-0.084,0.014-0.14,0.014-0.195,0.014c-0.015,0-0.042,0-0.042,0c-0.154,0-0.21-0.028-0.225-0.154
		c0.015-1.414,0.028-4.158,0.028-8.918c0-0.266-0.014-0.742-0.028-1.82c0.462,0.28,0.603,0.364,1.064,0.672h0.406
		c0.084-0.336,0.084-0.336,0.126-0.49c0.279-1.064,0.321-1.302,0.378-1.89c1.344,0.322,1.596,0.406,1.596,0.546
		c0,0.126-0.042,0.14-0.63,0.322c-0.252,0.364-0.267,0.392-0.813,1.078c-0.084,0.112-0.084,0.112-0.336,0.434H46.821z
		 M46.905,48.463v-2.576h-2.45v2.576H46.905z M44.455,54.272h2.45v-3.038h-2.45V54.272z M52.267,47.049h1.61
		c0.252-0.266,0.336-0.35,0.602-0.63c0.406,0.308,0.546,0.406,0.826,0.644c0.084,0.084,0.112,0.126,0.112,0.168
		c0,0.112-0.141,0.238-0.448,0.434v3.472c0,0.112,0,0.392,0.028,1.974c0,0.518-0.084,0.714-0.406,0.91
		c-0.266,0.168-0.518,0.252-0.994,0.336c-0.056-0.63-0.266-0.826-1.147-1.05v-0.196c0.224,0.014,0.224,0.014,0.825,0.056
		c0.351,0.028,0.351,0.028,0.532,0.028c0.183,0,0.225-0.042,0.225-0.168v-5.656h-1.765v2.842c0,1.414,0.015,3.794,0.042,5.558
		c0,0.014,0,0.042,0,0.042c0,0.168-0.111,0.224-0.504,0.238c-0.126,0-0.21,0-0.266,0.014c-0.015,0-0.028,0-0.042,0
		c-0.112,0-0.154-0.028-0.168-0.126c0-0.882,0-0.882,0.014-2.394c0.028-1.652,0.028-2.002,0.028-3.276v-2.898h-1.54v2.744
		l0.042,3.962c-0.015,0.098-0.042,0.14-0.141,0.154c-0.056,0.014-0.447,0.042-0.63,0.042c-0.153,0-0.21-0.042-0.21-0.14
		c0,0,0-0.028,0-0.042c0.057-3.542,0.057-3.598,0.057-4.172c0-0.868-0.015-1.47-0.042-2.842c-0.015-0.336-0.015-0.336-0.015-0.644
		c0.448,0.252,0.574,0.336,1.022,0.616h1.456v-2.338h-2.101c-0.363,0-0.518,0.014-0.826,0.098l-0.14-0.546
		c0.309,0.084,0.658,0.126,0.952,0.126h4.354c0.351-0.434,0.463-0.574,0.841-0.98c0.573,0.448,0.741,0.588,1.231,1.036
		c0.057,0.07,0.099,0.14,0.099,0.168c0,0.056-0.057,0.098-0.169,0.098h-3.346V47.049z"/>
	<path d="M58.44,45.747c0.673,0.532,0.994,0.658,1.75,0.658c0.448,0,0.854-0.056,1.498-0.182c0.309-0.602,0.49-1.12,0.49-1.428
		c0-0.378-0.266-0.602-0.994-0.784c0.238-0.126,0.364-0.154,0.63-0.154c0.322,0,0.729,0.084,1.093,0.238
		c0.35,0.14,0.504,0.294,0.504,0.462c0,0.098-0.057,0.196-0.225,0.406c-0.126,0.168-0.294,0.42-0.405,0.574
		c-0.253,0.406-0.253,0.406-0.351,0.546c1.176-0.336,1.554-0.504,2.017-0.896c0.084-0.07,0.168-0.098,0.266-0.098
		c0.546,0,0.938,0.196,0.938,0.462c0,0.168-0.182,0.308-0.602,0.448c-1.246,0.406-1.918,0.574-3.052,0.798
		c-0.252,0.35-0.42,0.602-0.742,1.092c-0.378,0.588-0.49,0.742-0.756,1.12c0.784-0.406,1.273-0.56,1.806-0.56
		c0.826,0,1.442,0.56,1.568,1.4c0.237-0.112,0.237-0.112,1.372-0.686c1.386-0.7,1.722-0.924,1.722-1.176
		c0-0.238-0.238-0.49-0.644-0.658c0.153-0.07,0.224-0.084,0.321-0.084c0.616,0,1.582,0.854,1.582,1.414
		c0,0.252-0.111,0.35-0.504,0.434c-0.84,0.196-2.66,0.896-3.752,1.442c0.014,0.448,0.014,0.532,0.014,1.134
		c0,0.63-0.042,1.064-0.111,1.204c-0.07,0.154-0.225,0.266-0.393,0.266c-0.266,0-0.447-0.182-0.447-0.42c0-0.07,0-0.14,0.014-0.238
		c0.056-0.406,0.084-0.882,0.098-1.498c-0.868,0.476-1.273,0.756-1.638,1.106c-0.462,0.448-0.686,0.882-0.686,1.302
		c0,0.756,0.77,1.12,2.338,1.12c0.979,0,1.96-0.14,2.813-0.392c0.098-0.028,0.196-0.042,0.267-0.042c0.434,0,0.979,0.392,0.979,0.7
		c0,0.182-0.154,0.322-0.434,0.378c-0.574,0.112-1.639,0.196-2.507,0.196c-1.315,0-2.281-0.14-2.842-0.406
		c-0.714-0.336-1.036-0.798-1.036-1.484c0-0.658,0.322-1.26,1.009-1.918c0.363-0.35,0.812-0.672,1.735-1.246
		c-0.014-0.588-0.056-0.812-0.195-1.106c-0.126-0.252-0.406-0.42-0.715-0.42c-0.924,0-2.029,0.742-3.037,2.03
		c-0.267,0.364-0.379,0.448-0.519,0.448c-0.224,0-0.378-0.294-0.378-0.742c0-0.294,0.014-0.308,0.406-0.63
		c0.994-0.784,1.609-1.512,2.604-3.01c-0.462,0.07-0.644,0.084-0.938,0.084c-0.952,0-1.442-0.252-2.086-1.078L58.44,45.747z"/>
	<path d="M17.743,60.58c-0.015,0.154-0.021,0.217-0.021,0.315c0,0.833,0.525,1.225,1.652,1.225c0.553,0,1.134-0.098,1.547-0.252
		c0.042-0.021,0.084-0.028,0.119-0.028c0.104,0,0.266,0.063,0.385,0.14c0.098,0.077,0.154,0.161,0.154,0.245
		c0,0.105-0.077,0.182-0.225,0.217c-0.321,0.084-1.008,0.14-1.631,0.14c-0.784,0-1.281-0.098-1.631-0.336
		c-0.35-0.224-0.581-0.665-0.581-1.106c0-0.168,0.035-0.357,0.112-0.588L17.743,60.58z M17.96,57.814
		c0.356,0.238,0.602,0.308,1.071,0.308c0.462,0,1.05-0.084,1.456-0.21c0.049-0.014,0.104-0.028,0.126-0.028
		c0.182,0,0.42,0.21,0.42,0.364c0,0.119-0.042,0.14-0.512,0.245c-0.272,0.056-0.336,0.084-1.021,0.343
		c-0.168,0.063-0.168,0.063-0.574,0.238c-0.14,0.056-0.14,0.063-0.273,0.112l-0.049-0.105c0.218-0.126,0.329-0.196,0.512-0.294
		c0.476-0.259,0.476-0.259,0.588-0.329c-0.154,0.014-0.399,0.021-0.525,0.021c-0.259,0-0.581-0.077-0.798-0.189
		c-0.182-0.098-0.294-0.196-0.49-0.406L17.96,57.814z"/>
	<path d="M29.538,63.289c0.413-0.336,0.686-0.623,0.924-1.008c0.364-0.595,0.595-1.407,0.595-2.128c0-0.693-0.252-1.12-0.665-1.12
		c-0.371,0-0.86,0.301-1.344,0.826c-0.133,0.133-0.175,0.161-0.287,0.161c-0.146,0-0.314-0.112-0.462-0.315
		c-0.119-0.161-0.189-0.343-0.189-0.469c0-0.091,0.028-0.154,0.112-0.259c0.063,0.308,0.203,0.483,0.385,0.483
		c0.099,0,0.28-0.077,0.645-0.273c0.595-0.322,0.826-0.399,1.183-0.399c0.322,0,0.665,0.182,0.868,0.469
		c0.168,0.245,0.266,0.609,0.266,1.029c0,0.826-0.314,1.645-0.867,2.261c-0.344,0.378-0.7,0.644-1.1,0.819L29.538,63.289z
		 M29.152,56.925c0.344,0.287,0.819,0.448,1.31,0.448h0.161c0.14,0,0.237,0.049,0.378,0.168c0.098,0.084,0.146,0.168,0.146,0.238
		c0,0.098-0.098,0.154-0.287,0.154c-0.294,0.007-0.294,0.007-1.742,0.427l-0.035-0.098c0.524-0.238,1.008-0.455,1.183-0.518
		c-0.574-0.119-0.917-0.336-1.183-0.763L29.152,56.925z"/>
	<path d="M40.185,57.248c0.196,0,0.581,0.182,0.777,0.371c0.112,0.105,0.154,0.175,0.154,0.273s-0.035,0.14-0.406,0.441
		c-0.378,0.315-1.064,0.959-1.288,1.211c-0.245,0.273-0.336,0.427-0.336,0.567c0,0.098,0.07,0.217,0.21,0.357
		c0.098,0.105,0.098,0.105,0.49,0.469c0.763,0.7,1.12,1.092,1.288,1.428c0.076,0.14,0.104,0.266,0.104,0.455
		c0,0.266-0.091,0.42-0.238,0.42c-0.091,0-0.118-0.035-0.237-0.287c-0.126-0.273-0.344-0.644-0.588-0.987
		c-0.26-0.371-0.294-0.413-1.022-1.267c-0.188-0.231-0.266-0.399-0.266-0.588c0-0.224,0.111-0.413,0.539-0.938
		c0.847-1.022,1.057-1.323,1.057-1.491c0-0.119-0.091-0.217-0.385-0.413C40.087,57.254,40.122,57.248,40.185,57.248z M41.662,57.604
		c0.301,0.126,0.531,0.259,0.749,0.434c0.203,0.161,0.287,0.294,0.287,0.462c0,0.196-0.07,0.343-0.168,0.343
		c-0.057,0-0.099-0.042-0.161-0.161c-0.154-0.315-0.504-0.77-0.756-1.001L41.662,57.604z M42.285,57.157
		c0.434,0.161,0.707,0.294,0.875,0.434c0.146,0.119,0.188,0.196,0.188,0.357c0,0.189-0.063,0.315-0.154,0.315
		c-0.049,0-0.098-0.042-0.153-0.126c-0.225-0.322-0.238-0.336-0.448-0.56c-0.161-0.161-0.238-0.231-0.364-0.336L42.285,57.157z"/>
	<path d="M53.38,61.553c-0.672,0.91-1.589,1.449-2.457,1.449c-0.532,0-0.945-0.217-1.162-0.595c-0.14-0.245-0.196-0.588-0.196-1.183
		c0-0.385,0.021-1.05,0.057-1.687c0.042-0.756,0.049-0.952,0.049-1.204c0-0.602-0.07-0.721-0.567-0.931
		c0.077-0.056,0.119-0.07,0.196-0.07c0.161,0,0.413,0.063,0.63,0.161c0.266,0.126,0.406,0.266,0.406,0.413
		c0,0.049-0.007,0.091-0.063,0.252c-0.133,0.42-0.363,2.541-0.363,3.36c0,0.427,0.084,0.679,0.279,0.84
		c0.154,0.119,0.378,0.189,0.623,0.189c0.477,0,1.064-0.168,1.597-0.448c0.321-0.168,0.524-0.315,0.889-0.623L53.38,61.553z"/>
</g>
<rect x="0.125" y="7.875" fill="none" stroke="#008CD6" stroke-width="0.25" width="70" height="14"/>
<line fill="none" stroke="#008CD6" stroke-width="0.25" x1="14.125" y1="21.875" x2="14.125" y2="7.875"/>
<line fill="none" stroke="#008CD6" stroke-width="0.25" x1="28.125" y1="21.875" x2="28.125" y2="7.875"/>
<line fill="none" stroke="#008CD6" stroke-width="0.25" x1="42.125" y1="21.875" x2="42.125" y2="7.875"/>
<line fill="none" stroke="#008CD6" stroke-width="0.25" x1="56.125" y1="21.875" x2="56.125" y2="7.875"/>
<g>
	<polyline fill="none" stroke="#008CD6" stroke-width="0.25" points="21.542,7.125 21.542,0.125 28.542,0.125 28.542,7.125 	"/>
</g>
<g>
	<polyline fill="none" stroke="#008CD6" stroke-width="0.25" points="42.125,7.125 42.125,0.125 49.125,0.125 49.125,7.125 	"/>
</g>
<polyline fill="none" stroke="#008CD6" stroke-width="0.25" points="22.875,21.875 22.875,28.875 15.875,28.875 15.875,21.875 "/>
<polyline fill="none" stroke="#008CD6" stroke-width="0.25" points="33.375,21.875 33.375,28.875 26.375,28.875 26.375,21.875 "/>
<polyline fill="none" stroke="#008CD6" stroke-width="0.25" points="43.875,21.875 43.875,28.875 36.875,28.875 36.875,21.875 "/>
<polyline fill="none" stroke="#008CD6" stroke-width="0.25" points="54.375,21.875 54.375,28.875 47.375,28.875 47.375,21.875 "/>
</svg>
