<?xml version="1.0" encoding="utf-8"?>
<!-- Generator: Adobe Illustrator 12.0.0, SVG Export Plug-In . SVG Version: 6.00 Build 51448)  -->
<!DOCTYPE svg PUBLIC "-//W3C//DTD SVG 1.1//EN" "http://www.w3.org/Graphics/SVG/1.1/DTD/svg11.dtd" [
	<!ENTITY ns_svg "http://www.w3.org/2000/svg">
	<!ENTITY ns_xlink "http://www.w3.org/1999/xlink">
]>
<svg  version="1.1" id="レイヤー_1" xmlns="&ns_svg;" xmlns:xlink="&ns_xlink;" width="170" height="123.118"
	 viewBox="0 0 85 61.559" overflow="visible" enable-background="new 0 0 137.25 61.559" xml:space="preserve">
<g>
	<path d="M14.572,5.348c0.692-0.546,1.295-1.232,1.722-1.946c0.217-0.371,0.287-0.539,0.287-0.693c0-0.112-0.091-0.217-0.351-0.399
		c0.077-0.021,0.112-0.028,0.154-0.028c0.126,0,0.371,0.098,0.574,0.238c0.245,0.161,0.343,0.266,0.343,0.378
		c0,0.056-0.021,0.098-0.084,0.154c-0.133,0.112-0.14,0.112-0.294,0.322c-0.588,0.77-0.882,1.085-1.477,1.533
		c-0.309,0.238-0.505,0.364-0.819,0.518L14.572,5.348z M18.324,2.268c0.734,0.441,1.399,1.029,1.841,1.631
		c0.217,0.301,0.294,0.497,0.294,0.749c0,0.287-0.112,0.511-0.267,0.511c-0.098,0-0.126-0.042-0.23-0.322
		c-0.343-0.938-0.903-1.743-1.715-2.478L18.324,2.268z"/>
	<path d="M21.936,4.767c0.875-0.469,1.813-1.176,2.632-1.988c0.693-0.679,1.142-1.246,1.142-1.449c0-0.133-0.112-0.245-0.393-0.399
		c0.077-0.028,0.092-0.028,0.141-0.028c0.203,0,0.378,0.063,0.602,0.21c0.238,0.161,0.364,0.322,0.364,0.455
		c0,0.063-0.007,0.077-0.28,0.308c-0.069,0.056-0.069,0.056-0.566,0.532c-0.49,0.469-0.532,0.504-0.833,0.756
		c0.272,0.203,0.392,0.308,0.427,0.392c0.028,0.07,0.042,0.399,0.049,1.029c0.007,0.49,0.021,0.938,0.035,1.337
		c0,0.154,0.007,0.357,0.007,0.399c0,0.245-0.049,0.35-0.161,0.35c-0.161,0-0.476-0.385-0.476-0.588c0-0.049,0-0.049,0.042-0.182
		c0.063-0.175,0.126-1.043,0.126-1.722c0-0.343-0.015-0.553-0.042-0.665c-0.021-0.07-0.049-0.105-0.154-0.217
		c-0.49,0.392-0.994,0.749-1.344,0.959c-0.393,0.231-0.896,0.476-1.26,0.609L21.936,4.767z"/>
	<path d="M31.33,4.823c0,0.399,0,1.218,0.007,1.4c0,0.063,0,0.105,0,0.126c0,0.21-0.049,0.301-0.154,0.301
		c-0.077,0-0.153-0.063-0.252-0.189c-0.104-0.161-0.182-0.343-0.182-0.455c0-0.063,0.007-0.105,0.056-0.259
		c0.077-0.259,0.119-1.134,0.119-2.408c0-1.442-0.021-1.82-0.112-1.995c-0.084-0.154-0.203-0.252-0.447-0.357
		c0.069-0.042,0.111-0.056,0.182-0.056c0.161,0,0.427,0.091,0.679,0.238c0.196,0.112,0.267,0.189,0.267,0.294
		c0,0.042-0.008,0.056-0.042,0.126c-0.092,0.189-0.119,0.476-0.119,1.526c0.763,0.091,1.441,0.273,1.785,0.476
		c0.21,0.119,0.286,0.245,0.286,0.462c0,0.175-0.063,0.308-0.153,0.308c-0.057,0-0.099-0.021-0.273-0.175
		C32.457,3.752,31.96,3.479,31.33,3.29v0.161V4.823z M32.652,1.148c0.896,0.378,1.204,0.623,1.204,0.945
		c0,0.196-0.084,0.364-0.188,0.364c-0.077,0-0.084-0.007-0.259-0.301C33.22,1.82,32.968,1.54,32.59,1.232L32.652,1.148z
		 M33.29,0.651c0.497,0.175,0.734,0.287,0.966,0.462c0.161,0.119,0.224,0.231,0.224,0.392c0,0.182-0.069,0.329-0.161,0.329
		c-0.084,0-0.098-0.021-0.259-0.259c-0.21-0.322-0.469-0.574-0.826-0.84L33.29,0.651z"/>
	<path d="M41.389,3.192c-0.385,0.539-0.608,0.798-1.043,1.19c-0.63,0.574-1.302,1.029-2.114,1.428
		c-0.392,0.203-0.398,0.203-0.524,0.336c-0.057,0.063-0.105,0.091-0.161,0.091c-0.14,0-0.462-0.413-0.462-0.602
		c0-0.035,0-0.035,0.035-0.126c0.049-0.154,0.056-0.315,0.056-1.071c0-1.547-0.035-2.226-0.126-2.485
		c-0.063-0.175-0.175-0.259-0.483-0.364c0.084-0.056,0.134-0.07,0.218-0.07c0.146,0,0.363,0.063,0.56,0.168
		c0.273,0.147,0.413,0.287,0.413,0.427c0,0.042,0,0.042-0.035,0.147c-0.035,0.112-0.07,0.371-0.091,0.693
		c-0.035,0.427-0.077,1.701-0.077,2.219c0,0.07,0,0.196,0,0.35c1.008-0.371,1.631-0.693,2.387-1.239
		c0.532-0.385,1.016-0.805,1.358-1.176L41.389,3.192z"/>
	<path d="M42.936,4.767c0.875-0.469,1.813-1.176,2.632-1.988c0.693-0.679,1.142-1.246,1.142-1.449c0-0.133-0.112-0.245-0.393-0.399
		c0.077-0.028,0.092-0.028,0.141-0.028c0.203,0,0.378,0.063,0.602,0.21c0.238,0.161,0.364,0.322,0.364,0.455
		c0,0.063-0.007,0.077-0.28,0.308c-0.069,0.056-0.069,0.056-0.566,0.532c-0.49,0.469-0.532,0.504-0.833,0.756
		c0.272,0.203,0.392,0.308,0.427,0.392c0.028,0.07,0.042,0.399,0.049,1.029c0.007,0.49,0.021,0.938,0.035,1.337
		c0,0.154,0.007,0.357,0.007,0.399c0,0.245-0.049,0.35-0.161,0.35c-0.161,0-0.476-0.385-0.476-0.588c0-0.049,0-0.049,0.042-0.182
		c0.063-0.175,0.126-1.043,0.126-1.722c0-0.343-0.015-0.553-0.042-0.665c-0.021-0.07-0.049-0.105-0.154-0.217
		c-0.49,0.392-0.994,0.749-1.344,0.959c-0.393,0.231-0.896,0.476-1.26,0.609L42.936,4.767z"/>
	<path d="M50.517,1.743c0.672,0.168,1.078,0.329,1.352,0.525c0.161,0.112,0.237,0.266,0.237,0.476c0,0.231-0.076,0.392-0.195,0.392
		c-0.077,0-0.112-0.035-0.302-0.28c-0.343-0.455-0.595-0.686-1.141-1.029L50.517,1.743z M55.494,2.142
		c-0.351,0.658-0.777,1.211-1.471,1.883c-0.644,0.623-1.077,0.973-1.967,1.596c-0.329,0.231-0.364,0.259-0.413,0.322
		c-0.111,0.133-0.153,0.168-0.245,0.168c-0.286,0-0.818-0.672-0.818-1.029c0-0.042,0.007-0.07,0.035-0.14
		c0.14,0.21,0.153,0.224,0.252,0.308c0.104,0.098,0.202,0.147,0.279,0.147c0.119,0,0.336-0.091,0.68-0.294
		c0.783-0.455,1.057-0.651,1.673-1.155c0.86-0.7,1.281-1.127,1.883-1.869L55.494,2.142z"/>
	<path d="M57.104,2.891c0.581,0.119,0.994,0.259,1.226,0.413c0.188,0.119,0.266,0.259,0.266,0.462c0,0.182-0.091,0.336-0.196,0.336
		c-0.069,0-0.111-0.028-0.217-0.161c-0.35-0.441-0.665-0.707-1.12-0.959L57.104,2.891z M62.508,2.716
		c-0.203,0.308-0.567,0.728-1.043,1.197c-0.742,0.714-1.491,1.295-2.653,2.037c-0.301,0.196-0.447,0.301-0.539,0.385
		c-0.056,0.049-0.104,0.07-0.16,0.07c-0.141,0-0.302-0.133-0.497-0.42c-0.126-0.189-0.218-0.406-0.218-0.539
		c0-0.063,0.021-0.112,0.063-0.161c0.133,0.266,0.329,0.434,0.524,0.434c0.154,0,0.616-0.231,1.345-0.686
		c1.28-0.784,2.323-1.596,3.094-2.38L62.508,2.716z M57.874,1.652c1.12,0.266,1.477,0.483,1.477,0.889
		c0,0.196-0.084,0.35-0.188,0.35c-0.077,0-0.077,0-0.378-0.371c-0.267-0.315-0.588-0.574-0.959-0.77L57.874,1.652z M60.744,1.092
		c0.749,0.329,1.085,0.609,1.085,0.903c0,0.133-0.042,0.28-0.099,0.336c-0.014,0.021-0.049,0.035-0.084,0.035
		c-0.077,0-0.098-0.021-0.195-0.21c-0.231-0.427-0.406-0.651-0.764-0.994L60.744,1.092z M61.395,0.644
		c0.784,0.259,1.134,0.518,1.134,0.833c0,0.203-0.069,0.357-0.168,0.357c-0.063,0-0.104-0.042-0.182-0.175
		c-0.203-0.357-0.44-0.623-0.833-0.938L61.395,0.644z"/>
	<path d="M67.408,3.955c0.56-0.609,0.734-0.819,1.05-1.26c0.161-0.231,0.21-0.308,0.21-0.35c0-0.028-0.028-0.056-0.063-0.056
		s-0.188,0.035-0.518,0.126c-0.623,0.161-1.085,0.315-1.68,0.539c0.21,0.896,0.524,2.107,0.847,3.22
		c0.028,0.091,0.042,0.161,0.042,0.21c0,0.105-0.07,0.189-0.161,0.189c-0.196,0-0.581-0.434-0.581-0.644
		c0-0.007,0-0.007,0.007-0.091c0-0.014,0-0.021,0-0.14c0-0.378-0.259-1.694-0.511-2.625c-0.791,0.294-0.994,0.385-1.19,0.546
		c-0.056,0.042-0.133,0.07-0.182,0.07c-0.266,0-0.77-0.553-0.77-0.84c0-0.042,0.007-0.07,0.027-0.126
		c0.168,0.252,0.351,0.371,0.574,0.371c0.217,0,0.637-0.098,1.449-0.343c-0.189-0.756-0.273-0.994-0.413-1.197
		c-0.119-0.168-0.294-0.252-0.581-0.28c0.091-0.105,0.196-0.14,0.399-0.14c0.217,0,0.538,0.07,0.721,0.154
		c0.126,0.063,0.188,0.14,0.188,0.238c0,0.035,0,0.049-0.021,0.112c-0.014,0.049-0.021,0.119-0.021,0.189
		c0,0.168,0.035,0.406,0.112,0.812c0.672-0.196,1.631-0.497,1.876-0.595c0.119-0.042,0.154-0.056,0.238-0.119
		c0.056-0.028,0.091-0.042,0.146-0.042c0.238,0,0.833,0.49,0.833,0.686c0,0.077-0.063,0.133-0.23,0.189
		c-0.133,0.042-0.161,0.063-0.336,0.217c-0.455,0.399-1.071,0.861-1.407,1.05L67.408,3.955z"/>
	<path d="M7.145,19.292c1.513-0.448,2.479-1.022,3.276-1.946c0.826-0.938,1.246-2.086,1.246-3.374c0-1.358-0.546-2.436-1.582-3.094
		c-0.616-0.406-1.54-0.644-2.422-0.644c-0.168,0-0.267,0-0.49,0.028c0.336,0.49,0.434,0.756,0.434,1.162
		c0,1.092-0.783,3.136-1.848,4.844c-0.882,1.4-1.568,2.086-2.086,2.086c-0.238,0-0.462-0.112-0.616-0.294
		c-0.126-0.168-0.154-0.224-0.392-0.896c-0.126-0.364-0.21-0.532-0.616-1.316c-0.224-0.448-0.322-0.826-0.322-1.274
		c0-0.882,0.477-1.918,1.261-2.772c1.134-1.204,2.981-1.96,4.815-1.96c1.414,0,2.716,0.462,3.612,1.288
		c0.896,0.826,1.344,1.932,1.344,3.29c0,1.75-1.022,3.304-2.786,4.242c-0.812,0.434-1.54,0.658-2.729,0.868L7.145,19.292z
		 M2.539,14.938c0,0.672,0.21,1.358,0.56,1.848c0.196,0.252,0.378,0.406,0.532,0.406c0.308,0,0.979-0.756,1.666-1.848
		c1.036-1.652,1.778-3.458,1.778-4.326c0-0.21-0.042-0.35-0.196-0.7C4.442,10.752,2.539,12.782,2.539,14.938z"/>
	<path d="M19.362,12.488c0.153,0,0.266-0.014,0.35-0.028c0.196-0.014,0.546-0.042,1.036-0.112v-3.43c0-0.616,0-0.644-0.015-0.994
		c1.429,0.252,1.498,0.28,1.498,0.406c0,0.126-0.098,0.168-0.644,0.294V9.94h1.092c0.252-0.35,0.336-0.448,0.603-0.77
		c0.392,0.378,0.504,0.49,0.84,0.854c0.069,0.07,0.098,0.112,0.098,0.14c0,0.056-0.056,0.098-0.126,0.098h-2.506v1.988l0.35-0.042
		c0.966-0.14,1.61-0.224,1.946-0.266v0.168c-1.12,0.364-2.716,0.728-5.656,1.316c-0.126,0.476-0.153,0.532-0.266,0.532
		c-0.14,0-0.21-0.196-0.504-1.358c0.812-0.014,0.812-0.014,1.092-0.042v-2.52c0-0.294-0.014-0.518-0.084-0.994
		c0.28,0.056,0.49,0.084,0.616,0.098c0.728,0.098,0.868,0.154,0.868,0.28c0,0.112-0.028,0.126-0.588,0.308V12.488z M17.822,20.244
		c0.951-0.63,1.357-0.952,2.113-1.652c0.63-0.588,0.742-0.714,1.008-1.05c1.219,0.56,1.316,0.616,1.316,0.728
		c0,0.084-0.112,0.14-0.252,0.14c0,0-0.028,0-0.042,0c-0.084,0-0.21-0.014-0.378-0.014c-2.156,1.414-2.338,1.512-3.668,2.03
		L17.822,20.244z M23.086,16.8c-3.262,0.308-3.262,0.308-4.34,0.35c-0.168,0.504-0.183,0.532-0.28,0.532
		c-0.154,0-0.224-0.252-0.392-1.428c0.518,0.028,1.456,0.042,2.674,0.042c0.448,0,0.448,0,2.086-0.056
		c1.176-1.148,2.044-2.058,2.702-2.898c1.078,0.462,1.204,0.532,1.204,0.63c0,0.126-0.154,0.168-0.589,0.168
		c-0.812,0.728-1.945,1.54-2.884,2.086c1.582-0.056,1.582-0.056,4.019-0.196c-0.504-0.42-0.714-0.574-1.246-0.91l0.111-0.168
		c0.994,0.322,1.849,0.728,2.591,1.19c0.35,0.224,0.476,0.462,0.476,0.896c0,0.378-0.098,0.602-0.266,0.602
		c-0.141,0-0.267-0.112-0.868-0.84c-0.141-0.154-0.28-0.294-0.532-0.532c-2.17,0.308-2.17,0.308-3.542,0.448v1.68
		c0,0.518,0.014,1.288,0.056,2.058c-0.014,0.112-0.027,0.126-0.14,0.154c-0.21,0.042-0.392,0.056-0.56,0.056
		c-0.238,0-0.294-0.028-0.322-0.14c0.028-1.26,0.042-1.974,0.042-2.128V16.8z M20.034,13.804c0.909,0.35,1.063,0.406,1.525,0.616
		c0.057-0.07,0.112-0.14,0.141-0.182c0.672-0.84,0.741-0.952,1.092-1.568c0.979,0.42,1.147,0.504,1.147,0.588
		c0,0.112-0.168,0.182-0.42,0.182c-0.042,0-0.084,0-0.168,0c-0.14,0.098-0.252,0.196-0.321,0.252
		c-0.854,0.63-0.854,0.63-1.204,0.868c0.602,0.336,0.77,0.532,0.77,0.938c0,0.168-0.084,0.462-0.168,0.588
		c-0.028,0.042-0.112,0.084-0.168,0.084c-0.112,0-0.126-0.014-0.462-0.476c-0.392-0.56-1.176-1.288-1.834-1.736L20.034,13.804z
		 M25.466,10.654c0.392-0.196,0.77-0.42,1.288-0.742c0.924-0.588,1.26-0.826,1.596-1.176c1.12,0.616,1.26,0.7,1.26,0.798
		c0,0.07-0.126,0.14-0.266,0.14c-0.056,0-0.224-0.014-0.476-0.056c-1.582,0.7-2.534,1.064-3.402,1.316v1.12
		c0,0.14,0.014,0.168,0.084,0.196c0.112,0.056,0.518,0.07,1.526,0.07c0.56,0,1.344-0.042,1.483-0.07
		c0.112-0.028,0.112-0.028,0.309-0.448c0.042-0.084,0.21-0.602,0.518-1.54l0.154,0.056l-0.084,1.61v0.126
		c0,0.14,0.027,0.154,0.279,0.224c0.154,0.028,0.28,0.168,0.28,0.28c0,0.392-0.658,0.49-3.43,0.49c-0.868,0-1.4-0.042-1.652-0.112
		c-0.195-0.07-0.294-0.196-0.336-0.476c0.014-1.148,0.014-1.148,0.014-1.568v-1.82c0-0.854,0-0.854-0.014-1.162
		c0.309,0.042,0.519,0.084,0.672,0.098c0.616,0.098,0.813,0.154,0.813,0.28c0,0.098-0.07,0.126-0.616,0.294V10.654z M25.2,17.417
		c1.063,0.322,2.226,0.868,2.827,1.302c0.322,0.238,0.477,0.56,0.477,1.022c0,0.294-0.14,0.546-0.322,0.546
		c-0.084,0-0.168-0.07-0.322-0.266c-0.615-0.812-1.693-1.764-2.729-2.45L25.2,17.417z"/>
	<path d="M37.455,17.417c0,0.154,0.027,1.162,0.069,3.052c0,0.196-0.126,0.252-0.518,0.252c-0.126,0-0.224,0-0.28,0.014h-0.014
		c-0.112,0-0.168-0.07-0.182-0.182c0.069-2.03,0.084-2.912,0.084-4.732c0-2.772-0.042-6.286-0.084-7.896
		c0.462,0.266,0.588,0.35,0.993,0.658h1.582c0.252-0.294,0.336-0.378,0.631-0.658c0.378,0.322,0.504,0.42,0.84,0.742
		c0.111,0.112,0.14,0.154,0.14,0.21c0,0.084-0.14,0.154-0.504,0.252c-0.672,1.148-0.798,1.344-0.882,1.484l-0.924,1.484
		c0.644,0.588,0.896,0.854,1.176,1.26c0.35,0.504,0.532,1.12,0.532,1.834c0,0.63-0.141,1.176-0.421,1.582
		c-0.308,0.434-0.672,0.63-1.413,0.728c-0.042-0.518-0.267-0.728-0.826-0.812V17.417z M37.469,16.464
		c0.574,0.056,0.854,0.07,1.092,0.07c0.351,0,0.435-0.028,0.532-0.196c0.126-0.224,0.21-0.644,0.21-1.134
		c0-1.176-0.35-2.002-1.288-2.996c0.504-1.204,0.91-2.352,1.162-3.304h-1.708V16.464z M46.499,15.596
		c-0.435,0.994-0.714,1.498-1.19,2.128c-0.602,0.826-1.47,1.666-2.338,2.254c-0.392,0.28-0.686,0.434-1.357,0.728l-0.127-0.168
		c0.826-0.49,1.219-0.812,1.876-1.526c0.994-1.064,1.582-1.974,2.227-3.416h-1.134c-0.448,0.882-0.7,1.274-1.316,1.974
		c-1.036,1.176-1.904,1.82-3.29,2.408l-0.14-0.154c1.288-0.826,1.764-1.246,2.632-2.338c0.714-0.882,0.91-1.204,1.176-1.89H42.48
		c-0.363,0.49-0.699,0.882-1.162,1.33c-0.854,0.84-1.386,1.232-2.296,1.694l-0.098-0.21c0.602-0.406,0.896-0.672,1.498-1.358
		c0.812-0.924,1.33-1.722,1.848-2.856h-1.399c-0.141,0-0.322,0.014-0.658,0.028l-0.112-0.49c0.351,0.084,0.966,0.14,1.33,0.14h5.432
		c0.337-0.434,0.448-0.56,0.784-0.952c0.546,0.448,0.7,0.602,1.19,1.078c0.042,0.042,0.07,0.084,0.07,0.112
		c0,0.056-0.042,0.084-0.141,0.084h-5.488c-0.266,0.574-0.321,0.686-0.573,1.078h4.438c0.21-0.252,0.28-0.336,0.504-0.574
		c0.351,0.252,0.448,0.322,0.742,0.574c0.098,0.098,0.14,0.154,0.14,0.196c0,0.14-0.153,0.28-0.476,0.42
		c-0.252,2.254-0.336,2.646-0.672,3.514c-0.322,0.812-0.7,1.064-1.75,1.162c-0.07-0.35-0.154-0.518-0.378-0.672
		c-0.112-0.07-0.267-0.126-0.561-0.196l-0.321-0.07c-0.099-0.028-0.21-0.056-0.309-0.084v-0.21c0.91,0.084,1.54,0.126,2.072,0.126
		c0.266,0,0.378-0.14,0.574-0.77c0.237-0.77,0.406-1.89,0.434-3.094H46.499z M42.327,12.992c-0.015,0.154-0.099,0.182-0.477,0.196
		c-0.111,0-0.182,0.014-0.224,0.014c-0.014,0-0.028,0-0.042,0c-0.154,0-0.21-0.056-0.21-0.21c0.027-0.882,0.042-1.512,0.042-3.57
		c0-0.35-0.015-0.854-0.042-1.498c0.504,0.252,0.658,0.35,1.078,0.658h3.29c0.224-0.294,0.294-0.378,0.531-0.658
		c0.393,0.252,0.504,0.336,0.854,0.602c0.084,0.084,0.112,0.126,0.112,0.168c0,0.084-0.07,0.14-0.421,0.364c0,0.406,0,0.77,0,0.98
		c0.015,1.834,0.015,1.834,0.042,2.758c0,0.028,0,0.042,0,0.056c0,0.154-0.098,0.182-0.756,0.182c-0.126,0-0.182-0.042-0.195-0.154
		v-0.35h-3.584V12.992z M45.911,8.904h-3.584v1.4h3.584V8.904z M42.327,10.626v1.582h3.584v-1.582H42.327z"/>
	<path d="M54.512,16.772c1.05-1.134,1.694-1.974,2.282-2.94c0.546-0.924,0.938-1.764,1.134-2.436c0.504,0.168,1.246,0.434,1.4,0.504
		c0.056,0.028,0.111,0.084,0.111,0.126c0,0.112-0.195,0.182-0.56,0.182c-0.014,0-0.056,0-0.098-0.014
		c-0.505,0.812-0.742,1.148-1.246,1.792c0.882,0.168,1.078,0.238,1.078,0.35c0,0.126-0.112,0.182-0.547,0.294v2.31
		c0,1.036,0,1.036,0,3.332c-0.042,0.168-0.126,0.196-0.518,0.21c-0.112,0-0.182,0.014-0.224,0.014c-0.028,0-0.042,0-0.042,0
		c-0.154,0-0.225-0.056-0.225-0.182c0.057-2.898,0.057-2.898,0.057-3.374v-2.408c-0.952,1.162-1.513,1.68-2.479,2.408L54.512,16.772
		z M62.142,9.576V8.694c0-0.392,0-0.476-0.027-0.826c1.497,0.21,1.497,0.21,1.497,0.336s-0.168,0.21-0.56,0.294
		c0,0.434,0,0.798,0,1.078h1.862c0.392-0.434,0.531-0.574,0.91-0.994c0.588,0.476,0.77,0.63,1.344,1.134
		C67.195,9.744,67.21,9.772,67.21,9.8c0,0.056-0.07,0.098-0.126,0.098h-4.032c0,0.742,0,0.742,0.014,1.274
		c-0.014,0.098-0.042,0.154-0.098,0.182c-0.112,0.042-0.364,0.07-0.602,0.07c-0.168,0-0.225-0.042-0.238-0.182
		c0.014-0.602,0.014-0.602,0.014-1.344h-2.813c0,0.784,0,0.784,0,1.274c-0.028,0.154-0.112,0.182-0.477,0.196
		c-0.069,0-0.14,0.014-0.195,0.014c-0.015,0-0.028,0-0.028,0c-0.154,0-0.225-0.056-0.238-0.182c0.028-0.518,0.028-0.518,0.028-1.302
		h-2.464c-0.448,0-0.84,0.042-1.177,0.112l-0.084-0.574c0.574,0.112,0.784,0.14,1.261,0.14h2.464c0-0.112,0-0.14,0-0.21
		c0-0.616-0.015-1.204-0.042-1.526c1.525,0.182,1.525,0.182,1.525,0.322c0,0.126-0.042,0.14-0.573,0.336v1.078H62.142z
		 M62.016,15.848c0.561-0.42,0.924-0.742,1.512-1.358c0.925-0.966,1.4-1.582,1.723-2.212c1.33,0.756,1.344,0.77,1.344,0.882
		c0,0.07-0.112,0.14-0.238,0.14s-0.252-0.014-0.405-0.028c-1.345,1.288-2.604,2.212-3.935,2.898v2.996
		c0,0.07,0.084,0.112,0.225,0.126c0.195,0.028,1.581,0.07,1.932,0.07c0.476,0,1.218-0.042,1.344-0.084
		c0.154-0.042,0.196-0.112,0.351-0.518c0.224-0.602,0.405-1.19,0.714-2.324h0.182l-0.182,2.24c-0.015,0.224-0.015,0.336-0.015,0.35
		c0,0.098,0.028,0.126,0.225,0.196c0.224,0.084,0.308,0.182,0.308,0.35c0,0.238-0.168,0.392-0.546,0.476
		c-0.308,0.056-1.414,0.112-2.534,0.112c-1.722,0-2.268-0.042-2.576-0.21c-0.266-0.14-0.363-0.35-0.378-0.798
		c0.015-2.296,0.015-2.296,0.015-2.604v-3.584c0-0.42-0.028-1.05-0.07-1.414c1.428,0.21,1.568,0.238,1.568,0.35
		c0,0.126-0.196,0.224-0.561,0.308V15.848z"/>
	<path d="M72.44,10.346c0.673,0.532,0.994,0.658,1.75,0.658c0.448,0,0.854-0.056,1.498-0.182c0.309-0.602,0.49-1.12,0.49-1.428
		c0-0.378-0.266-0.602-0.994-0.784c0.238-0.126,0.364-0.154,0.63-0.154c0.322,0,0.729,0.084,1.093,0.238
		c0.35,0.14,0.504,0.294,0.504,0.462c0,0.098-0.057,0.196-0.225,0.406c-0.126,0.168-0.294,0.42-0.405,0.574
		c-0.253,0.406-0.253,0.406-0.351,0.546c1.176-0.336,1.554-0.504,2.017-0.896c0.084-0.07,0.168-0.098,0.266-0.098
		c0.546,0,0.938,0.196,0.938,0.462c0,0.168-0.182,0.308-0.602,0.448c-1.246,0.406-1.918,0.574-3.052,0.798
		c-0.252,0.35-0.42,0.602-0.742,1.092c-0.378,0.588-0.49,0.742-0.756,1.12c0.784-0.406,1.273-0.56,1.806-0.56
		c0.826,0,1.442,0.56,1.568,1.4c0.237-0.112,0.237-0.112,1.372-0.686c1.386-0.7,1.722-0.924,1.722-1.176
		c0-0.238-0.238-0.49-0.644-0.658c0.153-0.07,0.224-0.084,0.321-0.084c0.616,0,1.582,0.854,1.582,1.414
		c0,0.252-0.111,0.35-0.504,0.434c-0.84,0.196-2.66,0.896-3.752,1.442c0.014,0.448,0.014,0.532,0.014,1.134
		c0,0.63-0.042,1.064-0.111,1.204c-0.07,0.154-0.225,0.266-0.393,0.266c-0.266,0-0.447-0.182-0.447-0.42c0-0.07,0-0.14,0.014-0.238
		c0.056-0.406,0.084-0.882,0.098-1.498c-0.868,0.476-1.273,0.756-1.638,1.106c-0.462,0.448-0.686,0.882-0.686,1.302
		c0,0.756,0.77,1.12,2.338,1.12c0.979,0,1.96-0.14,2.813-0.392c0.098-0.028,0.196-0.042,0.267-0.042c0.434,0,0.979,0.392,0.979,0.7
		c0,0.182-0.154,0.322-0.434,0.378c-0.574,0.112-1.639,0.196-2.507,0.196c-1.315,0-2.281-0.14-2.842-0.406
		c-0.714-0.336-1.036-0.798-1.036-1.484c0-0.658,0.322-1.26,1.009-1.918c0.363-0.35,0.812-0.672,1.735-1.246
		c-0.014-0.588-0.056-0.812-0.195-1.106c-0.126-0.252-0.406-0.42-0.715-0.42c-0.924,0-2.029,0.742-3.037,2.03
		c-0.267,0.364-0.379,0.448-0.519,0.448c-0.224,0-0.378-0.294-0.378-0.742c0-0.294,0.014-0.308,0.406-0.63
		c0.994-0.784,1.609-1.512,2.604-3.01c-0.462,0.07-0.644,0.084-0.938,0.084c-0.952,0-1.442-0.252-2.086-1.078L72.44,10.346z"/>
	<path d="M20.809,22.68c0.273,0.315,0.511,0.413,0.98,0.413c0.133,0,0.217-0.007,0.405-0.035c0.043-0.315,0.077-0.658,0.077-0.777
		c0-0.252-0.111-0.364-0.455-0.469c0.077-0.063,0.112-0.077,0.203-0.077c0.154,0,0.42,0.07,0.609,0.161
		c0.175,0.091,0.259,0.175,0.259,0.287c0,0.063,0,0.063-0.091,0.182c-0.084,0.119-0.133,0.252-0.217,0.63
		c0.665-0.14,1.078-0.301,1.315-0.497c0.077-0.07,0.105-0.077,0.176-0.077c0.098,0,0.252,0.028,0.328,0.056
		c0.07,0.028,0.112,0.084,0.112,0.154c0,0.126-0.14,0.21-0.602,0.371c-0.351,0.119-0.89,0.245-1.407,0.329
		c-0.063,0.315-0.119,0.742-0.133,1.057c0.398-0.133,0.742-0.203,1.12-0.224c0-0.021,0-0.035,0-0.042
		c0-0.133-0.057-0.231-0.225-0.385c0.035-0.007,0.063-0.014,0.077-0.014c0.182,0,0.385,0.189,0.448,0.42
		c0.623,0.07,1.008,0.21,1.357,0.497c0.315,0.273,0.477,0.637,0.477,1.106c0,1.064-1.085,1.862-2.73,2.002l-0.021-0.112
		c1.421-0.35,2.212-1.078,2.212-2.051c0-0.427-0.183-0.777-0.511-0.994c-0.196-0.126-0.435-0.196-0.813-0.245
		c-0.104,0.357-0.217,0.595-0.44,0.959c-0.245,0.385-0.455,0.644-0.749,0.91c0.091,0.175,0.091,0.175,0.175,0.294
		c0.049,0.077,0.077,0.168,0.077,0.294c0,0.189-0.063,0.322-0.161,0.322c-0.119,0-0.238-0.189-0.406-0.616
		c-0.448,0.406-0.931,0.665-1.211,0.665c-0.168,0-0.245-0.077-0.336-0.322c-0.049-0.119-0.063-0.147-0.133-0.266
		c-0.105-0.168-0.134-0.266-0.134-0.42c0-0.364,0.218-0.728,0.658-1.099c0.26-0.21,0.532-0.378,0.945-0.56
		c0.007-0.105,0.007-0.105,0.042-0.518c0.007-0.119,0.021-0.231,0.063-0.623c-0.133,0.007-0.195,0.014-0.266,0.014
		c-0.553,0-0.882-0.182-1.169-0.644L20.809,22.68z M21.054,25.62c-0.146,0.224-0.217,0.441-0.217,0.658
		c0,0.259,0.104,0.427,0.266,0.427c0.225,0,0.658-0.238,1.043-0.567c-0.084-0.455-0.104-0.686-0.104-1.127c0-0.049,0-0.14,0-0.252
		C21.516,25.067,21.271,25.277,21.054,25.62z M22.355,24.843c0,0.378,0.035,0.728,0.099,1.022c0.546-0.567,0.798-0.938,1.001-1.512
		c-0.399,0.035-0.665,0.098-1.1,0.266C22.355,24.717,22.355,24.794,22.355,24.843z"/>
	<path d="M37.947,26.236c-0.673,0.91-1.59,1.449-2.457,1.449c-0.532,0-0.945-0.217-1.162-0.595
		c-0.141-0.245-0.196-0.588-0.196-1.183c0-0.385,0.021-1.05,0.056-1.687c0.042-0.756,0.05-0.952,0.05-1.204
		c0-0.602-0.07-0.721-0.567-0.931c0.077-0.056,0.119-0.07,0.196-0.07c0.16,0,0.413,0.063,0.63,0.161
		c0.266,0.126,0.405,0.266,0.405,0.413c0,0.049-0.007,0.091-0.063,0.252c-0.133,0.42-0.364,2.541-0.364,3.36
		c0,0.427,0.084,0.679,0.28,0.84c0.154,0.119,0.378,0.189,0.623,0.189c0.476,0,1.063-0.168,1.596-0.448
		c0.322-0.168,0.525-0.315,0.89-0.623L37.947,26.236z M36.239,22.617c0.378,0.133,0.672,0.308,0.902,0.525
		c0.119,0.119,0.175,0.238,0.175,0.399c0,0.182-0.076,0.308-0.182,0.308c-0.056,0-0.077-0.021-0.196-0.238
		c-0.23-0.392-0.447-0.665-0.756-0.924L36.239,22.617z M36.862,22.127c0.44,0.147,0.699,0.273,0.938,0.469
		c0.126,0.105,0.168,0.189,0.168,0.35c0,0.203-0.063,0.336-0.161,0.336c-0.063,0-0.091-0.035-0.182-0.196
		c-0.189-0.322-0.441-0.595-0.813-0.882L36.862,22.127z"/>
	<path d="M49.583,22.4c0.28,0.112,0.665,0.217,0.791,0.217c0.027,0,0.042,0,0.069-0.007c0.021,0,0.035,0,0.042,0
		c0.176,0,0.273,0.077,0.273,0.217c0,0.105-0.119,0.21-0.385,0.364c-0.252,0.133-0.343,0.175-1.022,0.434
		c0.364,0.518,0.749,1.12,0.959,1.512c0.112,0.203,0.154,0.35,0.154,0.525c0,0.273-0.049,0.371-0.189,0.371
		c-0.076,0-0.118-0.021-0.217-0.119c-0.14-0.133-0.314-0.259-0.469-0.329c-0.357-0.168-0.819-0.266-1.267-0.266
		c-0.806,0-1.31,0.315-1.31,0.819c0,0.301,0.203,0.56,0.546,0.707c0.245,0.098,0.596,0.154,0.974,0.154
		c0.266,0,0.427-0.014,0.608-0.049c0.035-0.007,0.063-0.014,0.084-0.014c0.183,0,0.435,0.224,0.435,0.378
		c0,0.175-0.119,0.217-0.609,0.217c-0.525,0-1.008-0.063-1.372-0.189c-0.63-0.21-1.001-0.637-1.001-1.141
		c0-0.7,0.693-1.12,1.841-1.12c0.47,0,0.994,0.07,1.372,0.182c-0.153-0.483-0.448-1.008-0.84-1.554
		c-0.504,0.154-0.959,0.231-1.421,0.231c-0.532,0-0.931-0.189-1.288-0.616l0.077-0.07c0.378,0.28,0.679,0.385,1.12,0.385
		c0.371,0,0.826-0.077,1.295-0.217c-0.294-0.385-0.693-0.756-0.974-0.91c-0.217-0.119-0.266-0.175-0.266-0.273
		c0-0.161,0.175-0.259,0.477-0.259c0.252,0,0.504,0.042,0.818,0.147l-0.035,0.105c-0.161-0.021-0.266-0.028-0.314-0.028
		c-0.147,0-0.217,0.028-0.217,0.077c0,0.035,0.069,0.126,0.286,0.371c0.077,0.091,0.26,0.315,0.539,0.672
		c0.092-0.042,0.092-0.042,0.441-0.182c0.161-0.07,0.294-0.133,0.511-0.259c-0.182-0.147-0.188-0.154-0.566-0.406L49.583,22.4z"/>
	<path d="M61.19,24.626c-0.511,1.176-0.657,1.589-0.657,1.869c0,0.056,0,0.056,0.042,0.238c0.007,0.035,0.014,0.077,0.014,0.112
		c0,0.098-0.07,0.175-0.154,0.175c-0.195,0-0.553-0.273-0.77-0.595c-0.238-0.343-0.406-0.84-0.477-1.4
		c-0.042-0.308-0.049-0.483-0.049-1.232c-0.007-0.651-0.056-0.812-0.356-1.204c0.021,0,0.034,0,0.063,0
		c0.112,0,0.315,0.133,0.525,0.343c0.21,0.203,0.314,0.392,0.314,0.553c0,0.042-0.007,0.098-0.021,0.182
		c-0.084,0.427-0.126,0.756-0.126,1.043c0,0.378,0.056,0.728,0.161,1.015c0.104,0.287,0.188,0.413,0.363,0.546
		c0.077-0.112,0.077-0.112,0.231-0.371c0.224-0.378,0.224-0.378,0.588-0.987c0.112-0.182,0.112-0.182,0.203-0.336L61.19,24.626z
		 M62.682,23.359c0.882,0.196,1.582,1.127,1.582,2.093c0,0.336-0.14,0.553-0.35,0.553c-0.07,0-0.112-0.014-0.21-0.077
		c-0.091-0.063-0.225-0.084-0.525-0.084c-0.161,0-0.294,0-0.532,0.014l-0.021-0.105c0.566-0.154,0.882-0.245,0.945-0.266
		c0.14-0.049,0.16-0.077,0.16-0.21c0-0.259-0.098-0.665-0.217-0.917c-0.188-0.406-0.469-0.7-0.868-0.917L62.682,23.359z"/>
</g>
<g>
	<path d="M14.572,39.999c0.692-0.546,1.295-1.232,1.722-1.946c0.217-0.371,0.287-0.539,0.287-0.693c0-0.112-0.091-0.217-0.351-0.399
		c0.077-0.021,0.112-0.028,0.154-0.028c0.126,0,0.371,0.098,0.574,0.238c0.245,0.161,0.343,0.266,0.343,0.378
		c0,0.056-0.021,0.098-0.084,0.154c-0.133,0.112-0.14,0.112-0.294,0.322c-0.588,0.77-0.882,1.085-1.477,1.533
		c-0.309,0.238-0.505,0.364-0.819,0.518L14.572,39.999z M18.324,36.918c0.734,0.441,1.399,1.029,1.841,1.631
		c0.217,0.301,0.294,0.497,0.294,0.749c0,0.287-0.112,0.511-0.267,0.511c-0.098,0-0.126-0.042-0.23-0.322
		c-0.343-0.938-0.903-1.743-1.715-2.478L18.324,36.918z"/>
	<path d="M21.936,39.417c0.875-0.469,1.813-1.176,2.632-1.988c0.693-0.679,1.142-1.246,1.142-1.449c0-0.133-0.112-0.245-0.393-0.399
		c0.077-0.028,0.092-0.028,0.141-0.028c0.203,0,0.378,0.063,0.602,0.21c0.238,0.161,0.364,0.322,0.364,0.455
		c0,0.063-0.007,0.077-0.28,0.308c-0.069,0.056-0.069,0.056-0.566,0.532c-0.49,0.469-0.532,0.504-0.833,0.756
		c0.272,0.203,0.392,0.308,0.427,0.392c0.028,0.07,0.042,0.399,0.049,1.029c0.007,0.49,0.021,0.938,0.035,1.337
		c0,0.154,0.007,0.357,0.007,0.399c0,0.245-0.049,0.35-0.161,0.35c-0.161,0-0.476-0.385-0.476-0.588c0-0.049,0-0.049,0.042-0.182
		c0.063-0.175,0.126-1.043,0.126-1.722c0-0.343-0.015-0.553-0.042-0.665c-0.021-0.07-0.049-0.105-0.154-0.217
		c-0.49,0.392-0.994,0.749-1.344,0.959c-0.393,0.231-0.896,0.476-1.26,0.609L21.936,39.417z"/>
	<path d="M31.33,39.474c0,0.399,0,1.218,0.007,1.4c0,0.063,0,0.105,0,0.126c0,0.21-0.049,0.301-0.154,0.301
		c-0.077,0-0.153-0.063-0.252-0.189c-0.104-0.161-0.182-0.343-0.182-0.455c0-0.063,0.007-0.105,0.056-0.259
		c0.077-0.259,0.119-1.134,0.119-2.408c0-1.442-0.021-1.82-0.112-1.995c-0.084-0.154-0.203-0.252-0.447-0.357
		c0.069-0.042,0.111-0.056,0.182-0.056c0.161,0,0.427,0.091,0.679,0.238c0.196,0.112,0.267,0.189,0.267,0.294
		c0,0.042-0.008,0.056-0.042,0.126c-0.092,0.189-0.119,0.476-0.119,1.526c0.763,0.091,1.441,0.273,1.785,0.476
		c0.21,0.119,0.286,0.245,0.286,0.462c0,0.175-0.063,0.308-0.153,0.308c-0.057,0-0.099-0.021-0.273-0.175
		c-0.518-0.434-1.015-0.707-1.645-0.896v0.161V39.474z M32.652,35.798c0.896,0.378,1.204,0.623,1.204,0.945
		c0,0.196-0.084,0.364-0.188,0.364c-0.077,0-0.084-0.007-0.259-0.301c-0.189-0.336-0.441-0.616-0.819-0.924L32.652,35.798z
		 M33.29,35.302c0.497,0.175,0.734,0.287,0.966,0.462c0.161,0.119,0.224,0.231,0.224,0.392c0,0.182-0.069,0.329-0.161,0.329
		c-0.084,0-0.098-0.021-0.259-0.259c-0.21-0.322-0.469-0.574-0.826-0.84L33.29,35.302z"/>
	<path d="M41.389,37.842c-0.385,0.539-0.608,0.798-1.043,1.19c-0.63,0.574-1.302,1.029-2.114,1.428
		c-0.392,0.203-0.398,0.203-0.524,0.336c-0.057,0.063-0.105,0.091-0.161,0.091c-0.14,0-0.462-0.413-0.462-0.602
		c0-0.035,0-0.035,0.035-0.126c0.049-0.154,0.056-0.315,0.056-1.071c0-1.547-0.035-2.226-0.126-2.485
		c-0.063-0.175-0.175-0.259-0.483-0.364c0.084-0.056,0.134-0.07,0.218-0.07c0.146,0,0.363,0.063,0.56,0.168
		c0.273,0.147,0.413,0.287,0.413,0.427c0,0.042,0,0.042-0.035,0.147c-0.035,0.112-0.07,0.371-0.091,0.693
		c-0.035,0.427-0.077,1.701-0.077,2.219c0,0.07,0,0.196,0,0.35c1.008-0.371,1.631-0.693,2.387-1.239
		c0.532-0.385,1.016-0.805,1.358-1.176L41.389,37.842z"/>
	<path d="M42.936,39.417c0.875-0.469,1.813-1.176,2.632-1.988c0.693-0.679,1.142-1.246,1.142-1.449c0-0.133-0.112-0.245-0.393-0.399
		c0.077-0.028,0.092-0.028,0.141-0.028c0.203,0,0.378,0.063,0.602,0.21c0.238,0.161,0.364,0.322,0.364,0.455
		c0,0.063-0.007,0.077-0.28,0.308c-0.069,0.056-0.069,0.056-0.566,0.532c-0.49,0.469-0.532,0.504-0.833,0.756
		c0.272,0.203,0.392,0.308,0.427,0.392c0.028,0.07,0.042,0.399,0.049,1.029c0.007,0.49,0.021,0.938,0.035,1.337
		c0,0.154,0.007,0.357,0.007,0.399c0,0.245-0.049,0.35-0.161,0.35c-0.161,0-0.476-0.385-0.476-0.588c0-0.049,0-0.049,0.042-0.182
		c0.063-0.175,0.126-1.043,0.126-1.722c0-0.343-0.015-0.553-0.042-0.665c-0.021-0.07-0.049-0.105-0.154-0.217
		c-0.49,0.392-0.994,0.749-1.344,0.959c-0.393,0.231-0.896,0.476-1.26,0.609L42.936,39.417z"/>
	<path d="M50.517,36.394c0.672,0.168,1.078,0.329,1.352,0.525c0.161,0.112,0.237,0.266,0.237,0.476c0,0.231-0.076,0.392-0.195,0.392
		c-0.077,0-0.112-0.035-0.302-0.28c-0.343-0.455-0.595-0.686-1.141-1.029L50.517,36.394z M55.494,36.792
		c-0.351,0.658-0.777,1.211-1.471,1.883c-0.644,0.623-1.077,0.973-1.967,1.596c-0.329,0.231-0.364,0.259-0.413,0.322
		c-0.111,0.133-0.153,0.168-0.245,0.168c-0.286,0-0.818-0.672-0.818-1.029c0-0.042,0.007-0.07,0.035-0.14
		c0.14,0.21,0.153,0.224,0.252,0.308c0.104,0.098,0.202,0.147,0.279,0.147c0.119,0,0.336-0.091,0.68-0.294
		c0.783-0.455,1.057-0.651,1.673-1.155c0.86-0.7,1.281-1.127,1.883-1.869L55.494,36.792z"/>
	<path d="M57.104,37.542c0.581,0.119,0.994,0.259,1.226,0.413c0.188,0.119,0.266,0.259,0.266,0.462c0,0.182-0.091,0.336-0.196,0.336
		c-0.069,0-0.111-0.028-0.217-0.161c-0.35-0.441-0.665-0.707-1.12-0.959L57.104,37.542z M62.508,37.367
		c-0.203,0.308-0.567,0.728-1.043,1.197c-0.742,0.714-1.491,1.295-2.653,2.037c-0.301,0.196-0.447,0.301-0.539,0.385
		c-0.056,0.049-0.104,0.07-0.16,0.07c-0.141,0-0.302-0.133-0.497-0.42c-0.126-0.189-0.218-0.406-0.218-0.539
		c0-0.063,0.021-0.112,0.063-0.161c0.133,0.266,0.329,0.434,0.524,0.434c0.154,0,0.616-0.231,1.345-0.686
		c1.28-0.784,2.323-1.596,3.094-2.38L62.508,37.367z M57.874,36.303c1.12,0.266,1.477,0.483,1.477,0.889
		c0,0.196-0.084,0.35-0.188,0.35c-0.077,0-0.077,0-0.378-0.371c-0.267-0.315-0.588-0.574-0.959-0.77L57.874,36.303z M60.744,35.743
		c0.749,0.329,1.085,0.609,1.085,0.903c0,0.133-0.042,0.28-0.099,0.336c-0.014,0.021-0.049,0.035-0.084,0.035
		c-0.077,0-0.098-0.021-0.195-0.21c-0.231-0.427-0.406-0.651-0.764-0.994L60.744,35.743z M61.395,35.294
		c0.784,0.259,1.134,0.518,1.134,0.833c0,0.203-0.069,0.357-0.168,0.357c-0.063,0-0.104-0.042-0.182-0.175
		c-0.203-0.357-0.44-0.623-0.833-0.938L61.395,35.294z"/>
	<path d="M67.408,38.605c0.56-0.609,0.734-0.819,1.05-1.26c0.161-0.231,0.21-0.308,0.21-0.35c0-0.028-0.028-0.056-0.063-0.056
		s-0.188,0.035-0.518,0.126c-0.623,0.161-1.085,0.315-1.68,0.539c0.21,0.896,0.524,2.107,0.847,3.22
		c0.028,0.091,0.042,0.161,0.042,0.21c0,0.105-0.07,0.189-0.161,0.189c-0.196,0-0.581-0.434-0.581-0.644
		c0-0.007,0-0.007,0.007-0.091c0-0.014,0-0.021,0-0.14c0-0.378-0.259-1.694-0.511-2.625c-0.791,0.294-0.994,0.385-1.19,0.546
		c-0.056,0.042-0.133,0.07-0.182,0.07c-0.266,0-0.77-0.553-0.77-0.84c0-0.042,0.007-0.07,0.027-0.126
		c0.168,0.252,0.351,0.371,0.574,0.371c0.217,0,0.637-0.098,1.449-0.343c-0.189-0.756-0.273-0.994-0.413-1.197
		c-0.119-0.168-0.294-0.252-0.581-0.28c0.091-0.105,0.196-0.14,0.399-0.14c0.217,0,0.538,0.07,0.721,0.154
		c0.126,0.063,0.188,0.14,0.188,0.238c0,0.035,0,0.049-0.021,0.112c-0.014,0.049-0.021,0.119-0.021,0.189
		c0,0.168,0.035,0.406,0.112,0.812c0.672-0.196,1.631-0.497,1.876-0.595c0.119-0.042,0.154-0.056,0.238-0.119
		c0.056-0.028,0.091-0.042,0.146-0.042c0.238,0,0.833,0.49,0.833,0.686c0,0.077-0.063,0.133-0.23,0.189
		c-0.133,0.042-0.161,0.063-0.336,0.217c-0.455,0.399-1.071,0.861-1.407,1.05L67.408,38.605z"/>
	<path d="M7.145,53.103c1.513-0.448,2.479-1.022,3.276-1.946c0.826-0.938,1.246-2.086,1.246-3.374c0-1.358-0.546-2.436-1.582-3.094
		c-0.616-0.406-1.54-0.644-2.422-0.644c-0.168,0-0.267,0-0.49,0.028c0.336,0.49,0.434,0.756,0.434,1.162
		c0,1.092-0.783,3.136-1.848,4.844c-0.882,1.4-1.568,2.086-2.086,2.086c-0.238,0-0.462-0.112-0.616-0.294
		c-0.126-0.168-0.154-0.224-0.392-0.896c-0.126-0.364-0.21-0.532-0.616-1.316c-0.224-0.448-0.322-0.826-0.322-1.274
		c0-0.882,0.477-1.918,1.261-2.772c1.134-1.204,2.981-1.96,4.815-1.96c1.414,0,2.716,0.462,3.612,1.288
		c0.896,0.826,1.344,1.932,1.344,3.29c0,1.75-1.022,3.304-2.786,4.242c-0.812,0.434-1.54,0.658-2.729,0.868L7.145,53.103z
		 M2.539,48.749c0,0.672,0.21,1.358,0.56,1.848c0.196,0.252,0.378,0.406,0.532,0.406c0.308,0,0.979-0.756,1.666-1.848
		c1.036-1.652,1.778-3.458,1.778-4.326c0-0.21-0.042-0.35-0.196-0.7C4.442,44.563,2.539,46.593,2.539,48.749z"/>
	<path d="M19.362,46.299c0.153,0,0.266-0.014,0.35-0.028c0.196-0.014,0.546-0.042,1.036-0.112v-3.43c0-0.616,0-0.644-0.015-0.994
		c1.429,0.252,1.498,0.28,1.498,0.406c0,0.126-0.098,0.168-0.644,0.294v1.316h1.092c0.252-0.35,0.336-0.448,0.603-0.77
		c0.392,0.378,0.504,0.49,0.84,0.854c0.069,0.07,0.098,0.112,0.098,0.14c0,0.056-0.056,0.098-0.126,0.098h-2.506v1.988l0.35-0.042
		c0.966-0.14,1.61-0.224,1.946-0.266v0.168c-1.12,0.364-2.716,0.728-5.656,1.316c-0.126,0.476-0.153,0.532-0.266,0.532
		c-0.14,0-0.21-0.196-0.504-1.358c0.812-0.014,0.812-0.014,1.092-0.042v-2.52c0-0.294-0.014-0.518-0.084-0.994
		c0.28,0.056,0.49,0.084,0.616,0.098c0.728,0.098,0.868,0.154,0.868,0.28c0,0.112-0.028,0.126-0.588,0.308V46.299z M17.822,54.055
		c0.951-0.63,1.357-0.952,2.113-1.652c0.63-0.588,0.742-0.714,1.008-1.05c1.219,0.56,1.316,0.616,1.316,0.728
		c0,0.084-0.112,0.14-0.252,0.14c0,0-0.028,0-0.042,0c-0.084,0-0.21-0.014-0.378-0.014c-2.156,1.414-2.338,1.512-3.668,2.03
		L17.822,54.055z M23.086,50.611c-3.262,0.308-3.262,0.308-4.34,0.35c-0.168,0.504-0.183,0.532-0.28,0.532
		c-0.154,0-0.224-0.252-0.392-1.428c0.518,0.028,1.456,0.042,2.674,0.042c0.448,0,0.448,0,2.086-0.056
		c1.176-1.148,2.044-2.058,2.702-2.898c1.078,0.462,1.204,0.532,1.204,0.63c0,0.126-0.154,0.168-0.589,0.168
		c-0.812,0.728-1.945,1.54-2.884,2.086c1.582-0.056,1.582-0.056,4.019-0.196c-0.504-0.42-0.714-0.574-1.246-0.91l0.111-0.168
		c0.994,0.322,1.849,0.728,2.591,1.19c0.35,0.224,0.476,0.462,0.476,0.896c0,0.378-0.098,0.602-0.266,0.602
		c-0.141,0-0.267-0.112-0.868-0.84c-0.141-0.154-0.28-0.294-0.532-0.532c-2.17,0.308-2.17,0.308-3.542,0.448v1.68
		c0,0.518,0.014,1.288,0.056,2.058c-0.014,0.112-0.027,0.126-0.14,0.154c-0.21,0.042-0.392,0.056-0.56,0.056
		c-0.238,0-0.294-0.028-0.322-0.14c0.028-1.26,0.042-1.974,0.042-2.128V50.611z M20.034,47.615c0.909,0.35,1.063,0.406,1.525,0.616
		c0.057-0.07,0.112-0.14,0.141-0.182c0.672-0.84,0.741-0.952,1.092-1.568c0.979,0.42,1.147,0.504,1.147,0.588
		c0,0.112-0.168,0.182-0.42,0.182c-0.042,0-0.084,0-0.168,0c-0.14,0.098-0.252,0.196-0.321,0.252
		c-0.854,0.63-0.854,0.63-1.204,0.868c0.602,0.336,0.77,0.532,0.77,0.938c0,0.168-0.084,0.462-0.168,0.588
		c-0.028,0.042-0.112,0.084-0.168,0.084c-0.112,0-0.126-0.014-0.462-0.476c-0.392-0.56-1.176-1.288-1.834-1.736L20.034,47.615z
		 M25.466,44.465c0.392-0.196,0.77-0.42,1.288-0.742c0.924-0.588,1.26-0.826,1.596-1.176c1.12,0.616,1.26,0.7,1.26,0.798
		c0,0.07-0.126,0.14-0.266,0.14c-0.056,0-0.224-0.014-0.476-0.056c-1.582,0.7-2.534,1.064-3.402,1.316v1.12
		c0,0.14,0.014,0.168,0.084,0.196c0.112,0.056,0.518,0.07,1.526,0.07c0.56,0,1.344-0.042,1.483-0.07
		c0.112-0.028,0.112-0.028,0.309-0.448c0.042-0.084,0.21-0.602,0.518-1.54l0.154,0.056l-0.084,1.61v0.126
		c0,0.14,0.027,0.154,0.279,0.224c0.154,0.028,0.28,0.168,0.28,0.28c0,0.392-0.658,0.49-3.43,0.49c-0.868,0-1.4-0.042-1.652-0.112
		c-0.195-0.07-0.294-0.196-0.336-0.476c0.014-1.148,0.014-1.148,0.014-1.568v-1.82c0-0.854,0-0.854-0.014-1.162
		c0.309,0.042,0.519,0.084,0.672,0.098c0.616,0.098,0.813,0.154,0.813,0.28c0,0.098-0.07,0.126-0.616,0.294V44.465z M25.2,51.227
		c1.063,0.322,2.226,0.868,2.827,1.302c0.322,0.238,0.477,0.56,0.477,1.022c0,0.294-0.14,0.546-0.322,0.546
		c-0.084,0-0.168-0.07-0.322-0.266c-0.615-0.812-1.693-1.764-2.729-2.45L25.2,51.227z"/>
	<path d="M37.455,51.227c0,0.154,0.027,1.162,0.069,3.052c0,0.196-0.126,0.252-0.518,0.252c-0.126,0-0.224,0-0.28,0.014h-0.014
		c-0.112,0-0.168-0.07-0.182-0.182c0.069-2.03,0.084-2.912,0.084-4.732c0-2.772-0.042-6.286-0.084-7.896
		c0.462,0.266,0.588,0.35,0.993,0.658h1.582c0.252-0.294,0.336-0.378,0.631-0.658c0.378,0.322,0.504,0.42,0.84,0.742
		c0.111,0.112,0.14,0.154,0.14,0.21c0,0.084-0.14,0.154-0.504,0.252c-0.672,1.148-0.798,1.344-0.882,1.484l-0.924,1.484
		c0.644,0.588,0.896,0.854,1.176,1.26c0.35,0.504,0.532,1.12,0.532,1.834c0,0.63-0.141,1.176-0.421,1.582
		c-0.308,0.434-0.672,0.63-1.413,0.728c-0.042-0.518-0.267-0.728-0.826-0.812V51.227z M37.469,50.275
		c0.574,0.056,0.854,0.07,1.092,0.07c0.351,0,0.435-0.028,0.532-0.196c0.126-0.224,0.21-0.644,0.21-1.134
		c0-1.176-0.35-2.002-1.288-2.996c0.504-1.204,0.91-2.352,1.162-3.304h-1.708V50.275z M46.499,49.407
		c-0.435,0.994-0.714,1.498-1.19,2.128c-0.602,0.826-1.47,1.666-2.338,2.254c-0.392,0.28-0.686,0.434-1.357,0.728l-0.127-0.168
		c0.826-0.49,1.219-0.812,1.876-1.526c0.994-1.064,1.582-1.974,2.227-3.416h-1.134c-0.448,0.882-0.7,1.274-1.316,1.974
		c-1.036,1.176-1.904,1.82-3.29,2.408l-0.14-0.154c1.288-0.826,1.764-1.246,2.632-2.338c0.714-0.882,0.91-1.204,1.176-1.89H42.48
		c-0.363,0.49-0.699,0.882-1.162,1.33c-0.854,0.84-1.386,1.232-2.296,1.694l-0.098-0.21c0.602-0.406,0.896-0.672,1.498-1.358
		c0.812-0.924,1.33-1.722,1.848-2.856h-1.399c-0.141,0-0.322,0.014-0.658,0.028l-0.112-0.49c0.351,0.084,0.966,0.14,1.33,0.14h5.432
		c0.337-0.434,0.448-0.56,0.784-0.952c0.546,0.448,0.7,0.602,1.19,1.078c0.042,0.042,0.07,0.084,0.07,0.112
		c0,0.056-0.042,0.084-0.141,0.084h-5.488c-0.266,0.574-0.321,0.686-0.573,1.078h4.438c0.21-0.252,0.28-0.336,0.504-0.574
		c0.351,0.252,0.448,0.322,0.742,0.574c0.098,0.098,0.14,0.154,0.14,0.196c0,0.14-0.153,0.28-0.476,0.42
		c-0.252,2.254-0.336,2.646-0.672,3.514c-0.322,0.812-0.7,1.064-1.75,1.162c-0.07-0.35-0.154-0.518-0.378-0.672
		c-0.112-0.07-0.267-0.126-0.561-0.196l-0.321-0.07c-0.099-0.028-0.21-0.056-0.309-0.084v-0.21c0.91,0.084,1.54,0.126,2.072,0.126
		c0.266,0,0.378-0.14,0.574-0.77c0.237-0.77,0.406-1.89,0.434-3.094H46.499z M42.327,46.803c-0.015,0.154-0.099,0.182-0.477,0.196
		c-0.111,0-0.182,0.014-0.224,0.014c-0.014,0-0.028,0-0.042,0c-0.154,0-0.21-0.056-0.21-0.21c0.027-0.882,0.042-1.512,0.042-3.57
		c0-0.35-0.015-0.854-0.042-1.498c0.504,0.252,0.658,0.35,1.078,0.658h3.29c0.224-0.294,0.294-0.378,0.531-0.658
		c0.393,0.252,0.504,0.336,0.854,0.602c0.084,0.084,0.112,0.126,0.112,0.168c0,0.084-0.07,0.14-0.421,0.364c0,0.406,0,0.77,0,0.98
		c0.015,1.834,0.015,1.834,0.042,2.758c0,0.028,0,0.042,0,0.056c0,0.154-0.098,0.182-0.756,0.182c-0.126,0-0.182-0.042-0.195-0.154
		v-0.35h-3.584V46.803z M45.911,42.715h-3.584v1.4h3.584V42.715z M42.327,44.437v1.582h3.584v-1.582H42.327z"/>
	<path d="M54.512,50.583c1.05-1.134,1.694-1.974,2.282-2.94c0.546-0.924,0.938-1.764,1.134-2.436c0.504,0.168,1.246,0.434,1.4,0.504
		c0.056,0.028,0.111,0.084,0.111,0.126c0,0.112-0.195,0.182-0.56,0.182c-0.014,0-0.056,0-0.098-0.014
		c-0.505,0.812-0.742,1.148-1.246,1.792c0.882,0.168,1.078,0.238,1.078,0.35c0,0.126-0.112,0.182-0.547,0.294v2.31
		c0,1.036,0,1.036,0,3.332c-0.042,0.168-0.126,0.196-0.518,0.21c-0.112,0-0.182,0.014-0.224,0.014c-0.028,0-0.042,0-0.042,0
		c-0.154,0-0.225-0.056-0.225-0.182c0.057-2.898,0.057-2.898,0.057-3.374v-2.408c-0.952,1.162-1.513,1.68-2.479,2.408L54.512,50.583
		z M62.142,43.387v-0.882c0-0.392,0-0.476-0.027-0.826c1.497,0.21,1.497,0.21,1.497,0.336s-0.168,0.21-0.56,0.294
		c0,0.434,0,0.798,0,1.078h1.862c0.392-0.434,0.531-0.574,0.91-0.994c0.588,0.476,0.77,0.63,1.344,1.134
		c0.027,0.028,0.042,0.056,0.042,0.084c0,0.056-0.07,0.098-0.126,0.098h-4.032c0,0.742,0,0.742,0.014,1.274
		c-0.014,0.098-0.042,0.154-0.098,0.182c-0.112,0.042-0.364,0.07-0.602,0.07c-0.168,0-0.225-0.042-0.238-0.182
		c0.014-0.602,0.014-0.602,0.014-1.344h-2.813c0,0.784,0,0.784,0,1.274c-0.028,0.154-0.112,0.182-0.477,0.196
		c-0.069,0-0.14,0.014-0.195,0.014c-0.015,0-0.028,0-0.028,0c-0.154,0-0.225-0.056-0.238-0.182c0.028-0.518,0.028-0.518,0.028-1.302
		h-2.464c-0.448,0-0.84,0.042-1.177,0.112l-0.084-0.574c0.574,0.112,0.784,0.14,1.261,0.14h2.464c0-0.112,0-0.14,0-0.21
		c0-0.616-0.015-1.204-0.042-1.526c1.525,0.182,1.525,0.182,1.525,0.322c0,0.126-0.042,0.14-0.573,0.336v1.078H62.142z
		 M62.016,49.659c0.561-0.42,0.924-0.742,1.512-1.358c0.925-0.966,1.4-1.582,1.723-2.212c1.33,0.756,1.344,0.77,1.344,0.882
		c0,0.07-0.112,0.14-0.238,0.14s-0.252-0.014-0.405-0.028c-1.345,1.288-2.604,2.212-3.935,2.898v2.996
		c0,0.07,0.084,0.112,0.225,0.126c0.195,0.028,1.581,0.07,1.932,0.07c0.476,0,1.218-0.042,1.344-0.084
		c0.154-0.042,0.196-0.112,0.351-0.518c0.224-0.602,0.405-1.19,0.714-2.324h0.182l-0.182,2.24c-0.015,0.224-0.015,0.336-0.015,0.35
		c0,0.098,0.028,0.126,0.225,0.196c0.224,0.084,0.308,0.182,0.308,0.35c0,0.238-0.168,0.392-0.546,0.476
		c-0.308,0.056-1.414,0.112-2.534,0.112c-1.722,0-2.268-0.042-2.576-0.21c-0.266-0.14-0.363-0.35-0.378-0.798
		c0.015-2.296,0.015-2.296,0.015-2.604v-3.584c0-0.42-0.028-1.05-0.07-1.414c1.428,0.21,1.568,0.238,1.568,0.35
		c0,0.126-0.196,0.224-0.561,0.308V49.659z"/>
	<path d="M72.44,44.157c0.673,0.532,0.994,0.658,1.75,0.658c0.448,0,0.854-0.056,1.498-0.182c0.309-0.602,0.49-1.12,0.49-1.428
		c0-0.378-0.266-0.602-0.994-0.784c0.238-0.126,0.364-0.154,0.63-0.154c0.322,0,0.729,0.084,1.093,0.238
		c0.35,0.14,0.504,0.294,0.504,0.462c0,0.098-0.057,0.196-0.225,0.406c-0.126,0.168-0.294,0.42-0.405,0.574
		c-0.253,0.406-0.253,0.406-0.351,0.546c1.176-0.336,1.554-0.504,2.017-0.896c0.084-0.07,0.168-0.098,0.266-0.098
		c0.546,0,0.938,0.196,0.938,0.462c0,0.168-0.182,0.308-0.602,0.448c-1.246,0.406-1.918,0.574-3.052,0.798
		c-0.252,0.35-0.42,0.602-0.742,1.092c-0.378,0.588-0.49,0.742-0.756,1.12c0.784-0.406,1.273-0.56,1.806-0.56
		c0.826,0,1.442,0.56,1.568,1.4c0.237-0.112,0.237-0.112,1.372-0.686c1.386-0.7,1.722-0.924,1.722-1.176
		c0-0.238-0.238-0.49-0.644-0.658c0.153-0.07,0.224-0.084,0.321-0.084c0.616,0,1.582,0.854,1.582,1.414
		c0,0.252-0.111,0.35-0.504,0.434c-0.84,0.196-2.66,0.896-3.752,1.442c0.014,0.448,0.014,0.532,0.014,1.134
		c0,0.63-0.042,1.064-0.111,1.204c-0.07,0.154-0.225,0.266-0.393,0.266c-0.266,0-0.447-0.182-0.447-0.42c0-0.07,0-0.14,0.014-0.238
		c0.056-0.406,0.084-0.882,0.098-1.498c-0.868,0.476-1.273,0.756-1.638,1.106c-0.462,0.448-0.686,0.882-0.686,1.302
		c0,0.756,0.77,1.12,2.338,1.12c0.979,0,1.96-0.14,2.813-0.392c0.098-0.028,0.196-0.042,0.267-0.042c0.434,0,0.979,0.392,0.979,0.7
		c0,0.182-0.154,0.322-0.434,0.378c-0.574,0.112-1.639,0.196-2.507,0.196c-1.315,0-2.281-0.14-2.842-0.406
		c-0.714-0.336-1.036-0.798-1.036-1.484c0-0.658,0.322-1.26,1.009-1.918c0.363-0.35,0.812-0.672,1.735-1.246
		c-0.014-0.588-0.056-0.812-0.195-1.106c-0.126-0.252-0.406-0.42-0.715-0.42c-0.924,0-2.029,0.742-3.037,2.03
		c-0.267,0.364-0.379,0.448-0.519,0.448c-0.224,0-0.378-0.294-0.378-0.742c0-0.294,0.014-0.308,0.406-0.63
		c0.994-0.784,1.609-1.512,2.604-3.01c-0.462,0.07-0.644,0.084-0.938,0.084c-0.952,0-1.442-0.252-2.086-1.078L72.44,44.157z"/>
	<path d="M20.809,56.491c0.273,0.315,0.511,0.413,0.98,0.413c0.133,0,0.217-0.007,0.405-0.035c0.043-0.315,0.077-0.658,0.077-0.777
		c0-0.252-0.111-0.364-0.455-0.469c0.077-0.063,0.112-0.077,0.203-0.077c0.154,0,0.42,0.07,0.609,0.161
		c0.175,0.091,0.259,0.175,0.259,0.287c0,0.063,0,0.063-0.091,0.182c-0.084,0.119-0.133,0.252-0.217,0.63
		c0.665-0.14,1.078-0.301,1.315-0.497c0.077-0.07,0.105-0.077,0.176-0.077c0.098,0,0.252,0.028,0.328,0.056
		c0.07,0.028,0.112,0.084,0.112,0.154c0,0.126-0.14,0.21-0.602,0.371c-0.351,0.119-0.89,0.245-1.407,0.329
		c-0.063,0.315-0.119,0.742-0.133,1.057c0.398-0.133,0.742-0.203,1.12-0.224c0-0.021,0-0.035,0-0.042
		c0-0.133-0.057-0.231-0.225-0.385c0.035-0.007,0.063-0.014,0.077-0.014c0.182,0,0.385,0.189,0.448,0.42
		c0.623,0.07,1.008,0.21,1.357,0.497c0.315,0.273,0.477,0.637,0.477,1.106c0,1.064-1.085,1.862-2.73,2.002l-0.021-0.112
		c1.421-0.35,2.212-1.078,2.212-2.051c0-0.427-0.183-0.777-0.511-0.994c-0.196-0.126-0.435-0.196-0.813-0.245
		c-0.104,0.357-0.217,0.595-0.44,0.959c-0.245,0.385-0.455,0.644-0.749,0.91c0.091,0.175,0.091,0.175,0.175,0.294
		c0.049,0.077,0.077,0.168,0.077,0.294c0,0.189-0.063,0.322-0.161,0.322c-0.119,0-0.238-0.189-0.406-0.616
		c-0.448,0.406-0.931,0.665-1.211,0.665c-0.168,0-0.245-0.077-0.336-0.322c-0.049-0.119-0.063-0.147-0.133-0.266
		c-0.105-0.168-0.134-0.266-0.134-0.42c0-0.364,0.218-0.728,0.658-1.099c0.26-0.21,0.532-0.378,0.945-0.56
		c0.007-0.105,0.007-0.105,0.042-0.518c0.007-0.119,0.021-0.231,0.063-0.623c-0.133,0.007-0.195,0.014-0.266,0.014
		c-0.553,0-0.882-0.182-1.169-0.644L20.809,56.491z M21.054,59.431c-0.146,0.224-0.217,0.441-0.217,0.658
		c0,0.259,0.104,0.427,0.266,0.427c0.225,0,0.658-0.238,1.043-0.567c-0.084-0.455-0.104-0.686-0.104-1.127c0-0.049,0-0.14,0-0.252
		C21.516,58.877,21.271,59.088,21.054,59.431z M22.355,58.654c0,0.378,0.035,0.728,0.099,1.022c0.546-0.567,0.798-0.938,1.001-1.512
		c-0.399,0.035-0.665,0.098-1.1,0.266C22.355,58.528,22.355,58.604,22.355,58.654z"/>
	<path d="M37.947,60.047c-0.673,0.91-1.59,1.449-2.457,1.449c-0.532,0-0.945-0.217-1.162-0.595
		c-0.141-0.245-0.196-0.588-0.196-1.183c0-0.385,0.021-1.05,0.056-1.687c0.042-0.756,0.05-0.952,0.05-1.204
		c0-0.602-0.07-0.721-0.567-0.931c0.077-0.056,0.119-0.07,0.196-0.07c0.16,0,0.413,0.063,0.63,0.161
		c0.266,0.126,0.405,0.266,0.405,0.413c0,0.049-0.007,0.091-0.063,0.252c-0.133,0.42-0.364,2.541-0.364,3.36
		c0,0.427,0.084,0.679,0.28,0.84c0.154,0.119,0.378,0.189,0.623,0.189c0.476,0,1.063-0.168,1.596-0.448
		c0.322-0.168,0.525-0.315,0.89-0.623L37.947,60.047z M36.239,56.428c0.378,0.133,0.672,0.308,0.902,0.525
		c0.119,0.119,0.175,0.238,0.175,0.399c0,0.182-0.076,0.308-0.182,0.308c-0.056,0-0.077-0.021-0.196-0.238
		c-0.23-0.392-0.447-0.665-0.756-0.924L36.239,56.428z M36.862,55.938c0.44,0.147,0.699,0.273,0.938,0.469
		c0.126,0.105,0.168,0.189,0.168,0.35c0,0.203-0.063,0.336-0.161,0.336c-0.063,0-0.091-0.035-0.182-0.196
		c-0.189-0.322-0.441-0.595-0.813-0.882L36.862,55.938z"/>
	<path d="M49.583,56.21c0.28,0.112,0.665,0.217,0.791,0.217c0.027,0,0.042,0,0.069-0.007c0.021,0,0.035,0,0.042,0
		c0.176,0,0.273,0.077,0.273,0.217c0,0.105-0.119,0.21-0.385,0.364c-0.252,0.133-0.343,0.175-1.022,0.434
		c0.364,0.518,0.749,1.12,0.959,1.512c0.112,0.203,0.154,0.35,0.154,0.525c0,0.273-0.049,0.371-0.189,0.371
		c-0.076,0-0.118-0.021-0.217-0.119c-0.14-0.133-0.314-0.259-0.469-0.329c-0.357-0.168-0.819-0.266-1.267-0.266
		c-0.806,0-1.31,0.315-1.31,0.819c0,0.301,0.203,0.56,0.546,0.707c0.245,0.098,0.596,0.154,0.974,0.154
		c0.266,0,0.427-0.014,0.608-0.049c0.035-0.007,0.063-0.014,0.084-0.014c0.183,0,0.435,0.224,0.435,0.378
		c0,0.175-0.119,0.217-0.609,0.217c-0.525,0-1.008-0.063-1.372-0.189c-0.63-0.21-1.001-0.637-1.001-1.141
		c0-0.7,0.693-1.12,1.841-1.12c0.47,0,0.994,0.07,1.372,0.182c-0.153-0.483-0.448-1.008-0.84-1.554
		c-0.504,0.154-0.959,0.231-1.421,0.231c-0.532,0-0.931-0.189-1.288-0.616l0.077-0.07c0.378,0.28,0.679,0.385,1.12,0.385
		c0.371,0,0.826-0.077,1.295-0.217c-0.294-0.385-0.693-0.756-0.974-0.91c-0.217-0.119-0.266-0.175-0.266-0.273
		c0-0.161,0.175-0.259,0.477-0.259c0.252,0,0.504,0.042,0.818,0.147l-0.035,0.105c-0.161-0.021-0.266-0.028-0.314-0.028
		c-0.147,0-0.217,0.028-0.217,0.077c0,0.035,0.069,0.126,0.286,0.371c0.077,0.091,0.26,0.315,0.539,0.672
		c0.092-0.042,0.092-0.042,0.441-0.182c0.161-0.07,0.294-0.133,0.511-0.259c-0.182-0.147-0.188-0.154-0.566-0.406L49.583,56.21z"/>
	<path d="M61.19,58.437c-0.511,1.176-0.657,1.589-0.657,1.869c0,0.056,0,0.056,0.042,0.238c0.007,0.035,0.014,0.077,0.014,0.112
		c0,0.098-0.07,0.175-0.154,0.175c-0.195,0-0.553-0.273-0.77-0.595c-0.238-0.343-0.406-0.84-0.477-1.4
		c-0.042-0.308-0.049-0.483-0.049-1.232c-0.007-0.651-0.056-0.812-0.356-1.204c0.021,0,0.034,0,0.063,0
		c0.112,0,0.315,0.133,0.525,0.343c0.21,0.203,0.314,0.392,0.314,0.553c0,0.042-0.007,0.098-0.021,0.182
		c-0.084,0.427-0.126,0.756-0.126,1.043c0,0.378,0.056,0.728,0.161,1.015c0.104,0.287,0.188,0.413,0.363,0.546
		c0.077-0.112,0.077-0.112,0.231-0.371c0.224-0.378,0.224-0.378,0.588-0.987c0.112-0.182,0.112-0.182,0.203-0.336L61.19,58.437z
		 M62.682,57.169c0.882,0.196,1.582,1.127,1.582,2.093c0,0.336-0.14,0.553-0.35,0.553c-0.07,0-0.112-0.014-0.21-0.077
		c-0.091-0.063-0.225-0.084-0.525-0.084c-0.161,0-0.294,0-0.532,0.014l-0.021-0.105c0.566-0.154,0.882-0.245,0.945-0.266
		c0.14-0.049,0.16-0.077,0.16-0.21c0-0.259-0.098-0.665-0.217-0.917c-0.188-0.406-0.469-0.7-0.868-0.917L62.682,57.169z"/>
</g>
<rect x="0.125" y="7.125" fill="none" stroke="#008CD6" stroke-width="0.25" width="84.002" height="14"/>
<line fill="none" stroke="#008CD6" stroke-width="0.25" x1="14.125" y1="21.125" x2="14.125" y2="7.125"/>
<line fill="none" stroke="#008CD6" stroke-width="0.25" x1="16.458" y1="21.125" x2="16.458" y2="7.125"/>
<line fill="none" stroke="#008CD6" stroke-width="0.25" x1="30.458" y1="21.125" x2="30.458" y2="7.125"/>
<line fill="none" stroke="#008CD6" stroke-width="0.25" x1="35.125" y1="21.125" x2="35.125" y2="7.125"/>
<line fill="none" stroke="#008CD6" stroke-width="0.25" x1="49.125" y1="21.125" x2="49.125" y2="7.125"/>
<line fill="none" stroke="#008CD6" stroke-width="0.25" x1="53.791" y1="21.125" x2="53.791" y2="7.125"/>
<line fill="none" stroke="#008CD6" stroke-width="0.25" x1="67.791" y1="21.125" x2="67.791" y2="7.125"/>
<line fill="none" stroke="#008CD6" stroke-width="0.25" x1="70.123" y1="21.125" x2="70.123" y2="7.125"/>
<g>
	<polyline fill="none" stroke="#008CD6" stroke-width="0.25" points="14.133,7.125 14.133,0.125 70.123,0.125 70.123,7.125 	"/>
	<line fill="none" stroke="#008CD6" stroke-width="0.25" x1="21.133" y1="7.125" x2="21.133" y2="0.125"/>
	<line fill="none" stroke="#008CD6" stroke-width="0.25" x1="28.133" y1="7.125" x2="28.133" y2="0.125"/>
	<line fill="none" stroke="#008CD6" stroke-width="0.25" x1="35.133" y1="7.125" x2="35.133" y2="0.125"/>
	<line fill="none" stroke="#008CD6" stroke-width="0.25" x1="42.133" y1="7.125" x2="42.133" y2="0.125"/>
	<line fill="none" stroke="#008CD6" stroke-width="0.25" x1="49.133" y1="7.125" x2="49.133" y2="0.125"/>
	<line fill="none" stroke="#008CD6" stroke-width="0.25" x1="56.133" y1="7.125" x2="56.133" y2="0.125"/>
	<line fill="none" stroke="#008CD6" stroke-width="0.25" x1="63.133" y1="7.125" x2="63.133" y2="0.125"/>
</g>
<g>
	<polyline fill="none" stroke="#008CD6" stroke-width="0.25" points="26.396,21.208 26.396,28.208 19.395,28.208 19.395,21.208 	"/>
</g>
<g>
	<polyline fill="none" stroke="#008CD6" stroke-width="0.25" points="39.191,21.208 39.191,28.208 32.19,28.208 32.19,21.208 	"/>
</g>
<g>
	<polyline fill="none" stroke="#008CD6" stroke-width="0.25" points="51.987,21.208 51.987,28.208 44.986,28.208 44.986,21.208 	"/>
</g>
<g>
	<polyline fill="none" stroke="#008CD6" stroke-width="0.25" points="64.783,21.208 64.783,28.208 57.782,28.208 57.782,21.208 	"/>
</g>
</svg>
