<?xml version="1.0" encoding="utf-8"?>
<!-- Generator: Adobe Illustrator 12.0.0, SVG Export Plug-In . SVG Version: 6.00 Build 51448)  -->
<!DOCTYPE svg PUBLIC "-//W3C//DTD SVG 1.1//EN" "http://www.w3.org/Graphics/SVG/1.1/DTD/svg11.dtd" [
	<!ENTITY ns_svg "http://www.w3.org/2000/svg">
	<!ENTITY ns_xlink "http://www.w3.org/1999/xlink">
]>
<svg  version="1.1" id="レイヤー_1" xmlns="&ns_svg;" xmlns:xlink="&ns_xlink;" width="137" height="93.649"
	 viewBox="0 0 137 93.649" overflow="visible" enable-background="new 0 0 137 93.649" xml:space="preserve">
<g>
	<path d="M29.984,5.764c-0.599,2.1-0.767,2.867-0.767,3.507c-0.011,0.294-0.084,0.431-0.252,0.431c-0.179,0-0.336-0.137-0.431-0.368
		c-0.231-0.546-0.378-1.459-0.378-2.383c0-0.42,0.032-0.924,0.095-1.365c0.073-0.609,0.073-0.609,0.441-2.163
		c0.105-0.462,0.157-0.798,0.157-1.019c0-0.242-0.105-0.504-0.315-0.809c0.231,0.01,0.368,0.105,0.62,0.41
		c0.294,0.346,0.473,0.724,0.473,1.008c0,0.147-0.021,0.21-0.158,0.462c-0.525,0.987-0.84,2.236-0.84,3.381
		c0,0.525,0.042,0.84,0.178,1.407l0.998-2.572L29.984,5.764z M31.212,2.446c0.357,0.157,0.651,0.21,1.124,0.21
		c0.829,0,1.806-0.221,2.425-0.536c0.073-0.042,0.158-0.073,0.189-0.073c0.252,0,0.588,0.21,0.588,0.357
		c0,0.115-0.105,0.199-0.346,0.283c-0.389,0.137-0.819,0.231-1.313,0.294c0.315,0.241,0.409,0.367,0.409,0.514
		c0,0.042-0.01,0.095-0.021,0.168C34.236,3.853,34.226,4,34.205,4.924c0.399-0.147,0.546-0.231,0.851-0.504
		c0.042-0.032,0.105-0.074,0.137-0.074c0.042,0,0.178,0.042,0.252,0.074c0.136,0.084,0.22,0.178,0.22,0.273
		c0,0.094-0.073,0.21-0.199,0.294c-0.326,0.21-0.756,0.388-1.26,0.514c0.021,0.672,0.053,1.26,0.126,2.058
		c1.292,0.378,1.827,0.788,1.827,1.396c0,0.2-0.095,0.347-0.231,0.347c-0.084,0-0.158-0.042-0.273-0.158
		c-0.525-0.556-0.735-0.703-1.292-0.945c0,0.431-0.032,0.567-0.126,0.777c-0.21,0.41-0.767,0.641-1.543,0.641
		c-0.966,0-1.606-0.41-1.606-1.029c0-0.714,0.798-1.197,1.974-1.197c0.2,0,0.368,0.011,0.662,0.053V6.268c0-0.031,0-0.399,0-0.683
		c-0.336,0.032-0.515,0.042-0.746,0.042c-0.577,0-0.998-0.115-1.281-0.357c-0.242-0.199-0.347-0.409-0.389-0.798l0.147-0.031
		c0.095,0.325,0.21,0.472,0.452,0.598c0.168,0.084,0.515,0.137,0.84,0.137c0.305,0,0.662-0.042,0.977-0.105
		c0-0.21,0.011-1.292,0.011-1.407c0-0.357-0.032-0.472-0.158-0.651c-0.326,0.021-0.483,0.032-0.704,0.032
		c-0.703,0-1.26-0.147-1.743-0.441L31.212,2.446z M32.693,7.843c-0.798,0-1.344,0.304-1.344,0.735c0,0.357,0.399,0.578,1.029,0.578
		c0.556,0,0.966-0.147,1.155-0.41c0.084-0.115,0.137-0.273,0.158-0.462c0.01-0.063,0.021-0.252,0.021-0.305c0-0.01,0-0.01,0-0.01
		C33.396,7.885,33.06,7.843,32.693,7.843z"/>
	<path d="M41.744,10.394c0.62-0.504,1.029-0.935,1.386-1.512c0.546-0.893,0.893-2.111,0.893-3.192c0-1.04-0.378-1.68-0.998-1.68
		c-0.557,0-1.292,0.452-2.016,1.239c-0.2,0.2-0.263,0.242-0.431,0.242c-0.22,0-0.472-0.168-0.693-0.473
		c-0.179-0.241-0.284-0.514-0.284-0.704c0-0.136,0.042-0.231,0.168-0.388c0.095,0.462,0.305,0.725,0.578,0.725
		c0.147,0,0.42-0.116,0.966-0.41c0.892-0.483,1.239-0.599,1.774-0.599c0.483,0,0.998,0.273,1.302,0.704
		c0.252,0.368,0.399,0.914,0.399,1.543c0,1.239-0.472,2.468-1.302,3.392c-0.515,0.567-1.05,0.966-1.648,1.229L41.744,10.394z
		 M41.166,0.85c0.515,0.431,1.229,0.672,1.964,0.672h0.241c0.21,0,0.357,0.074,0.567,0.252c0.147,0.126,0.221,0.252,0.221,0.357
		c0,0.147-0.147,0.231-0.431,0.231c-0.441,0.01-0.441,0.01-2.614,0.64l-0.053-0.147c0.788-0.357,1.512-0.682,1.775-0.777
		C41.975,1.9,41.46,1.574,41.061,0.934L41.166,0.85z"/>
	<path d="M75.292,3.076c0.504,0.473,0.798,0.609,1.323,0.609c0.273,0,0.557-0.042,0.956-0.126c0.262-0.683,0.378-1.124,0.378-1.491
		c0-0.347-0.168-0.557-0.672-0.809c0.115-0.063,0.168-0.074,0.252-0.074c0.21,0,0.536,0.095,0.84,0.242
		c0.357,0.178,0.494,0.294,0.494,0.441c0,0.084-0.021,0.147-0.105,0.273c-0.042,0.084-0.263,0.515-0.641,1.292
		c0.777-0.273,0.872-0.325,1.166-0.578c0.084-0.073,0.116-0.084,0.221-0.084c0.409,0,0.714,0.137,0.714,0.315
		c0,0.273-0.651,0.535-2.321,0.924c-0.094,0.21-0.273,0.641-0.556,1.271c-0.315,0.725-1.124,2.488-1.218,2.667
		c-0.157,0.283-0.252,0.378-0.378,0.378c-0.178,0-0.325-0.326-0.325-0.746c0-0.21,0.021-0.273,0.115-0.378
		c0.231-0.252,0.357-0.41,0.504-0.63c0.515-0.767,0.893-1.48,1.313-2.468c-0.231,0.032-0.325,0.042-0.493,0.042
		c-0.378,0-0.662-0.063-0.924-0.22c-0.315-0.179-0.556-0.431-0.767-0.767L75.292,3.076z M80.846,3.664
		c0.725,0.063,1.313,0.252,1.795,0.578c0.41,0.263,0.662,0.578,0.662,0.819c0,0.179-0.105,0.305-0.273,0.305
		c-0.084,0-0.147-0.021-0.242-0.084c-0.294-0.179-0.493-0.221-1.029-0.221c-0.84,0-1.103,0.231-1.103,0.956
		c0,0.284,0.053,0.735,0.21,1.806c0.641,0.189,1.187,0.441,1.491,0.683c0.283,0.22,0.42,0.493,0.42,0.829
		c0,0.21-0.084,0.357-0.21,0.357c-0.105,0-0.147-0.031-0.368-0.273c-0.378-0.409-0.725-0.661-1.271-0.924c0,0.084,0,0.158,0,0.2
		c0,0.42-0.084,0.661-0.294,0.892c-0.284,0.284-0.777,0.452-1.365,0.452c-0.945,0-1.596-0.452-1.596-1.113
		c0-0.735,0.798-1.25,1.963-1.25c0.242,0,0.357,0.01,0.63,0.052c-0.031-0.83-0.031-0.914-0.031-1.04
		c0-0.861,0.084-1.187,0.367-1.501c0.21-0.22,0.504-0.367,0.998-0.493c0.158-0.042,0.179-0.053,0.567-0.137
		c-0.284-0.305-0.609-0.473-1.354-0.725L80.846,3.664z M80.279,8.263c-0.326-0.095-0.567-0.126-0.903-0.126
		c-0.892,0-1.438,0.305-1.438,0.798c0,0.389,0.399,0.62,1.05,0.62c0.851,0,1.292-0.347,1.292-1.008V8.263z"/>
	<path d="M87.765,5.816c-0.021,0.094-0.178,0.756-0.472,1.974c-0.147,0.62-0.179,0.788-0.179,1.113c0,0.304-0.011,0.388-0.032,0.451
		c-0.042,0.116-0.136,0.179-0.252,0.179c-0.178,0-0.336-0.147-0.451-0.431c-0.231-0.546-0.368-1.396-0.368-2.236
		c0-0.315,0.032-0.704,0.084-1.124c0.074-0.609,0.074-0.609,0.368-1.984c0.105-0.494,0.147-0.756,0.147-0.977
		c0-0.347-0.084-0.609-0.294-0.987c0.231,0.01,0.42,0.147,0.703,0.514c0.263,0.326,0.389,0.599,0.389,0.83
		c0,0.168-0.01,0.21-0.22,0.63c-0.21,0.441-0.462,1.176-0.567,1.669c-0.094,0.399-0.136,0.851-0.136,1.302
		c0,0.578,0.052,0.945,0.199,1.386c0.179-0.367,0.263-0.577,0.378-0.892l0.557-1.47L87.765,5.816z M89.088,6.341
		c-0.021,0.21-0.032,0.304-0.032,0.441c0,1.155,0.662,1.627,2.289,1.627c0.305,0,0.609-0.021,0.893-0.074
		c0.22-0.031,0.22-0.031,0.557-0.168c0.063-0.021,0.115-0.031,0.157-0.031c0.273,0,0.662,0.368,0.662,0.62
		c0,0.126-0.084,0.21-0.231,0.262c-0.221,0.074-0.725,0.116-1.313,0.116c-1.313,0-2.247-0.221-2.72-0.641
		c-0.378-0.347-0.567-0.788-0.567-1.365c0-0.263,0.032-0.494,0.126-0.83L89.088,6.341z M89.067,3.002
		c0.367,0.221,0.598,0.284,0.977,0.284c0.651,0,1.669-0.231,2.11-0.473c0.136-0.073,0.157-0.084,0.231-0.084
		c0.084,0,0.221,0.053,0.368,0.147c0.22,0.126,0.325,0.252,0.325,0.389c0,0.137-0.073,0.2-0.294,0.242
		c-0.693,0.105-1.082,0.199-1.491,0.367c-0.326,0.137-0.935,0.473-1.354,0.746l-0.105-0.105c0.473-0.399,0.83-0.693,0.998-0.819
		c-0.22,0.01-0.336,0.021-0.43,0.021c-0.588,0-0.977-0.158-1.428-0.588L89.067,3.002z"/>
	<path d="M98.223,4.577c-0.735,0.242-1.071,0.378-1.365,0.546c-0.158,0.095-0.221,0.116-0.305,0.116
		c-0.115,0-0.326-0.137-0.462-0.315c-0.189-0.242-0.347-0.609-0.347-0.798c0-0.052,0.021-0.126,0.063-0.231
		c0.221,0.431,0.41,0.578,0.798,0.578c0.231,0,1.008-0.158,1.785-0.368c0.242-0.598,0.431-1.365,0.431-1.722
		c0-0.326-0.21-0.515-0.809-0.704c0.126-0.095,0.189-0.116,0.305-0.116c0.157,0,0.43,0.053,0.714,0.137
		c0.473,0.137,0.735,0.336,0.735,0.557c0,0.073-0.021,0.115-0.147,0.304c-0.136,0.2-0.367,0.693-0.672,1.417
		c0.462-0.094,0.651-0.115,0.914-0.115c0.903,0,1.333,0.536,1.333,1.638c0,1.344-0.536,3.087-1.145,3.759
		c-0.263,0.273-0.672,0.472-1.008,0.472c-0.179,0-0.263-0.073-0.284-0.241c-0.032-0.294-0.053-0.315-1.166-1.229l0.095-0.126
		c0.798,0.452,1.407,0.714,1.627,0.714c0.231,0,0.409-0.22,0.682-0.882c0.368-0.861,0.62-2.016,0.62-2.814
		c0-0.441-0.094-0.725-0.284-0.851c-0.105-0.074-0.241-0.105-0.472-0.105c-0.294,0-0.494,0.042-1.092,0.21
		c-0.147,0.368-0.147,0.368-0.609,1.428c-0.052,0.136-0.262,0.619-0.62,1.47c-0.42,0.987-0.766,1.743-0.934,2.037
		c-0.074,0.136-0.158,0.199-0.252,0.199c-0.189,0-0.304-0.273-0.304-0.724c0-0.263,0.031-0.347,0.242-0.588
		c0.199-0.22,0.483-0.672,0.777-1.239c0.399-0.767,0.399-0.767,0.84-1.732L98.223,4.577z M102.318,3.905
		c0.819,0.241,1.459,0.662,1.921,1.26c0.399,0.515,0.599,1.019,0.599,1.48c0,0.368-0.158,0.578-0.42,0.578
		c-0.084,0-0.126-0.01-0.242-0.073c-0.179-0.105-0.231-0.116-0.431-0.116c-0.367,0-0.42,0-1.313,0.095l-0.042-0.137
		c1.103-0.336,1.271-0.399,1.606-0.536c-0.042-0.357-0.136-0.661-0.325-1.008c-0.336-0.651-0.746-1.05-1.438-1.396L102.318,3.905z
		 M102.77,2.288c0.326,0.116,0.725,0.326,1.071,0.557c0.378,0.252,0.504,0.431,0.504,0.704c0,0.283-0.116,0.504-0.252,0.504
		c-0.105,0-0.168-0.074-0.315-0.347c-0.2-0.388-0.683-0.956-1.092-1.292L102.77,2.288z M103.641,1.595
		c0.357,0.105,0.704,0.252,1.05,0.452c0.378,0.21,0.556,0.42,0.556,0.651c0,0.284-0.094,0.504-0.21,0.504
		c-0.084,0-0.157-0.073-0.304-0.284c-0.284-0.441-0.588-0.745-1.176-1.207L103.641,1.595z"/>
	<path d="M114.257,7.79c-1.008,1.365-2.384,2.174-3.686,2.174c-0.798,0-1.417-0.326-1.743-0.893
		c-0.21-0.368-0.294-0.882-0.294-1.774c0-0.578,0.032-1.575,0.084-2.531c0.063-1.134,0.074-1.428,0.074-1.806
		c0-0.903-0.105-1.081-0.851-1.396c0.115-0.084,0.178-0.105,0.294-0.105c0.242,0,0.62,0.095,0.945,0.242
		c0.399,0.189,0.609,0.399,0.609,0.62c0,0.073-0.011,0.136-0.095,0.378c-0.2,0.63-0.546,3.812-0.546,5.04
		c0,0.64,0.126,1.019,0.42,1.26c0.231,0.179,0.567,0.284,0.935,0.284c0.714,0,1.596-0.252,2.394-0.672
		c0.483-0.252,0.787-0.473,1.333-0.935L114.257,7.79z"/>
	<path d="M10.779,29c2.268-0.672,3.717-1.533,4.914-2.919c1.239-1.407,1.869-3.129,1.869-5.061c0-2.037-0.819-3.654-2.373-4.641
		c-0.924-0.609-2.31-0.966-3.633-0.966c-0.252,0-0.399,0-0.735,0.042c0.504,0.735,0.651,1.134,0.651,1.743
		c0,1.638-1.176,4.704-2.772,7.266c-1.323,2.1-2.352,3.129-3.129,3.129c-0.357,0-0.693-0.168-0.924-0.441
		c-0.189-0.252-0.231-0.336-0.588-1.344c-0.189-0.546-0.315-0.798-0.924-1.974c-0.336-0.672-0.483-1.239-0.483-1.911
		c0-1.323,0.714-2.877,1.89-4.158c1.701-1.806,4.473-2.94,7.224-2.94c2.121,0,4.074,0.693,5.418,1.932
		c1.344,1.239,2.016,2.898,2.016,4.935c0,2.625-1.533,4.956-4.179,6.363c-1.218,0.651-2.31,0.987-4.095,1.302L10.779,29z
		 M3.87,22.469c0,1.008,0.315,2.037,0.84,2.772c0.294,0.378,0.567,0.609,0.798,0.609c0.462,0,1.47-1.134,2.499-2.772
		c1.554-2.478,2.667-5.187,2.667-6.489c0-0.315-0.063-0.525-0.294-1.05C6.726,16.19,3.87,19.235,3.87,22.469z"/>
	<path d="M33.123,25.599h1.785c0.399-0.525,0.525-0.693,0.966-1.197c0.756,0.588,0.987,0.777,1.722,1.428
		c0.063,0.063,0.084,0.105,0.084,0.147c0,0.063-0.084,0.105-0.189,0.105h-4.368v0.84c0.021,2.079,0.021,3.381,0.042,3.885
		c-0.042,0.273-0.294,0.357-1.05,0.357c-0.294,0-0.378-0.042-0.399-0.189c0.021-2.016,0.021-3.633,0.021-4.053v-0.84h-2.205
		c-0.672,0-1.323,0.042-1.764,0.126l-0.105-0.777c0.441,0.105,1.05,0.168,1.869,0.168h2.205v-2.856h-2.898
		c-0.819,0-1.029,0.021-1.554,0.147l-0.126-0.777c0.441,0.105,0.882,0.147,1.68,0.147h4.368c0.609-1.197,1.092-2.604,1.26-3.675
		c2.058,0.861,2.163,0.903,2.163,1.071s-0.126,0.21-1.092,0.231c-0.777,1.071-1.134,1.512-1.911,2.373h1.533
		c0.42-0.525,0.546-0.693,0.966-1.197c0.672,0.63,0.861,0.819,1.512,1.47c0.042,0.063,0.063,0.105,0.063,0.147
		c0,0.042-0.042,0.063-0.105,0.063h-4.473V25.599z M34.782,14.573c0.42-0.525,0.546-0.672,1.008-1.134
		c0.714,0.609,0.924,0.798,1.596,1.47c0.021,0.021,0.042,0.063,0.042,0.084c0,0.042-0.042,0.063-0.084,0.063h-4.221v2.814h1.953
		c0.42-0.504,0.546-0.651,0.966-1.134c0.693,0.588,0.903,0.777,1.554,1.407c0.042,0.063,0.084,0.105,0.084,0.126
		c0,0.042-0.042,0.084-0.084,0.084h-8.757c-0.63,0-1.155,0.042-1.512,0.147l-0.105-0.777c0.462,0.105,0.861,0.147,1.617,0.147h2.898
		v-2.814h-1.974c-0.63,0-1.197,0.063-1.575,0.147l-0.126-0.777c0.399,0.084,1.071,0.147,1.701,0.147h1.974v-1.092
		c0-0.714-0.021-1.05-0.063-1.722c1.953,0.273,2.184,0.336,2.184,0.504c0,0.189-0.231,0.294-0.735,0.378v1.932H34.782z
		 M29.217,18.521c1.323,0.861,2.184,1.764,2.184,2.31c0,0.483-0.546,1.197-0.903,1.197c-0.189,0-0.315-0.189-0.399-0.609
		c-0.231-1.302-0.504-1.995-1.071-2.772L29.217,18.521z M44.232,20.013c0.336-0.42,0.462-0.546,0.861-0.945
		c0.525,0.441,0.693,0.588,1.239,1.071c0.105,0.105,0.147,0.168,0.147,0.231c0,0.126-0.126,0.231-0.63,0.462
		c-0.903,2.814-1.386,3.885-2.478,5.481c1.218,1.365,2.352,2.079,4.179,2.667v0.21c-0.693,0.273-1.05,0.693-1.302,1.449
		c-1.617-1.071-2.52-1.932-3.57-3.423c-1.092,1.344-2.415,2.541-3.381,3.024v0.504c-0.021,0.126-0.042,0.189-0.147,0.21
		c-0.126,0.063-0.609,0.105-0.945,0.105c-0.21,0-0.294-0.042-0.315-0.189c0.021-1.869,0.042-5.922,0.042-13.356
		c0-3.654-0.021-4.2-0.105-5.355c0.777,0.42,0.987,0.546,1.68,1.008h4.809c0.336-0.462,0.441-0.588,0.777-1.008
		c0.588,0.42,0.756,0.546,1.323,1.008c0.126,0.105,0.189,0.189,0.189,0.252c0,0.147-0.147,0.252-0.63,0.483
		c-0.147,1.806-0.336,3.213-0.567,3.801c-0.126,0.378-0.462,0.609-1.134,0.861c-0.378,0.126-0.672,0.189-1.323,0.231
		c-0.063-0.483-0.21-0.714-0.567-0.966c-0.336-0.231-0.735-0.336-1.806-0.483l0.021-0.357c0.924,0.063,2.898,0.21,3.087,0.21
		c0.336,0,0.483-0.168,0.546-0.609c0.21-1.344,0.273-2.058,0.315-2.94h-5.25v6.363H44.232z M39.297,20.496v9.303
		c0.861-0.63,1.869-1.869,2.835-3.444c-1.05-1.848-1.806-3.99-2.016-5.859H39.297z M40.536,20.496c0.609,2.415,1.05,3.465,2.1,4.956
		c0.903-1.68,1.365-3.045,1.701-4.956H40.536z"/>
	<path d="M63.489,12.495c2.184,1.05,3.045,1.911,3.045,3.045c0,0.504-0.231,0.798-0.63,0.798c-0.126,0-0.168-0.021-0.651-0.21
		c-0.567-0.21-1.365-0.378-2.289-0.483c-1.428-0.168-2.772-0.273-3.255-0.273c-0.483,0-0.798,0.231-0.798,0.588
		c0,0.294,0.441,1.344,1.386,3.276c1.155-0.63,2.478-1.239,3.675-1.701c1.533-0.588,2.751-0.84,4.032-0.84
		c2.541,0,4.347,1.365,4.347,3.318c0,0.819-0.42,1.764-1.071,2.394c-0.756,0.735-1.911,1.134-3.339,1.134
		c-1.701,0-3.465-0.588-4.767-1.575l0.147-0.315c1.092,0.546,2.457,0.882,3.675,0.882c1.407,0,2.52-0.399,3.15-1.134
		c0.441-0.504,0.672-1.134,0.672-1.806c0-1.449-1.092-2.268-3.024-2.268c-1.134,0-2.163,0.294-3.969,1.155
		c-0.987,0.483-1.953,1.008-3.108,1.701c1.008,2.037,1.638,3.444,2.352,5.229c0.819,2.079,1.029,2.751,1.029,3.444
		c0,0.903-0.399,1.575-0.966,1.575c-0.105,0-0.231-0.084-0.336-0.21c-0.126-0.147-0.189-0.357-0.273-0.924
		c-0.399-2.625-1.26-5.481-2.604-8.652c-1.197,0.798-1.911,1.302-2.163,1.47c-0.315,0.231-0.399,0.294-0.567,0.42
		c-0.273,0.231-0.462,0.315-0.735,0.315c-0.924,0-2.226-1.344-2.226-2.289c0-0.084,0.021-0.189,0.084-0.357
		c0.483,0.714,0.987,1.092,1.47,1.092c0.588,0,1.848-0.567,3.675-1.617c-0.525-1.176-1.029-2.058-1.449-2.583
		c-0.378-0.504-0.441-0.63-0.441-0.903c0-0.693,0.819-1.428,1.575-1.428c0.252,0,0.273,0,0.651,0.105
		c0.126,0.042,0.252,0.042,0.546,0.063c0.084,0,0.735,0,1.68,0.021c0.525,0.021,0.945,0.021,1.575,0.021
		c1.218,0,1.386-0.042,1.386-0.273c0-0.42-0.735-1.239-1.701-1.932L63.489,12.495z"/>
	<path d="M95.661,23.729h5.46c0.567-0.693,0.756-0.903,1.386-1.554c0.861,0.735,1.113,0.966,1.911,1.743
		c0.042,0.063,0.063,0.126,0.063,0.168c0,0.063-0.084,0.126-0.189,0.126h-8.211c0.798,0.987,1.239,1.386,2.058,1.911
		c1.26,0.798,2.772,1.428,4.326,1.806c0.63,0.147,1.092,0.231,2.1,0.315v0.336c-0.798,0.273-1.05,0.504-1.491,1.386
		c-2.121-0.798-3.276-1.428-4.557-2.436c-1.113-0.903-1.785-1.68-2.856-3.318v2.478c0,0.399,0.021,2.646,0.042,3.864
		c0,0.021,0.021,0.063,0.021,0.063c0,0.252-0.315,0.357-1.092,0.357c-0.315,0-0.399-0.063-0.399-0.231c0-0.021,0-0.042,0-0.063
		c0-0.315,0.042-1.638,0.084-3.99v-2.1c-1.68,1.89-2.751,2.751-4.851,3.906c-1.239,0.672-2.205,1.113-3.969,1.785l-0.168-0.399
		c1.827-0.84,3.423-1.806,4.767-2.835c1.071-0.84,1.659-1.407,2.856-2.835h-5.691c-0.504,0-0.945,0.042-1.407,0.126l-0.147-0.798
		c0.525,0.126,1.008,0.189,1.554,0.189h7.056v-2.31h-2.142v0.546c-0.021,0.189-0.063,0.252-0.189,0.294
		c-0.147,0.063-0.609,0.105-0.966,0.105c-0.315,0-0.378-0.042-0.378-0.273c0.063-2.184,0.063-2.184,0.084-7.035H87.45
		c-0.588,0-1.008,0.042-1.596,0.126l-0.147-0.777c0.63,0.126,1.113,0.168,1.827,0.168h3.192v-1.176c0-0.546-0.021-0.882-0.084-1.596
		c2.079,0.231,2.394,0.294,2.394,0.504c0,0.168-0.252,0.294-0.861,0.462v1.806h5.544v-1.176c0-0.378-0.021-0.735-0.084-1.617
		c2.31,0.294,2.478,0.315,2.478,0.546c0,0.168-0.147,0.231-0.966,0.441v1.806h2.205c0.546-0.651,0.714-0.84,1.302-1.428
		c0.819,0.651,1.05,0.882,1.806,1.638c0.021,0.063,0.042,0.105,0.042,0.147c0,0.063-0.105,0.126-0.21,0.126h-5.166
		c0,2.52,0.042,5.481,0.084,6.804c-0.021,0.168-0.063,0.231-0.189,0.294s-0.672,0.126-1.008,0.126c-0.231,0-0.294-0.063-0.294-0.273
		v-0.588h-2.058V23.729z M92.175,17.703h5.544v-2.646h-5.544V17.703z M92.175,20.937h5.544v-2.793h-5.544V20.937z"/>
	<path d="M126.279,29c2.269-0.672,3.718-1.533,4.914-2.919c1.239-1.407,1.869-3.129,1.869-5.061c0-2.037-0.818-3.654-2.373-4.641
		c-0.924-0.609-2.31-0.966-3.633-0.966c-0.252,0-0.399,0-0.735,0.042c0.505,0.735,0.651,1.134,0.651,1.743
		c0,1.638-1.176,4.704-2.771,7.266c-1.323,2.1-2.353,3.129-3.129,3.129c-0.357,0-0.693-0.168-0.924-0.441
		c-0.189-0.252-0.231-0.336-0.588-1.344c-0.189-0.546-0.315-0.798-0.924-1.974c-0.336-0.672-0.483-1.239-0.483-1.911
		c0-1.323,0.714-2.877,1.89-4.158c1.701-1.806,4.473-2.94,7.224-2.94c2.121,0,4.074,0.693,5.418,1.932
		c1.344,1.239,2.016,2.898,2.016,4.935c0,2.625-1.532,4.956-4.179,6.363c-1.218,0.651-2.31,0.987-4.095,1.302L126.279,29z
		 M119.37,22.469c0,1.008,0.315,2.037,0.84,2.772c0.294,0.378,0.567,0.609,0.798,0.609c0.462,0,1.47-1.134,2.499-2.772
		c1.554-2.478,2.667-5.187,2.667-6.489c0-0.315-0.063-0.525-0.294-1.05C122.226,16.19,119.37,19.235,119.37,22.469z"/>
	<path d="M22.644,34.397c0.525,0.483,0.746,0.588,1.271,0.588c0.221,0,0.599-0.042,0.872-0.095c0.021-0.262,0.021-0.399,0.021-0.704
		c0-0.525-0.031-0.672-0.157-0.829c-0.137-0.158-0.326-0.242-0.651-0.294c0.147-0.136,0.231-0.168,0.452-0.168
		c0.252,0,0.63,0.084,0.935,0.21c0.189,0.074,0.305,0.2,0.305,0.315c0,0.084,0,0.084-0.116,0.294c-0.084,0.178-0.2,0.64-0.263,1.071
		c0.336-0.094,0.609-0.199,0.903-0.368c0.22-0.115,0.241-0.136,0.441-0.325c0.084-0.074,0.157-0.105,0.284-0.105
		c0.294,0,0.598,0.199,0.598,0.388c0,0.126-0.126,0.231-0.462,0.389c-0.525,0.231-1.04,0.399-1.827,0.557
		c-0.042,0.304-0.136,1.281-0.147,1.701c0.105,0.273,0.137,0.42,0.137,0.714c0,0.504-0.116,0.893-0.41,1.302
		c-0.315,0.473-0.451,0.777-0.451,1.04c0,0.452,0.567,0.651,1.816,0.651c0.945,0,1.879-0.168,2.394-0.42
		c0.21-0.105,0.252-0.199,0.252-0.557c0-0.693-0.011-1.155-0.105-3.16c-0.011-0.147-0.011-0.284-0.011-0.441
		c0-0.462,0.042-0.693,0.179-0.861c0.147-0.199,0.357-0.294,0.62-0.294c0.798,0,1.638,0.788,1.638,1.522
		c0,0.284-0.178,0.494-0.431,0.494c-0.084,0-0.147-0.021-0.241-0.074c-0.084-0.042-0.179-0.063-0.315-0.063
		c-0.095,0-0.504,0.084-0.767,0.147l-0.042-0.105c0.788-0.399,1.04-0.556,1.04-0.651c0-0.157-0.189-0.525-0.368-0.714
		c-0.21-0.21-0.441-0.336-0.662-0.336c-0.262,0-0.399,0.22-0.399,0.662c0,0.871,0.179,2.299,0.41,3.234
		c0.073,0.304,0.115,0.43,0.221,0.588c0.147,0.221,0.189,0.336,0.189,0.494c0,0.336-0.347,0.672-0.851,0.829
		c-0.588,0.189-1.543,0.315-2.415,0.315c-1.711,0-2.51-0.399-2.51-1.26c0-0.2,0.032-0.378,0.137-0.704c-0.042,0-0.063,0-0.084,0
		c-0.168,0-0.389-0.094-0.567-0.22c-0.357-0.273-0.567-0.746-0.567-1.292c0-0.851,0.462-1.428,1.123-1.428
		c0.252,0,0.42,0.053,0.641,0.2c0-0.095,0-0.095,0.042-0.63c0-0.126,0.011-0.21,0.021-0.609c-0.262,0.011-0.399,0.021-0.546,0.021
		c-0.819,0-1.197-0.199-1.701-0.914L22.644,34.397z M24.65,37.631c0-0.63-0.231-0.966-0.662-0.966c-0.399,0-0.672,0.389-0.672,0.966
		c0,0.651,0.367,1.155,0.84,1.155c0.158,0,0.305-0.084,0.368-0.231c0.073-0.158,0.126-0.473,0.126-0.798V37.631z"/>
	<path d="M37.134,32.675c0.294,0,0.872,0.273,1.166,0.557c0.168,0.168,0.231,0.273,0.231,0.42c0,0.136-0.053,0.199-0.609,0.651
		c-0.567,0.473-1.596,1.438-1.932,1.816c-0.368,0.41-0.504,0.651-0.504,0.851c0,0.147,0.105,0.336,0.315,0.546
		c0.147,0.158,0.147,0.158,0.735,0.693c1.145,1.061,1.68,1.649,1.932,2.142c0.115,0.221,0.157,0.41,0.157,0.693
		c0,0.399-0.136,0.63-0.357,0.63c-0.136,0-0.178-0.053-0.357-0.431c-0.189-0.41-0.514-0.966-0.882-1.48
		c-0.389-0.557-0.441-0.62-1.533-1.9c-0.283-0.347-0.399-0.599-0.399-0.882c0-0.336,0.168-0.619,0.809-1.407
		c1.271-1.543,1.585-1.984,1.585-2.236c0-0.179-0.136-0.336-0.578-0.62C36.987,32.686,37.04,32.675,37.134,32.675z"/>
	<path d="M47.225,37.001c-0.767,1.764-0.987,2.384-0.987,2.804c0,0.084,0,0.084,0.063,0.357c0.01,0.053,0.021,0.116,0.021,0.168
		c0,0.147-0.105,0.263-0.231,0.263c-0.294,0-0.83-0.41-1.155-0.893c-0.357-0.515-0.609-1.26-0.714-2.1
		c-0.063-0.462-0.073-0.725-0.073-1.848c-0.011-0.976-0.084-1.218-0.536-1.806c0.031,0,0.052,0,0.094,0
		c0.168,0,0.473,0.199,0.788,0.514c0.315,0.305,0.473,0.588,0.473,0.83c0,0.063-0.011,0.147-0.032,0.273
		c-0.126,0.641-0.189,1.134-0.189,1.564c0,0.567,0.084,1.092,0.242,1.523c0.158,0.43,0.284,0.619,0.546,0.819
		c0.116-0.168,0.116-0.168,0.347-0.557c0.336-0.567,0.336-0.567,0.882-1.48c0.168-0.273,0.168-0.273,0.305-0.504L47.225,37.001z
		 M49.461,35.101c1.323,0.294,2.373,1.69,2.373,3.14c0,0.504-0.21,0.83-0.525,0.83c-0.105,0-0.168-0.021-0.315-0.116
		c-0.136-0.094-0.336-0.126-0.788-0.126c-0.241,0-0.441,0-0.798,0.021l-0.031-0.157c0.85-0.231,1.323-0.368,1.417-0.399
		c0.21-0.073,0.241-0.115,0.241-0.315c0-0.388-0.147-0.998-0.325-1.375c-0.284-0.609-0.704-1.05-1.302-1.375L49.461,35.101z"/>
	<path d="M87.45,37.18c-0.073,0.924-0.273,1.659-0.63,2.299c-0.252,0.441-0.483,0.662-0.725,0.662c-0.189,0-0.315-0.252-0.315-0.609
		c0-0.21,0.053-0.305,0.263-0.42c0.546-0.305,1.06-1.145,1.218-1.953L87.45,37.18z M86.316,35.258
		c0.357,0.441,0.619,0.567,1.229,0.567c0.315,0,0.903-0.053,1.806-0.179c0-0.126,0-0.178,0-0.241c0-0.987-0.021-1.218-0.147-1.428
		c-0.105-0.199-0.273-0.304-0.703-0.451c0.094-0.095,0.178-0.126,0.315-0.126c0.21,0,0.63,0.094,0.913,0.21
		c0.347,0.147,0.515,0.294,0.515,0.472c0,0.105-0.021,0.158-0.115,0.326c-0.105,0.168-0.158,0.462-0.21,1.145
		c0.882-0.126,1.554-0.315,1.848-0.525c0.084-0.053,0.126-0.074,0.2-0.074c0.126,0,0.357,0.063,0.557,0.158
		c0.262,0.126,0.399,0.241,0.399,0.378c0,0.136-0.126,0.189-0.483,0.231c-0.451,0.052-0.451,0.052-1.333,0.179
		c-0.672,0.094-1.071,0.147-1.197,0.168c-0.01,0.546-0.01,0.64-0.01,0.882c0,1.239,0.031,1.995,0.115,2.835
		c0.011,0.116,0.011,0.221,0.011,0.347c0,0.336-0.042,0.546-0.179,0.84c-0.116,0.273-0.242,0.389-0.42,0.389
		c-0.137,0-0.221-0.095-0.305-0.336c-0.115-0.315-0.22-0.409-1.134-0.976c-0.252-0.147-0.294-0.179-0.504-0.315l0.052-0.115
		c0.788,0.262,0.998,0.326,1.753,0.473c0.021-0.315,0.053-1.638,0.074-3.969c-0.473,0.063-1.354,0.137-1.659,0.137
		c-0.788,0-1.187-0.231-1.522-0.914L86.316,35.258z M91.388,37.001c0.777,0.494,1.292,0.903,1.638,1.323
		c0.252,0.305,0.325,0.483,0.325,0.777c0,0.441-0.189,0.83-0.399,0.83c-0.115,0-0.136-0.031-0.315-0.557
		c-0.284-0.861-0.756-1.648-1.354-2.257L91.388,37.001z M91.535,32.99c0.683,0.252,1.124,0.483,1.449,0.767
		c0.189,0.157,0.262,0.325,0.262,0.598c0,0.242-0.105,0.441-0.241,0.441c-0.084,0-0.158-0.063-0.252-0.221
		c-0.305-0.515-0.714-0.966-1.302-1.449L91.535,32.99z M92.532,32.35c0.62,0.189,1.029,0.368,1.323,0.578
		c0.294,0.2,0.389,0.347,0.389,0.641c0,0.262-0.105,0.462-0.241,0.462c-0.095,0-0.126-0.032-0.294-0.284
		c-0.325-0.504-0.609-0.798-1.25-1.281L92.532,32.35z"/>
	<path d="M98.727,41.443c0.83-0.588,1.386-1.113,1.953-1.848c0.609-0.798,1.04-1.585,1.459-2.688
		c0.273-0.714,0.389-1.197,0.452-1.795c-0.168-0.011-0.21-0.011-0.336-0.011c-0.945,0-2.415,0.189-3.654,0.462
		c-0.084,0.021-0.147,0.032-0.189,0.032c-0.126,0-0.262-0.053-0.535-0.189c0.042,0.115,0.042,0.126,0.052,0.473
		c0.011,0.745,0.021,1.459,0.021,1.512c0,0.389-0.073,0.567-0.242,0.567c-0.231,0-0.598-0.546-0.598-0.882
		c0-0.074,0.01-0.116,0.073-0.242c0.063-0.157,0.095-0.399,0.095-0.766c0-0.809-0.179-1.145-0.767-1.48
		c0.084-0.042,0.126-0.053,0.21-0.053c0.294,0,0.452,0.084,1.103,0.599c0.263,0,0.305-0.011,1.04-0.116
		c0.42-0.063,0.557-0.073,0.893-0.115c0.01-0.168,0.01-0.242,0.01-0.473c0-0.651-0.031-0.935-0.136-1.113
		c-0.095-0.179-0.179-0.231-0.567-0.378c0.084-0.073,0.157-0.105,0.262-0.105c0.609,0,1.386,0.326,1.386,0.588
		c0,0.063-0.021,0.105-0.095,0.241c-0.147,0.252-0.21,0.588-0.231,1.166c1.816-0.157,1.995-0.178,2.152-0.262
		c0.084-0.042,0.137-0.063,0.189-0.063c0.105,0,0.273,0.095,0.515,0.284c0.305,0.252,0.41,0.389,0.41,0.536
		c0,0.105-0.011,0.126-0.126,0.252c-0.095,0.094-0.158,0.241-0.305,0.63c-0.378,1.008-0.63,1.575-1.008,2.194
		c-0.704,1.166-1.344,1.89-2.279,2.541c-0.462,0.326-0.724,0.483-1.113,0.651L98.727,41.443z"/>
</g>
<g>
	<path d="M29.984,57.739c-0.599,2.1-0.767,2.867-0.767,3.507c-0.011,0.294-0.084,0.431-0.252,0.431
		c-0.179,0-0.336-0.137-0.431-0.368c-0.231-0.546-0.378-1.459-0.378-2.383c0-0.42,0.032-0.924,0.095-1.365
		c0.073-0.609,0.073-0.609,0.441-2.163c0.105-0.462,0.157-0.798,0.157-1.019c0-0.242-0.105-0.504-0.315-0.809
		c0.231,0.01,0.368,0.105,0.62,0.41c0.294,0.346,0.473,0.724,0.473,1.008c0,0.147-0.021,0.21-0.158,0.462
		c-0.525,0.987-0.84,2.236-0.84,3.381c0,0.525,0.042,0.84,0.178,1.407l0.998-2.572L29.984,57.739z M31.212,54.421
		c0.357,0.157,0.651,0.21,1.124,0.21c0.829,0,1.806-0.221,2.425-0.536c0.073-0.042,0.158-0.073,0.189-0.073
		c0.252,0,0.588,0.21,0.588,0.357c0,0.115-0.105,0.199-0.346,0.283c-0.389,0.137-0.819,0.231-1.313,0.294
		c0.315,0.241,0.409,0.367,0.409,0.514c0,0.042-0.01,0.095-0.021,0.168c-0.031,0.189-0.042,0.336-0.063,1.26
		c0.399-0.147,0.546-0.231,0.851-0.504c0.042-0.032,0.105-0.074,0.137-0.074c0.042,0,0.178,0.042,0.252,0.074
		c0.136,0.084,0.22,0.178,0.22,0.273c0,0.094-0.073,0.21-0.199,0.294c-0.326,0.21-0.756,0.388-1.26,0.514
		c0.021,0.672,0.053,1.26,0.126,2.058c1.292,0.378,1.827,0.788,1.827,1.396c0,0.2-0.095,0.347-0.231,0.347
		c-0.084,0-0.158-0.042-0.273-0.158c-0.525-0.556-0.735-0.703-1.292-0.945c0,0.431-0.032,0.567-0.126,0.777
		c-0.21,0.41-0.767,0.641-1.543,0.641c-0.966,0-1.606-0.41-1.606-1.029c0-0.714,0.798-1.197,1.974-1.197
		c0.2,0,0.368,0.011,0.662,0.053v-1.176c0-0.031,0-0.399,0-0.683c-0.336,0.032-0.515,0.042-0.746,0.042
		c-0.577,0-0.998-0.115-1.281-0.357c-0.242-0.199-0.347-0.409-0.389-0.798l0.147-0.031c0.095,0.325,0.21,0.472,0.452,0.598
		c0.168,0.084,0.515,0.137,0.84,0.137c0.305,0,0.662-0.042,0.977-0.105c0-0.21,0.011-1.292,0.011-1.407
		c0-0.357-0.032-0.472-0.158-0.651c-0.326,0.021-0.483,0.032-0.704,0.032c-0.703,0-1.26-0.147-1.743-0.441L31.212,54.421z
		 M32.693,59.818c-0.798,0-1.344,0.304-1.344,0.735c0,0.357,0.399,0.578,1.029,0.578c0.556,0,0.966-0.147,1.155-0.41
		c0.084-0.115,0.137-0.273,0.158-0.462c0.01-0.063,0.021-0.252,0.021-0.305c0-0.01,0-0.01,0-0.01
		C33.396,59.86,33.06,59.818,32.693,59.818z"/>
	<path d="M41.744,62.37c0.62-0.504,1.029-0.935,1.386-1.512c0.546-0.893,0.893-2.111,0.893-3.192c0-1.04-0.378-1.68-0.998-1.68
		c-0.557,0-1.292,0.452-2.016,1.239c-0.2,0.2-0.263,0.242-0.431,0.242c-0.22,0-0.472-0.168-0.693-0.473
		c-0.179-0.241-0.284-0.514-0.284-0.704c0-0.136,0.042-0.231,0.168-0.388c0.095,0.462,0.305,0.725,0.578,0.725
		c0.147,0,0.42-0.116,0.966-0.41c0.892-0.483,1.239-0.599,1.774-0.599c0.483,0,0.998,0.273,1.302,0.704
		c0.252,0.368,0.399,0.914,0.399,1.543c0,1.239-0.472,2.468-1.302,3.392c-0.515,0.567-1.05,0.966-1.648,1.229L41.744,62.37z
		 M41.166,52.825c0.515,0.431,1.229,0.672,1.964,0.672h0.241c0.21,0,0.357,0.074,0.567,0.252c0.147,0.126,0.221,0.252,0.221,0.357
		c0,0.147-0.147,0.231-0.431,0.231c-0.441,0.01-0.441,0.01-2.614,0.64l-0.053-0.147c0.788-0.357,1.512-0.682,1.775-0.777
		c-0.861-0.178-1.375-0.504-1.775-1.145L41.166,52.825z"/>
	<path d="M75.292,55.051c0.504,0.473,0.798,0.609,1.323,0.609c0.273,0,0.557-0.042,0.956-0.126c0.262-0.683,0.378-1.124,0.378-1.491
		c0-0.347-0.168-0.557-0.672-0.809c0.115-0.063,0.168-0.074,0.252-0.074c0.21,0,0.536,0.095,0.84,0.242
		c0.357,0.178,0.494,0.294,0.494,0.441c0,0.084-0.021,0.147-0.105,0.273c-0.042,0.084-0.263,0.515-0.641,1.292
		c0.777-0.273,0.872-0.325,1.166-0.578c0.084-0.073,0.116-0.084,0.221-0.084c0.409,0,0.714,0.137,0.714,0.315
		c0,0.273-0.651,0.535-2.321,0.924c-0.094,0.21-0.273,0.641-0.556,1.271c-0.315,0.725-1.124,2.488-1.218,2.667
		c-0.157,0.283-0.252,0.378-0.378,0.378c-0.178,0-0.325-0.326-0.325-0.746c0-0.21,0.021-0.273,0.115-0.378
		c0.231-0.252,0.357-0.41,0.504-0.63c0.515-0.767,0.893-1.48,1.313-2.468c-0.231,0.032-0.325,0.042-0.493,0.042
		c-0.378,0-0.662-0.063-0.924-0.22c-0.315-0.179-0.556-0.431-0.767-0.767L75.292,55.051z M80.846,55.639
		c0.725,0.063,1.313,0.252,1.795,0.578c0.41,0.263,0.662,0.578,0.662,0.819c0,0.179-0.105,0.305-0.273,0.305
		c-0.084,0-0.147-0.021-0.242-0.084c-0.294-0.179-0.493-0.221-1.029-0.221c-0.84,0-1.103,0.231-1.103,0.956
		c0,0.284,0.053,0.735,0.21,1.806c0.641,0.189,1.187,0.441,1.491,0.683c0.283,0.22,0.42,0.493,0.42,0.829
		c0,0.21-0.084,0.357-0.21,0.357c-0.105,0-0.147-0.031-0.368-0.273c-0.378-0.409-0.725-0.661-1.271-0.924c0,0.084,0,0.158,0,0.2
		c0,0.42-0.084,0.661-0.294,0.892c-0.284,0.284-0.777,0.452-1.365,0.452c-0.945,0-1.596-0.452-1.596-1.113
		c0-0.735,0.798-1.25,1.963-1.25c0.242,0,0.357,0.01,0.63,0.052c-0.031-0.83-0.031-0.914-0.031-1.04
		c0-0.861,0.084-1.187,0.367-1.501c0.21-0.22,0.504-0.367,0.998-0.493c0.158-0.042,0.179-0.053,0.567-0.137
		c-0.284-0.305-0.609-0.473-1.354-0.725L80.846,55.639z M80.279,60.238c-0.326-0.095-0.567-0.126-0.903-0.126
		c-0.892,0-1.438,0.305-1.438,0.798c0,0.389,0.399,0.62,1.05,0.62c0.851,0,1.292-0.347,1.292-1.008V60.238z"/>
	<path d="M87.765,57.792c-0.021,0.094-0.178,0.756-0.472,1.974c-0.147,0.62-0.179,0.788-0.179,1.113
		c0,0.304-0.011,0.388-0.032,0.451c-0.042,0.116-0.136,0.179-0.252,0.179c-0.178,0-0.336-0.147-0.451-0.431
		c-0.231-0.546-0.368-1.396-0.368-2.236c0-0.315,0.032-0.704,0.084-1.124c0.074-0.609,0.074-0.609,0.368-1.984
		c0.105-0.494,0.147-0.756,0.147-0.977c0-0.347-0.084-0.609-0.294-0.987c0.231,0.01,0.42,0.147,0.703,0.514
		c0.263,0.326,0.389,0.599,0.389,0.83c0,0.168-0.01,0.21-0.22,0.63c-0.21,0.441-0.462,1.176-0.567,1.669
		c-0.094,0.399-0.136,0.851-0.136,1.302c0,0.578,0.052,0.945,0.199,1.386c0.179-0.367,0.263-0.577,0.378-0.892l0.557-1.47
		L87.765,57.792z M89.088,58.317c-0.021,0.21-0.032,0.304-0.032,0.441c0,1.155,0.662,1.627,2.289,1.627
		c0.305,0,0.609-0.021,0.893-0.074c0.22-0.031,0.22-0.031,0.557-0.168c0.063-0.021,0.115-0.031,0.157-0.031
		c0.273,0,0.662,0.368,0.662,0.62c0,0.126-0.084,0.21-0.231,0.262c-0.221,0.074-0.725,0.116-1.313,0.116
		c-1.313,0-2.247-0.221-2.72-0.641c-0.378-0.347-0.567-0.788-0.567-1.365c0-0.263,0.032-0.494,0.126-0.83L89.088,58.317z
		 M89.067,54.978c0.367,0.221,0.598,0.284,0.977,0.284c0.651,0,1.669-0.231,2.11-0.473c0.136-0.073,0.157-0.084,0.231-0.084
		c0.084,0,0.221,0.053,0.368,0.147c0.22,0.126,0.325,0.252,0.325,0.389c0,0.137-0.073,0.2-0.294,0.242
		c-0.693,0.105-1.082,0.199-1.491,0.367c-0.326,0.137-0.935,0.473-1.354,0.746l-0.105-0.105c0.473-0.399,0.83-0.693,0.998-0.819
		c-0.22,0.01-0.336,0.021-0.43,0.021c-0.588,0-0.977-0.158-1.428-0.588L89.067,54.978z"/>
	<path d="M98.223,56.553c-0.735,0.242-1.071,0.378-1.365,0.546c-0.158,0.095-0.221,0.116-0.305,0.116
		c-0.115,0-0.326-0.137-0.462-0.315c-0.189-0.242-0.347-0.609-0.347-0.798c0-0.052,0.021-0.126,0.063-0.231
		c0.221,0.431,0.41,0.578,0.798,0.578c0.231,0,1.008-0.158,1.785-0.368c0.242-0.598,0.431-1.365,0.431-1.722
		c0-0.326-0.21-0.515-0.809-0.704c0.126-0.095,0.189-0.116,0.305-0.116c0.157,0,0.43,0.053,0.714,0.137
		c0.473,0.137,0.735,0.336,0.735,0.557c0,0.073-0.021,0.115-0.147,0.304c-0.136,0.2-0.367,0.693-0.672,1.417
		c0.462-0.094,0.651-0.115,0.914-0.115c0.903,0,1.333,0.536,1.333,1.638c0,1.344-0.536,3.087-1.145,3.759
		c-0.263,0.273-0.672,0.472-1.008,0.472c-0.179,0-0.263-0.073-0.284-0.241c-0.032-0.294-0.053-0.315-1.166-1.229l0.095-0.126
		c0.798,0.452,1.407,0.714,1.627,0.714c0.231,0,0.409-0.22,0.682-0.882c0.368-0.861,0.62-2.016,0.62-2.814
		c0-0.441-0.094-0.725-0.284-0.851c-0.105-0.074-0.241-0.105-0.472-0.105c-0.294,0-0.494,0.042-1.092,0.21
		c-0.147,0.368-0.147,0.368-0.609,1.428c-0.052,0.136-0.262,0.619-0.62,1.47c-0.42,0.987-0.766,1.743-0.934,2.037
		c-0.074,0.136-0.158,0.199-0.252,0.199c-0.189,0-0.304-0.273-0.304-0.724c0-0.263,0.031-0.347,0.242-0.588
		c0.199-0.22,0.483-0.672,0.777-1.239c0.399-0.767,0.399-0.767,0.84-1.732L98.223,56.553z M102.318,55.881
		c0.819,0.241,1.459,0.662,1.921,1.26c0.399,0.515,0.599,1.019,0.599,1.48c0,0.368-0.158,0.578-0.42,0.578
		c-0.084,0-0.126-0.01-0.242-0.073c-0.179-0.105-0.231-0.116-0.431-0.116c-0.367,0-0.42,0-1.313,0.095l-0.042-0.137
		c1.103-0.336,1.271-0.399,1.606-0.536c-0.042-0.357-0.136-0.661-0.325-1.008c-0.336-0.651-0.746-1.05-1.438-1.396L102.318,55.881z
		 M102.77,54.264c0.326,0.116,0.725,0.326,1.071,0.557c0.378,0.252,0.504,0.431,0.504,0.704c0,0.283-0.116,0.504-0.252,0.504
		c-0.105,0-0.168-0.074-0.315-0.347c-0.2-0.388-0.683-0.956-1.092-1.292L102.77,54.264z M103.641,53.571
		c0.357,0.105,0.704,0.252,1.05,0.452c0.378,0.21,0.556,0.42,0.556,0.651c0,0.284-0.094,0.504-0.21,0.504
		c-0.084,0-0.157-0.073-0.304-0.284c-0.284-0.441-0.588-0.745-1.176-1.207L103.641,53.571z"/>
	<path d="M114.257,59.766c-1.008,1.365-2.384,2.174-3.686,2.174c-0.798,0-1.417-0.326-1.743-0.893
		c-0.21-0.368-0.294-0.882-0.294-1.774c0-0.578,0.032-1.575,0.084-2.531c0.063-1.134,0.074-1.428,0.074-1.806
		c0-0.903-0.105-1.081-0.851-1.396c0.115-0.084,0.178-0.105,0.294-0.105c0.242,0,0.62,0.095,0.945,0.242
		c0.399,0.189,0.609,0.399,0.609,0.62c0,0.073-0.011,0.136-0.095,0.378c-0.2,0.63-0.546,3.812-0.546,5.04
		c0,0.64,0.126,1.019,0.42,1.26c0.231,0.179,0.567,0.284,0.935,0.284c0.714,0,1.596-0.252,2.394-0.672
		c0.483-0.252,0.787-0.473,1.333-0.935L114.257,59.766z"/>
	<path d="M10.779,80.976c2.268-0.672,3.717-1.533,4.914-2.919c1.239-1.407,1.869-3.129,1.869-5.061c0-2.037-0.819-3.654-2.373-4.641
		c-0.924-0.609-2.31-0.966-3.633-0.966c-0.252,0-0.399,0-0.735,0.042c0.504,0.735,0.651,1.134,0.651,1.743
		c0,1.638-1.176,4.704-2.772,7.266c-1.323,2.1-2.352,3.129-3.129,3.129c-0.357,0-0.693-0.168-0.924-0.441
		c-0.189-0.252-0.231-0.336-0.588-1.344c-0.189-0.546-0.315-0.798-0.924-1.974c-0.336-0.672-0.483-1.239-0.483-1.911
		c0-1.323,0.714-2.877,1.89-4.158c1.701-1.806,4.473-2.94,7.224-2.94c2.121,0,4.074,0.693,5.418,1.932
		c1.344,1.239,2.016,2.898,2.016,4.935c0,2.625-1.533,4.956-4.179,6.363c-1.218,0.651-2.31,0.987-4.095,1.302L10.779,80.976z
		 M3.87,74.445c0,1.008,0.315,2.037,0.84,2.772c0.294,0.378,0.567,0.609,0.798,0.609c0.462,0,1.47-1.134,2.499-2.772
		c1.554-2.478,2.667-5.187,2.667-6.489c0-0.315-0.063-0.525-0.294-1.05C6.726,68.166,3.87,71.211,3.87,74.445z"/>
	<path d="M33.123,77.574h1.785c0.399-0.525,0.525-0.693,0.966-1.197c0.756,0.588,0.987,0.777,1.722,1.428
		c0.063,0.063,0.084,0.105,0.084,0.147c0,0.063-0.084,0.105-0.189,0.105h-4.368v0.84c0.021,2.079,0.021,3.381,0.042,3.885
		c-0.042,0.273-0.294,0.357-1.05,0.357c-0.294,0-0.378-0.042-0.399-0.189c0.021-2.016,0.021-3.633,0.021-4.053v-0.84h-2.205
		c-0.672,0-1.323,0.042-1.764,0.126l-0.105-0.777c0.441,0.105,1.05,0.168,1.869,0.168h2.205v-2.856h-2.898
		c-0.819,0-1.029,0.021-1.554,0.147l-0.126-0.777c0.441,0.105,0.882,0.147,1.68,0.147h4.368c0.609-1.197,1.092-2.604,1.26-3.675
		c2.058,0.861,2.163,0.903,2.163,1.071s-0.126,0.21-1.092,0.231c-0.777,1.071-1.134,1.512-1.911,2.373h1.533
		c0.42-0.525,0.546-0.693,0.966-1.197c0.672,0.63,0.861,0.819,1.512,1.47c0.042,0.063,0.063,0.105,0.063,0.147
		c0,0.042-0.042,0.063-0.105,0.063h-4.473V77.574z M34.782,66.549c0.42-0.525,0.546-0.672,1.008-1.134
		c0.714,0.609,0.924,0.798,1.596,1.47c0.021,0.021,0.042,0.063,0.042,0.084c0,0.042-0.042,0.063-0.084,0.063h-4.221v2.814h1.953
		c0.42-0.504,0.546-0.651,0.966-1.134c0.693,0.588,0.903,0.777,1.554,1.407c0.042,0.063,0.084,0.105,0.084,0.126
		c0,0.042-0.042,0.084-0.084,0.084h-8.757c-0.63,0-1.155,0.042-1.512,0.147l-0.105-0.777c0.462,0.105,0.861,0.147,1.617,0.147h2.898
		v-2.814h-1.974c-0.63,0-1.197,0.063-1.575,0.147l-0.126-0.777c0.399,0.084,1.071,0.147,1.701,0.147h1.974v-1.092
		c0-0.714-0.021-1.05-0.063-1.722c1.953,0.273,2.184,0.336,2.184,0.504c0,0.189-0.231,0.294-0.735,0.378v1.932H34.782z
		 M29.217,70.497c1.323,0.861,2.184,1.764,2.184,2.31c0,0.483-0.546,1.197-0.903,1.197c-0.189,0-0.315-0.189-0.399-0.609
		c-0.231-1.302-0.504-1.995-1.071-2.772L29.217,70.497z M44.232,71.988c0.336-0.42,0.462-0.546,0.861-0.945
		c0.525,0.441,0.693,0.588,1.239,1.071c0.105,0.105,0.147,0.168,0.147,0.231c0,0.126-0.126,0.231-0.63,0.462
		c-0.903,2.814-1.386,3.885-2.478,5.481c1.218,1.365,2.352,2.079,4.179,2.667v0.21c-0.693,0.273-1.05,0.693-1.302,1.449
		c-1.617-1.071-2.52-1.932-3.57-3.423c-1.092,1.344-2.415,2.541-3.381,3.024v0.504c-0.021,0.126-0.042,0.189-0.147,0.21
		c-0.126,0.063-0.609,0.105-0.945,0.105c-0.21,0-0.294-0.042-0.315-0.189c0.021-1.869,0.042-5.922,0.042-13.356
		c0-3.654-0.021-4.2-0.105-5.355c0.777,0.42,0.987,0.546,1.68,1.008h4.809c0.336-0.462,0.441-0.588,0.777-1.008
		c0.588,0.42,0.756,0.546,1.323,1.008c0.126,0.105,0.189,0.189,0.189,0.252c0,0.147-0.147,0.252-0.63,0.483
		c-0.147,1.806-0.336,3.213-0.567,3.801c-0.126,0.378-0.462,0.609-1.134,0.861c-0.378,0.126-0.672,0.189-1.323,0.231
		c-0.063-0.483-0.21-0.714-0.567-0.966c-0.336-0.231-0.735-0.336-1.806-0.483l0.021-0.357c0.924,0.063,2.898,0.21,3.087,0.21
		c0.336,0,0.483-0.168,0.546-0.609c0.21-1.344,0.273-2.058,0.315-2.94h-5.25v6.363H44.232z M39.297,72.471v9.303
		c0.861-0.63,1.869-1.869,2.835-3.444c-1.05-1.848-1.806-3.99-2.016-5.859H39.297z M40.536,72.471c0.609,2.415,1.05,3.465,2.1,4.956
		c0.903-1.68,1.365-3.045,1.701-4.956H40.536z"/>
	<path d="M60.36,64.785c0.63,0,1.617,0.189,2.121,0.399c0.42,0.168,0.588,0.378,0.588,0.672c0,0.021,0,0.042,0,0.042
		c0,0.168-0.021,0.168-0.168,0.546c-0.252,0.714-0.462,2.52-0.462,4.263c0,1.239,0.168,1.554,0.819,1.554
		c0.441,0,0.903-0.168,2.814-1.071c0.378-0.189,0.609-0.252,0.861-0.252c0.504,0,1.008,0.441,1.008,0.882
		c0,0.273-0.147,0.504-0.441,0.63c-0.147,0.063-0.441,0.168-1.407,0.441c-2.541,0.714-3.927,1.344-5.25,2.352
		c-1.134,0.882-1.638,1.701-1.638,2.688c0,1.512,1.197,2.289,3.528,2.289c1.302,0,3.36-0.252,4.872-0.609
		c0.21-0.042,0.294-0.063,0.42-0.063c0.546,0,1.134,0.525,1.134,1.029c0,0.378-0.231,0.567-0.903,0.693
		c-0.672,0.126-2.772,0.273-4.032,0.273c-1.533,0-2.688-0.168-3.57-0.483c-1.407-0.525-2.289-1.722-2.289-3.108
		c0-1.218,0.672-2.373,2.058-3.528c0.63-0.546,1.323-1.008,2.562-1.68c-0.462,0-0.651-0.063-1.008-0.315
		c-0.315-0.231-0.504-0.693-0.609-1.596c-0.063-0.504-0.084-0.966-0.147-2.541c-0.063-1.785-0.084-2.1-0.252-2.415
		c-0.231-0.399-0.63-0.609-1.512-0.756C59.772,64.848,59.94,64.785,60.36,64.785z"/>
	<path d="M95.661,75.705h5.46c0.567-0.693,0.756-0.903,1.386-1.554c0.861,0.735,1.113,0.966,1.911,1.743
		c0.042,0.063,0.063,0.126,0.063,0.168c0,0.063-0.084,0.126-0.189,0.126h-8.211c0.798,0.987,1.239,1.386,2.058,1.911
		c1.26,0.798,2.772,1.428,4.326,1.806c0.63,0.147,1.092,0.231,2.1,0.315v0.336c-0.798,0.273-1.05,0.504-1.491,1.386
		c-2.121-0.798-3.276-1.428-4.557-2.436c-1.113-0.903-1.785-1.68-2.856-3.318v2.478c0,0.399,0.021,2.646,0.042,3.864
		c0,0.021,0.021,0.063,0.021,0.063c0,0.252-0.315,0.357-1.092,0.357c-0.315,0-0.399-0.063-0.399-0.231c0-0.021,0-0.042,0-0.063
		c0-0.315,0.042-1.638,0.084-3.99v-2.1c-1.68,1.89-2.751,2.751-4.851,3.906c-1.239,0.672-2.205,1.113-3.969,1.785l-0.168-0.399
		c1.827-0.84,3.423-1.806,4.767-2.835c1.071-0.84,1.659-1.407,2.856-2.835h-5.691c-0.504,0-0.945,0.042-1.407,0.126l-0.147-0.798
		c0.525,0.126,1.008,0.189,1.554,0.189h7.056v-2.31h-2.142v0.546c-0.021,0.189-0.063,0.252-0.189,0.294
		c-0.147,0.063-0.609,0.105-0.966,0.105c-0.315,0-0.378-0.042-0.378-0.273c0.063-2.184,0.063-2.184,0.084-7.035H87.45
		c-0.588,0-1.008,0.042-1.596,0.126l-0.147-0.777c0.63,0.126,1.113,0.168,1.827,0.168h3.192v-1.176c0-0.546-0.021-0.882-0.084-1.596
		c2.079,0.231,2.394,0.294,2.394,0.504c0,0.168-0.252,0.294-0.861,0.462v1.806h5.544v-1.176c0-0.378-0.021-0.735-0.084-1.617
		c2.31,0.294,2.478,0.315,2.478,0.546c0,0.168-0.147,0.231-0.966,0.441v1.806h2.205c0.546-0.651,0.714-0.84,1.302-1.428
		c0.819,0.651,1.05,0.882,1.806,1.638c0.021,0.063,0.042,0.105,0.042,0.147c0,0.063-0.105,0.126-0.21,0.126h-5.166
		c0,2.52,0.042,5.481,0.084,6.804c-0.021,0.168-0.063,0.231-0.189,0.294s-0.672,0.126-1.008,0.126c-0.231,0-0.294-0.063-0.294-0.273
		v-0.588h-2.058V75.705z M92.175,69.678h5.544v-2.646h-5.544V69.678z M92.175,72.912h5.544v-2.793h-5.544V72.912z"/>
	<path d="M120.441,67.473c0.504,0.756,0.84,1.113,1.449,1.512c0.735,0.462,1.365,0.693,2.457,0.903
		c0.588-2.919,0.651-3.234,0.651-3.738c0-0.714-0.294-1.155-1.135-1.743c0.168-0.063,0.231-0.084,0.357-0.084
		c0.378,0,0.924,0.231,1.554,0.651c0.672,0.462,1.093,1.05,1.093,1.512c0,0.189-0.063,0.357-0.273,0.609
		c-0.357,0.504-0.588,1.071-1.155,2.919c0.441,0.126,0.63,0.231,0.84,0.462c0.168,0.189,0.294,0.483,0.294,0.693
		c0,0.273-0.252,0.441-0.672,0.441c-0.21,0-0.482-0.042-0.818-0.105c-0.42,1.407-0.672,2.646-0.84,3.885
		c0.504,0.105,0.86,0.147,1.07,0.147c0.063,0,0.105,0,0.168-0.021c0.126-0.021,0.21-0.021,0.231-0.021
		c0.546,0,1.26,0.651,1.26,1.134c0,0.294-0.272,0.483-0.714,0.483c-0.588,0-1.47-0.147-2.227-0.378
		c-0.042,0.504-0.063,0.756-0.063,1.029c0,2.142,1.197,3.339,3.318,3.339c1.428,0,2.667-0.546,3.317-1.428
		c0.462-0.63,0.693-1.344,0.693-2.142c0-1.743-1.176-3.717-3.171-5.25l0.23-0.273c3.108,1.911,4.432,3.654,4.432,5.796
		c0,2.541-2.185,4.473-5.104,4.473c-1.092,0-2.142-0.315-2.855-0.861c-1.093-0.819-1.617-2.079-1.617-3.906
		c0-0.252,0.021-0.525,0.042-1.05c-0.819-0.378-1.239-0.63-1.68-1.071c-0.567-0.588-0.924-1.365-0.924-2.079
		c0-0.483,0.231-1.008,0.651-1.449c0.504-0.504,1.029-0.798,2.037-1.113c-0.84-0.315-1.428-0.693-2.037-1.302
		c-0.441-0.462-0.693-0.882-1.092-1.848L120.441,67.473z M121.68,72.156c-0.315,0.336-0.462,0.651-0.462,1.05
		c0,0.882,0.714,1.533,2.163,1.974c0.104-1.05,0.294-2.247,0.63-3.822C122.793,71.421,122.184,71.652,121.68,72.156z"/>
	<path d="M22.644,86.373c0.525,0.483,0.746,0.588,1.271,0.588c0.221,0,0.599-0.042,0.872-0.095c0.021-0.262,0.021-0.399,0.021-0.704
		c0-0.525-0.031-0.672-0.157-0.829c-0.137-0.158-0.326-0.242-0.651-0.294c0.147-0.136,0.231-0.168,0.452-0.168
		c0.252,0,0.63,0.084,0.935,0.21c0.189,0.074,0.305,0.2,0.305,0.315c0,0.084,0,0.084-0.116,0.294c-0.084,0.178-0.2,0.64-0.263,1.071
		c0.336-0.094,0.609-0.199,0.903-0.368c0.22-0.115,0.241-0.136,0.441-0.325c0.084-0.074,0.157-0.105,0.284-0.105
		c0.294,0,0.598,0.199,0.598,0.388c0,0.126-0.126,0.231-0.462,0.389c-0.525,0.231-1.04,0.399-1.827,0.557
		c-0.042,0.304-0.136,1.281-0.147,1.701c0.105,0.273,0.137,0.42,0.137,0.714c0,0.504-0.116,0.893-0.41,1.302
		c-0.315,0.473-0.451,0.777-0.451,1.04c0,0.452,0.567,0.651,1.816,0.651c0.945,0,1.879-0.168,2.394-0.42
		c0.21-0.105,0.252-0.199,0.252-0.557c0-0.693-0.011-1.155-0.105-3.16c-0.011-0.147-0.011-0.284-0.011-0.441
		c0-0.462,0.042-0.693,0.179-0.861c0.147-0.199,0.357-0.294,0.62-0.294c0.798,0,1.638,0.788,1.638,1.522
		c0,0.284-0.178,0.494-0.431,0.494c-0.084,0-0.147-0.021-0.241-0.074c-0.084-0.042-0.179-0.063-0.315-0.063
		c-0.095,0-0.504,0.084-0.767,0.147l-0.042-0.105c0.788-0.399,1.04-0.556,1.04-0.651c0-0.157-0.189-0.525-0.368-0.714
		c-0.21-0.21-0.441-0.336-0.662-0.336c-0.262,0-0.399,0.22-0.399,0.662c0,0.871,0.179,2.299,0.41,3.234
		c0.073,0.304,0.115,0.43,0.221,0.588c0.147,0.221,0.189,0.336,0.189,0.494c0,0.336-0.347,0.672-0.851,0.829
		c-0.588,0.189-1.543,0.315-2.415,0.315c-1.711,0-2.51-0.399-2.51-1.26c0-0.2,0.032-0.378,0.137-0.704c-0.042,0-0.063,0-0.084,0
		c-0.168,0-0.389-0.094-0.567-0.22c-0.357-0.273-0.567-0.746-0.567-1.292c0-0.851,0.462-1.428,1.123-1.428
		c0.252,0,0.42,0.053,0.641,0.2c0-0.095,0-0.095,0.042-0.63c0-0.126,0.011-0.21,0.021-0.609c-0.262,0.011-0.399,0.021-0.546,0.021
		c-0.819,0-1.197-0.199-1.701-0.914L22.644,86.373z M24.65,89.607c0-0.63-0.231-0.966-0.662-0.966c-0.399,0-0.672,0.389-0.672,0.966
		c0,0.651,0.367,1.155,0.84,1.155c0.158,0,0.305-0.084,0.368-0.231c0.073-0.158,0.126-0.473,0.126-0.798V89.607z"/>
	<path d="M37.134,84.651c0.294,0,0.872,0.273,1.166,0.557c0.168,0.168,0.231,0.273,0.231,0.42c0,0.136-0.053,0.199-0.609,0.651
		c-0.567,0.473-1.596,1.438-1.932,1.816c-0.368,0.41-0.504,0.651-0.504,0.851c0,0.147,0.105,0.336,0.315,0.546
		c0.147,0.158,0.147,0.158,0.735,0.693c1.145,1.061,1.68,1.649,1.932,2.142c0.115,0.221,0.157,0.41,0.157,0.693
		c0,0.399-0.136,0.63-0.357,0.63c-0.136,0-0.178-0.053-0.357-0.431c-0.189-0.41-0.514-0.966-0.882-1.48
		c-0.389-0.557-0.441-0.62-1.533-1.9c-0.283-0.347-0.399-0.599-0.399-0.882c0-0.336,0.168-0.619,0.809-1.407
		c1.271-1.543,1.585-1.984,1.585-2.236c0-0.179-0.136-0.336-0.578-0.62C36.987,84.661,37.04,84.651,37.134,84.651z"/>
	<path d="M47.225,88.977c-0.767,1.764-0.987,2.384-0.987,2.804c0,0.084,0,0.084,0.063,0.357c0.01,0.053,0.021,0.116,0.021,0.168
		c0,0.147-0.105,0.263-0.231,0.263c-0.294,0-0.83-0.41-1.155-0.893c-0.357-0.515-0.609-1.26-0.714-2.1
		c-0.063-0.462-0.073-0.725-0.073-1.848c-0.011-0.976-0.084-1.218-0.536-1.806c0.031,0,0.052,0,0.094,0
		c0.168,0,0.473,0.199,0.788,0.514c0.315,0.305,0.473,0.588,0.473,0.83c0,0.063-0.011,0.147-0.032,0.273
		c-0.126,0.641-0.189,1.134-0.189,1.564c0,0.567,0.084,1.092,0.242,1.523c0.158,0.43,0.284,0.619,0.546,0.819
		c0.116-0.168,0.116-0.168,0.347-0.557c0.336-0.567,0.336-0.567,0.882-1.48c0.168-0.273,0.168-0.273,0.305-0.504L47.225,88.977z
		 M49.461,87.076c1.323,0.294,2.373,1.69,2.373,3.14c0,0.504-0.21,0.83-0.525,0.83c-0.105,0-0.168-0.021-0.315-0.116
		c-0.136-0.094-0.336-0.126-0.788-0.126c-0.241,0-0.441,0-0.798,0.021l-0.031-0.157c0.85-0.231,1.323-0.368,1.417-0.399
		c0.21-0.073,0.241-0.115,0.241-0.315c0-0.388-0.147-0.998-0.325-1.375c-0.284-0.609-0.704-1.05-1.302-1.375L49.461,87.076z"/>
	<path d="M87.45,89.155c-0.073,0.924-0.273,1.659-0.63,2.299c-0.252,0.441-0.483,0.662-0.725,0.662
		c-0.189,0-0.315-0.252-0.315-0.609c0-0.21,0.053-0.305,0.263-0.42c0.546-0.305,1.06-1.145,1.218-1.953L87.45,89.155z
		 M86.316,87.234c0.357,0.441,0.619,0.567,1.229,0.567c0.315,0,0.903-0.053,1.806-0.179c0-0.126,0-0.178,0-0.241
		c0-0.987-0.021-1.218-0.147-1.428c-0.105-0.199-0.273-0.304-0.703-0.451c0.094-0.095,0.178-0.126,0.315-0.126
		c0.21,0,0.63,0.094,0.913,0.21c0.347,0.147,0.515,0.294,0.515,0.472c0,0.105-0.021,0.158-0.115,0.326
		c-0.105,0.168-0.158,0.462-0.21,1.145c0.882-0.126,1.554-0.315,1.848-0.525c0.084-0.053,0.126-0.074,0.2-0.074
		c0.126,0,0.357,0.063,0.557,0.158c0.262,0.126,0.399,0.241,0.399,0.378c0,0.136-0.126,0.189-0.483,0.231
		c-0.451,0.052-0.451,0.052-1.333,0.179c-0.672,0.094-1.071,0.147-1.197,0.168c-0.01,0.546-0.01,0.64-0.01,0.882
		c0,1.239,0.031,1.995,0.115,2.835c0.011,0.116,0.011,0.221,0.011,0.347c0,0.336-0.042,0.546-0.179,0.84
		c-0.116,0.273-0.242,0.389-0.42,0.389c-0.137,0-0.221-0.095-0.305-0.336c-0.115-0.315-0.22-0.409-1.134-0.976
		c-0.252-0.147-0.294-0.179-0.504-0.315l0.052-0.115c0.788,0.262,0.998,0.326,1.753,0.473c0.021-0.315,0.053-1.638,0.074-3.969
		c-0.473,0.063-1.354,0.137-1.659,0.137c-0.788,0-1.187-0.231-1.522-0.914L86.316,87.234z M91.388,88.977
		c0.777,0.494,1.292,0.903,1.638,1.323c0.252,0.305,0.325,0.483,0.325,0.777c0,0.441-0.189,0.83-0.399,0.83
		c-0.115,0-0.136-0.031-0.315-0.557c-0.284-0.861-0.756-1.648-1.354-2.257L91.388,88.977z M91.535,84.966
		c0.683,0.252,1.124,0.483,1.449,0.767c0.189,0.157,0.262,0.325,0.262,0.598c0,0.242-0.105,0.441-0.241,0.441
		c-0.084,0-0.158-0.063-0.252-0.221c-0.305-0.515-0.714-0.966-1.302-1.449L91.535,84.966z M92.532,84.325
		c0.62,0.189,1.029,0.368,1.323,0.578c0.294,0.2,0.389,0.347,0.389,0.641c0,0.262-0.105,0.462-0.241,0.462
		c-0.095,0-0.126-0.032-0.294-0.284c-0.325-0.504-0.609-0.798-1.25-1.281L92.532,84.325z"/>
	<path d="M98.727,93.418c0.83-0.588,1.386-1.113,1.953-1.848c0.609-0.798,1.04-1.585,1.459-2.688
		c0.273-0.714,0.389-1.197,0.452-1.795c-0.168-0.011-0.21-0.011-0.336-0.011c-0.945,0-2.415,0.189-3.654,0.462
		c-0.084,0.021-0.147,0.032-0.189,0.032c-0.126,0-0.262-0.053-0.535-0.189c0.042,0.115,0.042,0.126,0.052,0.473
		c0.011,0.745,0.021,1.459,0.021,1.512c0,0.389-0.073,0.567-0.242,0.567c-0.231,0-0.598-0.546-0.598-0.882
		c0-0.074,0.01-0.116,0.073-0.242c0.063-0.157,0.095-0.399,0.095-0.766c0-0.809-0.179-1.145-0.767-1.48
		c0.084-0.042,0.126-0.053,0.21-0.053c0.294,0,0.452,0.084,1.103,0.599c0.263,0,0.305-0.011,1.04-0.116
		c0.42-0.063,0.557-0.073,0.893-0.115c0.01-0.168,0.01-0.242,0.01-0.473c0-0.651-0.031-0.935-0.136-1.113
		c-0.095-0.179-0.179-0.231-0.567-0.378c0.084-0.073,0.157-0.105,0.262-0.105c0.609,0,1.386,0.326,1.386,0.588
		c0,0.063-0.021,0.105-0.095,0.241c-0.147,0.252-0.21,0.588-0.231,1.166c1.816-0.157,1.995-0.178,2.152-0.262
		c0.084-0.042,0.137-0.063,0.189-0.063c0.105,0,0.273,0.095,0.515,0.284c0.305,0.252,0.41,0.389,0.41,0.536
		c0,0.105-0.011,0.126-0.126,0.252c-0.095,0.094-0.158,0.241-0.305,0.63c-0.378,1.008-0.63,1.575-1.008,2.194
		c-0.704,1.166-1.344,1.89-2.279,2.541c-0.462,0.326-0.724,0.483-1.113,0.651L98.727,93.418z"/>
</g>
<rect x="0.25" y="10.75" fill="none" stroke="#008CD6" stroke-width="0.5" width="21" height="21"/>
<rect x="26.5" y="10.75" fill="none" stroke="#008CD6" stroke-width="0.5" width="21" height="21"/>
<rect x="52.75" y="10.75" fill="none" stroke="#008CD6" stroke-width="0.5" width="21" height="21"/>
<rect x="84.25" y="10.75" fill="none" stroke="#008CD6" stroke-width="0.5" width="21" height="21"/>
<rect x="115.75" y="10.75" fill="none" stroke="#008CD6" stroke-width="0.5" width="21" height="21"/>
<g>
	<line fill="none" stroke="#008CD6" stroke-width="0.5" x1="52.749" y1="31.75" x2="52.749" y2="42.25"/>
	<line fill="none" stroke="#008CD6" stroke-width="0.5" x1="42.249" y1="42.25" x2="42.249" y2="31.75"/>
	<line fill="none" stroke="#000000" stroke-width="0.1768" x1="47.499" y1="31.75" x2="52.749" y2="31.75"/>
	<line fill="none" stroke="#008CD6" stroke-width="0.5" x1="31.749" y1="31.75" x2="31.749" y2="42.25"/>
	<polyline fill="none" stroke="#008CD6" stroke-width="0.5" points="52.749,31.75 52.749,42.25 21.25,42.25 21.25,31.75 	"/>
	<line fill="none" stroke="#000000" stroke-width="0.1768" x1="21.25" y1="31.75" x2="26.5" y2="31.75"/>
</g>
<g>
	<line fill="none" stroke="#008CD6" stroke-width="0.5" x1="37" y1="10.75" x2="37" y2="0.25"/>
	<polyline fill="none" stroke="#008CD6" stroke-width="0.5" points="26.5,10.75 26.5,0.25 47.5,0.25 47.5,10.75 	"/>
</g>
<line fill="none" stroke="#008CD6" stroke-width="0.5" x1="94.75" y1="31.75" x2="94.75" y2="42.25"/>
<polyline fill="none" stroke="#008CD6" stroke-width="0.5" points="105.25,31.75 105.25,42.25 84.25,42.25 84.25,31.75 "/>
<g>
	<line fill="none" stroke="#008CD6" stroke-width="0.5" x1="73.75" y1="10.75" x2="73.75" y2="0.25"/>
	<line fill="none" stroke="#008CD6" stroke-width="0.5" x1="94.75" y1="10.75" x2="94.75" y2="0.25"/>
	<polyline fill="none" stroke="#00A0CA" stroke-width="0.5" points="84.25,0.25 84.25,10.75 73.75,10.75 73.75,0.25 115.75,0.25 
		115.75,10.75 105.25,10.75 105.25,0.25 	"/>
</g>
</svg>
