<?xml version="1.0" encoding="utf-8"?>
<!-- Generator: Adobe Illustrator 12.0.0, SVG Export Plug-In . SVG Version: 6.00 Build 51448)  -->
<!DOCTYPE svg PUBLIC "-//W3C//DTD SVG 1.1//EN" "http://www.w3.org/Graphics/SVG/1.1/DTD/svg11.dtd" [
	<!ENTITY ns_svg "http://www.w3.org/2000/svg">
	<!ENTITY ns_xlink "http://www.w3.org/1999/xlink">
]>
<svg  version="1.1" id="レイヤー_1" xmlns="&ns_svg;" xmlns:xlink="&ns_xlink;" width="91.25" height="62.411"
	 viewBox="0 0 91.25 62.411" overflow="visible" enable-background="new 0 0 91.25 62.411" xml:space="preserve">
<g>
	<path d="M19.948,3.821c-0.399,1.4-0.512,1.911-0.512,2.338c-0.007,0.196-0.056,0.287-0.168,0.287c-0.119,0-0.224-0.091-0.287-0.245
		c-0.153-0.364-0.252-0.973-0.252-1.589c0-0.28,0.021-0.616,0.063-0.91c0.049-0.406,0.049-0.406,0.294-1.442
		c0.07-0.308,0.104-0.532,0.104-0.679c0-0.161-0.069-0.336-0.21-0.539c0.154,0.007,0.245,0.07,0.413,0.273
		c0.196,0.231,0.315,0.483,0.315,0.672c0,0.098-0.014,0.14-0.105,0.308c-0.35,0.658-0.56,1.491-0.56,2.254
		c0,0.35,0.028,0.56,0.119,0.938l0.665-1.715L19.948,3.821z M20.767,1.609c0.238,0.105,0.435,0.14,0.749,0.14
		c0.553,0,1.204-0.147,1.617-0.357c0.049-0.028,0.105-0.049,0.126-0.049c0.168,0,0.392,0.14,0.392,0.238
		c0,0.077-0.069,0.133-0.23,0.189c-0.259,0.091-0.546,0.154-0.875,0.196c0.21,0.161,0.272,0.245,0.272,0.343
		c0,0.028-0.007,0.063-0.014,0.112c-0.021,0.126-0.028,0.224-0.042,0.84c0.266-0.098,0.364-0.154,0.567-0.336
		c0.027-0.021,0.069-0.049,0.091-0.049c0.028,0,0.119,0.028,0.168,0.049c0.091,0.056,0.146,0.119,0.146,0.182
		s-0.049,0.14-0.133,0.196c-0.217,0.14-0.504,0.259-0.84,0.343c0.014,0.448,0.035,0.84,0.084,1.372
		c0.861,0.252,1.218,0.525,1.218,0.931c0,0.133-0.063,0.231-0.153,0.231c-0.057,0-0.105-0.028-0.183-0.105
		c-0.35-0.371-0.489-0.469-0.86-0.63c0,0.287-0.021,0.378-0.084,0.518c-0.141,0.273-0.512,0.427-1.029,0.427
		c-0.645,0-1.071-0.273-1.071-0.686c0-0.476,0.532-0.798,1.316-0.798c0.133,0,0.245,0.007,0.44,0.035V4.157c0-0.021,0-0.266,0-0.455
		c-0.224,0.021-0.343,0.028-0.497,0.028c-0.385,0-0.665-0.077-0.854-0.238c-0.161-0.133-0.231-0.273-0.259-0.532l0.098-0.021
		c0.063,0.217,0.14,0.315,0.301,0.399c0.112,0.056,0.344,0.091,0.561,0.091c0.203,0,0.44-0.028,0.65-0.07
		c0-0.14,0.008-0.861,0.008-0.938c0-0.238-0.021-0.315-0.105-0.434C22.125,2,22.02,2.008,21.873,2.008
		c-0.47,0-0.84-0.098-1.162-0.294L20.767,1.609z M21.754,5.207c-0.532,0-0.896,0.203-0.896,0.49c0,0.238,0.267,0.385,0.687,0.385
		c0.371,0,0.644-0.098,0.77-0.273c0.057-0.077,0.092-0.182,0.105-0.308c0.007-0.042,0.014-0.168,0.014-0.203
		c0-0.007,0-0.007,0-0.007C22.223,5.235,21.999,5.207,21.754,5.207z"/>
	<path d="M27.788,6.908c0.413-0.336,0.686-0.623,0.924-1.008c0.364-0.595,0.595-1.407,0.595-2.128c0-0.693-0.252-1.12-0.665-1.12
		c-0.371,0-0.86,0.301-1.344,0.826c-0.133,0.133-0.175,0.161-0.287,0.161c-0.146,0-0.314-0.112-0.462-0.315
		c-0.119-0.161-0.189-0.343-0.189-0.469c0-0.091,0.028-0.154,0.112-0.259c0.063,0.308,0.203,0.483,0.385,0.483
		c0.099,0,0.28-0.077,0.645-0.273c0.595-0.322,0.826-0.399,1.183-0.399c0.322,0,0.665,0.182,0.868,0.469
		c0.168,0.245,0.266,0.609,0.266,1.029c0,0.826-0.314,1.645-0.867,2.261c-0.344,0.378-0.7,0.644-1.1,0.819L27.788,6.908z
		 M27.402,0.544c0.344,0.287,0.819,0.448,1.31,0.448h0.161c0.14,0,0.237,0.049,0.378,0.168c0.098,0.084,0.146,0.168,0.146,0.238
		c0,0.098-0.098,0.154-0.287,0.154c-0.294,0.007-0.294,0.007-1.742,0.427l-0.035-0.098c0.524-0.238,1.008-0.455,1.183-0.518
		c-0.574-0.119-0.917-0.336-1.183-0.763L27.402,0.544z"/>
	<path d="M50.153,2.029c0.336,0.315,0.531,0.406,0.882,0.406c0.182,0,0.371-0.028,0.637-0.084c0.175-0.455,0.252-0.749,0.252-0.994
		c0-0.231-0.112-0.371-0.448-0.539c0.077-0.042,0.112-0.049,0.168-0.049c0.141,0,0.357,0.063,0.561,0.161
		c0.237,0.119,0.329,0.196,0.329,0.294c0,0.056-0.015,0.098-0.07,0.182c-0.028,0.056-0.175,0.343-0.427,0.861
		c0.518-0.182,0.581-0.217,0.776-0.385c0.057-0.049,0.077-0.056,0.147-0.056c0.272,0,0.476,0.091,0.476,0.21
		c0,0.182-0.434,0.357-1.547,0.616c-0.063,0.14-0.182,0.427-0.371,0.847c-0.21,0.483-0.749,1.659-0.812,1.778
		c-0.105,0.189-0.168,0.252-0.252,0.252c-0.119,0-0.217-0.217-0.217-0.497c0-0.14,0.014-0.182,0.076-0.252
		c0.154-0.168,0.238-0.273,0.336-0.42c0.344-0.511,0.596-0.987,0.875-1.645c-0.153,0.021-0.217,0.028-0.328,0.028
		c-0.253,0-0.441-0.042-0.616-0.147c-0.21-0.119-0.371-0.287-0.512-0.511L50.153,2.029z M53.855,2.421
		c0.483,0.042,0.875,0.168,1.197,0.385c0.273,0.175,0.441,0.385,0.441,0.546c0,0.119-0.07,0.203-0.183,0.203
		c-0.056,0-0.098-0.014-0.161-0.056c-0.195-0.119-0.328-0.147-0.686-0.147c-0.56,0-0.735,0.154-0.735,0.637
		c0,0.189,0.035,0.49,0.141,1.204c0.427,0.126,0.791,0.294,0.994,0.455c0.188,0.147,0.279,0.329,0.279,0.553
		c0,0.14-0.056,0.238-0.14,0.238c-0.07,0-0.098-0.021-0.245-0.182c-0.252-0.273-0.483-0.441-0.847-0.616c0,0.056,0,0.105,0,0.133
		c0,0.28-0.057,0.441-0.196,0.595c-0.189,0.189-0.518,0.301-0.91,0.301c-0.63,0-1.063-0.301-1.063-0.742
		c0-0.49,0.531-0.833,1.309-0.833c0.161,0,0.238,0.007,0.42,0.035C53.45,4.577,53.45,4.521,53.45,4.437
		c0-0.574,0.056-0.791,0.244-1.001c0.141-0.147,0.337-0.245,0.665-0.329c0.105-0.028,0.119-0.035,0.379-0.091
		c-0.189-0.203-0.406-0.315-0.903-0.483L53.855,2.421z M53.478,5.487c-0.217-0.063-0.378-0.084-0.602-0.084
		c-0.595,0-0.959,0.203-0.959,0.532c0,0.259,0.266,0.413,0.7,0.413c0.566,0,0.86-0.231,0.86-0.672V5.487z"/>
	<path d="M58.469,3.855c-0.014,0.063-0.119,0.504-0.314,1.316c-0.099,0.413-0.119,0.525-0.119,0.742
		c0,0.203-0.008,0.259-0.021,0.301c-0.028,0.077-0.091,0.119-0.168,0.119c-0.119,0-0.224-0.098-0.301-0.287
		C57.391,5.683,57.3,5.116,57.3,4.556c0-0.21,0.021-0.469,0.056-0.749c0.05-0.406,0.05-0.406,0.245-1.323
		c0.07-0.329,0.099-0.504,0.099-0.651c0-0.231-0.057-0.406-0.196-0.658c0.154,0.007,0.28,0.098,0.469,0.343
		c0.175,0.217,0.259,0.399,0.259,0.553c0,0.112-0.007,0.14-0.146,0.42c-0.141,0.294-0.309,0.784-0.378,1.113
		c-0.063,0.266-0.091,0.567-0.091,0.868c0,0.385,0.034,0.63,0.133,0.924C57.867,5.15,57.923,5.011,58,4.801l0.371-0.98L58.469,3.855
		z M59.351,4.206C59.337,4.346,59.33,4.409,59.33,4.5c0,0.77,0.44,1.085,1.525,1.085c0.203,0,0.406-0.014,0.596-0.049
		c0.146-0.021,0.146-0.021,0.371-0.112c0.042-0.014,0.076-0.021,0.104-0.021c0.182,0,0.441,0.245,0.441,0.413
		c0,0.084-0.057,0.14-0.154,0.175c-0.147,0.049-0.483,0.077-0.875,0.077c-0.875,0-1.498-0.147-1.813-0.427
		c-0.252-0.231-0.378-0.525-0.378-0.91c0-0.175,0.021-0.329,0.084-0.553L59.351,4.206z M59.337,1.979
		c0.245,0.147,0.398,0.189,0.651,0.189c0.434,0,1.112-0.154,1.406-0.315c0.091-0.049,0.105-0.056,0.154-0.056
		c0.056,0,0.147,0.035,0.245,0.098c0.146,0.084,0.217,0.168,0.217,0.259c0,0.091-0.049,0.133-0.196,0.161
		c-0.462,0.07-0.721,0.133-0.993,0.245c-0.218,0.091-0.623,0.315-0.903,0.497l-0.07-0.07c0.315-0.266,0.553-0.462,0.665-0.546
		c-0.146,0.007-0.224,0.014-0.287,0.014c-0.392,0-0.65-0.105-0.952-0.392L59.337,1.979z"/>
	<path d="M65.44,3.03c-0.489,0.161-0.714,0.252-0.909,0.364c-0.105,0.063-0.147,0.077-0.203,0.077c-0.077,0-0.218-0.091-0.309-0.21
		c-0.126-0.161-0.23-0.406-0.23-0.532c0-0.035,0.014-0.084,0.042-0.154c0.146,0.287,0.272,0.385,0.532,0.385
		c0.153,0,0.672-0.105,1.189-0.245c0.161-0.399,0.287-0.91,0.287-1.148c0-0.217-0.14-0.343-0.539-0.469
		c0.084-0.063,0.126-0.077,0.203-0.077c0.104,0,0.287,0.035,0.476,0.091c0.315,0.091,0.49,0.224,0.49,0.371
		c0,0.049-0.014,0.077-0.098,0.203c-0.091,0.133-0.245,0.462-0.448,0.945c0.308-0.063,0.434-0.077,0.609-0.077
		c0.602,0,0.889,0.357,0.889,1.092c0,0.896-0.357,2.058-0.763,2.506c-0.176,0.182-0.448,0.315-0.672,0.315
		c-0.119,0-0.176-0.049-0.189-0.161c-0.021-0.196-0.035-0.21-0.777-0.819l0.063-0.084c0.532,0.301,0.938,0.476,1.085,0.476
		c0.154,0,0.272-0.147,0.455-0.588c0.245-0.574,0.413-1.344,0.413-1.876c0-0.294-0.063-0.483-0.189-0.567
		c-0.07-0.049-0.161-0.07-0.314-0.07c-0.196,0-0.329,0.028-0.729,0.14c-0.098,0.245-0.098,0.245-0.406,0.952
		c-0.034,0.091-0.175,0.413-0.413,0.98c-0.279,0.658-0.511,1.162-0.622,1.358c-0.05,0.091-0.105,0.133-0.169,0.133
		c-0.126,0-0.202-0.182-0.202-0.483c0-0.175,0.021-0.231,0.161-0.392c0.133-0.147,0.321-0.448,0.518-0.826
		c0.266-0.511,0.266-0.511,0.56-1.155L65.44,3.03z M68.171,2.582c0.546,0.161,0.973,0.441,1.281,0.84
		c0.266,0.343,0.398,0.679,0.398,0.987c0,0.245-0.104,0.385-0.279,0.385c-0.057,0-0.085-0.007-0.161-0.049
		c-0.119-0.07-0.154-0.077-0.287-0.077c-0.245,0-0.28,0-0.875,0.063L68.22,4.64c0.735-0.224,0.847-0.266,1.071-0.357
		c-0.028-0.238-0.091-0.441-0.217-0.672c-0.225-0.434-0.497-0.7-0.959-0.931L68.171,2.582z M68.472,1.504
		c0.217,0.077,0.483,0.217,0.714,0.371c0.252,0.168,0.336,0.287,0.336,0.469c0,0.189-0.077,0.336-0.168,0.336
		c-0.069,0-0.111-0.049-0.21-0.231c-0.133-0.259-0.455-0.637-0.728-0.861L68.472,1.504z M69.053,1.042
		c0.238,0.07,0.469,0.168,0.7,0.301c0.252,0.14,0.371,0.28,0.371,0.434c0,0.189-0.063,0.336-0.141,0.336
		c-0.056,0-0.104-0.049-0.202-0.189c-0.189-0.294-0.393-0.497-0.784-0.805L69.053,1.042z"/>
	<path d="M76.13,5.172c-0.672,0.91-1.589,1.449-2.457,1.449c-0.532,0-0.945-0.217-1.162-0.595c-0.14-0.245-0.196-0.588-0.196-1.183
		c0-0.385,0.021-1.05,0.057-1.687c0.042-0.756,0.049-0.952,0.049-1.204c0-0.602-0.07-0.721-0.567-0.931
		c0.077-0.056,0.119-0.07,0.196-0.07c0.161,0,0.413,0.063,0.63,0.161c0.266,0.126,0.406,0.266,0.406,0.413
		c0,0.049-0.007,0.091-0.063,0.252c-0.133,0.42-0.363,2.541-0.363,3.36c0,0.427,0.084,0.679,0.279,0.84
		c0.154,0.119,0.378,0.189,0.623,0.189c0.477,0,1.064-0.168,1.597-0.448c0.321-0.168,0.524-0.315,0.889-0.623L76.13,5.172z"/>
	<path d="M7.145,19.312c1.513-0.448,2.479-1.022,3.276-1.946c0.826-0.938,1.246-2.086,1.246-3.374c0-1.358-0.546-2.436-1.582-3.094
		c-0.616-0.406-1.54-0.644-2.422-0.644c-0.168,0-0.267,0-0.49,0.028c0.336,0.49,0.434,0.756,0.434,1.162
		c0,1.092-0.783,3.136-1.848,4.844c-0.882,1.4-1.568,2.086-2.086,2.086c-0.238,0-0.462-0.112-0.616-0.294
		c-0.126-0.168-0.154-0.224-0.392-0.896c-0.126-0.364-0.21-0.532-0.616-1.316c-0.224-0.448-0.322-0.826-0.322-1.274
		c0-0.882,0.477-1.918,1.261-2.772c1.134-1.204,2.981-1.96,4.815-1.96c1.414,0,2.716,0.462,3.612,1.288
		c0.896,0.826,1.344,1.932,1.344,3.29c0,1.75-1.022,3.304-2.786,4.242c-0.812,0.434-1.54,0.658-2.729,0.868L7.145,19.312z
		 M2.539,14.958c0,0.672,0.21,1.358,0.56,1.848c0.196,0.252,0.378,0.406,0.532,0.406c0.308,0,0.979-0.756,1.666-1.848
		c1.036-1.652,1.778-3.458,1.778-4.326c0-0.21-0.042-0.35-0.196-0.7C4.442,10.772,2.539,12.802,2.539,14.958z"/>
	<path d="M22.041,17.044h1.189c0.267-0.35,0.351-0.462,0.645-0.798c0.504,0.392,0.658,0.518,1.147,0.952
		c0.042,0.042,0.057,0.07,0.057,0.098c0,0.042-0.057,0.07-0.126,0.07h-2.912v0.56c0.014,1.386,0.014,2.254,0.027,2.59
		c-0.027,0.182-0.195,0.238-0.699,0.238c-0.196,0-0.252-0.028-0.267-0.126c0.015-1.344,0.015-2.422,0.015-2.702v-0.56h-1.471
		c-0.447,0-0.882,0.028-1.176,0.084l-0.07-0.518c0.294,0.07,0.7,0.112,1.246,0.112h1.471V15.14h-1.933
		c-0.546,0-0.686,0.014-1.036,0.098l-0.084-0.518c0.294,0.07,0.589,0.098,1.12,0.098h2.912c0.406-0.798,0.729-1.736,0.84-2.45
		c1.372,0.574,1.442,0.602,1.442,0.714c0,0.112-0.084,0.14-0.729,0.154c-0.518,0.714-0.756,1.008-1.273,1.582h1.021
		c0.28-0.35,0.364-0.462,0.645-0.798c0.448,0.42,0.574,0.546,1.008,0.98c0.028,0.042,0.042,0.07,0.042,0.098
		c0,0.028-0.028,0.042-0.07,0.042h-2.981V17.044z M23.146,9.694c0.28-0.35,0.364-0.448,0.672-0.756
		c0.477,0.406,0.616,0.532,1.064,0.98c0.014,0.014,0.028,0.042,0.028,0.056c0,0.028-0.028,0.042-0.057,0.042h-2.813v1.876h1.302
		c0.28-0.336,0.364-0.434,0.644-0.756c0.463,0.392,0.603,0.518,1.036,0.938c0.028,0.042,0.057,0.07,0.057,0.084
		c0,0.028-0.028,0.056-0.057,0.056h-5.838c-0.42,0-0.77,0.028-1.008,0.098l-0.07-0.518c0.309,0.07,0.574,0.098,1.078,0.098h1.933
		v-1.876h-1.316c-0.42,0-0.798,0.042-1.05,0.098l-0.084-0.518c0.266,0.056,0.714,0.098,1.134,0.098h1.316V8.966
		c0-0.476-0.015-0.7-0.042-1.148C22.377,8,22.531,8.042,22.531,8.154c0,0.126-0.154,0.196-0.49,0.252v1.288H23.146z M19.437,12.326
		c0.882,0.574,1.456,1.176,1.456,1.54c0,0.322-0.363,0.798-0.602,0.798c-0.126,0-0.21-0.126-0.267-0.406
		c-0.153-0.868-0.336-1.33-0.714-1.848L19.437,12.326z M29.446,13.32c0.225-0.28,0.309-0.364,0.574-0.63
		c0.351,0.294,0.462,0.392,0.826,0.714c0.07,0.07,0.098,0.112,0.098,0.154c0,0.084-0.084,0.154-0.42,0.308
		c-0.602,1.876-0.924,2.59-1.651,3.654c0.812,0.91,1.567,1.386,2.786,1.778v0.14c-0.463,0.182-0.7,0.462-0.868,0.966
		c-1.078-0.714-1.681-1.288-2.38-2.282c-0.729,0.896-1.61,1.694-2.254,2.016v0.336c-0.015,0.084-0.028,0.126-0.099,0.14
		c-0.084,0.042-0.406,0.07-0.63,0.07c-0.14,0-0.196-0.028-0.21-0.126c0.014-1.246,0.028-3.948,0.028-8.904
		c0-2.436-0.015-2.8-0.07-3.57c0.518,0.28,0.658,0.364,1.12,0.672h3.206c0.224-0.308,0.294-0.392,0.518-0.672
		c0.393,0.28,0.504,0.364,0.882,0.672c0.084,0.07,0.126,0.126,0.126,0.168c0,0.098-0.098,0.168-0.42,0.322
		c-0.098,1.204-0.224,2.142-0.378,2.534c-0.084,0.252-0.308,0.406-0.756,0.574c-0.252,0.084-0.448,0.126-0.882,0.154
		c-0.042-0.322-0.14-0.476-0.378-0.644c-0.224-0.154-0.49-0.224-1.204-0.322l0.014-0.238c0.616,0.042,1.933,0.14,2.059,0.14
		c0.224,0,0.322-0.112,0.363-0.406c0.141-0.896,0.183-1.372,0.211-1.96h-3.5v4.242H29.446z M26.157,13.642v6.202
		c0.573-0.42,1.245-1.246,1.89-2.296c-0.7-1.232-1.204-2.66-1.344-3.906H26.157z M26.982,13.642c0.406,1.61,0.7,2.31,1.4,3.304
		c0.602-1.12,0.91-2.03,1.134-3.304H26.982z"/>
	<path d="M42.285,8.308c1.456,0.7,2.029,1.274,2.029,2.03c0,0.336-0.153,0.532-0.42,0.532c-0.084,0-0.111-0.014-0.434-0.14
		c-0.378-0.14-0.91-0.252-1.526-0.322c-0.952-0.112-1.848-0.182-2.17-0.182s-0.532,0.154-0.532,0.392
		c0,0.196,0.294,0.896,0.925,2.184c0.77-0.42,1.651-0.826,2.449-1.134c1.022-0.392,1.834-0.56,2.688-0.56
		c1.694,0,2.897,0.91,2.897,2.212c0,0.546-0.279,1.176-0.714,1.596c-0.504,0.49-1.273,0.756-2.226,0.756
		c-1.134,0-2.311-0.392-3.178-1.05l0.098-0.21C42.9,14.776,43.811,15,44.623,15c0.938,0,1.68-0.266,2.1-0.756
		c0.294-0.336,0.448-0.756,0.448-1.204c0-0.966-0.729-1.512-2.016-1.512c-0.757,0-1.442,0.196-2.646,0.77
		c-0.658,0.322-1.302,0.672-2.072,1.134c0.672,1.358,1.092,2.296,1.568,3.486c0.546,1.386,0.686,1.834,0.686,2.296
		c0,0.602-0.266,1.05-0.644,1.05c-0.07,0-0.154-0.056-0.224-0.14c-0.084-0.098-0.126-0.238-0.183-0.616
		c-0.266-1.75-0.84-3.654-1.735-5.768c-0.799,0.532-1.274,0.868-1.442,0.98c-0.21,0.154-0.266,0.196-0.378,0.28
		c-0.183,0.154-0.309,0.21-0.49,0.21c-0.616,0-1.484-0.896-1.484-1.526c0-0.056,0.015-0.126,0.057-0.238
		c0.322,0.476,0.658,0.728,0.979,0.728c0.393,0,1.232-0.378,2.45-1.078c-0.35-0.784-0.686-1.372-0.966-1.722
		c-0.252-0.336-0.294-0.42-0.294-0.602c0-0.462,0.546-0.952,1.05-0.952c0.168,0,0.182,0,0.435,0.07
		c0.084,0.028,0.168,0.028,0.363,0.042c0.057,0,0.49,0,1.12,0.014c0.351,0.014,0.63,0.014,1.05,0.014
		c0.813,0,0.924-0.028,0.924-0.182c0-0.28-0.489-0.826-1.134-1.288L42.285,8.308z"/>
	<path d="M63.732,15.798h3.641c0.378-0.462,0.504-0.602,0.924-1.036c0.574,0.49,0.742,0.644,1.273,1.162
		c0.028,0.042,0.042,0.084,0.042,0.112c0,0.042-0.056,0.084-0.126,0.084h-5.474c0.532,0.658,0.826,0.924,1.372,1.274
		c0.84,0.532,1.848,0.952,2.884,1.204c0.42,0.098,0.729,0.154,1.4,0.21v0.224c-0.532,0.182-0.7,0.336-0.994,0.924
		c-1.414-0.532-2.184-0.952-3.038-1.624c-0.742-0.602-1.189-1.12-1.904-2.212v1.652c0,0.266,0.015,1.764,0.028,2.576
		c0,0.014,0.014,0.042,0.014,0.042c0,0.168-0.21,0.238-0.728,0.238c-0.21,0-0.266-0.042-0.266-0.154c0-0.014,0-0.028,0-0.042
		c0-0.21,0.027-1.092,0.056-2.66v-1.4c-1.12,1.26-1.834,1.834-3.234,2.604c-0.826,0.448-1.47,0.742-2.646,1.19L56.845,19.9
		c1.218-0.56,2.282-1.204,3.178-1.89c0.715-0.56,1.106-0.938,1.904-1.89h-3.794c-0.336,0-0.63,0.028-0.938,0.084l-0.098-0.532
		c0.351,0.084,0.672,0.126,1.036,0.126h4.704v-1.54h-1.428v0.364c-0.015,0.126-0.042,0.168-0.126,0.196
		c-0.099,0.042-0.406,0.07-0.645,0.07c-0.21,0-0.252-0.028-0.252-0.182c0.042-1.456,0.042-1.456,0.056-4.69h-2.184
		c-0.392,0-0.672,0.028-1.064,0.084l-0.098-0.518c0.42,0.084,0.742,0.112,1.218,0.112h2.128V8.91c0-0.364-0.014-0.588-0.056-1.064
		C61.772,8,61.982,8.042,61.982,8.182c0,0.112-0.168,0.196-0.573,0.308v1.204h3.695V8.91c0-0.252-0.014-0.49-0.056-1.078
		c1.54,0.196,1.652,0.21,1.652,0.364c0,0.112-0.099,0.154-0.645,0.294v1.204h1.47c0.364-0.434,0.477-0.56,0.868-0.952
		c0.546,0.434,0.7,0.588,1.204,1.092c0.014,0.042,0.028,0.07,0.028,0.098c0,0.042-0.07,0.084-0.141,0.084h-3.443
		c0,1.68,0.027,3.654,0.056,4.536c-0.014,0.112-0.042,0.154-0.126,0.196s-0.448,0.084-0.672,0.084c-0.154,0-0.196-0.042-0.196-0.182
		v-0.392h-1.372V15.798z M61.409,11.78h3.695v-1.764h-3.695V11.78z M61.409,13.936h3.695v-1.862h-3.695V13.936z"/>
	<path d="M84.145,19.312c1.513-0.448,2.479-1.022,3.276-1.946c0.826-0.938,1.246-2.086,1.246-3.374c0-1.358-0.546-2.436-1.582-3.094
		c-0.616-0.406-1.54-0.644-2.422-0.644c-0.168,0-0.267,0-0.49,0.028c0.336,0.49,0.434,0.756,0.434,1.162
		c0,1.092-0.783,3.136-1.848,4.844c-0.882,1.4-1.568,2.086-2.086,2.086c-0.238,0-0.462-0.112-0.616-0.294
		c-0.126-0.168-0.154-0.224-0.392-0.896c-0.126-0.364-0.21-0.532-0.616-1.316c-0.224-0.448-0.322-0.826-0.322-1.274
		c0-0.882,0.477-1.918,1.261-2.772c1.134-1.204,2.981-1.96,4.815-1.96c1.414,0,2.716,0.462,3.612,1.288
		c0.896,0.826,1.344,1.932,1.344,3.29c0,1.75-1.022,3.304-2.786,4.242c-0.812,0.434-1.54,0.658-2.729,0.868L84.145,19.312z
		 M79.539,14.958c0,0.672,0.21,1.358,0.56,1.848c0.196,0.252,0.378,0.406,0.532,0.406c0.308,0,0.979-0.756,1.666-1.848
		c1.036-1.652,1.778-3.458,1.778-4.326c0-0.21-0.042-0.35-0.196-0.7C81.442,10.772,79.539,12.802,79.539,14.958z"/>
	<path d="M15.055,22.91c0.351,0.322,0.497,0.392,0.847,0.392c0.147,0,0.399-0.028,0.581-0.063c0.015-0.175,0.015-0.266,0.015-0.469
		c0-0.35-0.021-0.448-0.105-0.553c-0.091-0.105-0.217-0.161-0.434-0.196c0.098-0.091,0.154-0.112,0.301-0.112
		c0.168,0,0.42,0.056,0.623,0.14c0.126,0.049,0.203,0.133,0.203,0.21c0,0.056,0,0.056-0.077,0.196
		c-0.056,0.119-0.133,0.427-0.175,0.714c0.224-0.063,0.406-0.133,0.602-0.245c0.147-0.077,0.161-0.091,0.294-0.217
		c0.057-0.049,0.105-0.07,0.189-0.07c0.196,0,0.398,0.133,0.398,0.259c0,0.084-0.084,0.154-0.308,0.259
		c-0.35,0.154-0.693,0.266-1.218,0.371c-0.028,0.203-0.091,0.854-0.099,1.134c0.07,0.182,0.092,0.28,0.092,0.476
		c0,0.336-0.077,0.595-0.273,0.868c-0.21,0.315-0.301,0.518-0.301,0.693c0,0.301,0.378,0.434,1.211,0.434
		c0.63,0,1.253-0.112,1.596-0.28c0.141-0.07,0.168-0.133,0.168-0.371c0-0.462-0.007-0.77-0.069-2.107
		c-0.008-0.098-0.008-0.189-0.008-0.294c0-0.308,0.028-0.462,0.119-0.574c0.099-0.133,0.238-0.196,0.413-0.196
		c0.532,0,1.092,0.525,1.092,1.015c0,0.189-0.118,0.329-0.287,0.329c-0.056,0-0.098-0.014-0.16-0.049
		c-0.057-0.028-0.119-0.042-0.21-0.042c-0.063,0-0.336,0.056-0.512,0.098l-0.027-0.07c0.524-0.266,0.692-0.371,0.692-0.434
		c0-0.105-0.126-0.35-0.245-0.476c-0.14-0.14-0.294-0.224-0.44-0.224c-0.175,0-0.267,0.147-0.267,0.441
		c0,0.581,0.119,1.533,0.273,2.156c0.049,0.203,0.077,0.287,0.147,0.392c0.098,0.147,0.126,0.224,0.126,0.329
		c0,0.224-0.231,0.448-0.567,0.553c-0.392,0.126-1.029,0.21-1.61,0.21c-1.141,0-1.673-0.266-1.673-0.84
		c0-0.133,0.021-0.252,0.091-0.469c-0.027,0-0.042,0-0.056,0c-0.112,0-0.259-0.063-0.378-0.147
		c-0.238-0.182-0.378-0.497-0.378-0.861c0-0.567,0.308-0.952,0.749-0.952c0.168,0,0.28,0.035,0.427,0.133
		c0-0.063,0-0.063,0.028-0.42c0-0.084,0.007-0.14,0.014-0.406c-0.175,0.007-0.266,0.014-0.364,0.014
		c-0.546,0-0.798-0.133-1.134-0.609L15.055,22.91z M16.392,25.065c0-0.42-0.153-0.644-0.44-0.644c-0.267,0-0.448,0.259-0.448,0.644
		c0,0.434,0.245,0.77,0.56,0.77c0.105,0,0.203-0.056,0.245-0.154c0.049-0.105,0.084-0.315,0.084-0.532V25.065z"/>
	<path d="M24.715,21.762c0.196,0,0.581,0.182,0.777,0.371c0.111,0.112,0.153,0.182,0.153,0.28c0,0.091-0.035,0.133-0.405,0.434
		c-0.378,0.315-1.064,0.959-1.288,1.211c-0.245,0.273-0.336,0.434-0.336,0.567c0,0.098,0.069,0.224,0.21,0.364
		c0.098,0.105,0.098,0.105,0.489,0.462c0.764,0.707,1.12,1.099,1.288,1.428c0.077,0.147,0.105,0.273,0.105,0.462
		c0,0.266-0.091,0.42-0.238,0.42c-0.091,0-0.119-0.035-0.238-0.287c-0.126-0.273-0.343-0.644-0.588-0.987
		c-0.259-0.371-0.294-0.413-1.021-1.267c-0.189-0.231-0.267-0.399-0.267-0.588c0-0.224,0.112-0.413,0.539-0.938
		c0.848-1.029,1.058-1.323,1.058-1.491c0-0.119-0.091-0.224-0.386-0.413C24.617,21.769,24.651,21.762,24.715,21.762z"/>
	<path d="M31.441,24.646c-0.511,1.176-0.657,1.589-0.657,1.869c0,0.056,0,0.056,0.042,0.238c0.007,0.035,0.014,0.077,0.014,0.112
		c0,0.098-0.07,0.175-0.154,0.175c-0.195,0-0.553-0.273-0.77-0.595c-0.238-0.343-0.406-0.84-0.477-1.4
		c-0.042-0.308-0.049-0.483-0.049-1.232c-0.007-0.651-0.056-0.812-0.356-1.204c0.021,0,0.034,0,0.063,0
		c0.112,0,0.315,0.133,0.525,0.343c0.21,0.203,0.314,0.392,0.314,0.553c0,0.042-0.007,0.098-0.021,0.182
		c-0.084,0.427-0.126,0.756-0.126,1.043c0,0.378,0.056,0.728,0.161,1.015c0.104,0.287,0.188,0.413,0.363,0.546
		c0.077-0.112,0.077-0.112,0.231-0.371c0.224-0.378,0.224-0.378,0.588-0.987c0.112-0.182,0.112-0.182,0.203-0.336L31.441,24.646z
		 M32.933,23.378c0.882,0.196,1.582,1.127,1.582,2.093c0,0.336-0.14,0.553-0.35,0.553c-0.07,0-0.112-0.014-0.21-0.077
		c-0.091-0.063-0.225-0.084-0.525-0.084c-0.161,0-0.294,0-0.532,0.014l-0.021-0.105c0.566-0.154,0.882-0.245,0.945-0.266
		c0.14-0.049,0.16-0.077,0.16-0.21c0-0.259-0.098-0.665-0.217-0.917c-0.188-0.406-0.469-0.7-0.868-0.917L32.933,23.378z"/>
	<path d="M58.259,24.765c-0.049,0.616-0.182,1.106-0.42,1.533c-0.168,0.294-0.322,0.441-0.483,0.441c-0.126,0-0.21-0.168-0.21-0.406
		c0-0.14,0.035-0.203,0.176-0.28c0.363-0.203,0.706-0.763,0.812-1.302L58.259,24.765z M57.503,23.484
		c0.238,0.294,0.413,0.378,0.819,0.378c0.21,0,0.602-0.035,1.203-0.119c0-0.084,0-0.119,0-0.161c0-0.658-0.014-0.812-0.098-0.952
		c-0.07-0.133-0.182-0.203-0.469-0.301c0.063-0.063,0.119-0.084,0.21-0.084c0.14,0,0.42,0.063,0.608,0.14
		c0.231,0.098,0.344,0.196,0.344,0.315c0,0.07-0.015,0.105-0.077,0.217c-0.07,0.112-0.105,0.308-0.141,0.763
		c0.589-0.084,1.036-0.21,1.232-0.35c0.056-0.035,0.084-0.049,0.133-0.049c0.084,0,0.238,0.042,0.371,0.105
		c0.175,0.084,0.267,0.161,0.267,0.252s-0.084,0.126-0.322,0.154c-0.301,0.035-0.301,0.035-0.89,0.119
		c-0.447,0.063-0.714,0.098-0.798,0.112c-0.007,0.364-0.007,0.427-0.007,0.588c0,0.826,0.021,1.33,0.077,1.89
		c0.007,0.077,0.007,0.147,0.007,0.231c0,0.224-0.027,0.364-0.119,0.56c-0.077,0.182-0.161,0.259-0.279,0.259
		c-0.092,0-0.147-0.063-0.203-0.224c-0.077-0.21-0.147-0.273-0.756-0.651c-0.168-0.098-0.196-0.119-0.336-0.21l0.034-0.077
		c0.525,0.175,0.665,0.217,1.169,0.315c0.015-0.21,0.035-1.092,0.05-2.646c-0.315,0.042-0.903,0.091-1.106,0.091
		c-0.525,0-0.791-0.154-1.015-0.609L57.503,23.484z M60.884,24.646c0.518,0.329,0.861,0.602,1.092,0.882
		c0.168,0.203,0.217,0.322,0.217,0.518c0,0.294-0.126,0.553-0.266,0.553c-0.077,0-0.091-0.021-0.21-0.371
		c-0.189-0.574-0.504-1.099-0.903-1.505L60.884,24.646z M60.981,21.972c0.455,0.168,0.749,0.322,0.967,0.511
		c0.126,0.105,0.175,0.217,0.175,0.399c0,0.161-0.07,0.294-0.161,0.294c-0.056,0-0.105-0.042-0.168-0.147
		c-0.203-0.343-0.477-0.644-0.868-0.966L60.981,21.972z M61.646,21.544c0.413,0.126,0.687,0.245,0.882,0.385
		c0.196,0.133,0.26,0.231,0.26,0.427c0,0.175-0.07,0.308-0.161,0.308c-0.063,0-0.084-0.021-0.196-0.189
		c-0.217-0.336-0.406-0.532-0.833-0.854L61.646,21.544z"/>
	<path d="M65.776,27.606c0.554-0.392,0.925-0.742,1.303-1.232c0.405-0.532,0.692-1.057,0.973-1.792
		c0.182-0.476,0.259-0.798,0.301-1.197c-0.111-0.007-0.14-0.007-0.224-0.007c-0.63,0-1.61,0.126-2.437,0.308
		c-0.056,0.014-0.098,0.021-0.126,0.021c-0.084,0-0.175-0.035-0.356-0.126c0.028,0.077,0.028,0.084,0.035,0.315
		c0.007,0.497,0.014,0.973,0.014,1.008c0,0.259-0.049,0.378-0.161,0.378c-0.154,0-0.398-0.364-0.398-0.588
		c0-0.049,0.007-0.077,0.049-0.161c0.042-0.105,0.063-0.266,0.063-0.511c0-0.539-0.119-0.763-0.511-0.987
		C64.355,23.008,64.384,23,64.439,23c0.196,0,0.302,0.056,0.735,0.399c0.175,0,0.203-0.007,0.693-0.077
		c0.279-0.042,0.371-0.049,0.595-0.077c0.007-0.112,0.007-0.161,0.007-0.315c0-0.434-0.021-0.623-0.091-0.742
		c-0.063-0.119-0.119-0.154-0.378-0.252c0.056-0.049,0.104-0.07,0.175-0.07c0.406,0,0.924,0.217,0.924,0.392
		c0,0.042-0.014,0.07-0.063,0.161c-0.099,0.168-0.141,0.392-0.154,0.777c1.211-0.105,1.33-0.119,1.435-0.175
		c0.057-0.028,0.092-0.042,0.126-0.042c0.07,0,0.183,0.063,0.344,0.189c0.203,0.168,0.272,0.259,0.272,0.357
		c0,0.07-0.007,0.084-0.084,0.168c-0.063,0.063-0.104,0.161-0.203,0.42c-0.252,0.672-0.42,1.05-0.672,1.463
		c-0.469,0.777-0.896,1.26-1.519,1.694c-0.309,0.217-0.483,0.322-0.742,0.434L65.776,27.606z"/>
</g>
<g>
	<path d="M19.948,38.471c-0.399,1.4-0.512,1.911-0.512,2.338c-0.007,0.196-0.056,0.287-0.168,0.287
		c-0.119,0-0.224-0.091-0.287-0.245c-0.153-0.364-0.252-0.973-0.252-1.589c0-0.28,0.021-0.616,0.063-0.91
		c0.049-0.406,0.049-0.406,0.294-1.442c0.07-0.308,0.104-0.532,0.104-0.679c0-0.161-0.069-0.336-0.21-0.539
		c0.154,0.007,0.245,0.07,0.413,0.273c0.196,0.231,0.315,0.483,0.315,0.672c0,0.098-0.014,0.14-0.105,0.308
		c-0.35,0.658-0.56,1.491-0.56,2.254c0,0.35,0.028,0.56,0.119,0.938l0.665-1.715L19.948,38.471z M20.767,36.259
		c0.238,0.105,0.435,0.14,0.749,0.14c0.553,0,1.204-0.147,1.617-0.357c0.049-0.028,0.105-0.049,0.126-0.049
		c0.168,0,0.392,0.14,0.392,0.238c0,0.077-0.069,0.133-0.23,0.189c-0.259,0.091-0.546,0.154-0.875,0.196
		c0.21,0.161,0.272,0.245,0.272,0.343c0,0.028-0.007,0.063-0.014,0.112c-0.021,0.126-0.028,0.224-0.042,0.84
		c0.266-0.098,0.364-0.154,0.567-0.336c0.027-0.021,0.069-0.049,0.091-0.049c0.028,0,0.119,0.028,0.168,0.049
		c0.091,0.056,0.146,0.119,0.146,0.182s-0.049,0.14-0.133,0.196c-0.217,0.14-0.504,0.259-0.84,0.343
		c0.014,0.448,0.035,0.84,0.084,1.372c0.861,0.252,1.218,0.525,1.218,0.931c0,0.133-0.063,0.231-0.153,0.231
		c-0.057,0-0.105-0.028-0.183-0.105c-0.35-0.371-0.489-0.469-0.86-0.63c0,0.287-0.021,0.378-0.084,0.518
		c-0.141,0.273-0.512,0.427-1.029,0.427c-0.645,0-1.071-0.273-1.071-0.686c0-0.476,0.532-0.798,1.316-0.798
		c0.133,0,0.245,0.007,0.44,0.035v-0.784c0-0.021,0-0.266,0-0.455c-0.224,0.021-0.343,0.028-0.497,0.028
		c-0.385,0-0.665-0.077-0.854-0.238c-0.161-0.133-0.231-0.273-0.259-0.532l0.098-0.021c0.063,0.217,0.14,0.315,0.301,0.399
		c0.112,0.056,0.344,0.091,0.561,0.091c0.203,0,0.44-0.028,0.65-0.07c0-0.14,0.008-0.861,0.008-0.938
		c0-0.238-0.021-0.315-0.105-0.434c-0.217,0.014-0.322,0.021-0.469,0.021c-0.47,0-0.84-0.098-1.162-0.294L20.767,36.259z
		 M21.754,39.857c-0.532,0-0.896,0.203-0.896,0.49c0,0.238,0.267,0.385,0.687,0.385c0.371,0,0.644-0.098,0.77-0.273
		c0.057-0.077,0.092-0.182,0.105-0.308c0.007-0.042,0.014-0.168,0.014-0.203c0-0.007,0-0.007,0-0.007
		C22.223,39.885,21.999,39.857,21.754,39.857z"/>
	<path d="M27.788,41.558c0.413-0.336,0.686-0.623,0.924-1.008c0.364-0.595,0.595-1.407,0.595-2.128c0-0.693-0.252-1.12-0.665-1.12
		c-0.371,0-0.86,0.301-1.344,0.826c-0.133,0.133-0.175,0.161-0.287,0.161c-0.146,0-0.314-0.112-0.462-0.315
		c-0.119-0.161-0.189-0.343-0.189-0.469c0-0.091,0.028-0.154,0.112-0.259c0.063,0.308,0.203,0.483,0.385,0.483
		c0.099,0,0.28-0.077,0.645-0.273c0.595-0.322,0.826-0.399,1.183-0.399c0.322,0,0.665,0.182,0.868,0.469
		c0.168,0.245,0.266,0.609,0.266,1.029c0,0.826-0.314,1.645-0.867,2.261c-0.344,0.378-0.7,0.644-1.1,0.819L27.788,41.558z
		 M27.402,35.195c0.344,0.287,0.819,0.448,1.31,0.448h0.161c0.14,0,0.237,0.049,0.378,0.168c0.098,0.084,0.146,0.168,0.146,0.238
		c0,0.098-0.098,0.154-0.287,0.154c-0.294,0.007-0.294,0.007-1.742,0.427l-0.035-0.098c0.524-0.238,1.008-0.455,1.183-0.518
		c-0.574-0.119-0.917-0.336-1.183-0.763L27.402,35.195z"/>
	<path d="M50.153,36.679c0.336,0.315,0.531,0.406,0.882,0.406c0.182,0,0.371-0.028,0.637-0.084c0.175-0.455,0.252-0.749,0.252-0.994
		c0-0.231-0.112-0.371-0.448-0.539c0.077-0.042,0.112-0.049,0.168-0.049c0.141,0,0.357,0.063,0.561,0.161
		c0.237,0.119,0.329,0.196,0.329,0.294c0,0.056-0.015,0.098-0.07,0.182c-0.028,0.056-0.175,0.343-0.427,0.861
		c0.518-0.182,0.581-0.217,0.776-0.385c0.057-0.049,0.077-0.056,0.147-0.056c0.272,0,0.476,0.091,0.476,0.21
		c0,0.182-0.434,0.357-1.547,0.616c-0.063,0.14-0.182,0.427-0.371,0.847c-0.21,0.483-0.749,1.659-0.812,1.778
		c-0.105,0.189-0.168,0.252-0.252,0.252c-0.119,0-0.217-0.217-0.217-0.497c0-0.14,0.014-0.182,0.076-0.252
		c0.154-0.168,0.238-0.273,0.336-0.42c0.344-0.511,0.596-0.987,0.875-1.645c-0.153,0.021-0.217,0.028-0.328,0.028
		c-0.253,0-0.441-0.042-0.616-0.147c-0.21-0.119-0.371-0.287-0.512-0.511L50.153,36.679z M53.855,37.071
		c0.483,0.042,0.875,0.168,1.197,0.385c0.273,0.175,0.441,0.385,0.441,0.546c0,0.119-0.07,0.203-0.183,0.203
		c-0.056,0-0.098-0.014-0.161-0.056c-0.195-0.119-0.328-0.147-0.686-0.147c-0.56,0-0.735,0.154-0.735,0.637
		c0,0.189,0.035,0.49,0.141,1.204c0.427,0.126,0.791,0.294,0.994,0.455c0.188,0.147,0.279,0.329,0.279,0.553
		c0,0.14-0.056,0.238-0.14,0.238c-0.07,0-0.098-0.021-0.245-0.182c-0.252-0.273-0.483-0.441-0.847-0.616c0,0.056,0,0.105,0,0.133
		c0,0.28-0.057,0.441-0.196,0.595c-0.189,0.189-0.518,0.301-0.91,0.301c-0.63,0-1.063-0.301-1.063-0.742
		c0-0.49,0.531-0.833,1.309-0.833c0.161,0,0.238,0.007,0.42,0.035c-0.021-0.553-0.021-0.609-0.021-0.693
		c0-0.574,0.056-0.791,0.244-1.001c0.141-0.147,0.337-0.245,0.665-0.329c0.105-0.028,0.119-0.035,0.379-0.091
		c-0.189-0.203-0.406-0.315-0.903-0.483L53.855,37.071z M53.478,40.137c-0.217-0.063-0.378-0.084-0.602-0.084
		c-0.595,0-0.959,0.203-0.959,0.532c0,0.259,0.266,0.413,0.7,0.413c0.566,0,0.86-0.231,0.86-0.672V40.137z"/>
	<path d="M58.469,38.506c-0.014,0.063-0.119,0.504-0.314,1.316c-0.099,0.413-0.119,0.525-0.119,0.742
		c0,0.203-0.008,0.259-0.021,0.301c-0.028,0.077-0.091,0.119-0.168,0.119c-0.119,0-0.224-0.098-0.301-0.287
		c-0.154-0.364-0.245-0.931-0.245-1.491c0-0.21,0.021-0.469,0.056-0.749c0.05-0.406,0.05-0.406,0.245-1.323
		c0.07-0.329,0.099-0.504,0.099-0.651c0-0.231-0.057-0.406-0.196-0.658c0.154,0.007,0.28,0.098,0.469,0.343
		c0.175,0.217,0.259,0.399,0.259,0.553c0,0.112-0.007,0.14-0.146,0.42c-0.141,0.294-0.309,0.784-0.378,1.113
		c-0.063,0.266-0.091,0.567-0.091,0.868c0,0.385,0.034,0.63,0.133,0.924c0.119-0.245,0.175-0.385,0.252-0.595l0.371-0.98
		L58.469,38.506z M59.351,38.856c-0.014,0.14-0.021,0.203-0.021,0.294c0,0.77,0.44,1.085,1.525,1.085
		c0.203,0,0.406-0.014,0.596-0.049c0.146-0.021,0.146-0.021,0.371-0.112c0.042-0.014,0.076-0.021,0.104-0.021
		c0.182,0,0.441,0.245,0.441,0.413c0,0.084-0.057,0.14-0.154,0.175c-0.147,0.049-0.483,0.077-0.875,0.077
		c-0.875,0-1.498-0.147-1.813-0.427c-0.252-0.231-0.378-0.525-0.378-0.91c0-0.175,0.021-0.329,0.084-0.553L59.351,38.856z
		 M59.337,36.63c0.245,0.147,0.398,0.189,0.651,0.189c0.434,0,1.112-0.154,1.406-0.315c0.091-0.049,0.105-0.056,0.154-0.056
		c0.056,0,0.147,0.035,0.245,0.098c0.146,0.084,0.217,0.168,0.217,0.259c0,0.091-0.049,0.133-0.196,0.161
		c-0.462,0.07-0.721,0.133-0.993,0.245c-0.218,0.091-0.623,0.315-0.903,0.497l-0.07-0.07c0.315-0.266,0.553-0.462,0.665-0.546
		c-0.146,0.007-0.224,0.014-0.287,0.014c-0.392,0-0.65-0.105-0.952-0.392L59.337,36.63z"/>
	<path d="M65.44,37.68c-0.489,0.161-0.714,0.252-0.909,0.364c-0.105,0.063-0.147,0.077-0.203,0.077c-0.077,0-0.218-0.091-0.309-0.21
		c-0.126-0.161-0.23-0.406-0.23-0.532c0-0.035,0.014-0.084,0.042-0.154c0.146,0.287,0.272,0.385,0.532,0.385
		c0.153,0,0.672-0.105,1.189-0.245c0.161-0.399,0.287-0.91,0.287-1.148c0-0.217-0.14-0.343-0.539-0.469
		c0.084-0.063,0.126-0.077,0.203-0.077c0.104,0,0.287,0.035,0.476,0.091c0.315,0.091,0.49,0.224,0.49,0.371
		c0,0.049-0.014,0.077-0.098,0.203c-0.091,0.133-0.245,0.462-0.448,0.945c0.308-0.063,0.434-0.077,0.609-0.077
		c0.602,0,0.889,0.357,0.889,1.092c0,0.896-0.357,2.058-0.763,2.506c-0.176,0.182-0.448,0.315-0.672,0.315
		c-0.119,0-0.176-0.049-0.189-0.161c-0.021-0.196-0.035-0.21-0.777-0.819l0.063-0.084c0.532,0.301,0.938,0.476,1.085,0.476
		c0.154,0,0.272-0.147,0.455-0.588c0.245-0.574,0.413-1.344,0.413-1.876c0-0.294-0.063-0.483-0.189-0.567
		c-0.07-0.049-0.161-0.07-0.314-0.07c-0.196,0-0.329,0.028-0.729,0.14c-0.098,0.245-0.098,0.245-0.406,0.952
		c-0.034,0.091-0.175,0.413-0.413,0.98c-0.279,0.658-0.511,1.162-0.622,1.358c-0.05,0.091-0.105,0.133-0.169,0.133
		c-0.126,0-0.202-0.182-0.202-0.483c0-0.175,0.021-0.231,0.161-0.392c0.133-0.147,0.321-0.448,0.518-0.826
		c0.266-0.511,0.266-0.511,0.56-1.155L65.44,37.68z M68.171,37.232c0.546,0.161,0.973,0.441,1.281,0.84
		c0.266,0.343,0.398,0.679,0.398,0.987c0,0.245-0.104,0.385-0.279,0.385c-0.057,0-0.085-0.007-0.161-0.049
		c-0.119-0.07-0.154-0.077-0.287-0.077c-0.245,0-0.28,0-0.875,0.063L68.22,39.29c0.735-0.224,0.847-0.266,1.071-0.357
		c-0.028-0.238-0.091-0.441-0.217-0.672c-0.225-0.434-0.497-0.7-0.959-0.931L68.171,37.232z M68.472,36.154
		c0.217,0.077,0.483,0.217,0.714,0.371c0.252,0.168,0.336,0.287,0.336,0.469c0,0.189-0.077,0.336-0.168,0.336
		c-0.069,0-0.111-0.049-0.21-0.231c-0.133-0.259-0.455-0.637-0.728-0.861L68.472,36.154z M69.053,35.692
		c0.238,0.07,0.469,0.168,0.7,0.301c0.252,0.14,0.371,0.28,0.371,0.434c0,0.189-0.063,0.336-0.141,0.336
		c-0.056,0-0.104-0.049-0.202-0.189c-0.189-0.294-0.393-0.497-0.784-0.805L69.053,35.692z"/>
	<path d="M76.13,39.822c-0.672,0.91-1.589,1.449-2.457,1.449c-0.532,0-0.945-0.217-1.162-0.595c-0.14-0.245-0.196-0.588-0.196-1.183
		c0-0.385,0.021-1.05,0.057-1.687c0.042-0.756,0.049-0.952,0.049-1.204c0-0.602-0.07-0.721-0.567-0.931
		c0.077-0.056,0.119-0.07,0.196-0.07c0.161,0,0.413,0.063,0.63,0.161c0.266,0.126,0.406,0.266,0.406,0.413
		c0,0.049-0.007,0.091-0.063,0.252c-0.133,0.42-0.363,2.541-0.363,3.36c0,0.427,0.084,0.679,0.279,0.84
		c0.154,0.119,0.378,0.189,0.623,0.189c0.477,0,1.064-0.168,1.597-0.448c0.321-0.168,0.524-0.315,0.889-0.623L76.13,39.822z"/>
	<path d="M7.145,53.962c1.513-0.448,2.479-1.022,3.276-1.946c0.826-0.938,1.246-2.086,1.246-3.374c0-1.358-0.546-2.436-1.582-3.094
		c-0.616-0.406-1.54-0.644-2.422-0.644c-0.168,0-0.267,0-0.49,0.028c0.336,0.49,0.434,0.756,0.434,1.162
		c0,1.092-0.783,3.136-1.848,4.844c-0.882,1.4-1.568,2.086-2.086,2.086c-0.238,0-0.462-0.112-0.616-0.294
		c-0.126-0.168-0.154-0.224-0.392-0.896c-0.126-0.364-0.21-0.532-0.616-1.316c-0.224-0.448-0.322-0.826-0.322-1.274
		c0-0.882,0.477-1.918,1.261-2.772c1.134-1.204,2.981-1.96,4.815-1.96c1.414,0,2.716,0.462,3.612,1.288
		c0.896,0.826,1.344,1.932,1.344,3.29c0,1.75-1.022,3.304-2.786,4.242c-0.812,0.434-1.54,0.658-2.729,0.868L7.145,53.962z
		 M2.539,49.608c0,0.672,0.21,1.358,0.56,1.848c0.196,0.252,0.378,0.406,0.532,0.406c0.308,0,0.979-0.756,1.666-1.848
		c1.036-1.652,1.778-3.458,1.778-4.326c0-0.21-0.042-0.35-0.196-0.7C4.442,45.422,2.539,47.452,2.539,49.608z"/>
	<path d="M22.041,51.694h1.189c0.267-0.35,0.351-0.462,0.645-0.798c0.504,0.392,0.658,0.518,1.147,0.952
		c0.042,0.042,0.057,0.07,0.057,0.098c0,0.042-0.057,0.07-0.126,0.07h-2.912v0.56c0.014,1.386,0.014,2.254,0.027,2.59
		c-0.027,0.182-0.195,0.238-0.699,0.238c-0.196,0-0.252-0.028-0.267-0.126c0.015-1.344,0.015-2.422,0.015-2.702v-0.56h-1.471
		c-0.447,0-0.882,0.028-1.176,0.084l-0.07-0.518c0.294,0.07,0.7,0.112,1.246,0.112h1.471V49.79h-1.933
		c-0.546,0-0.686,0.014-1.036,0.098l-0.084-0.518c0.294,0.07,0.589,0.098,1.12,0.098h2.912c0.406-0.798,0.729-1.736,0.84-2.45
		c1.372,0.574,1.442,0.602,1.442,0.714c0,0.112-0.084,0.14-0.729,0.154c-0.518,0.714-0.756,1.008-1.273,1.582h1.021
		c0.28-0.35,0.364-0.462,0.645-0.798c0.448,0.42,0.574,0.546,1.008,0.98c0.028,0.042,0.042,0.07,0.042,0.098
		c0,0.028-0.028,0.042-0.07,0.042h-2.981V51.694z M23.146,44.344c0.28-0.35,0.364-0.448,0.672-0.756
		c0.477,0.406,0.616,0.532,1.064,0.98c0.014,0.014,0.028,0.042,0.028,0.056c0,0.028-0.028,0.042-0.057,0.042h-2.813v1.876h1.302
		c0.28-0.336,0.364-0.434,0.644-0.756c0.463,0.392,0.603,0.518,1.036,0.938c0.028,0.042,0.057,0.07,0.057,0.084
		c0,0.028-0.028,0.056-0.057,0.056h-5.838c-0.42,0-0.77,0.028-1.008,0.098l-0.07-0.518c0.309,0.07,0.574,0.098,1.078,0.098h1.933
		v-1.876h-1.316c-0.42,0-0.798,0.042-1.05,0.098l-0.084-0.518c0.266,0.056,0.714,0.098,1.134,0.098h1.316v-0.728
		c0-0.476-0.015-0.7-0.042-1.148c1.302,0.182,1.456,0.224,1.456,0.336c0,0.126-0.154,0.196-0.49,0.252v1.288H23.146z M19.437,46.976
		c0.882,0.574,1.456,1.176,1.456,1.54c0,0.322-0.363,0.798-0.602,0.798c-0.126,0-0.21-0.126-0.267-0.406
		c-0.153-0.868-0.336-1.33-0.714-1.848L19.437,46.976z M29.446,47.97c0.225-0.28,0.309-0.364,0.574-0.63
		c0.351,0.294,0.462,0.392,0.826,0.714c0.07,0.07,0.098,0.112,0.098,0.154c0,0.084-0.084,0.154-0.42,0.308
		c-0.602,1.876-0.924,2.59-1.651,3.654c0.812,0.91,1.567,1.386,2.786,1.778v0.14c-0.463,0.182-0.7,0.462-0.868,0.966
		c-1.078-0.714-1.681-1.288-2.38-2.282c-0.729,0.896-1.61,1.694-2.254,2.016v0.336c-0.015,0.084-0.028,0.126-0.099,0.14
		c-0.084,0.042-0.406,0.07-0.63,0.07c-0.14,0-0.196-0.028-0.21-0.126c0.014-1.246,0.028-3.948,0.028-8.904
		c0-2.436-0.015-2.8-0.07-3.57c0.518,0.28,0.658,0.364,1.12,0.672h3.206c0.224-0.308,0.294-0.392,0.518-0.672
		c0.393,0.28,0.504,0.364,0.882,0.672c0.084,0.07,0.126,0.126,0.126,0.168c0,0.098-0.098,0.168-0.42,0.322
		c-0.098,1.204-0.224,2.142-0.378,2.534c-0.084,0.252-0.308,0.406-0.756,0.574c-0.252,0.084-0.448,0.126-0.882,0.154
		c-0.042-0.322-0.14-0.476-0.378-0.644c-0.224-0.154-0.49-0.224-1.204-0.322l0.014-0.238c0.616,0.042,1.933,0.14,2.059,0.14
		c0.224,0,0.322-0.112,0.363-0.406c0.141-0.896,0.183-1.372,0.211-1.96h-3.5v4.242H29.446z M26.157,48.292v6.202
		c0.573-0.42,1.245-1.246,1.89-2.296c-0.7-1.232-1.204-2.66-1.344-3.906H26.157z M26.982,48.292c0.406,1.61,0.7,2.31,1.4,3.304
		c0.602-1.12,0.91-2.03,1.134-3.304H26.982z"/>
	<path d="M40.199,43.168c0.42,0,1.077,0.126,1.414,0.266c0.279,0.112,0.392,0.252,0.392,0.448c0,0.014,0,0.028,0,0.028
		c0,0.112-0.014,0.112-0.112,0.364c-0.168,0.476-0.308,1.68-0.308,2.842c0,0.826,0.112,1.036,0.546,1.036
		c0.294,0,0.602-0.112,1.876-0.714c0.252-0.126,0.406-0.168,0.574-0.168c0.336,0,0.672,0.294,0.672,0.588
		c0,0.182-0.098,0.336-0.294,0.42c-0.099,0.042-0.294,0.112-0.938,0.294c-1.693,0.476-2.618,0.896-3.5,1.568
		c-0.756,0.588-1.092,1.134-1.092,1.792c0,1.008,0.798,1.526,2.353,1.526c0.867,0,2.239-0.168,3.247-0.406
		c0.141-0.028,0.196-0.042,0.28-0.042c0.364,0,0.756,0.35,0.756,0.686c0,0.252-0.153,0.378-0.602,0.462s-1.848,0.182-2.688,0.182
		c-1.021,0-1.792-0.112-2.38-0.322c-0.938-0.35-1.525-1.148-1.525-2.072c0-0.812,0.447-1.582,1.372-2.352
		c0.42-0.364,0.882-0.672,1.708-1.12c-0.309,0-0.435-0.042-0.673-0.21c-0.21-0.154-0.336-0.462-0.405-1.064
		c-0.042-0.336-0.057-0.644-0.099-1.694c-0.042-1.19-0.056-1.4-0.168-1.61c-0.153-0.266-0.42-0.406-1.008-0.504
		C39.807,43.21,39.919,43.168,40.199,43.168z"/>
	<path d="M63.732,50.448h3.641c0.378-0.462,0.504-0.602,0.924-1.036c0.574,0.49,0.742,0.644,1.273,1.162
		c0.028,0.042,0.042,0.084,0.042,0.112c0,0.042-0.056,0.084-0.126,0.084h-5.474c0.532,0.658,0.826,0.924,1.372,1.274
		c0.84,0.532,1.848,0.952,2.884,1.204c0.42,0.098,0.729,0.154,1.4,0.21v0.224c-0.532,0.182-0.7,0.336-0.994,0.924
		c-1.414-0.532-2.184-0.952-3.038-1.624c-0.742-0.602-1.189-1.12-1.904-2.212v1.652c0,0.266,0.015,1.764,0.028,2.576
		c0,0.014,0.014,0.042,0.014,0.042c0,0.168-0.21,0.238-0.728,0.238c-0.21,0-0.266-0.042-0.266-0.154c0-0.014,0-0.028,0-0.042
		c0-0.21,0.027-1.092,0.056-2.66v-1.4c-1.12,1.26-1.834,1.834-3.234,2.604c-0.826,0.448-1.47,0.742-2.646,1.19l-0.112-0.266
		c1.218-0.56,2.282-1.204,3.178-1.89c0.715-0.56,1.106-0.938,1.904-1.89h-3.794c-0.336,0-0.63,0.028-0.938,0.084l-0.098-0.532
		c0.351,0.084,0.672,0.126,1.036,0.126h4.704v-1.54h-1.428v0.364c-0.015,0.126-0.042,0.168-0.126,0.196
		c-0.099,0.042-0.406,0.07-0.645,0.07c-0.21,0-0.252-0.028-0.252-0.182c0.042-1.456,0.042-1.456,0.056-4.69h-2.184
		c-0.392,0-0.672,0.028-1.064,0.084l-0.098-0.518c0.42,0.084,0.742,0.112,1.218,0.112h2.128V43.56c0-0.364-0.014-0.588-0.056-1.064
		c1.386,0.154,1.596,0.196,1.596,0.336c0,0.112-0.168,0.196-0.573,0.308v1.204h3.695V43.56c0-0.252-0.014-0.49-0.056-1.078
		c1.54,0.196,1.652,0.21,1.652,0.364c0,0.112-0.099,0.154-0.645,0.294v1.204h1.47c0.364-0.434,0.477-0.56,0.868-0.952
		c0.546,0.434,0.7,0.588,1.204,1.092c0.014,0.042,0.028,0.07,0.028,0.098c0,0.042-0.07,0.084-0.141,0.084h-3.443
		c0,1.68,0.027,3.654,0.056,4.536c-0.014,0.112-0.042,0.154-0.126,0.196s-0.448,0.084-0.672,0.084c-0.154,0-0.196-0.042-0.196-0.182
		v-0.392h-1.372V50.448z M61.409,46.43h3.695v-1.764h-3.695V46.43z M61.409,48.586h3.695v-1.862h-3.695V48.586z"/>
	<path d="M80.253,44.96c0.336,0.504,0.56,0.742,0.966,1.008c0.49,0.308,0.91,0.462,1.638,0.602c0.393-1.946,0.435-2.156,0.435-2.492
		c0-0.476-0.196-0.77-0.756-1.162c0.111-0.042,0.153-0.056,0.237-0.056c0.252,0,0.616,0.154,1.036,0.434
		c0.448,0.308,0.729,0.7,0.729,1.008c0,0.126-0.042,0.238-0.183,0.406c-0.237,0.336-0.392,0.714-0.77,1.946
		c0.294,0.084,0.42,0.154,0.56,0.308c0.112,0.126,0.196,0.322,0.196,0.462c0,0.182-0.168,0.294-0.448,0.294
		c-0.14,0-0.321-0.028-0.546-0.07c-0.28,0.938-0.448,1.764-0.56,2.59c0.336,0.07,0.573,0.098,0.714,0.098
		c0.042,0,0.07,0,0.112-0.014c0.084-0.014,0.14-0.014,0.153-0.014c0.364,0,0.84,0.434,0.84,0.756c0,0.196-0.182,0.322-0.476,0.322
		c-0.392,0-0.98-0.098-1.484-0.252c-0.027,0.336-0.042,0.504-0.042,0.686c0,1.428,0.798,2.226,2.212,2.226
		c0.952,0,1.778-0.364,2.212-0.952c0.309-0.42,0.463-0.896,0.463-1.428c0-1.162-0.784-2.478-2.114-3.5l0.154-0.182
		c2.071,1.274,2.953,2.436,2.953,3.864c0,1.694-1.456,2.982-3.401,2.982c-0.729,0-1.428-0.21-1.904-0.574
		c-0.728-0.546-1.078-1.386-1.078-2.604c0-0.168,0.015-0.35,0.028-0.7c-0.546-0.252-0.826-0.42-1.12-0.714
		c-0.378-0.392-0.616-0.91-0.616-1.386c0-0.322,0.154-0.672,0.435-0.966c0.336-0.336,0.686-0.532,1.357-0.742
		c-0.56-0.21-0.952-0.462-1.357-0.868c-0.294-0.308-0.462-0.588-0.729-1.232L80.253,44.96z M81.079,48.082
		c-0.21,0.224-0.309,0.434-0.309,0.7c0,0.588,0.477,1.022,1.442,1.316c0.07-0.7,0.196-1.498,0.42-2.548
		C81.821,47.592,81.415,47.746,81.079,48.082z"/>
	<path d="M15.055,57.56c0.351,0.322,0.497,0.392,0.847,0.392c0.147,0,0.399-0.028,0.581-0.063c0.015-0.175,0.015-0.266,0.015-0.469
		c0-0.35-0.021-0.448-0.105-0.553c-0.091-0.105-0.217-0.161-0.434-0.196c0.098-0.091,0.154-0.112,0.301-0.112
		c0.168,0,0.42,0.056,0.623,0.14c0.126,0.049,0.203,0.133,0.203,0.21c0,0.056,0,0.056-0.077,0.196
		c-0.056,0.119-0.133,0.427-0.175,0.714c0.224-0.063,0.406-0.133,0.602-0.245c0.147-0.077,0.161-0.091,0.294-0.217
		c0.057-0.049,0.105-0.07,0.189-0.07c0.196,0,0.398,0.133,0.398,0.259c0,0.084-0.084,0.154-0.308,0.259
		c-0.35,0.154-0.693,0.266-1.218,0.371c-0.028,0.203-0.091,0.854-0.099,1.134c0.07,0.182,0.092,0.28,0.092,0.476
		c0,0.336-0.077,0.595-0.273,0.868c-0.21,0.315-0.301,0.518-0.301,0.693c0,0.301,0.378,0.434,1.211,0.434
		c0.63,0,1.253-0.112,1.596-0.28c0.141-0.07,0.168-0.133,0.168-0.371c0-0.462-0.007-0.77-0.069-2.107
		c-0.008-0.098-0.008-0.189-0.008-0.294c0-0.308,0.028-0.462,0.119-0.574c0.099-0.133,0.238-0.196,0.413-0.196
		c0.532,0,1.092,0.525,1.092,1.015c0,0.189-0.118,0.329-0.287,0.329c-0.056,0-0.098-0.014-0.16-0.049
		c-0.057-0.028-0.119-0.042-0.21-0.042c-0.063,0-0.336,0.056-0.512,0.098l-0.027-0.07c0.524-0.266,0.692-0.371,0.692-0.434
		c0-0.105-0.126-0.35-0.245-0.476c-0.14-0.14-0.294-0.224-0.44-0.224c-0.175,0-0.267,0.147-0.267,0.441
		c0,0.581,0.119,1.533,0.273,2.156c0.049,0.203,0.077,0.287,0.147,0.392c0.098,0.147,0.126,0.224,0.126,0.329
		c0,0.224-0.231,0.448-0.567,0.553c-0.392,0.126-1.029,0.21-1.61,0.21c-1.141,0-1.673-0.266-1.673-0.84
		c0-0.133,0.021-0.252,0.091-0.469c-0.027,0-0.042,0-0.056,0c-0.112,0-0.259-0.063-0.378-0.147
		c-0.238-0.182-0.378-0.497-0.378-0.861c0-0.567,0.308-0.952,0.749-0.952c0.168,0,0.28,0.035,0.427,0.133
		c0-0.063,0-0.063,0.028-0.42c0-0.084,0.007-0.14,0.014-0.406c-0.175,0.007-0.266,0.014-0.364,0.014
		c-0.546,0-0.798-0.133-1.134-0.609L15.055,57.56z M16.392,59.716c0-0.42-0.153-0.644-0.44-0.644c-0.267,0-0.448,0.259-0.448,0.644
		c0,0.434,0.245,0.77,0.56,0.77c0.105,0,0.203-0.056,0.245-0.154c0.049-0.105,0.084-0.315,0.084-0.532V59.716z"/>
	<path d="M24.715,56.412c0.196,0,0.581,0.182,0.777,0.371c0.111,0.112,0.153,0.182,0.153,0.28c0,0.091-0.035,0.133-0.405,0.434
		c-0.378,0.315-1.064,0.959-1.288,1.211c-0.245,0.273-0.336,0.434-0.336,0.567c0,0.098,0.069,0.224,0.21,0.364
		c0.098,0.105,0.098,0.105,0.489,0.462c0.764,0.707,1.12,1.099,1.288,1.428c0.077,0.147,0.105,0.273,0.105,0.462
		c0,0.266-0.091,0.42-0.238,0.42c-0.091,0-0.119-0.035-0.238-0.287c-0.126-0.273-0.343-0.644-0.588-0.987
		c-0.259-0.371-0.294-0.413-1.021-1.267c-0.189-0.231-0.267-0.399-0.267-0.588c0-0.224,0.112-0.413,0.539-0.938
		c0.848-1.029,1.058-1.323,1.058-1.491c0-0.119-0.091-0.224-0.386-0.413C24.617,56.419,24.651,56.412,24.715,56.412z"/>
	<path d="M31.441,59.296c-0.511,1.176-0.657,1.589-0.657,1.869c0,0.056,0,0.056,0.042,0.238c0.007,0.035,0.014,0.077,0.014,0.112
		c0,0.098-0.07,0.175-0.154,0.175c-0.195,0-0.553-0.273-0.77-0.595c-0.238-0.343-0.406-0.84-0.477-1.4
		c-0.042-0.308-0.049-0.483-0.049-1.232c-0.007-0.651-0.056-0.812-0.356-1.204c0.021,0,0.034,0,0.063,0
		c0.112,0,0.315,0.133,0.525,0.343c0.21,0.203,0.314,0.392,0.314,0.553c0,0.042-0.007,0.098-0.021,0.182
		c-0.084,0.427-0.126,0.756-0.126,1.043c0,0.378,0.056,0.728,0.161,1.015c0.104,0.287,0.188,0.413,0.363,0.546
		c0.077-0.112,0.077-0.112,0.231-0.371c0.224-0.378,0.224-0.378,0.588-0.987c0.112-0.182,0.112-0.182,0.203-0.336L31.441,59.296z
		 M32.933,58.029c0.882,0.196,1.582,1.127,1.582,2.093c0,0.336-0.14,0.553-0.35,0.553c-0.07,0-0.112-0.014-0.21-0.077
		c-0.091-0.063-0.225-0.084-0.525-0.084c-0.161,0-0.294,0-0.532,0.014l-0.021-0.105c0.566-0.154,0.882-0.245,0.945-0.266
		c0.14-0.049,0.16-0.077,0.16-0.21c0-0.259-0.098-0.665-0.217-0.917c-0.188-0.406-0.469-0.7-0.868-0.917L32.933,58.029z"/>
	<path d="M58.259,59.415c-0.049,0.616-0.182,1.106-0.42,1.533c-0.168,0.294-0.322,0.441-0.483,0.441c-0.126,0-0.21-0.168-0.21-0.406
		c0-0.14,0.035-0.203,0.176-0.28c0.363-0.203,0.706-0.763,0.812-1.302L58.259,59.415z M57.503,58.134
		c0.238,0.294,0.413,0.378,0.819,0.378c0.21,0,0.602-0.035,1.203-0.119c0-0.084,0-0.119,0-0.161c0-0.658-0.014-0.812-0.098-0.952
		c-0.07-0.133-0.182-0.203-0.469-0.301c0.063-0.063,0.119-0.084,0.21-0.084c0.14,0,0.42,0.063,0.608,0.14
		c0.231,0.098,0.344,0.196,0.344,0.315c0,0.07-0.015,0.105-0.077,0.217c-0.07,0.112-0.105,0.308-0.141,0.763
		c0.589-0.084,1.036-0.21,1.232-0.35c0.056-0.035,0.084-0.049,0.133-0.049c0.084,0,0.238,0.042,0.371,0.105
		c0.175,0.084,0.267,0.161,0.267,0.252s-0.084,0.126-0.322,0.154c-0.301,0.035-0.301,0.035-0.89,0.119
		c-0.447,0.063-0.714,0.098-0.798,0.112c-0.007,0.364-0.007,0.427-0.007,0.588c0,0.826,0.021,1.33,0.077,1.89
		c0.007,0.077,0.007,0.147,0.007,0.231c0,0.224-0.027,0.364-0.119,0.56c-0.077,0.182-0.161,0.259-0.279,0.259
		c-0.092,0-0.147-0.063-0.203-0.224c-0.077-0.21-0.147-0.273-0.756-0.651c-0.168-0.098-0.196-0.119-0.336-0.21l0.034-0.077
		c0.525,0.175,0.665,0.217,1.169,0.315c0.015-0.21,0.035-1.092,0.05-2.646c-0.315,0.042-0.903,0.091-1.106,0.091
		c-0.525,0-0.791-0.154-1.015-0.609L57.503,58.134z M60.884,59.296c0.518,0.329,0.861,0.602,1.092,0.882
		c0.168,0.203,0.217,0.322,0.217,0.518c0,0.294-0.126,0.553-0.266,0.553c-0.077,0-0.091-0.021-0.21-0.371
		c-0.189-0.574-0.504-1.099-0.903-1.505L60.884,59.296z M60.981,56.622c0.455,0.168,0.749,0.322,0.967,0.511
		c0.126,0.105,0.175,0.217,0.175,0.399c0,0.161-0.07,0.294-0.161,0.294c-0.056,0-0.105-0.042-0.168-0.147
		c-0.203-0.343-0.477-0.644-0.868-0.966L60.981,56.622z M61.646,56.195c0.413,0.126,0.687,0.245,0.882,0.385
		c0.196,0.133,0.26,0.231,0.26,0.427c0,0.175-0.07,0.308-0.161,0.308c-0.063,0-0.084-0.021-0.196-0.189
		c-0.217-0.336-0.406-0.532-0.833-0.854L61.646,56.195z"/>
	<path d="M65.776,62.257c0.554-0.392,0.925-0.742,1.303-1.232c0.405-0.532,0.692-1.057,0.973-1.792
		c0.182-0.476,0.259-0.798,0.301-1.197c-0.111-0.007-0.14-0.007-0.224-0.007c-0.63,0-1.61,0.126-2.437,0.308
		c-0.056,0.014-0.098,0.021-0.126,0.021c-0.084,0-0.175-0.035-0.356-0.126c0.028,0.077,0.028,0.084,0.035,0.315
		c0.007,0.497,0.014,0.973,0.014,1.008c0,0.259-0.049,0.378-0.161,0.378c-0.154,0-0.398-0.364-0.398-0.588
		c0-0.049,0.007-0.077,0.049-0.161c0.042-0.105,0.063-0.266,0.063-0.511c0-0.539-0.119-0.763-0.511-0.987
		c0.056-0.028,0.084-0.035,0.14-0.035c0.196,0,0.302,0.056,0.735,0.399c0.175,0,0.203-0.007,0.693-0.077
		c0.279-0.042,0.371-0.049,0.595-0.077c0.007-0.112,0.007-0.161,0.007-0.315c0-0.434-0.021-0.623-0.091-0.742
		c-0.063-0.119-0.119-0.154-0.378-0.252c0.056-0.049,0.104-0.07,0.175-0.07c0.406,0,0.924,0.217,0.924,0.392
		c0,0.042-0.014,0.07-0.063,0.161c-0.099,0.168-0.141,0.392-0.154,0.777c1.211-0.105,1.33-0.119,1.435-0.175
		c0.057-0.028,0.092-0.042,0.126-0.042c0.07,0,0.183,0.063,0.344,0.189c0.203,0.168,0.272,0.259,0.272,0.357
		c0,0.07-0.007,0.084-0.084,0.168c-0.063,0.063-0.104,0.161-0.203,0.42c-0.252,0.672-0.42,1.05-0.672,1.463
		c-0.469,0.777-0.896,1.26-1.519,1.694c-0.309,0.217-0.483,0.322-0.742,0.434L65.776,62.257z"/>
</g>
<rect x="0.125" y="7.145" fill="none" stroke="#000000" stroke-width="0.25" width="14" height="14"/>
<rect x="17.625" y="7.145" fill="none" stroke="#000000" stroke-width="0.25" width="14" height="14"/>
<rect x="35.125" y="7.145" fill="none" stroke="#000000" stroke-width="0.25" width="14" height="14"/>
<rect x="56.125" y="7.145" fill="none" stroke="#000000" stroke-width="0.25" width="14" height="14"/>
<rect x="77.125" y="7.145" fill="none" stroke="#000000" stroke-width="0.25" width="14" height="14"/>
<g>
	<line fill="none" stroke="#000000" stroke-width="0.25" x1="35.124" y1="21.145" x2="35.124" y2="28.145"/>
	<line fill="none" stroke="#000000" stroke-width="0.25" x1="28.124" y1="28.145" x2="28.124" y2="21.145"/>
	<line fill="none" stroke="#000000" stroke-width="0.1768" x1="31.624" y1="21.145" x2="35.124" y2="21.145"/>
	<line fill="none" stroke="#000000" stroke-width="0.25" x1="21.124" y1="21.145" x2="21.124" y2="28.145"/>
	<polyline fill="none" stroke="#000000" stroke-width="0.25" points="35.124,21.145 35.124,28.145 14.125,28.145 14.125,21.145 	"/>
	<line fill="none" stroke="#000000" stroke-width="0.1768" x1="14.125" y1="21.145" x2="17.625" y2="21.145"/>
</g>
<g>
	<line fill="none" stroke="#000000" stroke-width="0.25" x1="24.625" y1="7.145" x2="24.625" y2="0.145"/>
	<polyline fill="none" stroke="#000000" stroke-width="0.25" points="17.625,7.145 17.625,0.145 31.625,0.145 31.625,7.145 	"/>
</g>
<line fill="none" stroke="#000000" stroke-width="0.25" x1="63.125" y1="21.145" x2="63.125" y2="28.145"/>
<polyline fill="none" stroke="#000000" stroke-width="0.25" points="70.125,21.145 70.125,28.145 56.125,28.145 56.125,21.145 "/>
<g>
	<line fill="none" stroke="#000000" stroke-width="0.25" x1="49.125" y1="7.145" x2="49.125" y2="0.145"/>
	<line fill="none" stroke="#000000" stroke-width="0.25" x1="63.125" y1="7.145" x2="63.125" y2="0.145"/>
	<polyline fill="none" stroke="#000000" stroke-width="0.2887" points="56.125,0.145 56.125,7.145 49.125,7.145 49.125,0.145 
		77.125,0.145 77.125,7.145 70.125,7.145 70.125,0.145 	"/>
</g>
</svg>
