<?xml version="1.0" encoding="utf-8"?>
<!-- Generator: Adobe Illustrator 12.0.0, SVG Export Plug-In . SVG Version: 6.00 Build 51448)  -->
<!DOCTYPE svg PUBLIC "-//W3C//DTD SVG 1.1//EN" "http://www.w3.org/Graphics/SVG/1.1/DTD/svg11.dtd" [
	<!ENTITY ns_svg "http://www.w3.org/2000/svg">
	<!ENTITY ns_xlink "http://www.w3.org/1999/xlink">
]>
<svg  version="1.1" id="レイヤー_1" xmlns="&ns_svg;" xmlns:xlink="&ns_xlink;" width="63.5" height="157.221"
	 viewBox="0 0 63.5 157.221" overflow="visible" enable-background="new 0 0 63.5 157.221" xml:space="preserve">
<g>
	<path d="M9.059,94.641c-1.008,1.365-2.384,2.174-3.686,2.174c-0.798,0-1.417-0.326-1.743-0.893
		c-0.21-0.368-0.294-0.882-0.294-1.774c0-0.578,0.032-1.575,0.084-2.531c0.063-1.134,0.074-1.428,0.074-1.806
		c0-0.903-0.105-1.081-0.851-1.396c0.115-0.084,0.178-0.105,0.294-0.105c0.242,0,0.62,0.095,0.945,0.242
		c0.399,0.189,0.609,0.399,0.609,0.62c0,0.073-0.011,0.136-0.095,0.378c-0.2,0.63-0.546,3.812-0.546,5.04
		c0,0.64,0.126,1.019,0.42,1.26c0.231,0.179,0.567,0.284,0.935,0.284c0.714,0,1.596-0.252,2.394-0.672
		c0.483-0.252,0.787-0.473,1.333-0.935L9.059,94.641z"/>
	<path d="M14.823,97.066c0.819-0.651,1.134-1.029,1.544-1.869c-0.483-0.147-0.861-0.399-1.218-0.809
		c-0.462-0.557-0.714-1.386-0.714-2.373c0-0.073,0-0.199,0.01-0.388c-0.84,0.934-1.375,2.079-1.375,2.919c0,0.073,0,0.136,0,0.189
		c0.011,0.073,0.011,0.136,0.011,0.168c0,0.168-0.116,0.294-0.263,0.294c-0.357,0-0.619-0.882-0.619-2.121
		c0-0.535,0.031-1.008,0.126-1.764c0.052-0.483,0.063-0.63,0.063-0.83c0-0.347-0.147-0.693-0.399-0.956
		c0.221,0,0.347,0.063,0.609,0.273c0.336,0.294,0.567,0.641,0.567,0.872c0,0.105-0.011,0.147-0.126,0.388
		c-0.231,0.504-0.399,1.354-0.399,2.048c0,0.189,0.01,0.304,0.052,0.556c0.62-1.229,0.977-1.743,1.774-2.509
		c0.137-1.071,0.347-1.669,0.746-2.163c0.231-0.294,0.546-0.452,0.882-0.452c0.294,0,0.63,0.147,0.84,0.368
		c0.241,0.252,0.357,0.462,0.525,0.945c0.063,0,0.126,0,0.147,0c0.588,0,1.145,0.179,1.638,0.525c0.672,0.462,1.04,1.208,1.04,2.058
		c0,1.628-1.313,2.888-3.014,2.888c-0.074,0-0.168,0-0.326-0.01c-0.64,0.976-1.166,1.47-2.026,1.879L14.823,97.066z M14.76,91.271
		c-0.01,0.252-0.021,0.399-0.021,0.514c0,0.977,0.305,1.848,0.819,2.321c0.315,0.294,0.588,0.451,1.019,0.577
		c0.283-0.914,0.42-1.932,0.42-3.15c0-0.599-0.021-0.935-0.105-1.365C16,90.357,15.412,90.661,14.76,91.271z M16.85,89.916
		c-0.189-0.798-0.441-1.134-0.851-1.134c-0.588,0-1.019,0.735-1.208,2.089C15.464,90.357,16.063,90.073,16.85,89.916z
		 M17.722,91.869c0,1.134-0.168,2.037-0.525,2.898c1.386,0,2.373-1.04,2.373-2.488c0-0.83-0.315-1.501-0.882-1.869
		c-0.347-0.22-0.651-0.315-1.166-0.325C17.669,90.819,17.722,91.271,17.722,91.869z"/>
	<path d="M25.796,97.245c0.62-0.504,1.029-0.935,1.386-1.512c0.546-0.893,0.893-2.111,0.893-3.192c0-1.04-0.378-1.68-0.998-1.68
		c-0.557,0-1.292,0.452-2.016,1.239c-0.2,0.2-0.263,0.242-0.431,0.242c-0.22,0-0.472-0.168-0.693-0.473
		c-0.179-0.241-0.284-0.514-0.284-0.704c0-0.136,0.042-0.231,0.168-0.388c0.095,0.462,0.305,0.725,0.578,0.725
		c0.147,0,0.42-0.116,0.966-0.41c0.892-0.483,1.239-0.599,1.774-0.599c0.483,0,0.998,0.273,1.302,0.704
		c0.252,0.368,0.399,0.914,0.399,1.543c0,1.239-0.472,2.468-1.302,3.392c-0.515,0.567-1.05,0.966-1.648,1.229L25.796,97.245z
		 M25.218,87.7c0.515,0.431,1.229,0.672,1.964,0.672h0.241c0.21,0,0.357,0.074,0.567,0.252c0.147,0.126,0.221,0.252,0.221,0.357
		c0,0.147-0.147,0.231-0.431,0.231c-0.441,0.01-0.441,0.01-2.614,0.64l-0.053-0.147c0.788-0.357,1.512-0.682,1.775-0.777
		c-0.861-0.178-1.375-0.504-1.775-1.145L25.218,87.7z"/>
	<path fill="#ED6E46" d="M33.65,89.811c0.494,0.357,0.84,0.473,1.396,0.473c0.483,0,1.26-0.136,1.722-0.315
		c-0.242-0.452-0.662-0.998-0.903-1.176c-0.137-0.105-0.42-0.179-0.809-0.221c0.073-0.179,0.136-0.21,0.42-0.273
		c0.168-0.042,0.294-0.053,0.483-0.053c0.368,0,0.62,0.053,0.714,0.137c0.095,0.084,0.105,0.115,0.126,0.41
		c0.011,0.21,0.011,0.21,0.431,1.04c0.966-0.357,1.218-0.483,1.501-0.777c0.084-0.073,0.179-0.105,0.336-0.105
		c0.41,0,0.62,0.095,0.62,0.273c0,0.147-0.137,0.231-0.683,0.462c-0.168,0.074-0.683,0.252-1.543,0.525
		c0.105,0.178,0.105,0.178,0.231,0.388c0.063,0.105,0.231,0.399,0.515,0.861c0.83-0.326,1.029-0.41,1.302-0.578
		c-0.22-0.231-0.294-0.294-0.546-0.494l0.074-0.105c0.399,0.2,0.672,0.294,0.882,0.294c0,0,0,0,0.189-0.021
		c0.032-0.01,0.063-0.01,0.084-0.01c0.168,0,0.284,0.105,0.284,0.262c0,0.252-0.609,0.578-2.037,1.082
		c0.326,0.557,0.378,0.651,0.473,0.819c0.241,0.43,0.241,0.43,0.483,0.829c0.126,0.2,0.178,0.368,0.178,0.567
		c0,0.409-0.136,0.682-0.346,0.682c-0.095,0-0.126-0.021-0.294-0.157c-0.536-0.431-1.512-0.725-2.436-0.725
		c-0.483,0-0.956,0.105-1.313,0.294c-0.431,0.221-0.63,0.494-0.63,0.851c0,0.651,0.693,0.998,1.984,0.998
		c0.514,0,0.819-0.032,1.323-0.147c0.053-0.011,0.095-0.021,0.126-0.021c0.315,0,0.693,0.294,0.693,0.556
		c0,0.084-0.053,0.158-0.158,0.2c-0.2,0.084-0.84,0.158-1.438,0.158c-0.819,0-1.543-0.116-2.016-0.315
		c-0.641-0.283-1.019-0.777-1.019-1.323c0-0.945,1.113-1.575,2.772-1.575c0.62,0,1.208,0.063,1.974,0.231
		c-0.115-0.42-0.399-1.039-0.788-1.785c-0.703,0.241-1.596,0.399-2.236,0.399c-0.452,0-0.788-0.095-1.092-0.305
		c-0.21-0.147-0.326-0.294-0.504-0.63l0.126-0.094c0.336,0.451,0.683,0.619,1.239,0.619c0.609,0,1.375-0.136,2.247-0.399
		c-0.221-0.41-0.494-0.882-0.735-1.26c-0.703,0.22-1.396,0.336-1.953,0.336c-0.578,0-1.071-0.252-1.533-0.767L33.65,89.811z"/>
	<path d="M46.355,97.213c0.746-0.462,1.208-0.872,1.669-1.47c0.735-0.977,1.103-2.163,1.103-3.539c0-0.913-0.157-1.774-0.389-2.163
		c-0.189-0.305-0.441-0.462-0.745-0.462c-0.525,0-1.008,0.452-1.386,1.313c-0.304,0.683-0.494,1.543-0.494,2.258
		c0,0.178,0.011,0.294,0.042,0.651c0.011,0.063,0.011,0.147,0.011,0.221c0,0.199-0.095,0.315-0.273,0.315
		c-0.399,0-0.662-0.851-0.662-2.153c0-0.871,0.063-1.417,0.336-2.814c0.084-0.42,0.116-0.619,0.116-0.766
		c0-0.336-0.147-0.536-0.567-0.746c0.084-0.032,0.147-0.053,0.189-0.053c0.22,0,0.556,0.137,0.84,0.347
		c0.294,0.21,0.41,0.378,0.41,0.588c0,0.137-0.021,0.2-0.147,0.399c-0.399,0.662-0.756,2.153-0.756,3.129c0,0.095,0,0.2,0.011,0.389
		h0.021c0.315-1.344,0.704-2.215,1.218-2.751c0.389-0.42,0.809-0.62,1.281-0.62c1.008,0,1.722,1.239,1.722,2.993
		c0,1.365-0.378,2.499-1.145,3.434c-0.619,0.766-1.323,1.26-2.32,1.659L46.355,97.213z"/>
	<path d="M57.076,95.838c0.966-0.242,1.659-0.504,2.32-0.882c1.229-0.693,1.932-1.722,1.932-2.824c0-1.05-0.777-1.764-1.922-1.764
		c-1.229,0-2.835,0.672-4.221,1.753c-0.168,0.137-0.273,0.179-0.399,0.179c-0.494,0-1.26-0.735-1.26-1.208
		c0-0.074,0.021-0.137,0.084-0.263c0.105,0.221,0.168,0.294,0.294,0.389c0.158,0.116,0.284,0.168,0.431,0.168
		c0.273,0,0.672-0.115,1.271-0.378C57.265,90.283,58.356,90,59.448,90c1.596,0,2.688,0.934,2.688,2.31
		c0,1.302-0.882,2.426-2.415,3.077c-0.798,0.336-1.564,0.515-2.594,0.609L57.076,95.838z"/>
	<path d="M1.131,117.531c1.218-1.89,1.89-3.654,2.205-5.817c0.294-2.058,0.462-4.872,0.462-7.812c0-1.953-0.021-3.759-0.063-4.767
		c0.735,0.357,0.966,0.483,1.638,0.945h11.214c0.399-0.399,0.546-0.546,0.966-0.945c0.567,0.399,0.735,0.525,1.26,0.945
		c0.147,0.105,0.21,0.189,0.21,0.273s-0.21,0.273-0.714,0.63v9.765c0,0.546,0,1.302,0.021,2.247
		c0.021,1.407,0.021,1.617,0.021,2.562c-0.042,0.819-0.168,1.071-0.609,1.302c-0.441,0.21-0.966,0.357-1.806,0.504
		c-0.042-0.315-0.063-0.357-0.231-0.567c-0.546-0.693-0.819-0.798-2.394-0.987v-0.336c0.399,0.021,1.449,0.063,3.15,0.126
		c0.042,0,0.084,0,0.105,0s0.042,0,0.042,0c0.189,0,0.273-0.084,0.273-0.294v-14.742H5.185c-0.021,3.192-0.042,5.061-0.063,5.628
		c-0.126,4.263-0.504,6.321-1.491,8.337c-0.609,1.218-1.176,2.037-2.247,3.171L1.131,117.531z M13.312,103.44
		c0.462-0.546,0.609-0.714,1.05-1.239c0.504,0.483,0.987,0.966,1.491,1.449c0.021,0.063,0.063,0.147,0.063,0.168
		c0,0.042-0.084,0.105-0.168,0.105h-4.284v2.667h2.331c0.42-0.546,0.567-0.714,1.008-1.281c0.777,0.651,0.987,0.861,1.701,1.47
		c0.063,0.084,0.105,0.126,0.105,0.168c0,0.084-0.084,0.126-0.21,0.126H7.201c-0.378,0-0.714,0.021-1.533,0.126l-0.189-0.777
		c0.756,0.105,1.323,0.168,1.722,0.168h2.919v-2.667H7.831c-0.336,0-0.672,0.021-1.386,0.126l-0.21-0.798
		c0.546,0.126,1.155,0.189,1.596,0.189h2.289v-1.05c0-0.42-0.021-0.777-0.063-1.533c1.827,0.231,2.331,0.357,2.331,0.588
		c0,0.168-0.105,0.21-0.924,0.525v1.47H13.312z M8.649,114.927c-0.063,0.273-0.21,0.336-0.798,0.357c-0.084,0-0.126,0-0.147,0
		c-0.042,0-0.084,0-0.084,0c-0.294,0-0.399-0.084-0.399-0.252c0-0.021,0-0.042,0-0.063c0.042-1.05,0.063-2.583,0.063-4.032
		c0-0.525,0-0.525-0.042-1.575c-0.021-0.651-0.021-0.651-0.021-1.113c0.672,0.378,0.882,0.483,1.554,0.882h4.011
		c0.294-0.399,0.378-0.504,0.714-0.882c0.546,0.357,0.714,0.462,1.239,0.882c0.21,0.21,0.252,0.252,0.252,0.294
		s-0.147,0.168-0.63,0.567c-0.021,0.945-0.021,1.617-0.021,1.89c0,0.924,0,1.365,0.063,2.478c-0.021,0.336-0.105,0.357-1.071,0.42
		c-0.231,0-0.336-0.105-0.336-0.336v-1.092H8.649V114.927z M8.649,112.869h4.347v-3.255H8.649V112.869z"/>
	<path fill="#ED6E46" d="M22.068,117.216c1.029-1.029,1.533-1.659,2.205-2.751c0.525-0.882,0.735-1.302,1.008-1.995
		c1.638,0.567,1.932,0.693,1.932,0.882c0,0.168-0.168,0.231-0.798,0.336c-1.155,1.491-2.394,2.625-4.095,3.801L22.068,117.216z
		 M29.355,102.033v-1.239c0-0.609-0.021-1.281-0.084-1.932c2.016,0.189,2.226,0.231,2.226,0.483c0,0.147-0.168,0.252-0.777,0.462
		v2.226h0.483c0.42-0.504,0.546-0.651,0.945-1.134c0.609,0.567,0.798,0.735,1.386,1.302c0.063,0.063,0.084,0.147,0.084,0.189
		c0,0.084-0.063,0.126-0.273,0.126h-2.625v8.862h0.357c0.357-0.567,0.483-0.735,0.903-1.239c0.546,0.588,0.735,0.777,1.281,1.386
		c0.021,0.084,0.042,0.168,0.042,0.189c0,0.105-0.042,0.147-0.231,0.147h-9.282c-0.441,0-1.134,0.042-1.491,0.105l-0.105-0.756
		c0.63,0.147,0.924,0.168,1.722,0.168h0.609v-8.862h-0.987c-1.008,0.063-1.008,0.063-1.239,0.147l-0.105-0.798
		c0.441,0.126,0.819,0.168,1.344,0.168h0.987v-0.861c0-0.714-0.042-1.701-0.105-2.373c2.037,0.21,2.331,0.273,2.331,0.504
		c0,0.189-0.189,0.294-0.882,0.462v2.268H29.355z M25.87,104.994h3.486v-2.478H25.87V104.994z M25.87,107.997h3.486v-2.52H25.87
		V107.997z M25.87,111.378h3.486v-2.898H25.87V111.378z M28.474,112.68c2.016,0.735,2.856,1.344,2.856,2.058
		c0,0.567-0.273,1.134-0.546,1.134c-0.21,0-0.273-0.063-0.63-0.777c-0.126-0.252-0.63-0.966-0.987-1.428
		c-0.231-0.273-0.441-0.483-0.861-0.882L28.474,112.68z M35.067,109.803c-0.189,1.659-0.588,3.087-1.26,4.431
		c-0.693,1.365-1.344,2.226-2.73,3.528l-0.336-0.231c1.428-1.764,2.184-3.213,2.646-5.103c0.42-1.701,0.567-3.969,0.567-8.316
		c0-3.486,0-3.822-0.126-4.977c0.735,0.378,0.966,0.504,1.701,0.987h3.087c0.336-0.42,0.462-0.567,0.798-0.987
		c0.567,0.378,0.735,0.483,1.26,0.882c0.168,0.126,0.231,0.21,0.231,0.315c0,0.189-0.189,0.357-0.693,0.609v11.802l0.021,1.218
		c0,0.378,0.021,0.84,0.021,1.428c-0.021,0.735-0.042,0.798-0.168,1.092c-0.294,0.546-0.672,0.735-2.121,0.966
		c-0.084-0.462-0.231-0.693-0.525-0.945c-0.357-0.294-0.84-0.42-1.932-0.525l0.021-0.357c2.079,0.147,2.079,0.147,2.961,0.147
		c0.231-0.021,0.315-0.126,0.315-0.399v-5.565H35.067z M35.277,105.141c-0.021,2.604-0.021,2.709-0.147,4.179h3.675v-4.179H35.277z
		 M38.806,104.658v-4.053h-3.528c0.021,0.756,0.021,1.155,0.021,1.512c0,0.168,0,1.134-0.021,2.541H38.806z"/>
	<path d="M48.36,104.847c-0.336,0.651-0.756,1.218-1.869,2.562c1.05,0.21,1.407,0.315,1.407,0.462c0,0.126-0.189,0.231-0.714,0.357
		v5.586c0,0.252,0,1.113,0.021,2.268c0,0.252,0,0.504,0,0.609c0,0.21,0,0.441,0,0.777c-0.021,0.168-0.063,0.21-0.168,0.273
		c-0.126,0.042-0.672,0.105-1.05,0.105c-0.168,0-0.231-0.042-0.273-0.21c0.126-3.402,0.147-4.41,0.147-5.712v-3.78
		c-0.84,0.966-1.449,1.554-2.856,2.772l-0.252-0.294c1.344-1.554,2.079-2.562,2.982-4.011c0.861-1.386,1.218-2.142,1.512-3.171
		c1.239,0.462,1.239,0.462,1.827,0.693c0.168,0.063,0.21,0.084,0.273,0.231h4.515c0-0.084,0-0.903-0.021-2.478h-2.793
		c-0.735,0-0.924,0-1.491,0.084l-0.147-0.735c1.029,0.168,1.071,0.168,1.638,0.168h2.793c-0.021-1.239-0.042-1.617-0.126-2.52
		c1.785,0.105,1.89,0.126,2.121,0.231c0.126,0.042,0.21,0.126,0.21,0.189c0,0.126-0.21,0.252-0.819,0.504v1.596h3.234
		c0.357-0.42,0.462-0.546,0.819-0.945c0.609,0.399,0.798,0.525,1.302,0.924c0.126,0.105,0.189,0.168,0.189,0.252
		c0,0.126-0.105,0.21-0.651,0.483c0,0.399,0,0.819,0,1.323c0,0.042,0,0.399,0,0.924h0.105c0.294-0.588,0.399-0.756,0.798-1.344
		c0.714,0.651,0.903,0.861,1.554,1.533c0.021,0.063,0.063,0.126,0.063,0.126c0,0.084-0.105,0.168-0.21,0.168h-2.31
		c0.021,1.617,0.042,2.814,0.063,3.57c-0.063,0.168-0.105,0.231-0.21,0.252c-0.168,0.063-0.672,0.105-1.071,0.105
		c-0.168,0-0.21-0.042-0.21-0.21v-0.546h-3.444c0,1.197,0,1.197,0.021,2.541h3.339c0.462-0.546,0.588-0.735,1.029-1.302
		c0.819,0.651,1.05,0.84,1.827,1.512c0.042,0.063,0.084,0.126,0.084,0.147c0,0.084-0.084,0.126-0.21,0.126H55.27
		c0,0.168,0,0.294,0,0.399c0,0.735,0.021,1.281,0.021,2.184h4.2c0.546-0.588,0.693-0.777,1.197-1.428
		c0.84,0.672,1.113,0.882,1.953,1.596c0.042,0.063,0.063,0.126,0.063,0.147c0,0.084-0.105,0.168-0.21,0.168h-7.203
		c0.021,1.239,0.042,2.352,0.063,3.36c0,0.147-0.042,0.21-0.126,0.273c-0.084,0.042-0.651,0.084-1.134,0.084
		c-0.168,0-0.231-0.063-0.315-0.252l0.063-3.465h-4.095c-0.882,0-1.113,0.021-1.827,0.105l-0.168-0.777
		c0.966,0.168,1.176,0.189,1.995,0.189h4.095c0.021-1.365,0.042-2.226,0.042-2.583H50.46c-0.42,0-0.798,0.021-1.638,0.084
		l-0.189-0.756c0.903,0.126,1.428,0.189,1.827,0.189h3.423v-2.541h-3.171c-0.483,0-0.798,0.021-1.428,0.105l-0.126-0.735
		c0.735,0.126,0.987,0.147,1.449,0.147h3.276c0-0.504,0-1.386-0.021-2.688H48.36z M43.005,104.511
		c1.176-1.05,1.869-1.827,2.877-3.276c0.819-1.134,1.008-1.449,1.302-2.226c1.848,0.588,2.247,0.756,2.247,0.945
		s-0.168,0.252-1.05,0.294c-2.058,2.415-3.234,3.465-5.124,4.599L43.005,104.511z M58.692,101.886h-3.444v2.478h3.444V101.886z
		 M55.249,104.847v2.688h3.444v-2.688H55.249z"/>
</g>
<g>
	<path d="M9.059,134.016c-1.008,1.365-2.384,2.174-3.686,2.174c-0.798,0-1.417-0.326-1.743-0.893
		c-0.21-0.368-0.294-0.882-0.294-1.774c0-0.578,0.032-1.575,0.084-2.531c0.063-1.134,0.074-1.428,0.074-1.806
		c0-0.903-0.105-1.081-0.851-1.396c0.115-0.084,0.178-0.105,0.294-0.105c0.242,0,0.62,0.095,0.945,0.242
		c0.399,0.189,0.609,0.399,0.609,0.62c0,0.073-0.011,0.136-0.095,0.378c-0.2,0.63-0.546,3.812-0.546,5.04
		c0,0.64,0.126,1.019,0.42,1.26c0.231,0.179,0.567,0.284,0.935,0.284c0.714,0,1.596-0.252,2.394-0.672
		c0.483-0.252,0.787-0.473,1.333-0.935L9.059,134.016z"/>
	<path d="M14.823,136.441c0.819-0.651,1.134-1.029,1.544-1.869c-0.483-0.147-0.861-0.399-1.218-0.809
		c-0.462-0.557-0.714-1.386-0.714-2.373c0-0.073,0-0.199,0.01-0.388c-0.84,0.934-1.375,2.079-1.375,2.919c0,0.073,0,0.136,0,0.189
		c0.011,0.073,0.011,0.136,0.011,0.168c0,0.168-0.116,0.294-0.263,0.294c-0.357,0-0.619-0.882-0.619-2.121
		c0-0.535,0.031-1.008,0.126-1.764c0.052-0.483,0.063-0.63,0.063-0.83c0-0.347-0.147-0.693-0.399-0.956
		c0.221,0,0.347,0.063,0.609,0.273c0.336,0.294,0.567,0.641,0.567,0.872c0,0.105-0.011,0.147-0.126,0.388
		c-0.231,0.504-0.399,1.354-0.399,2.048c0,0.189,0.01,0.304,0.052,0.556c0.62-1.229,0.977-1.743,1.774-2.509
		c0.137-1.071,0.347-1.669,0.746-2.163c0.231-0.294,0.546-0.452,0.882-0.452c0.294,0,0.63,0.147,0.84,0.368
		c0.241,0.252,0.357,0.462,0.525,0.945c0.063,0,0.126,0,0.147,0c0.588,0,1.145,0.179,1.638,0.525c0.672,0.462,1.04,1.208,1.04,2.058
		c0,1.628-1.313,2.888-3.014,2.888c-0.074,0-0.168,0-0.326-0.01c-0.64,0.976-1.166,1.47-2.026,1.879L14.823,136.441z M14.76,130.646
		c-0.01,0.252-0.021,0.399-0.021,0.514c0,0.977,0.305,1.848,0.819,2.321c0.315,0.294,0.588,0.451,1.019,0.577
		c0.283-0.914,0.42-1.932,0.42-3.15c0-0.599-0.021-0.935-0.105-1.365C16,129.732,15.412,130.036,14.76,130.646z M16.85,129.291
		c-0.189-0.798-0.441-1.134-0.851-1.134c-0.588,0-1.019,0.735-1.208,2.089C15.464,129.732,16.063,129.448,16.85,129.291z
		 M17.722,131.244c0,1.134-0.168,2.037-0.525,2.898c1.386,0,2.373-1.04,2.373-2.488c0-0.83-0.315-1.501-0.882-1.869
		c-0.347-0.22-0.651-0.315-1.166-0.325C17.669,130.194,17.722,130.646,17.722,131.244z"/>
	<path d="M25.796,136.62c0.62-0.504,1.029-0.935,1.386-1.512c0.546-0.893,0.893-2.111,0.893-3.192c0-1.04-0.378-1.68-0.998-1.68
		c-0.557,0-1.292,0.452-2.016,1.239c-0.2,0.2-0.263,0.242-0.431,0.242c-0.22,0-0.472-0.168-0.693-0.473
		c-0.179-0.241-0.284-0.514-0.284-0.704c0-0.136,0.042-0.231,0.168-0.388c0.095,0.462,0.305,0.725,0.578,0.725
		c0.147,0,0.42-0.116,0.966-0.41c0.892-0.483,1.239-0.599,1.774-0.599c0.483,0,0.998,0.273,1.302,0.704
		c0.252,0.368,0.399,0.914,0.399,1.543c0,1.239-0.472,2.468-1.302,3.392c-0.515,0.567-1.05,0.966-1.648,1.229L25.796,136.62z
		 M25.218,127.075c0.515,0.431,1.229,0.672,1.964,0.672h0.241c0.21,0,0.357,0.074,0.567,0.252c0.147,0.126,0.221,0.252,0.221,0.357
		c0,0.147-0.147,0.231-0.431,0.231c-0.441,0.01-0.441,0.01-2.614,0.64l-0.053-0.147c0.788-0.357,1.512-0.682,1.775-0.777
		c-0.861-0.178-1.375-0.504-1.775-1.145L25.218,127.075z"/>
	<path d="M33.65,129.186c0.494,0.357,0.84,0.473,1.396,0.473c0.483,0,1.26-0.136,1.722-0.315c-0.242-0.452-0.662-0.998-0.903-1.176
		c-0.137-0.105-0.42-0.179-0.809-0.221c0.073-0.179,0.136-0.21,0.42-0.273c0.168-0.042,0.294-0.053,0.483-0.053
		c0.368,0,0.62,0.053,0.714,0.137c0.095,0.084,0.105,0.115,0.126,0.41c0.011,0.21,0.011,0.21,0.431,1.04
		c0.966-0.357,1.218-0.483,1.501-0.777c0.084-0.073,0.179-0.105,0.336-0.105c0.41,0,0.62,0.095,0.62,0.273
		c0,0.147-0.137,0.231-0.683,0.462c-0.168,0.074-0.683,0.252-1.543,0.525c0.105,0.178,0.105,0.178,0.231,0.388
		c0.063,0.105,0.231,0.399,0.515,0.861c0.83-0.326,1.029-0.41,1.302-0.578c-0.22-0.231-0.294-0.294-0.546-0.494l0.074-0.105
		c0.399,0.2,0.672,0.294,0.882,0.294c0,0,0,0,0.189-0.021c0.032-0.01,0.063-0.01,0.084-0.01c0.168,0,0.284,0.105,0.284,0.262
		c0,0.252-0.609,0.578-2.037,1.082c0.326,0.557,0.378,0.651,0.473,0.819c0.241,0.43,0.241,0.43,0.483,0.829
		c0.126,0.2,0.178,0.368,0.178,0.567c0,0.409-0.136,0.682-0.346,0.682c-0.095,0-0.126-0.021-0.294-0.157
		c-0.536-0.431-1.512-0.725-2.436-0.725c-0.483,0-0.956,0.105-1.313,0.294c-0.431,0.221-0.63,0.494-0.63,0.851
		c0,0.651,0.693,0.998,1.984,0.998c0.514,0,0.819-0.032,1.323-0.147c0.053-0.011,0.095-0.021,0.126-0.021
		c0.315,0,0.693,0.294,0.693,0.556c0,0.084-0.053,0.158-0.158,0.2c-0.2,0.084-0.84,0.158-1.438,0.158
		c-0.819,0-1.543-0.116-2.016-0.315c-0.641-0.283-1.019-0.777-1.019-1.323c0-0.945,1.113-1.575,2.772-1.575
		c0.62,0,1.208,0.063,1.974,0.231c-0.115-0.42-0.399-1.039-0.788-1.785c-0.703,0.241-1.596,0.399-2.236,0.399
		c-0.452,0-0.788-0.095-1.092-0.305c-0.21-0.147-0.326-0.294-0.504-0.63l0.126-0.094c0.336,0.451,0.683,0.619,1.239,0.619
		c0.609,0,1.375-0.136,2.247-0.399c-0.221-0.41-0.494-0.882-0.735-1.26c-0.703,0.22-1.396,0.336-1.953,0.336
		c-0.578,0-1.071-0.252-1.533-0.767L33.65,129.186z"/>
	<path d="M46.355,136.588c0.746-0.462,1.208-0.872,1.669-1.47c0.735-0.977,1.103-2.163,1.103-3.539c0-0.913-0.157-1.774-0.389-2.163
		c-0.189-0.305-0.441-0.462-0.745-0.462c-0.525,0-1.008,0.452-1.386,1.313c-0.304,0.683-0.494,1.543-0.494,2.258
		c0,0.178,0.011,0.294,0.042,0.651c0.011,0.063,0.011,0.147,0.011,0.221c0,0.199-0.095,0.315-0.273,0.315
		c-0.399,0-0.662-0.851-0.662-2.153c0-0.871,0.063-1.417,0.336-2.814c0.084-0.42,0.116-0.619,0.116-0.766
		c0-0.336-0.147-0.536-0.567-0.746c0.084-0.032,0.147-0.053,0.189-0.053c0.22,0,0.556,0.137,0.84,0.347
		c0.294,0.21,0.41,0.378,0.41,0.588c0,0.137-0.021,0.2-0.147,0.399c-0.399,0.662-0.756,2.153-0.756,3.129c0,0.095,0,0.2,0.011,0.389
		h0.021c0.315-1.344,0.704-2.215,1.218-2.751c0.389-0.42,0.809-0.62,1.281-0.62c1.008,0,1.722,1.239,1.722,2.993
		c0,1.365-0.378,2.499-1.145,3.434c-0.619,0.766-1.323,1.26-2.32,1.659L46.355,136.588z"/>
	<path d="M57.076,135.213c0.966-0.242,1.659-0.504,2.32-0.882c1.229-0.693,1.932-1.722,1.932-2.824c0-1.05-0.777-1.764-1.922-1.764
		c-1.229,0-2.835,0.672-4.221,1.753c-0.168,0.137-0.273,0.179-0.399,0.179c-0.494,0-1.26-0.735-1.26-1.208
		c0-0.074,0.021-0.137,0.084-0.263c0.105,0.221,0.168,0.294,0.294,0.389c0.158,0.116,0.284,0.168,0.431,0.168
		c0.273,0,0.672-0.115,1.271-0.378c1.659-0.725,2.751-1.008,3.843-1.008c1.596,0,2.688,0.934,2.688,2.31
		c0,1.302-0.882,2.426-2.415,3.077c-0.798,0.336-1.564,0.515-2.594,0.609L57.076,135.213z"/>
	<path d="M1.131,156.906c1.218-1.89,1.89-3.654,2.205-5.817c0.294-2.058,0.462-4.872,0.462-7.812c0-1.953-0.021-3.759-0.063-4.767
		c0.735,0.357,0.966,0.483,1.638,0.945h11.214c0.399-0.399,0.546-0.546,0.966-0.945c0.567,0.399,0.735,0.525,1.26,0.945
		c0.147,0.105,0.21,0.189,0.21,0.273s-0.21,0.273-0.714,0.63v9.765c0,0.546,0,1.302,0.021,2.247
		c0.021,1.407,0.021,1.617,0.021,2.562c-0.042,0.819-0.168,1.071-0.609,1.302c-0.441,0.21-0.966,0.357-1.806,0.504
		c-0.042-0.315-0.063-0.357-0.231-0.567c-0.546-0.693-0.819-0.798-2.394-0.987v-0.336c0.399,0.021,1.449,0.063,3.15,0.126
		c0.042,0,0.084,0,0.105,0s0.042,0,0.042,0c0.189,0,0.273-0.084,0.273-0.294v-14.742H5.185c-0.021,3.192-0.042,5.061-0.063,5.628
		c-0.126,4.263-0.504,6.321-1.491,8.337c-0.609,1.218-1.176,2.037-2.247,3.171L1.131,156.906z M13.312,142.815
		c0.462-0.546,0.609-0.714,1.05-1.239c0.504,0.483,0.987,0.966,1.491,1.449c0.021,0.063,0.063,0.147,0.063,0.168
		c0,0.042-0.084,0.105-0.168,0.105h-4.284v2.667h2.331c0.42-0.546,0.567-0.714,1.008-1.281c0.777,0.651,0.987,0.861,1.701,1.47
		c0.063,0.084,0.105,0.126,0.105,0.168c0,0.084-0.084,0.126-0.21,0.126H7.201c-0.378,0-0.714,0.021-1.533,0.126l-0.189-0.777
		c0.756,0.105,1.323,0.168,1.722,0.168h2.919v-2.667H7.831c-0.336,0-0.672,0.021-1.386,0.126l-0.21-0.798
		c0.546,0.126,1.155,0.189,1.596,0.189h2.289v-1.05c0-0.42-0.021-0.777-0.063-1.533c1.827,0.231,2.331,0.357,2.331,0.588
		c0,0.168-0.105,0.21-0.924,0.525v1.47H13.312z M8.649,154.302c-0.063,0.273-0.21,0.336-0.798,0.357c-0.084,0-0.126,0-0.147,0
		c-0.042,0-0.084,0-0.084,0c-0.294,0-0.399-0.084-0.399-0.252c0-0.021,0-0.042,0-0.063c0.042-1.05,0.063-2.583,0.063-4.032
		c0-0.525,0-0.525-0.042-1.575c-0.021-0.651-0.021-0.651-0.021-1.113c0.672,0.378,0.882,0.483,1.554,0.882h4.011
		c0.294-0.399,0.378-0.504,0.714-0.882c0.546,0.357,0.714,0.462,1.239,0.882c0.21,0.21,0.252,0.252,0.252,0.294
		s-0.147,0.168-0.63,0.567c-0.021,0.945-0.021,1.617-0.021,1.89c0,0.924,0,1.365,0.063,2.478c-0.021,0.336-0.105,0.357-1.071,0.42
		c-0.231,0-0.336-0.105-0.336-0.336v-1.092H8.649V154.302z M8.649,152.244h4.347v-3.255H8.649V152.244z"/>
	<path d="M22.068,156.591c1.029-1.029,1.533-1.659,2.205-2.751c0.525-0.882,0.735-1.302,1.008-1.995
		c1.638,0.567,1.932,0.693,1.932,0.882c0,0.168-0.168,0.231-0.798,0.336c-1.155,1.491-2.394,2.625-4.095,3.801L22.068,156.591z
		 M29.355,141.408v-1.239c0-0.609-0.021-1.281-0.084-1.932c2.016,0.189,2.226,0.231,2.226,0.483c0,0.147-0.168,0.252-0.777,0.462
		v2.226h0.483c0.42-0.504,0.546-0.651,0.945-1.134c0.609,0.567,0.798,0.735,1.386,1.302c0.063,0.063,0.084,0.147,0.084,0.189
		c0,0.084-0.063,0.126-0.273,0.126h-2.625v8.862h0.357c0.357-0.567,0.483-0.735,0.903-1.239c0.546,0.588,0.735,0.777,1.281,1.386
		c0.021,0.084,0.042,0.168,0.042,0.189c0,0.105-0.042,0.147-0.231,0.147h-9.282c-0.441,0-1.134,0.042-1.491,0.105l-0.105-0.756
		c0.63,0.147,0.924,0.168,1.722,0.168h0.609v-8.862h-0.987c-1.008,0.063-1.008,0.063-1.239,0.147l-0.105-0.798
		c0.441,0.126,0.819,0.168,1.344,0.168h0.987v-0.861c0-0.714-0.042-1.701-0.105-2.373c2.037,0.21,2.331,0.273,2.331,0.504
		c0,0.189-0.189,0.294-0.882,0.462v2.268H29.355z M25.87,144.369h3.486v-2.478H25.87V144.369z M25.87,147.372h3.486v-2.52H25.87
		V147.372z M25.87,150.753h3.486v-2.898H25.87V150.753z M28.474,152.055c2.016,0.735,2.856,1.344,2.856,2.058
		c0,0.567-0.273,1.134-0.546,1.134c-0.21,0-0.273-0.063-0.63-0.777c-0.126-0.252-0.63-0.966-0.987-1.428
		c-0.231-0.273-0.441-0.483-0.861-0.882L28.474,152.055z M35.067,149.178c-0.189,1.659-0.588,3.087-1.26,4.431
		c-0.693,1.365-1.344,2.226-2.73,3.528l-0.336-0.231c1.428-1.764,2.184-3.213,2.646-5.103c0.42-1.701,0.567-3.969,0.567-8.316
		c0-3.486,0-3.822-0.126-4.977c0.735,0.378,0.966,0.504,1.701,0.987h3.087c0.336-0.42,0.462-0.567,0.798-0.987
		c0.567,0.378,0.735,0.483,1.26,0.882c0.168,0.126,0.231,0.21,0.231,0.315c0,0.189-0.189,0.357-0.693,0.609v11.802l0.021,1.218
		c0,0.378,0.021,0.84,0.021,1.428c-0.021,0.735-0.042,0.798-0.168,1.092c-0.294,0.546-0.672,0.735-2.121,0.966
		c-0.084-0.462-0.231-0.693-0.525-0.945c-0.357-0.294-0.84-0.42-1.932-0.525l0.021-0.357c2.079,0.147,2.079,0.147,2.961,0.147
		c0.231-0.021,0.315-0.126,0.315-0.399v-5.565H35.067z M35.277,144.516c-0.021,2.604-0.021,2.709-0.147,4.179h3.675v-4.179H35.277z
		 M38.806,144.033v-4.053h-3.528c0.021,0.756,0.021,1.155,0.021,1.512c0,0.168,0,1.134-0.021,2.541H38.806z"/>
	<path d="M48.36,144.222c-0.336,0.651-0.756,1.218-1.869,2.562c1.05,0.21,1.407,0.315,1.407,0.462c0,0.126-0.189,0.231-0.714,0.357
		v5.586c0,0.252,0,1.113,0.021,2.268c0,0.252,0,0.504,0,0.609c0,0.21,0,0.441,0,0.777c-0.021,0.168-0.063,0.21-0.168,0.273
		c-0.126,0.042-0.672,0.105-1.05,0.105c-0.168,0-0.231-0.042-0.273-0.21c0.126-3.402,0.147-4.41,0.147-5.712v-3.78
		c-0.84,0.966-1.449,1.554-2.856,2.772l-0.252-0.294c1.344-1.554,2.079-2.562,2.982-4.011c0.861-1.386,1.218-2.142,1.512-3.171
		c1.239,0.462,1.239,0.462,1.827,0.693c0.168,0.063,0.21,0.084,0.273,0.231h4.515c0-0.084,0-0.903-0.021-2.478h-2.793
		c-0.735,0-0.924,0-1.491,0.084l-0.147-0.735c1.029,0.168,1.071,0.168,1.638,0.168h2.793c-0.021-1.239-0.042-1.617-0.126-2.52
		c1.785,0.105,1.89,0.126,2.121,0.231c0.126,0.042,0.21,0.126,0.21,0.189c0,0.126-0.21,0.252-0.819,0.504v1.596h3.234
		c0.357-0.42,0.462-0.546,0.819-0.945c0.609,0.399,0.798,0.525,1.302,0.924c0.126,0.105,0.189,0.168,0.189,0.252
		c0,0.126-0.105,0.21-0.651,0.483c0,0.399,0,0.819,0,1.323c0,0.042,0,0.399,0,0.924h0.105c0.294-0.588,0.399-0.756,0.798-1.344
		c0.714,0.651,0.903,0.861,1.554,1.533c0.021,0.063,0.063,0.126,0.063,0.126c0,0.084-0.105,0.168-0.21,0.168h-2.31
		c0.021,1.617,0.042,2.814,0.063,3.57c-0.063,0.168-0.105,0.231-0.21,0.252c-0.168,0.063-0.672,0.105-1.071,0.105
		c-0.168,0-0.21-0.042-0.21-0.21v-0.546h-3.444c0,1.197,0,1.197,0.021,2.541h3.339c0.462-0.546,0.588-0.735,1.029-1.302
		c0.819,0.651,1.05,0.84,1.827,1.512c0.042,0.063,0.084,0.126,0.084,0.147c0,0.084-0.084,0.126-0.21,0.126H55.27
		c0,0.168,0,0.294,0,0.399c0,0.735,0.021,1.281,0.021,2.184h4.2c0.546-0.588,0.693-0.777,1.197-1.428
		c0.84,0.672,1.113,0.882,1.953,1.596c0.042,0.063,0.063,0.126,0.063,0.147c0,0.084-0.105,0.168-0.21,0.168h-7.203
		c0.021,1.239,0.042,2.352,0.063,3.36c0,0.147-0.042,0.21-0.126,0.273c-0.084,0.042-0.651,0.084-1.134,0.084
		c-0.168,0-0.231-0.063-0.315-0.252l0.063-3.465h-4.095c-0.882,0-1.113,0.021-1.827,0.105l-0.168-0.777
		c0.966,0.168,1.176,0.189,1.995,0.189h4.095c0.021-1.365,0.042-2.226,0.042-2.583H50.46c-0.42,0-0.798,0.021-1.638,0.084
		l-0.189-0.756c0.903,0.126,1.428,0.189,1.827,0.189h3.423v-2.541h-3.171c-0.483,0-0.798,0.021-1.428,0.105l-0.126-0.735
		c0.735,0.126,0.987,0.147,1.449,0.147h3.276c0-0.504,0-1.386-0.021-2.688H48.36z M43.005,143.886
		c1.176-1.05,1.869-1.827,2.877-3.276c0.819-1.134,1.008-1.449,1.302-2.226c1.848,0.588,2.247,0.756,2.247,0.945
		s-0.168,0.252-1.05,0.294c-2.058,2.415-3.234,3.465-5.124,4.599L43.005,143.886z M58.692,141.261h-3.444v2.478h3.444V141.261z
		 M55.249,144.222v2.688h3.444v-2.688H55.249z"/>
</g>
<rect x="0.25" y="97.75" fill="none" stroke="#008CD6" stroke-width="0.5" width="63" height="21"/>
<polyline fill="none" stroke="#008CD6" stroke-width="0.5" points="0.25,97.75 0.25,87.25 63.25,87.25 63.25,97.75 "/>
<line fill="none" stroke="#008CD6" stroke-width="0.5" x1="10.75" y1="97.75" x2="10.75" y2="87.25"/>
<line fill="none" stroke="#008CD6" stroke-width="0.5" x1="21.25" y1="97.75" x2="21.25" y2="87.25"/>
<line fill="none" stroke="#008CD6" stroke-width="0.5" x1="31.75" y1="97.75" x2="31.75" y2="87.25"/>
<line fill="none" stroke="#008CD6" stroke-width="0.5" x1="42.25" y1="97.75" x2="42.25" y2="87.25"/>
<line fill="none" stroke="#008CD6" stroke-width="0.5" x1="52.75" y1="97.75" x2="52.75" y2="87.25"/>
<g>
	<path d="M14.855,10.213c0.746-0.462,1.208-0.872,1.669-1.47c0.735-0.977,1.103-2.163,1.103-3.539c0-0.913-0.157-1.774-0.389-2.163
		c-0.189-0.305-0.441-0.462-0.745-0.462c-0.525,0-1.008,0.452-1.386,1.313c-0.304,0.683-0.494,1.543-0.494,2.258
		c0,0.178,0.011,0.294,0.042,0.651c0.011,0.063,0.011,0.147,0.011,0.221c0,0.199-0.095,0.315-0.273,0.315
		c-0.399,0-0.662-0.851-0.662-2.153c0-0.871,0.063-1.417,0.336-2.814c0.084-0.42,0.116-0.619,0.116-0.766
		c0-0.336-0.147-0.536-0.567-0.746c0.084-0.032,0.147-0.053,0.189-0.053c0.22,0,0.556,0.137,0.84,0.347
		c0.294,0.21,0.41,0.378,0.41,0.588c0,0.137-0.021,0.2-0.147,0.399c-0.399,0.662-0.756,2.153-0.756,3.129c0,0.095,0,0.2,0.011,0.389
		h0.021c0.315-1.344,0.704-2.215,1.218-2.751c0.389-0.42,0.809-0.62,1.281-0.62c1.008,0,1.722,1.239,1.722,2.993
		c0,1.365-0.378,2.499-1.145,3.434c-0.619,0.766-1.323,1.26-2.32,1.659L14.855,10.213z"/>
	<path d="M25.323,10.066c0.819-0.651,1.134-1.029,1.544-1.869c-0.483-0.147-0.861-0.399-1.218-0.809
		c-0.462-0.557-0.714-1.386-0.714-2.373c0-0.073,0-0.199,0.01-0.388c-0.84,0.934-1.375,2.079-1.375,2.919c0,0.073,0,0.136,0,0.189
		c0.011,0.073,0.011,0.136,0.011,0.168c0,0.168-0.116,0.294-0.263,0.294c-0.357,0-0.619-0.882-0.619-2.121
		c0-0.535,0.031-1.008,0.126-1.764c0.052-0.483,0.063-0.63,0.063-0.83c0-0.347-0.147-0.693-0.399-0.956
		c0.221,0,0.347,0.063,0.609,0.273c0.336,0.294,0.567,0.641,0.567,0.872c0,0.105-0.011,0.147-0.126,0.388
		c-0.231,0.504-0.399,1.354-0.399,2.048c0,0.189,0.01,0.304,0.052,0.556c0.62-1.229,0.977-1.743,1.774-2.509
		c0.137-1.071,0.347-1.669,0.746-2.163c0.231-0.294,0.546-0.452,0.882-0.452c0.294,0,0.63,0.147,0.84,0.368
		c0.241,0.252,0.357,0.462,0.525,0.945c0.063,0,0.126,0,0.147,0c0.588,0,1.145,0.179,1.638,0.525c0.672,0.462,1.04,1.208,1.04,2.058
		c0,1.628-1.313,2.888-3.014,2.888c-0.074,0-0.168,0-0.326-0.01c-0.64,0.976-1.166,1.47-2.026,1.879L25.323,10.066z M25.26,4.271
		c-0.01,0.252-0.021,0.399-0.021,0.514c0,0.977,0.305,1.848,0.819,2.321c0.315,0.294,0.588,0.451,1.019,0.577
		c0.283-0.914,0.42-1.932,0.42-3.15c0-0.599-0.021-0.935-0.105-1.365C26.5,3.357,25.912,3.661,25.26,4.271z M27.35,2.916
		c-0.189-0.798-0.441-1.134-0.851-1.134c-0.588,0-1.019,0.735-1.208,2.089C25.964,3.357,26.563,3.073,27.35,2.916z M28.222,4.869
		c0,1.134-0.168,2.037-0.525,2.898c1.386,0,2.373-1.04,2.373-2.488c0-0.83-0.315-1.501-0.882-1.869
		c-0.347-0.22-0.651-0.315-1.166-0.325C28.169,3.819,28.222,4.271,28.222,4.869z"/>
	<path d="M36.296,10.245c0.62-0.504,1.029-0.935,1.386-1.512c0.546-0.893,0.893-2.111,0.893-3.192c0-1.04-0.378-1.68-0.998-1.68
		c-0.557,0-1.292,0.452-2.016,1.239c-0.2,0.2-0.263,0.242-0.431,0.242c-0.22,0-0.472-0.168-0.693-0.473
		c-0.179-0.241-0.284-0.514-0.284-0.704c0-0.136,0.042-0.231,0.168-0.388c0.095,0.462,0.305,0.725,0.578,0.725
		c0.147,0,0.42-0.116,0.966-0.41c0.892-0.483,1.239-0.599,1.774-0.599c0.483,0,0.998,0.273,1.302,0.704
		c0.252,0.368,0.399,0.914,0.399,1.543c0,1.239-0.472,2.468-1.302,3.392c-0.515,0.567-1.05,0.966-1.648,1.229L36.296,10.245z
		 M35.718,0.7c0.515,0.431,1.229,0.672,1.964,0.672h0.241c0.21,0,0.357,0.074,0.567,0.252c0.147,0.126,0.221,0.252,0.221,0.357
		c0,0.147-0.147,0.231-0.431,0.231c-0.441,0.01-0.441,0.01-2.614,0.64l-0.053-0.147c0.788-0.357,1.512-0.682,1.775-0.777
		c-0.861-0.178-1.375-0.504-1.775-1.145L35.718,0.7z"/>
	<path fill="#ED6E46" d="M43.898,2.905c0.494,0.347,0.84,0.462,1.396,0.462c0.483,0,1.26-0.136,1.722-0.315
		c-0.242-0.441-0.662-0.987-0.903-1.166c-0.126-0.105-0.441-0.189-0.808-0.22c0.073-0.179,0.136-0.221,0.42-0.284
		c0.168-0.042,0.294-0.053,0.483-0.053c0.368,0,0.62,0.053,0.714,0.137c0.095,0.084,0.105,0.116,0.126,0.41
		c0.011,0.21,0.011,0.21,0.431,1.05c0.84-0.305,1.145-0.462,1.449-0.767c0.074-0.073,0.168-0.105,0.326-0.105
		c0.41,0,0.62,0.095,0.62,0.273c0,0.126-0.116,0.21-0.515,0.389c-0.41,0.179-0.504,0.21-1.648,0.588
		c0.105,0.179,0.105,0.179,0.231,0.378c0.063,0.116,0.231,0.399,0.515,0.872c0.83-0.325,1.029-0.41,1.302-0.588
		c-0.22-0.221-0.294-0.284-0.546-0.483l0.074-0.116c0.399,0.21,0.672,0.294,0.882,0.294c0,0,0,0,0.189-0.021
		c0.031,0,0.063,0,0.084,0c0.168,0,0.284,0.105,0.284,0.263c0,0.241-0.609,0.567-2.037,1.071c0.304,0.515,0.346,0.609,0.473,0.819
		c0.231,0.43,0.231,0.43,0.483,0.829c0.126,0.2,0.178,0.368,0.178,0.567c0,0.409-0.136,0.682-0.346,0.682
		c-0.095,0-0.126-0.021-0.294-0.157c-0.536-0.431-1.512-0.725-2.436-0.725c-0.483,0-0.956,0.105-1.313,0.294
		c-0.431,0.221-0.63,0.494-0.63,0.851c0,0.651,0.693,0.998,1.985,0.998c0.514,0,0.819-0.032,1.323-0.137
		c0.053-0.01,0.095-0.021,0.126-0.021c0.315,0,0.693,0.294,0.693,0.546c0,0.095-0.052,0.158-0.157,0.2
		c-0.2,0.084-0.84,0.158-1.438,0.158c-0.819,0-1.543-0.116-2.016-0.315c-0.641-0.284-1.019-0.777-1.019-1.323
		c0-0.945,1.113-1.575,2.772-1.575c0.62,0,1.208,0.074,1.974,0.231c-0.116-0.42-0.399-1.029-0.788-1.785
		C47.552,5.362,46.66,5.52,46.019,5.52c-0.452,0-0.788-0.094-1.092-0.304c-0.21-0.158-0.325-0.294-0.504-0.63l0.126-0.095
		c0.336,0.452,0.683,0.62,1.239,0.62c0.609,0,1.365-0.137,2.247-0.41c-0.221-0.409-0.494-0.882-0.735-1.26
		c-0.703,0.22-1.396,0.336-1.953,0.336c-0.578,0-1.071-0.252-1.533-0.767L43.898,2.905z M49.757,1.309
		c0.483,0.168,0.914,0.389,1.239,0.63c0.294,0.22,0.378,0.357,0.378,0.609c0,0.241-0.116,0.441-0.242,0.441
		c-0.084,0-0.147-0.052-0.241-0.2c-0.336-0.525-0.756-0.997-1.218-1.354L49.757,1.309z M50.649,0.679
		c0.546,0.179,0.977,0.368,1.239,0.536c0.294,0.189,0.399,0.357,0.399,0.63c0,0.242-0.095,0.431-0.21,0.431
		c-0.074,0-0.137-0.053-0.242-0.221c-0.284-0.42-0.683-0.809-1.281-1.239L50.649,0.679z"/>
	<path d="M11.379,16.839c1.218,0.441,1.659,0.651,2.394,1.092c0.882,0.504,1.029,0.672,1.029,1.155c0,0.63-0.336,1.323-0.63,1.323
		c-0.147,0-0.252-0.126-0.483-0.525c-0.189-0.336-0.651-0.966-1.05-1.428c-0.441-0.504-0.777-0.798-1.47-1.344L11.379,16.839z
		 M11.547,24.504c0.189,0.042,0.336,0.063,0.42,0.084c0.567,0.147,0.84,0.189,1.029,0.189c0.273,0,0.357-0.126,0.777-1.071
		c0.399-0.861,1.197-2.709,1.848-4.263c0.987-2.31,0.987-2.31,1.47-3.381l0.231,0.147l-2.919,8.82
		c-0.21,0.651-0.252,0.777-0.252,0.987c0,0.357,0.063,0.714,0.273,1.47c0.126,0.462,0.189,0.966,0.189,1.407
		c0,0.609-0.105,0.945-0.399,1.26s-0.84,0.588-1.155,0.588c-0.252,0-0.441-0.231-0.441-0.546c0-0.105,0.042-0.399,0.105-0.714
		c0.315-1.386,0.42-2.1,0.42-2.793c0-0.525-0.105-0.798-0.399-1.092c-0.336-0.336-0.651-0.525-1.281-0.777L11.547,24.504z
		 M12.598,12.135c1.092,0.441,2.016,0.903,2.751,1.365c0.651,0.42,0.861,0.672,0.861,1.176c0,0.567-0.336,1.302-0.588,1.302
		c-0.168,0-0.294-0.126-0.525-0.525c-0.252-0.441-0.483-0.777-0.903-1.302c-0.672-0.819-0.987-1.134-1.806-1.785L12.598,12.135z
		 M14.971,30.678c1.071-0.798,1.491-1.176,1.953-1.701c1.344-1.533,1.89-3.507,1.89-6.846c0-0.546-0.021-0.903-0.063-1.596
		c2.016,0.252,2.163,0.294,2.163,0.483c0,0.126-0.021,0.147-0.714,0.441c-0.105,2.352-0.147,2.772-0.294,3.759
		c-0.252,1.596-1.092,3.045-2.457,4.242c-0.714,0.63-1.239,0.966-2.352,1.491L14.971,30.678z M22.866,15.012
		c-0.861,1.575-1.302,2.247-2.268,3.57c3.15-0.126,3.528-0.147,6.09-0.357c-1.008-1.134-1.281-1.386-2.142-2.1l0.168-0.21
		c1.365,0.714,2.877,1.617,3.78,2.247c0.504,0.357,0.693,0.672,0.693,1.197c0,0.63-0.336,1.344-0.651,1.344
		c-0.126,0-0.252-0.126-0.42-0.441c-0.42-0.756-0.693-1.176-1.071-1.596c-2.667,0.483-2.667,0.483-9.009,1.344
		c-0.021,0.105-0.042,0.168-0.063,0.231c-0.063,0.294-0.126,0.42-0.252,0.42c-0.21,0-0.252-0.105-0.63-2.058
		c1.26,0.042,1.26,0.042,1.533,0.042c0.252,0,0.252,0,1.449-0.063c0.462-1.302,0.462-1.302,1.05-3.57h-2.625
		c-0.777,0-0.987,0.021-1.575,0.168l-0.189-0.861c0.63,0.168,1.029,0.21,1.764,0.21h3.507v-0.945c0-0.693-0.021-1.05-0.084-1.848
		c0.483,0.063,0.882,0.105,1.113,0.126c1.029,0.105,1.323,0.189,1.323,0.399c0,0.168-0.105,0.21-0.882,0.462v1.806h3.885
		c0.525-0.672,0.693-0.882,1.26-1.533c0.903,0.714,1.155,0.924,2.016,1.659c0.105,0.105,0.147,0.168,0.147,0.21
		c0,0.105-0.084,0.147-0.252,0.147H22.866z M23.392,23.622c0,2.247,0,2.856,0.063,6.342c-0.021,0.168-0.042,0.21-0.147,0.273
		c-0.105,0.042-0.714,0.105-0.987,0.105c-0.189,0-0.273-0.084-0.294-0.252c0.042-2.919,0.063-4.389,0.063-7.392
		c0-0.861-0.021-1.323-0.084-2.184c1.932,0.231,2.142,0.273,2.142,0.483c0,0.147-0.126,0.21-0.756,0.42V23.622z M25.597,22.572
		c0-1.113,0-1.26-0.063-1.995c1.827,0.168,2.247,0.252,2.247,0.441c0,0.168-0.21,0.294-0.84,0.483v7.14
		c0,0.315,0.042,0.378,0.273,0.378s0.42,0.021,0.546,0.021c0.063,0,0.084,0,0.084,0c0.777,0,1.092-0.063,1.218-0.21
		c0.168-0.231,0.294-0.714,1.155-4.221l0.336,0.021l-0.315,3.717c0,0.084,0,0.21,0,0.273c0,0.252,0,0.252,0.441,0.441
		c0.21,0.084,0.315,0.231,0.315,0.441c0,0.336-0.294,0.588-0.798,0.672c-0.42,0.063-1.47,0.105-2.415,0.105
		c-1.89,0-2.184-0.168-2.184-1.239c0-1.155,0-1.155,0-2.457V22.572z"/>
	<path fill="#ED6E46" d="M32.085,22.11c0.714-1.155,1.008-1.68,1.617-3.045c1.323-2.982,1.995-5.124,2.31-7.329
		c1.743,0.336,2.394,0.525,2.394,0.756c0,0.168-0.336,0.315-0.966,0.42c-0.588,1.995-1.134,3.255-2.31,5.397
		c1.281,0.168,1.512,0.231,1.512,0.462c0,0.147-0.189,0.273-0.63,0.399v7.497c0,0.651,0,0.945,0.021,3.843
		c0,0.168-0.021,0.231-0.084,0.273c-0.084,0.084-0.714,0.168-1.155,0.168c-0.168,0-0.252-0.084-0.252-0.21c0-0.042,0-0.084,0-0.126
		c0.021-0.336,0.021-2.583,0.063-6.741v-4.62c-0.756,1.239-1.155,1.806-2.205,3.045L32.085,22.11z M40.17,24.021l-1.281,0.021
		c-0.882,0-1.323,0.021-2.226,0.105l-0.189-0.777c0.84,0.126,1.386,0.168,2.226,0.168h0.189l1.281-0.021v-1.533
		c-1.134,0.21-1.701,0.273-2.961,0.378l-0.063-0.231c1.26-0.273,2.373-0.609,3.591-1.113c0.504-0.21,0.63-0.273,1.155-0.609
		l0.399-0.252c1.281,0.903,1.47,1.071,1.47,1.26c0,0.105-0.126,0.21-0.252,0.21c-0.168,0-0.252-0.021-0.735-0.231
		c-0.63,0.168-0.777,0.21-1.386,0.357v1.743l3.507-0.042c-0.105-0.462-0.147-0.756-0.189-1.155
		c-0.105-1.239-0.126-1.281-0.273-1.869c1.764,0.168,1.827,0.189,1.827,0.378c0,0.105-0.084,0.168-0.399,0.336
		c0,1.092,0.042,1.47,0.189,2.289l3.024-0.042c0.441-0.567,0.567-0.735,1.05-1.281c0.735,0.609,0.945,0.777,1.596,1.428
		c0.063,0.063,0.105,0.126,0.105,0.168c0,0.084-0.084,0.126-0.315,0.126l-5.334,0.084c0.252,0.966,0.546,1.596,1.092,2.331
		c0.483-0.567,0.798-1.029,1.239-1.827c1.743,0.861,1.743,0.861,1.743,1.029c0,0.21-0.168,0.252-0.903,0.273
		c-0.609,0.693-0.84,0.945-1.323,1.407c0.546,0.567,1.218,1.113,1.638,1.302c0.126,0.063,0.21,0.105,0.252,0.147
		c0.042,0.021,0.063,0.042,0.084,0.042c0.063,0,0.147-0.084,0.252-0.273c0.168-0.315,0.378-0.672,0.567-1.029
		c0.336-0.567,0.357-0.63,0.693-1.218l0.231,0.105l-0.546,2.142c-0.042,0.189-0.063,0.315-0.063,0.42
		c0,0.189,0.021,0.21,0.441,0.651c0.126,0.126,0.231,0.399,0.231,0.609c0,0.273-0.273,0.504-0.567,0.504
		c-0.357,0-1.176-0.336-1.953-0.798c-0.84-0.504-1.512-1.071-2.184-1.806c-1.491,1.155-2.73,1.806-4.809,2.52l-0.126-0.315
		c1.134-0.504,1.953-1.029,3.234-2.1c0.399-0.315,0.693-0.588,1.05-0.924c-0.714-1.029-1.113-1.953-1.449-3.171L41.389,24v1.848
		c1.344-0.231,1.869-0.336,3.045-0.63l0.084,0.294c-1.386,0.525-1.995,0.735-3.129,1.092v0.945l0.021,1.554c0,0.126,0,0.273,0,0.504
		c0,0.525-0.084,0.714-0.441,0.945c-0.336,0.231-0.693,0.336-1.407,0.399c-0.147-0.882-0.504-1.071-2.142-1.26v-0.273
		c1.806,0.147,1.806,0.147,2.541,0.147c0.021,0,0.042,0,0.042,0c0.126,0,0.168-0.063,0.168-0.252v-2.352
		c-0.798,0.21-1.176,0.315-2.268,0.567c-0.042,0.105-0.063,0.189-0.084,0.252c-0.105,0.336-0.168,0.441-0.294,0.441
		c-0.189,0-0.189,0-0.567-1.869c0.861-0.042,1.575-0.105,3.213-0.336V24.021z M44.434,16.965h3.108
		c0.462-0.546,0.609-0.714,1.071-1.218c0.693,0.588,0.924,0.756,1.596,1.344c0.084,0.105,0.126,0.168,0.126,0.231
		c0,0.084-0.084,0.126-0.273,0.126h-5.628v1.911h4.326c0.483-0.567,0.63-0.735,1.134-1.302c0.714,0.63,0.945,0.819,1.617,1.449
		c0.084,0.084,0.126,0.147,0.126,0.21s-0.084,0.126-0.231,0.126H38.911c-0.483,0-0.903,0.021-1.743,0.126l-0.21-0.777
		c0.567,0.084,1.617,0.168,1.953,0.168h4.242v-1.911h-2.205c-0.84,0-1.281,0.042-2.184,0.168l-0.168-0.798
		c0.693,0.105,1.428,0.147,2.352,0.147h2.205v-1.932h-3.486c-0.777,0-1.092,0.021-1.89,0.147l-0.189-0.819
		c0.924,0.147,1.449,0.189,2.142,0.189h1.953c-0.105-0.168-0.126-0.231-0.231-0.483c-0.273-0.777-0.546-1.218-1.26-2.037
		l0.231-0.189c0.798,0.294,1.239,0.546,1.89,1.05c0.294,0.231,0.42,0.42,0.42,0.609c0,0.378-0.189,0.756-0.525,1.05h2.751
		c0.441-0.756,0.966-2.037,1.176-2.919c1.785,0.567,2.079,0.714,2.079,0.924c0,0.168-0.252,0.252-0.84,0.273
		c-0.588,0.588-0.588,0.588-1.89,1.722h3.087c0.462-0.567,0.609-0.735,1.113-1.302c0.819,0.588,1.071,0.798,1.848,1.449
		c0.084,0.084,0.126,0.168,0.126,0.21c0,0.105-0.042,0.126-0.315,0.126h-6.909V16.965z M46.891,20.598
		c1.554,0.42,2.163,0.777,2.163,1.323c0,0.462-0.273,1.029-0.504,1.029c-0.147,0-0.21-0.063-0.378-0.42
		c-0.231-0.504-0.672-1.05-1.386-1.722L46.891,20.598z"/>
</g>
<g>
	<path d="M14.855,49.588c0.746-0.462,1.208-0.872,1.669-1.47c0.735-0.977,1.103-2.163,1.103-3.539c0-0.913-0.157-1.774-0.389-2.163
		c-0.189-0.305-0.441-0.462-0.745-0.462c-0.525,0-1.008,0.452-1.386,1.313c-0.304,0.683-0.494,1.543-0.494,2.258
		c0,0.178,0.011,0.294,0.042,0.651c0.011,0.063,0.011,0.147,0.011,0.221c0,0.199-0.095,0.315-0.273,0.315
		c-0.399,0-0.662-0.851-0.662-2.153c0-0.871,0.063-1.417,0.336-2.814c0.084-0.42,0.116-0.619,0.116-0.766
		c0-0.336-0.147-0.536-0.567-0.746c0.084-0.032,0.147-0.053,0.189-0.053c0.22,0,0.556,0.137,0.84,0.347
		c0.294,0.21,0.41,0.378,0.41,0.588c0,0.137-0.021,0.2-0.147,0.399c-0.399,0.662-0.756,2.153-0.756,3.129c0,0.095,0,0.2,0.011,0.389
		h0.021c0.315-1.344,0.704-2.215,1.218-2.751c0.389-0.42,0.809-0.62,1.281-0.62c1.008,0,1.722,1.239,1.722,2.993
		c0,1.365-0.378,2.499-1.145,3.434c-0.619,0.766-1.323,1.26-2.32,1.659L14.855,49.588z"/>
	<path d="M25.323,49.441c0.819-0.651,1.134-1.029,1.544-1.869c-0.483-0.147-0.861-0.399-1.218-0.809
		c-0.462-0.557-0.714-1.386-0.714-2.373c0-0.073,0-0.199,0.01-0.388c-0.84,0.934-1.375,2.079-1.375,2.919c0,0.073,0,0.136,0,0.189
		c0.011,0.073,0.011,0.136,0.011,0.168c0,0.168-0.116,0.294-0.263,0.294c-0.357,0-0.619-0.882-0.619-2.121
		c0-0.535,0.031-1.008,0.126-1.764c0.052-0.483,0.063-0.63,0.063-0.83c0-0.347-0.147-0.693-0.399-0.956
		c0.221,0,0.347,0.063,0.609,0.273c0.336,0.294,0.567,0.641,0.567,0.872c0,0.105-0.011,0.147-0.126,0.388
		c-0.231,0.504-0.399,1.354-0.399,2.048c0,0.189,0.01,0.304,0.052,0.556c0.62-1.229,0.977-1.743,1.774-2.509
		c0.137-1.071,0.347-1.669,0.746-2.163c0.231-0.294,0.546-0.452,0.882-0.452c0.294,0,0.63,0.147,0.84,0.368
		c0.241,0.252,0.357,0.462,0.525,0.945c0.063,0,0.126,0,0.147,0c0.588,0,1.145,0.179,1.638,0.525c0.672,0.462,1.04,1.208,1.04,2.058
		c0,1.628-1.313,2.888-3.014,2.888c-0.074,0-0.168,0-0.326-0.01c-0.64,0.976-1.166,1.47-2.026,1.879L25.323,49.441z M25.26,43.646
		c-0.01,0.252-0.021,0.399-0.021,0.514c0,0.977,0.305,1.848,0.819,2.321c0.315,0.294,0.588,0.451,1.019,0.577
		c0.283-0.914,0.42-1.932,0.42-3.15c0-0.599-0.021-0.935-0.105-1.365C26.5,42.732,25.912,43.036,25.26,43.646z M27.35,42.291
		c-0.189-0.798-0.441-1.134-0.851-1.134c-0.588,0-1.019,0.735-1.208,2.089C25.964,42.732,26.563,42.448,27.35,42.291z
		 M28.222,44.244c0,1.134-0.168,2.037-0.525,2.898c1.386,0,2.373-1.04,2.373-2.488c0-0.83-0.315-1.501-0.882-1.869
		c-0.347-0.22-0.651-0.315-1.166-0.325C28.169,43.194,28.222,43.646,28.222,44.244z"/>
	<path d="M36.296,49.62c0.62-0.504,1.029-0.935,1.386-1.512c0.546-0.893,0.893-2.111,0.893-3.192c0-1.04-0.378-1.68-0.998-1.68
		c-0.557,0-1.292,0.452-2.016,1.239c-0.2,0.2-0.263,0.242-0.431,0.242c-0.22,0-0.472-0.168-0.693-0.473
		c-0.179-0.241-0.284-0.514-0.284-0.704c0-0.136,0.042-0.231,0.168-0.388c0.095,0.462,0.305,0.725,0.578,0.725
		c0.147,0,0.42-0.116,0.966-0.41c0.892-0.483,1.239-0.599,1.774-0.599c0.483,0,0.998,0.273,1.302,0.704
		c0.252,0.368,0.399,0.914,0.399,1.543c0,1.239-0.472,2.468-1.302,3.392c-0.515,0.567-1.05,0.966-1.648,1.229L36.296,49.62z
		 M35.718,40.075c0.515,0.431,1.229,0.672,1.964,0.672h0.241c0.21,0,0.357,0.074,0.567,0.252c0.147,0.126,0.221,0.252,0.221,0.357
		c0,0.147-0.147,0.231-0.431,0.231c-0.441,0.01-0.441,0.01-2.614,0.64l-0.053-0.147c0.788-0.357,1.512-0.682,1.775-0.777
		c-0.861-0.178-1.375-0.504-1.775-1.145L35.718,40.075z"/>
	<path d="M43.898,42.28c0.494,0.347,0.84,0.462,1.396,0.462c0.483,0,1.26-0.136,1.722-0.315c-0.242-0.441-0.662-0.987-0.903-1.166
		c-0.126-0.105-0.441-0.189-0.808-0.22c0.073-0.179,0.136-0.221,0.42-0.284c0.168-0.042,0.294-0.053,0.483-0.053
		c0.368,0,0.62,0.053,0.714,0.137c0.095,0.084,0.105,0.116,0.126,0.41c0.011,0.21,0.011,0.21,0.431,1.05
		c0.84-0.305,1.145-0.462,1.449-0.767c0.074-0.073,0.168-0.105,0.326-0.105c0.41,0,0.62,0.095,0.62,0.273
		c0,0.126-0.116,0.21-0.515,0.389c-0.41,0.179-0.504,0.21-1.648,0.588c0.105,0.179,0.105,0.179,0.231,0.378
		c0.063,0.116,0.231,0.399,0.515,0.872c0.83-0.325,1.029-0.41,1.302-0.588c-0.22-0.221-0.294-0.284-0.546-0.483l0.074-0.116
		c0.399,0.21,0.672,0.294,0.882,0.294c0,0,0,0,0.189-0.021c0.031,0,0.063,0,0.084,0c0.168,0,0.284,0.105,0.284,0.263
		c0,0.241-0.609,0.567-2.037,1.071c0.304,0.515,0.346,0.609,0.473,0.819c0.231,0.43,0.231,0.43,0.483,0.829
		c0.126,0.2,0.178,0.368,0.178,0.567c0,0.409-0.136,0.682-0.346,0.682c-0.095,0-0.126-0.021-0.294-0.157
		c-0.536-0.431-1.512-0.725-2.436-0.725c-0.483,0-0.956,0.105-1.313,0.294c-0.431,0.221-0.63,0.494-0.63,0.851
		c0,0.651,0.693,0.998,1.985,0.998c0.514,0,0.819-0.032,1.323-0.137c0.053-0.01,0.095-0.021,0.126-0.021
		c0.315,0,0.693,0.294,0.693,0.546c0,0.095-0.052,0.158-0.157,0.2c-0.2,0.084-0.84,0.158-1.438,0.158
		c-0.819,0-1.543-0.116-2.016-0.315c-0.641-0.284-1.019-0.777-1.019-1.323c0-0.945,1.113-1.575,2.772-1.575
		c0.62,0,1.208,0.074,1.974,0.231c-0.116-0.42-0.399-1.029-0.788-1.785c-0.704,0.252-1.596,0.409-2.236,0.409
		c-0.452,0-0.788-0.094-1.092-0.304c-0.21-0.158-0.325-0.294-0.504-0.63l0.126-0.095c0.336,0.452,0.683,0.62,1.239,0.62
		c0.609,0,1.365-0.137,2.247-0.41c-0.221-0.409-0.494-0.882-0.735-1.26c-0.703,0.22-1.396,0.336-1.953,0.336
		c-0.578,0-1.071-0.252-1.533-0.767L43.898,42.28z M49.757,40.684c0.483,0.168,0.914,0.389,1.239,0.63
		c0.294,0.22,0.378,0.357,0.378,0.609c0,0.241-0.116,0.441-0.242,0.441c-0.084,0-0.147-0.052-0.241-0.2
		c-0.336-0.525-0.756-0.997-1.218-1.354L49.757,40.684z M50.649,40.054c0.546,0.179,0.977,0.368,1.239,0.536
		c0.294,0.189,0.399,0.357,0.399,0.63c0,0.242-0.095,0.431-0.21,0.431c-0.074,0-0.137-0.053-0.242-0.221
		c-0.284-0.42-0.683-0.809-1.281-1.239L50.649,40.054z"/>
	<path d="M11.379,56.214c1.218,0.441,1.659,0.651,2.394,1.092c0.882,0.504,1.029,0.672,1.029,1.155c0,0.63-0.336,1.323-0.63,1.323
		c-0.147,0-0.252-0.126-0.483-0.525c-0.189-0.336-0.651-0.966-1.05-1.428c-0.441-0.504-0.777-0.798-1.47-1.344L11.379,56.214z
		 M11.547,63.879c0.189,0.042,0.336,0.063,0.42,0.084c0.567,0.147,0.84,0.189,1.029,0.189c0.273,0,0.357-0.126,0.777-1.071
		c0.399-0.861,1.197-2.709,1.848-4.263c0.987-2.31,0.987-2.31,1.47-3.381l0.231,0.147l-2.919,8.82
		c-0.21,0.651-0.252,0.777-0.252,0.987c0,0.357,0.063,0.714,0.273,1.47c0.126,0.462,0.189,0.966,0.189,1.407
		c0,0.609-0.105,0.945-0.399,1.26s-0.84,0.588-1.155,0.588c-0.252,0-0.441-0.231-0.441-0.546c0-0.105,0.042-0.399,0.105-0.714
		c0.315-1.386,0.42-2.1,0.42-2.793c0-0.525-0.105-0.798-0.399-1.092c-0.336-0.336-0.651-0.525-1.281-0.777L11.547,63.879z
		 M12.598,51.51c1.092,0.441,2.016,0.903,2.751,1.365c0.651,0.42,0.861,0.672,0.861,1.176c0,0.567-0.336,1.302-0.588,1.302
		c-0.168,0-0.294-0.126-0.525-0.525c-0.252-0.441-0.483-0.777-0.903-1.302c-0.672-0.819-0.987-1.134-1.806-1.785L12.598,51.51z
		 M14.971,70.053c1.071-0.798,1.491-1.176,1.953-1.701c1.344-1.533,1.89-3.507,1.89-6.846c0-0.546-0.021-0.903-0.063-1.596
		c2.016,0.252,2.163,0.294,2.163,0.483c0,0.126-0.021,0.147-0.714,0.441c-0.105,2.352-0.147,2.772-0.294,3.759
		c-0.252,1.596-1.092,3.045-2.457,4.242c-0.714,0.63-1.239,0.966-2.352,1.491L14.971,70.053z M22.866,54.387
		c-0.861,1.575-1.302,2.247-2.268,3.57c3.15-0.126,3.528-0.147,6.09-0.357c-1.008-1.134-1.281-1.386-2.142-2.1l0.168-0.21
		c1.365,0.714,2.877,1.617,3.78,2.247c0.504,0.357,0.693,0.672,0.693,1.197c0,0.63-0.336,1.344-0.651,1.344
		c-0.126,0-0.252-0.126-0.42-0.441c-0.42-0.756-0.693-1.176-1.071-1.596c-2.667,0.483-2.667,0.483-9.009,1.344
		c-0.021,0.105-0.042,0.168-0.063,0.231c-0.063,0.294-0.126,0.42-0.252,0.42c-0.21,0-0.252-0.105-0.63-2.058
		c1.26,0.042,1.26,0.042,1.533,0.042c0.252,0,0.252,0,1.449-0.063c0.462-1.302,0.462-1.302,1.05-3.57h-2.625
		c-0.777,0-0.987,0.021-1.575,0.168l-0.189-0.861c0.63,0.168,1.029,0.21,1.764,0.21h3.507v-0.945c0-0.693-0.021-1.05-0.084-1.848
		c0.483,0.063,0.882,0.105,1.113,0.126c1.029,0.105,1.323,0.189,1.323,0.399c0,0.168-0.105,0.21-0.882,0.462v1.806h3.885
		c0.525-0.672,0.693-0.882,1.26-1.533c0.903,0.714,1.155,0.924,2.016,1.659c0.105,0.105,0.147,0.168,0.147,0.21
		c0,0.105-0.084,0.147-0.252,0.147H22.866z M23.392,62.997c0,2.247,0,2.856,0.063,6.342c-0.021,0.168-0.042,0.21-0.147,0.273
		c-0.105,0.042-0.714,0.105-0.987,0.105c-0.189,0-0.273-0.084-0.294-0.252c0.042-2.919,0.063-4.389,0.063-7.392
		c0-0.861-0.021-1.323-0.084-2.184c1.932,0.231,2.142,0.273,2.142,0.483c0,0.147-0.126,0.21-0.756,0.42V62.997z M25.597,61.947
		c0-1.113,0-1.26-0.063-1.995c1.827,0.168,2.247,0.252,2.247,0.441c0,0.168-0.21,0.294-0.84,0.483v7.14
		c0,0.315,0.042,0.378,0.273,0.378s0.42,0.021,0.546,0.021c0.063,0,0.084,0,0.084,0c0.777,0,1.092-0.063,1.218-0.21
		c0.168-0.231,0.294-0.714,1.155-4.221l0.336,0.021l-0.315,3.717c0,0.084,0,0.21,0,0.273c0,0.252,0,0.252,0.441,0.441
		c0.21,0.084,0.315,0.231,0.315,0.441c0,0.336-0.294,0.588-0.798,0.672c-0.42,0.063-1.47,0.105-2.415,0.105
		c-1.89,0-2.184-0.168-2.184-1.239c0-1.155,0-1.155,0-2.457V61.947z"/>
	<path d="M32.085,61.485c0.714-1.155,1.008-1.68,1.617-3.045c1.323-2.982,1.995-5.124,2.31-7.329
		c1.743,0.336,2.394,0.525,2.394,0.756c0,0.168-0.336,0.315-0.966,0.42c-0.588,1.995-1.134,3.255-2.31,5.397
		c1.281,0.168,1.512,0.231,1.512,0.462c0,0.147-0.189,0.273-0.63,0.399v7.497c0,0.651,0,0.945,0.021,3.843
		c0,0.168-0.021,0.231-0.084,0.273c-0.084,0.084-0.714,0.168-1.155,0.168c-0.168,0-0.252-0.084-0.252-0.21c0-0.042,0-0.084,0-0.126
		c0.021-0.336,0.021-2.583,0.063-6.741v-4.62c-0.756,1.239-1.155,1.806-2.205,3.045L32.085,61.485z M40.17,63.396l-1.281,0.021
		c-0.882,0-1.323,0.021-2.226,0.105l-0.189-0.777c0.84,0.126,1.386,0.168,2.226,0.168h0.189l1.281-0.021v-1.533
		c-1.134,0.21-1.701,0.273-2.961,0.378l-0.063-0.231c1.26-0.273,2.373-0.609,3.591-1.113c0.504-0.21,0.63-0.273,1.155-0.609
		l0.399-0.252c1.281,0.903,1.47,1.071,1.47,1.26c0,0.105-0.126,0.21-0.252,0.21c-0.168,0-0.252-0.021-0.735-0.231
		c-0.63,0.168-0.777,0.21-1.386,0.357v1.743l3.507-0.042c-0.105-0.462-0.147-0.756-0.189-1.155
		c-0.105-1.239-0.126-1.281-0.273-1.869c1.764,0.168,1.827,0.189,1.827,0.378c0,0.105-0.084,0.168-0.399,0.336
		c0,1.092,0.042,1.47,0.189,2.289l3.024-0.042c0.441-0.567,0.567-0.735,1.05-1.281c0.735,0.609,0.945,0.777,1.596,1.428
		c0.063,0.063,0.105,0.126,0.105,0.168c0,0.084-0.084,0.126-0.315,0.126l-5.334,0.084c0.252,0.966,0.546,1.596,1.092,2.331
		c0.483-0.567,0.798-1.029,1.239-1.827c1.743,0.861,1.743,0.861,1.743,1.029c0,0.21-0.168,0.252-0.903,0.273
		c-0.609,0.693-0.84,0.945-1.323,1.407c0.546,0.567,1.218,1.113,1.638,1.302c0.126,0.063,0.21,0.105,0.252,0.147
		c0.042,0.021,0.063,0.042,0.084,0.042c0.063,0,0.147-0.084,0.252-0.273c0.168-0.315,0.378-0.672,0.567-1.029
		c0.336-0.567,0.357-0.63,0.693-1.218l0.231,0.105l-0.546,2.142c-0.042,0.189-0.063,0.315-0.063,0.42
		c0,0.189,0.021,0.21,0.441,0.651c0.126,0.126,0.231,0.399,0.231,0.609c0,0.273-0.273,0.504-0.567,0.504
		c-0.357,0-1.176-0.336-1.953-0.798c-0.84-0.504-1.512-1.071-2.184-1.806c-1.491,1.155-2.73,1.806-4.809,2.52l-0.126-0.315
		c1.134-0.504,1.953-1.029,3.234-2.1c0.399-0.315,0.693-0.588,1.05-0.924c-0.714-1.029-1.113-1.953-1.449-3.171l-3.612,0.063v1.848
		c1.344-0.231,1.869-0.336,3.045-0.63l0.084,0.294c-1.386,0.525-1.995,0.735-3.129,1.092v0.945l0.021,1.554c0,0.126,0,0.273,0,0.504
		c0,0.525-0.084,0.714-0.441,0.945c-0.336,0.231-0.693,0.336-1.407,0.399c-0.147-0.882-0.504-1.071-2.142-1.26v-0.273
		c1.806,0.147,1.806,0.147,2.541,0.147c0.021,0,0.042,0,0.042,0c0.126,0,0.168-0.063,0.168-0.252v-2.352
		c-0.798,0.21-1.176,0.315-2.268,0.567c-0.042,0.105-0.063,0.189-0.084,0.252c-0.105,0.336-0.168,0.441-0.294,0.441
		c-0.189,0-0.189,0-0.567-1.869c0.861-0.042,1.575-0.105,3.213-0.336V63.396z M44.434,56.34h3.108
		c0.462-0.546,0.609-0.714,1.071-1.218c0.693,0.588,0.924,0.756,1.596,1.344c0.084,0.105,0.126,0.168,0.126,0.231
		c0,0.084-0.084,0.126-0.273,0.126h-5.628v1.911h4.326c0.483-0.567,0.63-0.735,1.134-1.302c0.714,0.63,0.945,0.819,1.617,1.449
		c0.084,0.084,0.126,0.147,0.126,0.21s-0.084,0.126-0.231,0.126H38.911c-0.483,0-0.903,0.021-1.743,0.126l-0.21-0.777
		c0.567,0.084,1.617,0.168,1.953,0.168h4.242v-1.911h-2.205c-0.84,0-1.281,0.042-2.184,0.168l-0.168-0.798
		c0.693,0.105,1.428,0.147,2.352,0.147h2.205v-1.932h-3.486c-0.777,0-1.092,0.021-1.89,0.147l-0.189-0.819
		c0.924,0.147,1.449,0.189,2.142,0.189h1.953c-0.105-0.168-0.126-0.231-0.231-0.483c-0.273-0.777-0.546-1.218-1.26-2.037
		l0.231-0.189c0.798,0.294,1.239,0.546,1.89,1.05c0.294,0.231,0.42,0.42,0.42,0.609c0,0.378-0.189,0.756-0.525,1.05h2.751
		c0.441-0.756,0.966-2.037,1.176-2.919c1.785,0.567,2.079,0.714,2.079,0.924c0,0.168-0.252,0.252-0.84,0.273
		c-0.588,0.588-0.588,0.588-1.89,1.722h3.087c0.462-0.567,0.609-0.735,1.113-1.302c0.819,0.588,1.071,0.798,1.848,1.449
		c0.084,0.084,0.126,0.168,0.126,0.21c0,0.105-0.042,0.126-0.315,0.126h-6.909V56.34z M46.891,59.973
		c1.554,0.42,2.163,0.777,2.163,1.323c0,0.462-0.273,1.029-0.504,1.029c-0.147,0-0.21-0.063-0.378-0.42
		c-0.231-0.504-0.672-1.05-1.386-1.722L46.891,59.973z"/>
</g>
<rect x="10.75" y="10.75" fill="none" stroke="#008CD6" stroke-width="0.5" width="42" height="21"/>
<line fill="none" stroke="#008CD6" stroke-width="0.5" x1="31.75" y1="31.75" x2="31.75" y2="10.75"/>
<polyline fill="none" stroke="#008CD6" stroke-width="0.5" points="10.75,10.75 10.75,0.25 52.75,0.25 52.75,10.75 "/>
<line fill="none" stroke="#008CD6" stroke-width="0.5" x1="31.75" y1="10.75" x2="31.75" y2="0.25"/>
<line fill="none" stroke="#008CD6" stroke-width="0.5" x1="42.25" y1="10.75" x2="42.25" y2="0.25"/>
<line fill="none" stroke="#008CD6" stroke-width="0.5" x1="0.25" y1="118.75" x2="0.25" y2="97.75"/>
<line fill="none" stroke="#008CD6" stroke-width="0.5" x1="21.25" y1="118.75" x2="21.25" y2="97.75"/>
<line fill="none" stroke="#008CD6" stroke-width="0.5" x1="42.25" y1="118.75" x2="42.25" y2="97.75"/>
</svg>
