<?xml version="1.0" encoding="utf-8"?>
<!-- Generator: Adobe Illustrator 12.0.0, SVG Export Plug-In . SVG Version: 6.00 Build 51448)  -->
<!DOCTYPE svg PUBLIC "-//W3C//DTD SVG 1.1//EN" "http://www.w3.org/Graphics/SVG/1.1/DTD/svg11.dtd" [
	<!ENTITY ns_svg "http://www.w3.org/2000/svg">
	<!ENTITY ns_xlink "http://www.w3.org/1999/xlink">
]>
<svg  version="1.1" id="レイヤー_1" xmlns="&ns_svg;" xmlns:xlink="&ns_xlink;" width="288.882" height="143.125"
	 viewBox="0 0 288.882 143.125" overflow="visible" enable-background="new 0 0 288.882 143.125" xml:space="preserve">
<g>
	<path d="M265.14,7.79c-1.008,1.365-2.384,2.174-3.686,2.174c-0.798,0-1.418-0.326-1.743-0.893c-0.21-0.368-0.294-0.882-0.294-1.774
		c0-0.578,0.031-1.575,0.084-2.531c0.063-1.134,0.073-1.428,0.073-1.806c0-0.903-0.104-1.081-0.851-1.396
		c0.116-0.084,0.179-0.105,0.294-0.105c0.242,0,0.62,0.095,0.945,0.242c0.399,0.189,0.609,0.399,0.609,0.62
		c0,0.073-0.011,0.136-0.095,0.378c-0.199,0.63-0.546,3.812-0.546,5.04c0,0.64,0.126,1.019,0.42,1.26
		c0.231,0.179,0.567,0.284,0.935,0.284c0.714,0,1.596-0.252,2.394-0.672c0.483-0.252,0.788-0.473,1.334-0.935L265.14,7.79z"/>
	<path d="M270.904,10.216c0.818-0.651,1.134-1.029,1.543-1.869c-0.482-0.147-0.86-0.399-1.218-0.809
		c-0.462-0.557-0.714-1.386-0.714-2.373c0-0.073,0-0.199,0.011-0.388c-0.84,0.934-1.376,2.079-1.376,2.919c0,0.073,0,0.136,0,0.189
		c0.011,0.073,0.011,0.136,0.011,0.168c0,0.168-0.115,0.294-0.263,0.294c-0.356,0-0.619-0.882-0.619-2.121
		c0-0.535,0.031-1.008,0.126-1.764c0.053-0.483,0.063-0.63,0.063-0.83c0-0.347-0.146-0.693-0.398-0.956
		c0.221,0,0.347,0.063,0.608,0.273c0.336,0.294,0.567,0.641,0.567,0.872c0,0.105-0.011,0.147-0.126,0.388
		c-0.231,0.504-0.399,1.354-0.399,2.048c0,0.189,0.011,0.304,0.053,0.556c0.619-1.229,0.977-1.743,1.774-2.509
		c0.137-1.071,0.347-1.669,0.746-2.163c0.23-0.294,0.546-0.452,0.882-0.452c0.294,0,0.63,0.147,0.84,0.368
		c0.241,0.252,0.356,0.462,0.524,0.945c0.063,0,0.127,0,0.147,0c0.588,0,1.145,0.179,1.638,0.525c0.672,0.462,1.04,1.208,1.04,2.058
		c0,1.628-1.313,2.888-3.014,2.888c-0.073,0-0.168,0-0.325-0.01c-0.641,0.976-1.166,1.47-2.026,1.879L270.904,10.216z M270.841,4.42
		c-0.011,0.252-0.021,0.399-0.021,0.514c0,0.977,0.305,1.848,0.818,2.321c0.315,0.294,0.588,0.451,1.019,0.577
		c0.284-0.914,0.42-1.932,0.42-3.15c0-0.599-0.021-0.935-0.104-1.365C272.08,3.506,271.492,3.811,270.841,4.42z M272.931,3.065
		c-0.189-0.798-0.441-1.134-0.851-1.134c-0.588,0-1.019,0.735-1.207,2.089C271.545,3.506,272.143,3.223,272.931,3.065z
		 M273.802,5.018c0,1.134-0.168,2.037-0.524,2.898c1.386,0,2.373-1.04,2.373-2.488c0-0.83-0.315-1.501-0.883-1.869
		c-0.346-0.22-0.65-0.315-1.165-0.325C273.75,3.968,273.802,4.42,273.802,5.018z"/>
	<path d="M281.877,10.394c0.619-0.504,1.028-0.935,1.386-1.512c0.546-0.893,0.893-2.111,0.893-3.192c0-1.04-0.378-1.68-0.998-1.68
		c-0.557,0-1.291,0.452-2.016,1.239c-0.199,0.2-0.263,0.242-0.431,0.242c-0.221,0-0.473-0.168-0.693-0.473
		c-0.178-0.241-0.283-0.514-0.283-0.704c0-0.136,0.042-0.231,0.168-0.388c0.095,0.462,0.305,0.725,0.578,0.725
		c0.146,0,0.42-0.116,0.966-0.41c0.893-0.483,1.238-0.599,1.774-0.599c0.482,0,0.997,0.273,1.302,0.704
		c0.252,0.368,0.399,0.914,0.399,1.543c0,1.239-0.473,2.468-1.303,3.392c-0.514,0.567-1.05,0.966-1.648,1.229L281.877,10.394z
		 M281.299,0.85c0.515,0.431,1.229,0.672,1.964,0.672h0.241c0.21,0,0.357,0.074,0.567,0.252c0.146,0.126,0.221,0.252,0.221,0.357
		c0,0.147-0.147,0.231-0.431,0.231c-0.441,0.01-0.441,0.01-2.615,0.64l-0.052-0.147c0.787-0.357,1.512-0.682,1.774-0.777
		c-0.861-0.178-1.376-0.504-1.774-1.145L281.299,0.85z"/>
	<path d="M177.265,21.44c0,0.798-0.63,1.428-1.428,1.428c-0.776,0-1.428-0.651-1.428-1.428s0.651-1.428,1.428-1.428
		C176.635,20.013,177.265,20.643,177.265,21.44z M184.258,21.44c0,0.798-0.63,1.428-1.428,1.428c-0.777,0-1.428-0.651-1.428-1.428
		s0.65-1.428,1.428-1.428C183.628,20.013,184.258,20.643,184.258,21.44z M191.272,21.44c0,0.798-0.631,1.428-1.429,1.428
		c-0.776,0-1.428-0.651-1.428-1.428s0.651-1.428,1.428-1.428C190.642,20.013,191.272,20.643,191.272,21.44z"/>
	<path d="M198.265,21.44c0,0.798-0.63,1.428-1.428,1.428c-0.776,0-1.428-0.651-1.428-1.428s0.651-1.428,1.428-1.428
		C197.635,20.013,198.265,20.643,198.265,21.44z M205.258,21.44c0,0.798-0.63,1.428-1.428,1.428c-0.777,0-1.428-0.651-1.428-1.428
		s0.65-1.428,1.428-1.428C204.628,20.013,205.258,20.643,205.258,21.44z M212.272,21.44c0,0.798-0.631,1.428-1.429,1.428
		c-0.776,0-1.428-0.651-1.428-1.428s0.651-1.428,1.428-1.428C211.642,20.013,212.272,20.643,212.272,21.44z"/>
	<path d="M219.538,22.722c-0.042,0.462-0.063,0.651-0.063,0.945c0,2.499,1.575,3.675,4.956,3.675c1.659,0,3.402-0.294,4.642-0.756
		c0.126-0.063,0.252-0.084,0.356-0.084c0.315,0,0.798,0.189,1.155,0.42c0.294,0.231,0.462,0.483,0.462,0.735
		c0,0.315-0.23,0.546-0.672,0.651c-0.966,0.252-3.024,0.42-4.893,0.42c-2.353,0-3.844-0.294-4.894-1.008
		c-1.05-0.672-1.743-1.995-1.743-3.318c0-0.504,0.105-1.071,0.336-1.764L219.538,22.722z M220.189,14.426
		c1.07,0.714,1.806,0.924,3.213,0.924c1.386,0,3.149-0.252,4.367-0.63c0.147-0.042,0.315-0.084,0.379-0.084
		c0.546,0,1.26,0.63,1.26,1.092c0,0.357-0.126,0.42-1.533,0.735c-0.819,0.168-1.008,0.252-3.066,1.029
		c-0.504,0.189-0.504,0.189-1.722,0.714c-0.42,0.168-0.42,0.189-0.819,0.336l-0.146-0.315c0.651-0.378,0.987-0.588,1.533-0.882
		c1.428-0.777,1.428-0.777,1.764-0.987c-0.462,0.042-1.197,0.063-1.575,0.063c-0.776,0-1.743-0.231-2.394-0.567
		c-0.546-0.294-0.882-0.588-1.47-1.218L220.189,14.426z"/>
	<path d="M245.662,29c2.268-0.672,3.717-1.533,4.914-2.919c1.239-1.407,1.869-3.129,1.869-5.061c0-2.037-0.819-3.654-2.373-4.641
		c-0.924-0.609-2.311-0.966-3.633-0.966c-0.252,0-0.399,0-0.735,0.042c0.504,0.735,0.651,1.134,0.651,1.743
		c0,1.638-1.177,4.704-2.772,7.266c-1.323,2.1-2.352,3.129-3.129,3.129c-0.357,0-0.693-0.168-0.924-0.441
		c-0.189-0.252-0.231-0.336-0.588-1.344c-0.189-0.546-0.315-0.798-0.925-1.974c-0.336-0.672-0.482-1.239-0.482-1.911
		c0-1.323,0.714-2.877,1.89-4.158c1.701-1.806,4.474-2.94,7.225-2.94c2.12,0,4.073,0.693,5.418,1.932
		c1.344,1.239,2.016,2.898,2.016,4.935c0,2.625-1.533,4.956-4.179,6.363c-1.219,0.651-2.311,0.987-4.096,1.302L245.662,29z
		 M238.753,22.469c0,1.008,0.315,2.037,0.84,2.772c0.294,0.378,0.567,0.609,0.798,0.609c0.463,0,1.471-1.134,2.499-2.772
		c1.555-2.478,2.667-5.187,2.667-6.489c0-0.315-0.063-0.525-0.294-1.05C241.609,16.19,238.753,19.235,238.753,22.469z"/>
	<path d="M262.462,30.68c1.218-1.89,1.891-3.654,2.205-5.817c0.294-2.058,0.462-4.872,0.462-7.812c0-1.953-0.021-3.759-0.063-4.767
		c0.734,0.357,0.966,0.483,1.638,0.945h11.214c0.399-0.399,0.546-0.546,0.966-0.945c0.567,0.399,0.735,0.525,1.26,0.945
		c0.147,0.105,0.21,0.189,0.21,0.273s-0.21,0.273-0.714,0.63v9.765c0,0.546,0,1.302,0.021,2.247
		c0.021,1.407,0.021,1.617,0.021,2.562c-0.042,0.819-0.168,1.071-0.608,1.302c-0.441,0.21-0.966,0.357-1.807,0.504
		c-0.042-0.315-0.063-0.357-0.23-0.567c-0.546-0.693-0.819-0.798-2.395-0.987v-0.336c0.399,0.021,1.449,0.063,3.15,0.126
		c0.042,0,0.084,0,0.105,0c0.021,0,0.042,0,0.042,0c0.188,0,0.272-0.084,0.272-0.294V13.712h-11.697
		c-0.021,3.192-0.042,5.061-0.063,5.628c-0.126,4.263-0.504,6.321-1.491,8.337c-0.608,1.218-1.176,2.037-2.247,3.171L262.462,30.68z
		 M274.642,16.589c0.463-0.546,0.609-0.714,1.051-1.239c0.504,0.483,0.986,0.966,1.49,1.449c0.021,0.063,0.063,0.147,0.063,0.168
		c0,0.042-0.084,0.105-0.168,0.105h-4.284v2.667h2.331c0.42-0.546,0.567-0.714,1.008-1.281c0.777,0.651,0.987,0.861,1.701,1.47
		c0.063,0.084,0.105,0.126,0.105,0.168c0,0.084-0.084,0.126-0.211,0.126h-9.197c-0.378,0-0.714,0.021-1.533,0.126l-0.189-0.777
		c0.757,0.105,1.323,0.168,1.723,0.168h2.919v-2.667h-2.289c-0.336,0-0.672,0.021-1.386,0.126l-0.21-0.798
		c0.546,0.126,1.154,0.189,1.596,0.189h2.289v-1.05c0-0.42-0.021-0.777-0.063-1.533c1.827,0.231,2.331,0.357,2.331,0.588
		c0,0.168-0.104,0.21-0.924,0.525v1.47H274.642z M269.98,28.076c-0.063,0.273-0.21,0.336-0.799,0.357c-0.084,0-0.126,0-0.146,0
		c-0.042,0-0.084,0-0.084,0c-0.294,0-0.399-0.084-0.399-0.252c0-0.021,0-0.042,0-0.063c0.042-1.05,0.063-2.583,0.063-4.032
		c0-0.525,0-0.525-0.042-1.575c-0.021-0.651-0.021-0.651-0.021-1.113c0.672,0.378,0.882,0.483,1.555,0.882h4.011
		c0.294-0.399,0.378-0.504,0.714-0.882c0.546,0.357,0.714,0.462,1.239,0.882c0.21,0.21,0.252,0.252,0.252,0.294
		s-0.147,0.168-0.63,0.567c-0.021,0.945-0.021,1.617-0.021,1.89c0,0.924,0,1.365,0.063,2.478c-0.021,0.336-0.105,0.357-1.071,0.42
		c-0.231,0-0.336-0.105-0.336-0.336v-1.092h-4.347V28.076z M269.98,26.019h4.347v-3.255h-4.347V26.019z"/>
</g>
<rect x="214.507" y="10.75" fill="none" stroke="#008CD6" stroke-width="0.5" width="42" height="21"/>
<rect x="261.757" y="10.75" fill="none" stroke="#008CD6" stroke-width="0.5" width="21" height="21"/>
<g>
	<line fill="none" stroke="#008CD6" stroke-width="0.5" x1="256.507" y1="10.75" x2="256.507" y2="0.25"/>
	<line fill="none" stroke="#008CD6" stroke-width="0.5" x1="267.007" y1="0.25" x2="267.007" y2="10.75"/>
	<line fill="none" stroke="#000000" stroke-width="0.1768" x1="261.757" y1="10.75" x2="256.507" y2="10.75"/>
	<line fill="none" stroke="#008CD6" stroke-width="0.5" x1="277.507" y1="10.75" x2="277.507" y2="0.25"/>
	<polyline fill="none" stroke="#008CD6" stroke-width="0.5" points="256.507,10.75 256.507,0.25 288.006,0.25 288.006,10.75 	"/>
	<line fill="none" stroke="#000000" stroke-width="0.1768" x1="288.006" y1="10.75" x2="282.756" y2="10.75"/>
</g>
<line fill="none" stroke="#008CD6" stroke-width="0.5" x1="235.507" y1="31.75" x2="235.507" y2="10.75"/>
<line fill="none" stroke="#008CD6" stroke-width="0.5" stroke-dasharray="2" x1="288.036" y1="1.375" x2="288.036" y2="124.375"/>
<g>
	<path fill="#008CD6" d="M241.208,134.339c-0.553,0-0.889,0.012-1.309,0.036c0.072-0.456,0.096-0.84,0.096-1.428v-6.312
		c0-0.624-0.023-0.996-0.096-1.416h1.128c-0.071,0.444-0.096,0.756-0.096,1.416v6.852h3.78c0.6,0,0.924-0.024,1.392-0.084v1.02
		c-0.384-0.06-0.72-0.084-1.392-0.084H241.208z"/>
	<path fill="#008CD6" d="M248.203,125.219v1.068h-1.164v-1.068H248.203z M248.155,127.871c-0.06,0.42-0.084,0.756-0.084,1.356v3.756
		c0,0.552,0.024,0.888,0.084,1.356h-1.08c0.06-0.516,0.084-0.852,0.084-1.356v-3.756c0-0.576-0.024-0.936-0.084-1.356H248.155z"/>
	<path fill="#008CD6" d="M249.906,134.339c0.072-0.456,0.097-0.78,0.097-1.356v-3.756c0-0.54-0.024-0.876-0.097-1.356h0.996v0.816
		c0,0.144,0,0.24-0.035,0.516c0.563-0.984,1.344-1.452,2.424-1.452c0.863,0,1.536,0.312,1.92,0.9
		c0.228,0.348,0.336,0.792,0.336,1.38v2.964c0,0.612,0.023,0.948,0.084,1.344h-1.08c0.06-0.468,0.084-0.828,0.084-1.356v-2.796
		c0-1.08-0.516-1.656-1.464-1.656c-0.672,0-1.212,0.3-1.716,0.948c-0.313,0.408-0.456,0.708-0.553,1.188v2.316
		c0,0.528,0.024,0.888,0.084,1.356H249.906z"/>
	<path fill="#008CD6" d="M257.935,131.243c0.036,0.804,0.156,1.248,0.48,1.68c0.384,0.528,0.972,0.816,1.691,0.816
		c0.973,0,1.645-0.48,1.98-1.404l0.84,0.336c-0.228,0.504-0.384,0.72-0.66,0.996c-0.563,0.552-1.296,0.84-2.172,0.84
		c-1.884,0-3.072-1.32-3.072-3.396c0-2.052,1.176-3.396,2.977-3.396c1.548,0,2.664,0.996,2.903,2.604
		c0.013,0.132,0.061,0.6,0.084,0.924H257.935z M262.026,130.487c-0.071-0.672-0.252-1.104-0.636-1.476
		c-0.372-0.36-0.84-0.54-1.416-0.54c-0.731,0-1.344,0.372-1.704,1.044c-0.168,0.3-0.228,0.516-0.3,0.972H262.026z"/>
	<path fill="#008CD6" d="M268.986,131.243c0.036,0.804,0.156,1.248,0.48,1.68c0.384,0.528,0.972,0.816,1.691,0.816
		c0.973,0,1.645-0.48,1.98-1.404l0.84,0.336c-0.228,0.504-0.384,0.72-0.66,0.996c-0.563,0.552-1.296,0.84-2.172,0.84
		c-1.884,0-3.072-1.32-3.072-3.396c0-2.052,1.176-3.396,2.977-3.396c1.548,0,2.664,0.996,2.903,2.604
		c0.013,0.132,0.061,0.6,0.084,0.924H268.986z M273.078,130.487c-0.071-0.672-0.252-1.104-0.636-1.476
		c-0.372-0.36-0.84-0.54-1.416-0.54c-0.731,0-1.344,0.372-1.704,1.044c-0.168,0.3-0.228,0.516-0.3,0.972H273.078z"/>
	<path fill="#008CD6" d="M275.43,134.339c0.072-0.456,0.097-0.78,0.097-1.356v-3.756c0-0.54-0.024-0.876-0.097-1.356h0.996v0.816
		c0,0.144,0,0.24-0.035,0.516c0.563-0.984,1.344-1.452,2.424-1.452c0.863,0,1.536,0.312,1.92,0.9
		c0.228,0.348,0.336,0.792,0.336,1.38v2.964c0,0.612,0.023,0.948,0.084,1.344h-1.08c0.06-0.468,0.084-0.828,0.084-1.356v-2.796
		c0-1.08-0.516-1.656-1.464-1.656c-0.672,0-1.212,0.3-1.716,0.948c-0.313,0.408-0.456,0.708-0.553,1.188v2.316
		c0,0.528,0.024,0.888,0.084,1.356H275.43z"/>
	<path fill="#008CD6" d="M287.922,133.751c0-0.168,0.013-0.384,0.036-0.588c-0.563,0.876-1.344,1.296-2.436,1.296
		c-1.849,0-2.977-1.272-2.977-3.36c0-2.052,1.152-3.36,2.952-3.36c1.092,0,1.932,0.444,2.46,1.272l-0.012-0.18
		c-0.036-0.252-0.036-0.36-0.036-0.636v-1.608c0-0.564-0.024-0.912-0.084-1.368h1.056c-0.06,0.48-0.084,0.828-0.084,1.356v6.384
		c0,0.6,0.024,0.912,0.084,1.38h-0.96V133.751z M283.494,131.075c0,0.792,0.18,1.476,0.492,1.872c0.372,0.468,0.936,0.72,1.607,0.72
		c1.404,0,2.305-1.02,2.305-2.604c0-0.792-0.24-1.488-0.672-1.908c-0.42-0.408-0.996-0.636-1.633-0.636
		C284.286,128.519,283.494,129.479,283.494,131.075z"/>
</g>
<g>
	<path d="M7.355,34.46c0.494,0.357,0.84,0.473,1.396,0.473c0.483,0,1.26-0.136,1.722-0.315c-0.242-0.452-0.662-0.998-0.903-1.176
		c-0.137-0.105-0.42-0.179-0.809-0.221c0.073-0.179,0.136-0.21,0.42-0.273c0.168-0.042,0.294-0.053,0.483-0.053
		c0.368,0,0.62,0.053,0.714,0.137c0.095,0.084,0.105,0.115,0.126,0.41c0.011,0.21,0.011,0.21,0.431,1.04
		c0.966-0.357,1.218-0.483,1.501-0.777c0.084-0.073,0.179-0.105,0.336-0.105c0.41,0,0.62,0.095,0.62,0.273
		c0,0.147-0.137,0.231-0.683,0.462c-0.168,0.074-0.683,0.252-1.543,0.525c0.105,0.178,0.105,0.178,0.231,0.388
		c0.063,0.105,0.231,0.399,0.515,0.861c0.83-0.326,1.029-0.41,1.302-0.578c-0.22-0.231-0.294-0.294-0.546-0.494l0.074-0.105
		c0.399,0.2,0.672,0.294,0.882,0.294c0,0,0,0,0.189-0.021c0.032-0.01,0.063-0.01,0.084-0.01c0.168,0,0.284,0.105,0.284,0.262
		c0,0.252-0.609,0.578-2.037,1.082c0.326,0.557,0.378,0.651,0.473,0.819c0.241,0.43,0.241,0.43,0.483,0.829
		c0.126,0.2,0.178,0.368,0.178,0.567c0,0.409-0.136,0.682-0.346,0.682c-0.095,0-0.126-0.021-0.294-0.157
		c-0.536-0.431-1.512-0.725-2.436-0.725c-0.483,0-0.956,0.105-1.313,0.294c-0.431,0.221-0.63,0.494-0.63,0.851
		c0,0.651,0.693,0.998,1.984,0.998c0.514,0,0.819-0.032,1.323-0.147c0.053-0.011,0.095-0.021,0.126-0.021
		c0.315,0,0.693,0.294,0.693,0.556c0,0.084-0.053,0.158-0.158,0.2c-0.2,0.084-0.84,0.158-1.438,0.158
		c-0.819,0-1.543-0.116-2.016-0.315c-0.641-0.283-1.019-0.777-1.019-1.323c0-0.945,1.113-1.575,2.772-1.575
		c0.62,0,1.208,0.063,1.974,0.231c-0.115-0.42-0.399-1.039-0.788-1.785c-0.703,0.241-1.596,0.399-2.236,0.399
		c-0.452,0-0.788-0.095-1.092-0.305c-0.21-0.147-0.326-0.294-0.504-0.63l0.126-0.094c0.336,0.451,0.683,0.619,1.239,0.619
		c0.609,0,1.375-0.136,2.247-0.399c-0.221-0.41-0.494-0.882-0.735-1.26c-0.703,0.22-1.396,0.336-1.953,0.336
		c-0.578,0-1.071-0.252-1.533-0.767L7.355,34.46z"/>
	<path d="M25.31,41.863c0.746-0.462,1.208-0.872,1.669-1.47c0.735-0.977,1.103-2.163,1.103-3.539c0-0.913-0.157-1.774-0.389-2.163
		c-0.189-0.305-0.441-0.462-0.745-0.462c-0.525,0-1.008,0.452-1.386,1.313c-0.304,0.683-0.494,1.543-0.494,2.258
		c0,0.178,0.011,0.294,0.042,0.651c0.011,0.063,0.011,0.147,0.011,0.221c0,0.199-0.095,0.315-0.273,0.315
		c-0.399,0-0.662-0.851-0.662-2.153c0-0.871,0.063-1.417,0.336-2.814c0.084-0.42,0.116-0.619,0.116-0.766
		c0-0.336-0.147-0.536-0.567-0.746c0.084-0.032,0.147-0.053,0.189-0.053c0.22,0,0.556,0.137,0.84,0.347
		c0.294,0.21,0.41,0.378,0.41,0.588c0,0.137-0.021,0.2-0.147,0.399c-0.399,0.662-0.756,2.153-0.756,3.129c0,0.095,0,0.2,0.011,0.389
		h0.021c0.315-1.344,0.704-2.215,1.218-2.751c0.389-0.42,0.809-0.62,1.281-0.62c1.008,0,1.722,1.239,1.722,2.993
		c0,1.365-0.378,2.499-1.145,3.434c-0.619,0.766-1.323,1.26-2.32,1.659L25.31,41.863z"/>
	<path d="M36.031,40.487c0.966-0.242,1.659-0.504,2.32-0.882c1.229-0.693,1.932-1.722,1.932-2.824c0-1.05-0.777-1.764-1.922-1.764
		c-1.229,0-2.835,0.672-4.221,1.753c-0.168,0.137-0.273,0.179-0.399,0.179c-0.494,0-1.26-0.735-1.26-1.208
		c0-0.074,0.021-0.137,0.084-0.263c0.105,0.221,0.168,0.294,0.294,0.389c0.158,0.116,0.284,0.168,0.431,0.168
		c0.273,0,0.672-0.115,1.271-0.378c1.659-0.725,2.751-1.008,3.843-1.008c1.596,0,2.688,0.934,2.688,2.31
		c0,1.302-0.882,2.426-2.415,3.077c-0.798,0.336-1.564,0.515-2.594,0.609L36.031,40.487z"/>
	<path d="M1.023,61.865c1.029-1.029,1.533-1.659,2.205-2.751c0.525-0.882,0.735-1.302,1.008-1.995
		c1.638,0.567,1.932,0.693,1.932,0.882c0,0.168-0.168,0.231-0.798,0.336c-1.155,1.491-2.394,2.625-4.095,3.801L1.023,61.865z
		 M8.311,46.683v-1.239c0-0.609-0.021-1.281-0.084-1.932c2.016,0.189,2.226,0.231,2.226,0.483c0,0.147-0.168,0.252-0.777,0.462
		v2.226h0.483c0.42-0.504,0.546-0.651,0.945-1.134c0.609,0.567,0.798,0.735,1.386,1.302c0.063,0.063,0.084,0.147,0.084,0.189
		c0,0.084-0.063,0.126-0.273,0.126H9.676v8.862h0.357c0.357-0.567,0.483-0.735,0.903-1.239c0.546,0.588,0.735,0.777,1.281,1.386
		c0.021,0.084,0.042,0.168,0.042,0.189c0,0.105-0.042,0.147-0.231,0.147H2.746c-0.441,0-1.134,0.042-1.491,0.105l-0.105-0.756
		c0.63,0.147,0.924,0.168,1.722,0.168H3.48v-8.862H2.494c-1.008,0.063-1.008,0.063-1.239,0.147l-0.105-0.798
		c0.441,0.126,0.819,0.168,1.344,0.168H3.48v-0.861c0-0.714-0.042-1.701-0.105-2.373c2.037,0.21,2.331,0.273,2.331,0.504
		c0,0.189-0.189,0.294-0.882,0.462v2.268H8.311z M4.825,49.644h3.486v-2.478H4.825V49.644z M4.825,52.646h3.486v-2.52H4.825V52.646z
		 M4.825,56.027h3.486v-2.898H4.825V56.027z M7.429,57.33c2.016,0.735,2.856,1.344,2.856,2.058c0,0.567-0.273,1.134-0.546,1.134
		c-0.21,0-0.273-0.063-0.63-0.777c-0.126-0.252-0.63-0.966-0.987-1.428c-0.231-0.273-0.441-0.483-0.861-0.882L7.429,57.33z
		 M14.022,54.453c-0.189,1.659-0.588,3.087-1.26,4.431c-0.693,1.365-1.344,2.226-2.73,3.528L9.697,62.18
		c1.428-1.764,2.184-3.213,2.646-5.103c0.42-1.701,0.567-3.969,0.567-8.316c0-3.486,0-3.822-0.126-4.977
		c0.735,0.378,0.966,0.504,1.701,0.987h3.087c0.336-0.42,0.462-0.567,0.798-0.987c0.567,0.378,0.735,0.483,1.26,0.882
		c0.168,0.126,0.231,0.21,0.231,0.315c0,0.189-0.189,0.357-0.693,0.609v11.802l0.021,1.218c0,0.378,0.021,0.84,0.021,1.428
		c-0.021,0.735-0.042,0.798-0.168,1.092c-0.294,0.546-0.672,0.735-2.121,0.966c-0.084-0.462-0.231-0.693-0.525-0.945
		c-0.357-0.294-0.84-0.42-1.932-0.525l0.021-0.357c2.079,0.147,2.079,0.147,2.961,0.147c0.231-0.021,0.315-0.126,0.315-0.399v-5.565
		H14.022z M14.232,49.791c-0.021,2.604-0.021,2.709-0.147,4.179h3.675v-4.179H14.232z M17.761,49.308v-4.053h-3.528
		c0.021,0.756,0.021,1.155,0.021,1.512c0,0.168,0,1.134-0.021,2.541H17.761z"/>
	<path d="M27.315,49.497c-0.336,0.651-0.756,1.218-1.869,2.562c1.05,0.21,1.407,0.315,1.407,0.462c0,0.126-0.189,0.231-0.714,0.357
		v5.586c0,0.252,0,1.113,0.021,2.268c0,0.252,0,0.504,0,0.609c0,0.21,0,0.441,0,0.777c-0.021,0.168-0.063,0.21-0.168,0.273
		c-0.126,0.042-0.672,0.105-1.05,0.105c-0.168,0-0.231-0.042-0.273-0.21c0.126-3.402,0.147-4.41,0.147-5.712v-3.78
		c-0.84,0.966-1.449,1.554-2.856,2.772l-0.252-0.294c1.344-1.554,2.079-2.562,2.982-4.011c0.861-1.386,1.218-2.142,1.512-3.171
		c1.239,0.462,1.239,0.462,1.827,0.693c0.168,0.063,0.21,0.084,0.273,0.231h4.515c0-0.084,0-0.903-0.021-2.478h-2.793
		c-0.735,0-0.924,0-1.491,0.084l-0.147-0.735c1.029,0.168,1.071,0.168,1.638,0.168h2.793c-0.021-1.239-0.042-1.617-0.126-2.52
		c1.785,0.105,1.89,0.126,2.121,0.231c0.126,0.042,0.21,0.126,0.21,0.189c0,0.126-0.21,0.252-0.819,0.504v1.596h3.234
		c0.357-0.42,0.462-0.546,0.819-0.945c0.609,0.399,0.798,0.525,1.302,0.924c0.126,0.105,0.189,0.168,0.189,0.252
		c0,0.126-0.105,0.21-0.651,0.483c0,0.399,0,0.819,0,1.323c0,0.042,0,0.399,0,0.924h0.105c0.294-0.588,0.399-0.756,0.798-1.344
		c0.714,0.651,0.903,0.861,1.554,1.533c0.021,0.063,0.063,0.126,0.063,0.126c0,0.084-0.105,0.168-0.21,0.168h-2.31
		c0.021,1.617,0.042,2.814,0.063,3.57c-0.063,0.168-0.105,0.231-0.21,0.252c-0.168,0.063-0.672,0.105-1.071,0.105
		c-0.168,0-0.21-0.042-0.21-0.21v-0.546h-3.444c0,1.197,0,1.197,0.021,2.541h3.339c0.462-0.546,0.588-0.735,1.029-1.302
		c0.819,0.651,1.05,0.84,1.827,1.512c0.042,0.063,0.084,0.126,0.084,0.147c0,0.084-0.084,0.126-0.21,0.126h-6.069
		c0,0.168,0,0.294,0,0.399c0,0.735,0.021,1.281,0.021,2.184h4.2c0.546-0.588,0.693-0.777,1.197-1.428
		c0.84,0.672,1.113,0.882,1.953,1.596c0.042,0.063,0.063,0.126,0.063,0.147c0,0.084-0.105,0.168-0.21,0.168h-7.203
		c0.021,1.239,0.042,2.352,0.063,3.36c0,0.147-0.042,0.21-0.126,0.273c-0.084,0.042-0.651,0.084-1.134,0.084
		c-0.168,0-0.231-0.063-0.315-0.252l0.063-3.465h-4.095c-0.882,0-1.113,0.021-1.827,0.105l-0.168-0.777
		c0.966,0.168,1.176,0.189,1.995,0.189h4.095c0.021-1.365,0.042-2.226,0.042-2.583h-3.423c-0.42,0-0.798,0.021-1.638,0.084
		l-0.189-0.756c0.903,0.126,1.428,0.189,1.827,0.189h3.423v-2.541h-3.171c-0.483,0-0.798,0.021-1.428,0.105l-0.126-0.735
		c0.735,0.126,0.987,0.147,1.449,0.147h3.276c0-0.504,0-1.386-0.021-2.688H27.315z M21.96,49.161
		c1.176-1.05,1.869-1.827,2.877-3.276c0.819-1.134,1.008-1.449,1.302-2.226c1.848,0.588,2.247,0.756,2.247,0.945
		s-0.168,0.252-1.05,0.294c-2.058,2.415-3.234,3.465-5.124,4.599L21.96,49.161z M37.647,46.536h-3.444v2.478h3.444V46.536z
		 M34.204,49.497v2.688h3.444v-2.688H34.204z"/>
	<path d="M48.84,53.192c-0.042,0.189-0.357,1.512-0.945,3.948c-0.294,1.239-0.357,1.575-0.357,2.226
		c0,0.609-0.021,0.777-0.063,0.903c-0.084,0.231-0.273,0.357-0.504,0.357c-0.357,0-0.672-0.294-0.903-0.861
		c-0.462-1.092-0.735-2.793-0.735-4.473c0-0.63,0.063-1.407,0.168-2.247c0.147-1.218,0.147-1.218,0.735-3.969
		c0.21-0.987,0.294-1.512,0.294-1.953c0-0.693-0.168-1.218-0.588-1.974c0.462,0.021,0.84,0.294,1.407,1.029
		c0.525,0.651,0.777,1.197,0.777,1.659c0,0.336-0.021,0.42-0.441,1.26c-0.42,0.882-0.924,2.352-1.134,3.339
		c-0.189,0.798-0.273,1.701-0.273,2.604c0,1.155,0.105,1.89,0.399,2.772c0.357-0.735,0.525-1.155,0.756-1.785l1.113-2.94
		L48.84,53.192z M51.486,54.242c-0.042,0.42-0.063,0.609-0.063,0.882c0,2.31,1.323,3.255,4.578,3.255
		c0.609,0,1.218-0.042,1.785-0.147c0.441-0.063,0.441-0.063,1.113-0.336c0.126-0.042,0.231-0.063,0.315-0.063
		c0.546,0,1.323,0.735,1.323,1.239c0,0.252-0.168,0.42-0.462,0.525c-0.441,0.147-1.449,0.231-2.625,0.231
		c-2.625,0-4.494-0.441-5.439-1.281c-0.756-0.693-1.134-1.575-1.134-2.73c0-0.525,0.063-0.987,0.252-1.659L51.486,54.242z
		 M51.444,47.564c0.735,0.441,1.197,0.567,1.953,0.567c1.302,0,3.339-0.462,4.221-0.945c0.273-0.147,0.315-0.168,0.462-0.168
		c0.168,0,0.441,0.105,0.735,0.294c0.441,0.252,0.651,0.504,0.651,0.777s-0.147,0.399-0.588,0.483
		c-1.386,0.21-2.163,0.399-2.982,0.735c-0.651,0.273-1.869,0.945-2.709,1.491l-0.21-0.21c0.945-0.798,1.659-1.386,1.995-1.638
		c-0.441,0.021-0.672,0.042-0.861,0.042c-1.176,0-1.953-0.315-2.856-1.176L51.444,47.564z"/>
	<path d="M69.903,53.192c-0.378,1.323-0.966,3.612-1.218,4.641c-0.21,0.924-0.273,1.26-0.273,1.785
		c-0.021,0.672-0.042,0.756-0.147,0.924c-0.105,0.147-0.231,0.231-0.399,0.231c-0.357,0-0.651-0.294-0.903-0.945
		c-0.42-1.071-0.672-2.667-0.672-4.221c0-1.932,0.231-3.696,0.945-6.993c0.273-1.302,0.315-1.533,0.315-1.89
		c0-0.63-0.168-1.134-0.609-1.848c0.483,0.021,0.882,0.294,1.47,1.05c0.483,0.609,0.756,1.197,0.756,1.596
		c0,0.231,0,0.231-0.336,0.924c-1.008,2.1-1.596,4.599-1.596,6.846c0,1.071,0.084,1.743,0.336,2.604l0.882-2.1l1.134-2.709
		L69.903,53.192z M72.003,49.392c1.008,0.651,1.659,0.861,2.709,0.861c0.735,0,1.533-0.105,2.394-0.294c0-0.399,0-0.735,0-0.924
		c0-2.352-0.021-2.625-0.294-2.919c-0.252-0.273-0.714-0.42-1.386-0.483c0.294-0.273,0.462-0.336,1.008-0.336
		c0.462,0,1.029,0.084,1.428,0.189c0.609,0.189,0.924,0.441,0.924,0.756c0,0.147,0,0.168-0.189,0.651
		c-0.231,0.609-0.357,1.365-0.441,2.814c0.966-0.273,1.575-0.546,1.932-0.861c0.21-0.21,0.273-0.231,0.462-0.231
		c0.252,0,0.735,0.126,0.987,0.273c0.168,0.084,0.273,0.231,0.273,0.378c0,0.462-1.533,1.092-3.717,1.512
		c0,2.793,0.063,3.948,0.273,5.712c2.436,0.651,3.465,1.47,3.465,2.688c0,0.441-0.189,0.777-0.42,0.777
		c-0.168,0-0.315-0.105-0.735-0.525c-0.924-0.945-1.449-1.323-2.268-1.68c0.021,0.189,0.021,0.357,0.021,0.504
		c0,1.512-1.26,2.415-3.36,2.415c-1.827,0-3.108-0.882-3.108-2.142c0-1.449,1.554-2.373,3.948-2.373
		c0.399,0,0.693,0.021,1.281,0.063c0-0.189,0-0.315,0-0.357l-0.042-2.247l-0.021-2.688c-0.63,0.126-1.239,0.168-1.848,0.168
		c-1.533,0-2.415-0.378-3.465-1.47L72.003,49.392z M75.216,57.057c-1.659,0-2.688,0.546-2.688,1.47c0,0.735,0.819,1.239,2.058,1.239
		c1.155,0,1.974-0.336,2.31-0.987c0.21-0.378,0.273-0.693,0.273-1.47C76.582,57.141,75.994,57.057,75.216,57.057z"/>
	<path d="M89.14,52.94c0,0.798-0.63,1.428-1.428,1.428c-0.777,0-1.428-0.651-1.428-1.428s0.651-1.428,1.428-1.428
		C88.51,51.513,89.14,52.143,89.14,52.94z M96.132,52.94c0,0.798-0.63,1.428-1.428,1.428c-0.777,0-1.428-0.651-1.428-1.428
		s0.651-1.428,1.428-1.428C95.502,51.513,96.132,52.143,96.132,52.94z M103.146,52.94c0,0.798-0.63,1.428-1.428,1.428
		c-0.777,0-1.428-0.651-1.428-1.428s0.651-1.428,1.428-1.428C102.517,51.513,103.146,52.143,103.146,52.94z"/>
	<path d="M110.14,52.94c0,0.798-0.63,1.428-1.428,1.428c-0.777,0-1.428-0.651-1.428-1.428s0.651-1.428,1.428-1.428
		C109.51,51.513,110.14,52.143,110.14,52.94z M117.132,52.94c0,0.798-0.63,1.428-1.428,1.428c-0.777,0-1.428-0.651-1.428-1.428
		s0.651-1.428,1.428-1.428C116.502,51.513,117.132,52.143,117.132,52.94z M124.146,52.94c0,0.798-0.63,1.428-1.428,1.428
		c-0.777,0-1.428-0.651-1.428-1.428s0.651-1.428,1.428-1.428C123.517,51.513,124.146,52.143,124.146,52.94z"/>
</g>
<g>
	<path d="M266.64,88.04c-1.008,1.365-2.384,2.174-3.686,2.174c-0.798,0-1.418-0.326-1.743-0.893
		c-0.21-0.368-0.294-0.882-0.294-1.774c0-0.578,0.031-1.575,0.084-2.531c0.063-1.134,0.073-1.428,0.073-1.806
		c0-0.903-0.104-1.081-0.851-1.396c0.116-0.084,0.179-0.105,0.294-0.105c0.242,0,0.62,0.095,0.945,0.242
		c0.399,0.189,0.609,0.399,0.609,0.62c0,0.073-0.011,0.136-0.095,0.378c-0.199,0.63-0.546,3.812-0.546,5.04
		c0,0.64,0.126,1.019,0.42,1.26c0.231,0.179,0.567,0.284,0.935,0.284c0.714,0,1.596-0.252,2.394-0.672
		c0.483-0.252,0.788-0.473,1.334-0.935L266.64,88.04z"/>
	<path d="M272.404,90.466c0.818-0.651,1.134-1.029,1.543-1.869c-0.482-0.147-0.86-0.399-1.218-0.809
		c-0.462-0.557-0.714-1.386-0.714-2.373c0-0.073,0-0.199,0.011-0.388c-0.84,0.934-1.376,2.079-1.376,2.919c0,0.073,0,0.136,0,0.189
		c0.011,0.073,0.011,0.136,0.011,0.168c0,0.168-0.115,0.294-0.263,0.294c-0.356,0-0.619-0.882-0.619-2.121
		c0-0.535,0.031-1.008,0.126-1.764c0.053-0.483,0.063-0.63,0.063-0.83c0-0.347-0.146-0.693-0.398-0.956
		c0.221,0,0.347,0.063,0.608,0.273c0.336,0.294,0.567,0.641,0.567,0.872c0,0.105-0.011,0.147-0.126,0.388
		c-0.231,0.504-0.399,1.354-0.399,2.048c0,0.189,0.011,0.304,0.053,0.556c0.619-1.229,0.977-1.743,1.774-2.509
		c0.137-1.071,0.347-1.669,0.746-2.163c0.23-0.294,0.546-0.452,0.882-0.452c0.294,0,0.63,0.147,0.84,0.368
		c0.241,0.252,0.356,0.462,0.524,0.945c0.063,0,0.127,0,0.147,0c0.588,0,1.145,0.179,1.638,0.525c0.672,0.462,1.04,1.208,1.04,2.058
		c0,1.628-1.313,2.888-3.014,2.888c-0.073,0-0.168,0-0.325-0.01c-0.641,0.976-1.166,1.47-2.026,1.879L272.404,90.466z
		 M272.341,84.67c-0.011,0.252-0.021,0.399-0.021,0.514c0,0.977,0.305,1.848,0.818,2.321c0.315,0.294,0.588,0.451,1.019,0.577
		c0.284-0.914,0.42-1.932,0.42-3.15c0-0.599-0.021-0.935-0.104-1.365C273.58,83.756,272.992,84.061,272.341,84.67z M274.431,83.315
		c-0.189-0.798-0.441-1.134-0.851-1.134c-0.588,0-1.019,0.735-1.207,2.089C273.045,83.756,273.643,83.473,274.431,83.315z
		 M275.302,85.268c0,1.134-0.168,2.037-0.524,2.898c1.386,0,2.373-1.04,2.373-2.488c0-0.83-0.315-1.501-0.883-1.869
		c-0.346-0.22-0.65-0.315-1.165-0.325C275.25,84.218,275.302,84.67,275.302,85.268z"/>
	<path d="M283.377,90.644c0.619-0.504,1.028-0.935,1.386-1.512c0.546-0.893,0.893-2.111,0.893-3.192c0-1.04-0.378-1.68-0.998-1.68
		c-0.557,0-1.291,0.452-2.016,1.239c-0.199,0.2-0.263,0.242-0.431,0.242c-0.221,0-0.473-0.168-0.693-0.473
		c-0.178-0.241-0.283-0.514-0.283-0.704c0-0.136,0.042-0.231,0.168-0.388c0.095,0.462,0.305,0.725,0.578,0.725
		c0.146,0,0.42-0.116,0.966-0.41c0.893-0.483,1.238-0.599,1.774-0.599c0.482,0,0.997,0.273,1.302,0.704
		c0.252,0.368,0.399,0.914,0.399,1.543c0,1.239-0.473,2.468-1.303,3.392c-0.514,0.567-1.05,0.966-1.648,1.229L283.377,90.644z
		 M282.799,81.1c0.515,0.431,1.229,0.672,1.964,0.672h0.241c0.21,0,0.357,0.074,0.567,0.252c0.146,0.126,0.221,0.252,0.221,0.357
		c0,0.147-0.147,0.231-0.431,0.231c-0.441,0.01-0.441,0.01-2.615,0.64l-0.052-0.147c0.787-0.357,1.512-0.682,1.774-0.777
		c-0.861-0.178-1.376-0.504-1.774-1.145L282.799,81.1z"/>
	<path d="M178.765,101.69c0,0.798-0.63,1.428-1.428,1.428c-0.776,0-1.428-0.651-1.428-1.428s0.651-1.428,1.428-1.428
		C178.135,100.263,178.765,100.893,178.765,101.69z M185.758,101.69c0,0.798-0.63,1.428-1.428,1.428
		c-0.777,0-1.428-0.651-1.428-1.428s0.65-1.428,1.428-1.428C185.128,100.263,185.758,100.893,185.758,101.69z M192.772,101.69
		c0,0.798-0.631,1.428-1.429,1.428c-0.776,0-1.428-0.651-1.428-1.428s0.651-1.428,1.428-1.428
		C192.142,100.263,192.772,100.893,192.772,101.69z"/>
	<path d="M199.765,101.69c0,0.798-0.63,1.428-1.428,1.428c-0.776,0-1.428-0.651-1.428-1.428s0.651-1.428,1.428-1.428
		C199.135,100.263,199.765,100.893,199.765,101.69z M206.758,101.69c0,0.798-0.63,1.428-1.428,1.428
		c-0.777,0-1.428-0.651-1.428-1.428s0.65-1.428,1.428-1.428C206.128,100.263,206.758,100.893,206.758,101.69z M213.772,101.69
		c0,0.798-0.631,1.428-1.429,1.428c-0.776,0-1.428-0.651-1.428-1.428s0.651-1.428,1.428-1.428
		C213.142,100.263,213.772,100.893,213.772,101.69z"/>
	<path d="M221.038,102.972c-0.042,0.462-0.063,0.651-0.063,0.945c0,2.499,1.575,3.675,4.956,3.675c1.659,0,3.402-0.294,4.642-0.756
		c0.126-0.063,0.252-0.084,0.356-0.084c0.315,0,0.798,0.189,1.155,0.42c0.294,0.231,0.462,0.483,0.462,0.735
		c0,0.315-0.23,0.546-0.672,0.651c-0.966,0.252-3.024,0.42-4.893,0.42c-2.353,0-3.844-0.294-4.894-1.008
		c-1.05-0.672-1.743-1.995-1.743-3.318c0-0.504,0.105-1.071,0.336-1.764L221.038,102.972z M221.689,94.676
		c1.07,0.714,1.806,0.924,3.213,0.924c1.386,0,3.149-0.252,4.367-0.63c0.147-0.042,0.315-0.084,0.379-0.084
		c0.546,0,1.26,0.63,1.26,1.092c0,0.357-0.126,0.42-1.533,0.735c-0.819,0.168-1.008,0.252-3.066,1.029
		c-0.504,0.189-0.504,0.189-1.722,0.714c-0.42,0.168-0.42,0.189-0.819,0.336l-0.146-0.315c0.651-0.378,0.987-0.588,1.533-0.882
		c1.428-0.777,1.428-0.777,1.764-0.987c-0.462,0.042-1.197,0.063-1.575,0.063c-0.776,0-1.743-0.231-2.394-0.567
		c-0.546-0.294-0.882-0.588-1.47-1.218L221.689,94.676z"/>
	<path d="M247.162,109.25c2.268-0.672,3.717-1.533,4.914-2.919c1.239-1.407,1.869-3.129,1.869-5.061
		c0-2.037-0.819-3.654-2.373-4.641c-0.924-0.609-2.311-0.966-3.633-0.966c-0.252,0-0.399,0-0.735,0.042
		c0.504,0.735,0.651,1.134,0.651,1.743c0,1.638-1.177,4.704-2.772,7.266c-1.323,2.1-2.352,3.129-3.129,3.129
		c-0.357,0-0.693-0.168-0.924-0.441c-0.189-0.252-0.231-0.336-0.588-1.344c-0.189-0.546-0.315-0.798-0.925-1.974
		c-0.336-0.672-0.482-1.239-0.482-1.911c0-1.323,0.714-2.877,1.89-4.158c1.701-1.806,4.474-2.94,7.225-2.94
		c2.12,0,4.073,0.693,5.418,1.932c1.344,1.239,2.016,2.898,2.016,4.935c0,2.625-1.533,4.956-4.179,6.363
		c-1.219,0.651-2.311,0.987-4.096,1.302L247.162,109.25z M240.253,102.719c0,1.008,0.315,2.037,0.84,2.772
		c0.294,0.378,0.567,0.609,0.798,0.609c0.463,0,1.471-1.134,2.499-2.772c1.555-2.478,2.667-5.187,2.667-6.489
		c0-0.315-0.063-0.525-0.294-1.05C243.109,96.44,240.253,99.485,240.253,102.719z"/>
	<path d="M263.962,110.93c1.218-1.89,1.891-3.654,2.205-5.817c0.294-2.058,0.462-4.872,0.462-7.812c0-1.953-0.021-3.759-0.063-4.767
		c0.734,0.357,0.966,0.483,1.638,0.945h11.214c0.399-0.399,0.546-0.546,0.966-0.945c0.567,0.399,0.735,0.525,1.26,0.945
		c0.147,0.105,0.21,0.189,0.21,0.273s-0.21,0.273-0.714,0.63v9.765c0,0.546,0,1.302,0.021,2.247
		c0.021,1.407,0.021,1.617,0.021,2.562c-0.042,0.819-0.168,1.071-0.608,1.302c-0.441,0.21-0.966,0.357-1.807,0.504
		c-0.042-0.315-0.063-0.357-0.23-0.567c-0.546-0.693-0.819-0.798-2.395-0.987v-0.336c0.399,0.021,1.449,0.063,3.15,0.126
		c0.042,0,0.084,0,0.105,0c0.021,0,0.042,0,0.042,0c0.188,0,0.272-0.084,0.272-0.294V93.962h-11.697
		c-0.021,3.192-0.042,5.061-0.063,5.628c-0.126,4.263-0.504,6.321-1.491,8.337c-0.608,1.218-1.176,2.037-2.247,3.171L263.962,110.93
		z M276.142,96.839c0.463-0.546,0.609-0.714,1.051-1.239c0.504,0.483,0.986,0.966,1.49,1.449c0.021,0.063,0.063,0.147,0.063,0.168
		c0,0.042-0.084,0.105-0.168,0.105h-4.284v2.667h2.331c0.42-0.546,0.567-0.714,1.008-1.281c0.777,0.651,0.987,0.861,1.701,1.47
		c0.063,0.084,0.105,0.126,0.105,0.168c0,0.084-0.084,0.126-0.211,0.126h-9.197c-0.378,0-0.714,0.021-1.533,0.126l-0.189-0.777
		c0.757,0.105,1.323,0.168,1.723,0.168h2.919v-2.667h-2.289c-0.336,0-0.672,0.021-1.386,0.126l-0.21-0.798
		c0.546,0.126,1.154,0.189,1.596,0.189h2.289v-1.05c0-0.42-0.021-0.777-0.063-1.533c1.827,0.231,2.331,0.357,2.331,0.588
		c0,0.168-0.104,0.21-0.924,0.525v1.47H276.142z M271.48,108.326c-0.063,0.273-0.21,0.336-0.799,0.357c-0.084,0-0.126,0-0.146,0
		c-0.042,0-0.084,0-0.084,0c-0.294,0-0.399-0.084-0.399-0.252c0-0.021,0-0.042,0-0.063c0.042-1.05,0.063-2.583,0.063-4.032
		c0-0.525,0-0.525-0.042-1.575c-0.021-0.651-0.021-0.651-0.021-1.113c0.672,0.378,0.882,0.483,1.555,0.882h4.011
		c0.294-0.399,0.378-0.504,0.714-0.882c0.546,0.357,0.714,0.462,1.239,0.882c0.21,0.21,0.252,0.252,0.252,0.294
		s-0.147,0.168-0.63,0.567c-0.021,0.945-0.021,1.617-0.021,1.89c0,0.924,0,1.365,0.063,2.478c-0.021,0.336-0.105,0.357-1.071,0.42
		c-0.231,0-0.336-0.105-0.336-0.336v-1.092h-4.347V108.326z M271.48,106.269h4.347v-3.255h-4.347V106.269z"/>
</g>
<g>
	<path d="M8.855,114.71c0.494,0.357,0.84,0.473,1.396,0.473c0.483,0,1.26-0.136,1.722-0.315c-0.242-0.452-0.662-0.998-0.903-1.176
		c-0.137-0.105-0.42-0.179-0.809-0.221c0.073-0.179,0.136-0.21,0.42-0.273c0.168-0.042,0.294-0.053,0.483-0.053
		c0.368,0,0.62,0.053,0.714,0.137c0.095,0.084,0.105,0.115,0.126,0.41c0.011,0.21,0.011,0.21,0.431,1.04
		c0.966-0.357,1.218-0.483,1.501-0.777c0.084-0.073,0.179-0.105,0.336-0.105c0.41,0,0.62,0.095,0.62,0.273
		c0,0.147-0.137,0.231-0.683,0.462c-0.168,0.074-0.683,0.252-1.543,0.525c0.105,0.178,0.105,0.178,0.231,0.388
		c0.063,0.105,0.231,0.399,0.515,0.861c0.83-0.326,1.029-0.41,1.302-0.578c-0.22-0.231-0.294-0.294-0.546-0.494l0.074-0.105
		c0.399,0.2,0.672,0.294,0.882,0.294c0,0,0,0,0.189-0.021c0.032-0.01,0.063-0.01,0.084-0.01c0.168,0,0.284,0.105,0.284,0.262
		c0,0.252-0.609,0.578-2.037,1.082c0.326,0.557,0.378,0.651,0.473,0.819c0.241,0.43,0.241,0.43,0.483,0.829
		c0.126,0.2,0.178,0.368,0.178,0.567c0,0.409-0.136,0.682-0.346,0.682c-0.095,0-0.126-0.021-0.294-0.157
		c-0.536-0.431-1.512-0.725-2.436-0.725c-0.483,0-0.956,0.105-1.313,0.294c-0.431,0.221-0.63,0.494-0.63,0.851
		c0,0.651,0.693,0.998,1.984,0.998c0.514,0,0.819-0.032,1.323-0.147c0.053-0.011,0.095-0.021,0.126-0.021
		c0.315,0,0.693,0.294,0.693,0.556c0,0.084-0.053,0.158-0.158,0.2c-0.2,0.084-0.84,0.158-1.438,0.158
		c-0.819,0-1.543-0.116-2.016-0.315c-0.641-0.283-1.019-0.777-1.019-1.323c0-0.945,1.113-1.575,2.772-1.575
		c0.62,0,1.208,0.063,1.974,0.231c-0.115-0.42-0.399-1.039-0.788-1.785c-0.703,0.241-1.596,0.399-2.236,0.399
		c-0.452,0-0.788-0.095-1.092-0.305c-0.21-0.147-0.326-0.294-0.504-0.63l0.126-0.094c0.336,0.451,0.683,0.619,1.239,0.619
		c0.609,0,1.375-0.136,2.247-0.399c-0.221-0.41-0.494-0.882-0.735-1.26c-0.703,0.22-1.396,0.336-1.953,0.336
		c-0.578,0-1.071-0.252-1.533-0.767L8.855,114.71z"/>
	<path d="M26.81,122.113c0.746-0.462,1.208-0.872,1.669-1.47c0.735-0.977,1.103-2.163,1.103-3.539c0-0.913-0.157-1.774-0.389-2.163
		c-0.189-0.305-0.441-0.462-0.745-0.462c-0.525,0-1.008,0.452-1.386,1.313c-0.304,0.683-0.494,1.543-0.494,2.258
		c0,0.178,0.011,0.294,0.042,0.651c0.011,0.063,0.011,0.147,0.011,0.221c0,0.199-0.095,0.315-0.273,0.315
		c-0.399,0-0.662-0.851-0.662-2.153c0-0.871,0.063-1.417,0.336-2.814c0.084-0.42,0.116-0.619,0.116-0.766
		c0-0.336-0.147-0.536-0.567-0.746c0.084-0.032,0.147-0.053,0.189-0.053c0.22,0,0.556,0.137,0.84,0.347
		c0.294,0.21,0.41,0.378,0.41,0.588c0,0.137-0.021,0.2-0.147,0.399c-0.399,0.662-0.756,2.153-0.756,3.129c0,0.095,0,0.2,0.011,0.389
		h0.021c0.315-1.344,0.704-2.215,1.218-2.751c0.389-0.42,0.809-0.62,1.281-0.62c1.008,0,1.722,1.239,1.722,2.993
		c0,1.365-0.378,2.499-1.145,3.434c-0.619,0.766-1.323,1.26-2.32,1.659L26.81,122.113z"/>
	<path d="M37.531,120.737c0.966-0.242,1.659-0.504,2.32-0.882c1.229-0.693,1.932-1.722,1.932-2.824c0-1.05-0.777-1.764-1.922-1.764
		c-1.229,0-2.835,0.672-4.221,1.753c-0.168,0.137-0.273,0.179-0.399,0.179c-0.494,0-1.26-0.735-1.26-1.208
		c0-0.074,0.021-0.137,0.084-0.263c0.105,0.221,0.168,0.294,0.294,0.389c0.158,0.116,0.284,0.168,0.431,0.168
		c0.273,0,0.672-0.115,1.271-0.378c1.659-0.725,2.751-1.008,3.843-1.008c1.596,0,2.688,0.934,2.688,2.31
		c0,1.302-0.882,2.426-2.415,3.077c-0.798,0.336-1.564,0.515-2.594,0.609L37.531,120.737z"/>
	<path d="M2.523,142.115c1.029-1.029,1.533-1.659,2.205-2.751c0.525-0.882,0.735-1.302,1.008-1.995
		c1.638,0.567,1.932,0.693,1.932,0.882c0,0.168-0.168,0.231-0.798,0.336c-1.155,1.491-2.394,2.625-4.095,3.801L2.523,142.115z
		 M9.811,126.933v-1.239c0-0.609-0.021-1.281-0.084-1.932c2.016,0.189,2.226,0.231,2.226,0.483c0,0.147-0.168,0.252-0.777,0.462
		v2.226h0.483c0.42-0.504,0.546-0.651,0.945-1.134c0.609,0.567,0.798,0.735,1.386,1.302c0.063,0.063,0.084,0.147,0.084,0.189
		c0,0.084-0.063,0.126-0.273,0.126h-2.625v8.862h0.357c0.357-0.567,0.483-0.735,0.903-1.239c0.546,0.588,0.735,0.777,1.281,1.386
		c0.021,0.084,0.042,0.168,0.042,0.189c0,0.105-0.042,0.147-0.231,0.147H4.246c-0.441,0-1.134,0.042-1.491,0.105l-0.105-0.756
		c0.63,0.147,0.924,0.168,1.722,0.168H4.98v-8.862H3.994c-1.008,0.063-1.008,0.063-1.239,0.147l-0.105-0.798
		c0.441,0.126,0.819,0.168,1.344,0.168H4.98v-0.861c0-0.714-0.042-1.701-0.105-2.373c2.037,0.21,2.331,0.273,2.331,0.504
		c0,0.189-0.189,0.294-0.882,0.462v2.268H9.811z M6.325,129.894h3.486v-2.478H6.325V129.894z M6.325,132.896h3.486v-2.52H6.325
		V132.896z M6.325,136.277h3.486v-2.898H6.325V136.277z M8.929,137.58c2.016,0.735,2.856,1.344,2.856,2.058
		c0,0.567-0.273,1.134-0.546,1.134c-0.21,0-0.273-0.063-0.63-0.777c-0.126-0.252-0.63-0.966-0.987-1.428
		c-0.231-0.273-0.441-0.483-0.861-0.882L8.929,137.58z M15.522,134.703c-0.189,1.659-0.588,3.087-1.26,4.431
		c-0.693,1.365-1.344,2.226-2.73,3.528l-0.336-0.231c1.428-1.764,2.184-3.213,2.646-5.103c0.42-1.701,0.567-3.969,0.567-8.316
		c0-3.486,0-3.822-0.126-4.977c0.735,0.378,0.966,0.504,1.701,0.987h3.087c0.336-0.42,0.462-0.567,0.798-0.987
		c0.567,0.378,0.735,0.483,1.26,0.882c0.168,0.126,0.231,0.21,0.231,0.315c0,0.189-0.189,0.357-0.693,0.609v11.802l0.021,1.218
		c0,0.378,0.021,0.84,0.021,1.428c-0.021,0.735-0.042,0.798-0.168,1.092c-0.294,0.546-0.672,0.735-2.121,0.966
		c-0.084-0.462-0.231-0.693-0.525-0.945c-0.357-0.294-0.84-0.42-1.932-0.525l0.021-0.357c2.079,0.147,2.079,0.147,2.961,0.147
		c0.231-0.021,0.315-0.126,0.315-0.399v-5.565H15.522z M15.732,130.041c-0.021,2.604-0.021,2.709-0.147,4.179h3.675v-4.179H15.732z
		 M19.261,129.558v-4.053h-3.528c0.021,0.756,0.021,1.155,0.021,1.512c0,0.168,0,1.134-0.021,2.541H19.261z"/>
	<path d="M28.815,129.747c-0.336,0.651-0.756,1.218-1.869,2.562c1.05,0.21,1.407,0.315,1.407,0.462c0,0.126-0.189,0.231-0.714,0.357
		v5.586c0,0.252,0,1.113,0.021,2.268c0,0.252,0,0.504,0,0.609c0,0.21,0,0.441,0,0.777c-0.021,0.168-0.063,0.21-0.168,0.273
		c-0.126,0.042-0.672,0.105-1.05,0.105c-0.168,0-0.231-0.042-0.273-0.21c0.126-3.402,0.147-4.41,0.147-5.712v-3.78
		c-0.84,0.966-1.449,1.554-2.856,2.772l-0.252-0.294c1.344-1.554,2.079-2.562,2.982-4.011c0.861-1.386,1.218-2.142,1.512-3.171
		c1.239,0.462,1.239,0.462,1.827,0.693c0.168,0.063,0.21,0.084,0.273,0.231h4.515c0-0.084,0-0.903-0.021-2.478h-2.793
		c-0.735,0-0.924,0-1.491,0.084l-0.147-0.735c1.029,0.168,1.071,0.168,1.638,0.168h2.793c-0.021-1.239-0.042-1.617-0.126-2.52
		c1.785,0.105,1.89,0.126,2.121,0.231c0.126,0.042,0.21,0.126,0.21,0.189c0,0.126-0.21,0.252-0.819,0.504v1.596h3.234
		c0.357-0.42,0.462-0.546,0.819-0.945c0.609,0.399,0.798,0.525,1.302,0.924c0.126,0.105,0.189,0.168,0.189,0.252
		c0,0.126-0.105,0.21-0.651,0.483c0,0.399,0,0.819,0,1.323c0,0.042,0,0.399,0,0.924h0.105c0.294-0.588,0.399-0.756,0.798-1.344
		c0.714,0.651,0.903,0.861,1.554,1.533c0.021,0.063,0.063,0.126,0.063,0.126c0,0.084-0.105,0.168-0.21,0.168h-2.31
		c0.021,1.617,0.042,2.814,0.063,3.57c-0.063,0.168-0.105,0.231-0.21,0.252c-0.168,0.063-0.672,0.105-1.071,0.105
		c-0.168,0-0.21-0.042-0.21-0.21v-0.546h-3.444c0,1.197,0,1.197,0.021,2.541h3.339c0.462-0.546,0.588-0.735,1.029-1.302
		c0.819,0.651,1.05,0.84,1.827,1.512c0.042,0.063,0.084,0.126,0.084,0.147c0,0.084-0.084,0.126-0.21,0.126h-6.069
		c0,0.168,0,0.294,0,0.399c0,0.735,0.021,1.281,0.021,2.184h4.2c0.546-0.588,0.693-0.777,1.197-1.428
		c0.84,0.672,1.113,0.882,1.953,1.596c0.042,0.063,0.063,0.126,0.063,0.147c0,0.084-0.105,0.168-0.21,0.168h-7.203
		c0.021,1.239,0.042,2.352,0.063,3.36c0,0.147-0.042,0.21-0.126,0.273c-0.084,0.042-0.651,0.084-1.134,0.084
		c-0.168,0-0.231-0.063-0.315-0.252l0.063-3.465h-4.095c-0.882,0-1.113,0.021-1.827,0.105l-0.168-0.777
		c0.966,0.168,1.176,0.189,1.995,0.189h4.095c0.021-1.365,0.042-2.226,0.042-2.583h-3.423c-0.42,0-0.798,0.021-1.638,0.084
		l-0.189-0.756c0.903,0.126,1.428,0.189,1.827,0.189h3.423v-2.541h-3.171c-0.483,0-0.798,0.021-1.428,0.105l-0.126-0.735
		c0.735,0.126,0.987,0.147,1.449,0.147h3.276c0-0.504,0-1.386-0.021-2.688H28.815z M23.46,129.411
		c1.176-1.05,1.869-1.827,2.877-3.276c0.819-1.134,1.008-1.449,1.302-2.226c1.848,0.588,2.247,0.756,2.247,0.945
		s-0.168,0.252-1.05,0.294c-2.058,2.415-3.234,3.465-5.124,4.599L23.46,129.411z M39.147,126.786h-3.444v2.478h3.444V126.786z
		 M35.704,129.747v2.688h3.444v-2.688H35.704z"/>
	<path d="M50.34,133.442c-0.042,0.189-0.357,1.512-0.945,3.948c-0.294,1.239-0.357,1.575-0.357,2.226
		c0,0.609-0.021,0.777-0.063,0.903c-0.084,0.231-0.273,0.357-0.504,0.357c-0.357,0-0.672-0.294-0.903-0.861
		c-0.462-1.092-0.735-2.793-0.735-4.473c0-0.63,0.063-1.407,0.168-2.247c0.147-1.218,0.147-1.218,0.735-3.969
		c0.21-0.987,0.294-1.512,0.294-1.953c0-0.693-0.168-1.218-0.588-1.974c0.462,0.021,0.84,0.294,1.407,1.029
		c0.525,0.651,0.777,1.197,0.777,1.659c0,0.336-0.021,0.42-0.441,1.26c-0.42,0.882-0.924,2.352-1.134,3.339
		c-0.189,0.798-0.273,1.701-0.273,2.604c0,1.155,0.105,1.89,0.399,2.772c0.357-0.735,0.525-1.155,0.756-1.785l1.113-2.94
		L50.34,133.442z M52.986,134.492c-0.042,0.42-0.063,0.609-0.063,0.882c0,2.31,1.323,3.255,4.578,3.255
		c0.609,0,1.218-0.042,1.785-0.147c0.441-0.063,0.441-0.063,1.113-0.336c0.126-0.042,0.231-0.063,0.315-0.063
		c0.546,0,1.323,0.735,1.323,1.239c0,0.252-0.168,0.42-0.462,0.525c-0.441,0.147-1.449,0.231-2.625,0.231
		c-2.625,0-4.494-0.441-5.439-1.281c-0.756-0.693-1.134-1.575-1.134-2.73c0-0.525,0.063-0.987,0.252-1.659L52.986,134.492z
		 M52.944,127.814c0.735,0.441,1.197,0.567,1.953,0.567c1.302,0,3.339-0.462,4.221-0.945c0.273-0.147,0.315-0.168,0.462-0.168
		c0.168,0,0.441,0.105,0.735,0.294c0.441,0.252,0.651,0.504,0.651,0.777s-0.147,0.399-0.588,0.483
		c-1.386,0.21-2.163,0.399-2.982,0.735c-0.651,0.273-1.869,0.945-2.709,1.491l-0.21-0.21c0.945-0.798,1.659-1.386,1.995-1.638
		c-0.441,0.021-0.672,0.042-0.861,0.042c-1.176,0-1.953-0.315-2.856-1.176L52.944,127.814z"/>
	<path d="M71.403,133.442c-0.378,1.323-0.966,3.612-1.218,4.641c-0.21,0.924-0.273,1.26-0.273,1.785
		c-0.021,0.672-0.042,0.756-0.147,0.924c-0.105,0.147-0.231,0.231-0.399,0.231c-0.357,0-0.651-0.294-0.903-0.945
		c-0.42-1.071-0.672-2.667-0.672-4.221c0-1.932,0.231-3.696,0.945-6.993c0.273-1.302,0.315-1.533,0.315-1.89
		c0-0.63-0.168-1.134-0.609-1.848c0.483,0.021,0.882,0.294,1.47,1.05c0.483,0.609,0.756,1.197,0.756,1.596
		c0,0.231,0,0.231-0.336,0.924c-1.008,2.1-1.596,4.599-1.596,6.846c0,1.071,0.084,1.743,0.336,2.604l0.882-2.1l1.134-2.709
		L71.403,133.442z M73.503,129.642c1.008,0.651,1.659,0.861,2.709,0.861c0.735,0,1.533-0.105,2.394-0.294c0-0.399,0-0.735,0-0.924
		c0-2.352-0.021-2.625-0.294-2.919c-0.252-0.273-0.714-0.42-1.386-0.483c0.294-0.273,0.462-0.336,1.008-0.336
		c0.462,0,1.029,0.084,1.428,0.189c0.609,0.189,0.924,0.441,0.924,0.756c0,0.147,0,0.168-0.189,0.651
		c-0.231,0.609-0.357,1.365-0.441,2.814c0.966-0.273,1.575-0.546,1.932-0.861c0.21-0.21,0.273-0.231,0.462-0.231
		c0.252,0,0.735,0.126,0.987,0.273c0.168,0.084,0.273,0.231,0.273,0.378c0,0.462-1.533,1.092-3.717,1.512
		c0,2.793,0.063,3.948,0.273,5.712c2.436,0.651,3.465,1.47,3.465,2.688c0,0.441-0.189,0.777-0.42,0.777
		c-0.168,0-0.315-0.105-0.735-0.525c-0.924-0.945-1.449-1.323-2.268-1.68c0.021,0.189,0.021,0.357,0.021,0.504
		c0,1.512-1.26,2.415-3.36,2.415c-1.827,0-3.108-0.882-3.108-2.142c0-1.449,1.554-2.373,3.948-2.373
		c0.399,0,0.693,0.021,1.281,0.063c0-0.189,0-0.315,0-0.357l-0.042-2.247l-0.021-2.688c-0.63,0.126-1.239,0.168-1.848,0.168
		c-1.533,0-2.415-0.378-3.465-1.47L73.503,129.642z M76.716,137.307c-1.659,0-2.688,0.546-2.688,1.47
		c0,0.735,0.819,1.239,2.058,1.239c1.155,0,1.974-0.336,2.31-0.987c0.21-0.378,0.273-0.693,0.273-1.47
		C78.082,137.391,77.494,137.307,76.716,137.307z"/>
	<path d="M90.64,133.19c0,0.798-0.63,1.428-1.428,1.428c-0.777,0-1.428-0.651-1.428-1.428s0.651-1.428,1.428-1.428
		C90.01,131.763,90.64,132.393,90.64,133.19z M97.632,133.19c0,0.798-0.63,1.428-1.428,1.428c-0.777,0-1.428-0.651-1.428-1.428
		s0.651-1.428,1.428-1.428C97.002,131.763,97.632,132.393,97.632,133.19z M104.646,133.19c0,0.798-0.63,1.428-1.428,1.428
		c-0.777,0-1.428-0.651-1.428-1.428s0.651-1.428,1.428-1.428C104.017,131.763,104.646,132.393,104.646,133.19z"/>
	<path d="M111.64,133.19c0,0.798-0.63,1.428-1.428,1.428c-0.777,0-1.428-0.651-1.428-1.428s0.651-1.428,1.428-1.428
		C111.01,131.763,111.64,132.393,111.64,133.19z M118.632,133.19c0,0.798-0.63,1.428-1.428,1.428c-0.777,0-1.428-0.651-1.428-1.428
		s0.651-1.428,1.428-1.428C118.002,131.763,118.632,132.393,118.632,133.19z M125.646,133.19c0,0.798-0.63,1.428-1.428,1.428
		c-0.777,0-1.428-0.651-1.428-1.428s0.651-1.428,1.428-1.428C125.017,131.763,125.646,132.393,125.646,133.19z"/>
</g>
<rect x="0.25" y="42.25" fill="none" stroke="#008CD6" stroke-width="0.5" width="84" height="21"/>
<polyline fill="none" stroke="#008CD6" stroke-width="0.5" points="16.125,42.25 16.125,31.75 5.625,31.75 5.625,42.25 "/>
<polyline fill="none" stroke="#008CD6" stroke-width="0.5" points="42.25,42.25 42.25,31.75 21.25,31.75 21.25,42.25 "/>
<line fill="none" stroke="#008CD6" stroke-width="0.5" x1="31.75" y1="31.75" x2="31.75" y2="42.25"/>
<line fill="none" stroke="#008CD6" stroke-width="0.5" stroke-dasharray="2" x1="0.845" y1="21.838" x2="0.845" y2="143.125"/>
<g>
	<path fill="#008CD6" d="M2.934,19.595c-0.552,0-0.888,0.012-1.308,0.036c0.072-0.456,0.096-0.84,0.096-1.428v-6.312
		c0-0.624-0.024-0.996-0.096-1.416h1.128c-0.072,0.444-0.096,0.756-0.096,1.416v6.852h3.78c0.6,0,0.924-0.024,1.392-0.084v1.02
		c-0.384-0.06-0.72-0.084-1.392-0.084H2.934z"/>
	<path fill="#008CD6" d="M9.93,10.475v1.068H8.766v-1.068H9.93z M9.882,13.127c-0.06,0.42-0.084,0.756-0.084,1.356v3.756
		c0,0.552,0.024,0.888,0.084,1.356h-1.08c0.06-0.516,0.084-0.852,0.084-1.356v-3.756c0-0.576-0.024-0.936-0.084-1.356H9.882z"/>
	<path fill="#008CD6" d="M11.634,19.595c0.072-0.456,0.096-0.78,0.096-1.356v-3.756c0-0.54-0.024-0.876-0.096-1.356h0.996v0.816
		c0,0.144,0,0.24-0.036,0.516c0.564-0.984,1.344-1.452,2.424-1.452c0.864,0,1.536,0.312,1.92,0.9
		c0.228,0.348,0.336,0.792,0.336,1.38v2.964c0,0.612,0.024,0.948,0.084,1.344h-1.08c0.06-0.468,0.084-0.828,0.084-1.356v-2.796
		c0-1.08-0.516-1.656-1.464-1.656c-0.672,0-1.212,0.3-1.716,0.948c-0.312,0.408-0.456,0.708-0.552,1.188v2.316
		c0,0.528,0.024,0.888,0.084,1.356H11.634z"/>
	<path fill="#008CD6" d="M19.662,16.499c0.036,0.804,0.156,1.248,0.48,1.68c0.384,0.528,0.972,0.816,1.692,0.816
		c0.972,0,1.644-0.48,1.98-1.404l0.84,0.336c-0.228,0.504-0.384,0.72-0.66,0.996c-0.564,0.552-1.296,0.84-2.172,0.84
		c-1.884,0-3.072-1.32-3.072-3.396c0-2.052,1.176-3.396,2.976-3.396c1.548,0,2.664,0.996,2.904,2.604
		c0.012,0.132,0.06,0.6,0.084,0.924H19.662z M23.754,15.743c-0.072-0.672-0.252-1.104-0.636-1.476c-0.372-0.36-0.84-0.54-1.416-0.54
		c-0.732,0-1.344,0.372-1.704,1.044c-0.168,0.3-0.228,0.516-0.3,0.972H23.754z"/>
	<path fill="#008CD6" d="M30.738,17.675c0.084,0.444,0.18,0.66,0.42,0.876c0.3,0.276,0.78,0.42,1.392,0.42
		c1.044,0,1.704-0.444,1.704-1.152c0-0.336-0.12-0.588-0.372-0.744c-0.288-0.18-0.528-0.252-1.416-0.432
		c-0.96-0.204-1.368-0.348-1.776-0.624c-0.42-0.288-0.648-0.732-0.648-1.26c0-0.432,0.18-0.84,0.516-1.164
		c0.42-0.408,1.068-0.624,1.872-0.624c0.816,0,1.452,0.192,1.884,0.576c0.312,0.264,0.48,0.54,0.636,1.092l-0.948,0.156
		c-0.072-0.324-0.132-0.468-0.3-0.636c-0.276-0.3-0.708-0.456-1.248-0.456c-0.876,0-1.5,0.444-1.5,1.08
		c0,0.276,0.144,0.516,0.408,0.66c0.276,0.156,0.588,0.252,1.332,0.408c1.164,0.264,1.548,0.408,1.908,0.684
		c0.372,0.3,0.576,0.756,0.576,1.248c0,1.2-1.02,1.944-2.664,1.944c-1.092,0-1.932-0.324-2.376-0.936
		c-0.18-0.252-0.264-0.456-0.384-0.948L30.738,17.675z"/>
	<path fill="#008CD6" d="M38.382,11.339c-0.06,0.384-0.084,0.816-0.084,1.332v0.456h0.576c0.552,0,0.804-0.012,1.224-0.072v0.912
		c-0.384-0.06-0.684-0.072-1.224-0.072h-0.576v4.176c0,0.348,0.048,0.528,0.156,0.636c0.132,0.132,0.336,0.204,0.588,0.204
		c0.312,0,0.552-0.072,0.948-0.312l0.264,0.84c-0.492,0.204-0.864,0.276-1.356,0.276c-0.528,0-0.936-0.132-1.176-0.372
		c-0.24-0.24-0.336-0.588-0.336-1.152v-4.296h-0.48c-0.408,0-0.684,0.024-1.08,0.072v-0.912c0.336,0.06,0.576,0.072,1.08,0.072h0.48
		v-0.456c0-0.48-0.024-0.936-0.084-1.332H38.382z"/>
	<path fill="#008CD6" d="M45.522,18.743c-0.468,0.42-0.696,0.576-1.104,0.732c-0.408,0.156-0.84,0.24-1.248,0.24
		c-1.32,0-2.124-0.684-2.124-1.824c0-0.96,0.6-1.656,1.716-1.968c0.708-0.204,1.284-0.276,2.76-0.312v-0.696
		c0-0.816-0.516-1.236-1.512-1.236c-0.66,0-1.152,0.168-1.488,0.516c-0.156,0.168-0.252,0.336-0.372,0.696l-0.936-0.204
		c0.216-0.552,0.372-0.804,0.672-1.068c0.492-0.456,1.212-0.684,2.112-0.684c1.584,0,2.4,0.672,2.4,1.968v3.372
		c0,0.54,0.024,0.84,0.096,1.32h-0.972V18.743z M45.522,16.319c-1.428,0.036-2.112,0.12-2.652,0.348
		c-0.612,0.252-0.912,0.66-0.912,1.236c0,0.66,0.492,1.08,1.272,1.08c0.696,0,1.452-0.336,1.92-0.852
		c0.276-0.3,0.372-0.552,0.372-1.032V16.319z"/>
	<path fill="#008CD6" d="M52.038,14.051c-0.456-0.144-0.672-0.18-0.972-0.18c-0.612,0-1.116,0.252-1.476,0.732
		c-0.288,0.372-0.396,0.66-0.444,1.2v2.448c0,0.54,0.024,0.876,0.084,1.344h-1.08c0.06-0.552,0.084-0.864,0.084-1.356v-3.756
		c0-0.6-0.024-0.924-0.084-1.356h0.996v0.684c0,0.096,0,0.276-0.012,0.36c0.228-0.372,0.408-0.564,0.66-0.732
		c0.456-0.3,0.864-0.42,1.44-0.42c0.36,0,0.564,0.024,1.068,0.108L52.038,14.051z"/>
	<path fill="#008CD6" d="M55.146,11.339c-0.06,0.384-0.084,0.816-0.084,1.332v0.456h0.576c0.552,0,0.804-0.012,1.224-0.072v0.912
		c-0.384-0.06-0.684-0.072-1.224-0.072h-0.576v4.176c0,0.348,0.048,0.528,0.156,0.636c0.132,0.132,0.336,0.204,0.588,0.204
		c0.312,0,0.552-0.072,0.948-0.312l0.264,0.84c-0.492,0.204-0.864,0.276-1.356,0.276c-0.528,0-0.936-0.132-1.176-0.372
		c-0.24-0.24-0.336-0.588-0.336-1.152v-4.296h-0.48c-0.408,0-0.684,0.024-1.08,0.072v-0.912c0.336,0.06,0.576,0.072,1.08,0.072h0.48
		v-0.456c0-0.48-0.024-0.936-0.084-1.332H55.146z"/>
</g>
<line fill="none" stroke="#008CD6" stroke-width="0.5" x1="21.25" y1="63.25" x2="21.25" y2="42.25"/>
<line fill="none" stroke="#008CD6" stroke-width="0.5" x1="42.25" y1="63.25" x2="42.25" y2="42.25"/>
<line fill="none" stroke="#008CD6" stroke-width="0.5" x1="63.25" y1="63.25" x2="63.25" y2="42.25"/>
</svg>
