<?xml version="1.0" encoding="utf-8"?>
<!-- Generator: Adobe Illustrator 12.0.0, SVG Export Plug-In . SVG Version: 6.00 Build 51448)  -->
<!DOCTYPE svg PUBLIC "-//W3C//DTD SVG 1.1//EN" "http://www.w3.org/Graphics/SVG/1.1/DTD/svg11.dtd" [
	<!ENTITY ns_svg "http://www.w3.org/2000/svg">
	<!ENTITY ns_xlink "http://www.w3.org/1999/xlink">
]>
<svg  version="1.1" id="レイヤー_1" xmlns="&ns_svg;" xmlns:xlink="&ns_xlink;" width="116.001" height="93.513"
	 viewBox="0 0 116.001 93.513" overflow="visible" enable-background="new 0 0 116.001 93.513" xml:space="preserve">
<g>
	<path d="M24.167,9.859c1.649-1.407,2.552-2.457,3.465-4.021c0.683-1.176,1.25-2.447,1.25-2.804c0-0.105-0.053-0.137-0.21-0.137
		c-0.2,0-1.176,0.179-1.943,0.357c-0.787,0.178-1.459,0.388-1.921,0.588c-0.157,0.073-0.283,0.105-0.388,0.105
		c-0.21,0-0.494-0.21-0.746-0.567c-0.179-0.242-0.273-0.473-0.273-0.651c0-0.073,0.01-0.115,0.073-0.22
		c0.168,0.399,0.525,0.609,0.987,0.609c0.346,0,1.208-0.126,2.982-0.431c0.924-0.157,0.998-0.178,1.218-0.294
		c0.126-0.073,0.126-0.073,0.21-0.073c0.158,0,0.452,0.189,0.767,0.483c0.221,0.221,0.326,0.378,0.326,0.504
		c0,0.105-0.021,0.147-0.147,0.284c-0.137,0.147-0.179,0.21-0.357,0.577c-0.85,1.712-1.921,3.203-3.034,4.253
		c-0.662,0.609-1.281,1.06-2.163,1.564L24.167,9.859z"/>
	<path d="M32.914,8.756c0.672-0.42,1.292-0.924,1.995-1.596c1.05-0.998,1.827-1.921,2.573-3.077c-1.26,0.2-2.006,0.368-2.594,0.609
		c-0.168,0.063-0.241,0.084-0.336,0.084c-0.231,0-0.525-0.21-0.798-0.567c-0.189-0.241-0.305-0.472-0.305-0.588
		c0-0.042,0.011-0.073,0.042-0.126c0.336,0.389,0.651,0.557,1.082,0.557s2.194-0.221,3.308-0.41
		c-0.011-0.924-0.063-1.396-0.158-1.575c-0.115-0.221-0.431-0.41-0.798-0.483c0.084-0.105,0.126-0.115,0.346-0.115
		c0.326,0,0.851,0.126,1.166,0.294c0.231,0.116,0.305,0.2,0.305,0.378c0,0.074-0.011,0.126-0.063,0.231
		c-0.137,0.315-0.2,0.683-0.21,1.187c0.872-0.126,1.145-0.189,1.585-0.378c0.115-0.042,0.147-0.052,0.221-0.052
		c0.314,0,0.924,0.388,0.924,0.588c0,0.136-0.095,0.189-0.357,0.189c-0.063,0-0.178,0-0.367-0.011
		c-0.252-0.01-0.451-0.021-0.577-0.021c-0.336,0-0.662,0.021-1.439,0.095c0,0.136-0.01,0.262-0.01,0.325
		c0,0.914,0.063,2.1,0.168,3.392c0.042,0.515,0.063,0.903,0.063,1.134c0,0.567-0.273,1.113-0.546,1.113
		c-0.126,0-0.231-0.073-0.294-0.22c-0.084-0.221-0.168-0.336-0.378-0.504c-0.252-0.199-0.252-0.199-1.47-0.872L36.043,8.2
		c0.955,0.294,1.449,0.431,1.921,0.546c0.01-0.21,0.021-0.725,0.021-1.302c0-0.263,0-0.588-0.011-0.987
		c-0.021-0.682-0.031-1.155-0.031-1.396c0-0.094,0-0.252,0.01-0.451c-0.451,0.703-0.84,1.166-1.638,1.942
		c-1.113,1.071-2.394,1.974-3.318,2.341L32.914,8.756z"/>
	<path d="M43.96,5.134c0.263,0.199,0.462,0.252,1.019,0.252c0.115,0,0.115,0,1.292-0.032c0.409-0.01,3.748-0.063,4.095-0.063
		c0.945,0,1.176,0.021,1.365,0.095c0.104,0.052,0.146,0.115,0.146,0.21c0,0.126-0.095,0.242-0.241,0.284
		c-0.283,0.094-0.535,0.105-2.521,0.126c-0.976,0.01-3.381,0.073-3.748,0.094c-0.493,0.032-0.588,0.042-0.756,0.137
		c-0.042,0.01-0.115,0.031-0.157,0.031c-0.158,0-0.326-0.115-0.504-0.346c-0.221-0.273-0.399-0.714-0.399-0.966
		c0-0.147,0.011-0.168,0.084-0.241C43.761,4.955,43.813,5.029,43.96,5.134z"/>
	<path d="M54.765,6.068c0.777-0.651,1.47-1.47,2.205-2.573c0.431-0.651,0.693-1.187,0.693-1.417c0-0.136-0.042-0.22-0.2-0.357
		c-0.136-0.116-0.136-0.116-0.252-0.189c-0.115-0.053-0.115-0.053-0.188-0.095c0.095-0.052,0.137-0.063,0.199-0.063
		c0.231,0,0.577,0.116,0.861,0.284c0.336,0.189,0.493,0.368,0.493,0.536c0,0.126-0.011,0.136-0.567,0.956
		c0.137,0.031,0.2,0.042,0.273,0.042c0.21,0,0.725-0.084,1.26-0.21c0.431-0.105,0.609-0.168,0.83-0.284
		c0.084-0.053,0.115-0.063,0.178-0.063c0.252,0,0.851,0.546,0.851,0.777c0,0.095-0.031,0.147-0.157,0.263
		c-0.179,0.157-0.23,0.241-0.504,0.746c-0.924,1.732-1.816,2.877-3.098,3.948c-0.903,0.767-1.69,1.26-2.604,1.638l-0.074-0.147
		c0.841-0.515,1.471-1.029,2.321-1.88c1.271-1.26,2.257-2.688,2.866-4.158c0.104-0.231,0.168-0.452,0.168-0.536
		c0-0.042-0.031-0.073-0.095-0.073c-0.157,0-0.819,0.168-1.333,0.336c-0.189,0.063-0.252,0.073-0.347,0.073
		c-0.221,0-0.441-0.105-0.651-0.304c-0.809,1.155-1.879,2.173-3.023,2.877L54.765,6.068z"/>
	<path d="M66.588,10.027C67.28,9.25,67.722,8.525,68.1,7.549c0.294-0.767,0.504-1.648,0.504-2.142c0-0.252-0.063-0.368-0.263-0.515
		c-0.682,0.074-1.837,0.399-2.331,0.662c-0.178,0.084-0.22,0.105-0.336,0.105c-0.22,0-0.535-0.221-0.818-0.599
		c-0.105-0.136-0.21-0.367-0.21-0.462c0-0.052,0.01-0.084,0.042-0.199c0.252,0.357,0.504,0.504,0.882,0.504
		c0.283,0,0.347-0.011,1.795-0.263c0.641-0.105,1.827-0.252,3.234-0.389c0.21-0.021,0.599-0.105,0.819-0.178
		c0.168-0.053,0.168-0.053,0.263-0.053c0.146,0,0.346,0.053,0.556,0.158c0.284,0.136,0.494,0.336,0.494,0.483
		c0,0.126-0.116,0.21-0.294,0.21c-0.084,0-0.116,0-0.263-0.031c-0.42-0.084-1.113-0.137-1.69-0.137
		c-0.641,0-1.197,0.032-1.723,0.105c0.483,0.273,0.683,0.483,0.683,0.725c0,0.399-0.294,1.302-0.661,2.058
		c-0.577,1.187-1.103,1.827-2.079,2.562L66.588,10.027z M66.389,1.921c0.44,0.42,0.766,0.567,1.249,0.567
		c0.703,0,1.638-0.221,2.216-0.515c0.115-0.063,0.21-0.084,0.314-0.084c0.273,0,0.714,0.347,0.714,0.557
		c0,0.126-0.126,0.189-0.546,0.283c-0.683,0.137-1.848,0.273-2.394,0.273c-0.788,0-1.197-0.231-1.701-0.976L66.389,1.921z"/>
	<path d="M74.967,7.213c1.313-0.704,2.72-1.764,3.948-2.982c1.039-1.018,1.711-1.869,1.711-2.173c0-0.199-0.168-0.368-0.588-0.599
		c0.115-0.042,0.137-0.042,0.21-0.042c0.305,0,0.567,0.095,0.903,0.315c0.356,0.241,0.546,0.483,0.546,0.682
		c0,0.095-0.011,0.116-0.42,0.462c-0.105,0.084-0.105,0.084-0.851,0.798c-0.735,0.704-0.798,0.756-1.25,1.134
		c0.41,0.305,0.589,0.462,0.641,0.588c0.042,0.105,0.063,0.599,0.074,1.543c0.01,0.735,0.031,1.407,0.052,2.006
		c0,0.231,0.011,0.535,0.011,0.598c0,0.368-0.073,0.525-0.241,0.525c-0.241,0-0.714-0.578-0.714-0.882c0-0.073,0-0.073,0.063-0.273
		c0.095-0.262,0.189-1.564,0.189-2.583c0-0.514-0.021-0.83-0.063-0.998c-0.031-0.105-0.073-0.157-0.23-0.325
		c-0.735,0.588-1.491,1.124-2.017,1.438c-0.588,0.346-1.344,0.714-1.89,0.914L74.967,7.213z"/>
	<path d="M85.394,9.271c0.577-0.535,0.997-1.145,1.406-1.995c0.399-0.83,0.725-2.121,0.725-2.846c0-0.41-0.178-0.62-0.714-0.819
		c0.115-0.074,0.168-0.095,0.283-0.095c0.231,0,0.483,0.084,0.788,0.263c0.389,0.231,0.566,0.409,0.566,0.577
		c0,0.084-0.021,0.168-0.136,0.483c-0.011,0.042-0.011,0.042-0.105,0.367c-0.336,1.103-0.431,1.365-0.714,1.932
		c-0.504,0.998-1.092,1.669-1.984,2.247L85.394,9.271z M94.36,5.081c-0.325,0.557-0.599,0.903-1.145,1.48
		c-0.609,0.651-1.575,1.491-2.227,1.922c-0.199,0.136-0.504,0.378-0.598,0.472c-0.084,0.084-0.137,0.116-0.21,0.116
		c-0.242,0-0.631-0.546-0.631-0.872c0-0.021,0.021-0.126,0.074-0.326c0.063-0.241,0.094-1.176,0.094-2.845
		c0-2.384-0.042-2.52-0.808-2.688c0.104-0.126,0.178-0.158,0.336-0.158c0.252,0,0.577,0.116,0.924,0.326
		c0.305,0.189,0.431,0.336,0.431,0.483c0,0.053-0.011,0.095-0.084,0.284c-0.053,0.136-0.105,0.493-0.147,1.029
		c-0.042,0.441-0.137,2.761-0.137,3.161c0,0.136,0,0.252,0.021,0.483c1.218-0.473,2.762-1.638,3.969-2.972L94.36,5.081z"/>
	<path d="M10.78,29c2.268-0.672,3.717-1.533,4.914-2.919c1.239-1.407,1.869-3.129,1.869-5.061c0-2.037-0.819-3.654-2.373-4.641
		c-0.924-0.609-2.31-0.966-3.633-0.966c-0.252,0-0.399,0-0.735,0.042c0.504,0.735,0.651,1.134,0.651,1.743
		c0,1.638-1.176,4.704-2.772,7.266c-1.323,2.1-2.352,3.129-3.129,3.129c-0.357,0-0.693-0.168-0.924-0.441
		C4.458,26.9,4.417,26.816,4.06,25.809c-0.189-0.546-0.315-0.798-0.924-1.974c-0.336-0.672-0.483-1.239-0.483-1.911
		c0-1.323,0.714-2.877,1.89-4.158c1.701-1.806,4.473-2.94,7.224-2.94c2.121,0,4.074,0.693,5.418,1.932
		c1.344,1.239,2.016,2.898,2.016,4.935c0,2.625-1.533,4.956-4.179,6.363c-1.218,0.651-2.31,0.987-4.095,1.302L10.78,29z
		 M3.871,22.469c0,1.008,0.315,2.037,0.84,2.772c0.294,0.378,0.567,0.609,0.798,0.609c0.462,0,1.47-1.134,2.499-2.772
		c1.554-2.478,2.667-5.187,2.667-6.489c0-0.315-0.063-0.525-0.294-1.05C6.727,16.19,3.871,19.235,3.871,22.469z"/>
	<path d="M36.105,13.796c0-0.756-0.021-1.134-0.105-1.974c2.373,0.252,2.457,0.273,2.457,0.504c0,0.147-0.084,0.189-0.903,0.441
		v2.394h4.158v-1.26c0-1.008-0.021-1.281-0.084-1.995c2.184,0.252,2.352,0.294,2.352,0.504c0,0.147-0.104,0.21-0.84,0.462v2.289
		h2.31c0.483-0.63,0.651-0.798,1.177-1.386c0.818,0.651,1.07,0.84,1.89,1.533c0.042,0.063,0.084,0.147,0.084,0.21
		c0,0.084-0.084,0.126-0.23,0.126h-5.229v3.822h3.087c0.525-0.651,0.714-0.84,1.26-1.449c0.861,0.672,1.113,0.882,1.891,1.617
		c0.063,0.063,0.104,0.147,0.104,0.189c0,0.063-0.084,0.126-0.21,0.126H32.431c-0.651,0-1.323,0.063-1.806,0.147l-0.126-0.84
		c0.504,0.126,1.26,0.21,1.932,0.21h3.675v-3.822h-2.583c-1.365,0.042-1.365,0.042-1.785,0.147l-0.126-0.819
		c0.609,0.126,1.239,0.189,1.911,0.189h2.583V13.796z M35.707,30.533c0,0.294-0.231,0.378-1.071,0.378
		c-0.294,0-0.378-0.063-0.378-0.273c0.063-1.617,0.063-2.268,0.063-3.906c0-3.507-0.021-4.536-0.084-5.649
		c0.756,0.42,0.987,0.546,1.659,1.029h7.455c0.378-0.42,0.483-0.525,0.882-0.924c0.567,0.42,0.735,0.546,1.261,0.966
		c0.146,0.147,0.21,0.231,0.21,0.315c0,0.147-0.189,0.294-0.693,0.546c0,4.83,0,4.872,0.104,7.413c0,0.021,0,0.042,0,0.042
		c0,0.273-0.252,0.357-1.112,0.357c-0.315,0-0.399-0.063-0.399-0.294v-0.987h-7.896V30.533z M43.603,22.595h-7.896v2.856h7.896
		V22.595z M35.707,25.935v3.129h7.896v-3.129H35.707z M37.555,15.645v3.822h4.158v-3.822H37.555z"/>
	<path d="M67.019,15.729c0.44,0.105,1.322,0.21,1.722,0.21h3.78c0.504-0.546,0.65-0.714,1.176-1.218
		c0.693,0.588,0.903,0.777,1.512,1.386c0.063,0.084,0.105,0.126,0.105,0.168c0,0.084-0.084,0.147-0.21,0.147h-6.427
		c-0.314,0-0.588,0.021-1.49,0.105L67.019,15.729z M67.858,18.689c0.462,0.105,1.113,0.189,1.533,0.189h2.625
		c0.42-0.546,0.566-0.714,1.05-1.239c0.714,0.609,0.902,0.798,1.512,1.407c0.063,0.084,0.084,0.147,0.084,0.189
		c0,0.084-0.084,0.126-0.252,0.126H69.35c-0.483,0-0.735,0.021-1.303,0.105L67.858,18.689z M67.9,13.041
		c0.524,0.084,1.302,0.168,1.68,0.168h2.353c0.482-0.567,0.65-0.735,1.154-1.218c0.735,0.567,0.966,0.756,1.639,1.386
		c0.063,0.084,0.104,0.126,0.104,0.189s-0.104,0.126-0.252,0.126H69.56c-0.126,0-0.462,0.021-0.925,0.063
		c-0.146,0-0.336,0.021-0.588,0.021L67.9,13.041z M67.921,21.419c0.756,0.147,1.135,0.189,1.513,0.189h2.646
		c0.441-0.525,0.588-0.672,1.071-1.176c0.65,0.567,0.86,0.735,1.47,1.323c0.063,0.084,0.105,0.147,0.105,0.189
		c0,0.105-0.084,0.147-0.315,0.147h-4.977c-0.336,0-0.651,0.021-1.345,0.084L67.921,21.419z M69.454,30.68
		c-0.021,0.147-0.063,0.21-0.188,0.252c-0.126,0.063-0.567,0.105-0.903,0.105c-0.189,0-0.273-0.063-0.294-0.231
		c0.042-1.491,0.042-2.226,0.042-3.507c0-1.134,0-1.134-0.042-3.717c0.504,0.315,1.008,0.609,1.47,0.903h2.814
		c0.356-0.357,0.462-0.483,0.818-0.882c0.504,0.378,0.651,0.504,1.093,0.882c0.168,0.168,0.21,0.252,0.21,0.315
		c0,0.126-0.168,0.273-0.631,0.525c0,3.465,0,3.465,0.042,4.956c0,0.357-0.252,0.441-1.092,0.441c-0.188,0-0.252-0.042-0.272-0.21
		v-0.714h-3.066V30.68z M69.434,29.315h3.087v-4.347h-3.087V29.315z M81.13,23.604h2.205l0.945-0.987
		c0.609,0.441,0.777,0.567,1.302,0.987c0.168,0.147,0.21,0.21,0.21,0.294c0,0.189-0.188,0.336-0.734,0.588
		c0,3.612,0.021,4.368,0.063,5.943c0,0.399-0.21,0.504-1.029,0.504c-0.314,0-0.42-0.063-0.462-0.315v-0.819h-6.216v0.882
		c0,0.336-0.23,0.462-0.861,0.462c-0.378,0-0.504-0.063-0.524-0.294c0.042-1.701,0.042-2.499,0.042-3.675
		c0-1.155,0-1.554-0.042-4.473c0.714,0.357,0.924,0.462,1.575,0.903h2.1v-4.242h-2.793c-0.609,0-0.819,0.021-1.764,0.126
		l-0.168-0.798c0.798,0.147,1.28,0.189,1.932,0.189h2.793v-4.116c-1.743,0.336-2.625,0.462-4.536,0.63l-0.084-0.273
		c3.066-0.756,4.726-1.26,6.237-1.911c1.155-0.483,1.617-0.756,2.31-1.302c0.42,0.252,0.756,0.441,0.987,0.567
		c0.693,0.399,1.008,0.651,1.008,0.798c0,0.105-0.168,0.21-0.356,0.21c-0.105,0-0.189-0.021-0.841-0.105
		c-1.28,0.546-1.826,0.714-3.297,1.071v4.431h2.143c0.608-0.693,0.798-0.882,1.428-1.512c0.84,0.693,1.092,0.903,1.848,1.617
		c0.063,0.084,0.105,0.168,0.105,0.231s-0.105,0.147-0.21,0.147H81.13V23.604z M77.413,29.315h6.216v-5.229h-6.216V29.315z"/>
	<path d="M98.225,15.582c1.008,0.798,1.49,0.987,2.625,0.987c0.672,0,1.28-0.084,2.247-0.273c0.462-0.903,0.734-1.68,0.734-2.142
		c0-0.567-0.398-0.903-1.491-1.176c0.357-0.189,0.546-0.231,0.945-0.231c0.483,0,1.092,0.126,1.638,0.357
		c0.525,0.21,0.756,0.441,0.756,0.693c0,0.147-0.084,0.294-0.336,0.609c-0.188,0.252-0.44,0.63-0.608,0.861
		c-0.378,0.609-0.378,0.609-0.525,0.819c1.765-0.504,2.331-0.756,3.024-1.344c0.126-0.105,0.252-0.147,0.398-0.147
		c0.819,0,1.407,0.294,1.407,0.693c0,0.252-0.272,0.462-0.903,0.672c-1.868,0.609-2.877,0.861-4.577,1.197
		c-0.378,0.525-0.631,0.903-1.113,1.638c-0.567,0.882-0.735,1.113-1.134,1.68c1.176-0.609,1.911-0.84,2.709-0.84
		c1.238,0,2.163,0.84,2.352,2.1c0.357-0.168,0.357-0.168,2.059-1.029c2.078-1.05,2.582-1.386,2.582-1.764
		c0-0.357-0.356-0.735-0.966-0.987c0.231-0.105,0.336-0.126,0.483-0.126c0.924,0,2.373,1.281,2.373,2.121
		c0,0.378-0.168,0.525-0.756,0.651c-1.261,0.294-3.99,1.344-5.628,2.163c0.021,0.672,0.021,0.798,0.021,1.701
		c0,0.945-0.063,1.596-0.168,1.806c-0.104,0.231-0.336,0.399-0.588,0.399c-0.399,0-0.672-0.273-0.672-0.63
		c0-0.105,0-0.21,0.021-0.357c0.084-0.609,0.126-1.323,0.147-2.247c-1.302,0.714-1.911,1.134-2.457,1.659
		c-0.693,0.672-1.029,1.323-1.029,1.953c0,1.134,1.155,1.68,3.507,1.68c1.471,0,2.94-0.21,4.222-0.588
		c0.146-0.042,0.294-0.063,0.398-0.063c0.651,0,1.471,0.588,1.471,1.05c0,0.273-0.231,0.483-0.651,0.567
		c-0.861,0.168-2.457,0.294-3.759,0.294c-1.975,0-3.423-0.21-4.264-0.609c-1.07-0.504-1.554-1.197-1.554-2.226
		c0-0.987,0.483-1.89,1.512-2.877c0.547-0.525,1.219-1.008,2.604-1.869c-0.021-0.882-0.084-1.218-0.294-1.659
		c-0.189-0.378-0.609-0.63-1.071-0.63c-1.386,0-3.045,1.113-4.557,3.045c-0.399,0.546-0.567,0.672-0.777,0.672
		c-0.336,0-0.566-0.441-0.566-1.113c0-0.441,0.021-0.462,0.608-0.945c1.491-1.176,2.415-2.268,3.906-4.515
		c-0.693,0.105-0.966,0.126-1.407,0.126c-1.428,0-2.163-0.378-3.129-1.617L98.225,15.582z"/>
	<path d="M27.895,34.397c0.525,0.483,0.746,0.588,1.271,0.588c0.221,0,0.599-0.042,0.872-0.095c0.021-0.262,0.021-0.399,0.021-0.704
		c0-0.525-0.031-0.672-0.157-0.829c-0.137-0.158-0.326-0.242-0.651-0.294c0.147-0.136,0.231-0.168,0.452-0.168
		c0.252,0,0.63,0.084,0.935,0.21c0.189,0.074,0.305,0.2,0.305,0.315c0,0.084,0,0.084-0.116,0.294c-0.084,0.178-0.2,0.64-0.263,1.071
		c0.336-0.094,0.609-0.199,0.903-0.368c0.22-0.115,0.241-0.136,0.441-0.325c0.084-0.074,0.157-0.105,0.284-0.105
		c0.294,0,0.598,0.199,0.598,0.388c0,0.126-0.126,0.231-0.462,0.389c-0.525,0.231-1.04,0.399-1.827,0.557
		c-0.042,0.304-0.136,1.281-0.147,1.701c0.105,0.273,0.137,0.42,0.137,0.714c0,0.504-0.116,0.893-0.41,1.302
		c-0.315,0.473-0.451,0.777-0.451,1.04c0,0.452,0.567,0.651,1.816,0.651c0.945,0,1.879-0.168,2.394-0.42
		c0.21-0.105,0.252-0.199,0.252-0.557c0-0.693-0.011-1.155-0.105-3.16c-0.011-0.147-0.011-0.284-0.011-0.441
		c0-0.462,0.042-0.693,0.179-0.861c0.147-0.199,0.357-0.294,0.62-0.294c0.798,0,1.638,0.788,1.638,1.522
		c0,0.284-0.178,0.494-0.431,0.494c-0.084,0-0.147-0.021-0.241-0.074c-0.084-0.042-0.179-0.063-0.315-0.063
		c-0.095,0-0.504,0.084-0.767,0.147l-0.042-0.105c0.788-0.399,1.04-0.556,1.04-0.651c0-0.157-0.189-0.525-0.368-0.714
		c-0.21-0.21-0.441-0.336-0.662-0.336c-0.262,0-0.399,0.22-0.399,0.662c0,0.871,0.179,2.299,0.41,3.234
		c0.073,0.304,0.115,0.43,0.221,0.588c0.147,0.221,0.189,0.336,0.189,0.494c0,0.336-0.347,0.672-0.851,0.829
		c-0.588,0.189-1.543,0.315-2.415,0.315c-1.711,0-2.51-0.399-2.51-1.26c0-0.2,0.032-0.378,0.137-0.704c-0.042,0-0.063,0-0.084,0
		c-0.168,0-0.389-0.094-0.567-0.22c-0.357-0.273-0.567-0.746-0.567-1.292c0-0.851,0.462-1.428,1.123-1.428
		c0.252,0,0.42,0.053,0.641,0.2c0-0.095,0-0.095,0.042-0.63c0-0.126,0.011-0.21,0.021-0.609c-0.262,0.011-0.399,0.021-0.546,0.021
		c-0.819,0-1.197-0.199-1.701-0.914L27.895,34.397z M29.9,37.631c0-0.63-0.231-0.966-0.662-0.966c-0.399,0-0.672,0.389-0.672,0.966
		c0,0.651,0.367,1.155,0.84,1.155c0.158,0,0.305-0.084,0.368-0.231c0.073-0.158,0.126-0.473,0.126-0.798V37.631z"/>
	<path d="M40.505,36.025c-0.734,0.252-1.092,0.388-1.365,0.546c-0.157,0.094-0.22,0.115-0.304,0.115
		c-0.116,0-0.326-0.136-0.462-0.315c-0.189-0.241-0.346-0.609-0.346-0.798c0-0.053,0.021-0.126,0.063-0.231
		c0.22,0.441,0.409,0.578,0.798,0.578c0.231,0,0.956-0.147,1.785-0.368c0.242-0.609,0.431-1.354,0.431-1.722
		c0-0.325-0.199-0.504-0.809-0.703c0.126-0.084,0.189-0.105,0.315-0.105c0.157,0,0.42,0.053,0.703,0.137
		c0.473,0.137,0.735,0.326,0.735,0.546c0,0.084-0.021,0.126-0.147,0.305c-0.146,0.22-0.367,0.693-0.672,1.428
		c0.462-0.105,0.662-0.126,0.914-0.126c0.902,0,1.333,0.536,1.333,1.638c0,1.344-0.535,3.087-1.145,3.77
		c-0.263,0.283-0.672,0.472-1.008,0.472c-0.179,0-0.263-0.073-0.283-0.241c-0.032-0.294-0.053-0.315-1.166-1.229l0.095-0.137
		c0.809,0.462,1.407,0.725,1.628,0.725c0.241,0,0.409-0.22,0.682-0.882c0.368-0.861,0.62-2.026,0.62-2.825
		c0-0.703-0.189-0.956-0.746-0.956c-0.314,0-0.504,0.042-1.103,0.221c-0.146,0.357-0.146,0.357-0.608,1.428
		c-0.042,0.105-0.252,0.598-0.62,1.47c-0.419,0.987-0.766,1.743-0.934,2.037c-0.073,0.136-0.157,0.199-0.252,0.199
		c-0.189,0-0.305-0.273-0.305-0.724c0-0.273,0.032-0.347,0.242-0.588c0.21-0.231,0.473-0.672,0.777-1.239
		c0.399-0.777,0.399-0.777,0.84-1.743L40.505,36.025z M44.601,35.353c0.818,0.242,1.459,0.662,1.921,1.26
		c0.399,0.514,0.599,1.019,0.599,1.491c0,0.357-0.157,0.567-0.42,0.567c-0.084,0-0.137-0.011-0.241-0.074
		c-0.168-0.094-0.231-0.105-0.431-0.105c-0.367,0-0.42,0-1.313,0.095l-0.042-0.147c1.061-0.325,1.281-0.399,1.606-0.535
		c-0.042-0.357-0.137-0.651-0.325-1.008c-0.336-0.64-0.746-1.04-1.438-1.396L44.601,35.353z"/>
	<path d="M56.508,39.29c-1.008,1.365-2.384,2.174-3.686,2.174c-0.798,0-1.418-0.326-1.743-0.893
		c-0.21-0.368-0.294-0.882-0.294-1.774c0-0.578,0.031-1.575,0.084-2.531c0.063-1.134,0.073-1.428,0.073-1.806
		c0-0.903-0.104-1.081-0.851-1.396c0.116-0.084,0.179-0.105,0.294-0.105c0.242,0,0.62,0.095,0.945,0.242
		c0.399,0.189,0.609,0.399,0.609,0.62c0,0.073-0.011,0.136-0.095,0.378c-0.199,0.63-0.546,3.812-0.546,5.04
		c0,0.64,0.126,1.019,0.42,1.26c0.231,0.179,0.567,0.284,0.935,0.284c0.714,0,1.596-0.252,2.394-0.672
		c0.483-0.252,0.788-0.473,1.334-0.935L56.508,39.29z"/>
	<path d="M61.422,37.463c-0.189,0.661-0.483,1.806-0.609,2.32c-0.104,0.462-0.137,0.63-0.137,0.893
		c-0.01,0.336-0.021,0.378-0.073,0.462c-0.053,0.074-0.115,0.116-0.199,0.116c-0.179,0-0.325-0.147-0.451-0.473
		c-0.21-0.536-0.336-1.333-0.336-2.11c0-0.966,0.115-1.848,0.472-3.497c0.137-0.651,0.158-0.767,0.158-0.945
		c0-0.315-0.084-0.567-0.305-0.924c0.241,0.011,0.44,0.147,0.734,0.525c0.242,0.305,0.379,0.599,0.379,0.798
		c0,0.115,0,0.115-0.169,0.462c-0.504,1.05-0.798,2.299-0.798,3.413c0,0.546,0.042,0.882,0.168,1.312l0.441-1.06l0.567-1.344
		L61.422,37.463z M62.472,35.563c0.504,0.326,0.829,0.431,1.354,0.431c0.367,0,0.767-0.052,1.197-0.147c0-0.2,0-0.368,0-0.462
		c0-1.176-0.011-1.313-0.147-1.459c-0.126-0.137-0.356-0.21-0.692-0.242c0.146-0.136,0.23-0.168,0.504-0.168
		c0.23,0,0.515,0.042,0.714,0.095c0.305,0.094,0.462,0.22,0.462,0.378c0,0.073,0,0.084-0.095,0.325
		c-0.115,0.305-0.179,0.683-0.221,1.407c0.483-0.137,0.788-0.273,0.967-0.431c0.104-0.105,0.136-0.115,0.23-0.115
		c0.126,0,0.367,0.063,0.493,0.136c0.084,0.042,0.137,0.116,0.137,0.189c0,0.231-0.767,0.546-1.858,0.756
		c0,1.396,0.031,1.974,0.137,2.856c1.218,0.325,1.732,0.735,1.732,1.344c0,0.221-0.095,0.389-0.21,0.389
		c-0.084,0-0.157-0.053-0.367-0.263c-0.462-0.472-0.725-0.661-1.135-0.84c0.011,0.094,0.011,0.179,0.011,0.252
		c0,0.756-0.63,1.208-1.68,1.208c-0.914,0-1.554-0.441-1.554-1.071c0-0.725,0.776-1.187,1.974-1.187c0.199,0,0.347,0.01,0.641,0.031
		c0-0.094,0-0.157,0-0.178l-0.021-1.124l-0.01-1.344c-0.315,0.053-0.62,0.084-0.925,0.084c-0.767,0-1.207-0.189-1.732-0.735
		L62.472,35.563z M64.078,39.395c-0.829,0-1.344,0.273-1.344,0.735c0,0.367,0.409,0.619,1.029,0.619
		c0.577,0,0.986-0.168,1.154-0.493c0.105-0.189,0.137-0.347,0.137-0.735C64.761,39.437,64.467,39.395,64.078,39.395z M66.104,32.885
		c0.641,0.304,1.061,0.567,1.281,0.798c0.168,0.189,0.221,0.305,0.221,0.546c0,0.126-0.053,0.315-0.116,0.389
		c-0.031,0.042-0.094,0.074-0.136,0.074c-0.063,0-0.116-0.032-0.179-0.105c-0.021-0.032-0.021-0.032-0.252-0.452
		c-0.199-0.378-0.493-0.756-0.903-1.134L66.104,32.885z M67.061,32.339c1.008,0.346,1.554,0.756,1.554,1.145
		c0,0.315-0.105,0.525-0.263,0.525c-0.095,0-0.168-0.063-0.252-0.231c-0.305-0.588-0.609-0.956-1.113-1.333L67.061,32.339z"/>
	<path d="M70.042,34.576c0.504,0.473,0.798,0.609,1.323,0.609c0.273,0,0.557-0.042,0.955-0.126c0.263-0.683,0.378-1.124,0.378-1.491
		c0-0.347-0.168-0.557-0.672-0.809c0.116-0.063,0.168-0.074,0.252-0.074c0.21,0,0.536,0.095,0.841,0.242
		c0.356,0.178,0.493,0.294,0.493,0.441c0,0.084-0.021,0.147-0.105,0.273c-0.042,0.084-0.262,0.515-0.64,1.292
		c0.776-0.273,0.871-0.325,1.165-0.578c0.084-0.073,0.115-0.084,0.221-0.084c0.409,0,0.714,0.137,0.714,0.315
		c0,0.273-0.651,0.535-2.32,0.924c-0.095,0.21-0.273,0.641-0.557,1.271c-0.315,0.725-1.124,2.488-1.218,2.667
		c-0.158,0.283-0.252,0.378-0.378,0.378c-0.179,0-0.326-0.326-0.326-0.746c0-0.21,0.021-0.273,0.116-0.378
		c0.23-0.252,0.356-0.41,0.504-0.63c0.514-0.767,0.893-1.48,1.313-2.468c-0.231,0.032-0.326,0.042-0.494,0.042
		c-0.378,0-0.661-0.063-0.924-0.22c-0.314-0.179-0.557-0.431-0.767-0.767L70.042,34.576z M75.597,35.164
		c0.725,0.063,1.313,0.252,1.796,0.578c0.409,0.263,0.661,0.578,0.661,0.819c0,0.179-0.105,0.305-0.273,0.305
		c-0.084,0-0.146-0.021-0.241-0.084c-0.294-0.179-0.493-0.221-1.029-0.221c-0.84,0-1.103,0.231-1.103,0.956
		c0,0.284,0.053,0.735,0.211,1.806c0.64,0.189,1.186,0.441,1.49,0.683c0.284,0.22,0.42,0.493,0.42,0.829
		c0,0.21-0.084,0.357-0.21,0.357c-0.104,0-0.146-0.031-0.367-0.273c-0.378-0.409-0.725-0.661-1.271-0.924c0,0.084,0,0.158,0,0.2
		c0,0.42-0.084,0.661-0.294,0.892c-0.283,0.284-0.777,0.452-1.365,0.452c-0.944,0-1.596-0.452-1.596-1.113
		c0-0.735,0.798-1.25,1.964-1.25c0.241,0,0.356,0.01,0.63,0.052c-0.032-0.83-0.032-0.914-0.032-1.04
		c0-0.861,0.084-1.187,0.368-1.501c0.21-0.22,0.504-0.367,0.997-0.493c0.157-0.042,0.179-0.053,0.567-0.137
		c-0.284-0.305-0.609-0.473-1.354-0.725L75.597,35.164z M75.029,39.763c-0.325-0.095-0.566-0.126-0.902-0.126
		c-0.893,0-1.438,0.305-1.438,0.798c0,0.389,0.398,0.62,1.05,0.62c0.851,0,1.291-0.347,1.291-1.008V39.763z"/>
	<path d="M88.008,39.29c-1.008,1.365-2.384,2.174-3.686,2.174c-0.798,0-1.418-0.326-1.743-0.893
		c-0.21-0.368-0.294-0.882-0.294-1.774c0-0.578,0.031-1.575,0.084-2.531c0.063-1.134,0.073-1.428,0.073-1.806
		c0-0.903-0.104-1.081-0.851-1.396c0.116-0.084,0.179-0.105,0.294-0.105c0.242,0,0.62,0.095,0.945,0.242
		c0.399,0.189,0.609,0.399,0.609,0.62c0,0.073-0.011,0.136-0.095,0.378c-0.199,0.63-0.546,3.812-0.546,5.04
		c0,0.64,0.126,1.019,0.42,1.26c0.231,0.179,0.567,0.284,0.935,0.284c0.714,0,1.596-0.252,2.394-0.672
		c0.483-0.252,0.788-0.473,1.334-0.935L88.008,39.29z"/>
</g>
<g>
	<path d="M24.167,61.834c1.649-1.407,2.552-2.457,3.465-4.021c0.683-1.176,1.25-2.447,1.25-2.804c0-0.105-0.053-0.137-0.21-0.137
		c-0.2,0-1.176,0.179-1.943,0.357c-0.787,0.178-1.459,0.388-1.921,0.588c-0.157,0.073-0.283,0.105-0.388,0.105
		c-0.21,0-0.494-0.21-0.746-0.567c-0.179-0.242-0.273-0.473-0.273-0.651c0-0.073,0.01-0.115,0.073-0.22
		c0.168,0.399,0.525,0.609,0.987,0.609c0.346,0,1.208-0.126,2.982-0.431c0.924-0.157,0.998-0.178,1.218-0.294
		c0.126-0.073,0.126-0.073,0.21-0.073c0.158,0,0.452,0.189,0.767,0.483c0.221,0.221,0.326,0.378,0.326,0.504
		c0,0.105-0.021,0.147-0.147,0.284c-0.137,0.147-0.179,0.21-0.357,0.577c-0.85,1.712-1.921,3.203-3.034,4.253
		c-0.662,0.609-1.281,1.06-2.163,1.564L24.167,61.834z"/>
	<path d="M32.914,60.732c0.672-0.42,1.292-0.924,1.995-1.596c1.05-0.998,1.827-1.921,2.573-3.077c-1.26,0.2-2.006,0.368-2.594,0.609
		c-0.168,0.063-0.241,0.084-0.336,0.084c-0.231,0-0.525-0.21-0.798-0.567c-0.189-0.241-0.305-0.472-0.305-0.588
		c0-0.042,0.011-0.073,0.042-0.126c0.336,0.389,0.651,0.557,1.082,0.557s2.194-0.221,3.308-0.41
		c-0.011-0.924-0.063-1.396-0.158-1.575c-0.115-0.221-0.431-0.41-0.798-0.483c0.084-0.105,0.126-0.115,0.346-0.115
		c0.326,0,0.851,0.126,1.166,0.294c0.231,0.116,0.305,0.2,0.305,0.378c0,0.074-0.011,0.126-0.063,0.231
		c-0.137,0.315-0.2,0.683-0.21,1.187c0.872-0.126,1.145-0.189,1.585-0.378c0.115-0.042,0.147-0.052,0.221-0.052
		c0.314,0,0.924,0.388,0.924,0.588c0,0.136-0.095,0.189-0.357,0.189c-0.063,0-0.178,0-0.367-0.011
		c-0.252-0.01-0.451-0.021-0.577-0.021c-0.336,0-0.662,0.021-1.439,0.095c0,0.136-0.01,0.262-0.01,0.325
		c0,0.914,0.063,2.1,0.168,3.392c0.042,0.515,0.063,0.903,0.063,1.134c0,0.567-0.273,1.113-0.546,1.113
		c-0.126,0-0.231-0.073-0.294-0.22c-0.084-0.221-0.168-0.336-0.378-0.504c-0.252-0.199-0.252-0.199-1.47-0.872l0.053-0.136
		c0.955,0.294,1.449,0.431,1.921,0.546c0.01-0.21,0.021-0.725,0.021-1.302c0-0.263,0-0.588-0.011-0.987
		c-0.021-0.682-0.031-1.155-0.031-1.396c0-0.094,0-0.252,0.01-0.451c-0.451,0.703-0.84,1.166-1.638,1.942
		c-1.113,1.071-2.394,1.974-3.318,2.341L32.914,60.732z"/>
	<path d="M43.96,57.109c0.263,0.199,0.462,0.252,1.019,0.252c0.115,0,0.115,0,1.292-0.032c0.409-0.01,3.748-0.063,4.095-0.063
		c0.945,0,1.176,0.021,1.365,0.095c0.104,0.052,0.146,0.115,0.146,0.21c0,0.126-0.095,0.242-0.241,0.284
		c-0.283,0.094-0.535,0.105-2.521,0.126c-0.976,0.01-3.381,0.073-3.748,0.094c-0.493,0.032-0.588,0.042-0.756,0.137
		c-0.042,0.01-0.115,0.031-0.157,0.031c-0.158,0-0.326-0.115-0.504-0.346c-0.221-0.273-0.399-0.714-0.399-0.966
		c0-0.147,0.011-0.168,0.084-0.241C43.761,56.931,43.813,57.004,43.96,57.109z"/>
	<path d="M54.765,58.044c0.777-0.651,1.47-1.47,2.205-2.573c0.431-0.651,0.693-1.187,0.693-1.417c0-0.136-0.042-0.22-0.2-0.357
		c-0.136-0.116-0.136-0.116-0.252-0.189c-0.115-0.053-0.115-0.053-0.188-0.095c0.095-0.052,0.137-0.063,0.199-0.063
		c0.231,0,0.577,0.116,0.861,0.284c0.336,0.189,0.493,0.368,0.493,0.536c0,0.126-0.011,0.136-0.567,0.956
		c0.137,0.031,0.2,0.042,0.273,0.042c0.21,0,0.725-0.084,1.26-0.21c0.431-0.105,0.609-0.168,0.83-0.284
		c0.084-0.053,0.115-0.063,0.178-0.063c0.252,0,0.851,0.546,0.851,0.777c0,0.095-0.031,0.147-0.157,0.263
		c-0.179,0.157-0.23,0.241-0.504,0.746c-0.924,1.732-1.816,2.877-3.098,3.948c-0.903,0.767-1.69,1.26-2.604,1.638l-0.074-0.147
		c0.841-0.515,1.471-1.029,2.321-1.88c1.271-1.26,2.257-2.688,2.866-4.158c0.104-0.231,0.168-0.452,0.168-0.536
		c0-0.042-0.031-0.073-0.095-0.073c-0.157,0-0.819,0.168-1.333,0.336c-0.189,0.063-0.252,0.073-0.347,0.073
		c-0.221,0-0.441-0.105-0.651-0.304c-0.809,1.155-1.879,2.173-3.023,2.877L54.765,58.044z"/>
	<path d="M66.588,62.002c0.692-0.777,1.134-1.501,1.512-2.478c0.294-0.767,0.504-1.648,0.504-2.142c0-0.252-0.063-0.368-0.263-0.515
		c-0.682,0.074-1.837,0.399-2.331,0.662c-0.178,0.084-0.22,0.105-0.336,0.105c-0.22,0-0.535-0.221-0.818-0.599
		c-0.105-0.136-0.21-0.367-0.21-0.462c0-0.052,0.01-0.084,0.042-0.199c0.252,0.357,0.504,0.504,0.882,0.504
		c0.283,0,0.347-0.011,1.795-0.263c0.641-0.105,1.827-0.252,3.234-0.389c0.21-0.021,0.599-0.105,0.819-0.178
		c0.168-0.053,0.168-0.053,0.263-0.053c0.146,0,0.346,0.053,0.556,0.158c0.284,0.136,0.494,0.336,0.494,0.483
		c0,0.126-0.116,0.21-0.294,0.21c-0.084,0-0.116,0-0.263-0.031c-0.42-0.084-1.113-0.137-1.69-0.137
		c-0.641,0-1.197,0.032-1.723,0.105c0.483,0.273,0.683,0.483,0.683,0.725c0,0.399-0.294,1.302-0.661,2.058
		c-0.577,1.187-1.103,1.827-2.079,2.562L66.588,62.002z M66.389,53.896c0.44,0.42,0.766,0.567,1.249,0.567
		c0.703,0,1.638-0.221,2.216-0.515c0.115-0.063,0.21-0.084,0.314-0.084c0.273,0,0.714,0.347,0.714,0.557
		c0,0.126-0.126,0.189-0.546,0.283c-0.683,0.137-1.848,0.273-2.394,0.273c-0.788,0-1.197-0.231-1.701-0.976L66.389,53.896z"/>
	<path d="M74.967,59.188c1.313-0.704,2.72-1.764,3.948-2.982c1.039-1.018,1.711-1.869,1.711-2.173c0-0.199-0.168-0.368-0.588-0.599
		c0.115-0.042,0.137-0.042,0.21-0.042c0.305,0,0.567,0.095,0.903,0.315c0.356,0.241,0.546,0.483,0.546,0.682
		c0,0.095-0.011,0.116-0.42,0.462c-0.105,0.084-0.105,0.084-0.851,0.798c-0.735,0.704-0.798,0.756-1.25,1.134
		c0.41,0.305,0.589,0.462,0.641,0.588c0.042,0.105,0.063,0.599,0.074,1.543c0.01,0.735,0.031,1.407,0.052,2.006
		c0,0.231,0.011,0.535,0.011,0.598c0,0.368-0.073,0.525-0.241,0.525c-0.241,0-0.714-0.578-0.714-0.882c0-0.073,0-0.073,0.063-0.273
		c0.095-0.262,0.189-1.564,0.189-2.583c0-0.514-0.021-0.83-0.063-0.998c-0.031-0.105-0.073-0.157-0.23-0.325
		c-0.735,0.588-1.491,1.124-2.017,1.438c-0.588,0.346-1.344,0.714-1.89,0.914L74.967,59.188z"/>
	<path d="M85.394,61.246c0.577-0.535,0.997-1.145,1.406-1.995c0.399-0.83,0.725-2.121,0.725-2.846c0-0.41-0.178-0.62-0.714-0.819
		c0.115-0.074,0.168-0.095,0.283-0.095c0.231,0,0.483,0.084,0.788,0.263c0.389,0.231,0.566,0.409,0.566,0.577
		c0,0.084-0.021,0.168-0.136,0.483c-0.011,0.042-0.011,0.042-0.105,0.367c-0.336,1.103-0.431,1.365-0.714,1.932
		c-0.504,0.998-1.092,1.669-1.984,2.247L85.394,61.246z M94.36,57.057c-0.325,0.557-0.599,0.903-1.145,1.48
		c-0.609,0.651-1.575,1.491-2.227,1.922c-0.199,0.136-0.504,0.378-0.598,0.472c-0.084,0.084-0.137,0.116-0.21,0.116
		c-0.242,0-0.631-0.546-0.631-0.872c0-0.021,0.021-0.126,0.074-0.326c0.063-0.241,0.094-1.176,0.094-2.845
		c0-2.384-0.042-2.52-0.808-2.688c0.104-0.126,0.178-0.158,0.336-0.158c0.252,0,0.577,0.116,0.924,0.326
		c0.305,0.189,0.431,0.336,0.431,0.483c0,0.053-0.011,0.095-0.084,0.284c-0.053,0.136-0.105,0.493-0.147,1.029
		c-0.042,0.441-0.137,2.761-0.137,3.161c0,0.136,0,0.252,0.021,0.483c1.218-0.473,2.762-1.638,3.969-2.972L94.36,57.057z"/>
	<path d="M10.78,80.976c2.268-0.672,3.717-1.533,4.914-2.919c1.239-1.407,1.869-3.129,1.869-5.061c0-2.037-0.819-3.654-2.373-4.641
		c-0.924-0.609-2.31-0.966-3.633-0.966c-0.252,0-0.399,0-0.735,0.042c0.504,0.735,0.651,1.134,0.651,1.743
		c0,1.638-1.176,4.704-2.772,7.266c-1.323,2.1-2.352,3.129-3.129,3.129c-0.357,0-0.693-0.168-0.924-0.441
		c-0.189-0.252-0.231-0.336-0.588-1.344c-0.189-0.546-0.315-0.798-0.924-1.974c-0.336-0.672-0.483-1.239-0.483-1.911
		c0-1.323,0.714-2.877,1.89-4.158c1.701-1.806,4.473-2.94,7.224-2.94c2.121,0,4.074,0.693,5.418,1.932
		c1.344,1.239,2.016,2.898,2.016,4.935c0,2.625-1.533,4.956-4.179,6.363c-1.218,0.651-2.31,0.987-4.095,1.302L10.78,80.976z
		 M3.871,74.445c0,1.008,0.315,2.037,0.84,2.772c0.294,0.378,0.567,0.609,0.798,0.609c0.462,0,1.47-1.134,2.499-2.772
		c1.554-2.478,2.667-5.187,2.667-6.489c0-0.315-0.063-0.525-0.294-1.05C6.727,68.166,3.871,71.211,3.871,74.445z"/>
	<path d="M36.105,65.772c0-0.756-0.021-1.134-0.105-1.974c2.373,0.252,2.457,0.273,2.457,0.504c0,0.147-0.084,0.189-0.903,0.441
		v2.394h4.158v-1.26c0-1.008-0.021-1.281-0.084-1.995c2.184,0.252,2.352,0.294,2.352,0.504c0,0.147-0.104,0.21-0.84,0.462v2.289
		h2.31c0.483-0.63,0.651-0.798,1.177-1.386c0.818,0.651,1.07,0.84,1.89,1.533c0.042,0.063,0.084,0.147,0.084,0.21
		c0,0.084-0.084,0.126-0.23,0.126h-5.229v3.822h3.087c0.525-0.651,0.714-0.84,1.26-1.449c0.861,0.672,1.113,0.882,1.891,1.617
		c0.063,0.063,0.104,0.147,0.104,0.189c0,0.063-0.084,0.126-0.21,0.126H32.431c-0.651,0-1.323,0.063-1.806,0.147l-0.126-0.84
		c0.504,0.126,1.26,0.21,1.932,0.21h3.675V67.62h-2.583c-1.365,0.042-1.365,0.042-1.785,0.147l-0.126-0.819
		c0.609,0.126,1.239,0.189,1.911,0.189h2.583V65.772z M35.707,82.509c0,0.294-0.231,0.378-1.071,0.378
		c-0.294,0-0.378-0.063-0.378-0.273c0.063-1.617,0.063-2.268,0.063-3.906c0-3.507-0.021-4.536-0.084-5.649
		c0.756,0.42,0.987,0.546,1.659,1.029h7.455c0.378-0.42,0.483-0.525,0.882-0.924c0.567,0.42,0.735,0.546,1.261,0.966
		c0.146,0.147,0.21,0.231,0.21,0.315c0,0.147-0.189,0.294-0.693,0.546c0,4.83,0,4.872,0.104,7.413c0,0.021,0,0.042,0,0.042
		c0,0.273-0.252,0.357-1.112,0.357c-0.315,0-0.399-0.063-0.399-0.294v-0.987h-7.896V82.509z M43.603,74.571h-7.896v2.856h7.896
		V74.571z M35.707,77.91v3.129h7.896V77.91H35.707z M37.555,67.62v3.822h4.158V67.62H37.555z"/>
	<path d="M67.019,67.704c0.44,0.105,1.322,0.21,1.722,0.21h3.78c0.504-0.546,0.65-0.714,1.176-1.218
		c0.693,0.588,0.903,0.777,1.512,1.386c0.063,0.084,0.105,0.126,0.105,0.168c0,0.084-0.084,0.147-0.21,0.147h-6.427
		c-0.314,0-0.588,0.021-1.49,0.105L67.019,67.704z M67.858,70.665c0.462,0.105,1.113,0.189,1.533,0.189h2.625
		c0.42-0.546,0.566-0.714,1.05-1.239c0.714,0.609,0.902,0.798,1.512,1.407c0.063,0.084,0.084,0.147,0.084,0.189
		c0,0.084-0.084,0.126-0.252,0.126H69.35c-0.483,0-0.735,0.021-1.303,0.105L67.858,70.665z M67.9,65.016
		c0.524,0.084,1.302,0.168,1.68,0.168h2.353c0.482-0.567,0.65-0.735,1.154-1.218c0.735,0.567,0.966,0.756,1.639,1.386
		c0.063,0.084,0.104,0.126,0.104,0.189s-0.104,0.126-0.252,0.126H69.56c-0.126,0-0.462,0.021-0.925,0.063
		c-0.146,0-0.336,0.021-0.588,0.021L67.9,65.016z M67.921,73.395c0.756,0.147,1.135,0.189,1.513,0.189h2.646
		c0.441-0.525,0.588-0.672,1.071-1.176c0.65,0.567,0.86,0.735,1.47,1.323c0.063,0.084,0.105,0.147,0.105,0.189
		c0,0.105-0.084,0.147-0.315,0.147h-4.977c-0.336,0-0.651,0.021-1.345,0.084L67.921,73.395z M69.454,82.656
		c-0.021,0.147-0.063,0.21-0.188,0.252c-0.126,0.063-0.567,0.105-0.903,0.105c-0.189,0-0.273-0.063-0.294-0.231
		c0.042-1.491,0.042-2.226,0.042-3.507c0-1.134,0-1.134-0.042-3.717c0.504,0.315,1.008,0.609,1.47,0.903h2.814
		c0.356-0.357,0.462-0.483,0.818-0.882c0.504,0.378,0.651,0.504,1.093,0.882c0.168,0.168,0.21,0.252,0.21,0.315
		c0,0.126-0.168,0.273-0.631,0.525c0,3.465,0,3.465,0.042,4.956c0,0.357-0.252,0.441-1.092,0.441c-0.188,0-0.252-0.042-0.272-0.21
		v-0.714h-3.066V82.656z M69.434,81.291h3.087v-4.347h-3.087V81.291z M81.13,75.579h2.205l0.945-0.987
		c0.609,0.441,0.777,0.567,1.302,0.987c0.168,0.147,0.21,0.21,0.21,0.294c0,0.189-0.188,0.336-0.734,0.588
		c0,3.612,0.021,4.368,0.063,5.943c0,0.399-0.21,0.504-1.029,0.504c-0.314,0-0.42-0.063-0.462-0.315v-0.819h-6.216v0.882
		c0,0.336-0.23,0.462-0.861,0.462c-0.378,0-0.504-0.063-0.524-0.294c0.042-1.701,0.042-2.499,0.042-3.675
		c0-1.155,0-1.554-0.042-4.473c0.714,0.357,0.924,0.462,1.575,0.903h2.1v-4.242h-2.793c-0.609,0-0.819,0.021-1.764,0.126
		l-0.168-0.798c0.798,0.147,1.28,0.189,1.932,0.189h2.793v-4.116c-1.743,0.336-2.625,0.462-4.536,0.63l-0.084-0.273
		c3.066-0.756,4.726-1.26,6.237-1.911c1.155-0.483,1.617-0.756,2.31-1.302c0.42,0.252,0.756,0.441,0.987,0.567
		c0.693,0.399,1.008,0.651,1.008,0.798c0,0.105-0.168,0.21-0.356,0.21c-0.105,0-0.189-0.021-0.841-0.105
		c-1.28,0.546-1.826,0.714-3.297,1.071v4.431h2.143c0.608-0.693,0.798-0.882,1.428-1.512c0.84,0.693,1.092,0.903,1.848,1.617
		c0.063,0.084,0.105,0.168,0.105,0.231s-0.105,0.147-0.21,0.147H81.13V75.579z M77.413,81.291h6.216v-5.229h-6.216V81.291z"/>
	<path d="M98.225,67.557c1.008,0.798,1.49,0.987,2.625,0.987c0.672,0,1.28-0.084,2.247-0.273c0.462-0.903,0.734-1.68,0.734-2.142
		c0-0.567-0.398-0.903-1.491-1.176c0.357-0.189,0.546-0.231,0.945-0.231c0.483,0,1.092,0.126,1.638,0.357
		c0.525,0.21,0.756,0.441,0.756,0.693c0,0.147-0.084,0.294-0.336,0.609c-0.188,0.252-0.44,0.63-0.608,0.861
		c-0.378,0.609-0.378,0.609-0.525,0.819c1.765-0.504,2.331-0.756,3.024-1.344c0.126-0.105,0.252-0.147,0.398-0.147
		c0.819,0,1.407,0.294,1.407,0.693c0,0.252-0.272,0.462-0.903,0.672c-1.868,0.609-2.877,0.861-4.577,1.197
		c-0.378,0.525-0.631,0.903-1.113,1.638c-0.567,0.882-0.735,1.113-1.134,1.68c1.176-0.609,1.911-0.84,2.709-0.84
		c1.238,0,2.163,0.84,2.352,2.1c0.357-0.168,0.357-0.168,2.059-1.029c2.078-1.05,2.582-1.386,2.582-1.764
		c0-0.357-0.356-0.735-0.966-0.987c0.231-0.105,0.336-0.126,0.483-0.126c0.924,0,2.373,1.281,2.373,2.121
		c0,0.378-0.168,0.525-0.756,0.651c-1.261,0.294-3.99,1.344-5.628,2.163c0.021,0.672,0.021,0.798,0.021,1.701
		c0,0.945-0.063,1.596-0.168,1.806c-0.104,0.231-0.336,0.399-0.588,0.399c-0.399,0-0.672-0.273-0.672-0.63
		c0-0.105,0-0.21,0.021-0.357c0.084-0.609,0.126-1.323,0.147-2.247c-1.302,0.714-1.911,1.134-2.457,1.659
		c-0.693,0.672-1.029,1.323-1.029,1.953c0,1.134,1.155,1.68,3.507,1.68c1.471,0,2.94-0.21,4.222-0.588
		c0.146-0.042,0.294-0.063,0.398-0.063c0.651,0,1.471,0.588,1.471,1.05c0,0.273-0.231,0.483-0.651,0.567
		c-0.861,0.168-2.457,0.294-3.759,0.294c-1.975,0-3.423-0.21-4.264-0.609c-1.07-0.504-1.554-1.197-1.554-2.226
		c0-0.987,0.483-1.89,1.512-2.877c0.547-0.525,1.219-1.008,2.604-1.869c-0.021-0.882-0.084-1.218-0.294-1.659
		c-0.189-0.378-0.609-0.63-1.071-0.63c-1.386,0-3.045,1.113-4.557,3.045c-0.399,0.546-0.567,0.672-0.777,0.672
		c-0.336,0-0.566-0.441-0.566-1.113c0-0.441,0.021-0.462,0.608-0.945c1.491-1.176,2.415-2.268,3.906-4.515
		c-0.693,0.105-0.966,0.126-1.407,0.126c-1.428,0-2.163-0.378-3.129-1.617L98.225,67.557z"/>
	<path d="M27.895,86.373c0.525,0.483,0.746,0.588,1.271,0.588c0.221,0,0.599-0.042,0.872-0.095c0.021-0.262,0.021-0.399,0.021-0.704
		c0-0.525-0.031-0.672-0.157-0.829c-0.137-0.158-0.326-0.242-0.651-0.294c0.147-0.136,0.231-0.168,0.452-0.168
		c0.252,0,0.63,0.084,0.935,0.21c0.189,0.074,0.305,0.2,0.305,0.315c0,0.084,0,0.084-0.116,0.294c-0.084,0.178-0.2,0.64-0.263,1.071
		c0.336-0.094,0.609-0.199,0.903-0.368c0.22-0.115,0.241-0.136,0.441-0.325c0.084-0.074,0.157-0.105,0.284-0.105
		c0.294,0,0.598,0.199,0.598,0.388c0,0.126-0.126,0.231-0.462,0.389c-0.525,0.231-1.04,0.399-1.827,0.557
		c-0.042,0.304-0.136,1.281-0.147,1.701c0.105,0.273,0.137,0.42,0.137,0.714c0,0.504-0.116,0.893-0.41,1.302
		c-0.315,0.473-0.451,0.777-0.451,1.04c0,0.452,0.567,0.651,1.816,0.651c0.945,0,1.879-0.168,2.394-0.42
		c0.21-0.105,0.252-0.199,0.252-0.557c0-0.693-0.011-1.155-0.105-3.16c-0.011-0.147-0.011-0.284-0.011-0.441
		c0-0.462,0.042-0.693,0.179-0.861c0.147-0.199,0.357-0.294,0.62-0.294c0.798,0,1.638,0.788,1.638,1.522
		c0,0.284-0.178,0.494-0.431,0.494c-0.084,0-0.147-0.021-0.241-0.074c-0.084-0.042-0.179-0.063-0.315-0.063
		c-0.095,0-0.504,0.084-0.767,0.147l-0.042-0.105c0.788-0.399,1.04-0.556,1.04-0.651c0-0.157-0.189-0.525-0.368-0.714
		c-0.21-0.21-0.441-0.336-0.662-0.336c-0.262,0-0.399,0.22-0.399,0.662c0,0.871,0.179,2.299,0.41,3.234
		c0.073,0.304,0.115,0.43,0.221,0.588c0.147,0.221,0.189,0.336,0.189,0.494c0,0.336-0.347,0.672-0.851,0.829
		c-0.588,0.189-1.543,0.315-2.415,0.315c-1.711,0-2.51-0.399-2.51-1.26c0-0.2,0.032-0.378,0.137-0.704c-0.042,0-0.063,0-0.084,0
		c-0.168,0-0.389-0.094-0.567-0.22c-0.357-0.273-0.567-0.746-0.567-1.292c0-0.851,0.462-1.428,1.123-1.428
		c0.252,0,0.42,0.053,0.641,0.2c0-0.095,0-0.095,0.042-0.63c0-0.126,0.011-0.21,0.021-0.609c-0.262,0.011-0.399,0.021-0.546,0.021
		c-0.819,0-1.197-0.199-1.701-0.914L27.895,86.373z M29.9,89.607c0-0.63-0.231-0.966-0.662-0.966c-0.399,0-0.672,0.389-0.672,0.966
		c0,0.651,0.367,1.155,0.84,1.155c0.158,0,0.305-0.084,0.368-0.231c0.073-0.158,0.126-0.473,0.126-0.798V89.607z"/>
	<path d="M40.505,88c-0.734,0.252-1.092,0.388-1.365,0.546c-0.157,0.094-0.22,0.115-0.304,0.115c-0.116,0-0.326-0.136-0.462-0.315
		c-0.189-0.241-0.346-0.609-0.346-0.798c0-0.053,0.021-0.126,0.063-0.231c0.22,0.441,0.409,0.578,0.798,0.578
		c0.231,0,0.956-0.147,1.785-0.368c0.242-0.609,0.431-1.354,0.431-1.722c0-0.325-0.199-0.504-0.809-0.703
		c0.126-0.084,0.189-0.105,0.315-0.105c0.157,0,0.42,0.053,0.703,0.137c0.473,0.137,0.735,0.326,0.735,0.546
		c0,0.084-0.021,0.126-0.147,0.305c-0.146,0.22-0.367,0.693-0.672,1.428c0.462-0.105,0.662-0.126,0.914-0.126
		c0.902,0,1.333,0.536,1.333,1.638c0,1.344-0.535,3.087-1.145,3.77c-0.263,0.283-0.672,0.472-1.008,0.472
		c-0.179,0-0.263-0.073-0.283-0.241c-0.032-0.294-0.053-0.315-1.166-1.229l0.095-0.137c0.809,0.462,1.407,0.725,1.628,0.725
		c0.241,0,0.409-0.22,0.682-0.882c0.368-0.861,0.62-2.026,0.62-2.825c0-0.703-0.189-0.956-0.746-0.956
		c-0.314,0-0.504,0.042-1.103,0.221c-0.146,0.357-0.146,0.357-0.608,1.428c-0.042,0.105-0.252,0.598-0.62,1.47
		c-0.419,0.987-0.766,1.743-0.934,2.037c-0.073,0.136-0.157,0.199-0.252,0.199c-0.189,0-0.305-0.273-0.305-0.724
		c0-0.273,0.032-0.347,0.242-0.588c0.21-0.231,0.473-0.672,0.777-1.239c0.399-0.777,0.399-0.777,0.84-1.743L40.505,88z
		 M44.601,87.328c0.818,0.242,1.459,0.662,1.921,1.26c0.399,0.514,0.599,1.019,0.599,1.491c0,0.357-0.157,0.567-0.42,0.567
		c-0.084,0-0.137-0.011-0.241-0.074c-0.168-0.094-0.231-0.105-0.431-0.105c-0.367,0-0.42,0-1.313,0.095l-0.042-0.147
		c1.061-0.325,1.281-0.399,1.606-0.535c-0.042-0.357-0.137-0.651-0.325-1.008c-0.336-0.64-0.746-1.04-1.438-1.396L44.601,87.328z"/>
	<path d="M56.508,91.266c-1.008,1.365-2.384,2.174-3.686,2.174c-0.798,0-1.418-0.326-1.743-0.893
		c-0.21-0.368-0.294-0.882-0.294-1.774c0-0.578,0.031-1.575,0.084-2.531c0.063-1.134,0.073-1.428,0.073-1.806
		c0-0.903-0.104-1.081-0.851-1.396c0.116-0.084,0.179-0.105,0.294-0.105c0.242,0,0.62,0.095,0.945,0.242
		c0.399,0.189,0.609,0.399,0.609,0.62c0,0.073-0.011,0.136-0.095,0.378c-0.199,0.63-0.546,3.812-0.546,5.04
		c0,0.64,0.126,1.019,0.42,1.26c0.231,0.179,0.567,0.284,0.935,0.284c0.714,0,1.596-0.252,2.394-0.672
		c0.483-0.252,0.788-0.473,1.334-0.935L56.508,91.266z"/>
	<path d="M61.422,89.439c-0.189,0.661-0.483,1.806-0.609,2.32c-0.104,0.462-0.137,0.63-0.137,0.893
		c-0.01,0.336-0.021,0.378-0.073,0.462c-0.053,0.074-0.115,0.116-0.199,0.116c-0.179,0-0.325-0.147-0.451-0.473
		c-0.21-0.536-0.336-1.333-0.336-2.11c0-0.966,0.115-1.848,0.472-3.497c0.137-0.651,0.158-0.767,0.158-0.945
		c0-0.315-0.084-0.567-0.305-0.924c0.241,0.011,0.44,0.147,0.734,0.525c0.242,0.305,0.379,0.599,0.379,0.798
		c0,0.115,0,0.115-0.169,0.462c-0.504,1.05-0.798,2.299-0.798,3.413c0,0.546,0.042,0.882,0.168,1.312l0.441-1.06l0.567-1.344
		L61.422,89.439z M62.472,87.538c0.504,0.326,0.829,0.431,1.354,0.431c0.367,0,0.767-0.052,1.197-0.147c0-0.2,0-0.368,0-0.462
		c0-1.176-0.011-1.313-0.147-1.459c-0.126-0.137-0.356-0.21-0.692-0.242c0.146-0.136,0.23-0.168,0.504-0.168
		c0.23,0,0.515,0.042,0.714,0.095c0.305,0.094,0.462,0.22,0.462,0.378c0,0.073,0,0.084-0.095,0.325
		c-0.115,0.305-0.179,0.683-0.221,1.407c0.483-0.137,0.788-0.273,0.967-0.431c0.104-0.105,0.136-0.115,0.23-0.115
		c0.126,0,0.367,0.063,0.493,0.136c0.084,0.042,0.137,0.116,0.137,0.189c0,0.231-0.767,0.546-1.858,0.756
		c0,1.396,0.031,1.974,0.137,2.856c1.218,0.325,1.732,0.735,1.732,1.344c0,0.221-0.095,0.389-0.21,0.389
		c-0.084,0-0.157-0.053-0.367-0.263c-0.462-0.472-0.725-0.661-1.135-0.84c0.011,0.094,0.011,0.179,0.011,0.252
		c0,0.756-0.63,1.208-1.68,1.208c-0.914,0-1.554-0.441-1.554-1.071c0-0.725,0.776-1.187,1.974-1.187c0.199,0,0.347,0.01,0.641,0.031
		c0-0.094,0-0.157,0-0.178l-0.021-1.124l-0.01-1.344c-0.315,0.053-0.62,0.084-0.925,0.084c-0.767,0-1.207-0.189-1.732-0.735
		L62.472,87.538z M64.078,91.371c-0.829,0-1.344,0.273-1.344,0.735c0,0.367,0.409,0.619,1.029,0.619
		c0.577,0,0.986-0.168,1.154-0.493c0.105-0.189,0.137-0.347,0.137-0.735C64.761,91.413,64.467,91.371,64.078,91.371z M66.104,84.861
		c0.641,0.304,1.061,0.567,1.281,0.798c0.168,0.189,0.221,0.305,0.221,0.546c0,0.126-0.053,0.315-0.116,0.389
		c-0.031,0.042-0.094,0.074-0.136,0.074c-0.063,0-0.116-0.032-0.179-0.105c-0.021-0.032-0.021-0.032-0.252-0.452
		c-0.199-0.378-0.493-0.756-0.903-1.134L66.104,84.861z M67.061,84.315c1.008,0.346,1.554,0.756,1.554,1.145
		c0,0.315-0.105,0.525-0.263,0.525c-0.095,0-0.168-0.063-0.252-0.231c-0.305-0.588-0.609-0.956-1.113-1.333L67.061,84.315z"/>
	<path d="M70.042,86.551c0.504,0.473,0.798,0.609,1.323,0.609c0.273,0,0.557-0.042,0.955-0.126c0.263-0.683,0.378-1.124,0.378-1.491
		c0-0.347-0.168-0.557-0.672-0.809c0.116-0.063,0.168-0.074,0.252-0.074c0.21,0,0.536,0.095,0.841,0.242
		c0.356,0.178,0.493,0.294,0.493,0.441c0,0.084-0.021,0.147-0.105,0.273c-0.042,0.084-0.262,0.515-0.64,1.292
		c0.776-0.273,0.871-0.325,1.165-0.578c0.084-0.073,0.115-0.084,0.221-0.084c0.409,0,0.714,0.137,0.714,0.315
		c0,0.273-0.651,0.535-2.32,0.924c-0.095,0.21-0.273,0.641-0.557,1.271c-0.315,0.725-1.124,2.488-1.218,2.667
		c-0.158,0.283-0.252,0.378-0.378,0.378c-0.179,0-0.326-0.326-0.326-0.746c0-0.21,0.021-0.273,0.116-0.378
		c0.23-0.252,0.356-0.41,0.504-0.63c0.514-0.767,0.893-1.48,1.313-2.468c-0.231,0.032-0.326,0.042-0.494,0.042
		c-0.378,0-0.661-0.063-0.924-0.22c-0.314-0.179-0.557-0.431-0.767-0.767L70.042,86.551z M75.597,87.139
		c0.725,0.063,1.313,0.252,1.796,0.578c0.409,0.263,0.661,0.578,0.661,0.819c0,0.179-0.105,0.305-0.273,0.305
		c-0.084,0-0.146-0.021-0.241-0.084c-0.294-0.179-0.493-0.221-1.029-0.221c-0.84,0-1.103,0.231-1.103,0.956
		c0,0.284,0.053,0.735,0.211,1.806c0.64,0.189,1.186,0.441,1.49,0.683c0.284,0.22,0.42,0.493,0.42,0.829
		c0,0.21-0.084,0.357-0.21,0.357c-0.104,0-0.146-0.031-0.367-0.273c-0.378-0.409-0.725-0.661-1.271-0.924c0,0.084,0,0.158,0,0.2
		c0,0.42-0.084,0.661-0.294,0.892c-0.283,0.284-0.777,0.452-1.365,0.452c-0.944,0-1.596-0.452-1.596-1.113
		c0-0.735,0.798-1.25,1.964-1.25c0.241,0,0.356,0.01,0.63,0.052c-0.032-0.83-0.032-0.914-0.032-1.04
		c0-0.861,0.084-1.187,0.368-1.501c0.21-0.22,0.504-0.367,0.997-0.493c0.157-0.042,0.179-0.053,0.567-0.137
		c-0.284-0.305-0.609-0.473-1.354-0.725L75.597,87.139z M75.029,91.738c-0.325-0.095-0.566-0.126-0.902-0.126
		c-0.893,0-1.438,0.305-1.438,0.798c0,0.389,0.398,0.62,1.05,0.62c0.851,0,1.291-0.347,1.291-1.008V91.738z"/>
	<path d="M88.008,91.266c-1.008,1.365-2.384,2.174-3.686,2.174c-0.798,0-1.418-0.326-1.743-0.893
		c-0.21-0.368-0.294-0.882-0.294-1.774c0-0.578,0.031-1.575,0.084-2.531c0.063-1.134,0.073-1.428,0.073-1.806
		c0-0.903-0.104-1.081-0.851-1.396c0.116-0.084,0.179-0.105,0.294-0.105c0.242,0,0.62,0.095,0.945,0.242
		c0.399,0.189,0.609,0.399,0.609,0.62c0,0.073-0.011,0.136-0.095,0.378c-0.199,0.63-0.546,3.812-0.546,5.04
		c0,0.64,0.126,1.019,0.42,1.26c0.231,0.179,0.567,0.284,0.935,0.284c0.714,0,1.596-0.252,2.394-0.672
		c0.483-0.252,0.788-0.473,1.334-0.935L88.008,91.266z"/>
</g>
<rect x="0.25" y="10.75" fill="none" stroke="#008CD6" stroke-width="0.5" width="21" height="21"/>
<rect x="29.125" y="10.75" fill="none" stroke="#008CD6" stroke-width="0.5" width="21.001" height="21"/>
<rect x="65.876" y="10.75" fill="none" stroke="#008CD6" stroke-width="0.5" width="21" height="21"/>
<rect x="94.751" y="10.75" fill="none" stroke="#008CD6" stroke-width="0.5" width="21" height="21"/>
<g>
	<path fill="none" stroke="#008CD6" stroke-width="0.5" d="M30.438,0.25"/>
	<path fill="none" stroke="#008CD6" stroke-width="0.5" d="M30.438,10.75"/>
	<line fill="none" stroke="#008CD6" stroke-width="0.5" x1="42.251" y1="0.25" x2="42.251" y2="10.75"/>
	<line fill="none" stroke="#008CD6" stroke-width="0.5" x1="52.751" y1="10.75" x2="52.751" y2="0.25"/>
	<line fill="none" stroke="#008CD6" stroke-width="0.5" x1="63.251" y1="0.25" x2="63.251" y2="10.75"/>
	<line fill="none" stroke="#008CD6" stroke-width="0.5" x1="65.876" y1="10.75" x2="50.126" y2="10.75"/>
	<line fill="none" stroke="#008CD6" stroke-width="0.5" x1="73.751" y1="0.25" x2="73.751" y2="10.75"/>
	<polyline fill="none" stroke="#008CD6" stroke-width="0.5" points="84.251,0.25 84.251,10.75 94.751,10.75 94.751,0.25 21.25,0.25 
		21.25,10.75 31.751,10.75 31.751,0.25 	"/>
</g>
<g>
	<line fill="none" stroke="#008CD6" stroke-width="0.5" x1="57.954" y1="42.25" x2="57.954" y2="31.75"/>
	<polyline fill="none" stroke="#008CD6" stroke-width="0.5" points="68.454,42.25 68.454,31.75 47.454,31.75 47.454,42.25 	"/>
	<polyline fill="none" stroke="#008CD6" stroke-width="0.5" points="78.954,42.25 78.954,31.75 89.454,31.75 89.454,42.25 
		26.454,42.25 26.454,31.75 36.954,31.75 36.954,42.25 	"/>
</g>
</svg>
