<?xml version="1.0" encoding="utf-8"?>
<!-- Generator: Adobe Illustrator 12.0.0, SVG Export Plug-In . SVG Version: 6.00 Build 51448)  -->
<!DOCTYPE svg PUBLIC "-//W3C//DTD SVG 1.1//EN" "http://www.w3.org/Graphics/SVG/1.1/DTD/svg11.dtd" [
	<!ENTITY ns_svg "http://www.w3.org/2000/svg">
	<!ENTITY ns_xlink "http://www.w3.org/1999/xlink">
]>
<svg  version="1.1" id="レイヤー_1" xmlns="&ns_svg;" xmlns:xlink="&ns_xlink;" width="154.5" height="124.6"
	 viewBox="0 0 77.25 62.3" overflow="visible" enable-background="new 0 0 77.25 62.3" xml:space="preserve">
<g>
	<path d="M16.069,6.531c1.1-0.938,1.701-1.638,2.311-2.681c0.455-0.784,0.833-1.631,0.833-1.869c0-0.07-0.035-0.091-0.14-0.091
		c-0.134,0-0.784,0.119-1.296,0.238c-0.524,0.119-0.973,0.259-1.28,0.392c-0.105,0.049-0.189,0.07-0.259,0.07
		c-0.141,0-0.329-0.14-0.497-0.378c-0.119-0.161-0.183-0.315-0.183-0.434c0-0.049,0.007-0.077,0.049-0.147
		c0.112,0.266,0.351,0.406,0.658,0.406c0.231,0,0.806-0.084,1.988-0.287c0.616-0.105,0.665-0.119,0.812-0.196
		c0.084-0.049,0.084-0.049,0.141-0.049c0.104,0,0.301,0.126,0.511,0.322c0.147,0.147,0.217,0.252,0.217,0.336
		c0,0.07-0.014,0.098-0.098,0.189c-0.091,0.098-0.119,0.14-0.238,0.385c-0.566,1.141-1.281,2.135-2.022,2.835
		c-0.441,0.406-0.854,0.707-1.442,1.043L16.069,6.531z"/>
	<path d="M21.9,5.796c0.448-0.28,0.861-0.616,1.33-1.064c0.7-0.665,1.219-1.281,1.716-2.051c-0.841,0.133-1.338,0.245-1.729,0.406
		c-0.112,0.042-0.161,0.056-0.224,0.056c-0.154,0-0.351-0.14-0.532-0.378c-0.126-0.161-0.203-0.315-0.203-0.392
		c0-0.028,0.007-0.049,0.028-0.084C22.51,2.548,22.72,2.66,23.007,2.66s1.463-0.147,2.205-0.273
		c-0.007-0.616-0.042-0.931-0.105-1.05c-0.076-0.147-0.287-0.273-0.531-0.322c0.056-0.07,0.084-0.077,0.23-0.077
		c0.217,0,0.567,0.084,0.777,0.196c0.154,0.077,0.203,0.133,0.203,0.252c0,0.049-0.008,0.084-0.042,0.154
		c-0.092,0.21-0.134,0.455-0.141,0.791c0.581-0.084,0.764-0.126,1.058-0.252c0.077-0.028,0.098-0.035,0.146-0.035
		c0.21,0,0.616,0.259,0.616,0.392c0,0.091-0.063,0.126-0.238,0.126c-0.042,0-0.119,0-0.245-0.007
		c-0.168-0.007-0.301-0.014-0.385-0.014c-0.224,0-0.44,0.014-0.959,0.063c0,0.091-0.007,0.175-0.007,0.217
		c0,0.609,0.042,1.4,0.112,2.261c0.027,0.343,0.042,0.602,0.042,0.756c0,0.378-0.183,0.742-0.364,0.742
		c-0.084,0-0.154-0.049-0.196-0.147c-0.056-0.147-0.111-0.224-0.252-0.336c-0.168-0.133-0.168-0.133-0.979-0.581l0.035-0.091
		c0.637,0.196,0.966,0.287,1.28,0.364c0.007-0.14,0.015-0.483,0.015-0.868c0-0.175,0-0.392-0.008-0.658
		c-0.014-0.455-0.021-0.77-0.021-0.931c0-0.063,0-0.168,0.007-0.301c-0.301,0.469-0.56,0.777-1.092,1.295
		c-0.742,0.714-1.596,1.316-2.212,1.561L21.9,5.796z"/>
	<path d="M29.265,3.381c0.175,0.133,0.309,0.168,0.679,0.168c0.077,0,0.077,0,0.861-0.021c0.273-0.007,2.499-0.042,2.73-0.042
		c0.63,0,0.783,0.014,0.909,0.063c0.07,0.035,0.099,0.077,0.099,0.14c0,0.084-0.063,0.161-0.161,0.189
		c-0.189,0.063-0.357,0.07-1.68,0.084c-0.651,0.007-2.254,0.049-2.499,0.063c-0.329,0.021-0.393,0.028-0.504,0.091
		c-0.028,0.007-0.077,0.021-0.105,0.021c-0.104,0-0.217-0.077-0.336-0.231c-0.147-0.182-0.266-0.476-0.266-0.644
		c0-0.098,0.007-0.112,0.056-0.161C29.132,3.262,29.167,3.311,29.265,3.381z"/>
	<path d="M36.468,4.004c0.518-0.434,0.98-0.98,1.47-1.715c0.287-0.434,0.462-0.791,0.462-0.945c0-0.091-0.027-0.147-0.133-0.238
		c-0.091-0.077-0.091-0.077-0.168-0.126c-0.077-0.035-0.077-0.035-0.126-0.063c0.063-0.035,0.091-0.042,0.133-0.042
		c0.154,0,0.386,0.077,0.574,0.189c0.224,0.126,0.329,0.245,0.329,0.357c0,0.084-0.007,0.091-0.378,0.637
		c0.091,0.021,0.133,0.028,0.182,0.028c0.141,0,0.483-0.056,0.84-0.14c0.287-0.07,0.406-0.112,0.554-0.189
		c0.056-0.035,0.077-0.042,0.119-0.042c0.168,0,0.566,0.364,0.566,0.518c0,0.063-0.021,0.098-0.104,0.175
		c-0.119,0.105-0.154,0.161-0.336,0.497c-0.616,1.155-1.211,1.918-2.065,2.632c-0.602,0.511-1.127,0.84-1.736,1.092l-0.049-0.098
		c0.561-0.343,0.98-0.686,1.547-1.253c0.848-0.84,1.505-1.792,1.911-2.772c0.07-0.154,0.112-0.301,0.112-0.357
		c0-0.028-0.021-0.049-0.063-0.049c-0.104,0-0.546,0.112-0.889,0.224c-0.126,0.042-0.168,0.049-0.23,0.049
		c-0.147,0-0.295-0.07-0.435-0.203c-0.539,0.77-1.253,1.449-2.016,1.918L36.468,4.004z"/>
	<path d="M44.35,6.643c0.462-0.518,0.756-1.001,1.008-1.652c0.196-0.511,0.336-1.099,0.336-1.428c0-0.168-0.042-0.245-0.175-0.343
		c-0.455,0.049-1.225,0.266-1.554,0.441c-0.119,0.056-0.147,0.07-0.224,0.07c-0.147,0-0.357-0.147-0.547-0.399
		c-0.069-0.091-0.14-0.245-0.14-0.308c0-0.035,0.007-0.056,0.028-0.133c0.168,0.238,0.336,0.336,0.588,0.336
		c0.188,0,0.23-0.007,1.197-0.175c0.427-0.07,1.218-0.168,2.155-0.259c0.141-0.014,0.399-0.07,0.546-0.119
		c0.112-0.035,0.112-0.035,0.176-0.035c0.098,0,0.23,0.035,0.371,0.105c0.188,0.091,0.328,0.224,0.328,0.322
		c0,0.084-0.076,0.14-0.195,0.14c-0.057,0-0.077,0-0.175-0.021c-0.28-0.056-0.742-0.091-1.127-0.091
		c-0.428,0-0.799,0.021-1.148,0.07c0.322,0.182,0.455,0.322,0.455,0.483c0,0.266-0.196,0.868-0.441,1.372
		c-0.385,0.791-0.734,1.218-1.386,1.708L44.35,6.643z M44.217,1.239c0.294,0.28,0.511,0.378,0.833,0.378
		c0.469,0,1.092-0.147,1.477-0.343c0.077-0.042,0.141-0.056,0.211-0.056c0.182,0,0.476,0.231,0.476,0.371
		c0,0.084-0.084,0.126-0.364,0.189c-0.455,0.091-1.231,0.182-1.596,0.182c-0.525,0-0.798-0.154-1.134-0.651L44.217,1.239z"/>
	<path d="M49.936,4.767c0.875-0.469,1.813-1.176,2.632-1.988c0.693-0.679,1.142-1.246,1.142-1.449c0-0.133-0.112-0.245-0.393-0.399
		c0.077-0.028,0.092-0.028,0.141-0.028c0.203,0,0.378,0.063,0.602,0.21c0.238,0.161,0.364,0.322,0.364,0.455
		c0,0.063-0.007,0.077-0.28,0.308c-0.069,0.056-0.069,0.056-0.566,0.532c-0.49,0.469-0.532,0.504-0.833,0.756
		c0.272,0.203,0.392,0.308,0.427,0.392c0.028,0.07,0.042,0.399,0.049,1.029c0.007,0.49,0.021,0.938,0.035,1.337
		c0,0.154,0.007,0.357,0.007,0.399c0,0.245-0.049,0.35-0.161,0.35c-0.161,0-0.476-0.385-0.476-0.588c0-0.049,0-0.049,0.042-0.182
		c0.063-0.175,0.126-1.043,0.126-1.722c0-0.343-0.015-0.553-0.042-0.665c-0.021-0.07-0.049-0.105-0.154-0.217
		c-0.49,0.392-0.994,0.749-1.344,0.959c-0.393,0.231-0.896,0.476-1.26,0.609L49.936,4.767z"/>
	<path d="M56.887,6.139c0.385-0.357,0.665-0.763,0.938-1.33c0.266-0.553,0.482-1.414,0.482-1.897c0-0.273-0.119-0.413-0.476-0.546
		c0.077-0.049,0.111-0.063,0.188-0.063c0.154,0,0.322,0.056,0.525,0.175c0.259,0.154,0.378,0.273,0.378,0.385
		c0,0.056-0.014,0.112-0.091,0.322c-0.007,0.028-0.007,0.028-0.07,0.245c-0.224,0.735-0.287,0.91-0.476,1.288
		c-0.336,0.665-0.729,1.113-1.323,1.498L56.887,6.139z M62.865,3.346c-0.218,0.371-0.399,0.602-0.764,0.987
		c-0.405,0.434-1.05,0.994-1.483,1.281c-0.134,0.091-0.336,0.252-0.399,0.315c-0.056,0.056-0.091,0.077-0.14,0.077
		c-0.161,0-0.42-0.364-0.42-0.581c0-0.014,0.014-0.084,0.049-0.217c0.042-0.161,0.063-0.784,0.063-1.897
		c0-1.589-0.027-1.68-0.539-1.792c0.07-0.084,0.119-0.105,0.225-0.105c0.168,0,0.385,0.077,0.616,0.217
		c0.202,0.126,0.286,0.224,0.286,0.322c0,0.035-0.007,0.063-0.056,0.189c-0.035,0.091-0.07,0.329-0.098,0.686
		c-0.028,0.294-0.091,1.841-0.091,2.107c0,0.091,0,0.168,0.014,0.322c0.812-0.315,1.841-1.092,2.646-1.981L62.865,3.346z"/>
	<path d="M7.145,19.292c1.513-0.448,2.479-1.022,3.276-1.946c0.826-0.938,1.246-2.086,1.246-3.374c0-1.358-0.546-2.436-1.582-3.094
		c-0.616-0.406-1.54-0.644-2.422-0.644c-0.168,0-0.267,0-0.49,0.028c0.336,0.49,0.434,0.756,0.434,1.162
		c0,1.092-0.783,3.136-1.848,4.844c-0.882,1.4-1.568,2.086-2.086,2.086c-0.238,0-0.462-0.112-0.616-0.294
		c-0.126-0.168-0.154-0.224-0.392-0.896c-0.126-0.364-0.21-0.532-0.616-1.316c-0.224-0.448-0.322-0.826-0.322-1.274
		c0-0.882,0.477-1.918,1.261-2.772c1.134-1.204,2.981-1.96,4.815-1.96c1.414,0,2.716,0.462,3.612,1.288
		c0.896,0.826,1.344,1.932,1.344,3.29c0,1.75-1.022,3.304-2.786,4.242c-0.812,0.434-1.54,0.658-2.729,0.868L7.145,19.292z
		 M2.539,14.938c0,0.672,0.21,1.358,0.56,1.848c0.196,0.252,0.378,0.406,0.532,0.406c0.308,0,0.979-0.756,1.666-1.848
		c1.036-1.652,1.778-3.458,1.778-4.326c0-0.21-0.042-0.35-0.196-0.7C4.442,10.752,2.539,12.782,2.539,14.938z"/>
	<path d="M24.028,9.156c0-0.504-0.014-0.756-0.069-1.316c1.582,0.168,1.638,0.182,1.638,0.336c0,0.098-0.056,0.126-0.602,0.294
		v1.596h2.771v-0.84c0-0.672-0.014-0.854-0.056-1.33c1.456,0.168,1.567,0.196,1.567,0.336c0,0.098-0.069,0.14-0.56,0.308v1.526h1.54
		c0.322-0.42,0.434-0.532,0.784-0.924c0.546,0.434,0.714,0.56,1.26,1.022c0.028,0.042,0.056,0.098,0.056,0.14
		c0,0.056-0.056,0.084-0.153,0.084h-3.486v2.548h2.058c0.351-0.434,0.477-0.56,0.841-0.966c0.573,0.448,0.741,0.588,1.26,1.078
		c0.042,0.042,0.069,0.098,0.069,0.126c0,0.042-0.056,0.084-0.14,0.084H21.579c-0.435,0-0.882,0.042-1.204,0.098l-0.084-0.56
		c0.336,0.084,0.84,0.14,1.288,0.14h2.449v-2.548h-1.722c-0.91,0.028-0.91,0.028-1.189,0.098L21.033,9.94
		c0.405,0.084,0.825,0.126,1.273,0.126h1.722V9.156z M23.763,20.314c0,0.196-0.154,0.252-0.714,0.252
		c-0.196,0-0.252-0.042-0.252-0.182c0.042-1.078,0.042-1.512,0.042-2.604c0-2.338-0.014-3.024-0.056-3.766
		c0.504,0.28,0.657,0.364,1.105,0.686h4.97c0.252-0.28,0.322-0.35,0.589-0.616c0.378,0.28,0.489,0.364,0.84,0.644
		c0.098,0.098,0.14,0.154,0.14,0.21c0,0.098-0.126,0.196-0.462,0.364c0,3.22,0,3.248,0.07,4.942c0,0.014,0,0.028,0,0.028
		c0,0.182-0.168,0.238-0.742,0.238c-0.21,0-0.267-0.042-0.267-0.196v-0.658h-5.264V20.314z M29.026,15.022h-5.264v1.904h5.264
		V15.022z M23.763,17.248v2.086h5.264v-2.086H23.763z M24.995,10.388v2.548h2.771v-2.548H24.995z"/>
	<path d="M44.637,10.444c0.294,0.07,0.882,0.14,1.148,0.14h2.52c0.336-0.364,0.435-0.476,0.784-0.812
		c0.462,0.392,0.602,0.518,1.008,0.924c0.042,0.056,0.07,0.084,0.07,0.112c0,0.056-0.057,0.098-0.141,0.098h-4.283
		c-0.21,0-0.393,0.014-0.994,0.07L44.637,10.444z M45.197,12.418c0.308,0.07,0.741,0.126,1.021,0.126h1.75
		c0.28-0.364,0.378-0.476,0.7-0.826c0.476,0.406,0.602,0.532,1.008,0.938c0.042,0.056,0.056,0.098,0.056,0.126
		c0,0.056-0.056,0.084-0.168,0.084H46.19c-0.321,0-0.489,0.014-0.867,0.07L45.197,12.418z M45.225,8.652
		c0.351,0.056,0.868,0.112,1.12,0.112h1.568c0.321-0.378,0.434-0.49,0.77-0.812c0.49,0.378,0.645,0.504,1.092,0.924
		c0.042,0.056,0.07,0.084,0.07,0.126s-0.07,0.084-0.168,0.084h-3.346c-0.084,0-0.309,0.014-0.616,0.042
		c-0.098,0-0.224,0.014-0.392,0.014L45.225,8.652z M45.239,14.238c0.504,0.098,0.756,0.126,1.008,0.126h1.764
		c0.294-0.35,0.392-0.448,0.714-0.784c0.435,0.378,0.574,0.49,0.98,0.882c0.042,0.056,0.069,0.098,0.069,0.126
		c0,0.07-0.056,0.098-0.21,0.098h-3.317c-0.225,0-0.435,0.014-0.896,0.056L45.239,14.238z M46.261,20.412
		c-0.014,0.098-0.042,0.14-0.126,0.168c-0.084,0.042-0.378,0.07-0.602,0.07c-0.126,0-0.183-0.042-0.196-0.154
		c0.028-0.994,0.028-1.484,0.028-2.338c0-0.756,0-0.756-0.028-2.478c0.336,0.21,0.672,0.406,0.979,0.602h1.876
		c0.238-0.238,0.309-0.322,0.547-0.588c0.336,0.252,0.434,0.336,0.728,0.588c0.112,0.112,0.14,0.168,0.14,0.21
		c0,0.084-0.111,0.182-0.42,0.35c0,2.31,0,2.31,0.028,3.304c0,0.238-0.168,0.294-0.728,0.294c-0.127,0-0.169-0.028-0.183-0.14
		v-0.476h-2.044V20.412z M46.247,19.502h2.058v-2.898h-2.058V19.502z M54.045,15.694h1.47l0.63-0.658
		c0.406,0.294,0.519,0.378,0.868,0.658c0.112,0.098,0.14,0.14,0.14,0.196c0,0.126-0.126,0.224-0.489,0.392
		c0,2.408,0.014,2.912,0.042,3.962c0,0.266-0.141,0.336-0.687,0.336c-0.21,0-0.279-0.042-0.308-0.21v-0.546h-4.145v0.588
		c0,0.224-0.153,0.308-0.573,0.308c-0.252,0-0.336-0.042-0.351-0.196c0.028-1.134,0.028-1.666,0.028-2.45
		c0-0.77,0-1.036-0.028-2.982c0.477,0.238,0.616,0.308,1.05,0.602h1.4v-2.828H51.23c-0.405,0-0.546,0.014-1.176,0.084l-0.112-0.532
		c0.532,0.098,0.854,0.126,1.288,0.126h1.862V9.8c-1.162,0.224-1.75,0.308-3.024,0.42l-0.056-0.182
		c2.044-0.504,3.15-0.84,4.158-1.274c0.77-0.322,1.078-0.504,1.54-0.868c0.28,0.168,0.504,0.294,0.658,0.378
		c0.462,0.266,0.672,0.434,0.672,0.532c0,0.07-0.112,0.14-0.238,0.14c-0.07,0-0.126-0.014-0.56-0.07
		c-0.854,0.364-1.219,0.476-2.198,0.714v2.954h1.428c0.406-0.462,0.532-0.588,0.952-1.008c0.56,0.462,0.728,0.602,1.232,1.078
		c0.042,0.056,0.069,0.112,0.069,0.154s-0.069,0.098-0.14,0.098h-3.542V15.694z M51.566,19.502h4.145v-3.486h-4.145V19.502z"/>
	<path d="M65.44,10.346c0.673,0.532,0.994,0.658,1.75,0.658c0.448,0,0.854-0.056,1.498-0.182c0.309-0.602,0.49-1.12,0.49-1.428
		c0-0.378-0.266-0.602-0.994-0.784c0.238-0.126,0.364-0.154,0.63-0.154c0.322,0,0.729,0.084,1.093,0.238
		c0.35,0.14,0.504,0.294,0.504,0.462c0,0.098-0.057,0.196-0.225,0.406c-0.126,0.168-0.294,0.42-0.405,0.574
		c-0.253,0.406-0.253,0.406-0.351,0.546c1.176-0.336,1.554-0.504,2.017-0.896c0.084-0.07,0.168-0.098,0.266-0.098
		c0.546,0,0.938,0.196,0.938,0.462c0,0.168-0.182,0.308-0.602,0.448c-1.246,0.406-1.918,0.574-3.052,0.798
		c-0.252,0.35-0.42,0.602-0.742,1.092c-0.378,0.588-0.49,0.742-0.756,1.12c0.784-0.406,1.273-0.56,1.806-0.56
		c0.826,0,1.442,0.56,1.568,1.4c0.237-0.112,0.237-0.112,1.372-0.686c1.386-0.7,1.722-0.924,1.722-1.176
		c0-0.238-0.238-0.49-0.644-0.658c0.153-0.07,0.224-0.084,0.321-0.084c0.616,0,1.582,0.854,1.582,1.414
		c0,0.252-0.111,0.35-0.504,0.434c-0.84,0.196-2.66,0.896-3.752,1.442c0.014,0.448,0.014,0.532,0.014,1.134
		c0,0.63-0.042,1.064-0.111,1.204c-0.07,0.154-0.225,0.266-0.393,0.266c-0.266,0-0.447-0.182-0.447-0.42c0-0.07,0-0.14,0.014-0.238
		c0.056-0.406,0.084-0.882,0.098-1.498c-0.868,0.476-1.273,0.756-1.638,1.106c-0.462,0.448-0.686,0.882-0.686,1.302
		c0,0.756,0.77,1.12,2.338,1.12c0.979,0,1.96-0.14,2.813-0.392c0.098-0.028,0.196-0.042,0.267-0.042c0.434,0,0.979,0.392,0.979,0.7
		c0,0.182-0.154,0.322-0.434,0.378c-0.574,0.112-1.639,0.196-2.507,0.196c-1.315,0-2.281-0.14-2.842-0.406
		c-0.714-0.336-1.036-0.798-1.036-1.484c0-0.658,0.322-1.26,1.009-1.918c0.363-0.35,0.812-0.672,1.735-1.246
		c-0.014-0.588-0.056-0.812-0.195-1.106c-0.126-0.252-0.406-0.42-0.715-0.42c-0.924,0-2.029,0.742-3.037,2.03
		c-0.267,0.364-0.379,0.448-0.519,0.448c-0.224,0-0.378-0.294-0.378-0.742c0-0.294,0.014-0.308,0.406-0.63
		c0.994-0.784,1.609-1.512,2.604-3.01c-0.462,0.07-0.644,0.084-0.938,0.084c-0.952,0-1.442-0.252-2.086-1.078L65.44,10.346z"/>
	<path d="M18.555,22.89c0.351,0.322,0.497,0.392,0.847,0.392c0.147,0,0.399-0.028,0.581-0.063c0.015-0.175,0.015-0.266,0.015-0.469
		c0-0.35-0.021-0.448-0.105-0.553c-0.091-0.105-0.217-0.161-0.434-0.196c0.098-0.091,0.154-0.112,0.301-0.112
		c0.168,0,0.42,0.056,0.623,0.14c0.126,0.049,0.203,0.133,0.203,0.21c0,0.056,0,0.056-0.077,0.196
		c-0.056,0.119-0.133,0.427-0.175,0.714c0.224-0.063,0.406-0.133,0.602-0.245c0.147-0.077,0.161-0.091,0.294-0.217
		c0.057-0.049,0.105-0.07,0.189-0.07c0.196,0,0.398,0.133,0.398,0.259c0,0.084-0.084,0.154-0.308,0.259
		c-0.35,0.154-0.693,0.266-1.218,0.371c-0.028,0.203-0.091,0.854-0.099,1.134c0.07,0.182,0.092,0.28,0.092,0.476
		c0,0.336-0.077,0.595-0.273,0.868c-0.21,0.315-0.301,0.518-0.301,0.693c0,0.301,0.378,0.434,1.211,0.434
		c0.63,0,1.253-0.112,1.596-0.28c0.141-0.07,0.168-0.133,0.168-0.371c0-0.462-0.007-0.77-0.069-2.107
		c-0.008-0.098-0.008-0.189-0.008-0.294c0-0.308,0.028-0.462,0.119-0.574c0.099-0.133,0.238-0.196,0.413-0.196
		c0.532,0,1.092,0.525,1.092,1.015c0,0.189-0.118,0.329-0.287,0.329c-0.056,0-0.098-0.014-0.16-0.049
		c-0.057-0.028-0.119-0.042-0.21-0.042c-0.063,0-0.336,0.056-0.512,0.098l-0.027-0.07c0.524-0.266,0.692-0.371,0.692-0.434
		c0-0.105-0.126-0.35-0.245-0.476c-0.14-0.14-0.294-0.224-0.44-0.224c-0.175,0-0.267,0.147-0.267,0.441
		c0,0.581,0.119,1.533,0.273,2.156c0.049,0.203,0.077,0.287,0.147,0.392c0.098,0.147,0.126,0.224,0.126,0.329
		c0,0.224-0.231,0.448-0.567,0.553c-0.392,0.126-1.029,0.21-1.61,0.21c-1.141,0-1.673-0.266-1.673-0.84
		c0-0.133,0.021-0.252,0.091-0.469c-0.027,0-0.042,0-0.056,0c-0.112,0-0.259-0.063-0.378-0.147
		c-0.238-0.182-0.378-0.497-0.378-0.861c0-0.567,0.308-0.952,0.749-0.952c0.168,0,0.28,0.035,0.427,0.133
		c0-0.063,0-0.063,0.028-0.42c0-0.084,0.007-0.14,0.014-0.406c-0.175,0.007-0.266,0.014-0.364,0.014
		c-0.546,0-0.798-0.133-1.134-0.609L18.555,22.89z M19.892,25.046c0-0.42-0.153-0.644-0.44-0.644c-0.267,0-0.448,0.259-0.448,0.644
		c0,0.434,0.245,0.77,0.56,0.77c0.105,0,0.203-0.056,0.245-0.154c0.049-0.105,0.084-0.315,0.084-0.532V25.046z"/>
	<path d="M26.962,23.975c-0.49,0.168-0.729,0.259-0.91,0.364c-0.104,0.063-0.146,0.077-0.203,0.077c-0.077,0-0.217-0.091-0.308-0.21
		c-0.126-0.161-0.231-0.406-0.231-0.532c0-0.035,0.015-0.084,0.042-0.154c0.147,0.294,0.273,0.385,0.532,0.385
		c0.154,0,0.637-0.098,1.19-0.245c0.16-0.406,0.286-0.903,0.286-1.148c0-0.217-0.133-0.336-0.538-0.469
		c0.084-0.056,0.126-0.07,0.21-0.07c0.104,0,0.279,0.035,0.469,0.091c0.314,0.091,0.49,0.217,0.49,0.364
		c0,0.056-0.015,0.084-0.099,0.203c-0.098,0.147-0.245,0.462-0.448,0.952c0.309-0.07,0.441-0.084,0.609-0.084
		c0.603,0,0.889,0.357,0.889,1.092c0,0.896-0.356,2.058-0.763,2.513c-0.175,0.189-0.448,0.315-0.672,0.315
		c-0.119,0-0.175-0.049-0.189-0.161c-0.021-0.196-0.034-0.21-0.776-0.819l0.063-0.091c0.539,0.308,0.938,0.483,1.085,0.483
		c0.161,0,0.273-0.147,0.455-0.588c0.245-0.574,0.413-1.351,0.413-1.883c0-0.469-0.126-0.637-0.497-0.637
		c-0.21,0-0.336,0.028-0.734,0.147c-0.099,0.238-0.099,0.238-0.406,0.952c-0.028,0.07-0.168,0.399-0.413,0.98
		c-0.28,0.658-0.511,1.162-0.623,1.358c-0.049,0.091-0.104,0.133-0.168,0.133c-0.126,0-0.203-0.182-0.203-0.483
		c0-0.182,0.021-0.231,0.161-0.392c0.14-0.154,0.315-0.448,0.518-0.826c0.267-0.518,0.267-0.518,0.561-1.162L26.962,23.975z
		 M29.691,23.527c0.547,0.161,0.974,0.441,1.281,0.84c0.267,0.343,0.399,0.679,0.399,0.994c0,0.238-0.105,0.378-0.28,0.378
		c-0.056,0-0.091-0.007-0.161-0.049c-0.112-0.063-0.154-0.07-0.287-0.07c-0.245,0-0.279,0-0.875,0.063l-0.027-0.098
		c0.707-0.217,0.854-0.266,1.07-0.357c-0.027-0.238-0.091-0.434-0.217-0.672c-0.224-0.427-0.497-0.693-0.959-0.931L29.691,23.527z"
		/>
	<path d="M37.63,26.152c-0.672,0.91-1.589,1.449-2.457,1.449c-0.532,0-0.945-0.217-1.162-0.595c-0.14-0.245-0.196-0.588-0.196-1.183
		c0-0.385,0.021-1.05,0.057-1.687c0.042-0.756,0.049-0.952,0.049-1.204c0-0.602-0.07-0.721-0.567-0.931
		c0.077-0.056,0.119-0.07,0.196-0.07c0.161,0,0.413,0.063,0.63,0.161c0.266,0.126,0.406,0.266,0.406,0.413
		c0,0.049-0.007,0.091-0.063,0.252c-0.133,0.42-0.363,2.541-0.363,3.36c0,0.427,0.084,0.679,0.279,0.84
		c0.154,0.119,0.378,0.189,0.623,0.189c0.477,0,1.064-0.168,1.597-0.448c0.321-0.168,0.524-0.315,0.889-0.623L37.63,26.152z"/>
	<path d="M40.906,24.934c-0.126,0.441-0.322,1.204-0.406,1.547c-0.07,0.308-0.091,0.42-0.091,0.595
		c-0.008,0.224-0.015,0.252-0.05,0.308c-0.034,0.049-0.076,0.077-0.133,0.077c-0.119,0-0.217-0.098-0.301-0.315
		c-0.14-0.357-0.224-0.889-0.224-1.407c0-0.644,0.077-1.232,0.314-2.331c0.091-0.434,0.105-0.511,0.105-0.63
		c0-0.21-0.057-0.378-0.203-0.616c0.161,0.007,0.294,0.098,0.49,0.35c0.16,0.203,0.252,0.399,0.252,0.532
		c0,0.077,0,0.077-0.112,0.308c-0.336,0.7-0.532,1.533-0.532,2.275c0,0.364,0.028,0.588,0.112,0.875l0.294-0.707l0.378-0.896
		L40.906,24.934z M41.605,23.667c0.336,0.217,0.554,0.287,0.903,0.287c0.245,0,0.511-0.035,0.798-0.098c0-0.133,0-0.245,0-0.308
		c0-0.784-0.007-0.875-0.098-0.973c-0.084-0.091-0.238-0.14-0.462-0.161c0.098-0.091,0.153-0.112,0.336-0.112
		c0.154,0,0.343,0.028,0.476,0.063c0.203,0.063,0.309,0.147,0.309,0.252c0,0.049,0,0.056-0.063,0.217
		c-0.077,0.203-0.119,0.455-0.146,0.938c0.321-0.091,0.524-0.182,0.644-0.287c0.07-0.07,0.091-0.077,0.154-0.077
		c0.084,0,0.245,0.042,0.329,0.091c0.056,0.028,0.091,0.077,0.091,0.126c0,0.154-0.511,0.364-1.239,0.504
		c0,0.931,0.021,1.316,0.091,1.904c0.813,0.217,1.155,0.49,1.155,0.896c0,0.147-0.063,0.259-0.14,0.259
		c-0.057,0-0.105-0.035-0.245-0.175c-0.309-0.315-0.483-0.441-0.756-0.56c0.007,0.063,0.007,0.119,0.007,0.168
		c0,0.504-0.42,0.805-1.12,0.805c-0.609,0-1.036-0.294-1.036-0.714c0-0.483,0.518-0.791,1.316-0.791c0.133,0,0.23,0.007,0.427,0.021
		c0-0.063,0-0.105,0-0.119l-0.014-0.749l-0.008-0.896c-0.21,0.035-0.413,0.056-0.615,0.056c-0.512,0-0.806-0.126-1.155-0.49
		L41.605,23.667z M42.677,26.222c-0.553,0-0.896,0.182-0.896,0.49c0,0.245,0.272,0.413,0.686,0.413c0.385,0,0.658-0.112,0.771-0.329
		c0.069-0.126,0.091-0.231,0.091-0.49C43.132,26.25,42.936,26.222,42.677,26.222z M44.027,21.882
		c0.428,0.203,0.707,0.378,0.854,0.532c0.112,0.126,0.146,0.203,0.146,0.364c0,0.084-0.034,0.21-0.076,0.259
		c-0.021,0.028-0.063,0.049-0.092,0.049c-0.042,0-0.076-0.021-0.118-0.07c-0.015-0.021-0.015-0.021-0.168-0.301
		c-0.134-0.252-0.329-0.504-0.603-0.756L44.027,21.882z M44.665,21.518c0.672,0.231,1.036,0.504,1.036,0.763
		c0,0.21-0.07,0.35-0.176,0.35c-0.063,0-0.111-0.042-0.168-0.154c-0.202-0.392-0.405-0.637-0.741-0.889L44.665,21.518z"/>
	<path d="M46.653,23.009c0.336,0.315,0.531,0.406,0.882,0.406c0.182,0,0.371-0.028,0.637-0.084c0.175-0.455,0.252-0.749,0.252-0.994
		c0-0.231-0.112-0.371-0.448-0.539c0.077-0.042,0.112-0.049,0.168-0.049c0.141,0,0.357,0.063,0.561,0.161
		c0.237,0.119,0.329,0.196,0.329,0.294c0,0.056-0.015,0.098-0.07,0.182c-0.028,0.056-0.175,0.343-0.427,0.861
		c0.518-0.182,0.581-0.217,0.776-0.385c0.057-0.049,0.077-0.056,0.147-0.056c0.272,0,0.476,0.091,0.476,0.21
		c0,0.182-0.434,0.357-1.547,0.616c-0.063,0.14-0.182,0.427-0.371,0.847c-0.21,0.483-0.749,1.659-0.812,1.778
		c-0.105,0.189-0.168,0.252-0.252,0.252c-0.119,0-0.217-0.217-0.217-0.497c0-0.14,0.014-0.182,0.076-0.252
		c0.154-0.168,0.238-0.273,0.336-0.42c0.344-0.511,0.596-0.987,0.875-1.645c-0.153,0.021-0.217,0.028-0.328,0.028
		c-0.253,0-0.441-0.042-0.616-0.147c-0.21-0.119-0.371-0.287-0.512-0.511L46.653,23.009z M50.355,23.401
		c0.483,0.042,0.875,0.168,1.197,0.385c0.273,0.175,0.441,0.385,0.441,0.546c0,0.119-0.07,0.203-0.183,0.203
		c-0.056,0-0.098-0.014-0.161-0.056c-0.195-0.119-0.328-0.147-0.686-0.147c-0.56,0-0.735,0.154-0.735,0.637
		c0,0.189,0.035,0.49,0.141,1.204c0.427,0.126,0.791,0.294,0.994,0.455c0.188,0.147,0.279,0.329,0.279,0.553
		c0,0.14-0.056,0.238-0.14,0.238c-0.07,0-0.098-0.021-0.245-0.182c-0.252-0.273-0.483-0.441-0.847-0.616c0,0.056,0,0.105,0,0.133
		c0,0.28-0.057,0.441-0.196,0.595c-0.189,0.189-0.518,0.301-0.91,0.301c-0.63,0-1.063-0.301-1.063-0.742
		c0-0.49,0.531-0.833,1.309-0.833c0.161,0,0.238,0.007,0.42,0.035c-0.021-0.553-0.021-0.609-0.021-0.693
		c0-0.574,0.056-0.791,0.244-1.001c0.141-0.147,0.337-0.245,0.665-0.329c0.105-0.028,0.119-0.035,0.379-0.091
		c-0.189-0.203-0.406-0.315-0.903-0.483L50.355,23.401z M49.978,26.467c-0.217-0.063-0.378-0.084-0.602-0.084
		c-0.595,0-0.959,0.203-0.959,0.532c0,0.259,0.266,0.413,0.7,0.413c0.566,0,0.86-0.231,0.86-0.672V26.467z"/>
	<path d="M58.63,26.152c-0.672,0.91-1.589,1.449-2.457,1.449c-0.532,0-0.945-0.217-1.162-0.595c-0.14-0.245-0.196-0.588-0.196-1.183
		c0-0.385,0.021-1.05,0.057-1.687c0.042-0.756,0.049-0.952,0.049-1.204c0-0.602-0.07-0.721-0.567-0.931
		c0.077-0.056,0.119-0.07,0.196-0.07c0.161,0,0.413,0.063,0.63,0.161c0.266,0.126,0.406,0.266,0.406,0.413
		c0,0.049-0.007,0.091-0.063,0.252c-0.133,0.42-0.363,2.541-0.363,3.36c0,0.427,0.084,0.679,0.279,0.84
		c0.154,0.119,0.378,0.189,0.623,0.189c0.477,0,1.064-0.168,1.597-0.448c0.321-0.168,0.524-0.315,0.889-0.623L58.63,26.152z"/>
</g>
<g>
	<path d="M16.069,41.182c1.1-0.938,1.701-1.638,2.311-2.681c0.455-0.784,0.833-1.631,0.833-1.869c0-0.07-0.035-0.091-0.14-0.091
		c-0.134,0-0.784,0.119-1.296,0.238c-0.524,0.119-0.973,0.259-1.28,0.392c-0.105,0.049-0.189,0.07-0.259,0.07
		c-0.141,0-0.329-0.14-0.497-0.378c-0.119-0.161-0.183-0.315-0.183-0.434c0-0.049,0.007-0.077,0.049-0.147
		c0.112,0.266,0.351,0.406,0.658,0.406c0.231,0,0.806-0.084,1.988-0.287c0.616-0.105,0.665-0.119,0.812-0.196
		c0.084-0.049,0.084-0.049,0.141-0.049c0.104,0,0.301,0.126,0.511,0.322c0.147,0.147,0.217,0.252,0.217,0.336
		c0,0.07-0.014,0.098-0.098,0.189c-0.091,0.098-0.119,0.14-0.238,0.385c-0.566,1.141-1.281,2.135-2.022,2.835
		c-0.441,0.406-0.854,0.707-1.442,1.043L16.069,41.182z"/>
	<path d="M21.9,40.446c0.448-0.28,0.861-0.616,1.33-1.064c0.7-0.665,1.219-1.281,1.716-2.051c-0.841,0.133-1.338,0.245-1.729,0.406
		c-0.112,0.042-0.161,0.056-0.224,0.056c-0.154,0-0.351-0.14-0.532-0.378c-0.126-0.161-0.203-0.315-0.203-0.392
		c0-0.028,0.007-0.049,0.028-0.084c0.224,0.259,0.434,0.371,0.721,0.371s1.463-0.147,2.205-0.273
		c-0.007-0.616-0.042-0.931-0.105-1.05c-0.076-0.147-0.287-0.273-0.531-0.322c0.056-0.07,0.084-0.077,0.23-0.077
		c0.217,0,0.567,0.084,0.777,0.196c0.154,0.077,0.203,0.133,0.203,0.252c0,0.049-0.008,0.084-0.042,0.154
		c-0.092,0.21-0.134,0.455-0.141,0.791c0.581-0.084,0.764-0.126,1.058-0.252c0.077-0.028,0.098-0.035,0.146-0.035
		c0.21,0,0.616,0.259,0.616,0.392c0,0.091-0.063,0.126-0.238,0.126c-0.042,0-0.119,0-0.245-0.007
		c-0.168-0.007-0.301-0.014-0.385-0.014c-0.224,0-0.44,0.014-0.959,0.063c0,0.091-0.007,0.175-0.007,0.217
		c0,0.609,0.042,1.4,0.112,2.261c0.027,0.343,0.042,0.602,0.042,0.756c0,0.378-0.183,0.742-0.364,0.742
		c-0.084,0-0.154-0.049-0.196-0.147c-0.056-0.147-0.111-0.224-0.252-0.336c-0.168-0.133-0.168-0.133-0.979-0.581l0.035-0.091
		c0.637,0.196,0.966,0.287,1.28,0.364c0.007-0.14,0.015-0.483,0.015-0.868c0-0.175,0-0.392-0.008-0.658
		c-0.014-0.455-0.021-0.77-0.021-0.931c0-0.063,0-0.168,0.007-0.301c-0.301,0.469-0.56,0.777-1.092,1.295
		c-0.742,0.714-1.596,1.316-2.212,1.561L21.9,40.446z"/>
	<path d="M29.265,38.032c0.175,0.133,0.309,0.168,0.679,0.168c0.077,0,0.077,0,0.861-0.021c0.273-0.007,2.499-0.042,2.73-0.042
		c0.63,0,0.783,0.014,0.909,0.063c0.07,0.035,0.099,0.077,0.099,0.14c0,0.084-0.063,0.161-0.161,0.189
		c-0.189,0.063-0.357,0.07-1.68,0.084c-0.651,0.007-2.254,0.049-2.499,0.063c-0.329,0.021-0.393,0.028-0.504,0.091
		c-0.028,0.007-0.077,0.021-0.105,0.021c-0.104,0-0.217-0.077-0.336-0.231c-0.147-0.182-0.266-0.476-0.266-0.644
		c0-0.098,0.007-0.112,0.056-0.161C29.132,37.913,29.167,37.961,29.265,38.032z"/>
	<path d="M36.468,38.654c0.518-0.434,0.98-0.98,1.47-1.715c0.287-0.434,0.462-0.791,0.462-0.945c0-0.091-0.027-0.147-0.133-0.238
		c-0.091-0.077-0.091-0.077-0.168-0.126c-0.077-0.035-0.077-0.035-0.126-0.063c0.063-0.035,0.091-0.042,0.133-0.042
		c0.154,0,0.386,0.077,0.574,0.189c0.224,0.126,0.329,0.245,0.329,0.357c0,0.084-0.007,0.091-0.378,0.637
		c0.091,0.021,0.133,0.028,0.182,0.028c0.141,0,0.483-0.056,0.84-0.14c0.287-0.07,0.406-0.112,0.554-0.189
		c0.056-0.035,0.077-0.042,0.119-0.042c0.168,0,0.566,0.364,0.566,0.518c0,0.063-0.021,0.098-0.104,0.175
		c-0.119,0.105-0.154,0.161-0.336,0.497c-0.616,1.155-1.211,1.918-2.065,2.632c-0.602,0.511-1.127,0.84-1.736,1.092l-0.049-0.098
		c0.561-0.343,0.98-0.686,1.547-1.253c0.848-0.84,1.505-1.792,1.911-2.772c0.07-0.154,0.112-0.301,0.112-0.357
		c0-0.028-0.021-0.049-0.063-0.049c-0.104,0-0.546,0.112-0.889,0.224c-0.126,0.042-0.168,0.049-0.23,0.049
		c-0.147,0-0.295-0.07-0.435-0.203c-0.539,0.77-1.253,1.449-2.016,1.918L36.468,38.654z"/>
	<path d="M44.35,41.293c0.462-0.518,0.756-1.001,1.008-1.652c0.196-0.511,0.336-1.099,0.336-1.428c0-0.168-0.042-0.245-0.175-0.343
		c-0.455,0.049-1.225,0.266-1.554,0.441c-0.119,0.056-0.147,0.07-0.224,0.07c-0.147,0-0.357-0.147-0.547-0.399
		c-0.069-0.091-0.14-0.245-0.14-0.308c0-0.035,0.007-0.056,0.028-0.133c0.168,0.238,0.336,0.336,0.588,0.336
		c0.188,0,0.23-0.007,1.197-0.175c0.427-0.07,1.218-0.168,2.155-0.259c0.141-0.014,0.399-0.07,0.546-0.119
		c0.112-0.035,0.112-0.035,0.176-0.035c0.098,0,0.23,0.035,0.371,0.105c0.188,0.091,0.328,0.224,0.328,0.322
		c0,0.084-0.076,0.14-0.195,0.14c-0.057,0-0.077,0-0.175-0.021c-0.28-0.056-0.742-0.091-1.127-0.091
		c-0.428,0-0.799,0.021-1.148,0.07c0.322,0.182,0.455,0.322,0.455,0.483c0,0.266-0.196,0.868-0.441,1.372
		c-0.385,0.791-0.734,1.218-1.386,1.708L44.35,41.293z M44.217,35.89c0.294,0.28,0.511,0.378,0.833,0.378
		c0.469,0,1.092-0.147,1.477-0.343c0.077-0.042,0.141-0.056,0.211-0.056c0.182,0,0.476,0.231,0.476,0.371
		c0,0.084-0.084,0.126-0.364,0.189c-0.455,0.091-1.231,0.182-1.596,0.182c-0.525,0-0.798-0.154-1.134-0.651L44.217,35.89z"/>
	<path d="M49.936,39.417c0.875-0.469,1.813-1.176,2.632-1.988c0.693-0.679,1.142-1.246,1.142-1.449c0-0.133-0.112-0.245-0.393-0.399
		c0.077-0.028,0.092-0.028,0.141-0.028c0.203,0,0.378,0.063,0.602,0.21c0.238,0.161,0.364,0.322,0.364,0.455
		c0,0.063-0.007,0.077-0.28,0.308c-0.069,0.056-0.069,0.056-0.566,0.532c-0.49,0.469-0.532,0.504-0.833,0.756
		c0.272,0.203,0.392,0.308,0.427,0.392c0.028,0.07,0.042,0.399,0.049,1.029c0.007,0.49,0.021,0.938,0.035,1.337
		c0,0.154,0.007,0.357,0.007,0.399c0,0.245-0.049,0.35-0.161,0.35c-0.161,0-0.476-0.385-0.476-0.588c0-0.049,0-0.049,0.042-0.182
		c0.063-0.175,0.126-1.043,0.126-1.722c0-0.343-0.015-0.553-0.042-0.665c-0.021-0.07-0.049-0.105-0.154-0.217
		c-0.49,0.392-0.994,0.749-1.344,0.959c-0.393,0.231-0.896,0.476-1.26,0.609L49.936,39.417z"/>
	<path d="M56.887,40.79c0.385-0.357,0.665-0.763,0.938-1.33c0.266-0.553,0.482-1.414,0.482-1.897c0-0.273-0.119-0.413-0.476-0.546
		c0.077-0.049,0.111-0.063,0.188-0.063c0.154,0,0.322,0.056,0.525,0.175c0.259,0.154,0.378,0.273,0.378,0.385
		c0,0.056-0.014,0.112-0.091,0.322c-0.007,0.028-0.007,0.028-0.07,0.245c-0.224,0.735-0.287,0.91-0.476,1.288
		c-0.336,0.665-0.729,1.113-1.323,1.498L56.887,40.79z M62.865,37.997c-0.218,0.371-0.399,0.602-0.764,0.987
		c-0.405,0.434-1.05,0.994-1.483,1.281c-0.134,0.091-0.336,0.252-0.399,0.315c-0.056,0.056-0.091,0.077-0.14,0.077
		c-0.161,0-0.42-0.364-0.42-0.581c0-0.014,0.014-0.084,0.049-0.217c0.042-0.161,0.063-0.784,0.063-1.897
		c0-1.589-0.027-1.68-0.539-1.792c0.07-0.084,0.119-0.105,0.225-0.105c0.168,0,0.385,0.077,0.616,0.217
		c0.202,0.126,0.286,0.224,0.286,0.322c0,0.035-0.007,0.063-0.056,0.189c-0.035,0.091-0.07,0.329-0.098,0.686
		c-0.028,0.294-0.091,1.841-0.091,2.107c0,0.091,0,0.168,0.014,0.322c0.812-0.315,1.841-1.092,2.646-1.981L62.865,37.997z"/>
	<path d="M7.145,53.943c1.513-0.448,2.479-1.022,3.276-1.946c0.826-0.938,1.246-2.086,1.246-3.374c0-1.358-0.546-2.436-1.582-3.094
		c-0.616-0.406-1.54-0.644-2.422-0.644c-0.168,0-0.267,0-0.49,0.028c0.336,0.49,0.434,0.756,0.434,1.162
		c0,1.092-0.783,3.136-1.848,4.844c-0.882,1.4-1.568,2.086-2.086,2.086c-0.238,0-0.462-0.112-0.616-0.294
		c-0.126-0.168-0.154-0.224-0.392-0.896c-0.126-0.364-0.21-0.532-0.616-1.316c-0.224-0.448-0.322-0.826-0.322-1.274
		c0-0.882,0.477-1.918,1.261-2.772c1.134-1.204,2.981-1.96,4.815-1.96c1.414,0,2.716,0.462,3.612,1.288
		c0.896,0.826,1.344,1.932,1.344,3.29c0,1.75-1.022,3.304-2.786,4.242c-0.812,0.434-1.54,0.658-2.729,0.868L7.145,53.943z
		 M2.539,49.589c0,0.672,0.21,1.358,0.56,1.848c0.196,0.252,0.378,0.406,0.532,0.406c0.308,0,0.979-0.756,1.666-1.848
		c1.036-1.652,1.778-3.458,1.778-4.326c0-0.21-0.042-0.35-0.196-0.7C4.442,45.403,2.539,47.433,2.539,49.589z"/>
	<path d="M24.028,43.807c0-0.504-0.014-0.756-0.069-1.316c1.582,0.168,1.638,0.182,1.638,0.336c0,0.098-0.056,0.126-0.602,0.294
		v1.596h2.771v-0.84c0-0.672-0.014-0.854-0.056-1.33c1.456,0.168,1.567,0.196,1.567,0.336c0,0.098-0.069,0.14-0.56,0.308v1.526h1.54
		c0.322-0.42,0.434-0.532,0.784-0.924c0.546,0.434,0.714,0.56,1.26,1.022c0.028,0.042,0.056,0.098,0.056,0.14
		c0,0.056-0.056,0.084-0.153,0.084h-3.486v2.548h2.058c0.351-0.434,0.477-0.56,0.841-0.966c0.573,0.448,0.741,0.588,1.26,1.078
		c0.042,0.042,0.069,0.098,0.069,0.126c0,0.042-0.056,0.084-0.14,0.084H21.579c-0.435,0-0.882,0.042-1.204,0.098l-0.084-0.56
		c0.336,0.084,0.84,0.14,1.288,0.14h2.449v-2.548h-1.722c-0.91,0.028-0.91,0.028-1.189,0.098l-0.084-0.546
		c0.405,0.084,0.825,0.126,1.273,0.126h1.722V43.807z M23.763,54.965c0,0.196-0.154,0.252-0.714,0.252
		c-0.196,0-0.252-0.042-0.252-0.182c0.042-1.078,0.042-1.512,0.042-2.604c0-2.338-0.014-3.024-0.056-3.766
		c0.504,0.28,0.657,0.364,1.105,0.686h4.97c0.252-0.28,0.322-0.35,0.589-0.616c0.378,0.28,0.489,0.364,0.84,0.644
		c0.098,0.098,0.14,0.154,0.14,0.21c0,0.098-0.126,0.196-0.462,0.364c0,3.22,0,3.248,0.07,4.942c0,0.014,0,0.028,0,0.028
		c0,0.182-0.168,0.238-0.742,0.238c-0.21,0-0.267-0.042-0.267-0.196v-0.658h-5.264V54.965z M29.026,49.673h-5.264v1.904h5.264
		V49.673z M23.763,51.898v2.086h5.264v-2.086H23.763z M24.995,45.039v2.548h2.771v-2.548H24.995z"/>
	<path d="M44.637,45.095c0.294,0.07,0.882,0.14,1.148,0.14h2.52c0.336-0.364,0.435-0.476,0.784-0.812
		c0.462,0.392,0.602,0.518,1.008,0.924c0.042,0.056,0.07,0.084,0.07,0.112c0,0.056-0.057,0.098-0.141,0.098h-4.283
		c-0.21,0-0.393,0.014-0.994,0.07L44.637,45.095z M45.197,47.069c0.308,0.07,0.741,0.126,1.021,0.126h1.75
		c0.28-0.364,0.378-0.476,0.7-0.826c0.476,0.406,0.602,0.532,1.008,0.938c0.042,0.056,0.056,0.098,0.056,0.126
		c0,0.056-0.056,0.084-0.168,0.084H46.19c-0.321,0-0.489,0.014-0.867,0.07L45.197,47.069z M45.225,43.303
		c0.351,0.056,0.868,0.112,1.12,0.112h1.568c0.321-0.378,0.434-0.49,0.77-0.812c0.49,0.378,0.645,0.504,1.092,0.924
		c0.042,0.056,0.07,0.084,0.07,0.126s-0.07,0.084-0.168,0.084h-3.346c-0.084,0-0.309,0.014-0.616,0.042
		c-0.098,0-0.224,0.014-0.392,0.014L45.225,43.303z M45.239,48.889c0.504,0.098,0.756,0.126,1.008,0.126h1.764
		c0.294-0.35,0.392-0.448,0.714-0.784c0.435,0.378,0.574,0.49,0.98,0.882c0.042,0.056,0.069,0.098,0.069,0.126
		c0,0.07-0.056,0.098-0.21,0.098h-3.317c-0.225,0-0.435,0.014-0.896,0.056L45.239,48.889z M46.261,55.063
		c-0.014,0.098-0.042,0.14-0.126,0.168c-0.084,0.042-0.378,0.07-0.602,0.07c-0.126,0-0.183-0.042-0.196-0.154
		c0.028-0.994,0.028-1.484,0.028-2.338c0-0.756,0-0.756-0.028-2.478c0.336,0.21,0.672,0.406,0.979,0.602h1.876
		c0.238-0.238,0.309-0.322,0.547-0.588c0.336,0.252,0.434,0.336,0.728,0.588c0.112,0.112,0.14,0.168,0.14,0.21
		c0,0.084-0.111,0.182-0.42,0.35c0,2.31,0,2.31,0.028,3.304c0,0.238-0.168,0.294-0.728,0.294c-0.127,0-0.169-0.028-0.183-0.14
		v-0.476h-2.044V55.063z M46.247,54.153h2.058v-2.898h-2.058V54.153z M54.045,50.345h1.47l0.63-0.658
		c0.406,0.294,0.519,0.378,0.868,0.658c0.112,0.098,0.14,0.14,0.14,0.196c0,0.126-0.126,0.224-0.489,0.392
		c0,2.408,0.014,2.912,0.042,3.962c0,0.266-0.141,0.336-0.687,0.336c-0.21,0-0.279-0.042-0.308-0.21v-0.546h-4.145v0.588
		c0,0.224-0.153,0.308-0.573,0.308c-0.252,0-0.336-0.042-0.351-0.196c0.028-1.134,0.028-1.666,0.028-2.45
		c0-0.77,0-1.036-0.028-2.982c0.477,0.238,0.616,0.308,1.05,0.602h1.4v-2.828H51.23c-0.405,0-0.546,0.014-1.176,0.084l-0.112-0.532
		c0.532,0.098,0.854,0.126,1.288,0.126h1.862v-2.744c-1.162,0.224-1.75,0.308-3.024,0.42l-0.056-0.182
		c2.044-0.504,3.15-0.84,4.158-1.274c0.77-0.322,1.078-0.504,1.54-0.868c0.28,0.168,0.504,0.294,0.658,0.378
		c0.462,0.266,0.672,0.434,0.672,0.532c0,0.07-0.112,0.14-0.238,0.14c-0.07,0-0.126-0.014-0.56-0.07
		c-0.854,0.364-1.219,0.476-2.198,0.714v2.954h1.428c0.406-0.462,0.532-0.588,0.952-1.008c0.56,0.462,0.728,0.602,1.232,1.078
		c0.042,0.056,0.069,0.112,0.069,0.154s-0.069,0.098-0.14,0.098h-3.542V50.345z M51.566,54.153h4.145v-3.486h-4.145V54.153z"/>
	<path d="M65.44,44.997c0.673,0.532,0.994,0.658,1.75,0.658c0.448,0,0.854-0.056,1.498-0.182c0.309-0.602,0.49-1.12,0.49-1.428
		c0-0.378-0.266-0.602-0.994-0.784c0.238-0.126,0.364-0.154,0.63-0.154c0.322,0,0.729,0.084,1.093,0.238
		c0.35,0.14,0.504,0.294,0.504,0.462c0,0.098-0.057,0.196-0.225,0.406c-0.126,0.168-0.294,0.42-0.405,0.574
		c-0.253,0.406-0.253,0.406-0.351,0.546c1.176-0.336,1.554-0.504,2.017-0.896c0.084-0.07,0.168-0.098,0.266-0.098
		c0.546,0,0.938,0.196,0.938,0.462c0,0.168-0.182,0.308-0.602,0.448c-1.246,0.406-1.918,0.574-3.052,0.798
		c-0.252,0.35-0.42,0.602-0.742,1.092c-0.378,0.588-0.49,0.742-0.756,1.12c0.784-0.406,1.273-0.56,1.806-0.56
		c0.826,0,1.442,0.56,1.568,1.4c0.237-0.112,0.237-0.112,1.372-0.686c1.386-0.7,1.722-0.924,1.722-1.176
		c0-0.238-0.238-0.49-0.644-0.658c0.153-0.07,0.224-0.084,0.321-0.084c0.616,0,1.582,0.854,1.582,1.414
		c0,0.252-0.111,0.35-0.504,0.434c-0.84,0.196-2.66,0.896-3.752,1.442c0.014,0.448,0.014,0.532,0.014,1.134
		c0,0.63-0.042,1.064-0.111,1.204c-0.07,0.154-0.225,0.266-0.393,0.266c-0.266,0-0.447-0.182-0.447-0.42c0-0.07,0-0.14,0.014-0.238
		c0.056-0.406,0.084-0.882,0.098-1.498c-0.868,0.476-1.273,0.756-1.638,1.106c-0.462,0.448-0.686,0.882-0.686,1.302
		c0,0.756,0.77,1.12,2.338,1.12c0.979,0,1.96-0.14,2.813-0.392c0.098-0.028,0.196-0.042,0.267-0.042c0.434,0,0.979,0.392,0.979,0.7
		c0,0.182-0.154,0.322-0.434,0.378c-0.574,0.112-1.639,0.196-2.507,0.196c-1.315,0-2.281-0.14-2.842-0.406
		c-0.714-0.336-1.036-0.798-1.036-1.484c0-0.658,0.322-1.26,1.009-1.918c0.363-0.35,0.812-0.672,1.735-1.246
		c-0.014-0.588-0.056-0.812-0.195-1.106c-0.126-0.252-0.406-0.42-0.715-0.42c-0.924,0-2.029,0.742-3.037,2.03
		c-0.267,0.364-0.379,0.448-0.519,0.448c-0.224,0-0.378-0.294-0.378-0.742c0-0.294,0.014-0.308,0.406-0.63
		c0.994-0.784,1.609-1.512,2.604-3.01c-0.462,0.07-0.644,0.084-0.938,0.084c-0.952,0-1.442-0.252-2.086-1.078L65.44,44.997z"/>
	<path d="M18.555,57.541c0.351,0.322,0.497,0.392,0.847,0.392c0.147,0,0.399-0.028,0.581-0.063c0.015-0.175,0.015-0.266,0.015-0.469
		c0-0.35-0.021-0.448-0.105-0.553c-0.091-0.105-0.217-0.161-0.434-0.196c0.098-0.091,0.154-0.112,0.301-0.112
		c0.168,0,0.42,0.056,0.623,0.14c0.126,0.049,0.203,0.133,0.203,0.21c0,0.056,0,0.056-0.077,0.196
		c-0.056,0.119-0.133,0.427-0.175,0.714c0.224-0.063,0.406-0.133,0.602-0.245c0.147-0.077,0.161-0.091,0.294-0.217
		c0.057-0.049,0.105-0.07,0.189-0.07c0.196,0,0.398,0.133,0.398,0.259c0,0.084-0.084,0.154-0.308,0.259
		c-0.35,0.154-0.693,0.266-1.218,0.371c-0.028,0.203-0.091,0.854-0.099,1.134c0.07,0.182,0.092,0.28,0.092,0.476
		c0,0.336-0.077,0.595-0.273,0.868c-0.21,0.315-0.301,0.518-0.301,0.693c0,0.301,0.378,0.434,1.211,0.434
		c0.63,0,1.253-0.112,1.596-0.28c0.141-0.07,0.168-0.133,0.168-0.371c0-0.462-0.007-0.77-0.069-2.107
		c-0.008-0.098-0.008-0.189-0.008-0.294c0-0.308,0.028-0.462,0.119-0.574c0.099-0.133,0.238-0.196,0.413-0.196
		c0.532,0,1.092,0.525,1.092,1.015c0,0.189-0.118,0.329-0.287,0.329c-0.056,0-0.098-0.014-0.16-0.049
		c-0.057-0.028-0.119-0.042-0.21-0.042c-0.063,0-0.336,0.056-0.512,0.098l-0.027-0.07c0.524-0.266,0.692-0.371,0.692-0.434
		c0-0.105-0.126-0.35-0.245-0.476c-0.14-0.14-0.294-0.224-0.44-0.224c-0.175,0-0.267,0.147-0.267,0.441
		c0,0.581,0.119,1.533,0.273,2.156c0.049,0.203,0.077,0.287,0.147,0.392c0.098,0.147,0.126,0.224,0.126,0.329
		c0,0.224-0.231,0.448-0.567,0.553c-0.392,0.126-1.029,0.21-1.61,0.21c-1.141,0-1.673-0.266-1.673-0.84
		c0-0.133,0.021-0.252,0.091-0.469c-0.027,0-0.042,0-0.056,0c-0.112,0-0.259-0.063-0.378-0.147
		c-0.238-0.182-0.378-0.497-0.378-0.861c0-0.567,0.308-0.952,0.749-0.952c0.168,0,0.28,0.035,0.427,0.133
		c0-0.063,0-0.063,0.028-0.42c0-0.084,0.007-0.14,0.014-0.406c-0.175,0.007-0.266,0.014-0.364,0.014
		c-0.546,0-0.798-0.133-1.134-0.609L18.555,57.541z M19.892,59.696c0-0.42-0.153-0.644-0.44-0.644c-0.267,0-0.448,0.259-0.448,0.644
		c0,0.434,0.245,0.77,0.56,0.77c0.105,0,0.203-0.056,0.245-0.154c0.049-0.105,0.084-0.315,0.084-0.532V59.696z"/>
	<path d="M26.962,58.625c-0.49,0.168-0.729,0.259-0.91,0.364c-0.104,0.063-0.146,0.077-0.203,0.077c-0.077,0-0.217-0.091-0.308-0.21
		c-0.126-0.161-0.231-0.406-0.231-0.532c0-0.035,0.015-0.084,0.042-0.154c0.147,0.294,0.273,0.385,0.532,0.385
		c0.154,0,0.637-0.098,1.19-0.245c0.16-0.406,0.286-0.903,0.286-1.148c0-0.217-0.133-0.336-0.538-0.469
		c0.084-0.056,0.126-0.07,0.21-0.07c0.104,0,0.279,0.035,0.469,0.091c0.314,0.091,0.49,0.217,0.49,0.364
		c0,0.056-0.015,0.084-0.099,0.203c-0.098,0.147-0.245,0.462-0.448,0.952c0.309-0.07,0.441-0.084,0.609-0.084
		c0.603,0,0.889,0.357,0.889,1.092c0,0.896-0.356,2.058-0.763,2.513c-0.175,0.189-0.448,0.315-0.672,0.315
		c-0.119,0-0.175-0.049-0.189-0.161c-0.021-0.196-0.034-0.21-0.776-0.819l0.063-0.091c0.539,0.308,0.938,0.483,1.085,0.483
		c0.161,0,0.273-0.147,0.455-0.588c0.245-0.574,0.413-1.351,0.413-1.883c0-0.469-0.126-0.637-0.497-0.637
		c-0.21,0-0.336,0.028-0.734,0.147c-0.099,0.238-0.099,0.238-0.406,0.952c-0.028,0.07-0.168,0.399-0.413,0.98
		c-0.28,0.658-0.511,1.162-0.623,1.358c-0.049,0.091-0.104,0.133-0.168,0.133c-0.126,0-0.203-0.182-0.203-0.483
		c0-0.182,0.021-0.231,0.161-0.392c0.14-0.154,0.315-0.448,0.518-0.826c0.267-0.518,0.267-0.518,0.561-1.162L26.962,58.625z
		 M29.691,58.178c0.547,0.161,0.974,0.441,1.281,0.84c0.267,0.343,0.399,0.679,0.399,0.994c0,0.238-0.105,0.378-0.28,0.378
		c-0.056,0-0.091-0.007-0.161-0.049c-0.112-0.063-0.154-0.07-0.287-0.07c-0.245,0-0.279,0-0.875,0.063l-0.027-0.098
		c0.707-0.217,0.854-0.266,1.07-0.357c-0.027-0.238-0.091-0.434-0.217-0.672c-0.224-0.427-0.497-0.693-0.959-0.931L29.691,58.178z"
		/>
	<path d="M37.63,60.803c-0.672,0.91-1.589,1.449-2.457,1.449c-0.532,0-0.945-0.217-1.162-0.595c-0.14-0.245-0.196-0.588-0.196-1.183
		c0-0.385,0.021-1.05,0.057-1.687c0.042-0.756,0.049-0.952,0.049-1.204c0-0.602-0.07-0.721-0.567-0.931
		c0.077-0.056,0.119-0.07,0.196-0.07c0.161,0,0.413,0.063,0.63,0.161c0.266,0.126,0.406,0.266,0.406,0.413
		c0,0.049-0.007,0.091-0.063,0.252c-0.133,0.42-0.363,2.541-0.363,3.36c0,0.427,0.084,0.679,0.279,0.84
		c0.154,0.119,0.378,0.189,0.623,0.189c0.477,0,1.064-0.168,1.597-0.448c0.321-0.168,0.524-0.315,0.889-0.623L37.63,60.803z"/>
	<path d="M40.906,59.584c-0.126,0.441-0.322,1.204-0.406,1.547c-0.07,0.308-0.091,0.42-0.091,0.595
		c-0.008,0.224-0.015,0.252-0.05,0.308c-0.034,0.049-0.076,0.077-0.133,0.077c-0.119,0-0.217-0.098-0.301-0.315
		c-0.14-0.357-0.224-0.889-0.224-1.407c0-0.644,0.077-1.232,0.314-2.331c0.091-0.434,0.105-0.511,0.105-0.63
		c0-0.21-0.057-0.378-0.203-0.616c0.161,0.007,0.294,0.098,0.49,0.35c0.16,0.203,0.252,0.399,0.252,0.532
		c0,0.077,0,0.077-0.112,0.308c-0.336,0.7-0.532,1.533-0.532,2.275c0,0.364,0.028,0.588,0.112,0.875l0.294-0.707l0.378-0.896
		L40.906,59.584z M41.605,58.317c0.336,0.217,0.554,0.287,0.903,0.287c0.245,0,0.511-0.035,0.798-0.098c0-0.133,0-0.245,0-0.308
		c0-0.784-0.007-0.875-0.098-0.973c-0.084-0.091-0.238-0.14-0.462-0.161c0.098-0.091,0.153-0.112,0.336-0.112
		c0.154,0,0.343,0.028,0.476,0.063c0.203,0.063,0.309,0.147,0.309,0.252c0,0.049,0,0.056-0.063,0.217
		c-0.077,0.203-0.119,0.455-0.146,0.938c0.321-0.091,0.524-0.182,0.644-0.287c0.07-0.07,0.091-0.077,0.154-0.077
		c0.084,0,0.245,0.042,0.329,0.091c0.056,0.028,0.091,0.077,0.091,0.126c0,0.154-0.511,0.364-1.239,0.504
		c0,0.931,0.021,1.316,0.091,1.904c0.813,0.217,1.155,0.49,1.155,0.896c0,0.147-0.063,0.259-0.14,0.259
		c-0.057,0-0.105-0.035-0.245-0.175c-0.309-0.315-0.483-0.441-0.756-0.56c0.007,0.063,0.007,0.119,0.007,0.168
		c0,0.504-0.42,0.805-1.12,0.805c-0.609,0-1.036-0.294-1.036-0.714c0-0.483,0.518-0.791,1.316-0.791c0.133,0,0.23,0.007,0.427,0.021
		c0-0.063,0-0.105,0-0.119l-0.014-0.749l-0.008-0.896c-0.21,0.035-0.413,0.056-0.615,0.056c-0.512,0-0.806-0.126-1.155-0.49
		L41.605,58.317z M42.677,60.873c-0.553,0-0.896,0.182-0.896,0.49c0,0.245,0.272,0.413,0.686,0.413c0.385,0,0.658-0.112,0.771-0.329
		c0.069-0.126,0.091-0.231,0.091-0.49C43.132,60.9,42.936,60.873,42.677,60.873z M44.027,56.533
		c0.428,0.203,0.707,0.378,0.854,0.532c0.112,0.126,0.146,0.203,0.146,0.364c0,0.084-0.034,0.21-0.076,0.259
		c-0.021,0.028-0.063,0.049-0.092,0.049c-0.042,0-0.076-0.021-0.118-0.07c-0.015-0.021-0.015-0.021-0.168-0.301
		c-0.134-0.252-0.329-0.504-0.603-0.756L44.027,56.533z M44.665,56.168c0.672,0.231,1.036,0.504,1.036,0.763
		c0,0.21-0.07,0.35-0.176,0.35c-0.063,0-0.111-0.042-0.168-0.154c-0.202-0.392-0.405-0.637-0.741-0.889L44.665,56.168z"/>
	<path d="M46.653,57.66c0.336,0.315,0.531,0.406,0.882,0.406c0.182,0,0.371-0.028,0.637-0.084c0.175-0.455,0.252-0.749,0.252-0.994
		c0-0.231-0.112-0.371-0.448-0.539c0.077-0.042,0.112-0.049,0.168-0.049c0.141,0,0.357,0.063,0.561,0.161
		c0.237,0.119,0.329,0.196,0.329,0.294c0,0.056-0.015,0.098-0.07,0.182c-0.028,0.056-0.175,0.343-0.427,0.861
		c0.518-0.182,0.581-0.217,0.776-0.385c0.057-0.049,0.077-0.056,0.147-0.056c0.272,0,0.476,0.091,0.476,0.21
		c0,0.182-0.434,0.357-1.547,0.616c-0.063,0.14-0.182,0.427-0.371,0.847c-0.21,0.483-0.749,1.659-0.812,1.778
		c-0.105,0.189-0.168,0.252-0.252,0.252c-0.119,0-0.217-0.217-0.217-0.497c0-0.14,0.014-0.182,0.076-0.252
		c0.154-0.168,0.238-0.273,0.336-0.42c0.344-0.511,0.596-0.987,0.875-1.645c-0.153,0.021-0.217,0.028-0.328,0.028
		c-0.253,0-0.441-0.042-0.616-0.147c-0.21-0.119-0.371-0.287-0.512-0.511L46.653,57.66z M50.355,58.052
		c0.483,0.042,0.875,0.168,1.197,0.385c0.273,0.175,0.441,0.385,0.441,0.546c0,0.119-0.07,0.203-0.183,0.203
		c-0.056,0-0.098-0.014-0.161-0.056c-0.195-0.119-0.328-0.147-0.686-0.147c-0.56,0-0.735,0.154-0.735,0.637
		c0,0.189,0.035,0.49,0.141,1.204c0.427,0.126,0.791,0.294,0.994,0.455c0.188,0.147,0.279,0.329,0.279,0.553
		c0,0.14-0.056,0.238-0.14,0.238c-0.07,0-0.098-0.021-0.245-0.182c-0.252-0.273-0.483-0.441-0.847-0.616c0,0.056,0,0.105,0,0.133
		c0,0.28-0.057,0.441-0.196,0.595c-0.189,0.189-0.518,0.301-0.91,0.301c-0.63,0-1.063-0.301-1.063-0.742
		c0-0.49,0.531-0.833,1.309-0.833c0.161,0,0.238,0.007,0.42,0.035c-0.021-0.553-0.021-0.609-0.021-0.693
		c0-0.574,0.056-0.791,0.244-1.001c0.141-0.147,0.337-0.245,0.665-0.329c0.105-0.028,0.119-0.035,0.379-0.091
		c-0.189-0.203-0.406-0.315-0.903-0.483L50.355,58.052z M49.978,61.118c-0.217-0.063-0.378-0.084-0.602-0.084
		c-0.595,0-0.959,0.203-0.959,0.532c0,0.259,0.266,0.413,0.7,0.413c0.566,0,0.86-0.231,0.86-0.672V61.118z"/>
	<path d="M58.63,60.803c-0.672,0.91-1.589,1.449-2.457,1.449c-0.532,0-0.945-0.217-1.162-0.595c-0.14-0.245-0.196-0.588-0.196-1.183
		c0-0.385,0.021-1.05,0.057-1.687c0.042-0.756,0.049-0.952,0.049-1.204c0-0.602-0.07-0.721-0.567-0.931
		c0.077-0.056,0.119-0.07,0.196-0.07c0.161,0,0.413,0.063,0.63,0.161c0.266,0.126,0.406,0.266,0.406,0.413
		c0,0.049-0.007,0.091-0.063,0.252c-0.133,0.42-0.363,2.541-0.363,3.36c0,0.427,0.084,0.679,0.279,0.84
		c0.154,0.119,0.378,0.189,0.623,0.189c0.477,0,1.064-0.168,1.597-0.448c0.321-0.168,0.524-0.315,0.889-0.623L58.63,60.803z"/>
</g>
<rect x="0.125" y="7.125" fill="none" stroke="#008CD6" stroke-width="0.25" width="14" height="14"/>
<rect x="19.375" y="7.125" fill="none" stroke="#008CD6" stroke-width="0.25" width="14" height="14"/>
<rect x="43.875" y="7.125" fill="none" stroke="#008CD6" stroke-width="0.25" width="14" height="14"/>
<rect x="63.125" y="7.125" fill="none" stroke="#008CD6" stroke-width="0.25" width="14" height="14"/>
<g>
	<path fill="none" stroke="#008CD6" stroke-width="0.25" d="M20.25,0.125"/>
	<path fill="none" stroke="#008CD6" stroke-width="0.25" d="M20.25,7.125"/>
	<line fill="none" stroke="#008CD6" stroke-width="0.25" x1="28.125" y1="0.125" x2="28.125" y2="7.125"/>
	<line fill="none" stroke="#008CD6" stroke-width="0.25" x1="35.125" y1="7.125" x2="35.125" y2="0.125"/>
	<line fill="none" stroke="#008CD6" stroke-width="0.25" x1="42.125" y1="0.125" x2="42.125" y2="7.125"/>
	<line fill="none" stroke="#008CD6" stroke-width="0.25" x1="43.875" y1="7.125" x2="33.375" y2="7.125"/>
	<line fill="none" stroke="#008CD6" stroke-width="0.25" x1="49.125" y1="0.125" x2="49.125" y2="7.125"/>
	<polyline fill="none" stroke="#008CD6" stroke-width="0.25" points="56.125,0.125 56.125,7.125 63.125,7.125 63.125,0.125 
		14.125,0.125 14.125,7.125 21.125,7.125 21.125,0.125 	"/>
</g>
<g>
	<line fill="none" stroke="#008CD6" stroke-width="0.25" x1="38.594" y1="28.125" x2="38.594" y2="21.125"/>
	<polyline fill="none" stroke="#008CD6" stroke-width="0.25" points="45.594,28.125 45.594,21.125 31.594,21.125 31.594,28.125 	"/>
	<polyline fill="none" stroke="#008CD6" stroke-width="0.25" points="52.594,28.125 52.594,21.125 59.594,21.125 59.594,28.125 
		17.594,28.125 17.594,21.125 24.594,21.125 24.594,28.125 	"/>
</g>
</svg>
