<?xml version="1.0" encoding="utf-8"?>
<!-- Generator: Adobe Illustrator 12.0.0, SVG Export Plug-In . SVG Version: 6.00 Build 51448)  -->
<!DOCTYPE svg PUBLIC "-//W3C//DTD SVG 1.1//EN" "http://www.w3.org/Graphics/SVG/1.1/DTD/svg11.dtd" [
	<!ENTITY ns_svg "http://www.w3.org/2000/svg">
	<!ENTITY ns_xlink "http://www.w3.org/1999/xlink">
]>
<svg  version="1.1" id="レイヤー_1" xmlns="&ns_svg;" xmlns:xlink="&ns_xlink;" width="105.5" height="95.11"
	 viewBox="0 0 105.5 95.11" overflow="visible" enable-background="new 0 0 105.5 95.11" xml:space="preserve">
<g>
	<path d="M37.218,2.342c1.092,0.525,1.522,0.956,1.522,1.522c0,0.252-0.116,0.399-0.315,0.399c-0.063,0-0.084-0.01-0.326-0.105
		c-0.283-0.105-0.682-0.189-1.145-0.242c-0.714-0.084-1.386-0.136-1.627-0.136c-0.241,0-0.399,0.115-0.399,0.294
		c0,0.147,0.221,0.672,0.693,1.638c0.578-0.315,1.239-0.62,1.838-0.851c0.766-0.294,1.375-0.42,2.016-0.42
		c1.271,0,2.174,0.682,2.174,1.659c0,0.41-0.21,0.882-0.536,1.197c-0.378,0.367-0.956,0.567-1.669,0.567
		c-0.851,0-1.732-0.294-2.384-0.788l0.074-0.157c0.546,0.273,1.229,0.441,1.837,0.441c0.704,0,1.26-0.2,1.575-0.567
		c0.22-0.252,0.336-0.567,0.336-0.903c0-0.725-0.546-1.134-1.512-1.134c-0.567,0-1.082,0.147-1.984,0.577
		c-0.494,0.242-0.977,0.504-1.554,0.851c0.504,1.019,0.819,1.722,1.176,2.615c0.41,1.04,0.515,1.375,0.515,1.722
		c0,0.452-0.2,0.788-0.483,0.788c-0.052,0-0.115-0.042-0.168-0.105c-0.063-0.073-0.094-0.178-0.136-0.462
		c-0.2-1.313-0.63-2.741-1.302-4.326c-0.598,0.399-0.956,0.651-1.082,0.735c-0.157,0.115-0.199,0.147-0.283,0.21
		c-0.137,0.115-0.231,0.157-0.368,0.157c-0.462,0-1.113-0.672-1.113-1.145c0-0.042,0.01-0.094,0.042-0.178
		c0.241,0.357,0.493,0.546,0.735,0.546c0.294,0,0.924-0.284,1.837-0.809c-0.262-0.588-0.514-1.029-0.725-1.292
		c-0.189-0.252-0.22-0.315-0.22-0.451c0-0.347,0.409-0.714,0.788-0.714c0.126,0,0.136,0,0.325,0.053
		c0.063,0.021,0.126,0.021,0.273,0.031c0.042,0,0.368,0,0.84,0.011c0.262,0.01,0.472,0.01,0.787,0.01
		c0.609,0,0.693-0.021,0.693-0.136c0-0.21-0.368-0.62-0.851-0.966L37.218,2.342z"/>
	<path d="M72.257,8.915c-1.008,1.365-2.384,2.174-3.686,2.174c-0.798,0-1.417-0.326-1.743-0.893
		c-0.21-0.368-0.294-0.882-0.294-1.774c0-0.578,0.032-1.575,0.084-2.531c0.063-1.134,0.074-1.428,0.074-1.806
		c0-0.903-0.105-1.081-0.851-1.396c0.115-0.084,0.178-0.105,0.294-0.105c0.242,0,0.62,0.095,0.945,0.242
		c0.399,0.189,0.609,0.399,0.609,0.62c0,0.073-0.011,0.136-0.095,0.378c-0.2,0.63-0.546,3.812-0.546,5.04
		c0,0.64,0.126,1.019,0.42,1.26c0.231,0.179,0.567,0.284,0.935,0.284c0.714,0,1.596-0.252,2.394-0.672
		c0.483-0.252,0.787-0.473,1.333-0.935L72.257,8.915z"/>
	<path d="M10.779,30.125c2.268-0.672,3.717-1.533,4.914-2.919c1.239-1.407,1.869-3.129,1.869-5.061c0-2.037-0.819-3.654-2.373-4.641
		c-0.924-0.609-2.31-0.966-3.633-0.966c-0.252,0-0.399,0-0.735,0.042c0.504,0.735,0.651,1.134,0.651,1.743
		c0,1.638-1.176,4.704-2.772,7.266c-1.323,2.1-2.352,3.129-3.129,3.129c-0.357,0-0.693-0.168-0.924-0.441
		c-0.189-0.252-0.231-0.336-0.588-1.344c-0.189-0.546-0.315-0.798-0.924-1.974c-0.336-0.672-0.483-1.239-0.483-1.911
		c0-1.323,0.714-2.877,1.89-4.158c1.701-1.806,4.473-2.94,7.224-2.94c2.121,0,4.074,0.693,5.418,1.932
		c1.344,1.239,2.016,2.898,2.016,4.935c0,2.625-1.533,4.956-4.179,6.363c-1.218,0.651-2.31,0.987-4.095,1.302L10.779,30.125z
		 M3.87,23.594c0,1.008,0.315,2.037,0.84,2.772c0.294,0.378,0.567,0.609,0.798,0.609c0.462,0,1.47-1.134,2.499-2.772
		c1.554-2.478,2.667-5.187,2.667-6.489c0-0.315-0.063-0.525-0.294-1.05C6.726,17.315,3.87,20.36,3.87,23.594z"/>
	<path d="M32.409,17.966h5.754c0.567-0.693,0.735-0.903,1.302-1.533c0.903,0.693,1.176,0.903,2.037,1.638
		c0.105,0.105,0.147,0.168,0.147,0.231c0,0.084-0.105,0.147-0.231,0.147h-8.652c1.05,0.966,1.554,1.386,2.352,1.869
		c0.966,0.609,2.415,1.239,3.801,1.659c0.84,0.273,1.554,0.42,3.066,0.63v0.252c-0.903,0.231-1.26,0.567-1.596,1.449
		c-2.226-0.798-3.381-1.428-4.998-2.709c-1.029-0.798-1.743-1.512-2.982-2.919v1.806c0,0.693,0,0.882,0.042,2.352
		c0,0.168-0.063,0.231-0.189,0.273s-0.609,0.105-0.924,0.105c-0.231,0-0.336-0.084-0.336-0.273c0.021-0.882,0.021-0.882,0.042-2.415
		l0.021-1.218c-1.701,1.701-2.709,2.499-4.62,3.696c-1.848,1.155-2.667,1.533-4.179,1.995l-0.126-0.231
		c2.184-1.071,3.549-2.016,5.166-3.507c0.924-0.861,1.134-1.092,2.625-2.814h-5.733c-0.378,0-0.84,0.063-1.197,0.147l-0.189-0.84
		c0.462,0.147,0.924,0.21,1.428,0.21h6.804v-2.163c-1.953,0.189-3.927,0.315-5.103,0.315c-0.483,0-1.008-0.021-1.974-0.084v-0.273
		c2.079-0.105,5.103-0.504,7.539-0.966c1.449-0.294,3.423-0.777,4.578-1.155c0.42-0.147,0.672-0.252,1.26-0.525
		c1.47,0.987,1.848,1.302,1.848,1.512c0,0.105-0.126,0.189-0.273,0.189c-0.147,0-0.525-0.105-0.882-0.21
		c-2.457,0.588-3.486,0.777-5.628,1.05V17.966z M35.853,24.015c0.399-0.441,0.399-0.441,0.756-0.819
		c0.609,0.42,0.777,0.546,1.323,0.966c0.126,0.105,0.189,0.168,0.189,0.252c0,0.147-0.147,0.252-0.609,0.462v3.402
		c0,1.575,0,2.184,0.063,3.486c0,0.315-0.231,0.399-1.155,0.399c-0.21,0-0.294-0.063-0.315-0.21V31.07h-8.19v0.735
		c0,0.168-0.042,0.231-0.21,0.294c-0.105,0.021-0.567,0.084-0.819,0.084c-0.294,0-0.42-0.084-0.42-0.294
		c0.063-1.827,0.084-3.822,0.084-5.859c0-1.155,0-1.533-0.063-2.835c0.735,0.336,0.966,0.441,1.722,0.819H35.853z M36.105,24.498
		h-8.19v2.562h8.19V24.498z M27.915,27.542v3.045h8.19v-3.045H27.915z"/>
	<path d="M43.455,31.952c1.617-0.777,2.625-1.428,4.137-2.583c1.092-0.861,1.386-1.134,1.764-1.68
		c1.848,0.819,2.163,0.987,2.163,1.218c0,0.126-0.147,0.231-0.357,0.231c-0.084,0-0.42-0.042-0.756-0.084
		c-2.856,1.827-3.318,2.037-6.825,3.171L43.455,31.952z M43.56,26.429c0.462,0.105,0.882,0.168,1.302,0.168h14.595
		c0.567-0.693,0.735-0.882,1.302-1.491c0.924,0.693,1.197,0.903,2.016,1.617c0.084,0.084,0.168,0.189,0.168,0.231
		c0,0.063-0.063,0.126-0.147,0.126H44.862c-0.63,0.042-1.008,0.084-1.155,0.105L43.56,26.429z M48.81,25.211
		c0,0.252-0.147,0.315-0.777,0.336c-0.168,0-0.294,0-0.357,0.021c-0.021,0-0.042,0-0.042,0c-0.21,0-0.315-0.105-0.315-0.294
		c0,0,0-0.042,0-0.063c0.084-4.809,0.084-4.809,0.084-5.88c0-1.68,0-1.68-0.084-5.859c0.756,0.378,0.987,0.504,1.659,0.987h7.812
		c0.336-0.441,0.441-0.588,0.819-0.987c0.546,0.399,0.714,0.525,1.218,0.903c0.168,0.147,0.273,0.273,0.273,0.357
		c0,0.147-0.189,0.294-0.735,0.588c0,3.654,0.042,7.854,0.105,9.744c0,0.021,0,0.063,0,0.063c0,0.231-0.168,0.315-0.777,0.336
		c-0.21,0-0.357,0.021-0.42,0.021c-0.021,0-0.042,0-0.063,0c-0.168,0-0.252-0.063-0.252-0.189c0-0.021,0-0.042,0-0.084V24.54H48.81
		V25.211z M56.958,14.942H48.81v2.646h8.148V14.942z M48.81,18.071v2.646h8.148v-2.646H48.81z M48.81,21.18v2.877h8.148V21.18H48.81
		z M54.795,27.731c2.016,0.546,3.57,1.134,4.914,1.827c0.84,0.462,1.071,0.798,1.071,1.596c0,0.504-0.168,0.861-0.42,0.861
		c-0.231,0-0.504-0.189-1.029-0.714c-1.218-1.197-2.667-2.226-4.662-3.318L54.795,27.731z"/>
	<path d="M70.293,16.434c0.294-0.357,0.399-0.483,0.735-0.84c0.546,0.399,0.693,0.525,1.155,0.903
		c0.105,0.126,0.147,0.189,0.147,0.252c0,0.105-0.084,0.189-0.567,0.525v1.869l0.021,2.163c0,0.063,0,0.231,0,0.504
		c-0.021,0.273-0.126,0.336-0.714,0.336c-0.147,0-0.273,0-0.357,0.021c-0.021,0-0.042,0-0.042,0c-0.189,0-0.252-0.063-0.252-0.231
		v-0.672h-3.675v3.192h3.507c0.357-0.378,0.483-0.504,0.861-0.903c0.525,0.42,0.672,0.546,1.134,0.903
		c0.126,0.126,0.147,0.168,0.147,0.21s-0.042,0.147-0.105,0.189c0,0.021-0.189,0.147-0.525,0.42v2.058c0,1.26,0,1.491,0.042,3.57
		c0,0.021,0,0.063,0,0.084c0,0.21-0.189,0.315-0.672,0.315c-0.189,0-0.336,0.021-0.378,0.021c-0.021,0-0.042,0-0.063,0
		c-0.189,0-0.273-0.063-0.273-0.189c0-0.021,0-0.042,0-0.042v-1.113h-3.675v1.47c-0.021,0.231-0.126,0.273-0.714,0.294
		c-0.126,0.021-0.21,0.021-0.294,0.021c-0.021,0-0.063,0-0.063,0c-0.231,0-0.315-0.042-0.336-0.231
		c0.021-2.121,0.042-6.237,0.042-13.377c0-0.399-0.021-1.113-0.042-2.73c0.693,0.42,0.903,0.546,1.596,1.008h0.609
		c0.126-0.504,0.126-0.504,0.189-0.735c0.42-1.596,0.483-1.953,0.567-2.835c2.016,0.483,2.394,0.609,2.394,0.819
		c0,0.189-0.063,0.21-0.945,0.483c-0.378,0.546-0.399,0.588-1.218,1.617c-0.126,0.168-0.126,0.168-0.504,0.651H70.293z
		 M70.419,20.78v-3.864h-3.675v3.864H70.419z M66.744,29.496h3.675v-4.557h-3.675V29.496z M78.462,18.66h2.415
		c0.378-0.399,0.504-0.525,0.903-0.945c0.609,0.462,0.819,0.609,1.239,0.966c0.126,0.126,0.168,0.189,0.168,0.252
		c0,0.168-0.21,0.357-0.672,0.651v5.208c0,0.168,0,0.588,0.042,2.961c0,0.777-0.126,1.071-0.609,1.365
		c-0.399,0.252-0.777,0.378-1.491,0.504c-0.084-0.945-0.399-1.239-1.722-1.575v-0.294c0.336,0.021,0.336,0.021,1.239,0.084
		c0.525,0.042,0.525,0.042,0.798,0.042c0.273,0,0.336-0.063,0.336-0.252v-8.484h-2.646v4.263c0,2.121,0.021,5.691,0.063,8.337
		c0,0.021,0,0.063,0,0.063c0,0.252-0.168,0.336-0.756,0.357c-0.189,0-0.315,0-0.399,0.021c-0.021,0-0.042,0-0.063,0
		c-0.168,0-0.231-0.042-0.252-0.189c0-1.323,0-1.323,0.021-3.591c0.042-2.478,0.042-3.003,0.042-4.914v-4.347h-2.31v4.116
		l0.063,5.943c-0.021,0.147-0.063,0.21-0.21,0.231c-0.084,0.021-0.672,0.063-0.945,0.063c-0.231,0-0.315-0.063-0.315-0.21
		c0,0,0-0.042,0-0.063c0.084-5.313,0.084-5.397,0.084-6.258c0-1.302-0.021-2.205-0.063-4.263c-0.021-0.504-0.021-0.504-0.021-0.966
		c0.672,0.378,0.861,0.504,1.533,0.924h2.184v-3.507h-3.15c-0.546,0-0.777,0.021-1.239,0.147l-0.21-0.819
		c0.462,0.126,0.987,0.189,1.428,0.189h6.531c0.525-0.651,0.693-0.861,1.26-1.47c0.861,0.672,1.113,0.882,1.848,1.554
		c0.084,0.105,0.147,0.21,0.147,0.252c0,0.084-0.084,0.147-0.252,0.147h-5.019V18.66z"/>
	<path d="M87.723,16.707c1.008,0.798,1.491,0.987,2.625,0.987c0.672,0,1.281-0.084,2.247-0.273c0.462-0.903,0.735-1.68,0.735-2.142
		c0-0.567-0.399-0.903-1.491-1.176c0.357-0.189,0.546-0.231,0.945-0.231c0.483,0,1.092,0.126,1.638,0.357
		c0.525,0.21,0.756,0.441,0.756,0.693c0,0.147-0.084,0.294-0.336,0.609c-0.189,0.252-0.441,0.63-0.609,0.861
		C93.855,17,93.855,17,93.708,17.21c1.764-0.504,2.331-0.756,3.024-1.344c0.126-0.105,0.252-0.147,0.399-0.147
		c0.819,0,1.407,0.294,1.407,0.693c0,0.252-0.273,0.462-0.903,0.672c-1.869,0.609-2.877,0.861-4.578,1.197
		c-0.378,0.525-0.63,0.903-1.113,1.638c-0.567,0.882-0.735,1.113-1.134,1.68c1.176-0.609,1.911-0.84,2.709-0.84
		c1.239,0,2.163,0.84,2.352,2.1c0.357-0.168,0.357-0.168,2.058-1.029c2.079-1.05,2.583-1.386,2.583-1.764
		c0-0.357-0.357-0.735-0.966-0.987c0.231-0.105,0.336-0.126,0.483-0.126c0.924,0,2.373,1.281,2.373,2.121
		c0,0.378-0.168,0.525-0.756,0.651c-1.26,0.294-3.99,1.344-5.628,2.163c0.021,0.672,0.021,0.798,0.021,1.701
		c0,0.945-0.063,1.596-0.168,1.806c-0.105,0.231-0.336,0.399-0.588,0.399c-0.399,0-0.672-0.273-0.672-0.63
		c0-0.105,0-0.21,0.021-0.357c0.084-0.609,0.126-1.323,0.147-2.247c-1.302,0.714-1.911,1.134-2.457,1.659
		c-0.693,0.672-1.029,1.323-1.029,1.953c0,1.134,1.155,1.68,3.507,1.68c1.47,0,2.94-0.21,4.221-0.588
		c0.147-0.042,0.294-0.063,0.399-0.063c0.651,0,1.47,0.588,1.47,1.05c0,0.273-0.231,0.483-0.651,0.567
		c-0.861,0.168-2.457,0.294-3.759,0.294c-1.974,0-3.423-0.21-4.263-0.609c-1.071-0.504-1.554-1.197-1.554-2.226
		c0-0.987,0.483-1.89,1.512-2.877c0.546-0.525,1.218-1.008,2.604-1.869c-0.021-0.882-0.084-1.218-0.294-1.659
		c-0.189-0.378-0.609-0.63-1.071-0.63c-1.386,0-3.045,1.113-4.557,3.045c-0.399,0.546-0.567,0.672-0.777,0.672
		c-0.336,0-0.567-0.441-0.567-1.113c0-0.441,0.021-0.462,0.609-0.945c1.491-1.176,2.415-2.268,3.906-4.515
		c-0.693,0.105-0.966,0.126-1.407,0.126c-1.428,0-2.163-0.378-3.129-1.617L87.723,16.707z"/>
	<path d="M26.676,38.956c-0.021,0.231-0.032,0.326-0.032,0.473c0,1.25,0.788,1.837,2.478,1.837c0.83,0,1.701-0.147,2.321-0.378
		c0.063-0.032,0.126-0.042,0.178-0.042c0.158,0,0.399,0.094,0.578,0.21c0.147,0.116,0.231,0.242,0.231,0.368
		c0,0.157-0.115,0.273-0.336,0.325c-0.483,0.126-1.512,0.21-2.446,0.21c-1.176,0-1.922-0.147-2.447-0.504
		c-0.525-0.336-0.872-0.998-0.872-1.659c0-0.252,0.053-0.536,0.168-0.882L26.676,38.956z M27.002,34.808
		c0.535,0.357,0.903,0.462,1.606,0.462c0.693,0,1.575-0.126,2.184-0.315c0.073-0.021,0.157-0.042,0.189-0.042
		c0.273,0,0.63,0.315,0.63,0.546c0,0.179-0.063,0.21-0.767,0.368c-0.41,0.084-0.504,0.126-1.533,0.515
		c-0.252,0.094-0.252,0.094-0.861,0.357c-0.21,0.084-0.21,0.094-0.41,0.168l-0.073-0.158c0.326-0.189,0.494-0.294,0.767-0.441
		c0.714-0.388,0.714-0.388,0.882-0.493c-0.231,0.021-0.599,0.031-0.788,0.031c-0.388,0-0.872-0.115-1.197-0.284
		c-0.273-0.147-0.441-0.294-0.735-0.609L27.002,34.808z"/>
	<path d="M44.369,43.019c0.62-0.504,1.029-0.935,1.386-1.512c0.546-0.893,0.893-2.111,0.893-3.192c0-1.04-0.378-1.68-0.998-1.68
		c-0.557,0-1.292,0.452-2.016,1.239c-0.2,0.2-0.263,0.242-0.431,0.242c-0.22,0-0.472-0.168-0.693-0.473
		c-0.179-0.241-0.284-0.514-0.284-0.704c0-0.136,0.042-0.231,0.168-0.388c0.095,0.462,0.305,0.725,0.578,0.725
		c0.147,0,0.42-0.116,0.966-0.41c0.892-0.483,1.239-0.599,1.774-0.599c0.483,0,0.998,0.273,1.302,0.704
		c0.252,0.368,0.399,0.914,0.399,1.543c0,1.239-0.472,2.468-1.302,3.392c-0.515,0.567-1.05,0.966-1.648,1.229L44.369,43.019z
		 M43.791,33.475c0.515,0.431,1.229,0.672,1.964,0.672h0.241c0.21,0,0.357,0.074,0.567,0.252c0.147,0.126,0.221,0.252,0.221,0.357
		c0,0.147-0.147,0.231-0.431,0.231c-0.441,0.01-0.441,0.01-2.614,0.64l-0.053-0.147c0.788-0.357,1.512-0.682,1.775-0.777
		c-0.861-0.178-1.375-0.504-1.775-1.145L43.791,33.475z"/>
	<path d="M60.339,33.958c0.294,0,0.872,0.273,1.166,0.557c0.168,0.158,0.231,0.263,0.231,0.41s-0.053,0.21-0.609,0.661
		c-0.567,0.473-1.596,1.439-1.932,1.817c-0.368,0.409-0.504,0.64-0.504,0.85c0,0.147,0.105,0.326,0.315,0.536
		c0.147,0.158,0.147,0.158,0.735,0.704c1.145,1.05,1.68,1.638,1.932,2.142c0.115,0.21,0.157,0.399,0.157,0.682
		c0,0.399-0.136,0.63-0.357,0.63c-0.136,0-0.178-0.053-0.357-0.431c-0.189-0.41-0.515-0.966-0.882-1.48
		c-0.389-0.557-0.441-0.62-1.533-1.9c-0.283-0.347-0.399-0.599-0.399-0.882c0-0.336,0.168-0.619,0.809-1.407
		c1.271-1.533,1.585-1.984,1.585-2.236c0-0.179-0.137-0.326-0.578-0.62C60.192,33.968,60.245,33.958,60.339,33.958z M62.555,34.493
		c0.452,0.189,0.798,0.389,1.124,0.651c0.305,0.242,0.431,0.441,0.431,0.693c0,0.294-0.105,0.514-0.252,0.514
		c-0.084,0-0.147-0.063-0.242-0.241c-0.231-0.473-0.756-1.155-1.134-1.501L62.555,34.493z M63.489,33.821
		c0.651,0.241,1.061,0.441,1.313,0.651c0.22,0.179,0.284,0.294,0.284,0.536c0,0.283-0.095,0.472-0.231,0.472
		c-0.073,0-0.147-0.063-0.231-0.189c-0.336-0.483-0.357-0.504-0.672-0.84c-0.242-0.242-0.357-0.347-0.546-0.504L63.489,33.821z"/>
	<path d="M80.132,40.415c-1.008,1.365-2.384,2.174-3.686,2.174c-0.798,0-1.417-0.326-1.743-0.893
		c-0.21-0.368-0.294-0.882-0.294-1.774c0-0.578,0.032-1.575,0.084-2.531c0.063-1.134,0.074-1.428,0.074-1.806
		c0-0.903-0.105-1.081-0.851-1.396c0.115-0.084,0.178-0.105,0.294-0.105c0.242,0,0.62,0.095,0.945,0.242
		c0.399,0.189,0.609,0.399,0.609,0.62c0,0.073-0.011,0.136-0.095,0.378c-0.2,0.63-0.546,3.812-0.546,5.04
		c0,0.64,0.126,1.019,0.42,1.26c0.231,0.179,0.567,0.284,0.935,0.284c0.714,0,1.596-0.252,2.394-0.672
		c0.483-0.252,0.787-0.473,1.333-0.935L80.132,40.415z"/>
</g>
<g>
	<path d="M37.218,54.318c1.092,0.525,1.522,0.956,1.522,1.522c0,0.252-0.116,0.399-0.315,0.399c-0.063,0-0.084-0.01-0.326-0.105
		c-0.283-0.105-0.682-0.189-1.145-0.242c-0.714-0.084-1.386-0.136-1.627-0.136c-0.241,0-0.399,0.115-0.399,0.294
		c0,0.147,0.221,0.672,0.693,1.638c0.578-0.315,1.239-0.62,1.838-0.851c0.766-0.294,1.375-0.42,2.016-0.42
		c1.271,0,2.174,0.682,2.174,1.659c0,0.41-0.21,0.882-0.536,1.197c-0.378,0.367-0.956,0.567-1.669,0.567
		c-0.851,0-1.732-0.294-2.384-0.788l0.074-0.157c0.546,0.273,1.229,0.441,1.837,0.441c0.704,0,1.26-0.2,1.575-0.567
		c0.22-0.252,0.336-0.567,0.336-0.903c0-0.725-0.546-1.134-1.512-1.134c-0.567,0-1.082,0.147-1.984,0.577
		c-0.494,0.242-0.977,0.504-1.554,0.851c0.504,1.019,0.819,1.722,1.176,2.615c0.41,1.04,0.515,1.375,0.515,1.722
		c0,0.452-0.2,0.788-0.483,0.788c-0.052,0-0.115-0.042-0.168-0.105c-0.063-0.073-0.094-0.178-0.136-0.462
		c-0.2-1.313-0.63-2.741-1.302-4.326c-0.598,0.399-0.956,0.651-1.082,0.735c-0.157,0.115-0.199,0.147-0.283,0.21
		c-0.137,0.115-0.231,0.157-0.368,0.157c-0.462,0-1.113-0.672-1.113-1.145c0-0.042,0.01-0.094,0.042-0.178
		c0.241,0.357,0.493,0.546,0.735,0.546c0.294,0,0.924-0.284,1.837-0.809c-0.262-0.588-0.514-1.029-0.725-1.292
		c-0.189-0.252-0.22-0.315-0.22-0.451c0-0.347,0.409-0.714,0.788-0.714c0.126,0,0.136,0,0.325,0.053
		c0.063,0.021,0.126,0.021,0.273,0.031c0.042,0,0.368,0,0.84,0.011c0.262,0.01,0.472,0.01,0.787,0.01
		c0.609,0,0.693-0.021,0.693-0.136c0-0.21-0.368-0.62-0.851-0.966L37.218,54.318z"/>
	<path d="M72.257,60.891c-1.008,1.365-2.384,2.174-3.686,2.174c-0.798,0-1.417-0.326-1.743-0.893
		c-0.21-0.368-0.294-0.882-0.294-1.774c0-0.578,0.032-1.575,0.084-2.531c0.063-1.134,0.074-1.428,0.074-1.806
		c0-0.903-0.105-1.081-0.851-1.396c0.115-0.084,0.178-0.105,0.294-0.105c0.242,0,0.62,0.095,0.945,0.242
		c0.399,0.189,0.609,0.399,0.609,0.62c0,0.073-0.011,0.136-0.095,0.378c-0.2,0.63-0.546,3.812-0.546,5.04
		c0,0.64,0.126,1.019,0.42,1.26c0.231,0.179,0.567,0.284,0.935,0.284c0.714,0,1.596-0.252,2.394-0.672
		c0.483-0.252,0.787-0.473,1.333-0.935L72.257,60.891z"/>
	<path d="M10.779,82.101c2.268-0.672,3.717-1.533,4.914-2.919c1.239-1.407,1.869-3.129,1.869-5.061c0-2.037-0.819-3.654-2.373-4.641
		c-0.924-0.609-2.31-0.966-3.633-0.966c-0.252,0-0.399,0-0.735,0.042c0.504,0.735,0.651,1.134,0.651,1.743
		c0,1.638-1.176,4.704-2.772,7.266c-1.323,2.1-2.352,3.129-3.129,3.129c-0.357,0-0.693-0.168-0.924-0.441
		c-0.189-0.252-0.231-0.336-0.588-1.344c-0.189-0.546-0.315-0.798-0.924-1.974c-0.336-0.672-0.483-1.239-0.483-1.911
		c0-1.323,0.714-2.877,1.89-4.158c1.701-1.806,4.473-2.94,7.224-2.94c2.121,0,4.074,0.693,5.418,1.932
		c1.344,1.239,2.016,2.898,2.016,4.935c0,2.625-1.533,4.956-4.179,6.363c-1.218,0.651-2.31,0.987-4.095,1.302L10.779,82.101z
		 M3.87,75.57c0,1.008,0.315,2.037,0.84,2.772c0.294,0.378,0.567,0.609,0.798,0.609c0.462,0,1.47-1.134,2.499-2.772
		c1.554-2.478,2.667-5.187,2.667-6.489c0-0.315-0.063-0.525-0.294-1.05C6.726,69.291,3.87,72.336,3.87,75.57z"/>
	<path d="M32.409,69.942h5.754c0.567-0.693,0.735-0.903,1.302-1.533c0.903,0.693,1.176,0.903,2.037,1.638
		c0.105,0.105,0.147,0.168,0.147,0.231c0,0.084-0.105,0.147-0.231,0.147h-8.652c1.05,0.966,1.554,1.386,2.352,1.869
		c0.966,0.609,2.415,1.239,3.801,1.659c0.84,0.273,1.554,0.42,3.066,0.63v0.252c-0.903,0.231-1.26,0.567-1.596,1.449
		c-2.226-0.798-3.381-1.428-4.998-2.709c-1.029-0.798-1.743-1.512-2.982-2.919v1.806c0,0.693,0,0.882,0.042,2.352
		c0,0.168-0.063,0.231-0.189,0.273s-0.609,0.105-0.924,0.105c-0.231,0-0.336-0.084-0.336-0.273c0.021-0.882,0.021-0.882,0.042-2.415
		l0.021-1.218c-1.701,1.701-2.709,2.499-4.62,3.696c-1.848,1.155-2.667,1.533-4.179,1.995l-0.126-0.231
		c2.184-1.071,3.549-2.016,5.166-3.507c0.924-0.861,1.134-1.092,2.625-2.814h-5.733c-0.378,0-0.84,0.063-1.197,0.147l-0.189-0.84
		c0.462,0.147,0.924,0.21,1.428,0.21h6.804v-2.163c-1.953,0.189-3.927,0.315-5.103,0.315c-0.483,0-1.008-0.021-1.974-0.084v-0.273
		c2.079-0.105,5.103-0.504,7.539-0.966c1.449-0.294,3.423-0.777,4.578-1.155c0.42-0.147,0.672-0.252,1.26-0.525
		c1.47,0.987,1.848,1.302,1.848,1.512c0,0.105-0.126,0.189-0.273,0.189c-0.147,0-0.525-0.105-0.882-0.21
		c-2.457,0.588-3.486,0.777-5.628,1.05V69.942z M35.853,75.99c0.399-0.441,0.399-0.441,0.756-0.819
		c0.609,0.42,0.777,0.546,1.323,0.966c0.126,0.105,0.189,0.168,0.189,0.252c0,0.147-0.147,0.252-0.609,0.462v3.402
		c0,1.575,0,2.184,0.063,3.486c0,0.315-0.231,0.399-1.155,0.399c-0.21,0-0.294-0.063-0.315-0.21v-0.882h-8.19v0.735
		c0,0.168-0.042,0.231-0.21,0.294c-0.105,0.021-0.567,0.084-0.819,0.084c-0.294,0-0.42-0.084-0.42-0.294
		c0.063-1.827,0.084-3.822,0.084-5.859c0-1.155,0-1.533-0.063-2.835c0.735,0.336,0.966,0.441,1.722,0.819H35.853z M36.105,76.473
		h-8.19v2.562h8.19V76.473z M27.915,79.518v3.045h8.19v-3.045H27.915z"/>
	<path d="M43.455,83.928c1.617-0.777,2.625-1.428,4.137-2.583c1.092-0.861,1.386-1.134,1.764-1.68
		c1.848,0.819,2.163,0.987,2.163,1.218c0,0.126-0.147,0.231-0.357,0.231c-0.084,0-0.42-0.042-0.756-0.084
		c-2.856,1.827-3.318,2.037-6.825,3.171L43.455,83.928z M43.56,78.405c0.462,0.105,0.882,0.168,1.302,0.168h14.595
		c0.567-0.693,0.735-0.882,1.302-1.491c0.924,0.693,1.197,0.903,2.016,1.617c0.084,0.084,0.168,0.189,0.168,0.231
		c0,0.063-0.063,0.126-0.147,0.126H44.862c-0.63,0.042-1.008,0.084-1.155,0.105L43.56,78.405z M48.81,77.187
		c0,0.252-0.147,0.315-0.777,0.336c-0.168,0-0.294,0-0.357,0.021c-0.021,0-0.042,0-0.042,0c-0.21,0-0.315-0.105-0.315-0.294
		c0,0,0-0.042,0-0.063c0.084-4.809,0.084-4.809,0.084-5.88c0-1.68,0-1.68-0.084-5.859c0.756,0.378,0.987,0.504,1.659,0.987h7.812
		c0.336-0.441,0.441-0.588,0.819-0.987c0.546,0.399,0.714,0.525,1.218,0.903c0.168,0.147,0.273,0.273,0.273,0.357
		c0,0.147-0.189,0.294-0.735,0.588c0,3.654,0.042,7.854,0.105,9.744c0,0.021,0,0.063,0,0.063c0,0.231-0.168,0.315-0.777,0.336
		c-0.21,0-0.357,0.021-0.42,0.021c-0.021,0-0.042,0-0.063,0c-0.168,0-0.252-0.063-0.252-0.189c0-0.021,0-0.042,0-0.084v-0.672H48.81
		V77.187z M56.958,66.918H48.81v2.646h8.148V66.918z M48.81,70.047v2.646h8.148v-2.646H48.81z M48.81,73.155v2.877h8.148v-2.877
		H48.81z M54.795,79.707c2.016,0.546,3.57,1.134,4.914,1.827c0.84,0.462,1.071,0.798,1.071,1.596c0,0.504-0.168,0.861-0.42,0.861
		c-0.231,0-0.504-0.189-1.029-0.714c-1.218-1.197-2.667-2.226-4.662-3.318L54.795,79.707z"/>
	<path d="M70.293,68.409c0.294-0.357,0.399-0.483,0.735-0.84c0.546,0.399,0.693,0.525,1.155,0.903
		c0.105,0.126,0.147,0.189,0.147,0.252c0,0.105-0.084,0.189-0.567,0.525v1.869l0.021,2.163c0,0.063,0,0.231,0,0.504
		c-0.021,0.273-0.126,0.336-0.714,0.336c-0.147,0-0.273,0-0.357,0.021c-0.021,0-0.042,0-0.042,0c-0.189,0-0.252-0.063-0.252-0.231
		v-0.672h-3.675v3.192h3.507c0.357-0.378,0.483-0.504,0.861-0.903c0.525,0.42,0.672,0.546,1.134,0.903
		c0.126,0.126,0.147,0.168,0.147,0.21s-0.042,0.147-0.105,0.189c0,0.021-0.189,0.147-0.525,0.42v2.058c0,1.26,0,1.491,0.042,3.57
		c0,0.021,0,0.063,0,0.084c0,0.21-0.189,0.315-0.672,0.315c-0.189,0-0.336,0.021-0.378,0.021c-0.021,0-0.042,0-0.063,0
		c-0.189,0-0.273-0.063-0.273-0.189c0-0.021,0-0.042,0-0.042v-1.113h-3.675v1.47c-0.021,0.231-0.126,0.273-0.714,0.294
		c-0.126,0.021-0.21,0.021-0.294,0.021c-0.021,0-0.063,0-0.063,0c-0.231,0-0.315-0.042-0.336-0.231
		c0.021-2.121,0.042-6.237,0.042-13.377c0-0.399-0.021-1.113-0.042-2.73c0.693,0.42,0.903,0.546,1.596,1.008h0.609
		c0.126-0.504,0.126-0.504,0.189-0.735c0.42-1.596,0.483-1.953,0.567-2.835c2.016,0.483,2.394,0.609,2.394,0.819
		c0,0.189-0.063,0.21-0.945,0.483c-0.378,0.546-0.399,0.588-1.218,1.617c-0.126,0.168-0.126,0.168-0.504,0.651H70.293z
		 M70.419,72.756v-3.864h-3.675v3.864H70.419z M66.744,81.471h3.675v-4.557h-3.675V81.471z M78.462,70.635h2.415
		c0.378-0.399,0.504-0.525,0.903-0.945c0.609,0.462,0.819,0.609,1.239,0.966c0.126,0.126,0.168,0.189,0.168,0.252
		c0,0.168-0.21,0.357-0.672,0.651v5.208c0,0.168,0,0.588,0.042,2.961c0,0.777-0.126,1.071-0.609,1.365
		c-0.399,0.252-0.777,0.378-1.491,0.504c-0.084-0.945-0.399-1.239-1.722-1.575v-0.294c0.336,0.021,0.336,0.021,1.239,0.084
		c0.525,0.042,0.525,0.042,0.798,0.042c0.273,0,0.336-0.063,0.336-0.252v-8.484h-2.646v4.263c0,2.121,0.021,5.691,0.063,8.337
		c0,0.021,0,0.063,0,0.063c0,0.252-0.168,0.336-0.756,0.357c-0.189,0-0.315,0-0.399,0.021c-0.021,0-0.042,0-0.063,0
		c-0.168,0-0.231-0.042-0.252-0.189c0-1.323,0-1.323,0.021-3.591c0.042-2.478,0.042-3.003,0.042-4.914v-4.347h-2.31v4.116
		l0.063,5.943c-0.021,0.147-0.063,0.21-0.21,0.231c-0.084,0.021-0.672,0.063-0.945,0.063c-0.231,0-0.315-0.063-0.315-0.21
		c0,0,0-0.042,0-0.063c0.084-5.313,0.084-5.397,0.084-6.258c0-1.302-0.021-2.205-0.063-4.263c-0.021-0.504-0.021-0.504-0.021-0.966
		c0.672,0.378,0.861,0.504,1.533,0.924h2.184v-3.507h-3.15c-0.546,0-0.777,0.021-1.239,0.147l-0.21-0.819
		c0.462,0.126,0.987,0.189,1.428,0.189h6.531c0.525-0.651,0.693-0.861,1.26-1.47c0.861,0.672,1.113,0.882,1.848,1.554
		c0.084,0.105,0.147,0.21,0.147,0.252c0,0.084-0.084,0.147-0.252,0.147h-5.019V70.635z"/>
	<path d="M87.723,68.682c1.008,0.798,1.491,0.987,2.625,0.987c0.672,0,1.281-0.084,2.247-0.273c0.462-0.903,0.735-1.68,0.735-2.142
		c0-0.567-0.399-0.903-1.491-1.176c0.357-0.189,0.546-0.231,0.945-0.231c0.483,0,1.092,0.126,1.638,0.357
		c0.525,0.21,0.756,0.441,0.756,0.693c0,0.147-0.084,0.294-0.336,0.609c-0.189,0.252-0.441,0.63-0.609,0.861
		c-0.378,0.609-0.378,0.609-0.525,0.819c1.764-0.504,2.331-0.756,3.024-1.344c0.126-0.105,0.252-0.147,0.399-0.147
		c0.819,0,1.407,0.294,1.407,0.693c0,0.252-0.273,0.462-0.903,0.672c-1.869,0.609-2.877,0.861-4.578,1.197
		c-0.378,0.525-0.63,0.903-1.113,1.638c-0.567,0.882-0.735,1.113-1.134,1.68c1.176-0.609,1.911-0.84,2.709-0.84
		c1.239,0,2.163,0.84,2.352,2.1c0.357-0.168,0.357-0.168,2.058-1.029c2.079-1.05,2.583-1.386,2.583-1.764
		c0-0.357-0.357-0.735-0.966-0.987c0.231-0.105,0.336-0.126,0.483-0.126c0.924,0,2.373,1.281,2.373,2.121
		c0,0.378-0.168,0.525-0.756,0.651c-1.26,0.294-3.99,1.344-5.628,2.163c0.021,0.672,0.021,0.798,0.021,1.701
		c0,0.945-0.063,1.596-0.168,1.806c-0.105,0.231-0.336,0.399-0.588,0.399c-0.399,0-0.672-0.273-0.672-0.63
		c0-0.105,0-0.21,0.021-0.357c0.084-0.609,0.126-1.323,0.147-2.247c-1.302,0.714-1.911,1.134-2.457,1.659
		c-0.693,0.672-1.029,1.323-1.029,1.953c0,1.134,1.155,1.68,3.507,1.68c1.47,0,2.94-0.21,4.221-0.588
		c0.147-0.042,0.294-0.063,0.399-0.063c0.651,0,1.47,0.588,1.47,1.05c0,0.273-0.231,0.483-0.651,0.567
		c-0.861,0.168-2.457,0.294-3.759,0.294c-1.974,0-3.423-0.21-4.263-0.609c-1.071-0.504-1.554-1.197-1.554-2.226
		c0-0.987,0.483-1.89,1.512-2.877c0.546-0.525,1.218-1.008,2.604-1.869c-0.021-0.882-0.084-1.218-0.294-1.659
		c-0.189-0.378-0.609-0.63-1.071-0.63c-1.386,0-3.045,1.113-4.557,3.045c-0.399,0.546-0.567,0.672-0.777,0.672
		c-0.336,0-0.567-0.441-0.567-1.113c0-0.441,0.021-0.462,0.609-0.945c1.491-1.176,2.415-2.268,3.906-4.515
		c-0.693,0.105-0.966,0.126-1.407,0.126c-1.428,0-2.163-0.378-3.129-1.617L87.723,68.682z"/>
	<path d="M26.676,90.931c-0.021,0.231-0.032,0.326-0.032,0.473c0,1.25,0.788,1.837,2.478,1.837c0.83,0,1.701-0.147,2.321-0.378
		c0.063-0.032,0.126-0.042,0.178-0.042c0.158,0,0.399,0.094,0.578,0.21c0.147,0.116,0.231,0.242,0.231,0.368
		c0,0.157-0.115,0.273-0.336,0.325c-0.483,0.126-1.512,0.21-2.446,0.21c-1.176,0-1.922-0.147-2.447-0.504
		c-0.525-0.336-0.872-0.998-0.872-1.659c0-0.252,0.053-0.536,0.168-0.882L26.676,90.931z M27.002,86.784
		c0.535,0.357,0.903,0.462,1.606,0.462c0.693,0,1.575-0.126,2.184-0.315c0.073-0.021,0.157-0.042,0.189-0.042
		c0.273,0,0.63,0.315,0.63,0.546c0,0.179-0.063,0.21-0.767,0.368c-0.41,0.084-0.504,0.126-1.533,0.515
		c-0.252,0.094-0.252,0.094-0.861,0.357c-0.21,0.084-0.21,0.094-0.41,0.168l-0.073-0.158c0.326-0.189,0.494-0.294,0.767-0.441
		c0.714-0.388,0.714-0.388,0.882-0.493c-0.231,0.021-0.599,0.031-0.788,0.031c-0.388,0-0.872-0.115-1.197-0.284
		c-0.273-0.147-0.441-0.294-0.735-0.609L27.002,86.784z"/>
	<path d="M44.369,94.995c0.62-0.504,1.029-0.935,1.386-1.512c0.546-0.893,0.893-2.111,0.893-3.192c0-1.04-0.378-1.68-0.998-1.68
		c-0.557,0-1.292,0.452-2.016,1.239c-0.2,0.2-0.263,0.242-0.431,0.242c-0.22,0-0.472-0.168-0.693-0.473
		c-0.179-0.241-0.284-0.514-0.284-0.704c0-0.136,0.042-0.231,0.168-0.388c0.095,0.462,0.305,0.725,0.578,0.725
		c0.147,0,0.42-0.116,0.966-0.41c0.892-0.483,1.239-0.599,1.774-0.599c0.483,0,0.998,0.273,1.302,0.704
		c0.252,0.368,0.399,0.914,0.399,1.543c0,1.239-0.472,2.468-1.302,3.392c-0.515,0.567-1.05,0.966-1.648,1.229L44.369,94.995z
		 M43.791,85.45c0.515,0.431,1.229,0.672,1.964,0.672h0.241c0.21,0,0.357,0.074,0.567,0.252c0.147,0.126,0.221,0.252,0.221,0.357
		c0,0.147-0.147,0.231-0.431,0.231c-0.441,0.01-0.441,0.01-2.614,0.64l-0.053-0.147c0.788-0.357,1.512-0.682,1.775-0.777
		c-0.861-0.178-1.375-0.504-1.775-1.145L43.791,85.45z"/>
	<path d="M60.339,85.933c0.294,0,0.872,0.273,1.166,0.557c0.168,0.158,0.231,0.263,0.231,0.41s-0.053,0.21-0.609,0.661
		c-0.567,0.473-1.596,1.439-1.932,1.817c-0.368,0.409-0.504,0.64-0.504,0.85c0,0.147,0.105,0.326,0.315,0.536
		c0.147,0.158,0.147,0.158,0.735,0.704c1.145,1.05,1.68,1.638,1.932,2.142c0.115,0.21,0.157,0.399,0.157,0.682
		c0,0.399-0.136,0.63-0.357,0.63c-0.136,0-0.178-0.053-0.357-0.431c-0.189-0.41-0.515-0.966-0.882-1.48
		c-0.389-0.557-0.441-0.62-1.533-1.9c-0.283-0.347-0.399-0.599-0.399-0.882c0-0.336,0.168-0.619,0.809-1.407
		c1.271-1.533,1.585-1.984,1.585-2.236c0-0.179-0.137-0.326-0.578-0.62C60.192,85.944,60.245,85.933,60.339,85.933z M62.555,86.469
		c0.452,0.189,0.798,0.389,1.124,0.651c0.305,0.242,0.431,0.441,0.431,0.693c0,0.294-0.105,0.514-0.252,0.514
		c-0.084,0-0.147-0.063-0.242-0.241c-0.231-0.473-0.756-1.155-1.134-1.501L62.555,86.469z M63.489,85.797
		c0.651,0.241,1.061,0.441,1.313,0.651c0.22,0.179,0.284,0.294,0.284,0.536c0,0.283-0.095,0.472-0.231,0.472
		c-0.073,0-0.147-0.063-0.231-0.189c-0.336-0.483-0.357-0.504-0.672-0.84c-0.242-0.242-0.357-0.347-0.546-0.504L63.489,85.797z"/>
	<path d="M80.132,92.391c-1.008,1.365-2.384,2.174-3.686,2.174c-0.798,0-1.417-0.326-1.743-0.893
		c-0.21-0.368-0.294-0.882-0.294-1.774c0-0.578,0.032-1.575,0.084-2.531c0.063-1.134,0.074-1.428,0.074-1.806
		c0-0.903-0.105-1.081-0.851-1.396c0.115-0.084,0.178-0.105,0.294-0.105c0.242,0,0.62,0.095,0.945,0.242
		c0.399,0.189,0.609,0.399,0.609,0.62c0,0.073-0.011,0.136-0.095,0.378c-0.2,0.63-0.546,3.812-0.546,5.04
		c0,0.64,0.126,1.019,0.42,1.26c0.231,0.179,0.567,0.284,0.935,0.284c0.714,0,1.596-0.252,2.394-0.672
		c0.483-0.252,0.787-0.473,1.333-0.935L80.132,92.391z"/>
</g>
<rect x="0.25" y="11.875" fill="none" stroke="#008CD6" stroke-width="0.5" width="105" height="21"/>
<line fill="none" stroke="#008CD6" stroke-width="0.5" x1="21.25" y1="32.875" x2="21.25" y2="11.875"/>
<line fill="none" stroke="#008CD6" stroke-width="0.5" x1="42.25" y1="32.875" x2="42.25" y2="11.875"/>
<line fill="none" stroke="#008CD6" stroke-width="0.5" x1="63.25" y1="32.875" x2="63.25" y2="11.875"/>
<line fill="none" stroke="#008CD6" stroke-width="0.5" x1="84.25" y1="32.875" x2="84.25" y2="11.875"/>
<g>
	<polyline fill="none" stroke="#008CD6" stroke-width="0.5" points="32.375,10.75 32.375,0.25 42.875,0.25 42.875,10.75 	"/>
</g>
<g>
	<polyline fill="none" stroke="#008CD6" stroke-width="0.5" points="63.25,10.75 63.25,0.25 73.75,0.25 73.75,10.75 	"/>
</g>
<polyline fill="none" stroke="#008CD6" stroke-width="0.5" points="34.375,32.875 34.375,43.375 23.875,43.375 23.875,32.875 "/>
<polyline fill="none" stroke="#008CD6" stroke-width="0.5" points="50.125,32.875 50.125,43.375 39.625,43.375 39.625,32.875 "/>
<polyline fill="none" stroke="#008CD6" stroke-width="0.5" points="65.875,32.875 65.875,43.375 55.375,43.375 55.375,32.875 "/>
<polyline fill="none" stroke="#008CD6" stroke-width="0.5" points="81.625,32.875 81.625,43.375 71.125,43.375 71.125,32.875 "/>
</svg>
